<?xml version="1.0" encoding="utf-8" standalone="no"?>
<!DOCTYPE svg PUBLIC "-//W3C//DTD SVG 1.1//EN"
  "http://www.w3.org/Graphics/SVG/1.1/DTD/svg11.dtd">
<svg xmlns:xlink="http://www.w3.org/1999/xlink" width="872.827625pt" height="370.537812pt" viewBox="0 0 872.827625 370.537812" xmlns="http://www.w3.org/2000/svg" version="1.1">
 <metadata>
  <rdf:RDF xmlns:dc="http://purl.org/dc/elements/1.1/" xmlns:cc="http://creativecommons.org/ns#" xmlns:rdf="http://www.w3.org/1999/02/22-rdf-syntax-ns#">
   <cc:Work>
    <dc:type rdf:resource="http://purl.org/dc/dcmitype/StillImage"/>
    <dc:date>2025-11-04T18:11:48.020218</dc:date>
    <dc:format>image/svg+xml</dc:format>
    <dc:creator>
     <cc:Agent>
      <dc:title>Matplotlib v3.10.7, https://matplotlib.org/</dc:title>
     </cc:Agent>
    </dc:creator>
   </cc:Work>
  </rdf:RDF>
 </metadata>
 <defs>
  <style type="text/css">*{stroke-linejoin: round; stroke-linecap: butt}</style>
 </defs>
 <g id="figure_1">
  <g id="patch_1">
   <path d="M 0 370.537812 
L 872.827625 370.537812 
L 872.827625 0 
L 0 0 
z
" style="fill: #ffffff"/>
  </g>
  <g id="axes_1">
   <g id="patch_2">
    <path d="M 84.427625 320.4 
L 424.079799 320.4 
L 424.079799 43.2 
L 84.427625 43.2 
z
" style="fill: #ffffff"/>
   </g>
   <g id="matplotlib.axis_1">
    <g id="xtick_1">
     <g id="line2d_1">
      <defs>
       <path id="m1969d6de08" d="M 0 0 
L 0 3.5 
" style="stroke: #000000; stroke-width: 0.8"/>
      </defs>
      <g>
       <use xlink:href="#m1969d6de08" x="99.86636" y="320.4" style="stroke: #000000; stroke-width: 0.8"/>
      </g>
     </g>
     <g id="text_1">
      <!-- 0 -->
      <g transform="translate(95.094485 338.797656) scale(0.15 -0.15)">
       <defs>
        <path id="DejaVuSans-30" d="M 2034 4250 
Q 1547 4250 1301 3770 
Q 1056 3291 1056 2328 
Q 1056 1369 1301 889 
Q 1547 409 2034 409 
Q 2525 409 2770 889 
Q 3016 1369 3016 2328 
Q 3016 3291 2770 3770 
Q 2525 4250 2034 4250 
z
M 2034 4750 
Q 2819 4750 3233 4129 
Q 3647 3509 3647 2328 
Q 3647 1150 3233 529 
Q 2819 -91 2034 -91 
Q 1250 -91 836 529 
Q 422 1150 422 2328 
Q 422 3509 836 4129 
Q 1250 4750 2034 4750 
z
" transform="scale(0.015625)"/>
       </defs>
       <use xlink:href="#DejaVuSans-30"/>
      </g>
     </g>
    </g>
    <g id="xtick_2">
     <g id="line2d_2">
      <g>
       <use xlink:href="#m1969d6de08" x="185.637111" y="320.4" style="stroke: #000000; stroke-width: 0.8"/>
      </g>
     </g>
     <g id="text_2">
      <!-- 50 -->
      <g transform="translate(176.093361 338.797656) scale(0.15 -0.15)">
       <defs>
        <path id="DejaVuSans-35" d="M 691 4666 
L 3169 4666 
L 3169 4134 
L 1269 4134 
L 1269 2991 
Q 1406 3038 1543 3061 
Q 1681 3084 1819 3084 
Q 2600 3084 3056 2656 
Q 3513 2228 3513 1497 
Q 3513 744 3044 326 
Q 2575 -91 1722 -91 
Q 1428 -91 1123 -41 
Q 819 9 494 109 
L 494 744 
Q 775 591 1075 516 
Q 1375 441 1709 441 
Q 2250 441 2565 725 
Q 2881 1009 2881 1497 
Q 2881 1984 2565 2268 
Q 2250 2553 1709 2553 
Q 1456 2553 1204 2497 
Q 953 2441 691 2322 
L 691 4666 
z
" transform="scale(0.015625)"/>
       </defs>
       <use xlink:href="#DejaVuSans-35"/>
       <use xlink:href="#DejaVuSans-30" transform="translate(63.623047 0)"/>
      </g>
     </g>
    </g>
    <g id="xtick_3">
     <g id="line2d_3">
      <g>
       <use xlink:href="#m1969d6de08" x="271.407862" y="320.4" style="stroke: #000000; stroke-width: 0.8"/>
      </g>
     </g>
     <g id="text_3">
      <!-- 100 -->
      <g transform="translate(257.092237 338.797656) scale(0.15 -0.15)">
       <defs>
        <path id="DejaVuSans-31" d="M 794 531 
L 1825 531 
L 1825 4091 
L 703 3866 
L 703 4441 
L 1819 4666 
L 2450 4666 
L 2450 531 
L 3481 531 
L 3481 0 
L 794 0 
L 794 531 
z
" transform="scale(0.015625)"/>
       </defs>
       <use xlink:href="#DejaVuSans-31"/>
       <use xlink:href="#DejaVuSans-30" transform="translate(63.623047 0)"/>
       <use xlink:href="#DejaVuSans-30" transform="translate(127.246094 0)"/>
      </g>
     </g>
    </g>
    <g id="xtick_4">
     <g id="line2d_4">
      <g>
       <use xlink:href="#m1969d6de08" x="357.178613" y="320.4" style="stroke: #000000; stroke-width: 0.8"/>
      </g>
     </g>
     <g id="text_4">
      <!-- 150 -->
      <g transform="translate(342.862988 338.797656) scale(0.15 -0.15)">
       <use xlink:href="#DejaVuSans-31"/>
       <use xlink:href="#DejaVuSans-35" transform="translate(63.623047 0)"/>
       <use xlink:href="#DejaVuSans-30" transform="translate(127.246094 0)"/>
      </g>
     </g>
    </g>
    <g id="text_5">
     <!-- time [hr] -->
     <g transform="translate(209.179181 359.594375) scale(0.18 -0.18)">
      <defs>
       <path id="DejaVuSans-Bold-74" d="M 1759 4494 
L 1759 3500 
L 2913 3500 
L 2913 2700 
L 1759 2700 
L 1759 1216 
Q 1759 972 1856 886 
Q 1953 800 2241 800 
L 2816 800 
L 2816 0 
L 1856 0 
Q 1194 0 917 276 
Q 641 553 641 1216 
L 641 2700 
L 84 2700 
L 84 3500 
L 641 3500 
L 641 4494 
L 1759 4494 
z
" transform="scale(0.015625)"/>
       <path id="DejaVuSans-Bold-69" d="M 538 3500 
L 1656 3500 
L 1656 0 
L 538 0 
L 538 3500 
z
M 538 4863 
L 1656 4863 
L 1656 3950 
L 538 3950 
L 538 4863 
z
" transform="scale(0.015625)"/>
       <path id="DejaVuSans-Bold-6d" d="M 3781 2919 
Q 3994 3244 4286 3414 
Q 4578 3584 4928 3584 
Q 5531 3584 5847 3212 
Q 6163 2841 6163 2131 
L 6163 0 
L 5038 0 
L 5038 1825 
Q 5041 1866 5042 1909 
Q 5044 1953 5044 2034 
Q 5044 2406 4934 2573 
Q 4825 2741 4581 2741 
Q 4263 2741 4089 2478 
Q 3916 2216 3909 1719 
L 3909 0 
L 2784 0 
L 2784 1825 
Q 2784 2406 2684 2573 
Q 2584 2741 2328 2741 
Q 2006 2741 1831 2477 
Q 1656 2213 1656 1722 
L 1656 0 
L 531 0 
L 531 3500 
L 1656 3500 
L 1656 2988 
Q 1863 3284 2130 3434 
Q 2397 3584 2719 3584 
Q 3081 3584 3359 3409 
Q 3638 3234 3781 2919 
z
" transform="scale(0.015625)"/>
       <path id="DejaVuSans-Bold-65" d="M 4031 1759 
L 4031 1441 
L 1416 1441 
Q 1456 1047 1700 850 
Q 1944 653 2381 653 
Q 2734 653 3104 758 
Q 3475 863 3866 1075 
L 3866 213 
Q 3469 63 3072 -14 
Q 2675 -91 2278 -91 
Q 1328 -91 801 392 
Q 275 875 275 1747 
Q 275 2603 792 3093 
Q 1309 3584 2216 3584 
Q 3041 3584 3536 3087 
Q 4031 2591 4031 1759 
z
M 2881 2131 
Q 2881 2450 2695 2645 
Q 2509 2841 2209 2841 
Q 1884 2841 1681 2658 
Q 1478 2475 1428 2131 
L 2881 2131 
z
" transform="scale(0.015625)"/>
       <path id="DejaVuSans-Bold-20" transform="scale(0.015625)"/>
       <path id="DejaVuSans-Bold-5b" d="M 550 4863 
L 2491 4863 
L 2491 4159 
L 1613 4159 
L 1613 -141 
L 2491 -141 
L 2491 -844 
L 550 -844 
L 550 4863 
z
" transform="scale(0.015625)"/>
       <path id="DejaVuSans-Bold-68" d="M 4056 2131 
L 4056 0 
L 2931 0 
L 2931 347 
L 2931 1625 
Q 2931 2084 2911 2256 
Q 2891 2428 2841 2509 
Q 2775 2619 2662 2680 
Q 2550 2741 2406 2741 
Q 2056 2741 1856 2470 
Q 1656 2200 1656 1722 
L 1656 0 
L 538 0 
L 538 4863 
L 1656 4863 
L 1656 2988 
Q 1909 3294 2193 3439 
Q 2478 3584 2822 3584 
Q 3428 3584 3742 3212 
Q 4056 2841 4056 2131 
z
" transform="scale(0.015625)"/>
       <path id="DejaVuSans-Bold-72" d="M 3138 2547 
Q 2991 2616 2845 2648 
Q 2700 2681 2553 2681 
Q 2122 2681 1889 2404 
Q 1656 2128 1656 1613 
L 1656 0 
L 538 0 
L 538 3500 
L 1656 3500 
L 1656 2925 
Q 1872 3269 2151 3426 
Q 2431 3584 2822 3584 
Q 2878 3584 2943 3579 
Q 3009 3575 3134 3559 
L 3138 2547 
z
" transform="scale(0.015625)"/>
       <path id="DejaVuSans-Bold-5d" d="M 2375 -844 
L 434 -844 
L 434 -141 
L 1313 -141 
L 1313 4159 
L 434 4159 
L 434 4863 
L 2375 4863 
L 2375 -844 
z
" transform="scale(0.015625)"/>
      </defs>
      <use xlink:href="#DejaVuSans-Bold-74"/>
      <use xlink:href="#DejaVuSans-Bold-69" transform="translate(47.802734 0)"/>
      <use xlink:href="#DejaVuSans-Bold-6d" transform="translate(82.080078 0)"/>
      <use xlink:href="#DejaVuSans-Bold-65" transform="translate(186.279297 0)"/>
      <use xlink:href="#DejaVuSans-Bold-20" transform="translate(254.101562 0)"/>
      <use xlink:href="#DejaVuSans-Bold-5b" transform="translate(288.916016 0)"/>
      <use xlink:href="#DejaVuSans-Bold-68" transform="translate(334.619141 0)"/>
      <use xlink:href="#DejaVuSans-Bold-72" transform="translate(405.810547 0)"/>
      <use xlink:href="#DejaVuSans-Bold-5d" transform="translate(455.126953 0)"/>
     </g>
    </g>
   </g>
   <g id="matplotlib.axis_2">
    <g id="ytick_1">
     <g id="line2d_5">
      <defs>
       <path id="m1bc8b3ed38" d="M 0 0 
L -3.5 0 
" style="stroke: #000000; stroke-width: 0.8"/>
      </defs>
      <g>
       <use xlink:href="#m1bc8b3ed38" x="84.427625" y="307.8" style="stroke: #000000; stroke-width: 0.8"/>
      </g>
     </g>
     <g id="text_6">
      <!-- 0 -->
      <g transform="translate(67.883875 313.498828) scale(0.15 -0.15)">
       <use xlink:href="#DejaVuSans-30"/>
      </g>
     </g>
    </g>
    <g id="ytick_2">
     <g id="line2d_6">
      <g>
       <use xlink:href="#m1bc8b3ed38" x="84.427625" y="267.786738" style="stroke: #000000; stroke-width: 0.8"/>
      </g>
     </g>
     <g id="text_7">
      <!-- 20 -->
      <g transform="translate(58.340125 273.485567) scale(0.15 -0.15)">
       <defs>
        <path id="DejaVuSans-32" d="M 1228 531 
L 3431 531 
L 3431 0 
L 469 0 
L 469 531 
Q 828 903 1448 1529 
Q 2069 2156 2228 2338 
Q 2531 2678 2651 2914 
Q 2772 3150 2772 3378 
Q 2772 3750 2511 3984 
Q 2250 4219 1831 4219 
Q 1534 4219 1204 4116 
Q 875 4013 500 3803 
L 500 4441 
Q 881 4594 1212 4672 
Q 1544 4750 1819 4750 
Q 2544 4750 2975 4387 
Q 3406 4025 3406 3419 
Q 3406 3131 3298 2873 
Q 3191 2616 2906 2266 
Q 2828 2175 2409 1742 
Q 1991 1309 1228 531 
z
" transform="scale(0.015625)"/>
       </defs>
       <use xlink:href="#DejaVuSans-32"/>
       <use xlink:href="#DejaVuSans-30" transform="translate(63.623047 0)"/>
      </g>
     </g>
    </g>
    <g id="ytick_3">
     <g id="line2d_7">
      <g>
       <use xlink:href="#m1bc8b3ed38" x="84.427625" y="227.773477" style="stroke: #000000; stroke-width: 0.8"/>
      </g>
     </g>
     <g id="text_8">
      <!-- 40 -->
      <g transform="translate(58.340125 233.472305) scale(0.15 -0.15)">
       <defs>
        <path id="DejaVuSans-34" d="M 2419 4116 
L 825 1625 
L 2419 1625 
L 2419 4116 
z
M 2253 4666 
L 3047 4666 
L 3047 1625 
L 3713 1625 
L 3713 1100 
L 3047 1100 
L 3047 0 
L 2419 0 
L 2419 1100 
L 313 1100 
L 313 1709 
L 2253 4666 
z
" transform="scale(0.015625)"/>
       </defs>
       <use xlink:href="#DejaVuSans-34"/>
       <use xlink:href="#DejaVuSans-30" transform="translate(63.623047 0)"/>
      </g>
     </g>
    </g>
    <g id="ytick_4">
     <g id="line2d_8">
      <g>
       <use xlink:href="#m1bc8b3ed38" x="84.427625" y="187.760215" style="stroke: #000000; stroke-width: 0.8"/>
      </g>
     </g>
     <g id="text_9">
      <!-- 60 -->
      <g transform="translate(58.340125 193.459044) scale(0.15 -0.15)">
       <defs>
        <path id="DejaVuSans-36" d="M 2113 2584 
Q 1688 2584 1439 2293 
Q 1191 2003 1191 1497 
Q 1191 994 1439 701 
Q 1688 409 2113 409 
Q 2538 409 2786 701 
Q 3034 994 3034 1497 
Q 3034 2003 2786 2293 
Q 2538 2584 2113 2584 
z
M 3366 4563 
L 3366 3988 
Q 3128 4100 2886 4159 
Q 2644 4219 2406 4219 
Q 1781 4219 1451 3797 
Q 1122 3375 1075 2522 
Q 1259 2794 1537 2939 
Q 1816 3084 2150 3084 
Q 2853 3084 3261 2657 
Q 3669 2231 3669 1497 
Q 3669 778 3244 343 
Q 2819 -91 2113 -91 
Q 1303 -91 875 529 
Q 447 1150 447 2328 
Q 447 3434 972 4092 
Q 1497 4750 2381 4750 
Q 2619 4750 2861 4703 
Q 3103 4656 3366 4563 
z
" transform="scale(0.015625)"/>
       </defs>
       <use xlink:href="#DejaVuSans-36"/>
       <use xlink:href="#DejaVuSans-30" transform="translate(63.623047 0)"/>
      </g>
     </g>
    </g>
    <g id="ytick_5">
     <g id="line2d_9">
      <g>
       <use xlink:href="#m1bc8b3ed38" x="84.427625" y="147.746954" style="stroke: #000000; stroke-width: 0.8"/>
      </g>
     </g>
     <g id="text_10">
      <!-- 80 -->
      <g transform="translate(58.340125 153.445782) scale(0.15 -0.15)">
       <defs>
        <path id="DejaVuSans-38" d="M 2034 2216 
Q 1584 2216 1326 1975 
Q 1069 1734 1069 1313 
Q 1069 891 1326 650 
Q 1584 409 2034 409 
Q 2484 409 2743 651 
Q 3003 894 3003 1313 
Q 3003 1734 2745 1975 
Q 2488 2216 2034 2216 
z
M 1403 2484 
Q 997 2584 770 2862 
Q 544 3141 544 3541 
Q 544 4100 942 4425 
Q 1341 4750 2034 4750 
Q 2731 4750 3128 4425 
Q 3525 4100 3525 3541 
Q 3525 3141 3298 2862 
Q 3072 2584 2669 2484 
Q 3125 2378 3379 2068 
Q 3634 1759 3634 1313 
Q 3634 634 3220 271 
Q 2806 -91 2034 -91 
Q 1263 -91 848 271 
Q 434 634 434 1313 
Q 434 1759 690 2068 
Q 947 2378 1403 2484 
z
M 1172 3481 
Q 1172 3119 1398 2916 
Q 1625 2713 2034 2713 
Q 2441 2713 2670 2916 
Q 2900 3119 2900 3481 
Q 2900 3844 2670 4047 
Q 2441 4250 2034 4250 
Q 1625 4250 1398 4047 
Q 1172 3844 1172 3481 
z
" transform="scale(0.015625)"/>
       </defs>
       <use xlink:href="#DejaVuSans-38"/>
       <use xlink:href="#DejaVuSans-30" transform="translate(63.623047 0)"/>
      </g>
     </g>
    </g>
    <g id="ytick_6">
     <g id="line2d_10">
      <g>
       <use xlink:href="#m1bc8b3ed38" x="84.427625" y="107.733692" style="stroke: #000000; stroke-width: 0.8"/>
      </g>
     </g>
     <g id="text_11">
      <!-- 100 -->
      <g transform="translate(48.796375 113.432521) scale(0.15 -0.15)">
       <use xlink:href="#DejaVuSans-31"/>
       <use xlink:href="#DejaVuSans-30" transform="translate(63.623047 0)"/>
       <use xlink:href="#DejaVuSans-30" transform="translate(127.246094 0)"/>
      </g>
     </g>
    </g>
    <g id="ytick_7">
     <g id="line2d_11">
      <g>
       <use xlink:href="#m1bc8b3ed38" x="84.427625" y="67.720431" style="stroke: #000000; stroke-width: 0.8"/>
      </g>
     </g>
     <g id="text_12">
      <!-- 120 -->
      <g transform="translate(48.796375 73.419259) scale(0.15 -0.15)">
       <use xlink:href="#DejaVuSans-31"/>
       <use xlink:href="#DejaVuSans-32" transform="translate(63.623047 0)"/>
       <use xlink:href="#DejaVuSans-30" transform="translate(127.246094 0)"/>
      </g>
     </g>
    </g>
    <g id="text_13">
     <!-- HCTZ urine -->
     <g transform="translate(20.877188 238.177969) rotate(-90) scale(0.18 -0.18)">
      <defs>
       <path id="DejaVuSans-Bold-48" d="M 588 4666 
L 1791 4666 
L 1791 2888 
L 3566 2888 
L 3566 4666 
L 4769 4666 
L 4769 0 
L 3566 0 
L 3566 1978 
L 1791 1978 
L 1791 0 
L 588 0 
L 588 4666 
z
" transform="scale(0.015625)"/>
       <path id="DejaVuSans-Bold-43" d="M 4288 256 
Q 3956 84 3597 -3 
Q 3238 -91 2847 -91 
Q 1681 -91 1000 561 
Q 319 1213 319 2328 
Q 319 3447 1000 4098 
Q 1681 4750 2847 4750 
Q 3238 4750 3597 4662 
Q 3956 4575 4288 4403 
L 4288 3438 
Q 3953 3666 3628 3772 
Q 3303 3878 2944 3878 
Q 2300 3878 1931 3465 
Q 1563 3053 1563 2328 
Q 1563 1606 1931 1193 
Q 2300 781 2944 781 
Q 3303 781 3628 887 
Q 3953 994 4288 1222 
L 4288 256 
z
" transform="scale(0.015625)"/>
       <path id="DejaVuSans-Bold-54" d="M 31 4666 
L 4331 4666 
L 4331 3756 
L 2784 3756 
L 2784 0 
L 1581 0 
L 1581 3756 
L 31 3756 
L 31 4666 
z
" transform="scale(0.015625)"/>
       <path id="DejaVuSans-Bold-5a" d="M 359 4666 
L 4281 4666 
L 4281 3938 
L 1778 909 
L 4353 909 
L 4353 0 
L 288 0 
L 288 728 
L 2791 3756 
L 359 3756 
L 359 4666 
z
" transform="scale(0.015625)"/>
       <path id="DejaVuSans-Bold-75" d="M 500 1363 
L 500 3500 
L 1625 3500 
L 1625 3150 
Q 1625 2866 1622 2436 
Q 1619 2006 1619 1863 
Q 1619 1441 1641 1255 
Q 1663 1069 1716 984 
Q 1784 875 1895 815 
Q 2006 756 2150 756 
Q 2500 756 2700 1025 
Q 2900 1294 2900 1772 
L 2900 3500 
L 4019 3500 
L 4019 0 
L 2900 0 
L 2900 506 
Q 2647 200 2364 54 
Q 2081 -91 1741 -91 
Q 1134 -91 817 281 
Q 500 653 500 1363 
z
" transform="scale(0.015625)"/>
       <path id="DejaVuSans-Bold-6e" d="M 4056 2131 
L 4056 0 
L 2931 0 
L 2931 347 
L 2931 1631 
Q 2931 2084 2911 2256 
Q 2891 2428 2841 2509 
Q 2775 2619 2662 2680 
Q 2550 2741 2406 2741 
Q 2056 2741 1856 2470 
Q 1656 2200 1656 1722 
L 1656 0 
L 538 0 
L 538 3500 
L 1656 3500 
L 1656 2988 
Q 1909 3294 2193 3439 
Q 2478 3584 2822 3584 
Q 3428 3584 3742 3212 
Q 4056 2841 4056 2131 
z
" transform="scale(0.015625)"/>
      </defs>
      <use xlink:href="#DejaVuSans-Bold-48"/>
      <use xlink:href="#DejaVuSans-Bold-43" transform="translate(83.691406 0)"/>
      <use xlink:href="#DejaVuSans-Bold-54" transform="translate(157.080078 0)"/>
      <use xlink:href="#DejaVuSans-Bold-5a" transform="translate(225.292969 0)"/>
      <use xlink:href="#DejaVuSans-Bold-20" transform="translate(297.802734 0)"/>
      <use xlink:href="#DejaVuSans-Bold-75" transform="translate(332.617188 0)"/>
      <use xlink:href="#DejaVuSans-Bold-72" transform="translate(403.808594 0)"/>
      <use xlink:href="#DejaVuSans-Bold-69" transform="translate(453.125 0)"/>
      <use xlink:href="#DejaVuSans-Bold-6e" transform="translate(487.402344 0)"/>
      <use xlink:href="#DejaVuSans-Bold-65" transform="translate(558.59375 0)"/>
     </g>
     <!--  [µmol] -->
     <g transform="translate(41.03325 218.428594) rotate(-90) scale(0.18 -0.18)">
      <defs>
       <path id="DejaVuSans-Bold-b5" d="M 544 -1338 
L 544 3500 
L 1672 3500 
L 1672 1466 
Q 1672 1103 1828 926 
Q 1984 750 2303 750 
Q 2625 750 2781 926 
Q 2938 1103 2938 1466 
L 2938 3500 
L 4063 3500 
L 4063 1159 
Q 4063 938 4114 850 
Q 4166 763 4288 763 
Q 4344 763 4395 778 
Q 4447 794 4506 831 
L 4506 50 
Q 4341 -22 4195 -56 
Q 4050 -91 3909 -91 
Q 3631 -91 3454 26 
Q 3278 144 3169 403 
Q 3022 156 2811 32 
Q 2600 -91 2322 -91 
Q 2091 -91 1928 -17 
Q 1766 56 1672 206 
L 1672 -1338 
L 544 -1338 
z
" transform="scale(0.015625)"/>
       <path id="DejaVuSans-Bold-6f" d="M 2203 2784 
Q 1831 2784 1636 2517 
Q 1441 2250 1441 1747 
Q 1441 1244 1636 976 
Q 1831 709 2203 709 
Q 2569 709 2762 976 
Q 2956 1244 2956 1747 
Q 2956 2250 2762 2517 
Q 2569 2784 2203 2784 
z
M 2203 3584 
Q 3106 3584 3614 3096 
Q 4122 2609 4122 1747 
Q 4122 884 3614 396 
Q 3106 -91 2203 -91 
Q 1297 -91 786 396 
Q 275 884 275 1747 
Q 275 2609 786 3096 
Q 1297 3584 2203 3584 
z
" transform="scale(0.015625)"/>
       <path id="DejaVuSans-Bold-6c" d="M 538 4863 
L 1656 4863 
L 1656 0 
L 538 0 
L 538 4863 
z
" transform="scale(0.015625)"/>
      </defs>
      <use xlink:href="#DejaVuSans-Bold-20"/>
      <use xlink:href="#DejaVuSans-Bold-5b" transform="translate(34.814453 0)"/>
      <use xlink:href="#DejaVuSans-Bold-b5" transform="translate(80.517578 0)"/>
      <use xlink:href="#DejaVuSans-Bold-6d" transform="translate(154.101562 0)"/>
      <use xlink:href="#DejaVuSans-Bold-6f" transform="translate(258.300781 0)"/>
      <use xlink:href="#DejaVuSans-Bold-6c" transform="translate(327.001953 0)"/>
      <use xlink:href="#DejaVuSans-Bold-5d" transform="translate(361.279297 0)"/>
     </g>
    </g>
   </g>
   <g id="LineCollection_1">
    <path clip-path="url(#p1befd04aea)" style="fill: none; stroke: #2ca02c"/>
    <path clip-path="url(#p1befd04aea)" style="fill: none; stroke: #2ca02c"/>
    <path clip-path="url(#p1befd04aea)" style="fill: none; stroke: #2ca02c"/>
   </g>
   <g id="LineCollection_2">
    <path d="M 106.72802 288.490325 
L 106.72802 185.981275 
" clip-path="url(#p1befd04aea)" style="fill: none; stroke: #000000"/>
    <path d="M 113.58968 222.314489 
L 113.58968 127.829712 
" clip-path="url(#p1befd04aea)" style="fill: none; stroke: #000000"/>
    <path d="M 141.036321 102.718109 
L 141.036321 87.816592 
" clip-path="url(#p1befd04aea)" style="fill: none; stroke: #000000"/>
   </g>
   <g id="line2d_12">
    <path d="M 99.86636 307.8 
L 100.48391 307.034706 
L 101.101459 303.709725 
L 101.719008 298.129526 
L 102.954107 283.31562 
L 106.041854 243.848039 
L 107.894502 223.330521 
L 109.747151 205.542866 
L 111.599799 190.159706 
L 113.452447 176.834257 
L 115.305095 165.259585 
L 117.157744 155.174048 
L 119.010392 146.356446 
L 120.86304 138.620061 
L 122.715688 131.807267 
L 124.568336 125.784936 
L 126.420985 120.44055 
L 128.273633 115.678942 
L 130.126281 111.419546 
L 131.978929 107.594098 
L 134.449127 103.069724 
L 136.919325 99.101098 
L 139.389522 95.596501 
L 141.85972 92.481784 
L 144.329917 89.696818 
L 146.800115 87.192667 
L 149.887862 84.397163 
L 152.975609 81.915739 
L 156.063356 79.699012 
L 159.768653 77.333707 
L 163.473949 75.240212 
L 167.796795 73.086529 
L 172.119641 71.195524 
L 177.060036 69.305442 
L 182.000431 67.660401 
L 187.558376 66.057416 
L 193.116321 64.677001 
L 199.291815 63.363847 
L 206.084858 62.145038 
L 213.495451 61.039597 
L 221.523593 60.058786 
L 230.786834 59.152896 
L 241.285174 58.356367 
L 253.636163 57.657075 
L 267.839799 57.084652 
L 285.131182 56.618463 
L 307.362961 56.255788 
L 337.622882 56.001366 
L 385.174186 55.848771 
L 408.641064 55.819897 
L 408.641064 55.819897 
" clip-path="url(#p1befd04aea)" style="fill: none; stroke: #66c2a4; stroke-width: 2; stroke-linecap: square"/>
   </g>
   <g id="line2d_13">
    <path d="M 99.86636 307.8 
L 100.48391 307.382324 
L 101.101459 305.424863 
L 101.719008 301.90184 
L 102.954107 291.735318 
L 108.512052 239.168827 
L 110.3647 224.687884 
L 112.217348 211.922024 
L 114.069997 200.658079 
L 115.922645 190.68744 
L 117.775293 181.825468 
L 119.627941 173.913755 
L 121.480589 166.817788 
L 123.333238 160.423698 
L 125.803435 152.825734 
L 128.273633 146.117503 
L 130.743831 140.147875 
L 133.214028 134.79543 
L 135.684226 129.96238 
L 138.154423 125.569746 
L 140.624621 121.553527 
L 143.712368 116.984215 
L 146.800115 112.841132 
L 149.887862 109.060676 
L 152.975609 105.592625 
L 156.680906 101.78752 
L 160.386202 98.320202 
L 164.091499 95.147615 
L 167.796795 92.23531 
L 172.119641 89.12941 
L 176.442487 86.303205 
L 180.765333 83.726579 
L 185.705728 81.055131 
L 190.646123 78.644538 
L 195.586518 76.467321 
L 201.144463 74.267318 
L 206.702408 72.302932 
L 212.877902 70.365247 
L 219.053396 68.655517 
L 225.846439 67.005857 
L 233.257032 65.446668 
L 241.285174 64.001211 
L 249.930866 62.685526 
L 259.194107 61.508773 
L 269.074898 60.473901 
L 280.190787 59.531575 
L 292.541775 58.704927 
L 306.745412 57.977152 
L 323.419246 57.35073 
L 343.180827 56.835746 
L 367.882803 56.423225 
L 400.612921 56.114671 
L 408.641064 56.065356 
L 408.641064 56.065356 
" clip-path="url(#p1befd04aea)" style="fill: none; stroke: #2ca25f; stroke-width: 2; stroke-linecap: square"/>
   </g>
   <g id="line2d_14">
    <path d="M 99.86636 307.8 
L 100.48391 307.533934 
L 101.101459 306.24555 
L 101.719008 303.850153 
L 102.336558 300.561687 
L 103.571657 292.280876 
L 109.129601 251.425539 
L 110.98225 239.841126 
L 112.834898 229.465428 
L 114.687546 220.170004 
L 116.540194 211.816068 
L 118.392842 204.275238 
L 120.86304 195.293485 
L 123.333238 187.335874 
L 125.803435 180.222746 
L 128.273633 173.810073 
L 130.743831 167.982395 
L 133.214028 162.647025 
L 136.301775 156.557925 
L 139.389522 151.007754 
L 142.477269 145.908242 
L 145.565016 141.191097 
L 149.270313 135.961116 
L 152.975609 131.134723 
L 156.680906 126.657929 
L 160.386202 122.488938 
L 164.709048 117.970518 
L 169.031894 113.784841 
L 173.35474 109.898689 
L 177.677585 106.284779 
L 182.617981 102.458617 
L 187.558376 98.928793 
L 192.498771 95.669973 
L 197.439167 92.659851 
L 202.997111 89.546006 
L 208.555056 86.696298 
L 214.113 84.087836 
L 220.288495 81.447364 
L 226.463989 79.053519 
L 233.257032 76.677567 
L 240.050076 74.544326 
L 247.460668 72.464844 
L 254.871261 70.615906 
L 262.899404 68.843459 
L 271.545095 67.170826 
L 280.808336 65.615723 
L 290.689127 64.190325 
L 301.187467 62.901586 
L 312.920906 61.693607 
L 325.889443 60.595549 
L 340.09308 59.625611 
L 356.149364 58.762489 
L 374.058297 58.026529 
L 395.054977 57.391863 
L 408.641064 57.080497 
L 408.641064 57.080497 
" clip-path="url(#p1befd04aea)" style="fill: none; stroke: #006d2c; stroke-width: 2; stroke-linecap: square"/>
   </g>
   <g id="line2d_15">
    <path d="M 99.86636 307.8 
L 100.48391 306.809888 
L 101.101459 302.71557 
L 101.719008 296.122908 
L 102.954107 279.359497 
L 105.424305 244.731067 
L 107.276953 222.047545 
L 109.129601 202.50034 
L 110.98225 185.707441 
L 112.834898 171.263021 
L 114.687546 158.81102 
L 116.540194 148.049124 
L 118.392842 138.722191 
L 120.245491 130.615065 
L 122.098139 123.546277 
L 123.950787 117.362693 
L 125.803435 111.935026 
L 127.656083 107.154049 
L 129.508732 102.92742 
L 131.36138 99.177013 
L 133.214028 95.836665 
L 135.066676 92.850298 
L 137.536874 89.337916 
L 140.007072 86.277533 
L 142.477269 83.593721 
L 144.947467 81.225481 
L 147.417665 79.123329 
L 150.505412 76.809189 
L 153.593159 74.78552 
L 156.680906 73.003134 
L 160.386202 71.128774 
L 164.091499 69.494253 
L 168.414344 67.837409 
L 173.35474 66.21501 
L 178.295135 64.829814 
L 183.85308 63.503925 
L 190.028574 62.26747 
L 196.821617 61.141649 
L 204.23221 60.139485 
L 212.877902 59.207369 
L 222.758692 58.385321 
L 233.874582 57.694787 
L 246.843119 57.117636 
L 262.899404 56.638687 
L 283.278534 56.270122 
L 311.068257 56.009476 
L 354.296716 55.852696 
L 408.641064 55.8 
L 408.641064 55.8 
" clip-path="url(#p1befd04aea)" style="fill: none; stroke: #000000; stroke-width: 2; stroke-linecap: square"/>
   </g>
   <g id="line2d_16">
    <path d="M 106.72802 304.4398 
L 113.58968 294.3592 
L 141.036321 277.5582 
" clip-path="url(#p1befd04aea)" style="fill: none; stroke: #2ca02c; stroke-linecap: square"/>
    <defs>
     <path id="m48ffcc2d17" d="M -3 3 
L 3 3 
L 3 -3 
L -3 -3 
z
" style="stroke: #000000; stroke-linejoin: miter"/>
    </defs>
    <g clip-path="url(#p1befd04aea)">
     <use xlink:href="#m48ffcc2d17" x="106.72802" y="304.4398" style="fill: #2ca02c; stroke: #000000; stroke-linejoin: miter"/>
     <use xlink:href="#m48ffcc2d17" x="113.58968" y="294.3592" style="fill: #2ca02c; stroke: #000000; stroke-linejoin: miter"/>
     <use xlink:href="#m48ffcc2d17" x="141.036321" y="277.5582" style="fill: #2ca02c; stroke: #000000; stroke-linejoin: miter"/>
    </g>
   </g>
   <g id="line2d_17">
    <path d="M 106.72802 237.2358 
L 113.58968 175.0721 
L 141.036321 95.26735 
" clip-path="url(#p1befd04aea)" style="fill: none; stroke: #000000; stroke-linecap: square"/>
    <defs>
     <path id="ma796d0a43e" d="M -3 3 
L 3 3 
L 3 -3 
L -3 -3 
z
" style="stroke: #000000; stroke-linejoin: miter"/>
    </defs>
    <g clip-path="url(#p1befd04aea)">
     <use xlink:href="#ma796d0a43e" x="106.72802" y="237.2358" style="stroke: #000000; stroke-linejoin: miter"/>
     <use xlink:href="#ma796d0a43e" x="113.58968" y="175.0721" style="stroke: #000000; stroke-linejoin: miter"/>
     <use xlink:href="#ma796d0a43e" x="141.036321" y="95.26735" style="stroke: #000000; stroke-linejoin: miter"/>
    </g>
   </g>
   <g id="line2d_18">
    <path d="M 106.72802 304.4398 
L 113.58968 294.3592 
L 141.036321 277.5582 
" clip-path="url(#p1befd04aea)" style="fill: none; stroke-dasharray: 3.7,1.6; stroke-dashoffset: 0; stroke: #2ca02c"/>
    <defs>
     <path id="mde82216221" d="M 3 0 
L -3 -3 
L -3 3 
z
" style="stroke: #000000; stroke-linejoin: miter"/>
    </defs>
    <g clip-path="url(#p1befd04aea)">
     <use xlink:href="#mde82216221" x="106.72802" y="304.4398" style="fill: #2ca02c; stroke: #000000; stroke-linejoin: miter"/>
     <use xlink:href="#mde82216221" x="113.58968" y="294.3592" style="fill: #2ca02c; stroke: #000000; stroke-linejoin: miter"/>
     <use xlink:href="#mde82216221" x="141.036321" y="277.5582" style="fill: #2ca02c; stroke: #000000; stroke-linejoin: miter"/>
    </g>
   </g>
   <g id="line2d_19">
    <path d="M 106.72802 213.7144 
L 113.58968 149.8706 
L 141.036321 86.0268 
" clip-path="url(#p1befd04aea)" style="fill: none; stroke-dasharray: 3.7,1.6; stroke-dashoffset: 0; stroke: #000000"/>
    <defs>
     <path id="m769a1a4c06" d="M 3 0 
L -3 -3 
L -3 3 
z
" style="stroke: #000000; stroke-linejoin: miter"/>
    </defs>
    <g clip-path="url(#p1befd04aea)">
     <use xlink:href="#m769a1a4c06" x="106.72802" y="213.7144" style="stroke: #000000; stroke-linejoin: miter"/>
     <use xlink:href="#m769a1a4c06" x="113.58968" y="149.8706" style="stroke: #000000; stroke-linejoin: miter"/>
     <use xlink:href="#m769a1a4c06" x="141.036321" y="86.0268" style="stroke: #000000; stroke-linejoin: miter"/>
    </g>
   </g>
   <g id="line2d_20">
    <path d="M 106.72802 180.1124 
L 113.58968 133.0696 
L 141.036321 99.4676 
" clip-path="url(#p1befd04aea)" style="fill: none; stroke-dasharray: 3.7,1.6; stroke-dashoffset: 0; stroke: #000000"/>
    <defs>
     <path id="m3e0756bca7" d="M 0 3 
C 0.795609 3 1.55874 2.683901 2.12132 2.12132 
C 2.683901 1.55874 3 0.795609 3 0 
C 3 -0.795609 2.683901 -1.55874 2.12132 -2.12132 
C 1.55874 -2.683901 0.795609 -3 0 -3 
C -0.795609 -3 -1.55874 -2.683901 -2.12132 -2.12132 
C -2.683901 -1.55874 -3 -0.795609 -3 0 
C -3 0.795609 -2.683901 1.55874 -2.12132 2.12132 
C -1.55874 2.683901 -0.795609 3 0 3 
z
" style="stroke: #000000"/>
    </defs>
    <g clip-path="url(#p1befd04aea)">
     <use xlink:href="#m3e0756bca7" x="106.72802" y="180.1124" style="stroke: #000000"/>
     <use xlink:href="#m3e0756bca7" x="113.58968" y="133.0696" style="stroke: #000000"/>
     <use xlink:href="#m3e0756bca7" x="141.036321" y="99.4676" style="stroke: #000000"/>
    </g>
   </g>
   <g id="line2d_21">
    <path d="M 106.72802 297.7194 
L 113.58968 240.596 
L 141.036321 92.7472 
" clip-path="url(#p1befd04aea)" style="fill: none; stroke-dasharray: 3.7,1.6; stroke-dashoffset: 0; stroke: #000000"/>
    <defs>
     <path id="mc4df741792" d="M 0 -3 
L -3 3 
L 3 3 
z
" style="stroke: #000000; stroke-linejoin: miter"/>
    </defs>
    <g clip-path="url(#p1befd04aea)">
     <use xlink:href="#mc4df741792" x="106.72802" y="297.7194" style="stroke: #000000; stroke-linejoin: miter"/>
     <use xlink:href="#mc4df741792" x="113.58968" y="240.596" style="stroke: #000000; stroke-linejoin: miter"/>
     <use xlink:href="#mc4df741792" x="141.036321" y="92.7472" style="stroke: #000000; stroke-linejoin: miter"/>
    </g>
   </g>
   <g id="line2d_22">
    <path d="M 106.72802 257.397 
L 113.58968 176.7522 
L 141.036321 102.8278 
" clip-path="url(#p1befd04aea)" style="fill: none; stroke-dasharray: 3.7,1.6; stroke-dashoffset: 0; stroke: #000000"/>
    <defs>
     <path id="m07f20ab73a" d="M 0 -3 
L -0.673542 -0.927051 
L -2.85317 -0.927051 
L -1.089814 0.354102 
L -1.763356 2.427051 
L -0 1.145898 
L 1.763356 2.427051 
L 1.089814 0.354102 
L 2.85317 -0.927051 
L 0.673542 -0.927051 
z
" style="stroke: #000000; stroke-linejoin: bevel"/>
    </defs>
    <g clip-path="url(#p1befd04aea)">
     <use xlink:href="#m07f20ab73a" x="106.72802" y="257.397" style="stroke: #000000; stroke-linejoin: bevel"/>
     <use xlink:href="#m07f20ab73a" x="113.58968" y="176.7522" style="stroke: #000000; stroke-linejoin: bevel"/>
     <use xlink:href="#m07f20ab73a" x="141.036321" y="102.8278" style="stroke: #000000; stroke-linejoin: bevel"/>
    </g>
   </g>
   <g id="patch_3">
    <path d="M 84.427625 320.4 
L 84.427625 43.2 
" style="fill: none; stroke: #000000; stroke-width: 0.8; stroke-linejoin: miter; stroke-linecap: square"/>
   </g>
   <g id="patch_4">
    <path d="M 424.079799 320.4 
L 424.079799 43.2 
" style="fill: none; stroke: #000000; stroke-width: 0.8; stroke-linejoin: miter; stroke-linecap: square"/>
   </g>
   <g id="patch_5">
    <path d="M 84.427625 320.4 
L 424.079799 320.4 
" style="fill: none; stroke: #000000; stroke-width: 0.8; stroke-linejoin: miter; stroke-linecap: square"/>
   </g>
   <g id="patch_6">
    <path d="M 84.427625 43.2 
L 424.079799 43.2 
" style="fill: none; stroke: #000000; stroke-width: 0.8; stroke-linejoin: miter; stroke-linecap: square"/>
   </g>
   <g id="legend_1">
    <g id="patch_7">
     <path d="M 270.254799 315.4 
L 417.079799 315.4 
Q 419.079799 315.4 419.079799 313.4 
L 419.079799 152.940625 
Q 419.079799 150.940625 417.079799 150.940625 
L 270.254799 150.940625 
Q 268.254799 150.940625 268.254799 152.940625 
L 268.254799 313.4 
Q 268.254799 315.4 270.254799 315.4 
z
" style="fill: #ffffff; opacity: 0.8; stroke: #cccccc; stroke-linejoin: miter"/>
    </g>
    <g id="line2d_23">
     <path d="M 272.254799 159.039062 
L 292.254799 159.039062 
" style="fill: none; stroke: #66c2a4; stroke-width: 2; stroke-linecap: square"/>
    </g>
    <g id="line2d_24"/>
    <g id="text_14">
     <!-- Sim po renal mild -->
     <g transform="translate(300.254799 162.539062) scale(0.1 -0.1)">
      <defs>
       <path id="DejaVuSans-53" d="M 3425 4513 
L 3425 3897 
Q 3066 4069 2747 4153 
Q 2428 4238 2131 4238 
Q 1616 4238 1336 4038 
Q 1056 3838 1056 3469 
Q 1056 3159 1242 3001 
Q 1428 2844 1947 2747 
L 2328 2669 
Q 3034 2534 3370 2195 
Q 3706 1856 3706 1288 
Q 3706 609 3251 259 
Q 2797 -91 1919 -91 
Q 1588 -91 1214 -16 
Q 841 59 441 206 
L 441 856 
Q 825 641 1194 531 
Q 1563 422 1919 422 
Q 2459 422 2753 634 
Q 3047 847 3047 1241 
Q 3047 1584 2836 1778 
Q 2625 1972 2144 2069 
L 1759 2144 
Q 1053 2284 737 2584 
Q 422 2884 422 3419 
Q 422 4038 858 4394 
Q 1294 4750 2059 4750 
Q 2388 4750 2728 4690 
Q 3069 4631 3425 4513 
z
" transform="scale(0.015625)"/>
       <path id="DejaVuSans-69" d="M 603 3500 
L 1178 3500 
L 1178 0 
L 603 0 
L 603 3500 
z
M 603 4863 
L 1178 4863 
L 1178 4134 
L 603 4134 
L 603 4863 
z
" transform="scale(0.015625)"/>
       <path id="DejaVuSans-6d" d="M 3328 2828 
Q 3544 3216 3844 3400 
Q 4144 3584 4550 3584 
Q 5097 3584 5394 3201 
Q 5691 2819 5691 2113 
L 5691 0 
L 5113 0 
L 5113 2094 
Q 5113 2597 4934 2840 
Q 4756 3084 4391 3084 
Q 3944 3084 3684 2787 
Q 3425 2491 3425 1978 
L 3425 0 
L 2847 0 
L 2847 2094 
Q 2847 2600 2669 2842 
Q 2491 3084 2119 3084 
Q 1678 3084 1418 2786 
Q 1159 2488 1159 1978 
L 1159 0 
L 581 0 
L 581 3500 
L 1159 3500 
L 1159 2956 
Q 1356 3278 1631 3431 
Q 1906 3584 2284 3584 
Q 2666 3584 2933 3390 
Q 3200 3197 3328 2828 
z
" transform="scale(0.015625)"/>
       <path id="DejaVuSans-20" transform="scale(0.015625)"/>
       <path id="DejaVuSans-70" d="M 1159 525 
L 1159 -1331 
L 581 -1331 
L 581 3500 
L 1159 3500 
L 1159 2969 
Q 1341 3281 1617 3432 
Q 1894 3584 2278 3584 
Q 2916 3584 3314 3078 
Q 3713 2572 3713 1747 
Q 3713 922 3314 415 
Q 2916 -91 2278 -91 
Q 1894 -91 1617 61 
Q 1341 213 1159 525 
z
M 3116 1747 
Q 3116 2381 2855 2742 
Q 2594 3103 2138 3103 
Q 1681 3103 1420 2742 
Q 1159 2381 1159 1747 
Q 1159 1113 1420 752 
Q 1681 391 2138 391 
Q 2594 391 2855 752 
Q 3116 1113 3116 1747 
z
" transform="scale(0.015625)"/>
       <path id="DejaVuSans-6f" d="M 1959 3097 
Q 1497 3097 1228 2736 
Q 959 2375 959 1747 
Q 959 1119 1226 758 
Q 1494 397 1959 397 
Q 2419 397 2687 759 
Q 2956 1122 2956 1747 
Q 2956 2369 2687 2733 
Q 2419 3097 1959 3097 
z
M 1959 3584 
Q 2709 3584 3137 3096 
Q 3566 2609 3566 1747 
Q 3566 888 3137 398 
Q 2709 -91 1959 -91 
Q 1206 -91 779 398 
Q 353 888 353 1747 
Q 353 2609 779 3096 
Q 1206 3584 1959 3584 
z
" transform="scale(0.015625)"/>
       <path id="DejaVuSans-72" d="M 2631 2963 
Q 2534 3019 2420 3045 
Q 2306 3072 2169 3072 
Q 1681 3072 1420 2755 
Q 1159 2438 1159 1844 
L 1159 0 
L 581 0 
L 581 3500 
L 1159 3500 
L 1159 2956 
Q 1341 3275 1631 3429 
Q 1922 3584 2338 3584 
Q 2397 3584 2469 3576 
Q 2541 3569 2628 3553 
L 2631 2963 
z
" transform="scale(0.015625)"/>
       <path id="DejaVuSans-65" d="M 3597 1894 
L 3597 1613 
L 953 1613 
Q 991 1019 1311 708 
Q 1631 397 2203 397 
Q 2534 397 2845 478 
Q 3156 559 3463 722 
L 3463 178 
Q 3153 47 2828 -22 
Q 2503 -91 2169 -91 
Q 1331 -91 842 396 
Q 353 884 353 1716 
Q 353 2575 817 3079 
Q 1281 3584 2069 3584 
Q 2775 3584 3186 3129 
Q 3597 2675 3597 1894 
z
M 3022 2063 
Q 3016 2534 2758 2815 
Q 2500 3097 2075 3097 
Q 1594 3097 1305 2825 
Q 1016 2553 972 2059 
L 3022 2063 
z
" transform="scale(0.015625)"/>
       <path id="DejaVuSans-6e" d="M 3513 2113 
L 3513 0 
L 2938 0 
L 2938 2094 
Q 2938 2591 2744 2837 
Q 2550 3084 2163 3084 
Q 1697 3084 1428 2787 
Q 1159 2491 1159 1978 
L 1159 0 
L 581 0 
L 581 3500 
L 1159 3500 
L 1159 2956 
Q 1366 3272 1645 3428 
Q 1925 3584 2291 3584 
Q 2894 3584 3203 3211 
Q 3513 2838 3513 2113 
z
" transform="scale(0.015625)"/>
       <path id="DejaVuSans-61" d="M 2194 1759 
Q 1497 1759 1228 1600 
Q 959 1441 959 1056 
Q 959 750 1161 570 
Q 1363 391 1709 391 
Q 2188 391 2477 730 
Q 2766 1069 2766 1631 
L 2766 1759 
L 2194 1759 
z
M 3341 1997 
L 3341 0 
L 2766 0 
L 2766 531 
Q 2569 213 2275 61 
Q 1981 -91 1556 -91 
Q 1019 -91 701 211 
Q 384 513 384 1019 
Q 384 1609 779 1909 
Q 1175 2209 1959 2209 
L 2766 2209 
L 2766 2266 
Q 2766 2663 2505 2880 
Q 2244 3097 1772 3097 
Q 1472 3097 1187 3025 
Q 903 2953 641 2809 
L 641 3341 
Q 956 3463 1253 3523 
Q 1550 3584 1831 3584 
Q 2591 3584 2966 3190 
Q 3341 2797 3341 1997 
z
" transform="scale(0.015625)"/>
       <path id="DejaVuSans-6c" d="M 603 4863 
L 1178 4863 
L 1178 0 
L 603 0 
L 603 4863 
z
" transform="scale(0.015625)"/>
       <path id="DejaVuSans-64" d="M 2906 2969 
L 2906 4863 
L 3481 4863 
L 3481 0 
L 2906 0 
L 2906 525 
Q 2725 213 2448 61 
Q 2172 -91 1784 -91 
Q 1150 -91 751 415 
Q 353 922 353 1747 
Q 353 2572 751 3078 
Q 1150 3584 1784 3584 
Q 2172 3584 2448 3432 
Q 2725 3281 2906 2969 
z
M 947 1747 
Q 947 1113 1208 752 
Q 1469 391 1925 391 
Q 2381 391 2643 752 
Q 2906 1113 2906 1747 
Q 2906 2381 2643 2742 
Q 2381 3103 1925 3103 
Q 1469 3103 1208 2742 
Q 947 2381 947 1747 
z
" transform="scale(0.015625)"/>
      </defs>
      <use xlink:href="#DejaVuSans-53"/>
      <use xlink:href="#DejaVuSans-69" transform="translate(63.476562 0)"/>
      <use xlink:href="#DejaVuSans-6d" transform="translate(91.259766 0)"/>
      <use xlink:href="#DejaVuSans-20" transform="translate(188.671875 0)"/>
      <use xlink:href="#DejaVuSans-70" transform="translate(220.458984 0)"/>
      <use xlink:href="#DejaVuSans-6f" transform="translate(283.935547 0)"/>
      <use xlink:href="#DejaVuSans-20" transform="translate(345.117188 0)"/>
      <use xlink:href="#DejaVuSans-72" transform="translate(376.904297 0)"/>
      <use xlink:href="#DejaVuSans-65" transform="translate(415.767578 0)"/>
      <use xlink:href="#DejaVuSans-6e" transform="translate(477.291016 0)"/>
      <use xlink:href="#DejaVuSans-61" transform="translate(540.669922 0)"/>
      <use xlink:href="#DejaVuSans-6c" transform="translate(601.949219 0)"/>
      <use xlink:href="#DejaVuSans-20" transform="translate(629.732422 0)"/>
      <use xlink:href="#DejaVuSans-6d" transform="translate(661.519531 0)"/>
      <use xlink:href="#DejaVuSans-69" transform="translate(758.931641 0)"/>
      <use xlink:href="#DejaVuSans-6c" transform="translate(786.714844 0)"/>
      <use xlink:href="#DejaVuSans-64" transform="translate(814.498047 0)"/>
     </g>
    </g>
    <g id="line2d_25">
     <path d="M 272.254799 173.717188 
L 292.254799 173.717188 
" style="fill: none; stroke: #2ca25f; stroke-width: 2; stroke-linecap: square"/>
    </g>
    <g id="line2d_26"/>
    <g id="text_15">
     <!-- Sim po renal moderate -->
     <g transform="translate(300.254799 177.217188) scale(0.1 -0.1)">
      <defs>
       <path id="DejaVuSans-74" d="M 1172 4494 
L 1172 3500 
L 2356 3500 
L 2356 3053 
L 1172 3053 
L 1172 1153 
Q 1172 725 1289 603 
Q 1406 481 1766 481 
L 2356 481 
L 2356 0 
L 1766 0 
Q 1100 0 847 248 
Q 594 497 594 1153 
L 594 3053 
L 172 3053 
L 172 3500 
L 594 3500 
L 594 4494 
L 1172 4494 
z
" transform="scale(0.015625)"/>
      </defs>
      <use xlink:href="#DejaVuSans-53"/>
      <use xlink:href="#DejaVuSans-69" transform="translate(63.476562 0)"/>
      <use xlink:href="#DejaVuSans-6d" transform="translate(91.259766 0)"/>
      <use xlink:href="#DejaVuSans-20" transform="translate(188.671875 0)"/>
      <use xlink:href="#DejaVuSans-70" transform="translate(220.458984 0)"/>
      <use xlink:href="#DejaVuSans-6f" transform="translate(283.935547 0)"/>
      <use xlink:href="#DejaVuSans-20" transform="translate(345.117188 0)"/>
      <use xlink:href="#DejaVuSans-72" transform="translate(376.904297 0)"/>
      <use xlink:href="#DejaVuSans-65" transform="translate(415.767578 0)"/>
      <use xlink:href="#DejaVuSans-6e" transform="translate(477.291016 0)"/>
      <use xlink:href="#DejaVuSans-61" transform="translate(540.669922 0)"/>
      <use xlink:href="#DejaVuSans-6c" transform="translate(601.949219 0)"/>
      <use xlink:href="#DejaVuSans-20" transform="translate(629.732422 0)"/>
      <use xlink:href="#DejaVuSans-6d" transform="translate(661.519531 0)"/>
      <use xlink:href="#DejaVuSans-6f" transform="translate(758.931641 0)"/>
      <use xlink:href="#DejaVuSans-64" transform="translate(820.113281 0)"/>
      <use xlink:href="#DejaVuSans-65" transform="translate(883.589844 0)"/>
      <use xlink:href="#DejaVuSans-72" transform="translate(945.113281 0)"/>
      <use xlink:href="#DejaVuSans-61" transform="translate(986.226562 0)"/>
      <use xlink:href="#DejaVuSans-74" transform="translate(1047.505859 0)"/>
      <use xlink:href="#DejaVuSans-65" transform="translate(1086.714844 0)"/>
     </g>
    </g>
    <g id="line2d_27">
     <path d="M 272.254799 188.395313 
L 292.254799 188.395313 
" style="fill: none; stroke: #006d2c; stroke-width: 2; stroke-linecap: square"/>
    </g>
    <g id="line2d_28"/>
    <g id="text_16">
     <!-- Sim po renal severe -->
     <g transform="translate(300.254799 191.895313) scale(0.1 -0.1)">
      <defs>
       <path id="DejaVuSans-73" d="M 2834 3397 
L 2834 2853 
Q 2591 2978 2328 3040 
Q 2066 3103 1784 3103 
Q 1356 3103 1142 2972 
Q 928 2841 928 2578 
Q 928 2378 1081 2264 
Q 1234 2150 1697 2047 
L 1894 2003 
Q 2506 1872 2764 1633 
Q 3022 1394 3022 966 
Q 3022 478 2636 193 
Q 2250 -91 1575 -91 
Q 1294 -91 989 -36 
Q 684 19 347 128 
L 347 722 
Q 666 556 975 473 
Q 1284 391 1588 391 
Q 1994 391 2212 530 
Q 2431 669 2431 922 
Q 2431 1156 2273 1281 
Q 2116 1406 1581 1522 
L 1381 1569 
Q 847 1681 609 1914 
Q 372 2147 372 2553 
Q 372 3047 722 3315 
Q 1072 3584 1716 3584 
Q 2034 3584 2315 3537 
Q 2597 3491 2834 3397 
z
" transform="scale(0.015625)"/>
       <path id="DejaVuSans-76" d="M 191 3500 
L 800 3500 
L 1894 563 
L 2988 3500 
L 3597 3500 
L 2284 0 
L 1503 0 
L 191 3500 
z
" transform="scale(0.015625)"/>
      </defs>
      <use xlink:href="#DejaVuSans-53"/>
      <use xlink:href="#DejaVuSans-69" transform="translate(63.476562 0)"/>
      <use xlink:href="#DejaVuSans-6d" transform="translate(91.259766 0)"/>
      <use xlink:href="#DejaVuSans-20" transform="translate(188.671875 0)"/>
      <use xlink:href="#DejaVuSans-70" transform="translate(220.458984 0)"/>
      <use xlink:href="#DejaVuSans-6f" transform="translate(283.935547 0)"/>
      <use xlink:href="#DejaVuSans-20" transform="translate(345.117188 0)"/>
      <use xlink:href="#DejaVuSans-72" transform="translate(376.904297 0)"/>
      <use xlink:href="#DejaVuSans-65" transform="translate(415.767578 0)"/>
      <use xlink:href="#DejaVuSans-6e" transform="translate(477.291016 0)"/>
      <use xlink:href="#DejaVuSans-61" transform="translate(540.669922 0)"/>
      <use xlink:href="#DejaVuSans-6c" transform="translate(601.949219 0)"/>
      <use xlink:href="#DejaVuSans-20" transform="translate(629.732422 0)"/>
      <use xlink:href="#DejaVuSans-73" transform="translate(661.519531 0)"/>
      <use xlink:href="#DejaVuSans-65" transform="translate(713.619141 0)"/>
      <use xlink:href="#DejaVuSans-76" transform="translate(775.142578 0)"/>
      <use xlink:href="#DejaVuSans-65" transform="translate(834.322266 0)"/>
      <use xlink:href="#DejaVuSans-72" transform="translate(895.845703 0)"/>
      <use xlink:href="#DejaVuSans-65" transform="translate(934.708984 0)"/>
     </g>
    </g>
    <g id="line2d_29">
     <path d="M 272.254799 203.073438 
L 292.254799 203.073438 
" style="fill: none; stroke: #000000; stroke-width: 2; stroke-linecap: square"/>
    </g>
    <g id="line2d_30"/>
    <g id="text_17">
     <!-- Sim po control -->
     <g transform="translate(300.254799 206.573438) scale(0.1 -0.1)">
      <defs>
       <path id="DejaVuSans-63" d="M 3122 3366 
L 3122 2828 
Q 2878 2963 2633 3030 
Q 2388 3097 2138 3097 
Q 1578 3097 1268 2742 
Q 959 2388 959 1747 
Q 959 1106 1268 751 
Q 1578 397 2138 397 
Q 2388 397 2633 464 
Q 2878 531 3122 666 
L 3122 134 
Q 2881 22 2623 -34 
Q 2366 -91 2075 -91 
Q 1284 -91 818 406 
Q 353 903 353 1747 
Q 353 2603 823 3093 
Q 1294 3584 2113 3584 
Q 2378 3584 2631 3529 
Q 2884 3475 3122 3366 
z
" transform="scale(0.015625)"/>
      </defs>
      <use xlink:href="#DejaVuSans-53"/>
      <use xlink:href="#DejaVuSans-69" transform="translate(63.476562 0)"/>
      <use xlink:href="#DejaVuSans-6d" transform="translate(91.259766 0)"/>
      <use xlink:href="#DejaVuSans-20" transform="translate(188.671875 0)"/>
      <use xlink:href="#DejaVuSans-70" transform="translate(220.458984 0)"/>
      <use xlink:href="#DejaVuSans-6f" transform="translate(283.935547 0)"/>
      <use xlink:href="#DejaVuSans-20" transform="translate(345.117188 0)"/>
      <use xlink:href="#DejaVuSans-63" transform="translate(376.904297 0)"/>
      <use xlink:href="#DejaVuSans-6f" transform="translate(431.884766 0)"/>
      <use xlink:href="#DejaVuSans-6e" transform="translate(493.066406 0)"/>
      <use xlink:href="#DejaVuSans-74" transform="translate(556.445312 0)"/>
      <use xlink:href="#DejaVuSans-72" transform="translate(595.654297 0)"/>
      <use xlink:href="#DejaVuSans-6f" transform="translate(634.517578 0)"/>
      <use xlink:href="#DejaVuSans-6c" transform="translate(695.699219 0)"/>
     </g>
    </g>
    <g id="LineCollection_3">
     <path d="M 282.254799 222.751563 
L 282.254799 212.751563 
" style="fill: none; stroke: #2ca02c"/>
    </g>
    <g id="line2d_31">
     <path d="M 272.254799 217.751563 
L 292.254799 217.751563 
" style="fill: none; stroke: #2ca02c; stroke-linecap: square"/>
    </g>
    <g id="line2d_32">
     <g>
      <use xlink:href="#m48ffcc2d17" x="282.254799" y="217.751563" style="fill: #2ca02c; stroke: #000000; stroke-linejoin: miter"/>
     </g>
    </g>
    <g id="text_18">
     <!-- renal±SD -->
     <g transform="translate(300.254799 221.251563) scale(0.1 -0.1)">
      <defs>
       <path id="DejaVuSans-b1" d="M 2944 4013 
L 2944 2803 
L 4684 2803 
L 4684 2272 
L 2944 2272 
L 2944 1063 
L 2419 1063 
L 2419 2272 
L 678 2272 
L 678 2803 
L 2419 2803 
L 2419 4013 
L 2944 4013 
z
M 678 531 
L 4684 531 
L 4684 0 
L 678 0 
L 678 531 
z
" transform="scale(0.015625)"/>
       <path id="DejaVuSans-44" d="M 1259 4147 
L 1259 519 
L 2022 519 
Q 2988 519 3436 956 
Q 3884 1394 3884 2338 
Q 3884 3275 3436 3711 
Q 2988 4147 2022 4147 
L 1259 4147 
z
M 628 4666 
L 1925 4666 
Q 3281 4666 3915 4102 
Q 4550 3538 4550 2338 
Q 4550 1131 3912 565 
Q 3275 0 1925 0 
L 628 0 
L 628 4666 
z
" transform="scale(0.015625)"/>
      </defs>
      <use xlink:href="#DejaVuSans-72"/>
      <use xlink:href="#DejaVuSans-65" transform="translate(38.863281 0)"/>
      <use xlink:href="#DejaVuSans-6e" transform="translate(100.386719 0)"/>
      <use xlink:href="#DejaVuSans-61" transform="translate(163.765625 0)"/>
      <use xlink:href="#DejaVuSans-6c" transform="translate(225.044922 0)"/>
      <use xlink:href="#DejaVuSans-b1" transform="translate(252.828125 0)"/>
      <use xlink:href="#DejaVuSans-53" transform="translate(336.617188 0)"/>
      <use xlink:href="#DejaVuSans-44" transform="translate(400.09375 0)"/>
     </g>
    </g>
    <g id="LineCollection_4">
     <path d="M 282.254799 237.429688 
L 282.254799 227.429688 
" style="fill: none; stroke: #000000"/>
    </g>
    <g id="line2d_33">
     <path d="M 272.254799 232.429688 
L 292.254799 232.429688 
" style="fill: none; stroke: #000000; stroke-linecap: square"/>
    </g>
    <g id="line2d_34">
     <g>
      <use xlink:href="#ma796d0a43e" x="282.254799" y="232.429688" style="stroke: #000000; stroke-linejoin: miter"/>
     </g>
    </g>
    <g id="text_19">
     <!-- control±SD -->
     <g transform="translate(300.254799 235.929688) scale(0.1 -0.1)">
      <use xlink:href="#DejaVuSans-63"/>
      <use xlink:href="#DejaVuSans-6f" transform="translate(54.980469 0)"/>
      <use xlink:href="#DejaVuSans-6e" transform="translate(116.162109 0)"/>
      <use xlink:href="#DejaVuSans-74" transform="translate(179.541016 0)"/>
      <use xlink:href="#DejaVuSans-72" transform="translate(218.75 0)"/>
      <use xlink:href="#DejaVuSans-6f" transform="translate(257.613281 0)"/>
      <use xlink:href="#DejaVuSans-6c" transform="translate(318.794922 0)"/>
      <use xlink:href="#DejaVuSans-b1" transform="translate(346.578125 0)"/>
      <use xlink:href="#DejaVuSans-53" transform="translate(430.367188 0)"/>
      <use xlink:href="#DejaVuSans-44" transform="translate(493.84375 0)"/>
     </g>
    </g>
    <g id="line2d_35">
     <path d="M 272.254799 247.107813 
L 292.254799 247.107813 
" style="fill: none; stroke-dasharray: 3.7,1.6; stroke-dashoffset: 0; stroke: #2ca02c"/>
    </g>
    <g id="line2d_36">
     <g>
      <use xlink:href="#mde82216221" x="282.254799" y="247.107813" style="fill: #2ca02c; stroke: #000000; stroke-linejoin: miter"/>
     </g>
    </g>
    <g id="text_20">
     <!-- 9 -->
     <g transform="translate(300.254799 250.607813) scale(0.1 -0.1)">
      <defs>
       <path id="DejaVuSans-39" d="M 703 97 
L 703 672 
Q 941 559 1184 500 
Q 1428 441 1663 441 
Q 2288 441 2617 861 
Q 2947 1281 2994 2138 
Q 2813 1869 2534 1725 
Q 2256 1581 1919 1581 
Q 1219 1581 811 2004 
Q 403 2428 403 3163 
Q 403 3881 828 4315 
Q 1253 4750 1959 4750 
Q 2769 4750 3195 4129 
Q 3622 3509 3622 2328 
Q 3622 1225 3098 567 
Q 2575 -91 1691 -91 
Q 1453 -91 1209 -44 
Q 966 3 703 97 
z
M 1959 2075 
Q 2384 2075 2632 2365 
Q 2881 2656 2881 3163 
Q 2881 3666 2632 3958 
Q 2384 4250 1959 4250 
Q 1534 4250 1286 3958 
Q 1038 3666 1038 3163 
Q 1038 2656 1286 2365 
Q 1534 2075 1959 2075 
z
" transform="scale(0.015625)"/>
      </defs>
      <use xlink:href="#DejaVuSans-39"/>
     </g>
    </g>
    <g id="line2d_37">
     <path d="M 272.254799 261.785937 
L 292.254799 261.785937 
" style="fill: none; stroke-dasharray: 3.7,1.6; stroke-dashoffset: 0; stroke: #000000"/>
    </g>
    <g id="line2d_38">
     <g>
      <use xlink:href="#m769a1a4c06" x="282.254799" y="261.785937" style="stroke: #000000; stroke-linejoin: miter"/>
     </g>
    </g>
    <g id="text_21">
     <!-- 1 -->
     <g transform="translate(300.254799 265.285937) scale(0.1 -0.1)">
      <use xlink:href="#DejaVuSans-31"/>
     </g>
    </g>
    <g id="line2d_39">
     <path d="M 272.254799 276.464063 
L 292.254799 276.464063 
" style="fill: none; stroke-dasharray: 3.7,1.6; stroke-dashoffset: 0; stroke: #000000"/>
    </g>
    <g id="line2d_40">
     <g>
      <use xlink:href="#m3e0756bca7" x="282.254799" y="276.464063" style="stroke: #000000"/>
     </g>
    </g>
    <g id="text_22">
     <!-- 3 -->
     <g transform="translate(300.254799 279.964063) scale(0.1 -0.1)">
      <defs>
       <path id="DejaVuSans-33" d="M 2597 2516 
Q 3050 2419 3304 2112 
Q 3559 1806 3559 1356 
Q 3559 666 3084 287 
Q 2609 -91 1734 -91 
Q 1441 -91 1130 -33 
Q 819 25 488 141 
L 488 750 
Q 750 597 1062 519 
Q 1375 441 1716 441 
Q 2309 441 2620 675 
Q 2931 909 2931 1356 
Q 2931 1769 2642 2001 
Q 2353 2234 1838 2234 
L 1294 2234 
L 1294 2753 
L 1863 2753 
Q 2328 2753 2575 2939 
Q 2822 3125 2822 3475 
Q 2822 3834 2567 4026 
Q 2313 4219 1838 4219 
Q 1578 4219 1281 4162 
Q 984 4106 628 3988 
L 628 4550 
Q 988 4650 1302 4700 
Q 1616 4750 1894 4750 
Q 2613 4750 3031 4423 
Q 3450 4097 3450 3541 
Q 3450 3153 3228 2886 
Q 3006 2619 2597 2516 
z
" transform="scale(0.015625)"/>
      </defs>
      <use xlink:href="#DejaVuSans-33"/>
     </g>
    </g>
    <g id="line2d_41">
     <path d="M 272.254799 291.142187 
L 292.254799 291.142187 
" style="fill: none; stroke-dasharray: 3.7,1.6; stroke-dashoffset: 0; stroke: #000000"/>
    </g>
    <g id="line2d_42">
     <g>
      <use xlink:href="#mc4df741792" x="282.254799" y="291.142187" style="stroke: #000000; stroke-linejoin: miter"/>
     </g>
    </g>
    <g id="text_23">
     <!-- 4 -->
     <g transform="translate(300.254799 294.642187) scale(0.1 -0.1)">
      <use xlink:href="#DejaVuSans-34"/>
     </g>
    </g>
    <g id="line2d_43">
     <path d="M 272.254799 305.820312 
L 292.254799 305.820312 
" style="fill: none; stroke-dasharray: 3.7,1.6; stroke-dashoffset: 0; stroke: #000000"/>
    </g>
    <g id="line2d_44">
     <g>
      <use xlink:href="#m07f20ab73a" x="282.254799" y="305.820312" style="stroke: #000000; stroke-linejoin: bevel"/>
     </g>
    </g>
    <g id="text_24">
     <!-- 5 -->
     <g transform="translate(300.254799 309.320312) scale(0.1 -0.1)">
      <use xlink:href="#DejaVuSans-35"/>
     </g>
    </g>
   </g>
  </g>
  <g id="axes_2">
   <g id="patch_8">
    <path d="M 525.975451 320.4 
L 865.627625 320.4 
L 865.627625 43.2 
L 525.975451 43.2 
z
" style="fill: #ffffff"/>
   </g>
   <g id="matplotlib.axis_3">
    <g id="xtick_5">
     <g id="line2d_45">
      <g>
       <use xlink:href="#m1969d6de08" x="541.414186" y="320.4" style="stroke: #000000; stroke-width: 0.8"/>
      </g>
     </g>
     <g id="text_25">
      <!-- 0 -->
      <g transform="translate(536.642311 338.797656) scale(0.15 -0.15)">
       <use xlink:href="#DejaVuSans-30"/>
      </g>
     </g>
    </g>
    <g id="xtick_6">
     <g id="line2d_46">
      <g>
       <use xlink:href="#m1969d6de08" x="627.184937" y="320.4" style="stroke: #000000; stroke-width: 0.8"/>
      </g>
     </g>
     <g id="text_26">
      <!-- 50 -->
      <g transform="translate(617.641187 338.797656) scale(0.15 -0.15)">
       <use xlink:href="#DejaVuSans-35"/>
       <use xlink:href="#DejaVuSans-30" transform="translate(63.623047 0)"/>
      </g>
     </g>
    </g>
    <g id="xtick_7">
     <g id="line2d_47">
      <g>
       <use xlink:href="#m1969d6de08" x="712.955688" y="320.4" style="stroke: #000000; stroke-width: 0.8"/>
      </g>
     </g>
     <g id="text_27">
      <!-- 100 -->
      <g transform="translate(698.640063 338.797656) scale(0.15 -0.15)">
       <use xlink:href="#DejaVuSans-31"/>
       <use xlink:href="#DejaVuSans-30" transform="translate(63.623047 0)"/>
       <use xlink:href="#DejaVuSans-30" transform="translate(127.246094 0)"/>
      </g>
     </g>
    </g>
    <g id="xtick_8">
     <g id="line2d_48">
      <g>
       <use xlink:href="#m1969d6de08" x="798.726439" y="320.4" style="stroke: #000000; stroke-width: 0.8"/>
      </g>
     </g>
     <g id="text_28">
      <!-- 150 -->
      <g transform="translate(784.410814 338.797656) scale(0.15 -0.15)">
       <use xlink:href="#DejaVuSans-31"/>
       <use xlink:href="#DejaVuSans-35" transform="translate(63.623047 0)"/>
       <use xlink:href="#DejaVuSans-30" transform="translate(127.246094 0)"/>
      </g>
     </g>
    </g>
    <g id="text_29">
     <!-- time [hr] -->
     <g transform="translate(650.727007 359.594375) scale(0.18 -0.18)">
      <use xlink:href="#DejaVuSans-Bold-74"/>
      <use xlink:href="#DejaVuSans-Bold-69" transform="translate(47.802734 0)"/>
      <use xlink:href="#DejaVuSans-Bold-6d" transform="translate(82.080078 0)"/>
      <use xlink:href="#DejaVuSans-Bold-65" transform="translate(186.279297 0)"/>
      <use xlink:href="#DejaVuSans-Bold-20" transform="translate(254.101562 0)"/>
      <use xlink:href="#DejaVuSans-Bold-5b" transform="translate(288.916016 0)"/>
      <use xlink:href="#DejaVuSans-Bold-68" transform="translate(334.619141 0)"/>
      <use xlink:href="#DejaVuSans-Bold-72" transform="translate(405.810547 0)"/>
      <use xlink:href="#DejaVuSans-Bold-5d" transform="translate(455.126953 0)"/>
     </g>
    </g>
   </g>
   <g id="matplotlib.axis_4">
    <g id="ytick_8">
     <g id="line2d_49">
      <g>
       <use xlink:href="#m1bc8b3ed38" x="525.975451" y="304.256006" style="stroke: #000000; stroke-width: 0.8"/>
      </g>
     </g>
     <g id="text_30">
      <!-- 0 -->
      <g transform="translate(509.431701 309.954835) scale(0.15 -0.15)">
       <use xlink:href="#DejaVuSans-30"/>
      </g>
     </g>
    </g>
    <g id="ytick_9">
     <g id="line2d_50">
      <g>
       <use xlink:href="#m1bc8b3ed38" x="525.975451" y="267.27333" style="stroke: #000000; stroke-width: 0.8"/>
      </g>
     </g>
     <g id="text_31">
      <!-- 25 -->
      <g transform="translate(499.887951 272.972158) scale(0.15 -0.15)">
       <use xlink:href="#DejaVuSans-32"/>
       <use xlink:href="#DejaVuSans-35" transform="translate(63.623047 0)"/>
      </g>
     </g>
    </g>
    <g id="ytick_10">
     <g id="line2d_51">
      <g>
       <use xlink:href="#m1bc8b3ed38" x="525.975451" y="230.290653" style="stroke: #000000; stroke-width: 0.8"/>
      </g>
     </g>
     <g id="text_32">
      <!-- 50 -->
      <g transform="translate(499.887951 235.989481) scale(0.15 -0.15)">
       <use xlink:href="#DejaVuSans-35"/>
       <use xlink:href="#DejaVuSans-30" transform="translate(63.623047 0)"/>
      </g>
     </g>
    </g>
    <g id="ytick_11">
     <g id="line2d_52">
      <g>
       <use xlink:href="#m1bc8b3ed38" x="525.975451" y="193.307977" style="stroke: #000000; stroke-width: 0.8"/>
      </g>
     </g>
     <g id="text_33">
      <!-- 75 -->
      <g transform="translate(499.887951 199.006805) scale(0.15 -0.15)">
       <defs>
        <path id="DejaVuSans-37" d="M 525 4666 
L 3525 4666 
L 3525 4397 
L 1831 0 
L 1172 0 
L 2766 4134 
L 525 4134 
L 525 4666 
z
" transform="scale(0.015625)"/>
       </defs>
       <use xlink:href="#DejaVuSans-37"/>
       <use xlink:href="#DejaVuSans-35" transform="translate(63.623047 0)"/>
      </g>
     </g>
    </g>
    <g id="ytick_12">
     <g id="line2d_53">
      <g>
       <use xlink:href="#m1bc8b3ed38" x="525.975451" y="156.3253" style="stroke: #000000; stroke-width: 0.8"/>
      </g>
     </g>
     <g id="text_34">
      <!-- 100 -->
      <g transform="translate(490.344201 162.024128) scale(0.15 -0.15)">
       <use xlink:href="#DejaVuSans-31"/>
       <use xlink:href="#DejaVuSans-30" transform="translate(63.623047 0)"/>
       <use xlink:href="#DejaVuSans-30" transform="translate(127.246094 0)"/>
      </g>
     </g>
    </g>
    <g id="ytick_13">
     <g id="line2d_54">
      <g>
       <use xlink:href="#m1bc8b3ed38" x="525.975451" y="119.342624" style="stroke: #000000; stroke-width: 0.8"/>
      </g>
     </g>
     <g id="text_35">
      <!-- 125 -->
      <g transform="translate(490.344201 125.041452) scale(0.15 -0.15)">
       <use xlink:href="#DejaVuSans-31"/>
       <use xlink:href="#DejaVuSans-32" transform="translate(63.623047 0)"/>
       <use xlink:href="#DejaVuSans-35" transform="translate(127.246094 0)"/>
      </g>
     </g>
    </g>
    <g id="ytick_14">
     <g id="line2d_55">
      <g>
       <use xlink:href="#m1bc8b3ed38" x="525.975451" y="82.359947" style="stroke: #000000; stroke-width: 0.8"/>
      </g>
     </g>
     <g id="text_36">
      <!-- 150 -->
      <g transform="translate(490.344201 88.058775) scale(0.15 -0.15)">
       <use xlink:href="#DejaVuSans-31"/>
       <use xlink:href="#DejaVuSans-35" transform="translate(63.623047 0)"/>
       <use xlink:href="#DejaVuSans-30" transform="translate(127.246094 0)"/>
      </g>
     </g>
    </g>
    <g id="ytick_15">
     <g id="line2d_56">
      <g>
       <use xlink:href="#m1bc8b3ed38" x="525.975451" y="45.377271" style="stroke: #000000; stroke-width: 0.8"/>
      </g>
     </g>
     <g id="text_37">
      <!-- 175 -->
      <g transform="translate(490.344201 51.076099) scale(0.15 -0.15)">
       <use xlink:href="#DejaVuSans-31"/>
       <use xlink:href="#DejaVuSans-37" transform="translate(63.623047 0)"/>
       <use xlink:href="#DejaVuSans-35" transform="translate(127.246094 0)"/>
      </g>
     </g>
    </g>
    <g id="text_38">
     <!-- HCTZ urine -->
     <g transform="translate(462.425014 238.177969) rotate(-90) scale(0.18 -0.18)">
      <use xlink:href="#DejaVuSans-Bold-48"/>
      <use xlink:href="#DejaVuSans-Bold-43" transform="translate(83.691406 0)"/>
      <use xlink:href="#DejaVuSans-Bold-54" transform="translate(157.080078 0)"/>
      <use xlink:href="#DejaVuSans-Bold-5a" transform="translate(225.292969 0)"/>
      <use xlink:href="#DejaVuSans-Bold-20" transform="translate(297.802734 0)"/>
      <use xlink:href="#DejaVuSans-Bold-75" transform="translate(332.617188 0)"/>
      <use xlink:href="#DejaVuSans-Bold-72" transform="translate(403.808594 0)"/>
      <use xlink:href="#DejaVuSans-Bold-69" transform="translate(453.125 0)"/>
      <use xlink:href="#DejaVuSans-Bold-6e" transform="translate(487.402344 0)"/>
      <use xlink:href="#DejaVuSans-Bold-65" transform="translate(558.59375 0)"/>
     </g>
     <!--  [µmol] -->
     <g transform="translate(482.581076 218.428594) rotate(-90) scale(0.18 -0.18)">
      <use xlink:href="#DejaVuSans-Bold-20"/>
      <use xlink:href="#DejaVuSans-Bold-5b" transform="translate(34.814453 0)"/>
      <use xlink:href="#DejaVuSans-Bold-b5" transform="translate(80.517578 0)"/>
      <use xlink:href="#DejaVuSans-Bold-6d" transform="translate(154.101562 0)"/>
      <use xlink:href="#DejaVuSans-Bold-6f" transform="translate(258.300781 0)"/>
      <use xlink:href="#DejaVuSans-Bold-6c" transform="translate(327.001953 0)"/>
      <use xlink:href="#DejaVuSans-Bold-5d" transform="translate(361.279297 0)"/>
     </g>
    </g>
   </g>
   <g id="LineCollection_5">
    <path d="M 548.275846 303.330302 
L 548.275846 190.891948 
" clip-path="url(#pdf4600c24a)" style="fill: none; stroke: #2ca02c"/>
    <path d="M 555.137506 307.8 
L 555.137506 96.978088 
" clip-path="url(#pdf4600c24a)" style="fill: none; stroke: #2ca02c"/>
    <path d="M 582.584147 274.045298 
L 582.584147 56.195988 
" clip-path="url(#pdf4600c24a)" style="fill: none; stroke: #2ca02c"/>
   </g>
   <g id="LineCollection_6">
    <path clip-path="url(#pdf4600c24a)" style="fill: none; stroke: #000000"/>
    <path clip-path="url(#pdf4600c24a)" style="fill: none; stroke: #000000"/>
    <path clip-path="url(#pdf4600c24a)" style="fill: none; stroke: #000000"/>
   </g>
   <g id="line2d_57">
    <path d="M 541.414186 304.256006 
L 542.031736 200.36304 
L 542.649285 161.56488 
L 543.266834 142.678385 
L 543.884384 132.196154 
L 544.501933 125.91129 
L 545.119483 121.906905 
L 545.737032 119.193852 
L 546.354582 117.227533 
L 547.58968 114.429809 
L 548.824779 112.302143 
L 550.677427 109.555761 
L 553.765174 105.429451 
L 556.852921 101.642697 
L 560.558218 97.479813 
L 564.263514 93.695055 
L 567.968811 90.253978 
L 571.674107 87.12537 
L 575.379404 84.280856 
L 579.0847 81.69464 
L 583.407546 78.972676 
L 587.730392 76.536836 
L 592.053238 74.357044 
L 596.376083 72.406385 
L 601.316479 70.426853 
L 606.256874 68.683287 
L 611.814819 66.968939 
L 617.372763 65.482715 
L 623.548257 64.062128 
L 630.341301 62.738987 
L 637.751894 61.536008 
L 645.780036 60.466947 
L 654.425728 59.537365 
L 664.306518 58.69946 
L 675.422408 57.979152 
L 688.390945 57.36166 
L 703.82968 56.850324 
L 723.591261 56.432159 
L 749.528336 56.124657 
L 787.19885 55.923339 
L 850.18889 55.824449 
L 850.18889 55.824449 
" clip-path="url(#pdf4600c24a)" style="fill: none; stroke: #66c2a4; stroke-width: 2; stroke-linecap: square"/>
   </g>
   <g id="line2d_58">
    <path d="M 541.414186 304.256006 
L 542.031736 243.562022 
L 542.649285 212.586191 
L 543.266834 193.662044 
L 543.884384 181.151115 
L 544.501933 172.518259 
L 545.119483 166.37224 
L 545.737032 161.865043 
L 546.354582 158.451921 
L 546.972131 155.774374 
L 548.20723 151.751257 
L 549.442329 148.687474 
L 551.294977 144.881761 
L 553.765174 140.414209 
L 556.852921 135.272691 
L 560.558218 129.542026 
L 564.263514 124.22804 
L 567.968811 119.297303 
L 571.674107 114.721889 
L 575.379404 110.476168 
L 579.0847 106.53638 
L 582.789997 102.88048 
L 587.112842 98.94686 
L 591.435688 95.341897 
L 595.758534 92.038133 
L 600.08138 89.010401 
L 604.404226 86.23564 
L 609.344621 83.347211 
L 614.285016 80.732903 
L 619.225412 78.3667 
L 624.783356 75.972056 
L 630.341301 73.831518 
L 635.899246 71.918121 
L 642.07474 70.029296 
L 648.250234 68.361816 
L 655.043277 66.752376 
L 662.45387 65.230857 
L 670.482012 63.82012 
L 679.127704 62.535929 
L 688.390945 61.387287 
L 698.889285 60.320415 
L 710.622724 59.367216 
L 723.591261 58.545708 
L 738.412447 57.835823 
L 755.703831 57.236062 
L 776.70051 56.74 
L 803.255135 56.350002 
L 838.455451 56.070283 
L 850.18889 56.013289 
L 850.18889 56.013289 
" clip-path="url(#pdf4600c24a)" style="fill: none; stroke: #2ca25f; stroke-width: 2; stroke-linecap: square"/>
   </g>
   <g id="line2d_59">
    <path d="M 541.414186 304.256006 
L 542.031736 264.491417 
L 542.649285 241.514912 
L 543.266834 226.035494 
L 543.884384 214.924517 
L 544.501933 206.685034 
L 545.119483 200.435326 
L 545.737032 195.597182 
L 546.354582 191.771085 
L 547.58968 186.10536 
L 548.824779 182.011137 
L 550.059878 178.752536 
L 551.912526 174.650819 
L 554.382724 169.852106 
L 557.470471 164.33475 
L 561.175767 158.128764 
L 565.498613 151.348764 
L 569.821459 145.019669 
L 574.144305 139.109977 
L 578.467151 133.591745 
L 582.789997 128.439028 
L 587.112842 123.627613 
L 591.435688 119.134894 
L 595.758534 114.93976 
L 600.08138 111.022501 
L 605.021775 106.862333 
L 609.96217 103.01557 
L 614.902566 99.458602 
L 619.842961 96.169596 
L 624.783356 93.128367 
L 630.341301 89.979968 
L 635.899246 87.097115 
L 641.45719 84.457412 
L 647.632684 81.784699 
L 653.808178 79.361255 
L 659.983672 77.163832 
L 666.776716 74.982621 
L 673.569759 73.024109 
L 680.980352 71.114881 
L 689.008495 69.284616 
L 697.654186 67.557408 
L 706.917427 65.951558 
L 716.798218 64.479643 
L 727.296558 63.148845 
L 738.412447 61.961471 
L 750.763435 60.865775 
L 764.349522 59.884167 
L 779.788257 58.997461 
L 797.079641 58.230812 
L 817.458771 57.559697 
L 841.543198 57.001193 
L 850.18889 56.847335 
L 850.18889 56.847335 
" clip-path="url(#pdf4600c24a)" style="fill: none; stroke: #006d2c; stroke-width: 2; stroke-linecap: square"/>
   </g>
   <g id="line2d_60">
    <path d="M 541.414186 304.256006 
L 542.031736 175.993006 
L 542.649285 137.769666 
L 543.266834 121.65456 
L 543.884384 113.515802 
L 544.501933 108.939436 
L 545.119483 106.13663 
L 545.737032 104.264541 
L 546.354582 102.894145 
L 547.58968 100.858892 
L 549.442329 98.448565 
L 552.530076 94.922093 
L 555.617823 91.710449 
L 559.323119 88.20383 
L 563.028416 85.039679 
L 566.733712 82.1845 
L 570.439008 79.608122 
L 574.144305 77.283321 
L 578.467151 74.85638 
L 582.789997 72.703607 
L 587.112842 70.79403 
L 592.053238 68.874348 
L 596.993633 67.200444 
L 602.551578 65.572061 
L 608.109522 64.176268 
L 614.285016 62.857935 
L 621.07806 61.646117 
L 628.488653 60.560144 
L 636.516795 59.610091 
L 645.780036 58.746972 
L 656.278376 58.002633 
L 668.629364 57.363854 
L 683.45055 56.836815 
L 701.359483 56.430986 
L 725.44391 56.123568 
L 760.026676 55.924016 
L 822.399167 55.821994 
L 850.18889 55.810177 
L 850.18889 55.810177 
" clip-path="url(#pdf4600c24a)" style="fill: none; stroke: #000000; stroke-width: 2; stroke-linecap: square"/>
   </g>
   <g id="line2d_61">
    <path d="M 548.275846 247.111125 
L 555.137506 202.389044 
L 582.584147 165.120643 
" clip-path="url(#pdf4600c24a)" style="fill: none; stroke: #2ca02c; stroke-linecap: square"/>
    <g clip-path="url(#pdf4600c24a)">
     <use xlink:href="#m48ffcc2d17" x="548.275846" y="247.111125" style="fill: #2ca02c; stroke: #000000; stroke-linejoin: miter"/>
     <use xlink:href="#m48ffcc2d17" x="555.137506" y="202.389044" style="fill: #2ca02c; stroke: #000000; stroke-linejoin: miter"/>
     <use xlink:href="#m48ffcc2d17" x="582.584147" y="165.120643" style="fill: #2ca02c; stroke: #000000; stroke-linejoin: miter"/>
    </g>
   </g>
   <g id="line2d_62">
    <path d="M 548.275846 117.914002 
L 555.137506 95.552961 
L 582.584147 55.8 
" clip-path="url(#pdf4600c24a)" style="fill: none; stroke: #000000; stroke-linecap: square"/>
    <g clip-path="url(#pdf4600c24a)">
     <use xlink:href="#ma796d0a43e" x="548.275846" y="117.914002" style="stroke: #000000; stroke-linejoin: miter"/>
     <use xlink:href="#ma796d0a43e" x="555.137506" y="95.552961" style="stroke: #000000; stroke-linejoin: miter"/>
     <use xlink:href="#ma796d0a43e" x="582.584147" y="55.8" style="stroke: #000000; stroke-linejoin: miter"/>
    </g>
   </g>
   <g id="line2d_63">
    <path d="M 548.275846 207.358164 
L 555.137506 127.852242 
L 582.584147 88.099281 
" clip-path="url(#pdf4600c24a)" style="fill: none; stroke-dasharray: 3.7,1.6; stroke-dashoffset: 0; stroke: #2ca02c"/>
    <g clip-path="url(#pdf4600c24a)">
     <use xlink:href="#mde82216221" x="548.275846" y="207.358164" style="fill: #2ca02c; stroke: #000000; stroke-linejoin: miter"/>
     <use xlink:href="#mde82216221" x="555.137506" y="127.852242" style="fill: #2ca02c; stroke: #000000; stroke-linejoin: miter"/>
     <use xlink:href="#mde82216221" x="582.584147" y="88.099281" style="fill: #2ca02c; stroke: #000000; stroke-linejoin: miter"/>
    </g>
   </g>
   <g id="line2d_64">
    <path d="M 548.275846 286.864086 
L 555.137506 276.925846 
L 582.584147 242.142005 
" clip-path="url(#pdf4600c24a)" style="fill: none; stroke-dasharray: 3.7,1.6; stroke-dashoffset: 0; stroke: #2ca02c"/>
    <defs>
     <path id="m5291e74624" d="M 0 3 
C 0.795609 3 1.55874 2.683901 2.12132 2.12132 
C 2.683901 1.55874 3 0.795609 3 0 
C 3 -0.795609 2.683901 -1.55874 2.12132 -2.12132 
C 1.55874 -2.683901 0.795609 -3 0 -3 
C -0.795609 -3 -1.55874 -2.683901 -2.12132 -2.12132 
C -2.683901 -1.55874 -3 -0.795609 -3 0 
C -3 0.795609 -2.683901 1.55874 -2.12132 2.12132 
C -1.55874 2.683901 -0.795609 3 0 3 
z
" style="stroke: #000000"/>
    </defs>
    <g clip-path="url(#pdf4600c24a)">
     <use xlink:href="#m5291e74624" x="548.275846" y="286.864086" style="fill: #2ca02c; stroke: #000000"/>
     <use xlink:href="#m5291e74624" x="555.137506" y="276.925846" style="fill: #2ca02c; stroke: #000000"/>
     <use xlink:href="#m5291e74624" x="582.584147" y="242.142005" style="fill: #2ca02c; stroke: #000000"/>
    </g>
   </g>
   <g id="line2d_65">
    <path d="M 548.275846 117.914002 
L 555.137506 95.552961 
L 582.584147 55.8 
" clip-path="url(#pdf4600c24a)" style="fill: none; stroke-dasharray: 3.7,1.6; stroke-dashoffset: 0; stroke: #000000"/>
    <g clip-path="url(#pdf4600c24a)">
     <use xlink:href="#m769a1a4c06" x="548.275846" y="117.914002" style="stroke: #000000; stroke-linejoin: miter"/>
     <use xlink:href="#m769a1a4c06" x="555.137506" y="95.552961" style="stroke: #000000; stroke-linejoin: miter"/>
     <use xlink:href="#m769a1a4c06" x="582.584147" y="55.8" style="stroke: #000000; stroke-linejoin: miter"/>
    </g>
   </g>
   <g id="patch_9">
    <path d="M 525.975451 320.4 
L 525.975451 43.2 
" style="fill: none; stroke: #000000; stroke-width: 0.8; stroke-linejoin: miter; stroke-linecap: square"/>
   </g>
   <g id="patch_10">
    <path d="M 865.627625 320.4 
L 865.627625 43.2 
" style="fill: none; stroke: #000000; stroke-width: 0.8; stroke-linejoin: miter; stroke-linecap: square"/>
   </g>
   <g id="patch_11">
    <path d="M 525.975451 320.4 
L 865.627625 320.4 
" style="fill: none; stroke: #000000; stroke-width: 0.8; stroke-linejoin: miter; stroke-linecap: square"/>
   </g>
   <g id="patch_12">
    <path d="M 525.975451 43.2 
L 865.627625 43.2 
" style="fill: none; stroke: #000000; stroke-width: 0.8; stroke-linejoin: miter; stroke-linecap: square"/>
   </g>
   <g id="legend_2">
    <g id="patch_13">
     <path d="M 715.572938 315.4 
L 858.627625 315.4 
Q 860.627625 315.4 860.627625 313.4 
L 860.627625 182.296875 
Q 860.627625 180.296875 858.627625 180.296875 
L 715.572938 180.296875 
Q 713.572938 180.296875 713.572938 182.296875 
L 713.572938 313.4 
Q 713.572938 315.4 715.572938 315.4 
z
" style="fill: #ffffff; opacity: 0.8; stroke: #cccccc; stroke-linejoin: miter"/>
    </g>
    <g id="line2d_66">
     <path d="M 717.572938 188.395312 
L 737.572938 188.395312 
" style="fill: none; stroke: #66c2a4; stroke-width: 2; stroke-linecap: square"/>
    </g>
    <g id="line2d_67"/>
    <g id="text_39">
     <!-- Sim iv renal mild -->
     <g transform="translate(745.572938 191.895312) scale(0.1 -0.1)">
      <use xlink:href="#DejaVuSans-53"/>
      <use xlink:href="#DejaVuSans-69" transform="translate(63.476562 0)"/>
      <use xlink:href="#DejaVuSans-6d" transform="translate(91.259766 0)"/>
      <use xlink:href="#DejaVuSans-20" transform="translate(188.671875 0)"/>
      <use xlink:href="#DejaVuSans-69" transform="translate(220.458984 0)"/>
      <use xlink:href="#DejaVuSans-76" transform="translate(248.242188 0)"/>
      <use xlink:href="#DejaVuSans-20" transform="translate(307.421875 0)"/>
      <use xlink:href="#DejaVuSans-72" transform="translate(339.208984 0)"/>
      <use xlink:href="#DejaVuSans-65" transform="translate(378.072266 0)"/>
      <use xlink:href="#DejaVuSans-6e" transform="translate(439.595703 0)"/>
      <use xlink:href="#DejaVuSans-61" transform="translate(502.974609 0)"/>
      <use xlink:href="#DejaVuSans-6c" transform="translate(564.253906 0)"/>
      <use xlink:href="#DejaVuSans-20" transform="translate(592.037109 0)"/>
      <use xlink:href="#DejaVuSans-6d" transform="translate(623.824219 0)"/>
      <use xlink:href="#DejaVuSans-69" transform="translate(721.236328 0)"/>
      <use xlink:href="#DejaVuSans-6c" transform="translate(749.019531 0)"/>
      <use xlink:href="#DejaVuSans-64" transform="translate(776.802734 0)"/>
     </g>
    </g>
    <g id="line2d_68">
     <path d="M 717.572938 203.073438 
L 737.572938 203.073438 
" style="fill: none; stroke: #2ca25f; stroke-width: 2; stroke-linecap: square"/>
    </g>
    <g id="line2d_69"/>
    <g id="text_40">
     <!-- Sim iv renal moderate -->
     <g transform="translate(745.572938 206.573438) scale(0.1 -0.1)">
      <use xlink:href="#DejaVuSans-53"/>
      <use xlink:href="#DejaVuSans-69" transform="translate(63.476562 0)"/>
      <use xlink:href="#DejaVuSans-6d" transform="translate(91.259766 0)"/>
      <use xlink:href="#DejaVuSans-20" transform="translate(188.671875 0)"/>
      <use xlink:href="#DejaVuSans-69" transform="translate(220.458984 0)"/>
      <use xlink:href="#DejaVuSans-76" transform="translate(248.242188 0)"/>
      <use xlink:href="#DejaVuSans-20" transform="translate(307.421875 0)"/>
      <use xlink:href="#DejaVuSans-72" transform="translate(339.208984 0)"/>
      <use xlink:href="#DejaVuSans-65" transform="translate(378.072266 0)"/>
      <use xlink:href="#DejaVuSans-6e" transform="translate(439.595703 0)"/>
      <use xlink:href="#DejaVuSans-61" transform="translate(502.974609 0)"/>
      <use xlink:href="#DejaVuSans-6c" transform="translate(564.253906 0)"/>
      <use xlink:href="#DejaVuSans-20" transform="translate(592.037109 0)"/>
      <use xlink:href="#DejaVuSans-6d" transform="translate(623.824219 0)"/>
      <use xlink:href="#DejaVuSans-6f" transform="translate(721.236328 0)"/>
      <use xlink:href="#DejaVuSans-64" transform="translate(782.417969 0)"/>
      <use xlink:href="#DejaVuSans-65" transform="translate(845.894531 0)"/>
      <use xlink:href="#DejaVuSans-72" transform="translate(907.417969 0)"/>
      <use xlink:href="#DejaVuSans-61" transform="translate(948.53125 0)"/>
      <use xlink:href="#DejaVuSans-74" transform="translate(1009.810547 0)"/>
      <use xlink:href="#DejaVuSans-65" transform="translate(1049.019531 0)"/>
     </g>
    </g>
    <g id="line2d_70">
     <path d="M 717.572938 217.751562 
L 737.572938 217.751562 
" style="fill: none; stroke: #006d2c; stroke-width: 2; stroke-linecap: square"/>
    </g>
    <g id="line2d_71"/>
    <g id="text_41">
     <!-- Sim iv renal severe -->
     <g transform="translate(745.572938 221.251562) scale(0.1 -0.1)">
      <use xlink:href="#DejaVuSans-53"/>
      <use xlink:href="#DejaVuSans-69" transform="translate(63.476562 0)"/>
      <use xlink:href="#DejaVuSans-6d" transform="translate(91.259766 0)"/>
      <use xlink:href="#DejaVuSans-20" transform="translate(188.671875 0)"/>
      <use xlink:href="#DejaVuSans-69" transform="translate(220.458984 0)"/>
      <use xlink:href="#DejaVuSans-76" transform="translate(248.242188 0)"/>
      <use xlink:href="#DejaVuSans-20" transform="translate(307.421875 0)"/>
      <use xlink:href="#DejaVuSans-72" transform="translate(339.208984 0)"/>
      <use xlink:href="#DejaVuSans-65" transform="translate(378.072266 0)"/>
      <use xlink:href="#DejaVuSans-6e" transform="translate(439.595703 0)"/>
      <use xlink:href="#DejaVuSans-61" transform="translate(502.974609 0)"/>
      <use xlink:href="#DejaVuSans-6c" transform="translate(564.253906 0)"/>
      <use xlink:href="#DejaVuSans-20" transform="translate(592.037109 0)"/>
      <use xlink:href="#DejaVuSans-73" transform="translate(623.824219 0)"/>
      <use xlink:href="#DejaVuSans-65" transform="translate(675.923828 0)"/>
      <use xlink:href="#DejaVuSans-76" transform="translate(737.447266 0)"/>
      <use xlink:href="#DejaVuSans-65" transform="translate(796.626953 0)"/>
      <use xlink:href="#DejaVuSans-72" transform="translate(858.150391 0)"/>
      <use xlink:href="#DejaVuSans-65" transform="translate(897.013672 0)"/>
     </g>
    </g>
    <g id="line2d_72">
     <path d="M 717.572938 232.429688 
L 737.572938 232.429688 
" style="fill: none; stroke: #000000; stroke-width: 2; stroke-linecap: square"/>
    </g>
    <g id="line2d_73"/>
    <g id="text_42">
     <!-- Sim iv control -->
     <g transform="translate(745.572938 235.929688) scale(0.1 -0.1)">
      <use xlink:href="#DejaVuSans-53"/>
      <use xlink:href="#DejaVuSans-69" transform="translate(63.476562 0)"/>
      <use xlink:href="#DejaVuSans-6d" transform="translate(91.259766 0)"/>
      <use xlink:href="#DejaVuSans-20" transform="translate(188.671875 0)"/>
      <use xlink:href="#DejaVuSans-69" transform="translate(220.458984 0)"/>
      <use xlink:href="#DejaVuSans-76" transform="translate(248.242188 0)"/>
      <use xlink:href="#DejaVuSans-20" transform="translate(307.421875 0)"/>
      <use xlink:href="#DejaVuSans-63" transform="translate(339.208984 0)"/>
      <use xlink:href="#DejaVuSans-6f" transform="translate(394.189453 0)"/>
      <use xlink:href="#DejaVuSans-6e" transform="translate(455.371094 0)"/>
      <use xlink:href="#DejaVuSans-74" transform="translate(518.75 0)"/>
      <use xlink:href="#DejaVuSans-72" transform="translate(557.958984 0)"/>
      <use xlink:href="#DejaVuSans-6f" transform="translate(596.822266 0)"/>
      <use xlink:href="#DejaVuSans-6c" transform="translate(658.003906 0)"/>
     </g>
    </g>
    <g id="LineCollection_7">
     <path d="M 727.572938 252.107812 
L 727.572938 242.107812 
" style="fill: none; stroke: #2ca02c"/>
    </g>
    <g id="line2d_74">
     <path d="M 717.572938 247.107812 
L 737.572938 247.107812 
" style="fill: none; stroke: #2ca02c; stroke-linecap: square"/>
    </g>
    <g id="line2d_75">
     <g>
      <use xlink:href="#m48ffcc2d17" x="727.572938" y="247.107812" style="fill: #2ca02c; stroke: #000000; stroke-linejoin: miter"/>
     </g>
    </g>
    <g id="text_43">
     <!-- renal±SD -->
     <g transform="translate(745.572938 250.607812) scale(0.1 -0.1)">
      <use xlink:href="#DejaVuSans-72"/>
      <use xlink:href="#DejaVuSans-65" transform="translate(38.863281 0)"/>
      <use xlink:href="#DejaVuSans-6e" transform="translate(100.386719 0)"/>
      <use xlink:href="#DejaVuSans-61" transform="translate(163.765625 0)"/>
      <use xlink:href="#DejaVuSans-6c" transform="translate(225.044922 0)"/>
      <use xlink:href="#DejaVuSans-b1" transform="translate(252.828125 0)"/>
      <use xlink:href="#DejaVuSans-53" transform="translate(336.617188 0)"/>
      <use xlink:href="#DejaVuSans-44" transform="translate(400.09375 0)"/>
     </g>
    </g>
    <g id="LineCollection_8">
     <path d="M 727.572938 266.785937 
L 727.572938 256.785937 
" style="fill: none; stroke: #000000"/>
    </g>
    <g id="line2d_76">
     <path d="M 717.572938 261.785937 
L 737.572938 261.785937 
" style="fill: none; stroke: #000000; stroke-linecap: square"/>
    </g>
    <g id="line2d_77">
     <g>
      <use xlink:href="#ma796d0a43e" x="727.572938" y="261.785937" style="stroke: #000000; stroke-linejoin: miter"/>
     </g>
    </g>
    <g id="text_44">
     <!-- control±SD -->
     <g transform="translate(745.572938 265.285937) scale(0.1 -0.1)">
      <use xlink:href="#DejaVuSans-63"/>
      <use xlink:href="#DejaVuSans-6f" transform="translate(54.980469 0)"/>
      <use xlink:href="#DejaVuSans-6e" transform="translate(116.162109 0)"/>
      <use xlink:href="#DejaVuSans-74" transform="translate(179.541016 0)"/>
      <use xlink:href="#DejaVuSans-72" transform="translate(218.75 0)"/>
      <use xlink:href="#DejaVuSans-6f" transform="translate(257.613281 0)"/>
      <use xlink:href="#DejaVuSans-6c" transform="translate(318.794922 0)"/>
      <use xlink:href="#DejaVuSans-b1" transform="translate(346.578125 0)"/>
      <use xlink:href="#DejaVuSans-53" transform="translate(430.367188 0)"/>
      <use xlink:href="#DejaVuSans-44" transform="translate(493.84375 0)"/>
     </g>
    </g>
    <g id="line2d_78">
     <path d="M 717.572938 276.464062 
L 737.572938 276.464062 
" style="fill: none; stroke-dasharray: 3.7,1.6; stroke-dashoffset: 0; stroke: #2ca02c"/>
    </g>
    <g id="line2d_79">
     <g>
      <use xlink:href="#mde82216221" x="727.572938" y="276.464062" style="fill: #2ca02c; stroke: #000000; stroke-linejoin: miter"/>
     </g>
    </g>
    <g id="text_45">
     <!-- 10 -->
     <g transform="translate(745.572938 279.964062) scale(0.1 -0.1)">
      <use xlink:href="#DejaVuSans-31"/>
      <use xlink:href="#DejaVuSans-30" transform="translate(63.623047 0)"/>
     </g>
    </g>
    <g id="line2d_80">
     <path d="M 717.572938 291.142187 
L 737.572938 291.142187 
" style="fill: none; stroke-dasharray: 3.7,1.6; stroke-dashoffset: 0; stroke: #2ca02c"/>
    </g>
    <g id="line2d_81">
     <g>
      <use xlink:href="#m5291e74624" x="727.572938" y="291.142187" style="fill: #2ca02c; stroke: #000000"/>
     </g>
    </g>
    <g id="text_46">
     <!-- 11 -->
     <g transform="translate(745.572938 294.642187) scale(0.1 -0.1)">
      <use xlink:href="#DejaVuSans-31"/>
      <use xlink:href="#DejaVuSans-31" transform="translate(63.623047 0)"/>
     </g>
    </g>
    <g id="line2d_82">
     <path d="M 717.572938 305.820312 
L 737.572938 305.820312 
" style="fill: none; stroke-dasharray: 3.7,1.6; stroke-dashoffset: 0; stroke: #000000"/>
    </g>
    <g id="line2d_83">
     <g>
      <use xlink:href="#m769a1a4c06" x="727.572938" y="305.820312" style="stroke: #000000; stroke-linejoin: miter"/>
     </g>
    </g>
    <g id="text_47">
     <!-- 2 -->
     <g transform="translate(745.572938 309.320312) scale(0.1 -0.1)">
      <use xlink:href="#DejaVuSans-32"/>
     </g>
    </g>
   </g>
  </g>
  <g id="text_48">
   <!-- Anderson1961 HCTZ urine renal impairment -->
   <g transform="translate(151.412 26.196094) scale(0.25 -0.25)">
    <defs>
     <path id="DejaVuSans-Bold-41" d="M 3419 850 
L 1538 850 
L 1241 0 
L 31 0 
L 1759 4666 
L 3194 4666 
L 4922 0 
L 3713 0 
L 3419 850 
z
M 1838 1716 
L 3116 1716 
L 2478 3572 
L 1838 1716 
z
" transform="scale(0.015625)"/>
     <path id="DejaVuSans-Bold-64" d="M 2919 2988 
L 2919 4863 
L 4044 4863 
L 4044 0 
L 2919 0 
L 2919 506 
Q 2688 197 2409 53 
Q 2131 -91 1766 -91 
Q 1119 -91 703 423 
Q 288 938 288 1747 
Q 288 2556 703 3070 
Q 1119 3584 1766 3584 
Q 2128 3584 2408 3439 
Q 2688 3294 2919 2988 
z
M 2181 722 
Q 2541 722 2730 984 
Q 2919 1247 2919 1747 
Q 2919 2247 2730 2509 
Q 2541 2772 2181 2772 
Q 1825 2772 1636 2509 
Q 1447 2247 1447 1747 
Q 1447 1247 1636 984 
Q 1825 722 2181 722 
z
" transform="scale(0.015625)"/>
     <path id="DejaVuSans-Bold-73" d="M 3272 3391 
L 3272 2541 
Q 2913 2691 2578 2766 
Q 2244 2841 1947 2841 
Q 1628 2841 1473 2761 
Q 1319 2681 1319 2516 
Q 1319 2381 1436 2309 
Q 1553 2238 1856 2203 
L 2053 2175 
Q 2913 2066 3209 1816 
Q 3506 1566 3506 1031 
Q 3506 472 3093 190 
Q 2681 -91 1863 -91 
Q 1516 -91 1145 -36 
Q 775 19 384 128 
L 384 978 
Q 719 816 1070 734 
Q 1422 653 1784 653 
Q 2113 653 2278 743 
Q 2444 834 2444 1013 
Q 2444 1163 2330 1236 
Q 2216 1309 1875 1350 
L 1678 1375 
Q 931 1469 631 1722 
Q 331 1975 331 2491 
Q 331 3047 712 3315 
Q 1094 3584 1881 3584 
Q 2191 3584 2531 3537 
Q 2872 3491 3272 3391 
z
" transform="scale(0.015625)"/>
     <path id="DejaVuSans-Bold-31" d="M 750 831 
L 1813 831 
L 1813 3847 
L 722 3622 
L 722 4441 
L 1806 4666 
L 2950 4666 
L 2950 831 
L 4013 831 
L 4013 0 
L 750 0 
L 750 831 
z
" transform="scale(0.015625)"/>
     <path id="DejaVuSans-Bold-39" d="M 641 103 
L 641 966 
Q 928 831 1190 764 
Q 1453 697 1709 697 
Q 2247 697 2547 995 
Q 2847 1294 2900 1881 
Q 2688 1725 2447 1647 
Q 2206 1569 1925 1569 
Q 1209 1569 770 1986 
Q 331 2403 331 3084 
Q 331 3838 820 4291 
Q 1309 4744 2131 4744 
Q 3044 4744 3544 4128 
Q 4044 3513 4044 2388 
Q 4044 1231 3459 570 
Q 2875 -91 1856 -91 
Q 1528 -91 1228 -42 
Q 928 6 641 103 
z
M 2125 2350 
Q 2441 2350 2600 2554 
Q 2759 2759 2759 3169 
Q 2759 3575 2600 3781 
Q 2441 3988 2125 3988 
Q 1809 3988 1650 3781 
Q 1491 3575 1491 3169 
Q 1491 2759 1650 2554 
Q 1809 2350 2125 2350 
z
" transform="scale(0.015625)"/>
     <path id="DejaVuSans-Bold-36" d="M 2316 2303 
Q 2000 2303 1842 2098 
Q 1684 1894 1684 1484 
Q 1684 1075 1842 870 
Q 2000 666 2316 666 
Q 2634 666 2792 870 
Q 2950 1075 2950 1484 
Q 2950 1894 2792 2098 
Q 2634 2303 2316 2303 
z
M 3803 4544 
L 3803 3681 
Q 3506 3822 3243 3889 
Q 2981 3956 2731 3956 
Q 2194 3956 1894 3657 
Q 1594 3359 1544 2772 
Q 1750 2925 1990 3001 
Q 2231 3078 2516 3078 
Q 3231 3078 3670 2659 
Q 4109 2241 4109 1563 
Q 4109 813 3618 361 
Q 3128 -91 2303 -91 
Q 1394 -91 895 523 
Q 397 1138 397 2266 
Q 397 3422 980 4083 
Q 1563 4744 2578 4744 
Q 2900 4744 3203 4694 
Q 3506 4644 3803 4544 
z
" transform="scale(0.015625)"/>
     <path id="DejaVuSans-Bold-61" d="M 2106 1575 
Q 1756 1575 1579 1456 
Q 1403 1338 1403 1106 
Q 1403 894 1545 773 
Q 1688 653 1941 653 
Q 2256 653 2472 879 
Q 2688 1106 2688 1447 
L 2688 1575 
L 2106 1575 
z
M 3816 1997 
L 3816 0 
L 2688 0 
L 2688 519 
Q 2463 200 2181 54 
Q 1900 -91 1497 -91 
Q 953 -91 614 226 
Q 275 544 275 1050 
Q 275 1666 698 1953 
Q 1122 2241 2028 2241 
L 2688 2241 
L 2688 2328 
Q 2688 2594 2478 2717 
Q 2269 2841 1825 2841 
Q 1466 2841 1156 2769 
Q 847 2697 581 2553 
L 581 3406 
Q 941 3494 1303 3539 
Q 1666 3584 2028 3584 
Q 2975 3584 3395 3211 
Q 3816 2838 3816 1997 
z
" transform="scale(0.015625)"/>
     <path id="DejaVuSans-Bold-70" d="M 1656 506 
L 1656 -1331 
L 538 -1331 
L 538 3500 
L 1656 3500 
L 1656 2988 
Q 1888 3294 2169 3439 
Q 2450 3584 2816 3584 
Q 3463 3584 3878 3070 
Q 4294 2556 4294 1747 
Q 4294 938 3878 423 
Q 3463 -91 2816 -91 
Q 2450 -91 2169 54 
Q 1888 200 1656 506 
z
M 2400 2772 
Q 2041 2772 1848 2508 
Q 1656 2244 1656 1747 
Q 1656 1250 1848 986 
Q 2041 722 2400 722 
Q 2759 722 2948 984 
Q 3138 1247 3138 1747 
Q 3138 2247 2948 2509 
Q 2759 2772 2400 2772 
z
" transform="scale(0.015625)"/>
    </defs>
    <use xlink:href="#DejaVuSans-Bold-41"/>
    <use xlink:href="#DejaVuSans-Bold-6e" transform="translate(77.392578 0)"/>
    <use xlink:href="#DejaVuSans-Bold-64" transform="translate(148.583984 0)"/>
    <use xlink:href="#DejaVuSans-Bold-65" transform="translate(220.166016 0)"/>
    <use xlink:href="#DejaVuSans-Bold-72" transform="translate(287.988281 0)"/>
    <use xlink:href="#DejaVuSans-Bold-73" transform="translate(337.304688 0)"/>
    <use xlink:href="#DejaVuSans-Bold-6f" transform="translate(396.826172 0)"/>
    <use xlink:href="#DejaVuSans-Bold-6e" transform="translate(465.527344 0)"/>
    <use xlink:href="#DejaVuSans-Bold-31" transform="translate(536.71875 0)"/>
    <use xlink:href="#DejaVuSans-Bold-39" transform="translate(606.298828 0)"/>
    <use xlink:href="#DejaVuSans-Bold-36" transform="translate(675.878906 0)"/>
    <use xlink:href="#DejaVuSans-Bold-31" transform="translate(745.458984 0)"/>
    <use xlink:href="#DejaVuSans-Bold-20" transform="translate(815.039062 0)"/>
    <use xlink:href="#DejaVuSans-Bold-48" transform="translate(849.853516 0)"/>
    <use xlink:href="#DejaVuSans-Bold-43" transform="translate(933.544922 0)"/>
    <use xlink:href="#DejaVuSans-Bold-54" transform="translate(1006.933594 0)"/>
    <use xlink:href="#DejaVuSans-Bold-5a" transform="translate(1075.146484 0)"/>
    <use xlink:href="#DejaVuSans-Bold-20" transform="translate(1147.65625 0)"/>
    <use xlink:href="#DejaVuSans-Bold-75" transform="translate(1182.470703 0)"/>
    <use xlink:href="#DejaVuSans-Bold-72" transform="translate(1253.662109 0)"/>
    <use xlink:href="#DejaVuSans-Bold-69" transform="translate(1302.978516 0)"/>
    <use xlink:href="#DejaVuSans-Bold-6e" transform="translate(1337.255859 0)"/>
    <use xlink:href="#DejaVuSans-Bold-65" transform="translate(1408.447266 0)"/>
    <use xlink:href="#DejaVuSans-Bold-20" transform="translate(1476.269531 0)"/>
    <use xlink:href="#DejaVuSans-Bold-72" transform="translate(1511.083984 0)"/>
    <use xlink:href="#DejaVuSans-Bold-65" transform="translate(1560.400391 0)"/>
    <use xlink:href="#DejaVuSans-Bold-6e" transform="translate(1628.222656 0)"/>
    <use xlink:href="#DejaVuSans-Bold-61" transform="translate(1699.414062 0)"/>
    <use xlink:href="#DejaVuSans-Bold-6c" transform="translate(1766.894531 0)"/>
    <use xlink:href="#DejaVuSans-Bold-20" transform="translate(1801.171875 0)"/>
    <use xlink:href="#DejaVuSans-Bold-69" transform="translate(1835.986328 0)"/>
    <use xlink:href="#DejaVuSans-Bold-6d" transform="translate(1870.263672 0)"/>
    <use xlink:href="#DejaVuSans-Bold-70" transform="translate(1974.462891 0)"/>
    <use xlink:href="#DejaVuSans-Bold-61" transform="translate(2046.044922 0)"/>
    <use xlink:href="#DejaVuSans-Bold-69" transform="translate(2113.525391 0)"/>
    <use xlink:href="#DejaVuSans-Bold-72" transform="translate(2147.802734 0)"/>
    <use xlink:href="#DejaVuSans-Bold-6d" transform="translate(2197.119141 0)"/>
    <use xlink:href="#DejaVuSans-Bold-65" transform="translate(2301.318359 0)"/>
    <use xlink:href="#DejaVuSans-Bold-6e" transform="translate(2369.140625 0)"/>
    <use xlink:href="#DejaVuSans-Bold-74" transform="translate(2440.332031 0)"/>
   </g>
  </g>
 </g>
 <defs>
  <clipPath id="p1befd04aea">
   <rect x="84.427625" y="43.2" width="339.652174" height="277.2"/>
  </clipPath>
  <clipPath id="pdf4600c24a">
   <rect x="525.975451" y="43.2" width="339.652174" height="277.2"/>
  </clipPath>
 </defs>
</svg>
