<?xml version="1.0" encoding="utf-8" standalone="no"?>
<!DOCTYPE svg PUBLIC "-//W3C//DTD SVG 1.1//EN"
  "http://www.w3.org/Graphics/SVG/1.1/DTD/svg11.dtd">
<svg xmlns:xlink="http://www.w3.org/1999/xlink" width="872.827625pt" height="370.537812pt" viewBox="0 0 872.827625 370.537812" xmlns="http://www.w3.org/2000/svg" version="1.1">
 <metadata>
  <rdf:RDF xmlns:dc="http://purl.org/dc/elements/1.1/" xmlns:cc="http://creativecommons.org/ns#" xmlns:rdf="http://www.w3.org/1999/02/22-rdf-syntax-ns#">
   <cc:Work>
    <dc:type rdf:resource="http://purl.org/dc/dcmitype/StillImage"/>
    <dc:date>2025-11-04T18:11:47.751360</dc:date>
    <dc:format>image/svg+xml</dc:format>
    <dc:creator>
     <cc:Agent>
      <dc:title>Matplotlib v3.10.7, https://matplotlib.org/</dc:title>
     </cc:Agent>
    </dc:creator>
   </cc:Work>
  </rdf:RDF>
 </metadata>
 <defs>
  <style type="text/css">*{stroke-linejoin: round; stroke-linecap: butt}</style>
 </defs>
 <g id="figure_1">
  <g id="patch_1">
   <path d="M 0 370.537812 
L 872.827625 370.537812 
L 872.827625 0 
L 0 0 
z
" style="fill: #ffffff"/>
  </g>
  <g id="axes_1">
   <g id="patch_2">
    <path d="M 84.427625 320.4 
L 424.079799 320.4 
L 424.079799 43.2 
L 84.427625 43.2 
z
" style="fill: #ffffff"/>
   </g>
   <g id="matplotlib.axis_1">
    <g id="xtick_1">
     <g id="line2d_1">
      <defs>
       <path id="m86ca552669" d="M 0 0 
L 0 3.5 
" style="stroke: #000000; stroke-width: 0.8"/>
      </defs>
      <g>
       <use xlink:href="#m86ca552669" x="99.86636" y="320.4" style="stroke: #000000; stroke-width: 0.8"/>
      </g>
     </g>
     <g id="text_1">
      <!-- 0 -->
      <g transform="translate(95.094485 338.797656) scale(0.15 -0.15)">
       <defs>
        <path id="DejaVuSans-30" d="M 2034 4250 
Q 1547 4250 1301 3770 
Q 1056 3291 1056 2328 
Q 1056 1369 1301 889 
Q 1547 409 2034 409 
Q 2525 409 2770 889 
Q 3016 1369 3016 2328 
Q 3016 3291 2770 3770 
Q 2525 4250 2034 4250 
z
M 2034 4750 
Q 2819 4750 3233 4129 
Q 3647 3509 3647 2328 
Q 3647 1150 3233 529 
Q 2819 -91 2034 -91 
Q 1250 -91 836 529 
Q 422 1150 422 2328 
Q 422 3509 836 4129 
Q 1250 4750 2034 4750 
z
" transform="scale(0.015625)"/>
       </defs>
       <use xlink:href="#DejaVuSans-30"/>
      </g>
     </g>
    </g>
    <g id="xtick_2">
     <g id="line2d_2">
      <g>
       <use xlink:href="#m86ca552669" x="185.637111" y="320.4" style="stroke: #000000; stroke-width: 0.8"/>
      </g>
     </g>
     <g id="text_2">
      <!-- 50 -->
      <g transform="translate(176.093361 338.797656) scale(0.15 -0.15)">
       <defs>
        <path id="DejaVuSans-35" d="M 691 4666 
L 3169 4666 
L 3169 4134 
L 1269 4134 
L 1269 2991 
Q 1406 3038 1543 3061 
Q 1681 3084 1819 3084 
Q 2600 3084 3056 2656 
Q 3513 2228 3513 1497 
Q 3513 744 3044 326 
Q 2575 -91 1722 -91 
Q 1428 -91 1123 -41 
Q 819 9 494 109 
L 494 744 
Q 775 591 1075 516 
Q 1375 441 1709 441 
Q 2250 441 2565 725 
Q 2881 1009 2881 1497 
Q 2881 1984 2565 2268 
Q 2250 2553 1709 2553 
Q 1456 2553 1204 2497 
Q 953 2441 691 2322 
L 691 4666 
z
" transform="scale(0.015625)"/>
       </defs>
       <use xlink:href="#DejaVuSans-35"/>
       <use xlink:href="#DejaVuSans-30" transform="translate(63.623047 0)"/>
      </g>
     </g>
    </g>
    <g id="xtick_3">
     <g id="line2d_3">
      <g>
       <use xlink:href="#m86ca552669" x="271.407862" y="320.4" style="stroke: #000000; stroke-width: 0.8"/>
      </g>
     </g>
     <g id="text_3">
      <!-- 100 -->
      <g transform="translate(257.092237 338.797656) scale(0.15 -0.15)">
       <defs>
        <path id="DejaVuSans-31" d="M 794 531 
L 1825 531 
L 1825 4091 
L 703 3866 
L 703 4441 
L 1819 4666 
L 2450 4666 
L 2450 531 
L 3481 531 
L 3481 0 
L 794 0 
L 794 531 
z
" transform="scale(0.015625)"/>
       </defs>
       <use xlink:href="#DejaVuSans-31"/>
       <use xlink:href="#DejaVuSans-30" transform="translate(63.623047 0)"/>
       <use xlink:href="#DejaVuSans-30" transform="translate(127.246094 0)"/>
      </g>
     </g>
    </g>
    <g id="xtick_4">
     <g id="line2d_4">
      <g>
       <use xlink:href="#m86ca552669" x="357.178613" y="320.4" style="stroke: #000000; stroke-width: 0.8"/>
      </g>
     </g>
     <g id="text_4">
      <!-- 150 -->
      <g transform="translate(342.862988 338.797656) scale(0.15 -0.15)">
       <use xlink:href="#DejaVuSans-31"/>
       <use xlink:href="#DejaVuSans-35" transform="translate(63.623047 0)"/>
       <use xlink:href="#DejaVuSans-30" transform="translate(127.246094 0)"/>
      </g>
     </g>
    </g>
    <g id="text_5">
     <!-- time [hr] -->
     <g transform="translate(209.179181 359.594375) scale(0.18 -0.18)">
      <defs>
       <path id="DejaVuSans-Bold-74" d="M 1759 4494 
L 1759 3500 
L 2913 3500 
L 2913 2700 
L 1759 2700 
L 1759 1216 
Q 1759 972 1856 886 
Q 1953 800 2241 800 
L 2816 800 
L 2816 0 
L 1856 0 
Q 1194 0 917 276 
Q 641 553 641 1216 
L 641 2700 
L 84 2700 
L 84 3500 
L 641 3500 
L 641 4494 
L 1759 4494 
z
" transform="scale(0.015625)"/>
       <path id="DejaVuSans-Bold-69" d="M 538 3500 
L 1656 3500 
L 1656 0 
L 538 0 
L 538 3500 
z
M 538 4863 
L 1656 4863 
L 1656 3950 
L 538 3950 
L 538 4863 
z
" transform="scale(0.015625)"/>
       <path id="DejaVuSans-Bold-6d" d="M 3781 2919 
Q 3994 3244 4286 3414 
Q 4578 3584 4928 3584 
Q 5531 3584 5847 3212 
Q 6163 2841 6163 2131 
L 6163 0 
L 5038 0 
L 5038 1825 
Q 5041 1866 5042 1909 
Q 5044 1953 5044 2034 
Q 5044 2406 4934 2573 
Q 4825 2741 4581 2741 
Q 4263 2741 4089 2478 
Q 3916 2216 3909 1719 
L 3909 0 
L 2784 0 
L 2784 1825 
Q 2784 2406 2684 2573 
Q 2584 2741 2328 2741 
Q 2006 2741 1831 2477 
Q 1656 2213 1656 1722 
L 1656 0 
L 531 0 
L 531 3500 
L 1656 3500 
L 1656 2988 
Q 1863 3284 2130 3434 
Q 2397 3584 2719 3584 
Q 3081 3584 3359 3409 
Q 3638 3234 3781 2919 
z
" transform="scale(0.015625)"/>
       <path id="DejaVuSans-Bold-65" d="M 4031 1759 
L 4031 1441 
L 1416 1441 
Q 1456 1047 1700 850 
Q 1944 653 2381 653 
Q 2734 653 3104 758 
Q 3475 863 3866 1075 
L 3866 213 
Q 3469 63 3072 -14 
Q 2675 -91 2278 -91 
Q 1328 -91 801 392 
Q 275 875 275 1747 
Q 275 2603 792 3093 
Q 1309 3584 2216 3584 
Q 3041 3584 3536 3087 
Q 4031 2591 4031 1759 
z
M 2881 2131 
Q 2881 2450 2695 2645 
Q 2509 2841 2209 2841 
Q 1884 2841 1681 2658 
Q 1478 2475 1428 2131 
L 2881 2131 
z
" transform="scale(0.015625)"/>
       <path id="DejaVuSans-Bold-20" transform="scale(0.015625)"/>
       <path id="DejaVuSans-Bold-5b" d="M 550 4863 
L 2491 4863 
L 2491 4159 
L 1613 4159 
L 1613 -141 
L 2491 -141 
L 2491 -844 
L 550 -844 
L 550 4863 
z
" transform="scale(0.015625)"/>
       <path id="DejaVuSans-Bold-68" d="M 4056 2131 
L 4056 0 
L 2931 0 
L 2931 347 
L 2931 1625 
Q 2931 2084 2911 2256 
Q 2891 2428 2841 2509 
Q 2775 2619 2662 2680 
Q 2550 2741 2406 2741 
Q 2056 2741 1856 2470 
Q 1656 2200 1656 1722 
L 1656 0 
L 538 0 
L 538 4863 
L 1656 4863 
L 1656 2988 
Q 1909 3294 2193 3439 
Q 2478 3584 2822 3584 
Q 3428 3584 3742 3212 
Q 4056 2841 4056 2131 
z
" transform="scale(0.015625)"/>
       <path id="DejaVuSans-Bold-72" d="M 3138 2547 
Q 2991 2616 2845 2648 
Q 2700 2681 2553 2681 
Q 2122 2681 1889 2404 
Q 1656 2128 1656 1613 
L 1656 0 
L 538 0 
L 538 3500 
L 1656 3500 
L 1656 2925 
Q 1872 3269 2151 3426 
Q 2431 3584 2822 3584 
Q 2878 3584 2943 3579 
Q 3009 3575 3134 3559 
L 3138 2547 
z
" transform="scale(0.015625)"/>
       <path id="DejaVuSans-Bold-5d" d="M 2375 -844 
L 434 -844 
L 434 -141 
L 1313 -141 
L 1313 4159 
L 434 4159 
L 434 4863 
L 2375 4863 
L 2375 -844 
z
" transform="scale(0.015625)"/>
      </defs>
      <use xlink:href="#DejaVuSans-Bold-74"/>
      <use xlink:href="#DejaVuSans-Bold-69" transform="translate(47.802734 0)"/>
      <use xlink:href="#DejaVuSans-Bold-6d" transform="translate(82.080078 0)"/>
      <use xlink:href="#DejaVuSans-Bold-65" transform="translate(186.279297 0)"/>
      <use xlink:href="#DejaVuSans-Bold-20" transform="translate(254.101562 0)"/>
      <use xlink:href="#DejaVuSans-Bold-5b" transform="translate(288.916016 0)"/>
      <use xlink:href="#DejaVuSans-Bold-68" transform="translate(334.619141 0)"/>
      <use xlink:href="#DejaVuSans-Bold-72" transform="translate(405.810547 0)"/>
      <use xlink:href="#DejaVuSans-Bold-5d" transform="translate(455.126953 0)"/>
     </g>
    </g>
   </g>
   <g id="matplotlib.axis_2">
    <g id="ytick_1">
     <g id="line2d_5">
      <defs>
       <path id="m568276e23c" d="M 0 0 
L -3.5 0 
" style="stroke: #000000; stroke-width: 0.8"/>
      </defs>
      <g>
       <use xlink:href="#m568276e23c" x="84.427625" y="307.8" style="stroke: #000000; stroke-width: 0.8"/>
      </g>
     </g>
     <g id="text_6">
      <!-- 0 -->
      <g transform="translate(67.883875 313.498828) scale(0.15 -0.15)">
       <use xlink:href="#DejaVuSans-30"/>
      </g>
     </g>
    </g>
    <g id="ytick_2">
     <g id="line2d_6">
      <g>
       <use xlink:href="#m568276e23c" x="84.427625" y="267.786772" style="stroke: #000000; stroke-width: 0.8"/>
      </g>
     </g>
     <g id="text_7">
      <!-- 20 -->
      <g transform="translate(58.340125 273.485601) scale(0.15 -0.15)">
       <defs>
        <path id="DejaVuSans-32" d="M 1228 531 
L 3431 531 
L 3431 0 
L 469 0 
L 469 531 
Q 828 903 1448 1529 
Q 2069 2156 2228 2338 
Q 2531 2678 2651 2914 
Q 2772 3150 2772 3378 
Q 2772 3750 2511 3984 
Q 2250 4219 1831 4219 
Q 1534 4219 1204 4116 
Q 875 4013 500 3803 
L 500 4441 
Q 881 4594 1212 4672 
Q 1544 4750 1819 4750 
Q 2544 4750 2975 4387 
Q 3406 4025 3406 3419 
Q 3406 3131 3298 2873 
Q 3191 2616 2906 2266 
Q 2828 2175 2409 1742 
Q 1991 1309 1228 531 
z
" transform="scale(0.015625)"/>
       </defs>
       <use xlink:href="#DejaVuSans-32"/>
       <use xlink:href="#DejaVuSans-30" transform="translate(63.623047 0)"/>
      </g>
     </g>
    </g>
    <g id="ytick_3">
     <g id="line2d_7">
      <g>
       <use xlink:href="#m568276e23c" x="84.427625" y="227.773545" style="stroke: #000000; stroke-width: 0.8"/>
      </g>
     </g>
     <g id="text_8">
      <!-- 40 -->
      <g transform="translate(58.340125 233.472373) scale(0.15 -0.15)">
       <defs>
        <path id="DejaVuSans-34" d="M 2419 4116 
L 825 1625 
L 2419 1625 
L 2419 4116 
z
M 2253 4666 
L 3047 4666 
L 3047 1625 
L 3713 1625 
L 3713 1100 
L 3047 1100 
L 3047 0 
L 2419 0 
L 2419 1100 
L 313 1100 
L 313 1709 
L 2253 4666 
z
" transform="scale(0.015625)"/>
       </defs>
       <use xlink:href="#DejaVuSans-34"/>
       <use xlink:href="#DejaVuSans-30" transform="translate(63.623047 0)"/>
      </g>
     </g>
    </g>
    <g id="ytick_4">
     <g id="line2d_8">
      <g>
       <use xlink:href="#m568276e23c" x="84.427625" y="187.760317" style="stroke: #000000; stroke-width: 0.8"/>
      </g>
     </g>
     <g id="text_9">
      <!-- 60 -->
      <g transform="translate(58.340125 193.459146) scale(0.15 -0.15)">
       <defs>
        <path id="DejaVuSans-36" d="M 2113 2584 
Q 1688 2584 1439 2293 
Q 1191 2003 1191 1497 
Q 1191 994 1439 701 
Q 1688 409 2113 409 
Q 2538 409 2786 701 
Q 3034 994 3034 1497 
Q 3034 2003 2786 2293 
Q 2538 2584 2113 2584 
z
M 3366 4563 
L 3366 3988 
Q 3128 4100 2886 4159 
Q 2644 4219 2406 4219 
Q 1781 4219 1451 3797 
Q 1122 3375 1075 2522 
Q 1259 2794 1537 2939 
Q 1816 3084 2150 3084 
Q 2853 3084 3261 2657 
Q 3669 2231 3669 1497 
Q 3669 778 3244 343 
Q 2819 -91 2113 -91 
Q 1303 -91 875 529 
Q 447 1150 447 2328 
Q 447 3434 972 4092 
Q 1497 4750 2381 4750 
Q 2619 4750 2861 4703 
Q 3103 4656 3366 4563 
z
" transform="scale(0.015625)"/>
       </defs>
       <use xlink:href="#DejaVuSans-36"/>
       <use xlink:href="#DejaVuSans-30" transform="translate(63.623047 0)"/>
      </g>
     </g>
    </g>
    <g id="ytick_5">
     <g id="line2d_9">
      <g>
       <use xlink:href="#m568276e23c" x="84.427625" y="147.74709" style="stroke: #000000; stroke-width: 0.8"/>
      </g>
     </g>
     <g id="text_10">
      <!-- 80 -->
      <g transform="translate(58.340125 153.445918) scale(0.15 -0.15)">
       <defs>
        <path id="DejaVuSans-38" d="M 2034 2216 
Q 1584 2216 1326 1975 
Q 1069 1734 1069 1313 
Q 1069 891 1326 650 
Q 1584 409 2034 409 
Q 2484 409 2743 651 
Q 3003 894 3003 1313 
Q 3003 1734 2745 1975 
Q 2488 2216 2034 2216 
z
M 1403 2484 
Q 997 2584 770 2862 
Q 544 3141 544 3541 
Q 544 4100 942 4425 
Q 1341 4750 2034 4750 
Q 2731 4750 3128 4425 
Q 3525 4100 3525 3541 
Q 3525 3141 3298 2862 
Q 3072 2584 2669 2484 
Q 3125 2378 3379 2068 
Q 3634 1759 3634 1313 
Q 3634 634 3220 271 
Q 2806 -91 2034 -91 
Q 1263 -91 848 271 
Q 434 634 434 1313 
Q 434 1759 690 2068 
Q 947 2378 1403 2484 
z
M 1172 3481 
Q 1172 3119 1398 2916 
Q 1625 2713 2034 2713 
Q 2441 2713 2670 2916 
Q 2900 3119 2900 3481 
Q 2900 3844 2670 4047 
Q 2441 4250 2034 4250 
Q 1625 4250 1398 4047 
Q 1172 3844 1172 3481 
z
" transform="scale(0.015625)"/>
       </defs>
       <use xlink:href="#DejaVuSans-38"/>
       <use xlink:href="#DejaVuSans-30" transform="translate(63.623047 0)"/>
      </g>
     </g>
    </g>
    <g id="ytick_6">
     <g id="line2d_10">
      <g>
       <use xlink:href="#m568276e23c" x="84.427625" y="107.733862" style="stroke: #000000; stroke-width: 0.8"/>
      </g>
     </g>
     <g id="text_11">
      <!-- 100 -->
      <g transform="translate(48.796375 113.43269) scale(0.15 -0.15)">
       <use xlink:href="#DejaVuSans-31"/>
       <use xlink:href="#DejaVuSans-30" transform="translate(63.623047 0)"/>
       <use xlink:href="#DejaVuSans-30" transform="translate(127.246094 0)"/>
      </g>
     </g>
    </g>
    <g id="ytick_7">
     <g id="line2d_11">
      <g>
       <use xlink:href="#m568276e23c" x="84.427625" y="67.720635" style="stroke: #000000; stroke-width: 0.8"/>
      </g>
     </g>
     <g id="text_12">
      <!-- 120 -->
      <g transform="translate(48.796375 73.419463) scale(0.15 -0.15)">
       <use xlink:href="#DejaVuSans-31"/>
       <use xlink:href="#DejaVuSans-32" transform="translate(63.623047 0)"/>
       <use xlink:href="#DejaVuSans-30" transform="translate(127.246094 0)"/>
      </g>
     </g>
    </g>
    <g id="text_13">
     <!-- HCTZ urine -->
     <g transform="translate(20.877188 238.177969) rotate(-90) scale(0.18 -0.18)">
      <defs>
       <path id="DejaVuSans-Bold-48" d="M 588 4666 
L 1791 4666 
L 1791 2888 
L 3566 2888 
L 3566 4666 
L 4769 4666 
L 4769 0 
L 3566 0 
L 3566 1978 
L 1791 1978 
L 1791 0 
L 588 0 
L 588 4666 
z
" transform="scale(0.015625)"/>
       <path id="DejaVuSans-Bold-43" d="M 4288 256 
Q 3956 84 3597 -3 
Q 3238 -91 2847 -91 
Q 1681 -91 1000 561 
Q 319 1213 319 2328 
Q 319 3447 1000 4098 
Q 1681 4750 2847 4750 
Q 3238 4750 3597 4662 
Q 3956 4575 4288 4403 
L 4288 3438 
Q 3953 3666 3628 3772 
Q 3303 3878 2944 3878 
Q 2300 3878 1931 3465 
Q 1563 3053 1563 2328 
Q 1563 1606 1931 1193 
Q 2300 781 2944 781 
Q 3303 781 3628 887 
Q 3953 994 4288 1222 
L 4288 256 
z
" transform="scale(0.015625)"/>
       <path id="DejaVuSans-Bold-54" d="M 31 4666 
L 4331 4666 
L 4331 3756 
L 2784 3756 
L 2784 0 
L 1581 0 
L 1581 3756 
L 31 3756 
L 31 4666 
z
" transform="scale(0.015625)"/>
       <path id="DejaVuSans-Bold-5a" d="M 359 4666 
L 4281 4666 
L 4281 3938 
L 1778 909 
L 4353 909 
L 4353 0 
L 288 0 
L 288 728 
L 2791 3756 
L 359 3756 
L 359 4666 
z
" transform="scale(0.015625)"/>
       <path id="DejaVuSans-Bold-75" d="M 500 1363 
L 500 3500 
L 1625 3500 
L 1625 3150 
Q 1625 2866 1622 2436 
Q 1619 2006 1619 1863 
Q 1619 1441 1641 1255 
Q 1663 1069 1716 984 
Q 1784 875 1895 815 
Q 2006 756 2150 756 
Q 2500 756 2700 1025 
Q 2900 1294 2900 1772 
L 2900 3500 
L 4019 3500 
L 4019 0 
L 2900 0 
L 2900 506 
Q 2647 200 2364 54 
Q 2081 -91 1741 -91 
Q 1134 -91 817 281 
Q 500 653 500 1363 
z
" transform="scale(0.015625)"/>
       <path id="DejaVuSans-Bold-6e" d="M 4056 2131 
L 4056 0 
L 2931 0 
L 2931 347 
L 2931 1631 
Q 2931 2084 2911 2256 
Q 2891 2428 2841 2509 
Q 2775 2619 2662 2680 
Q 2550 2741 2406 2741 
Q 2056 2741 1856 2470 
Q 1656 2200 1656 1722 
L 1656 0 
L 538 0 
L 538 3500 
L 1656 3500 
L 1656 2988 
Q 1909 3294 2193 3439 
Q 2478 3584 2822 3584 
Q 3428 3584 3742 3212 
Q 4056 2841 4056 2131 
z
" transform="scale(0.015625)"/>
      </defs>
      <use xlink:href="#DejaVuSans-Bold-48"/>
      <use xlink:href="#DejaVuSans-Bold-43" transform="translate(83.691406 0)"/>
      <use xlink:href="#DejaVuSans-Bold-54" transform="translate(157.080078 0)"/>
      <use xlink:href="#DejaVuSans-Bold-5a" transform="translate(225.292969 0)"/>
      <use xlink:href="#DejaVuSans-Bold-20" transform="translate(297.802734 0)"/>
      <use xlink:href="#DejaVuSans-Bold-75" transform="translate(332.617188 0)"/>
      <use xlink:href="#DejaVuSans-Bold-72" transform="translate(403.808594 0)"/>
      <use xlink:href="#DejaVuSans-Bold-69" transform="translate(453.125 0)"/>
      <use xlink:href="#DejaVuSans-Bold-6e" transform="translate(487.402344 0)"/>
      <use xlink:href="#DejaVuSans-Bold-65" transform="translate(558.59375 0)"/>
     </g>
     <!--  [µmol] -->
     <g transform="translate(41.03325 218.428594) rotate(-90) scale(0.18 -0.18)">
      <defs>
       <path id="DejaVuSans-Bold-b5" d="M 544 -1338 
L 544 3500 
L 1672 3500 
L 1672 1466 
Q 1672 1103 1828 926 
Q 1984 750 2303 750 
Q 2625 750 2781 926 
Q 2938 1103 2938 1466 
L 2938 3500 
L 4063 3500 
L 4063 1159 
Q 4063 938 4114 850 
Q 4166 763 4288 763 
Q 4344 763 4395 778 
Q 4447 794 4506 831 
L 4506 50 
Q 4341 -22 4195 -56 
Q 4050 -91 3909 -91 
Q 3631 -91 3454 26 
Q 3278 144 3169 403 
Q 3022 156 2811 32 
Q 2600 -91 2322 -91 
Q 2091 -91 1928 -17 
Q 1766 56 1672 206 
L 1672 -1338 
L 544 -1338 
z
" transform="scale(0.015625)"/>
       <path id="DejaVuSans-Bold-6f" d="M 2203 2784 
Q 1831 2784 1636 2517 
Q 1441 2250 1441 1747 
Q 1441 1244 1636 976 
Q 1831 709 2203 709 
Q 2569 709 2762 976 
Q 2956 1244 2956 1747 
Q 2956 2250 2762 2517 
Q 2569 2784 2203 2784 
z
M 2203 3584 
Q 3106 3584 3614 3096 
Q 4122 2609 4122 1747 
Q 4122 884 3614 396 
Q 3106 -91 2203 -91 
Q 1297 -91 786 396 
Q 275 884 275 1747 
Q 275 2609 786 3096 
Q 1297 3584 2203 3584 
z
" transform="scale(0.015625)"/>
       <path id="DejaVuSans-Bold-6c" d="M 538 4863 
L 1656 4863 
L 1656 0 
L 538 0 
L 538 4863 
z
" transform="scale(0.015625)"/>
      </defs>
      <use xlink:href="#DejaVuSans-Bold-20"/>
      <use xlink:href="#DejaVuSans-Bold-5b" transform="translate(34.814453 0)"/>
      <use xlink:href="#DejaVuSans-Bold-b5" transform="translate(80.517578 0)"/>
      <use xlink:href="#DejaVuSans-Bold-6d" transform="translate(154.101562 0)"/>
      <use xlink:href="#DejaVuSans-Bold-6f" transform="translate(258.300781 0)"/>
      <use xlink:href="#DejaVuSans-Bold-6c" transform="translate(327.001953 0)"/>
      <use xlink:href="#DejaVuSans-Bold-5d" transform="translate(361.279297 0)"/>
     </g>
    </g>
   </g>
   <g id="LineCollection_1">
    <path clip-path="url(#pdc6ea5b18d)" style="fill: none; stroke: #1f77b4"/>
    <path clip-path="url(#pdc6ea5b18d)" style="fill: none; stroke: #1f77b4"/>
    <path clip-path="url(#pdc6ea5b18d)" style="fill: none; stroke: #1f77b4"/>
   </g>
   <g id="LineCollection_2">
    <path d="M 106.72802 288.490341 
L 106.72802 185.981379 
" clip-path="url(#pdc6ea5b18d)" style="fill: none; stroke: #000000"/>
    <path d="M 113.58968 222.314561 
L 113.58968 127.829865 
" clip-path="url(#pdc6ea5b18d)" style="fill: none; stroke: #000000"/>
    <path d="M 141.036321 102.718284 
L 141.036321 87.816778 
" clip-path="url(#pdc6ea5b18d)" style="fill: none; stroke: #000000"/>
   </g>
   <g id="line2d_12">
    <path d="M 99.86636 307.8 
L 100.48391 306.799668 
L 101.101459 302.622566 
L 101.719008 295.858858 
L 103.571657 269.64321 
L 105.424305 243.781937 
L 107.276953 221.154837 
L 109.129601 201.709819 
L 110.98225 185.015915 
L 112.834898 170.658105 
L 114.687546 158.280333 
L 116.540194 147.581865 
L 118.392842 138.309182 
L 120.245491 130.248545 
L 122.098139 123.219682 
L 123.950787 117.070473 
L 125.803435 111.672479 
L 127.656083 106.917193 
L 129.508732 102.712876 
L 131.36138 98.981908 
L 133.214028 95.658557 
L 135.066676 92.687105 
L 137.536874 89.191892 
L 140.007072 86.146109 
L 142.477269 83.474803 
L 144.947467 81.117353 
L 147.417665 79.024581 
L 150.505412 76.720548 
L 153.593159 74.705535 
L 156.680906 72.93064 
L 160.386202 71.064034 
L 164.091499 69.43619 
L 168.414344 67.786051 
L 173.35474 66.170184 
L 178.295135 64.790562 
L 183.85308 63.47003 
L 190.028574 62.238611 
L 196.821617 61.117433 
L 204.23221 60.119468 
L 212.877902 59.191335 
L 222.758692 58.372885 
L 233.874582 57.685456 
L 246.843119 57.110982 
L 262.899404 56.634337 
L 283.278534 56.267624 
L 311.068257 56.00836 
L 354.296716 55.852473 
L 408.641064 55.800108 
L 408.641064 55.800108 
" clip-path="url(#pdc6ea5b18d)" style="fill: none; stroke: #74a9cf; stroke-width: 2; stroke-linecap: square"/>
   </g>
   <g id="line2d_13">
    <path d="M 99.86636 307.8 
L 100.48391 306.782417 
L 101.101459 302.494783 
L 101.719008 295.549604 
L 103.571657 268.950597 
L 105.424305 243.058999 
L 107.276953 220.50586 
L 109.129601 201.14246 
L 110.98225 184.520766 
L 112.834898 170.224798 
L 114.687546 157.899792 
L 116.540194 147.246392 
L 118.392842 138.012272 
L 120.245491 129.984702 
L 122.098139 122.98426 
L 123.950787 116.85954 
L 125.803435 111.482706 
L 127.656083 106.745757 
L 129.508732 102.557381 
L 131.36138 98.840317 
L 133.214028 95.529137 
L 135.066676 92.568378 
L 137.536874 89.085492 
L 140.007072 86.050209 
L 142.477269 83.387912 
L 144.947467 81.03825 
L 147.417665 78.952259 
L 150.505412 76.655547 
L 153.593159 74.646816 
L 156.680906 72.877367 
L 160.386202 71.016409 
L 164.091499 69.393437 
L 168.414344 67.748201 
L 173.35474 66.137115 
L 178.295135 64.761579 
L 183.85308 63.444975 
L 190.028574 62.217254 
L 196.821617 61.099486 
L 204.23221 60.104606 
L 212.877902 59.1794 
L 222.758692 58.363594 
L 233.874582 57.678448 
L 246.843119 57.10594 
L 262.899404 56.630987 
L 283.278534 56.265634 
L 311.068257 56.007384 
L 354.296716 55.852154 
L 408.641064 55.80003 
L 408.641064 55.80003 
" clip-path="url(#pdc6ea5b18d)" style="fill: none; stroke: #2b8cbe; stroke-width: 2; stroke-linecap: square"/>
   </g>
   <g id="line2d_14">
    <path d="M 99.86636 307.8 
L 100.48391 306.769781 
L 101.101459 302.420039 
L 101.719008 295.393567 
L 103.571657 268.668671 
L 105.424305 242.783019 
L 107.276953 220.261855 
L 109.129601 200.929676 
L 110.98225 184.335045 
L 112.834898 170.062179 
L 114.687546 157.75688 
L 116.540194 147.120317 
L 118.392842 137.900608 
L 120.245491 129.885401 
L 122.098139 122.895589 
L 123.950787 116.780033 
L 125.803435 111.411123 
L 127.656083 106.681043 
L 129.508732 102.498642 
L 131.36138 98.786794 
L 133.214028 95.480182 
L 135.066676 92.52344 
L 137.536874 89.045187 
L 140.007072 86.013855 
L 142.477269 83.354952 
L 144.947467 81.008226 
L 147.417665 78.924794 
L 150.505412 76.630849 
L 153.593159 74.624494 
L 156.680906 72.857107 
L 160.386202 70.998291 
L 164.091499 69.377167 
L 168.414344 67.733792 
L 173.35474 66.124525 
L 178.295135 64.750542 
L 183.85308 63.435434 
L 190.028574 62.20912 
L 196.821617 61.09265 
L 204.23221 60.098946 
L 212.877902 59.174855 
L 222.758692 58.360056 
L 233.874582 57.675779 
L 246.843119 57.104021 
L 262.899404 56.629712 
L 283.278534 56.264876 
L 311.068257 56.007013 
L 354.296716 55.852032 
L 408.641064 55.8 
L 408.641064 55.8 
" clip-path="url(#pdc6ea5b18d)" style="fill: none; stroke: #045a8d; stroke-width: 2; stroke-linecap: square"/>
   </g>
   <g id="line2d_15">
    <path d="M 99.86636 307.8 
L 100.48391 306.809888 
L 101.101459 302.715574 
L 101.719008 296.122918 
L 102.954107 279.359521 
L 105.424305 244.731121 
L 107.276953 222.047618 
L 109.129601 202.50043 
L 110.98225 185.707544 
L 112.834898 171.263137 
L 114.687546 158.811146 
L 116.540194 148.04926 
L 118.392842 138.722334 
L 120.245491 130.615216 
L 122.098139 123.546433 
L 123.950787 117.362855 
L 125.803435 111.935192 
L 127.656083 107.154219 
L 129.508732 102.927594 
L 131.36138 99.17719 
L 133.214028 95.836845 
L 135.066676 92.85048 
L 137.536874 89.338101 
L 140.007072 86.277721 
L 142.477269 83.593912 
L 144.947467 81.225673 
L 147.417665 79.123524 
L 150.505412 76.809385 
L 153.593159 74.785717 
L 156.680906 73.003334 
L 160.386202 71.128975 
L 164.091499 69.494456 
L 168.414344 67.837613 
L 173.35474 66.215215 
L 178.295135 64.83002 
L 183.85308 63.504132 
L 190.028574 62.267679 
L 196.821617 61.141859 
L 204.23221 60.139696 
L 212.877902 59.20758 
L 222.758692 58.385533 
L 233.874582 57.695 
L 246.843119 57.117849 
L 262.899404 56.6389 
L 283.278534 56.270336 
L 311.068257 56.009689 
L 354.296716 55.85291 
L 408.641064 55.800214 
L 408.641064 55.800214 
" clip-path="url(#pdc6ea5b18d)" style="fill: none; stroke: #000000; stroke-width: 2; stroke-linecap: square"/>
   </g>
   <g id="line2d_16">
    <path d="M 106.72802 290.999014 
L 113.58968 217.074677 
L 141.036321 159.951326 
" clip-path="url(#pdc6ea5b18d)" style="fill: none; stroke: #1f77b4; stroke-linecap: square"/>
    <defs>
     <path id="mc6ec686938" d="M -3 3 
L 3 3 
L 3 -3 
L -3 -3 
z
" style="stroke: #000000; stroke-linejoin: miter"/>
    </defs>
    <g clip-path="url(#pdc6ea5b18d)">
     <use xlink:href="#mc6ec686938" x="106.72802" y="290.999014" style="fill: #1f77b4; stroke: #000000; stroke-linejoin: miter"/>
     <use xlink:href="#mc6ec686938" x="113.58968" y="217.074677" style="fill: #1f77b4; stroke: #000000; stroke-linejoin: miter"/>
     <use xlink:href="#mc6ec686938" x="141.036321" y="159.951326" style="fill: #1f77b4; stroke: #000000; stroke-linejoin: miter"/>
    </g>
   </g>
   <g id="line2d_17">
    <path d="M 106.72802 237.23586 
L 113.58968 175.072213 
L 141.036321 95.267531 
" clip-path="url(#pdc6ea5b18d)" style="fill: none; stroke: #000000; stroke-linecap: square"/>
    <defs>
     <path id="mfa7fdd25c2" d="M -3 3 
L 3 3 
L 3 -3 
L -3 -3 
z
" style="stroke: #000000; stroke-linejoin: miter"/>
    </defs>
    <g clip-path="url(#pdc6ea5b18d)">
     <use xlink:href="#mfa7fdd25c2" x="106.72802" y="237.23586" style="stroke: #000000; stroke-linejoin: miter"/>
     <use xlink:href="#mfa7fdd25c2" x="113.58968" y="175.072213" style="stroke: #000000; stroke-linejoin: miter"/>
     <use xlink:href="#mfa7fdd25c2" x="141.036321" y="95.267531" style="stroke: #000000; stroke-linejoin: miter"/>
    </g>
   </g>
   <g id="line2d_18">
    <path d="M 106.72802 290.999014 
L 113.58968 217.074677 
L 141.036321 159.951326 
" clip-path="url(#pdc6ea5b18d)" style="fill: none; stroke-dasharray: 3.7,1.6; stroke-dashoffset: 0; stroke: #1f77b4"/>
    <defs>
     <path id="mab43c1dc61" d="M 3 0 
L -3 -3 
L -3 3 
z
" style="stroke: #000000; stroke-linejoin: miter"/>
    </defs>
    <g clip-path="url(#pdc6ea5b18d)">
     <use xlink:href="#mab43c1dc61" x="106.72802" y="290.999014" style="fill: #1f77b4; stroke: #000000; stroke-linejoin: miter"/>
     <use xlink:href="#mab43c1dc61" x="113.58968" y="217.074677" style="fill: #1f77b4; stroke: #000000; stroke-linejoin: miter"/>
     <use xlink:href="#mab43c1dc61" x="141.036321" y="159.951326" style="fill: #1f77b4; stroke: #000000; stroke-linejoin: miter"/>
    </g>
   </g>
   <g id="line2d_19">
    <path d="M 106.72802 213.71448 
L 113.58968 149.870734 
L 141.036321 86.026989 
" clip-path="url(#pdc6ea5b18d)" style="fill: none; stroke-dasharray: 3.7,1.6; stroke-dashoffset: 0; stroke: #000000"/>
    <defs>
     <path id="m5a94481785" d="M 3 0 
L -3 -3 
L -3 3 
z
" style="stroke: #000000; stroke-linejoin: miter"/>
    </defs>
    <g clip-path="url(#pdc6ea5b18d)">
     <use xlink:href="#m5a94481785" x="106.72802" y="213.71448" style="stroke: #000000; stroke-linejoin: miter"/>
     <use xlink:href="#m5a94481785" x="113.58968" y="149.870734" style="stroke: #000000; stroke-linejoin: miter"/>
     <use xlink:href="#m5a94481785" x="141.036321" y="86.026989" style="stroke: #000000; stroke-linejoin: miter"/>
    </g>
   </g>
   <g id="line2d_20">
    <path d="M 106.72802 180.112509 
L 113.58968 133.069749 
L 141.036321 99.467777 
" clip-path="url(#pdc6ea5b18d)" style="fill: none; stroke-dasharray: 3.7,1.6; stroke-dashoffset: 0; stroke: #000000"/>
    <defs>
     <path id="m3d1c738263" d="M 0 3 
C 0.795609 3 1.55874 2.683901 2.12132 2.12132 
C 2.683901 1.55874 3 0.795609 3 0 
C 3 -0.795609 2.683901 -1.55874 2.12132 -2.12132 
C 1.55874 -2.683901 0.795609 -3 0 -3 
C -0.795609 -3 -1.55874 -2.683901 -2.12132 -2.12132 
C -2.683901 -1.55874 -3 -0.795609 -3 0 
C -3 0.795609 -2.683901 1.55874 -2.12132 2.12132 
C -1.55874 2.683901 -0.795609 3 0 3 
z
" style="stroke: #000000"/>
    </defs>
    <g clip-path="url(#pdc6ea5b18d)">
     <use xlink:href="#m3d1c738263" x="106.72802" y="180.112509" style="stroke: #000000"/>
     <use xlink:href="#m3d1c738263" x="113.58968" y="133.069749" style="stroke: #000000"/>
     <use xlink:href="#m3d1c738263" x="141.036321" y="99.467777" style="stroke: #000000"/>
    </g>
   </g>
   <g id="line2d_21">
    <path d="M 106.72802 297.719409 
L 113.58968 240.596057 
L 141.036321 92.747383 
" clip-path="url(#pdc6ea5b18d)" style="fill: none; stroke-dasharray: 3.7,1.6; stroke-dashoffset: 0; stroke: #000000"/>
    <defs>
     <path id="m87356de51d" d="M 0 -3 
L -3 3 
L 3 3 
z
" style="stroke: #000000; stroke-linejoin: miter"/>
    </defs>
    <g clip-path="url(#pdc6ea5b18d)">
     <use xlink:href="#m87356de51d" x="106.72802" y="297.719409" style="stroke: #000000; stroke-linejoin: miter"/>
     <use xlink:href="#m87356de51d" x="113.58968" y="240.596057" style="stroke: #000000; stroke-linejoin: miter"/>
     <use xlink:href="#m87356de51d" x="141.036321" y="92.747383" style="stroke: #000000; stroke-linejoin: miter"/>
    </g>
   </g>
   <g id="line2d_22">
    <path d="M 106.72802 257.397043 
L 113.58968 176.752312 
L 141.036321 102.827975 
" clip-path="url(#pdc6ea5b18d)" style="fill: none; stroke-dasharray: 3.7,1.6; stroke-dashoffset: 0; stroke: #000000"/>
    <defs>
     <path id="mdd6db0e90a" d="M 0 -3 
L -0.673542 -0.927051 
L -2.85317 -0.927051 
L -1.089814 0.354102 
L -1.763356 2.427051 
L -0 1.145898 
L 1.763356 2.427051 
L 1.089814 0.354102 
L 2.85317 -0.927051 
L 0.673542 -0.927051 
z
" style="stroke: #000000; stroke-linejoin: bevel"/>
    </defs>
    <g clip-path="url(#pdc6ea5b18d)">
     <use xlink:href="#mdd6db0e90a" x="106.72802" y="257.397043" style="stroke: #000000; stroke-linejoin: bevel"/>
     <use xlink:href="#mdd6db0e90a" x="113.58968" y="176.752312" style="stroke: #000000; stroke-linejoin: bevel"/>
     <use xlink:href="#mdd6db0e90a" x="141.036321" y="102.827975" style="stroke: #000000; stroke-linejoin: bevel"/>
    </g>
   </g>
   <g id="patch_3">
    <path d="M 84.427625 320.4 
L 84.427625 43.2 
" style="fill: none; stroke: #000000; stroke-width: 0.8; stroke-linejoin: miter; stroke-linecap: square"/>
   </g>
   <g id="patch_4">
    <path d="M 424.079799 320.4 
L 424.079799 43.2 
" style="fill: none; stroke: #000000; stroke-width: 0.8; stroke-linejoin: miter; stroke-linecap: square"/>
   </g>
   <g id="patch_5">
    <path d="M 84.427625 320.4 
L 424.079799 320.4 
" style="fill: none; stroke: #000000; stroke-width: 0.8; stroke-linejoin: miter; stroke-linecap: square"/>
   </g>
   <g id="patch_6">
    <path d="M 84.427625 43.2 
L 424.079799 43.2 
" style="fill: none; stroke: #000000; stroke-width: 0.8; stroke-linejoin: miter; stroke-linecap: square"/>
   </g>
   <g id="legend_1">
    <g id="patch_7">
     <path d="M 258.373549 315.4 
L 417.079799 315.4 
Q 419.079799 315.4 419.079799 313.4 
L 419.079799 152.940625 
Q 419.079799 150.940625 417.079799 150.940625 
L 258.373549 150.940625 
Q 256.373549 150.940625 256.373549 152.940625 
L 256.373549 313.4 
Q 256.373549 315.4 258.373549 315.4 
z
" style="fill: #ffffff; opacity: 0.8; stroke: #cccccc; stroke-linejoin: miter"/>
    </g>
    <g id="line2d_23">
     <path d="M 260.373549 159.039062 
L 280.373549 159.039062 
" style="fill: none; stroke: #74a9cf; stroke-width: 2; stroke-linecap: square"/>
    </g>
    <g id="line2d_24"/>
    <g id="text_14">
     <!-- Sim po hepatic mild -->
     <g transform="translate(288.373549 162.539062) scale(0.1 -0.1)">
      <defs>
       <path id="DejaVuSans-53" d="M 3425 4513 
L 3425 3897 
Q 3066 4069 2747 4153 
Q 2428 4238 2131 4238 
Q 1616 4238 1336 4038 
Q 1056 3838 1056 3469 
Q 1056 3159 1242 3001 
Q 1428 2844 1947 2747 
L 2328 2669 
Q 3034 2534 3370 2195 
Q 3706 1856 3706 1288 
Q 3706 609 3251 259 
Q 2797 -91 1919 -91 
Q 1588 -91 1214 -16 
Q 841 59 441 206 
L 441 856 
Q 825 641 1194 531 
Q 1563 422 1919 422 
Q 2459 422 2753 634 
Q 3047 847 3047 1241 
Q 3047 1584 2836 1778 
Q 2625 1972 2144 2069 
L 1759 2144 
Q 1053 2284 737 2584 
Q 422 2884 422 3419 
Q 422 4038 858 4394 
Q 1294 4750 2059 4750 
Q 2388 4750 2728 4690 
Q 3069 4631 3425 4513 
z
" transform="scale(0.015625)"/>
       <path id="DejaVuSans-69" d="M 603 3500 
L 1178 3500 
L 1178 0 
L 603 0 
L 603 3500 
z
M 603 4863 
L 1178 4863 
L 1178 4134 
L 603 4134 
L 603 4863 
z
" transform="scale(0.015625)"/>
       <path id="DejaVuSans-6d" d="M 3328 2828 
Q 3544 3216 3844 3400 
Q 4144 3584 4550 3584 
Q 5097 3584 5394 3201 
Q 5691 2819 5691 2113 
L 5691 0 
L 5113 0 
L 5113 2094 
Q 5113 2597 4934 2840 
Q 4756 3084 4391 3084 
Q 3944 3084 3684 2787 
Q 3425 2491 3425 1978 
L 3425 0 
L 2847 0 
L 2847 2094 
Q 2847 2600 2669 2842 
Q 2491 3084 2119 3084 
Q 1678 3084 1418 2786 
Q 1159 2488 1159 1978 
L 1159 0 
L 581 0 
L 581 3500 
L 1159 3500 
L 1159 2956 
Q 1356 3278 1631 3431 
Q 1906 3584 2284 3584 
Q 2666 3584 2933 3390 
Q 3200 3197 3328 2828 
z
" transform="scale(0.015625)"/>
       <path id="DejaVuSans-20" transform="scale(0.015625)"/>
       <path id="DejaVuSans-70" d="M 1159 525 
L 1159 -1331 
L 581 -1331 
L 581 3500 
L 1159 3500 
L 1159 2969 
Q 1341 3281 1617 3432 
Q 1894 3584 2278 3584 
Q 2916 3584 3314 3078 
Q 3713 2572 3713 1747 
Q 3713 922 3314 415 
Q 2916 -91 2278 -91 
Q 1894 -91 1617 61 
Q 1341 213 1159 525 
z
M 3116 1747 
Q 3116 2381 2855 2742 
Q 2594 3103 2138 3103 
Q 1681 3103 1420 2742 
Q 1159 2381 1159 1747 
Q 1159 1113 1420 752 
Q 1681 391 2138 391 
Q 2594 391 2855 752 
Q 3116 1113 3116 1747 
z
" transform="scale(0.015625)"/>
       <path id="DejaVuSans-6f" d="M 1959 3097 
Q 1497 3097 1228 2736 
Q 959 2375 959 1747 
Q 959 1119 1226 758 
Q 1494 397 1959 397 
Q 2419 397 2687 759 
Q 2956 1122 2956 1747 
Q 2956 2369 2687 2733 
Q 2419 3097 1959 3097 
z
M 1959 3584 
Q 2709 3584 3137 3096 
Q 3566 2609 3566 1747 
Q 3566 888 3137 398 
Q 2709 -91 1959 -91 
Q 1206 -91 779 398 
Q 353 888 353 1747 
Q 353 2609 779 3096 
Q 1206 3584 1959 3584 
z
" transform="scale(0.015625)"/>
       <path id="DejaVuSans-68" d="M 3513 2113 
L 3513 0 
L 2938 0 
L 2938 2094 
Q 2938 2591 2744 2837 
Q 2550 3084 2163 3084 
Q 1697 3084 1428 2787 
Q 1159 2491 1159 1978 
L 1159 0 
L 581 0 
L 581 4863 
L 1159 4863 
L 1159 2956 
Q 1366 3272 1645 3428 
Q 1925 3584 2291 3584 
Q 2894 3584 3203 3211 
Q 3513 2838 3513 2113 
z
" transform="scale(0.015625)"/>
       <path id="DejaVuSans-65" d="M 3597 1894 
L 3597 1613 
L 953 1613 
Q 991 1019 1311 708 
Q 1631 397 2203 397 
Q 2534 397 2845 478 
Q 3156 559 3463 722 
L 3463 178 
Q 3153 47 2828 -22 
Q 2503 -91 2169 -91 
Q 1331 -91 842 396 
Q 353 884 353 1716 
Q 353 2575 817 3079 
Q 1281 3584 2069 3584 
Q 2775 3584 3186 3129 
Q 3597 2675 3597 1894 
z
M 3022 2063 
Q 3016 2534 2758 2815 
Q 2500 3097 2075 3097 
Q 1594 3097 1305 2825 
Q 1016 2553 972 2059 
L 3022 2063 
z
" transform="scale(0.015625)"/>
       <path id="DejaVuSans-61" d="M 2194 1759 
Q 1497 1759 1228 1600 
Q 959 1441 959 1056 
Q 959 750 1161 570 
Q 1363 391 1709 391 
Q 2188 391 2477 730 
Q 2766 1069 2766 1631 
L 2766 1759 
L 2194 1759 
z
M 3341 1997 
L 3341 0 
L 2766 0 
L 2766 531 
Q 2569 213 2275 61 
Q 1981 -91 1556 -91 
Q 1019 -91 701 211 
Q 384 513 384 1019 
Q 384 1609 779 1909 
Q 1175 2209 1959 2209 
L 2766 2209 
L 2766 2266 
Q 2766 2663 2505 2880 
Q 2244 3097 1772 3097 
Q 1472 3097 1187 3025 
Q 903 2953 641 2809 
L 641 3341 
Q 956 3463 1253 3523 
Q 1550 3584 1831 3584 
Q 2591 3584 2966 3190 
Q 3341 2797 3341 1997 
z
" transform="scale(0.015625)"/>
       <path id="DejaVuSans-74" d="M 1172 4494 
L 1172 3500 
L 2356 3500 
L 2356 3053 
L 1172 3053 
L 1172 1153 
Q 1172 725 1289 603 
Q 1406 481 1766 481 
L 2356 481 
L 2356 0 
L 1766 0 
Q 1100 0 847 248 
Q 594 497 594 1153 
L 594 3053 
L 172 3053 
L 172 3500 
L 594 3500 
L 594 4494 
L 1172 4494 
z
" transform="scale(0.015625)"/>
       <path id="DejaVuSans-63" d="M 3122 3366 
L 3122 2828 
Q 2878 2963 2633 3030 
Q 2388 3097 2138 3097 
Q 1578 3097 1268 2742 
Q 959 2388 959 1747 
Q 959 1106 1268 751 
Q 1578 397 2138 397 
Q 2388 397 2633 464 
Q 2878 531 3122 666 
L 3122 134 
Q 2881 22 2623 -34 
Q 2366 -91 2075 -91 
Q 1284 -91 818 406 
Q 353 903 353 1747 
Q 353 2603 823 3093 
Q 1294 3584 2113 3584 
Q 2378 3584 2631 3529 
Q 2884 3475 3122 3366 
z
" transform="scale(0.015625)"/>
       <path id="DejaVuSans-6c" d="M 603 4863 
L 1178 4863 
L 1178 0 
L 603 0 
L 603 4863 
z
" transform="scale(0.015625)"/>
       <path id="DejaVuSans-64" d="M 2906 2969 
L 2906 4863 
L 3481 4863 
L 3481 0 
L 2906 0 
L 2906 525 
Q 2725 213 2448 61 
Q 2172 -91 1784 -91 
Q 1150 -91 751 415 
Q 353 922 353 1747 
Q 353 2572 751 3078 
Q 1150 3584 1784 3584 
Q 2172 3584 2448 3432 
Q 2725 3281 2906 2969 
z
M 947 1747 
Q 947 1113 1208 752 
Q 1469 391 1925 391 
Q 2381 391 2643 752 
Q 2906 1113 2906 1747 
Q 2906 2381 2643 2742 
Q 2381 3103 1925 3103 
Q 1469 3103 1208 2742 
Q 947 2381 947 1747 
z
" transform="scale(0.015625)"/>
      </defs>
      <use xlink:href="#DejaVuSans-53"/>
      <use xlink:href="#DejaVuSans-69" transform="translate(63.476562 0)"/>
      <use xlink:href="#DejaVuSans-6d" transform="translate(91.259766 0)"/>
      <use xlink:href="#DejaVuSans-20" transform="translate(188.671875 0)"/>
      <use xlink:href="#DejaVuSans-70" transform="translate(220.458984 0)"/>
      <use xlink:href="#DejaVuSans-6f" transform="translate(283.935547 0)"/>
      <use xlink:href="#DejaVuSans-20" transform="translate(345.117188 0)"/>
      <use xlink:href="#DejaVuSans-68" transform="translate(376.904297 0)"/>
      <use xlink:href="#DejaVuSans-65" transform="translate(440.283203 0)"/>
      <use xlink:href="#DejaVuSans-70" transform="translate(501.806641 0)"/>
      <use xlink:href="#DejaVuSans-61" transform="translate(565.283203 0)"/>
      <use xlink:href="#DejaVuSans-74" transform="translate(626.5625 0)"/>
      <use xlink:href="#DejaVuSans-69" transform="translate(665.771484 0)"/>
      <use xlink:href="#DejaVuSans-63" transform="translate(693.554688 0)"/>
      <use xlink:href="#DejaVuSans-20" transform="translate(748.535156 0)"/>
      <use xlink:href="#DejaVuSans-6d" transform="translate(780.322266 0)"/>
      <use xlink:href="#DejaVuSans-69" transform="translate(877.734375 0)"/>
      <use xlink:href="#DejaVuSans-6c" transform="translate(905.517578 0)"/>
      <use xlink:href="#DejaVuSans-64" transform="translate(933.300781 0)"/>
     </g>
    </g>
    <g id="line2d_25">
     <path d="M 260.373549 173.717188 
L 280.373549 173.717188 
" style="fill: none; stroke: #2b8cbe; stroke-width: 2; stroke-linecap: square"/>
    </g>
    <g id="line2d_26"/>
    <g id="text_15">
     <!-- Sim po hepatic moderate -->
     <g transform="translate(288.373549 177.217188) scale(0.1 -0.1)">
      <defs>
       <path id="DejaVuSans-72" d="M 2631 2963 
Q 2534 3019 2420 3045 
Q 2306 3072 2169 3072 
Q 1681 3072 1420 2755 
Q 1159 2438 1159 1844 
L 1159 0 
L 581 0 
L 581 3500 
L 1159 3500 
L 1159 2956 
Q 1341 3275 1631 3429 
Q 1922 3584 2338 3584 
Q 2397 3584 2469 3576 
Q 2541 3569 2628 3553 
L 2631 2963 
z
" transform="scale(0.015625)"/>
      </defs>
      <use xlink:href="#DejaVuSans-53"/>
      <use xlink:href="#DejaVuSans-69" transform="translate(63.476562 0)"/>
      <use xlink:href="#DejaVuSans-6d" transform="translate(91.259766 0)"/>
      <use xlink:href="#DejaVuSans-20" transform="translate(188.671875 0)"/>
      <use xlink:href="#DejaVuSans-70" transform="translate(220.458984 0)"/>
      <use xlink:href="#DejaVuSans-6f" transform="translate(283.935547 0)"/>
      <use xlink:href="#DejaVuSans-20" transform="translate(345.117188 0)"/>
      <use xlink:href="#DejaVuSans-68" transform="translate(376.904297 0)"/>
      <use xlink:href="#DejaVuSans-65" transform="translate(440.283203 0)"/>
      <use xlink:href="#DejaVuSans-70" transform="translate(501.806641 0)"/>
      <use xlink:href="#DejaVuSans-61" transform="translate(565.283203 0)"/>
      <use xlink:href="#DejaVuSans-74" transform="translate(626.5625 0)"/>
      <use xlink:href="#DejaVuSans-69" transform="translate(665.771484 0)"/>
      <use xlink:href="#DejaVuSans-63" transform="translate(693.554688 0)"/>
      <use xlink:href="#DejaVuSans-20" transform="translate(748.535156 0)"/>
      <use xlink:href="#DejaVuSans-6d" transform="translate(780.322266 0)"/>
      <use xlink:href="#DejaVuSans-6f" transform="translate(877.734375 0)"/>
      <use xlink:href="#DejaVuSans-64" transform="translate(938.916016 0)"/>
      <use xlink:href="#DejaVuSans-65" transform="translate(1002.392578 0)"/>
      <use xlink:href="#DejaVuSans-72" transform="translate(1063.916016 0)"/>
      <use xlink:href="#DejaVuSans-61" transform="translate(1105.029297 0)"/>
      <use xlink:href="#DejaVuSans-74" transform="translate(1166.308594 0)"/>
      <use xlink:href="#DejaVuSans-65" transform="translate(1205.517578 0)"/>
     </g>
    </g>
    <g id="line2d_27">
     <path d="M 260.373549 188.395313 
L 280.373549 188.395313 
" style="fill: none; stroke: #045a8d; stroke-width: 2; stroke-linecap: square"/>
    </g>
    <g id="line2d_28"/>
    <g id="text_16">
     <!-- Sim po hepatic severe -->
     <g transform="translate(288.373549 191.895313) scale(0.1 -0.1)">
      <defs>
       <path id="DejaVuSans-73" d="M 2834 3397 
L 2834 2853 
Q 2591 2978 2328 3040 
Q 2066 3103 1784 3103 
Q 1356 3103 1142 2972 
Q 928 2841 928 2578 
Q 928 2378 1081 2264 
Q 1234 2150 1697 2047 
L 1894 2003 
Q 2506 1872 2764 1633 
Q 3022 1394 3022 966 
Q 3022 478 2636 193 
Q 2250 -91 1575 -91 
Q 1294 -91 989 -36 
Q 684 19 347 128 
L 347 722 
Q 666 556 975 473 
Q 1284 391 1588 391 
Q 1994 391 2212 530 
Q 2431 669 2431 922 
Q 2431 1156 2273 1281 
Q 2116 1406 1581 1522 
L 1381 1569 
Q 847 1681 609 1914 
Q 372 2147 372 2553 
Q 372 3047 722 3315 
Q 1072 3584 1716 3584 
Q 2034 3584 2315 3537 
Q 2597 3491 2834 3397 
z
" transform="scale(0.015625)"/>
       <path id="DejaVuSans-76" d="M 191 3500 
L 800 3500 
L 1894 563 
L 2988 3500 
L 3597 3500 
L 2284 0 
L 1503 0 
L 191 3500 
z
" transform="scale(0.015625)"/>
      </defs>
      <use xlink:href="#DejaVuSans-53"/>
      <use xlink:href="#DejaVuSans-69" transform="translate(63.476562 0)"/>
      <use xlink:href="#DejaVuSans-6d" transform="translate(91.259766 0)"/>
      <use xlink:href="#DejaVuSans-20" transform="translate(188.671875 0)"/>
      <use xlink:href="#DejaVuSans-70" transform="translate(220.458984 0)"/>
      <use xlink:href="#DejaVuSans-6f" transform="translate(283.935547 0)"/>
      <use xlink:href="#DejaVuSans-20" transform="translate(345.117188 0)"/>
      <use xlink:href="#DejaVuSans-68" transform="translate(376.904297 0)"/>
      <use xlink:href="#DejaVuSans-65" transform="translate(440.283203 0)"/>
      <use xlink:href="#DejaVuSans-70" transform="translate(501.806641 0)"/>
      <use xlink:href="#DejaVuSans-61" transform="translate(565.283203 0)"/>
      <use xlink:href="#DejaVuSans-74" transform="translate(626.5625 0)"/>
      <use xlink:href="#DejaVuSans-69" transform="translate(665.771484 0)"/>
      <use xlink:href="#DejaVuSans-63" transform="translate(693.554688 0)"/>
      <use xlink:href="#DejaVuSans-20" transform="translate(748.535156 0)"/>
      <use xlink:href="#DejaVuSans-73" transform="translate(780.322266 0)"/>
      <use xlink:href="#DejaVuSans-65" transform="translate(832.421875 0)"/>
      <use xlink:href="#DejaVuSans-76" transform="translate(893.945312 0)"/>
      <use xlink:href="#DejaVuSans-65" transform="translate(953.125 0)"/>
      <use xlink:href="#DejaVuSans-72" transform="translate(1014.648438 0)"/>
      <use xlink:href="#DejaVuSans-65" transform="translate(1053.511719 0)"/>
     </g>
    </g>
    <g id="line2d_29">
     <path d="M 260.373549 203.073438 
L 280.373549 203.073438 
" style="fill: none; stroke: #000000; stroke-width: 2; stroke-linecap: square"/>
    </g>
    <g id="line2d_30"/>
    <g id="text_17">
     <!-- Sim po control -->
     <g transform="translate(288.373549 206.573438) scale(0.1 -0.1)">
      <defs>
       <path id="DejaVuSans-6e" d="M 3513 2113 
L 3513 0 
L 2938 0 
L 2938 2094 
Q 2938 2591 2744 2837 
Q 2550 3084 2163 3084 
Q 1697 3084 1428 2787 
Q 1159 2491 1159 1978 
L 1159 0 
L 581 0 
L 581 3500 
L 1159 3500 
L 1159 2956 
Q 1366 3272 1645 3428 
Q 1925 3584 2291 3584 
Q 2894 3584 3203 3211 
Q 3513 2838 3513 2113 
z
" transform="scale(0.015625)"/>
      </defs>
      <use xlink:href="#DejaVuSans-53"/>
      <use xlink:href="#DejaVuSans-69" transform="translate(63.476562 0)"/>
      <use xlink:href="#DejaVuSans-6d" transform="translate(91.259766 0)"/>
      <use xlink:href="#DejaVuSans-20" transform="translate(188.671875 0)"/>
      <use xlink:href="#DejaVuSans-70" transform="translate(220.458984 0)"/>
      <use xlink:href="#DejaVuSans-6f" transform="translate(283.935547 0)"/>
      <use xlink:href="#DejaVuSans-20" transform="translate(345.117188 0)"/>
      <use xlink:href="#DejaVuSans-63" transform="translate(376.904297 0)"/>
      <use xlink:href="#DejaVuSans-6f" transform="translate(431.884766 0)"/>
      <use xlink:href="#DejaVuSans-6e" transform="translate(493.066406 0)"/>
      <use xlink:href="#DejaVuSans-74" transform="translate(556.445312 0)"/>
      <use xlink:href="#DejaVuSans-72" transform="translate(595.654297 0)"/>
      <use xlink:href="#DejaVuSans-6f" transform="translate(634.517578 0)"/>
      <use xlink:href="#DejaVuSans-6c" transform="translate(695.699219 0)"/>
     </g>
    </g>
    <g id="LineCollection_3">
     <path d="M 270.373549 222.751563 
L 270.373549 212.751563 
" style="fill: none; stroke: #1f77b4"/>
    </g>
    <g id="line2d_31">
     <path d="M 260.373549 217.751563 
L 280.373549 217.751563 
" style="fill: none; stroke: #1f77b4; stroke-linecap: square"/>
    </g>
    <g id="line2d_32">
     <g>
      <use xlink:href="#mc6ec686938" x="270.373549" y="217.751563" style="fill: #1f77b4; stroke: #000000; stroke-linejoin: miter"/>
     </g>
    </g>
    <g id="text_18">
     <!-- hepatic±SD -->
     <g transform="translate(288.373549 221.251563) scale(0.1 -0.1)">
      <defs>
       <path id="DejaVuSans-b1" d="M 2944 4013 
L 2944 2803 
L 4684 2803 
L 4684 2272 
L 2944 2272 
L 2944 1063 
L 2419 1063 
L 2419 2272 
L 678 2272 
L 678 2803 
L 2419 2803 
L 2419 4013 
L 2944 4013 
z
M 678 531 
L 4684 531 
L 4684 0 
L 678 0 
L 678 531 
z
" transform="scale(0.015625)"/>
       <path id="DejaVuSans-44" d="M 1259 4147 
L 1259 519 
L 2022 519 
Q 2988 519 3436 956 
Q 3884 1394 3884 2338 
Q 3884 3275 3436 3711 
Q 2988 4147 2022 4147 
L 1259 4147 
z
M 628 4666 
L 1925 4666 
Q 3281 4666 3915 4102 
Q 4550 3538 4550 2338 
Q 4550 1131 3912 565 
Q 3275 0 1925 0 
L 628 0 
L 628 4666 
z
" transform="scale(0.015625)"/>
      </defs>
      <use xlink:href="#DejaVuSans-68"/>
      <use xlink:href="#DejaVuSans-65" transform="translate(63.378906 0)"/>
      <use xlink:href="#DejaVuSans-70" transform="translate(124.902344 0)"/>
      <use xlink:href="#DejaVuSans-61" transform="translate(188.378906 0)"/>
      <use xlink:href="#DejaVuSans-74" transform="translate(249.658203 0)"/>
      <use xlink:href="#DejaVuSans-69" transform="translate(288.867188 0)"/>
      <use xlink:href="#DejaVuSans-63" transform="translate(316.650391 0)"/>
      <use xlink:href="#DejaVuSans-b1" transform="translate(371.630859 0)"/>
      <use xlink:href="#DejaVuSans-53" transform="translate(455.419922 0)"/>
      <use xlink:href="#DejaVuSans-44" transform="translate(518.896484 0)"/>
     </g>
    </g>
    <g id="LineCollection_4">
     <path d="M 270.373549 237.429688 
L 270.373549 227.429688 
" style="fill: none; stroke: #000000"/>
    </g>
    <g id="line2d_33">
     <path d="M 260.373549 232.429688 
L 280.373549 232.429688 
" style="fill: none; stroke: #000000; stroke-linecap: square"/>
    </g>
    <g id="line2d_34">
     <g>
      <use xlink:href="#mfa7fdd25c2" x="270.373549" y="232.429688" style="stroke: #000000; stroke-linejoin: miter"/>
     </g>
    </g>
    <g id="text_19">
     <!-- control±SD -->
     <g transform="translate(288.373549 235.929688) scale(0.1 -0.1)">
      <use xlink:href="#DejaVuSans-63"/>
      <use xlink:href="#DejaVuSans-6f" transform="translate(54.980469 0)"/>
      <use xlink:href="#DejaVuSans-6e" transform="translate(116.162109 0)"/>
      <use xlink:href="#DejaVuSans-74" transform="translate(179.541016 0)"/>
      <use xlink:href="#DejaVuSans-72" transform="translate(218.75 0)"/>
      <use xlink:href="#DejaVuSans-6f" transform="translate(257.613281 0)"/>
      <use xlink:href="#DejaVuSans-6c" transform="translate(318.794922 0)"/>
      <use xlink:href="#DejaVuSans-b1" transform="translate(346.578125 0)"/>
      <use xlink:href="#DejaVuSans-53" transform="translate(430.367188 0)"/>
      <use xlink:href="#DejaVuSans-44" transform="translate(493.84375 0)"/>
     </g>
    </g>
    <g id="line2d_35">
     <path d="M 260.373549 247.107813 
L 280.373549 247.107813 
" style="fill: none; stroke-dasharray: 3.7,1.6; stroke-dashoffset: 0; stroke: #1f77b4"/>
    </g>
    <g id="line2d_36">
     <g>
      <use xlink:href="#mab43c1dc61" x="270.373549" y="247.107813" style="fill: #1f77b4; stroke: #000000; stroke-linejoin: miter"/>
     </g>
    </g>
    <g id="text_20">
     <!-- 12 -->
     <g transform="translate(288.373549 250.607813) scale(0.1 -0.1)">
      <use xlink:href="#DejaVuSans-31"/>
      <use xlink:href="#DejaVuSans-32" transform="translate(63.623047 0)"/>
     </g>
    </g>
    <g id="line2d_37">
     <path d="M 260.373549 261.785937 
L 280.373549 261.785937 
" style="fill: none; stroke-dasharray: 3.7,1.6; stroke-dashoffset: 0; stroke: #000000"/>
    </g>
    <g id="line2d_38">
     <g>
      <use xlink:href="#m5a94481785" x="270.373549" y="261.785937" style="stroke: #000000; stroke-linejoin: miter"/>
     </g>
    </g>
    <g id="text_21">
     <!-- 1 -->
     <g transform="translate(288.373549 265.285937) scale(0.1 -0.1)">
      <use xlink:href="#DejaVuSans-31"/>
     </g>
    </g>
    <g id="line2d_39">
     <path d="M 260.373549 276.464063 
L 280.373549 276.464063 
" style="fill: none; stroke-dasharray: 3.7,1.6; stroke-dashoffset: 0; stroke: #000000"/>
    </g>
    <g id="line2d_40">
     <g>
      <use xlink:href="#m3d1c738263" x="270.373549" y="276.464063" style="stroke: #000000"/>
     </g>
    </g>
    <g id="text_22">
     <!-- 3 -->
     <g transform="translate(288.373549 279.964063) scale(0.1 -0.1)">
      <defs>
       <path id="DejaVuSans-33" d="M 2597 2516 
Q 3050 2419 3304 2112 
Q 3559 1806 3559 1356 
Q 3559 666 3084 287 
Q 2609 -91 1734 -91 
Q 1441 -91 1130 -33 
Q 819 25 488 141 
L 488 750 
Q 750 597 1062 519 
Q 1375 441 1716 441 
Q 2309 441 2620 675 
Q 2931 909 2931 1356 
Q 2931 1769 2642 2001 
Q 2353 2234 1838 2234 
L 1294 2234 
L 1294 2753 
L 1863 2753 
Q 2328 2753 2575 2939 
Q 2822 3125 2822 3475 
Q 2822 3834 2567 4026 
Q 2313 4219 1838 4219 
Q 1578 4219 1281 4162 
Q 984 4106 628 3988 
L 628 4550 
Q 988 4650 1302 4700 
Q 1616 4750 1894 4750 
Q 2613 4750 3031 4423 
Q 3450 4097 3450 3541 
Q 3450 3153 3228 2886 
Q 3006 2619 2597 2516 
z
" transform="scale(0.015625)"/>
      </defs>
      <use xlink:href="#DejaVuSans-33"/>
     </g>
    </g>
    <g id="line2d_41">
     <path d="M 260.373549 291.142187 
L 280.373549 291.142187 
" style="fill: none; stroke-dasharray: 3.7,1.6; stroke-dashoffset: 0; stroke: #000000"/>
    </g>
    <g id="line2d_42">
     <g>
      <use xlink:href="#m87356de51d" x="270.373549" y="291.142187" style="stroke: #000000; stroke-linejoin: miter"/>
     </g>
    </g>
    <g id="text_23">
     <!-- 4 -->
     <g transform="translate(288.373549 294.642187) scale(0.1 -0.1)">
      <use xlink:href="#DejaVuSans-34"/>
     </g>
    </g>
    <g id="line2d_43">
     <path d="M 260.373549 305.820312 
L 280.373549 305.820312 
" style="fill: none; stroke-dasharray: 3.7,1.6; stroke-dashoffset: 0; stroke: #000000"/>
    </g>
    <g id="line2d_44">
     <g>
      <use xlink:href="#mdd6db0e90a" x="270.373549" y="305.820312" style="stroke: #000000; stroke-linejoin: bevel"/>
     </g>
    </g>
    <g id="text_24">
     <!-- 5 -->
     <g transform="translate(288.373549 309.320312) scale(0.1 -0.1)">
      <use xlink:href="#DejaVuSans-35"/>
     </g>
    </g>
   </g>
  </g>
  <g id="axes_2">
   <g id="patch_8">
    <path d="M 525.975451 320.4 
L 865.627625 320.4 
L 865.627625 43.2 
L 525.975451 43.2 
z
" style="fill: #ffffff"/>
   </g>
   <g id="matplotlib.axis_3">
    <g id="xtick_5">
     <g id="line2d_45">
      <g>
       <use xlink:href="#m86ca552669" x="541.414186" y="320.4" style="stroke: #000000; stroke-width: 0.8"/>
      </g>
     </g>
     <g id="text_25">
      <!-- 0 -->
      <g transform="translate(536.642311 338.797656) scale(0.15 -0.15)">
       <use xlink:href="#DejaVuSans-30"/>
      </g>
     </g>
    </g>
    <g id="xtick_6">
     <g id="line2d_46">
      <g>
       <use xlink:href="#m86ca552669" x="627.184937" y="320.4" style="stroke: #000000; stroke-width: 0.8"/>
      </g>
     </g>
     <g id="text_26">
      <!-- 50 -->
      <g transform="translate(617.641187 338.797656) scale(0.15 -0.15)">
       <use xlink:href="#DejaVuSans-35"/>
       <use xlink:href="#DejaVuSans-30" transform="translate(63.623047 0)"/>
      </g>
     </g>
    </g>
    <g id="xtick_7">
     <g id="line2d_47">
      <g>
       <use xlink:href="#m86ca552669" x="712.955688" y="320.4" style="stroke: #000000; stroke-width: 0.8"/>
      </g>
     </g>
     <g id="text_27">
      <!-- 100 -->
      <g transform="translate(698.640063 338.797656) scale(0.15 -0.15)">
       <use xlink:href="#DejaVuSans-31"/>
       <use xlink:href="#DejaVuSans-30" transform="translate(63.623047 0)"/>
       <use xlink:href="#DejaVuSans-30" transform="translate(127.246094 0)"/>
      </g>
     </g>
    </g>
    <g id="xtick_8">
     <g id="line2d_48">
      <g>
       <use xlink:href="#m86ca552669" x="798.726439" y="320.4" style="stroke: #000000; stroke-width: 0.8"/>
      </g>
     </g>
     <g id="text_28">
      <!-- 150 -->
      <g transform="translate(784.410814 338.797656) scale(0.15 -0.15)">
       <use xlink:href="#DejaVuSans-31"/>
       <use xlink:href="#DejaVuSans-35" transform="translate(63.623047 0)"/>
       <use xlink:href="#DejaVuSans-30" transform="translate(127.246094 0)"/>
      </g>
     </g>
    </g>
    <g id="text_29">
     <!-- time [hr] -->
     <g transform="translate(650.727007 359.594375) scale(0.18 -0.18)">
      <use xlink:href="#DejaVuSans-Bold-74"/>
      <use xlink:href="#DejaVuSans-Bold-69" transform="translate(47.802734 0)"/>
      <use xlink:href="#DejaVuSans-Bold-6d" transform="translate(82.080078 0)"/>
      <use xlink:href="#DejaVuSans-Bold-65" transform="translate(186.279297 0)"/>
      <use xlink:href="#DejaVuSans-Bold-20" transform="translate(254.101562 0)"/>
      <use xlink:href="#DejaVuSans-Bold-5b" transform="translate(288.916016 0)"/>
      <use xlink:href="#DejaVuSans-Bold-68" transform="translate(334.619141 0)"/>
      <use xlink:href="#DejaVuSans-Bold-72" transform="translate(405.810547 0)"/>
      <use xlink:href="#DejaVuSans-Bold-5d" transform="translate(455.126953 0)"/>
     </g>
    </g>
   </g>
   <g id="matplotlib.axis_4">
    <g id="ytick_8">
     <g id="line2d_49">
      <g>
       <use xlink:href="#m568276e23c" x="525.975451" y="307.8" style="stroke: #000000; stroke-width: 0.8"/>
      </g>
     </g>
     <g id="text_30">
      <!-- 0 -->
      <g transform="translate(509.431701 313.498828) scale(0.15 -0.15)">
       <use xlink:href="#DejaVuSans-30"/>
      </g>
     </g>
    </g>
    <g id="ytick_9">
     <g id="line2d_50">
      <g>
       <use xlink:href="#m568276e23c" x="525.975451" y="270.2898" style="stroke: #000000; stroke-width: 0.8"/>
      </g>
     </g>
     <g id="text_31">
      <!-- 25 -->
      <g transform="translate(499.887951 275.988628) scale(0.15 -0.15)">
       <use xlink:href="#DejaVuSans-32"/>
       <use xlink:href="#DejaVuSans-35" transform="translate(63.623047 0)"/>
      </g>
     </g>
    </g>
    <g id="ytick_10">
     <g id="line2d_51">
      <g>
       <use xlink:href="#m568276e23c" x="525.975451" y="232.7796" style="stroke: #000000; stroke-width: 0.8"/>
      </g>
     </g>
     <g id="text_32">
      <!-- 50 -->
      <g transform="translate(499.887951 238.478428) scale(0.15 -0.15)">
       <use xlink:href="#DejaVuSans-35"/>
       <use xlink:href="#DejaVuSans-30" transform="translate(63.623047 0)"/>
      </g>
     </g>
    </g>
    <g id="ytick_11">
     <g id="line2d_52">
      <g>
       <use xlink:href="#m568276e23c" x="525.975451" y="195.2694" style="stroke: #000000; stroke-width: 0.8"/>
      </g>
     </g>
     <g id="text_33">
      <!-- 75 -->
      <g transform="translate(499.887951 200.968228) scale(0.15 -0.15)">
       <defs>
        <path id="DejaVuSans-37" d="M 525 4666 
L 3525 4666 
L 3525 4397 
L 1831 0 
L 1172 0 
L 2766 4134 
L 525 4134 
L 525 4666 
z
" transform="scale(0.015625)"/>
       </defs>
       <use xlink:href="#DejaVuSans-37"/>
       <use xlink:href="#DejaVuSans-35" transform="translate(63.623047 0)"/>
      </g>
     </g>
    </g>
    <g id="ytick_12">
     <g id="line2d_53">
      <g>
       <use xlink:href="#m568276e23c" x="525.975451" y="157.7592" style="stroke: #000000; stroke-width: 0.8"/>
      </g>
     </g>
     <g id="text_34">
      <!-- 100 -->
      <g transform="translate(490.344201 163.458028) scale(0.15 -0.15)">
       <use xlink:href="#DejaVuSans-31"/>
       <use xlink:href="#DejaVuSans-30" transform="translate(63.623047 0)"/>
       <use xlink:href="#DejaVuSans-30" transform="translate(127.246094 0)"/>
      </g>
     </g>
    </g>
    <g id="ytick_13">
     <g id="line2d_54">
      <g>
       <use xlink:href="#m568276e23c" x="525.975451" y="120.249" style="stroke: #000000; stroke-width: 0.8"/>
      </g>
     </g>
     <g id="text_35">
      <!-- 125 -->
      <g transform="translate(490.344201 125.947828) scale(0.15 -0.15)">
       <use xlink:href="#DejaVuSans-31"/>
       <use xlink:href="#DejaVuSans-32" transform="translate(63.623047 0)"/>
       <use xlink:href="#DejaVuSans-35" transform="translate(127.246094 0)"/>
      </g>
     </g>
    </g>
    <g id="ytick_14">
     <g id="line2d_55">
      <g>
       <use xlink:href="#m568276e23c" x="525.975451" y="82.7388" style="stroke: #000000; stroke-width: 0.8"/>
      </g>
     </g>
     <g id="text_36">
      <!-- 150 -->
      <g transform="translate(490.344201 88.437628) scale(0.15 -0.15)">
       <use xlink:href="#DejaVuSans-31"/>
       <use xlink:href="#DejaVuSans-35" transform="translate(63.623047 0)"/>
       <use xlink:href="#DejaVuSans-30" transform="translate(127.246094 0)"/>
      </g>
     </g>
    </g>
    <g id="ytick_15">
     <g id="line2d_56">
      <g>
       <use xlink:href="#m568276e23c" x="525.975451" y="45.2286" style="stroke: #000000; stroke-width: 0.8"/>
      </g>
     </g>
     <g id="text_37">
      <!-- 175 -->
      <g transform="translate(490.344201 50.927428) scale(0.15 -0.15)">
       <use xlink:href="#DejaVuSans-31"/>
       <use xlink:href="#DejaVuSans-37" transform="translate(63.623047 0)"/>
       <use xlink:href="#DejaVuSans-35" transform="translate(127.246094 0)"/>
      </g>
     </g>
    </g>
    <g id="text_38">
     <!-- HCTZ urine -->
     <g transform="translate(462.425014 238.177969) rotate(-90) scale(0.18 -0.18)">
      <use xlink:href="#DejaVuSans-Bold-48"/>
      <use xlink:href="#DejaVuSans-Bold-43" transform="translate(83.691406 0)"/>
      <use xlink:href="#DejaVuSans-Bold-54" transform="translate(157.080078 0)"/>
      <use xlink:href="#DejaVuSans-Bold-5a" transform="translate(225.292969 0)"/>
      <use xlink:href="#DejaVuSans-Bold-20" transform="translate(297.802734 0)"/>
      <use xlink:href="#DejaVuSans-Bold-75" transform="translate(332.617188 0)"/>
      <use xlink:href="#DejaVuSans-Bold-72" transform="translate(403.808594 0)"/>
      <use xlink:href="#DejaVuSans-Bold-69" transform="translate(453.125 0)"/>
      <use xlink:href="#DejaVuSans-Bold-6e" transform="translate(487.402344 0)"/>
      <use xlink:href="#DejaVuSans-Bold-65" transform="translate(558.59375 0)"/>
     </g>
     <!--  [µmol] -->
     <g transform="translate(482.581076 218.428594) rotate(-90) scale(0.18 -0.18)">
      <use xlink:href="#DejaVuSans-Bold-20"/>
      <use xlink:href="#DejaVuSans-Bold-5b" transform="translate(34.814453 0)"/>
      <use xlink:href="#DejaVuSans-Bold-b5" transform="translate(80.517578 0)"/>
      <use xlink:href="#DejaVuSans-Bold-6d" transform="translate(154.101562 0)"/>
      <use xlink:href="#DejaVuSans-Bold-6f" transform="translate(258.300781 0)"/>
      <use xlink:href="#DejaVuSans-Bold-6c" transform="translate(327.001953 0)"/>
      <use xlink:href="#DejaVuSans-Bold-5d" transform="translate(361.279297 0)"/>
     </g>
    </g>
   </g>
   <g id="LineCollection_5">
    <path d="M 548.275846 290.608059 
L 548.275846 223.687941 
" clip-path="url(#p6f9f1ce022)" style="fill: none; stroke: #1f77b4"/>
    <path d="M 555.137506 273.103496 
L 555.137506 196.336504 
" clip-path="url(#p6f9f1ce022)" style="fill: none; stroke: #1f77b4"/>
    <path d="M 582.584147 191.690286 
L 582.584147 141.669714 
" clip-path="url(#p6f9f1ce022)" style="fill: none; stroke: #1f77b4"/>
   </g>
   <g id="LineCollection_6">
    <path clip-path="url(#p6f9f1ce022)" style="fill: none; stroke: #000000"/>
    <path clip-path="url(#p6f9f1ce022)" style="fill: none; stroke: #000000"/>
    <path clip-path="url(#p6f9f1ce022)" style="fill: none; stroke: #000000"/>
   </g>
   <g id="line2d_57">
    <path d="M 541.414186 307.8 
L 542.031736 176.002712 
L 542.649285 135.155247 
L 543.266834 118.579939 
L 543.884384 111.095877 
L 544.501933 107.39449 
L 545.119483 105.320718 
L 545.737032 103.959127 
L 546.972131 102.015827 
L 549.442329 98.884452 
L 552.530076 95.344862 
L 555.617823 92.098355 
L 559.323119 88.552448 
L 563.028416 85.352933 
L 566.733712 82.465971 
L 570.439008 79.861031 
L 574.144305 77.510561 
L 578.467151 75.056943 
L 582.789997 72.88062 
L 587.112842 70.950255 
L 592.053238 69.009783 
L 596.993633 67.317851 
L 602.551578 65.672035 
L 608.109522 64.261394 
L 614.285016 62.929132 
L 621.07806 61.704604 
L 628.488653 60.607336 
L 636.516795 59.647491 
L 645.780036 58.775566 
L 656.278376 58.023723 
L 668.629364 57.378593 
L 682.833 56.864481 
L 700.741933 56.447683 
L 724.208811 56.137771 
L 758.174028 55.931642 
L 818.076321 55.824984 
L 850.18889 55.810251 
L 850.18889 55.810251 
" clip-path="url(#p6f9f1ce022)" style="fill: none; stroke: #74a9cf; stroke-width: 2; stroke-linecap: square"/>
   </g>
   <g id="line2d_58">
    <path d="M 541.414186 307.8 
L 542.031736 173.467991 
L 542.649285 131.156104 
L 543.266834 115.397656 
L 543.884384 109.089396 
L 544.501933 106.243685 
L 545.119483 104.67557 
L 546.354582 102.677117 
L 548.824779 99.519317 
L 551.912526 95.92811 
L 555.000273 92.632743 
L 558.70557 89.033538 
L 562.410866 85.786038 
L 566.116163 82.855876 
L 569.821459 80.212042 
L 573.526755 77.826557 
L 577.849601 75.336476 
L 582.172447 73.127896 
L 586.495293 71.168993 
L 591.435688 69.199917 
L 596.376083 67.483119 
L 601.316479 65.986277 
L 606.874423 64.530302 
L 613.049917 63.155295 
L 619.842961 61.891553 
L 627.253554 60.759216 
L 635.281696 59.768763 
L 643.927388 58.922154 
L 653.808178 58.173383 
L 665.541617 57.513769 
L 679.127704 56.975461 
L 695.801538 56.54003 
L 717.415767 56.206207 
L 747.675688 55.975406 
L 797.69719 55.843769 
L 850.18889 55.810198 
L 850.18889 55.810198 
" clip-path="url(#p6f9f1ce022)" style="fill: none; stroke: #2b8cbe; stroke-width: 2; stroke-linecap: square"/>
   </g>
   <g id="line2d_59">
    <path d="M 541.414186 307.8 
L 542.031736 171.899152 
L 542.649285 129.442326 
L 543.266834 114.338371 
L 543.884384 108.53298 
L 544.501933 105.962793 
L 545.119483 104.527586 
L 546.354582 102.615467 
L 548.824779 99.477758 
L 551.912526 95.889958 
L 555.000273 92.597342 
L 558.70557 89.001179 
L 562.410866 85.756465 
L 566.116163 82.828854 
L 569.821459 80.187354 
L 573.526755 77.804005 
L 577.849601 75.316187 
L 582.172447 73.109647 
L 586.495293 71.152583 
L 591.435688 69.185385 
L 596.376083 67.470253 
L 601.934028 65.801977 
L 607.491973 64.372183 
L 613.667467 63.021929 
L 620.46051 61.780963 
L 627.871103 60.669062 
L 635.899246 59.696508 
L 645.162487 58.813132 
L 655.660827 58.051507 
L 667.394265 57.425701 
L 681.597902 56.896056 
L 699.506834 56.466748 
L 722.356163 56.153623 
L 755.703831 55.940144 
L 813.135925 55.828464 
L 850.18889 55.810178 
L 850.18889 55.810178 
" clip-path="url(#p6f9f1ce022)" style="fill: none; stroke: #045a8d; stroke-width: 2; stroke-linecap: square"/>
   </g>
   <g id="line2d_60">
    <path d="M 541.414186 307.8 
L 542.031736 177.707447 
L 542.649285 138.938886 
L 543.266834 122.593914 
L 543.884384 114.339064 
L 544.501933 109.69742 
L 545.119483 106.854635 
L 545.737032 104.955842 
L 546.354582 103.565899 
L 547.58968 101.501615 
L 549.442329 99.056907 
L 552.530076 95.480134 
L 555.617823 92.222678 
L 559.323119 88.666041 
L 563.028416 85.456756 
L 566.733712 82.56085 
L 570.439008 79.947723 
L 574.144305 77.58976 
L 578.467151 75.128201 
L 582.789997 72.944721 
L 587.112842 71.007905 
L 592.053238 69.060842 
L 596.993633 67.36306 
L 602.551578 65.71145 
L 608.109522 64.295748 
L 614.285016 62.95861 
L 621.07806 61.729507 
L 628.488653 60.628043 
L 636.516795 59.664438 
L 645.780036 58.789008 
L 656.278376 58.034051 
L 668.629364 57.386161 
L 682.833 56.869768 
L 700.741933 56.451041 
L 724.208811 56.139619 
L 758.174028 55.932416 
L 818.076321 55.825149 
L 850.18889 55.810322 
L 850.18889 55.810322 
" clip-path="url(#p6f9f1ce022)" style="fill: none; stroke: #000000; stroke-width: 2; stroke-linecap: square"/>
   </g>
   <g id="line2d_61">
    <path d="M 548.275846 257.148 
L 555.137506 234.72 
L 582.584147 166.68 
" clip-path="url(#p6f9f1ce022)" style="fill: none; stroke: #1f77b4; stroke-linecap: square"/>
    <g clip-path="url(#p6f9f1ce022)">
     <use xlink:href="#mc6ec686938" x="548.275846" y="257.148" style="fill: #1f77b4; stroke: #000000; stroke-linejoin: miter"/>
     <use xlink:href="#mc6ec686938" x="555.137506" y="234.72" style="fill: #1f77b4; stroke: #000000; stroke-linejoin: miter"/>
     <use xlink:href="#mc6ec686938" x="582.584147" y="166.68" style="fill: #1f77b4; stroke: #000000; stroke-linejoin: miter"/>
    </g>
   </g>
   <g id="line2d_62">
    <path d="M 548.275846 118.8 
L 555.137506 96.12 
L 582.584147 55.8 
" clip-path="url(#p6f9f1ce022)" style="fill: none; stroke: #000000; stroke-linecap: square"/>
    <g clip-path="url(#p6f9f1ce022)">
     <use xlink:href="#mfa7fdd25c2" x="548.275846" y="118.8" style="stroke: #000000; stroke-linejoin: miter"/>
     <use xlink:href="#mfa7fdd25c2" x="555.137506" y="96.12" style="stroke: #000000; stroke-linejoin: miter"/>
     <use xlink:href="#mfa7fdd25c2" x="582.584147" y="55.8" style="stroke: #000000; stroke-linejoin: miter"/>
    </g>
   </g>
   <g id="line2d_63">
    <path d="M 548.275846 254.88 
L 555.137506 227.16 
L 582.584147 159.12 
" clip-path="url(#p6f9f1ce022)" style="fill: none; stroke-dasharray: 3.7,1.6; stroke-dashoffset: 0; stroke: #1f77b4"/>
    <g clip-path="url(#p6f9f1ce022)">
     <use xlink:href="#mab43c1dc61" x="548.275846" y="254.88" style="fill: #1f77b4; stroke: #000000; stroke-linejoin: miter"/>
     <use xlink:href="#mab43c1dc61" x="555.137506" y="227.16" style="fill: #1f77b4; stroke: #000000; stroke-linejoin: miter"/>
     <use xlink:href="#mab43c1dc61" x="582.584147" y="159.12" style="fill: #1f77b4; stroke: #000000; stroke-linejoin: miter"/>
    </g>
   </g>
   <g id="line2d_64">
    <path d="M 548.275846 290.16 
L 555.137506 270 
L 582.584147 191.88 
" clip-path="url(#p6f9f1ce022)" style="fill: none; stroke-dasharray: 3.7,1.6; stroke-dashoffset: 0; stroke: #1f77b4"/>
    <defs>
     <path id="me1069fde2f" d="M 0 3 
C 0.795609 3 1.55874 2.683901 2.12132 2.12132 
C 2.683901 1.55874 3 0.795609 3 0 
C 3 -0.795609 2.683901 -1.55874 2.12132 -2.12132 
C 1.55874 -2.683901 0.795609 -3 0 -3 
C -0.795609 -3 -1.55874 -2.683901 -2.12132 -2.12132 
C -2.683901 -1.55874 -3 -0.795609 -3 0 
C -3 0.795609 -2.683901 1.55874 -2.12132 2.12132 
C -1.55874 2.683901 -0.795609 3 0 3 
z
" style="stroke: #000000"/>
    </defs>
    <g clip-path="url(#p6f9f1ce022)">
     <use xlink:href="#me1069fde2f" x="548.275846" y="290.16" style="fill: #1f77b4; stroke: #000000"/>
     <use xlink:href="#me1069fde2f" x="555.137506" y="270" style="fill: #1f77b4; stroke: #000000"/>
     <use xlink:href="#me1069fde2f" x="582.584147" y="191.88" style="fill: #1f77b4; stroke: #000000"/>
    </g>
   </g>
   <g id="line2d_65">
    <path d="M 548.275846 273.78 
L 555.137506 252.36 
L 582.584147 141.48 
" clip-path="url(#p6f9f1ce022)" style="fill: none; stroke-dasharray: 3.7,1.6; stroke-dashoffset: 0; stroke: #1f77b4"/>
    <defs>
     <path id="m33c4c10f1e" d="M 0 -3 
L -3 3 
L 3 3 
z
" style="stroke: #000000; stroke-linejoin: miter"/>
    </defs>
    <g clip-path="url(#p6f9f1ce022)">
     <use xlink:href="#m33c4c10f1e" x="548.275846" y="273.78" style="fill: #1f77b4; stroke: #000000; stroke-linejoin: miter"/>
     <use xlink:href="#m33c4c10f1e" x="555.137506" y="252.36" style="fill: #1f77b4; stroke: #000000; stroke-linejoin: miter"/>
     <use xlink:href="#m33c4c10f1e" x="582.584147" y="141.48" style="fill: #1f77b4; stroke: #000000; stroke-linejoin: miter"/>
    </g>
   </g>
   <g id="line2d_66">
    <path d="M 548.275846 264.96 
L 555.137506 252.36 
L 582.584147 194.4 
" clip-path="url(#p6f9f1ce022)" style="fill: none; stroke-dasharray: 3.7,1.6; stroke-dashoffset: 0; stroke: #1f77b4"/>
    <defs>
     <path id="m9b91fa99aa" d="M 0 -3 
L -0.673542 -0.927051 
L -2.85317 -0.927051 
L -1.089814 0.354102 
L -1.763356 2.427051 
L -0 1.145898 
L 1.763356 2.427051 
L 1.089814 0.354102 
L 2.85317 -0.927051 
L 0.673542 -0.927051 
z
" style="stroke: #000000; stroke-linejoin: bevel"/>
    </defs>
    <g clip-path="url(#p6f9f1ce022)">
     <use xlink:href="#m9b91fa99aa" x="548.275846" y="264.96" style="fill: #1f77b4; stroke: #000000; stroke-linejoin: bevel"/>
     <use xlink:href="#m9b91fa99aa" x="555.137506" y="252.36" style="fill: #1f77b4; stroke: #000000; stroke-linejoin: bevel"/>
     <use xlink:href="#m9b91fa99aa" x="582.584147" y="194.4" style="fill: #1f77b4; stroke: #000000; stroke-linejoin: bevel"/>
    </g>
   </g>
   <g id="line2d_67">
    <path d="M 548.275846 201.96 
L 555.137506 171.72 
L 582.584147 146.52 
" clip-path="url(#p6f9f1ce022)" style="fill: none; stroke-dasharray: 3.7,1.6; stroke-dashoffset: 0; stroke: #1f77b4"/>
    <defs>
     <path id="m1c512f674f" d="M -3 -0 
L 3 3 
L 3 -3 
z
" style="stroke: #000000; stroke-linejoin: miter"/>
    </defs>
    <g clip-path="url(#p6f9f1ce022)">
     <use xlink:href="#m1c512f674f" x="548.275846" y="201.96" style="fill: #1f77b4; stroke: #000000; stroke-linejoin: miter"/>
     <use xlink:href="#m1c512f674f" x="555.137506" y="171.72" style="fill: #1f77b4; stroke: #000000; stroke-linejoin: miter"/>
     <use xlink:href="#m1c512f674f" x="582.584147" y="146.52" style="fill: #1f77b4; stroke: #000000; stroke-linejoin: miter"/>
    </g>
   </g>
   <g id="line2d_68">
    <path d="M 548.275846 118.8 
L 555.137506 96.12 
L 582.584147 55.8 
" clip-path="url(#p6f9f1ce022)" style="fill: none; stroke-dasharray: 3.7,1.6; stroke-dashoffset: 0; stroke: #000000"/>
    <g clip-path="url(#p6f9f1ce022)">
     <use xlink:href="#m5a94481785" x="548.275846" y="118.8" style="stroke: #000000; stroke-linejoin: miter"/>
     <use xlink:href="#m5a94481785" x="555.137506" y="96.12" style="stroke: #000000; stroke-linejoin: miter"/>
     <use xlink:href="#m5a94481785" x="582.584147" y="55.8" style="stroke: #000000; stroke-linejoin: miter"/>
    </g>
   </g>
   <g id="patch_9">
    <path d="M 525.975451 320.4 
L 525.975451 43.2 
" style="fill: none; stroke: #000000; stroke-width: 0.8; stroke-linejoin: miter; stroke-linecap: square"/>
   </g>
   <g id="patch_10">
    <path d="M 865.627625 320.4 
L 865.627625 43.2 
" style="fill: none; stroke: #000000; stroke-width: 0.8; stroke-linejoin: miter; stroke-linecap: square"/>
   </g>
   <g id="patch_11">
    <path d="M 525.975451 320.4 
L 865.627625 320.4 
" style="fill: none; stroke: #000000; stroke-width: 0.8; stroke-linejoin: miter; stroke-linecap: square"/>
   </g>
   <g id="patch_12">
    <path d="M 525.975451 43.2 
L 865.627625 43.2 
" style="fill: none; stroke: #000000; stroke-width: 0.8; stroke-linejoin: miter; stroke-linecap: square"/>
   </g>
   <g id="legend_2">
    <g id="patch_13">
     <path d="M 703.691688 315.4 
L 858.627625 315.4 
Q 860.627625 315.4 860.627625 313.4 
L 860.627625 138.2625 
Q 860.627625 136.2625 858.627625 136.2625 
L 703.691688 136.2625 
Q 701.691688 136.2625 701.691688 138.2625 
L 701.691688 313.4 
Q 701.691688 315.4 703.691688 315.4 
z
" style="fill: #ffffff; opacity: 0.8; stroke: #cccccc; stroke-linejoin: miter"/>
    </g>
    <g id="line2d_69">
     <path d="M 705.691688 144.360938 
L 725.691688 144.360938 
" style="fill: none; stroke: #74a9cf; stroke-width: 2; stroke-linecap: square"/>
    </g>
    <g id="line2d_70"/>
    <g id="text_39">
     <!-- Sim iv hepatic mild -->
     <g transform="translate(733.691688 147.860938) scale(0.1 -0.1)">
      <use xlink:href="#DejaVuSans-53"/>
      <use xlink:href="#DejaVuSans-69" transform="translate(63.476562 0)"/>
      <use xlink:href="#DejaVuSans-6d" transform="translate(91.259766 0)"/>
      <use xlink:href="#DejaVuSans-20" transform="translate(188.671875 0)"/>
      <use xlink:href="#DejaVuSans-69" transform="translate(220.458984 0)"/>
      <use xlink:href="#DejaVuSans-76" transform="translate(248.242188 0)"/>
      <use xlink:href="#DejaVuSans-20" transform="translate(307.421875 0)"/>
      <use xlink:href="#DejaVuSans-68" transform="translate(339.208984 0)"/>
      <use xlink:href="#DejaVuSans-65" transform="translate(402.587891 0)"/>
      <use xlink:href="#DejaVuSans-70" transform="translate(464.111328 0)"/>
      <use xlink:href="#DejaVuSans-61" transform="translate(527.587891 0)"/>
      <use xlink:href="#DejaVuSans-74" transform="translate(588.867188 0)"/>
      <use xlink:href="#DejaVuSans-69" transform="translate(628.076172 0)"/>
      <use xlink:href="#DejaVuSans-63" transform="translate(655.859375 0)"/>
      <use xlink:href="#DejaVuSans-20" transform="translate(710.839844 0)"/>
      <use xlink:href="#DejaVuSans-6d" transform="translate(742.626953 0)"/>
      <use xlink:href="#DejaVuSans-69" transform="translate(840.039062 0)"/>
      <use xlink:href="#DejaVuSans-6c" transform="translate(867.822266 0)"/>
      <use xlink:href="#DejaVuSans-64" transform="translate(895.605469 0)"/>
     </g>
    </g>
    <g id="line2d_71">
     <path d="M 705.691688 159.039063 
L 725.691688 159.039063 
" style="fill: none; stroke: #2b8cbe; stroke-width: 2; stroke-linecap: square"/>
    </g>
    <g id="line2d_72"/>
    <g id="text_40">
     <!-- Sim iv hepatic moderate -->
     <g transform="translate(733.691688 162.539063) scale(0.1 -0.1)">
      <use xlink:href="#DejaVuSans-53"/>
      <use xlink:href="#DejaVuSans-69" transform="translate(63.476562 0)"/>
      <use xlink:href="#DejaVuSans-6d" transform="translate(91.259766 0)"/>
      <use xlink:href="#DejaVuSans-20" transform="translate(188.671875 0)"/>
      <use xlink:href="#DejaVuSans-69" transform="translate(220.458984 0)"/>
      <use xlink:href="#DejaVuSans-76" transform="translate(248.242188 0)"/>
      <use xlink:href="#DejaVuSans-20" transform="translate(307.421875 0)"/>
      <use xlink:href="#DejaVuSans-68" transform="translate(339.208984 0)"/>
      <use xlink:href="#DejaVuSans-65" transform="translate(402.587891 0)"/>
      <use xlink:href="#DejaVuSans-70" transform="translate(464.111328 0)"/>
      <use xlink:href="#DejaVuSans-61" transform="translate(527.587891 0)"/>
      <use xlink:href="#DejaVuSans-74" transform="translate(588.867188 0)"/>
      <use xlink:href="#DejaVuSans-69" transform="translate(628.076172 0)"/>
      <use xlink:href="#DejaVuSans-63" transform="translate(655.859375 0)"/>
      <use xlink:href="#DejaVuSans-20" transform="translate(710.839844 0)"/>
      <use xlink:href="#DejaVuSans-6d" transform="translate(742.626953 0)"/>
      <use xlink:href="#DejaVuSans-6f" transform="translate(840.039062 0)"/>
      <use xlink:href="#DejaVuSans-64" transform="translate(901.220703 0)"/>
      <use xlink:href="#DejaVuSans-65" transform="translate(964.697266 0)"/>
      <use xlink:href="#DejaVuSans-72" transform="translate(1026.220703 0)"/>
      <use xlink:href="#DejaVuSans-61" transform="translate(1067.333984 0)"/>
      <use xlink:href="#DejaVuSans-74" transform="translate(1128.613281 0)"/>
      <use xlink:href="#DejaVuSans-65" transform="translate(1167.822266 0)"/>
     </g>
    </g>
    <g id="line2d_73">
     <path d="M 705.691688 173.717188 
L 725.691688 173.717188 
" style="fill: none; stroke: #045a8d; stroke-width: 2; stroke-linecap: square"/>
    </g>
    <g id="line2d_74"/>
    <g id="text_41">
     <!-- Sim iv hepatic severe -->
     <g transform="translate(733.691688 177.217188) scale(0.1 -0.1)">
      <use xlink:href="#DejaVuSans-53"/>
      <use xlink:href="#DejaVuSans-69" transform="translate(63.476562 0)"/>
      <use xlink:href="#DejaVuSans-6d" transform="translate(91.259766 0)"/>
      <use xlink:href="#DejaVuSans-20" transform="translate(188.671875 0)"/>
      <use xlink:href="#DejaVuSans-69" transform="translate(220.458984 0)"/>
      <use xlink:href="#DejaVuSans-76" transform="translate(248.242188 0)"/>
      <use xlink:href="#DejaVuSans-20" transform="translate(307.421875 0)"/>
      <use xlink:href="#DejaVuSans-68" transform="translate(339.208984 0)"/>
      <use xlink:href="#DejaVuSans-65" transform="translate(402.587891 0)"/>
      <use xlink:href="#DejaVuSans-70" transform="translate(464.111328 0)"/>
      <use xlink:href="#DejaVuSans-61" transform="translate(527.587891 0)"/>
      <use xlink:href="#DejaVuSans-74" transform="translate(588.867188 0)"/>
      <use xlink:href="#DejaVuSans-69" transform="translate(628.076172 0)"/>
      <use xlink:href="#DejaVuSans-63" transform="translate(655.859375 0)"/>
      <use xlink:href="#DejaVuSans-20" transform="translate(710.839844 0)"/>
      <use xlink:href="#DejaVuSans-73" transform="translate(742.626953 0)"/>
      <use xlink:href="#DejaVuSans-65" transform="translate(794.726562 0)"/>
      <use xlink:href="#DejaVuSans-76" transform="translate(856.25 0)"/>
      <use xlink:href="#DejaVuSans-65" transform="translate(915.429688 0)"/>
      <use xlink:href="#DejaVuSans-72" transform="translate(976.953125 0)"/>
      <use xlink:href="#DejaVuSans-65" transform="translate(1015.816406 0)"/>
     </g>
    </g>
    <g id="line2d_75">
     <path d="M 705.691688 188.395313 
L 725.691688 188.395313 
" style="fill: none; stroke: #000000; stroke-width: 2; stroke-linecap: square"/>
    </g>
    <g id="line2d_76"/>
    <g id="text_42">
     <!-- Sim iv control -->
     <g transform="translate(733.691688 191.895313) scale(0.1 -0.1)">
      <use xlink:href="#DejaVuSans-53"/>
      <use xlink:href="#DejaVuSans-69" transform="translate(63.476562 0)"/>
      <use xlink:href="#DejaVuSans-6d" transform="translate(91.259766 0)"/>
      <use xlink:href="#DejaVuSans-20" transform="translate(188.671875 0)"/>
      <use xlink:href="#DejaVuSans-69" transform="translate(220.458984 0)"/>
      <use xlink:href="#DejaVuSans-76" transform="translate(248.242188 0)"/>
      <use xlink:href="#DejaVuSans-20" transform="translate(307.421875 0)"/>
      <use xlink:href="#DejaVuSans-63" transform="translate(339.208984 0)"/>
      <use xlink:href="#DejaVuSans-6f" transform="translate(394.189453 0)"/>
      <use xlink:href="#DejaVuSans-6e" transform="translate(455.371094 0)"/>
      <use xlink:href="#DejaVuSans-74" transform="translate(518.75 0)"/>
      <use xlink:href="#DejaVuSans-72" transform="translate(557.958984 0)"/>
      <use xlink:href="#DejaVuSans-6f" transform="translate(596.822266 0)"/>
      <use xlink:href="#DejaVuSans-6c" transform="translate(658.003906 0)"/>
     </g>
    </g>
    <g id="LineCollection_7">
     <path d="M 715.691688 208.073438 
L 715.691688 198.073438 
" style="fill: none; stroke: #1f77b4"/>
    </g>
    <g id="line2d_77">
     <path d="M 705.691688 203.073438 
L 725.691688 203.073438 
" style="fill: none; stroke: #1f77b4; stroke-linecap: square"/>
    </g>
    <g id="line2d_78">
     <g>
      <use xlink:href="#mc6ec686938" x="715.691688" y="203.073438" style="fill: #1f77b4; stroke: #000000; stroke-linejoin: miter"/>
     </g>
    </g>
    <g id="text_43">
     <!-- hepatic±SD -->
     <g transform="translate(733.691688 206.573438) scale(0.1 -0.1)">
      <use xlink:href="#DejaVuSans-68"/>
      <use xlink:href="#DejaVuSans-65" transform="translate(63.378906 0)"/>
      <use xlink:href="#DejaVuSans-70" transform="translate(124.902344 0)"/>
      <use xlink:href="#DejaVuSans-61" transform="translate(188.378906 0)"/>
      <use xlink:href="#DejaVuSans-74" transform="translate(249.658203 0)"/>
      <use xlink:href="#DejaVuSans-69" transform="translate(288.867188 0)"/>
      <use xlink:href="#DejaVuSans-63" transform="translate(316.650391 0)"/>
      <use xlink:href="#DejaVuSans-b1" transform="translate(371.630859 0)"/>
      <use xlink:href="#DejaVuSans-53" transform="translate(455.419922 0)"/>
      <use xlink:href="#DejaVuSans-44" transform="translate(518.896484 0)"/>
     </g>
    </g>
    <g id="LineCollection_8">
     <path d="M 715.691688 222.751563 
L 715.691688 212.751563 
" style="fill: none; stroke: #000000"/>
    </g>
    <g id="line2d_79">
     <path d="M 705.691688 217.751563 
L 725.691688 217.751563 
" style="fill: none; stroke: #000000; stroke-linecap: square"/>
    </g>
    <g id="line2d_80">
     <g>
      <use xlink:href="#mfa7fdd25c2" x="715.691688" y="217.751563" style="stroke: #000000; stroke-linejoin: miter"/>
     </g>
    </g>
    <g id="text_44">
     <!-- control±SD -->
     <g transform="translate(733.691688 221.251563) scale(0.1 -0.1)">
      <use xlink:href="#DejaVuSans-63"/>
      <use xlink:href="#DejaVuSans-6f" transform="translate(54.980469 0)"/>
      <use xlink:href="#DejaVuSans-6e" transform="translate(116.162109 0)"/>
      <use xlink:href="#DejaVuSans-74" transform="translate(179.541016 0)"/>
      <use xlink:href="#DejaVuSans-72" transform="translate(218.75 0)"/>
      <use xlink:href="#DejaVuSans-6f" transform="translate(257.613281 0)"/>
      <use xlink:href="#DejaVuSans-6c" transform="translate(318.794922 0)"/>
      <use xlink:href="#DejaVuSans-b1" transform="translate(346.578125 0)"/>
      <use xlink:href="#DejaVuSans-53" transform="translate(430.367188 0)"/>
      <use xlink:href="#DejaVuSans-44" transform="translate(493.84375 0)"/>
     </g>
    </g>
    <g id="line2d_81">
     <path d="M 705.691688 232.429688 
L 725.691688 232.429688 
" style="fill: none; stroke-dasharray: 3.7,1.6; stroke-dashoffset: 0; stroke: #1f77b4"/>
    </g>
    <g id="line2d_82">
     <g>
      <use xlink:href="#mab43c1dc61" x="715.691688" y="232.429688" style="fill: #1f77b4; stroke: #000000; stroke-linejoin: miter"/>
     </g>
    </g>
    <g id="text_45">
     <!-- 12 -->
     <g transform="translate(733.691688 235.929688) scale(0.1 -0.1)">
      <use xlink:href="#DejaVuSans-31"/>
      <use xlink:href="#DejaVuSans-32" transform="translate(63.623047 0)"/>
     </g>
    </g>
    <g id="line2d_83">
     <path d="M 705.691688 247.107813 
L 725.691688 247.107813 
" style="fill: none; stroke-dasharray: 3.7,1.6; stroke-dashoffset: 0; stroke: #1f77b4"/>
    </g>
    <g id="line2d_84">
     <g>
      <use xlink:href="#me1069fde2f" x="715.691688" y="247.107813" style="fill: #1f77b4; stroke: #000000"/>
     </g>
    </g>
    <g id="text_46">
     <!-- 13A -->
     <g transform="translate(733.691688 250.607813) scale(0.1 -0.1)">
      <defs>
       <path id="DejaVuSans-41" d="M 2188 4044 
L 1331 1722 
L 3047 1722 
L 2188 4044 
z
M 1831 4666 
L 2547 4666 
L 4325 0 
L 3669 0 
L 3244 1197 
L 1141 1197 
L 716 0 
L 50 0 
L 1831 4666 
z
" transform="scale(0.015625)"/>
      </defs>
      <use xlink:href="#DejaVuSans-31"/>
      <use xlink:href="#DejaVuSans-33" transform="translate(63.623047 0)"/>
      <use xlink:href="#DejaVuSans-41" transform="translate(127.246094 0)"/>
     </g>
    </g>
    <g id="line2d_85">
     <path d="M 705.691688 261.785937 
L 725.691688 261.785937 
" style="fill: none; stroke-dasharray: 3.7,1.6; stroke-dashoffset: 0; stroke: #1f77b4"/>
    </g>
    <g id="line2d_86">
     <g>
      <use xlink:href="#m33c4c10f1e" x="715.691688" y="261.785937" style="fill: #1f77b4; stroke: #000000; stroke-linejoin: miter"/>
     </g>
    </g>
    <g id="text_47">
     <!-- 13B -->
     <g transform="translate(733.691688 265.285937) scale(0.1 -0.1)">
      <defs>
       <path id="DejaVuSans-42" d="M 1259 2228 
L 1259 519 
L 2272 519 
Q 2781 519 3026 730 
Q 3272 941 3272 1375 
Q 3272 1813 3026 2020 
Q 2781 2228 2272 2228 
L 1259 2228 
z
M 1259 4147 
L 1259 2741 
L 2194 2741 
Q 2656 2741 2882 2914 
Q 3109 3088 3109 3444 
Q 3109 3797 2882 3972 
Q 2656 4147 2194 4147 
L 1259 4147 
z
M 628 4666 
L 2241 4666 
Q 2963 4666 3353 4366 
Q 3744 4066 3744 3513 
Q 3744 3084 3544 2831 
Q 3344 2578 2956 2516 
Q 3422 2416 3680 2098 
Q 3938 1781 3938 1306 
Q 3938 681 3513 340 
Q 3088 0 2303 0 
L 628 0 
L 628 4666 
z
" transform="scale(0.015625)"/>
      </defs>
      <use xlink:href="#DejaVuSans-31"/>
      <use xlink:href="#DejaVuSans-33" transform="translate(63.623047 0)"/>
      <use xlink:href="#DejaVuSans-42" transform="translate(127.246094 0)"/>
     </g>
    </g>
    <g id="line2d_87">
     <path d="M 705.691688 276.464062 
L 725.691688 276.464062 
" style="fill: none; stroke-dasharray: 3.7,1.6; stroke-dashoffset: 0; stroke: #1f77b4"/>
    </g>
    <g id="line2d_88">
     <g>
      <use xlink:href="#m9b91fa99aa" x="715.691688" y="276.464062" style="fill: #1f77b4; stroke: #000000; stroke-linejoin: bevel"/>
     </g>
    </g>
    <g id="text_48">
     <!-- 14 -->
     <g transform="translate(733.691688 279.964062) scale(0.1 -0.1)">
      <use xlink:href="#DejaVuSans-31"/>
      <use xlink:href="#DejaVuSans-34" transform="translate(63.623047 0)"/>
     </g>
    </g>
    <g id="line2d_89">
     <path d="M 705.691688 291.142187 
L 725.691688 291.142187 
" style="fill: none; stroke-dasharray: 3.7,1.6; stroke-dashoffset: 0; stroke: #1f77b4"/>
    </g>
    <g id="line2d_90">
     <g>
      <use xlink:href="#m1c512f674f" x="715.691688" y="291.142187" style="fill: #1f77b4; stroke: #000000; stroke-linejoin: miter"/>
     </g>
    </g>
    <g id="text_49">
     <!-- 15 -->
     <g transform="translate(733.691688 294.642187) scale(0.1 -0.1)">
      <use xlink:href="#DejaVuSans-31"/>
      <use xlink:href="#DejaVuSans-35" transform="translate(63.623047 0)"/>
     </g>
    </g>
    <g id="line2d_91">
     <path d="M 705.691688 305.820312 
L 725.691688 305.820312 
" style="fill: none; stroke-dasharray: 3.7,1.6; stroke-dashoffset: 0; stroke: #000000"/>
    </g>
    <g id="line2d_92">
     <g>
      <use xlink:href="#m5a94481785" x="715.691688" y="305.820312" style="stroke: #000000; stroke-linejoin: miter"/>
     </g>
    </g>
    <g id="text_50">
     <!-- 2 -->
     <g transform="translate(733.691688 309.320312) scale(0.1 -0.1)">
      <use xlink:href="#DejaVuSans-32"/>
     </g>
    </g>
   </g>
  </g>
  <g id="text_51">
   <!-- Anderson1961 HCTZ urine hepatic impairment -->
   <g transform="translate(135.244031 26.196094) scale(0.25 -0.25)">
    <defs>
     <path id="DejaVuSans-Bold-41" d="M 3419 850 
L 1538 850 
L 1241 0 
L 31 0 
L 1759 4666 
L 3194 4666 
L 4922 0 
L 3713 0 
L 3419 850 
z
M 1838 1716 
L 3116 1716 
L 2478 3572 
L 1838 1716 
z
" transform="scale(0.015625)"/>
     <path id="DejaVuSans-Bold-64" d="M 2919 2988 
L 2919 4863 
L 4044 4863 
L 4044 0 
L 2919 0 
L 2919 506 
Q 2688 197 2409 53 
Q 2131 -91 1766 -91 
Q 1119 -91 703 423 
Q 288 938 288 1747 
Q 288 2556 703 3070 
Q 1119 3584 1766 3584 
Q 2128 3584 2408 3439 
Q 2688 3294 2919 2988 
z
M 2181 722 
Q 2541 722 2730 984 
Q 2919 1247 2919 1747 
Q 2919 2247 2730 2509 
Q 2541 2772 2181 2772 
Q 1825 2772 1636 2509 
Q 1447 2247 1447 1747 
Q 1447 1247 1636 984 
Q 1825 722 2181 722 
z
" transform="scale(0.015625)"/>
     <path id="DejaVuSans-Bold-73" d="M 3272 3391 
L 3272 2541 
Q 2913 2691 2578 2766 
Q 2244 2841 1947 2841 
Q 1628 2841 1473 2761 
Q 1319 2681 1319 2516 
Q 1319 2381 1436 2309 
Q 1553 2238 1856 2203 
L 2053 2175 
Q 2913 2066 3209 1816 
Q 3506 1566 3506 1031 
Q 3506 472 3093 190 
Q 2681 -91 1863 -91 
Q 1516 -91 1145 -36 
Q 775 19 384 128 
L 384 978 
Q 719 816 1070 734 
Q 1422 653 1784 653 
Q 2113 653 2278 743 
Q 2444 834 2444 1013 
Q 2444 1163 2330 1236 
Q 2216 1309 1875 1350 
L 1678 1375 
Q 931 1469 631 1722 
Q 331 1975 331 2491 
Q 331 3047 712 3315 
Q 1094 3584 1881 3584 
Q 2191 3584 2531 3537 
Q 2872 3491 3272 3391 
z
" transform="scale(0.015625)"/>
     <path id="DejaVuSans-Bold-31" d="M 750 831 
L 1813 831 
L 1813 3847 
L 722 3622 
L 722 4441 
L 1806 4666 
L 2950 4666 
L 2950 831 
L 4013 831 
L 4013 0 
L 750 0 
L 750 831 
z
" transform="scale(0.015625)"/>
     <path id="DejaVuSans-Bold-39" d="M 641 103 
L 641 966 
Q 928 831 1190 764 
Q 1453 697 1709 697 
Q 2247 697 2547 995 
Q 2847 1294 2900 1881 
Q 2688 1725 2447 1647 
Q 2206 1569 1925 1569 
Q 1209 1569 770 1986 
Q 331 2403 331 3084 
Q 331 3838 820 4291 
Q 1309 4744 2131 4744 
Q 3044 4744 3544 4128 
Q 4044 3513 4044 2388 
Q 4044 1231 3459 570 
Q 2875 -91 1856 -91 
Q 1528 -91 1228 -42 
Q 928 6 641 103 
z
M 2125 2350 
Q 2441 2350 2600 2554 
Q 2759 2759 2759 3169 
Q 2759 3575 2600 3781 
Q 2441 3988 2125 3988 
Q 1809 3988 1650 3781 
Q 1491 3575 1491 3169 
Q 1491 2759 1650 2554 
Q 1809 2350 2125 2350 
z
" transform="scale(0.015625)"/>
     <path id="DejaVuSans-Bold-36" d="M 2316 2303 
Q 2000 2303 1842 2098 
Q 1684 1894 1684 1484 
Q 1684 1075 1842 870 
Q 2000 666 2316 666 
Q 2634 666 2792 870 
Q 2950 1075 2950 1484 
Q 2950 1894 2792 2098 
Q 2634 2303 2316 2303 
z
M 3803 4544 
L 3803 3681 
Q 3506 3822 3243 3889 
Q 2981 3956 2731 3956 
Q 2194 3956 1894 3657 
Q 1594 3359 1544 2772 
Q 1750 2925 1990 3001 
Q 2231 3078 2516 3078 
Q 3231 3078 3670 2659 
Q 4109 2241 4109 1563 
Q 4109 813 3618 361 
Q 3128 -91 2303 -91 
Q 1394 -91 895 523 
Q 397 1138 397 2266 
Q 397 3422 980 4083 
Q 1563 4744 2578 4744 
Q 2900 4744 3203 4694 
Q 3506 4644 3803 4544 
z
" transform="scale(0.015625)"/>
     <path id="DejaVuSans-Bold-70" d="M 1656 506 
L 1656 -1331 
L 538 -1331 
L 538 3500 
L 1656 3500 
L 1656 2988 
Q 1888 3294 2169 3439 
Q 2450 3584 2816 3584 
Q 3463 3584 3878 3070 
Q 4294 2556 4294 1747 
Q 4294 938 3878 423 
Q 3463 -91 2816 -91 
Q 2450 -91 2169 54 
Q 1888 200 1656 506 
z
M 2400 2772 
Q 2041 2772 1848 2508 
Q 1656 2244 1656 1747 
Q 1656 1250 1848 986 
Q 2041 722 2400 722 
Q 2759 722 2948 984 
Q 3138 1247 3138 1747 
Q 3138 2247 2948 2509 
Q 2759 2772 2400 2772 
z
" transform="scale(0.015625)"/>
     <path id="DejaVuSans-Bold-61" d="M 2106 1575 
Q 1756 1575 1579 1456 
Q 1403 1338 1403 1106 
Q 1403 894 1545 773 
Q 1688 653 1941 653 
Q 2256 653 2472 879 
Q 2688 1106 2688 1447 
L 2688 1575 
L 2106 1575 
z
M 3816 1997 
L 3816 0 
L 2688 0 
L 2688 519 
Q 2463 200 2181 54 
Q 1900 -91 1497 -91 
Q 953 -91 614 226 
Q 275 544 275 1050 
Q 275 1666 698 1953 
Q 1122 2241 2028 2241 
L 2688 2241 
L 2688 2328 
Q 2688 2594 2478 2717 
Q 2269 2841 1825 2841 
Q 1466 2841 1156 2769 
Q 847 2697 581 2553 
L 581 3406 
Q 941 3494 1303 3539 
Q 1666 3584 2028 3584 
Q 2975 3584 3395 3211 
Q 3816 2838 3816 1997 
z
" transform="scale(0.015625)"/>
     <path id="DejaVuSans-Bold-63" d="M 3366 3391 
L 3366 2478 
Q 3138 2634 2908 2709 
Q 2678 2784 2431 2784 
Q 1963 2784 1702 2511 
Q 1441 2238 1441 1747 
Q 1441 1256 1702 982 
Q 1963 709 2431 709 
Q 2694 709 2930 787 
Q 3166 866 3366 1019 
L 3366 103 
Q 3103 6 2833 -42 
Q 2563 -91 2291 -91 
Q 1344 -91 809 395 
Q 275 881 275 1747 
Q 275 2613 809 3098 
Q 1344 3584 2291 3584 
Q 2566 3584 2833 3536 
Q 3100 3488 3366 3391 
z
" transform="scale(0.015625)"/>
    </defs>
    <use xlink:href="#DejaVuSans-Bold-41"/>
    <use xlink:href="#DejaVuSans-Bold-6e" transform="translate(77.392578 0)"/>
    <use xlink:href="#DejaVuSans-Bold-64" transform="translate(148.583984 0)"/>
    <use xlink:href="#DejaVuSans-Bold-65" transform="translate(220.166016 0)"/>
    <use xlink:href="#DejaVuSans-Bold-72" transform="translate(287.988281 0)"/>
    <use xlink:href="#DejaVuSans-Bold-73" transform="translate(337.304688 0)"/>
    <use xlink:href="#DejaVuSans-Bold-6f" transform="translate(396.826172 0)"/>
    <use xlink:href="#DejaVuSans-Bold-6e" transform="translate(465.527344 0)"/>
    <use xlink:href="#DejaVuSans-Bold-31" transform="translate(536.71875 0)"/>
    <use xlink:href="#DejaVuSans-Bold-39" transform="translate(606.298828 0)"/>
    <use xlink:href="#DejaVuSans-Bold-36" transform="translate(675.878906 0)"/>
    <use xlink:href="#DejaVuSans-Bold-31" transform="translate(745.458984 0)"/>
    <use xlink:href="#DejaVuSans-Bold-20" transform="translate(815.039062 0)"/>
    <use xlink:href="#DejaVuSans-Bold-48" transform="translate(849.853516 0)"/>
    <use xlink:href="#DejaVuSans-Bold-43" transform="translate(933.544922 0)"/>
    <use xlink:href="#DejaVuSans-Bold-54" transform="translate(1006.933594 0)"/>
    <use xlink:href="#DejaVuSans-Bold-5a" transform="translate(1075.146484 0)"/>
    <use xlink:href="#DejaVuSans-Bold-20" transform="translate(1147.65625 0)"/>
    <use xlink:href="#DejaVuSans-Bold-75" transform="translate(1182.470703 0)"/>
    <use xlink:href="#DejaVuSans-Bold-72" transform="translate(1253.662109 0)"/>
    <use xlink:href="#DejaVuSans-Bold-69" transform="translate(1302.978516 0)"/>
    <use xlink:href="#DejaVuSans-Bold-6e" transform="translate(1337.255859 0)"/>
    <use xlink:href="#DejaVuSans-Bold-65" transform="translate(1408.447266 0)"/>
    <use xlink:href="#DejaVuSans-Bold-20" transform="translate(1476.269531 0)"/>
    <use xlink:href="#DejaVuSans-Bold-68" transform="translate(1511.083984 0)"/>
    <use xlink:href="#DejaVuSans-Bold-65" transform="translate(1582.275391 0)"/>
    <use xlink:href="#DejaVuSans-Bold-70" transform="translate(1650.097656 0)"/>
    <use xlink:href="#DejaVuSans-Bold-61" transform="translate(1721.679688 0)"/>
    <use xlink:href="#DejaVuSans-Bold-74" transform="translate(1789.160156 0)"/>
    <use xlink:href="#DejaVuSans-Bold-69" transform="translate(1836.962891 0)"/>
    <use xlink:href="#DejaVuSans-Bold-63" transform="translate(1871.240234 0)"/>
    <use xlink:href="#DejaVuSans-Bold-20" transform="translate(1930.517578 0)"/>
    <use xlink:href="#DejaVuSans-Bold-69" transform="translate(1965.332031 0)"/>
    <use xlink:href="#DejaVuSans-Bold-6d" transform="translate(1999.609375 0)"/>
    <use xlink:href="#DejaVuSans-Bold-70" transform="translate(2103.808594 0)"/>
    <use xlink:href="#DejaVuSans-Bold-61" transform="translate(2175.390625 0)"/>
    <use xlink:href="#DejaVuSans-Bold-69" transform="translate(2242.871094 0)"/>
    <use xlink:href="#DejaVuSans-Bold-72" transform="translate(2277.148438 0)"/>
    <use xlink:href="#DejaVuSans-Bold-6d" transform="translate(2326.464844 0)"/>
    <use xlink:href="#DejaVuSans-Bold-65" transform="translate(2430.664062 0)"/>
    <use xlink:href="#DejaVuSans-Bold-6e" transform="translate(2498.486328 0)"/>
    <use xlink:href="#DejaVuSans-Bold-74" transform="translate(2569.677734 0)"/>
   </g>
  </g>
 </g>
 <defs>
  <clipPath id="pdc6ea5b18d">
   <rect x="84.427625" y="43.2" width="339.652174" height="277.2"/>
  </clipPath>
  <clipPath id="p6f9f1ce022">
   <rect x="525.975451" y="43.2" width="339.652174" height="277.2"/>
  </clipPath>
 </defs>
</svg>
