<?xml version="1.0" encoding="utf-8" standalone="no"?>
<!DOCTYPE svg PUBLIC "-//W3C//DTD SVG 1.1//EN"
  "http://www.w3.org/Graphics/SVG/1.1/DTD/svg11.dtd">
<svg xmlns:xlink="http://www.w3.org/1999/xlink" width="482.227625pt" height="683.737812pt" viewBox="0 0 482.227625 683.737812" xmlns="http://www.w3.org/2000/svg" version="1.1">
 <metadata>
  <rdf:RDF xmlns:dc="http://purl.org/dc/elements/1.1/" xmlns:cc="http://creativecommons.org/ns#" xmlns:rdf="http://www.w3.org/1999/02/22-rdf-syntax-ns#">
   <cc:Work>
    <dc:type rdf:resource="http://purl.org/dc/dcmitype/StillImage"/>
    <dc:date>2025-11-04T18:11:49.609067</dc:date>
    <dc:format>image/svg+xml</dc:format>
    <dc:creator>
     <cc:Agent>
      <dc:title>Matplotlib v3.10.7, https://matplotlib.org/</dc:title>
     </cc:Agent>
    </dc:creator>
   </cc:Work>
  </rdf:RDF>
 </metadata>
 <defs>
  <style type="text/css">*{stroke-linejoin: round; stroke-linecap: butt}</style>
 </defs>
 <g id="figure_1">
  <g id="patch_1">
   <path d="M -0 683.737812 
L 482.227625 683.737812 
L 482.227625 0 
L -0 0 
z
" style="fill: #ffffff"/>
  </g>
  <g id="axes_1">
   <g id="patch_2">
    <path d="M 84.427625 320.243478 
L 475.027625 320.243478 
L 475.027625 79.2 
L 84.427625 79.2 
z
" style="fill: #ffffff"/>
   </g>
   <g id="matplotlib.axis_1">
    <g id="xtick_1">
     <g id="line2d_1">
      <defs>
       <path id="ma90ff04bb2" d="M 0 0 
L 0 3.5 
" style="stroke: #000000; stroke-width: 0.8"/>
      </defs>
      <g>
       <use xlink:href="#ma90ff04bb2" x="102.18217" y="320.243478" style="stroke: #000000; stroke-width: 0.8"/>
      </g>
     </g>
     <g id="text_1">
      <!-- 0 -->
      <g transform="translate(97.410295 338.641135) scale(0.15 -0.15)">
       <defs>
        <path id="DejaVuSans-30" d="M 2034 4250 
Q 1547 4250 1301 3770 
Q 1056 3291 1056 2328 
Q 1056 1369 1301 889 
Q 1547 409 2034 409 
Q 2525 409 2770 889 
Q 3016 1369 3016 2328 
Q 3016 3291 2770 3770 
Q 2525 4250 2034 4250 
z
M 2034 4750 
Q 2819 4750 3233 4129 
Q 3647 3509 3647 2328 
Q 3647 1150 3233 529 
Q 2819 -91 2034 -91 
Q 1250 -91 836 529 
Q 422 1150 422 2328 
Q 422 3509 836 4129 
Q 1250 4750 2034 4750 
z
" transform="scale(0.015625)"/>
       </defs>
       <use xlink:href="#DejaVuSans-30"/>
      </g>
     </g>
    </g>
    <g id="xtick_2">
     <g id="line2d_2">
      <g>
       <use xlink:href="#ma90ff04bb2" x="173.200352" y="320.243478" style="stroke: #000000; stroke-width: 0.8"/>
      </g>
     </g>
     <g id="text_2">
      <!-- 10 -->
      <g transform="translate(163.656602 338.641135) scale(0.15 -0.15)">
       <defs>
        <path id="DejaVuSans-31" d="M 794 531 
L 1825 531 
L 1825 4091 
L 703 3866 
L 703 4441 
L 1819 4666 
L 2450 4666 
L 2450 531 
L 3481 531 
L 3481 0 
L 794 0 
L 794 531 
z
" transform="scale(0.015625)"/>
       </defs>
       <use xlink:href="#DejaVuSans-31"/>
       <use xlink:href="#DejaVuSans-30" transform="translate(63.623047 0)"/>
      </g>
     </g>
    </g>
    <g id="xtick_3">
     <g id="line2d_3">
      <g>
       <use xlink:href="#ma90ff04bb2" x="244.218534" y="320.243478" style="stroke: #000000; stroke-width: 0.8"/>
      </g>
     </g>
     <g id="text_3">
      <!-- 20 -->
      <g transform="translate(234.674784 338.641135) scale(0.15 -0.15)">
       <defs>
        <path id="DejaVuSans-32" d="M 1228 531 
L 3431 531 
L 3431 0 
L 469 0 
L 469 531 
Q 828 903 1448 1529 
Q 2069 2156 2228 2338 
Q 2531 2678 2651 2914 
Q 2772 3150 2772 3378 
Q 2772 3750 2511 3984 
Q 2250 4219 1831 4219 
Q 1534 4219 1204 4116 
Q 875 4013 500 3803 
L 500 4441 
Q 881 4594 1212 4672 
Q 1544 4750 1819 4750 
Q 2544 4750 2975 4387 
Q 3406 4025 3406 3419 
Q 3406 3131 3298 2873 
Q 3191 2616 2906 2266 
Q 2828 2175 2409 1742 
Q 1991 1309 1228 531 
z
" transform="scale(0.015625)"/>
       </defs>
       <use xlink:href="#DejaVuSans-32"/>
       <use xlink:href="#DejaVuSans-30" transform="translate(63.623047 0)"/>
      </g>
     </g>
    </g>
    <g id="xtick_4">
     <g id="line2d_4">
      <g>
       <use xlink:href="#ma90ff04bb2" x="315.236716" y="320.243478" style="stroke: #000000; stroke-width: 0.8"/>
      </g>
     </g>
     <g id="text_4">
      <!-- 30 -->
      <g transform="translate(305.692966 338.641135) scale(0.15 -0.15)">
       <defs>
        <path id="DejaVuSans-33" d="M 2597 2516 
Q 3050 2419 3304 2112 
Q 3559 1806 3559 1356 
Q 3559 666 3084 287 
Q 2609 -91 1734 -91 
Q 1441 -91 1130 -33 
Q 819 25 488 141 
L 488 750 
Q 750 597 1062 519 
Q 1375 441 1716 441 
Q 2309 441 2620 675 
Q 2931 909 2931 1356 
Q 2931 1769 2642 2001 
Q 2353 2234 1838 2234 
L 1294 2234 
L 1294 2753 
L 1863 2753 
Q 2328 2753 2575 2939 
Q 2822 3125 2822 3475 
Q 2822 3834 2567 4026 
Q 2313 4219 1838 4219 
Q 1578 4219 1281 4162 
Q 984 4106 628 3988 
L 628 4550 
Q 988 4650 1302 4700 
Q 1616 4750 1894 4750 
Q 2613 4750 3031 4423 
Q 3450 4097 3450 3541 
Q 3450 3153 3228 2886 
Q 3006 2619 2597 2516 
z
" transform="scale(0.015625)"/>
       </defs>
       <use xlink:href="#DejaVuSans-33"/>
       <use xlink:href="#DejaVuSans-30" transform="translate(63.623047 0)"/>
      </g>
     </g>
    </g>
    <g id="xtick_5">
     <g id="line2d_5">
      <g>
       <use xlink:href="#ma90ff04bb2" x="386.254898" y="320.243478" style="stroke: #000000; stroke-width: 0.8"/>
      </g>
     </g>
     <g id="text_5">
      <!-- 40 -->
      <g transform="translate(376.711148 338.641135) scale(0.15 -0.15)">
       <defs>
        <path id="DejaVuSans-34" d="M 2419 4116 
L 825 1625 
L 2419 1625 
L 2419 4116 
z
M 2253 4666 
L 3047 4666 
L 3047 1625 
L 3713 1625 
L 3713 1100 
L 3047 1100 
L 3047 0 
L 2419 0 
L 2419 1100 
L 313 1100 
L 313 1709 
L 2253 4666 
z
" transform="scale(0.015625)"/>
       </defs>
       <use xlink:href="#DejaVuSans-34"/>
       <use xlink:href="#DejaVuSans-30" transform="translate(63.623047 0)"/>
      </g>
     </g>
    </g>
    <g id="xtick_6">
     <g id="line2d_6">
      <g>
       <use xlink:href="#ma90ff04bb2" x="457.27308" y="320.243478" style="stroke: #000000; stroke-width: 0.8"/>
      </g>
     </g>
     <g id="text_6">
      <!-- 50 -->
      <g transform="translate(447.72933 338.641135) scale(0.15 -0.15)">
       <defs>
        <path id="DejaVuSans-35" d="M 691 4666 
L 3169 4666 
L 3169 4134 
L 1269 4134 
L 1269 2991 
Q 1406 3038 1543 3061 
Q 1681 3084 1819 3084 
Q 2600 3084 3056 2656 
Q 3513 2228 3513 1497 
Q 3513 744 3044 326 
Q 2575 -91 1722 -91 
Q 1428 -91 1123 -41 
Q 819 9 494 109 
L 494 744 
Q 775 591 1075 516 
Q 1375 441 1709 441 
Q 2250 441 2565 725 
Q 2881 1009 2881 1497 
Q 2881 1984 2565 2268 
Q 2250 2553 1709 2553 
Q 1456 2553 1204 2497 
Q 953 2441 691 2322 
L 691 4666 
z
" transform="scale(0.015625)"/>
       </defs>
       <use xlink:href="#DejaVuSans-35"/>
       <use xlink:href="#DejaVuSans-30" transform="translate(63.623047 0)"/>
      </g>
     </g>
    </g>
    <g id="text_7">
     <!-- time [hr] -->
     <g transform="translate(234.653094 359.437853) scale(0.18 -0.18)">
      <defs>
       <path id="DejaVuSans-Bold-74" d="M 1759 4494 
L 1759 3500 
L 2913 3500 
L 2913 2700 
L 1759 2700 
L 1759 1216 
Q 1759 972 1856 886 
Q 1953 800 2241 800 
L 2816 800 
L 2816 0 
L 1856 0 
Q 1194 0 917 276 
Q 641 553 641 1216 
L 641 2700 
L 84 2700 
L 84 3500 
L 641 3500 
L 641 4494 
L 1759 4494 
z
" transform="scale(0.015625)"/>
       <path id="DejaVuSans-Bold-69" d="M 538 3500 
L 1656 3500 
L 1656 0 
L 538 0 
L 538 3500 
z
M 538 4863 
L 1656 4863 
L 1656 3950 
L 538 3950 
L 538 4863 
z
" transform="scale(0.015625)"/>
       <path id="DejaVuSans-Bold-6d" d="M 3781 2919 
Q 3994 3244 4286 3414 
Q 4578 3584 4928 3584 
Q 5531 3584 5847 3212 
Q 6163 2841 6163 2131 
L 6163 0 
L 5038 0 
L 5038 1825 
Q 5041 1866 5042 1909 
Q 5044 1953 5044 2034 
Q 5044 2406 4934 2573 
Q 4825 2741 4581 2741 
Q 4263 2741 4089 2478 
Q 3916 2216 3909 1719 
L 3909 0 
L 2784 0 
L 2784 1825 
Q 2784 2406 2684 2573 
Q 2584 2741 2328 2741 
Q 2006 2741 1831 2477 
Q 1656 2213 1656 1722 
L 1656 0 
L 531 0 
L 531 3500 
L 1656 3500 
L 1656 2988 
Q 1863 3284 2130 3434 
Q 2397 3584 2719 3584 
Q 3081 3584 3359 3409 
Q 3638 3234 3781 2919 
z
" transform="scale(0.015625)"/>
       <path id="DejaVuSans-Bold-65" d="M 4031 1759 
L 4031 1441 
L 1416 1441 
Q 1456 1047 1700 850 
Q 1944 653 2381 653 
Q 2734 653 3104 758 
Q 3475 863 3866 1075 
L 3866 213 
Q 3469 63 3072 -14 
Q 2675 -91 2278 -91 
Q 1328 -91 801 392 
Q 275 875 275 1747 
Q 275 2603 792 3093 
Q 1309 3584 2216 3584 
Q 3041 3584 3536 3087 
Q 4031 2591 4031 1759 
z
M 2881 2131 
Q 2881 2450 2695 2645 
Q 2509 2841 2209 2841 
Q 1884 2841 1681 2658 
Q 1478 2475 1428 2131 
L 2881 2131 
z
" transform="scale(0.015625)"/>
       <path id="DejaVuSans-Bold-20" transform="scale(0.015625)"/>
       <path id="DejaVuSans-Bold-5b" d="M 550 4863 
L 2491 4863 
L 2491 4159 
L 1613 4159 
L 1613 -141 
L 2491 -141 
L 2491 -844 
L 550 -844 
L 550 4863 
z
" transform="scale(0.015625)"/>
       <path id="DejaVuSans-Bold-68" d="M 4056 2131 
L 4056 0 
L 2931 0 
L 2931 347 
L 2931 1625 
Q 2931 2084 2911 2256 
Q 2891 2428 2841 2509 
Q 2775 2619 2662 2680 
Q 2550 2741 2406 2741 
Q 2056 2741 1856 2470 
Q 1656 2200 1656 1722 
L 1656 0 
L 538 0 
L 538 4863 
L 1656 4863 
L 1656 2988 
Q 1909 3294 2193 3439 
Q 2478 3584 2822 3584 
Q 3428 3584 3742 3212 
Q 4056 2841 4056 2131 
z
" transform="scale(0.015625)"/>
       <path id="DejaVuSans-Bold-72" d="M 3138 2547 
Q 2991 2616 2845 2648 
Q 2700 2681 2553 2681 
Q 2122 2681 1889 2404 
Q 1656 2128 1656 1613 
L 1656 0 
L 538 0 
L 538 3500 
L 1656 3500 
L 1656 2925 
Q 1872 3269 2151 3426 
Q 2431 3584 2822 3584 
Q 2878 3584 2943 3579 
Q 3009 3575 3134 3559 
L 3138 2547 
z
" transform="scale(0.015625)"/>
       <path id="DejaVuSans-Bold-5d" d="M 2375 -844 
L 434 -844 
L 434 -141 
L 1313 -141 
L 1313 4159 
L 434 4159 
L 434 4863 
L 2375 4863 
L 2375 -844 
z
" transform="scale(0.015625)"/>
      </defs>
      <use xlink:href="#DejaVuSans-Bold-74"/>
      <use xlink:href="#DejaVuSans-Bold-69" transform="translate(47.802734 0)"/>
      <use xlink:href="#DejaVuSans-Bold-6d" transform="translate(82.080078 0)"/>
      <use xlink:href="#DejaVuSans-Bold-65" transform="translate(186.279297 0)"/>
      <use xlink:href="#DejaVuSans-Bold-20" transform="translate(254.101562 0)"/>
      <use xlink:href="#DejaVuSans-Bold-5b" transform="translate(288.916016 0)"/>
      <use xlink:href="#DejaVuSans-Bold-68" transform="translate(334.619141 0)"/>
      <use xlink:href="#DejaVuSans-Bold-72" transform="translate(405.810547 0)"/>
      <use xlink:href="#DejaVuSans-Bold-5d" transform="translate(455.126953 0)"/>
     </g>
    </g>
   </g>
   <g id="matplotlib.axis_2">
    <g id="ytick_1">
     <g id="line2d_7">
      <defs>
       <path id="mb02e4c4c1f" d="M 0 0 
L -3.5 0 
" style="stroke: #000000; stroke-width: 0.8"/>
      </defs>
      <g>
       <use xlink:href="#mb02e4c4c1f" x="84.427625" y="308.204831" style="stroke: #000000; stroke-width: 0.8"/>
      </g>
     </g>
     <g id="text_8">
      <!-- 0.0 -->
      <g transform="translate(53.572938 313.903659) scale(0.15 -0.15)">
       <defs>
        <path id="DejaVuSans-2e" d="M 684 794 
L 1344 794 
L 1344 0 
L 684 0 
L 684 794 
z
" transform="scale(0.015625)"/>
       </defs>
       <use xlink:href="#DejaVuSans-30"/>
       <use xlink:href="#DejaVuSans-2e" transform="translate(63.623047 0)"/>
       <use xlink:href="#DejaVuSans-30" transform="translate(95.410156 0)"/>
      </g>
     </g>
    </g>
    <g id="ytick_2">
     <g id="line2d_8">
      <g>
       <use xlink:href="#mb02e4c4c1f" x="84.427625" y="275.989952" style="stroke: #000000; stroke-width: 0.8"/>
      </g>
     </g>
     <g id="text_9">
      <!-- 0.2 -->
      <g transform="translate(53.572938 281.68878) scale(0.15 -0.15)">
       <use xlink:href="#DejaVuSans-30"/>
       <use xlink:href="#DejaVuSans-2e" transform="translate(63.623047 0)"/>
       <use xlink:href="#DejaVuSans-32" transform="translate(95.410156 0)"/>
      </g>
     </g>
    </g>
    <g id="ytick_3">
     <g id="line2d_9">
      <g>
       <use xlink:href="#mb02e4c4c1f" x="84.427625" y="243.775072" style="stroke: #000000; stroke-width: 0.8"/>
      </g>
     </g>
     <g id="text_10">
      <!-- 0.4 -->
      <g transform="translate(53.572938 249.473901) scale(0.15 -0.15)">
       <use xlink:href="#DejaVuSans-30"/>
       <use xlink:href="#DejaVuSans-2e" transform="translate(63.623047 0)"/>
       <use xlink:href="#DejaVuSans-34" transform="translate(95.410156 0)"/>
      </g>
     </g>
    </g>
    <g id="ytick_4">
     <g id="line2d_10">
      <g>
       <use xlink:href="#mb02e4c4c1f" x="84.427625" y="211.560193" style="stroke: #000000; stroke-width: 0.8"/>
      </g>
     </g>
     <g id="text_11">
      <!-- 0.6 -->
      <g transform="translate(53.572938 217.259021) scale(0.15 -0.15)">
       <defs>
        <path id="DejaVuSans-36" d="M 2113 2584 
Q 1688 2584 1439 2293 
Q 1191 2003 1191 1497 
Q 1191 994 1439 701 
Q 1688 409 2113 409 
Q 2538 409 2786 701 
Q 3034 994 3034 1497 
Q 3034 2003 2786 2293 
Q 2538 2584 2113 2584 
z
M 3366 4563 
L 3366 3988 
Q 3128 4100 2886 4159 
Q 2644 4219 2406 4219 
Q 1781 4219 1451 3797 
Q 1122 3375 1075 2522 
Q 1259 2794 1537 2939 
Q 1816 3084 2150 3084 
Q 2853 3084 3261 2657 
Q 3669 2231 3669 1497 
Q 3669 778 3244 343 
Q 2819 -91 2113 -91 
Q 1303 -91 875 529 
Q 447 1150 447 2328 
Q 447 3434 972 4092 
Q 1497 4750 2381 4750 
Q 2619 4750 2861 4703 
Q 3103 4656 3366 4563 
z
" transform="scale(0.015625)"/>
       </defs>
       <use xlink:href="#DejaVuSans-30"/>
       <use xlink:href="#DejaVuSans-2e" transform="translate(63.623047 0)"/>
       <use xlink:href="#DejaVuSans-36" transform="translate(95.410156 0)"/>
      </g>
     </g>
    </g>
    <g id="ytick_5">
     <g id="line2d_11">
      <g>
       <use xlink:href="#mb02e4c4c1f" x="84.427625" y="179.345314" style="stroke: #000000; stroke-width: 0.8"/>
      </g>
     </g>
     <g id="text_12">
      <!-- 0.8 -->
      <g transform="translate(53.572938 185.044142) scale(0.15 -0.15)">
       <defs>
        <path id="DejaVuSans-38" d="M 2034 2216 
Q 1584 2216 1326 1975 
Q 1069 1734 1069 1313 
Q 1069 891 1326 650 
Q 1584 409 2034 409 
Q 2484 409 2743 651 
Q 3003 894 3003 1313 
Q 3003 1734 2745 1975 
Q 2488 2216 2034 2216 
z
M 1403 2484 
Q 997 2584 770 2862 
Q 544 3141 544 3541 
Q 544 4100 942 4425 
Q 1341 4750 2034 4750 
Q 2731 4750 3128 4425 
Q 3525 4100 3525 3541 
Q 3525 3141 3298 2862 
Q 3072 2584 2669 2484 
Q 3125 2378 3379 2068 
Q 3634 1759 3634 1313 
Q 3634 634 3220 271 
Q 2806 -91 2034 -91 
Q 1263 -91 848 271 
Q 434 634 434 1313 
Q 434 1759 690 2068 
Q 947 2378 1403 2484 
z
M 1172 3481 
Q 1172 3119 1398 2916 
Q 1625 2713 2034 2713 
Q 2441 2713 2670 2916 
Q 2900 3119 2900 3481 
Q 2900 3844 2670 4047 
Q 2441 4250 2034 4250 
Q 1625 4250 1398 4047 
Q 1172 3844 1172 3481 
z
" transform="scale(0.015625)"/>
       </defs>
       <use xlink:href="#DejaVuSans-30"/>
       <use xlink:href="#DejaVuSans-2e" transform="translate(63.623047 0)"/>
       <use xlink:href="#DejaVuSans-38" transform="translate(95.410156 0)"/>
      </g>
     </g>
    </g>
    <g id="ytick_6">
     <g id="line2d_12">
      <g>
       <use xlink:href="#mb02e4c4c1f" x="84.427625" y="147.130435" style="stroke: #000000; stroke-width: 0.8"/>
      </g>
     </g>
     <g id="text_13">
      <!-- 1.0 -->
      <g transform="translate(53.572938 152.829263) scale(0.15 -0.15)">
       <use xlink:href="#DejaVuSans-31"/>
       <use xlink:href="#DejaVuSans-2e" transform="translate(63.623047 0)"/>
       <use xlink:href="#DejaVuSans-30" transform="translate(95.410156 0)"/>
      </g>
     </g>
    </g>
    <g id="ytick_7">
     <g id="line2d_13">
      <g>
       <use xlink:href="#mb02e4c4c1f" x="84.427625" y="114.915556" style="stroke: #000000; stroke-width: 0.8"/>
      </g>
     </g>
     <g id="text_14">
      <!-- 1.2 -->
      <g transform="translate(53.572938 120.614384) scale(0.15 -0.15)">
       <use xlink:href="#DejaVuSans-31"/>
       <use xlink:href="#DejaVuSans-2e" transform="translate(63.623047 0)"/>
       <use xlink:href="#DejaVuSans-32" transform="translate(95.410156 0)"/>
      </g>
     </g>
    </g>
    <g id="ytick_8">
     <g id="line2d_14">
      <g>
       <use xlink:href="#mb02e4c4c1f" x="84.427625" y="82.700676" style="stroke: #000000; stroke-width: 0.8"/>
      </g>
     </g>
     <g id="text_15">
      <!-- 1.4 -->
      <g transform="translate(53.572938 88.399504) scale(0.15 -0.15)">
       <use xlink:href="#DejaVuSans-31"/>
       <use xlink:href="#DejaVuSans-2e" transform="translate(63.623047 0)"/>
       <use xlink:href="#DejaVuSans-34" transform="translate(95.410156 0)"/>
      </g>
     </g>
    </g>
    <g id="text_16">
     <!-- HCTZ [µM] -->
     <g transform="translate(45.809813 253.462989) rotate(-90) scale(0.18 -0.18)">
      <defs>
       <path id="DejaVuSans-Bold-48" d="M 588 4666 
L 1791 4666 
L 1791 2888 
L 3566 2888 
L 3566 4666 
L 4769 4666 
L 4769 0 
L 3566 0 
L 3566 1978 
L 1791 1978 
L 1791 0 
L 588 0 
L 588 4666 
z
" transform="scale(0.015625)"/>
       <path id="DejaVuSans-Bold-43" d="M 4288 256 
Q 3956 84 3597 -3 
Q 3238 -91 2847 -91 
Q 1681 -91 1000 561 
Q 319 1213 319 2328 
Q 319 3447 1000 4098 
Q 1681 4750 2847 4750 
Q 3238 4750 3597 4662 
Q 3956 4575 4288 4403 
L 4288 3438 
Q 3953 3666 3628 3772 
Q 3303 3878 2944 3878 
Q 2300 3878 1931 3465 
Q 1563 3053 1563 2328 
Q 1563 1606 1931 1193 
Q 2300 781 2944 781 
Q 3303 781 3628 887 
Q 3953 994 4288 1222 
L 4288 256 
z
" transform="scale(0.015625)"/>
       <path id="DejaVuSans-Bold-54" d="M 31 4666 
L 4331 4666 
L 4331 3756 
L 2784 3756 
L 2784 0 
L 1581 0 
L 1581 3756 
L 31 3756 
L 31 4666 
z
" transform="scale(0.015625)"/>
       <path id="DejaVuSans-Bold-5a" d="M 359 4666 
L 4281 4666 
L 4281 3938 
L 1778 909 
L 4353 909 
L 4353 0 
L 288 0 
L 288 728 
L 2791 3756 
L 359 3756 
L 359 4666 
z
" transform="scale(0.015625)"/>
       <path id="DejaVuSans-Bold-b5" d="M 544 -1338 
L 544 3500 
L 1672 3500 
L 1672 1466 
Q 1672 1103 1828 926 
Q 1984 750 2303 750 
Q 2625 750 2781 926 
Q 2938 1103 2938 1466 
L 2938 3500 
L 4063 3500 
L 4063 1159 
Q 4063 938 4114 850 
Q 4166 763 4288 763 
Q 4344 763 4395 778 
Q 4447 794 4506 831 
L 4506 50 
Q 4341 -22 4195 -56 
Q 4050 -91 3909 -91 
Q 3631 -91 3454 26 
Q 3278 144 3169 403 
Q 3022 156 2811 32 
Q 2600 -91 2322 -91 
Q 2091 -91 1928 -17 
Q 1766 56 1672 206 
L 1672 -1338 
L 544 -1338 
z
" transform="scale(0.015625)"/>
       <path id="DejaVuSans-Bold-4d" d="M 588 4666 
L 2119 4666 
L 3181 2169 
L 4250 4666 
L 5778 4666 
L 5778 0 
L 4641 0 
L 4641 3413 
L 3566 897 
L 2803 897 
L 1728 3413 
L 1728 0 
L 588 0 
L 588 4666 
z
" transform="scale(0.015625)"/>
      </defs>
      <use xlink:href="#DejaVuSans-Bold-48"/>
      <use xlink:href="#DejaVuSans-Bold-43" transform="translate(83.691406 0)"/>
      <use xlink:href="#DejaVuSans-Bold-54" transform="translate(157.080078 0)"/>
      <use xlink:href="#DejaVuSans-Bold-5a" transform="translate(225.292969 0)"/>
      <use xlink:href="#DejaVuSans-Bold-20" transform="translate(297.802734 0)"/>
      <use xlink:href="#DejaVuSans-Bold-5b" transform="translate(332.617188 0)"/>
      <use xlink:href="#DejaVuSans-Bold-b5" transform="translate(378.320312 0)"/>
      <use xlink:href="#DejaVuSans-Bold-4d" transform="translate(451.904297 0)"/>
      <use xlink:href="#DejaVuSans-Bold-5d" transform="translate(551.416016 0)"/>
     </g>
    </g>
   </g>
   <g id="LineCollection_1">
    <path d="M 105.73308 307.663768 
L 105.73308 251.393237 
" clip-path="url(#p830ebdd01f)" style="fill: none; stroke: #1f77b4"/>
    <path d="M 109.283989 260.050242 
L 109.283989 143.180676 
" clip-path="url(#p830ebdd01f)" style="fill: none; stroke: #1f77b4"/>
    <path d="M 112.834898 233.538164 
L 112.834898 100.436715 
" clip-path="url(#p830ebdd01f)" style="fill: none; stroke: #1f77b4"/>
    <path d="M 116.385807 209.190338 
L 116.385807 96.649275 
" clip-path="url(#p830ebdd01f)" style="fill: none; stroke: #1f77b4"/>
    <path d="M 130.589443 224.881159 
L 130.589443 152.378744 
" clip-path="url(#p830ebdd01f)" style="fill: none; stroke: #1f77b4"/>
    <path d="M 144.79308 262.755556 
L 144.79308 220.552657 
" clip-path="url(#p830ebdd01f)" style="fill: none; stroke: #1f77b4"/>
    <path d="M 158.996716 273.576812 
L 158.996716 251.9343 
" clip-path="url(#p830ebdd01f)" style="fill: none; stroke: #1f77b4"/>
    <path d="M 187.403989 287.644444 
L 187.403989 273.576812 
" clip-path="url(#p830ebdd01f)" style="fill: none; stroke: #1f77b4"/>
    <path d="M 272.625807 299.547826 
L 272.625807 293.055072 
" clip-path="url(#p830ebdd01f)" style="fill: none; stroke: #1f77b4"/>
   </g>
   <g id="LineCollection_2">
    <path d="M 105.73308 309.286957 
L 105.73308 256.262802 
" clip-path="url(#p830ebdd01f)" style="fill: none; stroke: #2ca02c"/>
    <path d="M 109.283989 281.692754 
L 109.283989 129.113043 
" clip-path="url(#p830ebdd01f)" style="fill: none; stroke: #2ca02c"/>
    <path d="M 112.834898 224.881159 
L 112.834898 96.108213 
" clip-path="url(#p830ebdd01f)" style="fill: none; stroke: #2ca02c"/>
    <path d="M 116.385807 207.026087 
L 116.385807 90.156522 
" clip-path="url(#p830ebdd01f)" style="fill: none; stroke: #2ca02c"/>
    <path d="M 130.589443 220.011594 
L 130.589443 138.852174 
" clip-path="url(#p830ebdd01f)" style="fill: none; stroke: #2ca02c"/>
    <path d="M 144.79308 256.803865 
L 144.79308 212.436715 
" clip-path="url(#p830ebdd01f)" style="fill: none; stroke: #2ca02c"/>
    <path d="M 158.996716 271.953623 
L 158.996716 245.982609 
" clip-path="url(#p830ebdd01f)" style="fill: none; stroke: #2ca02c"/>
    <path d="M 187.403989 286.021256 
L 187.403989 271.953623 
" clip-path="url(#p830ebdd01f)" style="fill: none; stroke: #2ca02c"/>
    <path d="M 272.625807 299.006763 
L 272.625807 292.51401 
" clip-path="url(#p830ebdd01f)" style="fill: none; stroke: #2ca02c"/>
   </g>
   <g id="line2d_15">
    <path d="M 102.18217 308.204831 
L 102.892352 303.217738 
L 103.602534 292.055047 
L 106.443261 237.853335 
L 107.863625 216.473971 
L 109.283989 200.408904 
L 109.99417 194.18274 
L 110.704352 189.017438 
L 111.414534 184.800601 
L 112.124716 181.423452 
L 112.834898 178.783955 
L 113.54508 176.788383 
L 114.255261 175.351903 
L 114.965443 174.398564 
L 115.675625 173.860923 
L 116.385807 173.679483 
L 117.095989 173.802023 
L 117.80617 174.182906 
L 118.516352 174.78239 
L 119.936716 176.503786 
L 121.35708 178.742449 
L 123.487625 182.718768 
L 126.328352 188.615665 
L 134.140352 205.146979 
L 137.691261 212.135748 
L 141.24217 218.669693 
L 144.79308 224.746367 
L 148.343989 230.384391 
L 151.894898 235.610164 
L 155.445807 240.452084 
L 158.996716 244.93812 
L 162.547625 249.094843 
L 166.098534 252.947108 
L 169.649443 256.517995 
L 173.910534 260.461602 
L 178.171625 264.064554 
L 182.432716 267.357621 
L 186.693807 270.36876 
L 190.954898 273.123367 
L 195.215989 275.644514 
L 200.187261 278.318641 
L 205.158534 280.733463 
L 210.129807 282.915816 
L 215.811261 285.155942 
L 221.492716 287.155486 
L 227.884352 289.152122 
L 234.275989 290.91443 
L 241.377807 292.634295 
L 249.189807 294.27731 
L 257.001807 295.698446 
L 265.523989 297.035262 
L 275.466534 298.3603 
L 286.119261 299.550457 
L 298.192352 300.669186 
L 311.685807 301.691938 
L 327.309807 302.646119 
L 345.774534 303.537079 
L 367.079989 304.335763 
L 393.356716 305.086182 
L 425.314898 305.765013 
L 457.27308 306.272837 
L 457.27308 306.272837 
" clip-path="url(#p830ebdd01f)" style="fill: none; stroke: #000000; stroke-width: 2; stroke-linecap: square"/>
   </g>
   <g id="line2d_16">
    <path d="M 105.73308 279.528502 
L 109.283989 201.615459 
L 112.834898 166.98744 
L 116.385807 152.919807 
L 130.589443 188.629952 
L 144.79308 241.654106 
L 158.996716 262.755556 
L 187.403989 280.610628 
L 272.625807 296.301449 
" clip-path="url(#p830ebdd01f)" style="fill: none; stroke-dasharray: 3.7,1.6; stroke-dashoffset: 0; stroke: #1f77b4"/>
    <defs>
     <path id="mfb85b89542" d="M -3 3 
L 3 3 
L 3 -3 
L -3 -3 
z
" style="stroke: #000000; stroke-linejoin: miter"/>
    </defs>
    <g clip-path="url(#p830ebdd01f)">
     <use xlink:href="#mfb85b89542" x="105.73308" y="279.528502" style="fill: #1f77b4; stroke: #000000; stroke-linejoin: miter"/>
     <use xlink:href="#mfb85b89542" x="109.283989" y="201.615459" style="fill: #1f77b4; stroke: #000000; stroke-linejoin: miter"/>
     <use xlink:href="#mfb85b89542" x="112.834898" y="166.98744" style="fill: #1f77b4; stroke: #000000; stroke-linejoin: miter"/>
     <use xlink:href="#mfb85b89542" x="116.385807" y="152.919807" style="fill: #1f77b4; stroke: #000000; stroke-linejoin: miter"/>
     <use xlink:href="#mfb85b89542" x="130.589443" y="188.629952" style="fill: #1f77b4; stroke: #000000; stroke-linejoin: miter"/>
     <use xlink:href="#mfb85b89542" x="144.79308" y="241.654106" style="fill: #1f77b4; stroke: #000000; stroke-linejoin: miter"/>
     <use xlink:href="#mfb85b89542" x="158.996716" y="262.755556" style="fill: #1f77b4; stroke: #000000; stroke-linejoin: miter"/>
     <use xlink:href="#mfb85b89542" x="187.403989" y="280.610628" style="fill: #1f77b4; stroke: #000000; stroke-linejoin: miter"/>
     <use xlink:href="#mfb85b89542" x="272.625807" y="296.301449" style="fill: #1f77b4; stroke: #000000; stroke-linejoin: miter"/>
    </g>
   </g>
   <g id="line2d_17">
    <path d="M 102.18217 308.204831 
L 102.892352 303.217738 
L 103.602534 292.055047 
L 106.443261 237.853335 
L 107.863625 216.473971 
L 109.283989 200.408904 
L 109.99417 194.18274 
L 110.704352 189.017438 
L 111.414534 184.800601 
L 112.124716 181.423452 
L 112.834898 178.783955 
L 113.54508 176.788383 
L 114.255261 175.351903 
L 114.965443 174.398564 
L 115.675625 173.860923 
L 116.385807 173.679483 
L 117.095989 173.802023 
L 117.80617 174.182906 
L 118.516352 174.78239 
L 119.936716 176.503786 
L 121.35708 178.742449 
L 123.487625 182.718768 
L 126.328352 188.615665 
L 134.140352 205.146979 
L 137.691261 212.135748 
L 141.24217 218.669693 
L 144.79308 224.746367 
L 148.343989 230.384391 
L 151.894898 235.610164 
L 155.445807 240.452084 
L 158.996716 244.93812 
L 162.547625 249.094843 
L 166.098534 252.947108 
L 169.649443 256.517995 
L 173.910534 260.461602 
L 178.171625 264.064554 
L 182.432716 267.357621 
L 186.693807 270.36876 
L 190.954898 273.123367 
L 195.215989 275.644514 
L 200.187261 278.318641 
L 205.158534 280.733463 
L 210.129807 282.915816 
L 215.811261 285.155942 
L 221.492716 287.155486 
L 227.884352 289.152122 
L 234.275989 290.91443 
L 241.377807 292.634295 
L 249.189807 294.27731 
L 257.001807 295.698446 
L 265.523989 297.035262 
L 275.466534 298.3603 
L 286.119261 299.550457 
L 298.192352 300.669186 
L 311.685807 301.691938 
L 327.309807 302.646119 
L 345.774534 303.537079 
L 367.079989 304.335763 
L 393.356716 305.086182 
L 425.314898 305.765013 
L 457.27308 306.272837 
L 457.27308 306.272837 
" clip-path="url(#p830ebdd01f)" style="fill: none; stroke: #000000; stroke-width: 2; stroke-linecap: square"/>
   </g>
   <g id="line2d_18">
    <path d="M 105.73308 282.774879 
L 109.283989 205.402899 
L 112.834898 160.494686 
L 116.385807 148.591304 
L 130.589443 179.431884 
L 144.79308 234.62029 
L 158.996716 258.968116 
L 187.403989 278.98744 
L 272.625807 295.760386 
" clip-path="url(#p830ebdd01f)" style="fill: none; stroke-dasharray: 3.7,1.6; stroke-dashoffset: 0; stroke: #2ca02c"/>
    <defs>
     <path id="m953099510b" d="M -3 3 
L 3 3 
L 3 -3 
L -3 -3 
z
" style="stroke: #000000; stroke-linejoin: miter"/>
    </defs>
    <g clip-path="url(#p830ebdd01f)">
     <use xlink:href="#m953099510b" x="105.73308" y="282.774879" style="fill: #2ca02c; stroke: #000000; stroke-linejoin: miter"/>
     <use xlink:href="#m953099510b" x="109.283989" y="205.402899" style="fill: #2ca02c; stroke: #000000; stroke-linejoin: miter"/>
     <use xlink:href="#m953099510b" x="112.834898" y="160.494686" style="fill: #2ca02c; stroke: #000000; stroke-linejoin: miter"/>
     <use xlink:href="#m953099510b" x="116.385807" y="148.591304" style="fill: #2ca02c; stroke: #000000; stroke-linejoin: miter"/>
     <use xlink:href="#m953099510b" x="130.589443" y="179.431884" style="fill: #2ca02c; stroke: #000000; stroke-linejoin: miter"/>
     <use xlink:href="#m953099510b" x="144.79308" y="234.62029" style="fill: #2ca02c; stroke: #000000; stroke-linejoin: miter"/>
     <use xlink:href="#m953099510b" x="158.996716" y="258.968116" style="fill: #2ca02c; stroke: #000000; stroke-linejoin: miter"/>
     <use xlink:href="#m953099510b" x="187.403989" y="278.98744" style="fill: #2ca02c; stroke: #000000; stroke-linejoin: miter"/>
     <use xlink:href="#m953099510b" x="272.625807" y="295.760386" style="fill: #2ca02c; stroke: #000000; stroke-linejoin: miter"/>
    </g>
   </g>
   <g id="patch_3">
    <path d="M 84.427625 320.243478 
L 84.427625 79.2 
" style="fill: none; stroke: #000000; stroke-width: 0.8; stroke-linejoin: miter; stroke-linecap: square"/>
   </g>
   <g id="patch_4">
    <path d="M 475.027625 320.243478 
L 475.027625 79.2 
" style="fill: none; stroke: #000000; stroke-width: 0.8; stroke-linejoin: miter; stroke-linecap: square"/>
   </g>
   <g id="patch_5">
    <path d="M 84.427625 320.243478 
L 475.027625 320.243478 
" style="fill: none; stroke: #000000; stroke-width: 0.8; stroke-linejoin: miter; stroke-linecap: square"/>
   </g>
   <g id="patch_6">
    <path d="M 84.427625 79.2 
L 475.027625 79.2 
" style="fill: none; stroke: #000000; stroke-width: 0.8; stroke-linejoin: miter; stroke-linecap: square"/>
   </g>
   <g id="legend_1">
    <g id="patch_7">
     <path d="M 291.783875 145.9125 
L 468.027625 145.9125 
Q 470.027625 145.9125 470.027625 143.9125 
L 470.027625 86.2 
Q 470.027625 84.2 468.027625 84.2 
L 291.783875 84.2 
Q 289.783875 84.2 289.783875 86.2 
L 289.783875 143.9125 
Q 289.783875 145.9125 291.783875 145.9125 
z
" style="fill: #ffffff; opacity: 0.8; stroke: #cccccc; stroke-linejoin: miter"/>
    </g>
    <g id="line2d_19">
     <path d="M 293.783875 92.298437 
L 313.783875 92.298437 
" style="fill: none; stroke: #000000; stroke-width: 2; stroke-linecap: square"/>
    </g>
    <g id="line2d_20"/>
    <g id="text_17">
     <!-- Sim hctz50 -->
     <g transform="translate(321.783875 95.798437) scale(0.1 -0.1)">
      <defs>
       <path id="DejaVuSans-53" d="M 3425 4513 
L 3425 3897 
Q 3066 4069 2747 4153 
Q 2428 4238 2131 4238 
Q 1616 4238 1336 4038 
Q 1056 3838 1056 3469 
Q 1056 3159 1242 3001 
Q 1428 2844 1947 2747 
L 2328 2669 
Q 3034 2534 3370 2195 
Q 3706 1856 3706 1288 
Q 3706 609 3251 259 
Q 2797 -91 1919 -91 
Q 1588 -91 1214 -16 
Q 841 59 441 206 
L 441 856 
Q 825 641 1194 531 
Q 1563 422 1919 422 
Q 2459 422 2753 634 
Q 3047 847 3047 1241 
Q 3047 1584 2836 1778 
Q 2625 1972 2144 2069 
L 1759 2144 
Q 1053 2284 737 2584 
Q 422 2884 422 3419 
Q 422 4038 858 4394 
Q 1294 4750 2059 4750 
Q 2388 4750 2728 4690 
Q 3069 4631 3425 4513 
z
" transform="scale(0.015625)"/>
       <path id="DejaVuSans-69" d="M 603 3500 
L 1178 3500 
L 1178 0 
L 603 0 
L 603 3500 
z
M 603 4863 
L 1178 4863 
L 1178 4134 
L 603 4134 
L 603 4863 
z
" transform="scale(0.015625)"/>
       <path id="DejaVuSans-6d" d="M 3328 2828 
Q 3544 3216 3844 3400 
Q 4144 3584 4550 3584 
Q 5097 3584 5394 3201 
Q 5691 2819 5691 2113 
L 5691 0 
L 5113 0 
L 5113 2094 
Q 5113 2597 4934 2840 
Q 4756 3084 4391 3084 
Q 3944 3084 3684 2787 
Q 3425 2491 3425 1978 
L 3425 0 
L 2847 0 
L 2847 2094 
Q 2847 2600 2669 2842 
Q 2491 3084 2119 3084 
Q 1678 3084 1418 2786 
Q 1159 2488 1159 1978 
L 1159 0 
L 581 0 
L 581 3500 
L 1159 3500 
L 1159 2956 
Q 1356 3278 1631 3431 
Q 1906 3584 2284 3584 
Q 2666 3584 2933 3390 
Q 3200 3197 3328 2828 
z
" transform="scale(0.015625)"/>
       <path id="DejaVuSans-20" transform="scale(0.015625)"/>
       <path id="DejaVuSans-68" d="M 3513 2113 
L 3513 0 
L 2938 0 
L 2938 2094 
Q 2938 2591 2744 2837 
Q 2550 3084 2163 3084 
Q 1697 3084 1428 2787 
Q 1159 2491 1159 1978 
L 1159 0 
L 581 0 
L 581 4863 
L 1159 4863 
L 1159 2956 
Q 1366 3272 1645 3428 
Q 1925 3584 2291 3584 
Q 2894 3584 3203 3211 
Q 3513 2838 3513 2113 
z
" transform="scale(0.015625)"/>
       <path id="DejaVuSans-63" d="M 3122 3366 
L 3122 2828 
Q 2878 2963 2633 3030 
Q 2388 3097 2138 3097 
Q 1578 3097 1268 2742 
Q 959 2388 959 1747 
Q 959 1106 1268 751 
Q 1578 397 2138 397 
Q 2388 397 2633 464 
Q 2878 531 3122 666 
L 3122 134 
Q 2881 22 2623 -34 
Q 2366 -91 2075 -91 
Q 1284 -91 818 406 
Q 353 903 353 1747 
Q 353 2603 823 3093 
Q 1294 3584 2113 3584 
Q 2378 3584 2631 3529 
Q 2884 3475 3122 3366 
z
" transform="scale(0.015625)"/>
       <path id="DejaVuSans-74" d="M 1172 4494 
L 1172 3500 
L 2356 3500 
L 2356 3053 
L 1172 3053 
L 1172 1153 
Q 1172 725 1289 603 
Q 1406 481 1766 481 
L 2356 481 
L 2356 0 
L 1766 0 
Q 1100 0 847 248 
Q 594 497 594 1153 
L 594 3053 
L 172 3053 
L 172 3500 
L 594 3500 
L 594 4494 
L 1172 4494 
z
" transform="scale(0.015625)"/>
       <path id="DejaVuSans-7a" d="M 353 3500 
L 3084 3500 
L 3084 2975 
L 922 459 
L 3084 459 
L 3084 0 
L 275 0 
L 275 525 
L 2438 3041 
L 353 3041 
L 353 3500 
z
" transform="scale(0.015625)"/>
      </defs>
      <use xlink:href="#DejaVuSans-53"/>
      <use xlink:href="#DejaVuSans-69" transform="translate(63.476562 0)"/>
      <use xlink:href="#DejaVuSans-6d" transform="translate(91.259766 0)"/>
      <use xlink:href="#DejaVuSans-20" transform="translate(188.671875 0)"/>
      <use xlink:href="#DejaVuSans-68" transform="translate(220.458984 0)"/>
      <use xlink:href="#DejaVuSans-63" transform="translate(283.837891 0)"/>
      <use xlink:href="#DejaVuSans-74" transform="translate(338.818359 0)"/>
      <use xlink:href="#DejaVuSans-7a" transform="translate(378.027344 0)"/>
      <use xlink:href="#DejaVuSans-35" transform="translate(430.517578 0)"/>
      <use xlink:href="#DejaVuSans-30" transform="translate(494.140625 0)"/>
     </g>
    </g>
    <g id="LineCollection_3">
     <path d="M 303.783875 111.976562 
L 303.783875 101.976562 
" style="fill: none; stroke: #1f77b4"/>
    </g>
    <g id="line2d_21">
     <path d="M 293.783875 106.976562 
L 313.783875 106.976562 
" style="fill: none; stroke-dasharray: 3.7,1.6; stroke-dashoffset: 0; stroke: #1f77b4"/>
    </g>
    <g id="line2d_22">
     <g>
      <use xlink:href="#mfb85b89542" x="303.783875" y="106.976562" style="fill: #1f77b4; stroke: #000000; stroke-linejoin: miter"/>
     </g>
    </g>
    <g id="text_18">
     <!-- HCTZ 50 msd±SD (n=20) -->
     <g transform="translate(321.783875 110.476562) scale(0.1 -0.1)">
      <defs>
       <path id="DejaVuSans-48" d="M 628 4666 
L 1259 4666 
L 1259 2753 
L 3553 2753 
L 3553 4666 
L 4184 4666 
L 4184 0 
L 3553 0 
L 3553 2222 
L 1259 2222 
L 1259 0 
L 628 0 
L 628 4666 
z
" transform="scale(0.015625)"/>
       <path id="DejaVuSans-43" d="M 4122 4306 
L 4122 3641 
Q 3803 3938 3442 4084 
Q 3081 4231 2675 4231 
Q 1875 4231 1450 3742 
Q 1025 3253 1025 2328 
Q 1025 1406 1450 917 
Q 1875 428 2675 428 
Q 3081 428 3442 575 
Q 3803 722 4122 1019 
L 4122 359 
Q 3791 134 3420 21 
Q 3050 -91 2638 -91 
Q 1578 -91 968 557 
Q 359 1206 359 2328 
Q 359 3453 968 4101 
Q 1578 4750 2638 4750 
Q 3056 4750 3426 4639 
Q 3797 4528 4122 4306 
z
" transform="scale(0.015625)"/>
       <path id="DejaVuSans-54" d="M -19 4666 
L 3928 4666 
L 3928 4134 
L 2272 4134 
L 2272 0 
L 1638 0 
L 1638 4134 
L -19 4134 
L -19 4666 
z
" transform="scale(0.015625)"/>
       <path id="DejaVuSans-5a" d="M 359 4666 
L 4025 4666 
L 4025 4184 
L 1075 531 
L 4097 531 
L 4097 0 
L 288 0 
L 288 481 
L 3238 4134 
L 359 4134 
L 359 4666 
z
" transform="scale(0.015625)"/>
       <path id="DejaVuSans-73" d="M 2834 3397 
L 2834 2853 
Q 2591 2978 2328 3040 
Q 2066 3103 1784 3103 
Q 1356 3103 1142 2972 
Q 928 2841 928 2578 
Q 928 2378 1081 2264 
Q 1234 2150 1697 2047 
L 1894 2003 
Q 2506 1872 2764 1633 
Q 3022 1394 3022 966 
Q 3022 478 2636 193 
Q 2250 -91 1575 -91 
Q 1294 -91 989 -36 
Q 684 19 347 128 
L 347 722 
Q 666 556 975 473 
Q 1284 391 1588 391 
Q 1994 391 2212 530 
Q 2431 669 2431 922 
Q 2431 1156 2273 1281 
Q 2116 1406 1581 1522 
L 1381 1569 
Q 847 1681 609 1914 
Q 372 2147 372 2553 
Q 372 3047 722 3315 
Q 1072 3584 1716 3584 
Q 2034 3584 2315 3537 
Q 2597 3491 2834 3397 
z
" transform="scale(0.015625)"/>
       <path id="DejaVuSans-64" d="M 2906 2969 
L 2906 4863 
L 3481 4863 
L 3481 0 
L 2906 0 
L 2906 525 
Q 2725 213 2448 61 
Q 2172 -91 1784 -91 
Q 1150 -91 751 415 
Q 353 922 353 1747 
Q 353 2572 751 3078 
Q 1150 3584 1784 3584 
Q 2172 3584 2448 3432 
Q 2725 3281 2906 2969 
z
M 947 1747 
Q 947 1113 1208 752 
Q 1469 391 1925 391 
Q 2381 391 2643 752 
Q 2906 1113 2906 1747 
Q 2906 2381 2643 2742 
Q 2381 3103 1925 3103 
Q 1469 3103 1208 2742 
Q 947 2381 947 1747 
z
" transform="scale(0.015625)"/>
       <path id="DejaVuSans-b1" d="M 2944 4013 
L 2944 2803 
L 4684 2803 
L 4684 2272 
L 2944 2272 
L 2944 1063 
L 2419 1063 
L 2419 2272 
L 678 2272 
L 678 2803 
L 2419 2803 
L 2419 4013 
L 2944 4013 
z
M 678 531 
L 4684 531 
L 4684 0 
L 678 0 
L 678 531 
z
" transform="scale(0.015625)"/>
       <path id="DejaVuSans-44" d="M 1259 4147 
L 1259 519 
L 2022 519 
Q 2988 519 3436 956 
Q 3884 1394 3884 2338 
Q 3884 3275 3436 3711 
Q 2988 4147 2022 4147 
L 1259 4147 
z
M 628 4666 
L 1925 4666 
Q 3281 4666 3915 4102 
Q 4550 3538 4550 2338 
Q 4550 1131 3912 565 
Q 3275 0 1925 0 
L 628 0 
L 628 4666 
z
" transform="scale(0.015625)"/>
       <path id="DejaVuSans-28" d="M 1984 4856 
Q 1566 4138 1362 3434 
Q 1159 2731 1159 2009 
Q 1159 1288 1364 580 
Q 1569 -128 1984 -844 
L 1484 -844 
Q 1016 -109 783 600 
Q 550 1309 550 2009 
Q 550 2706 781 3412 
Q 1013 4119 1484 4856 
L 1984 4856 
z
" transform="scale(0.015625)"/>
       <path id="DejaVuSans-6e" d="M 3513 2113 
L 3513 0 
L 2938 0 
L 2938 2094 
Q 2938 2591 2744 2837 
Q 2550 3084 2163 3084 
Q 1697 3084 1428 2787 
Q 1159 2491 1159 1978 
L 1159 0 
L 581 0 
L 581 3500 
L 1159 3500 
L 1159 2956 
Q 1366 3272 1645 3428 
Q 1925 3584 2291 3584 
Q 2894 3584 3203 3211 
Q 3513 2838 3513 2113 
z
" transform="scale(0.015625)"/>
       <path id="DejaVuSans-3d" d="M 678 2906 
L 4684 2906 
L 4684 2381 
L 678 2381 
L 678 2906 
z
M 678 1631 
L 4684 1631 
L 4684 1100 
L 678 1100 
L 678 1631 
z
" transform="scale(0.015625)"/>
       <path id="DejaVuSans-29" d="M 513 4856 
L 1013 4856 
Q 1481 4119 1714 3412 
Q 1947 2706 1947 2009 
Q 1947 1309 1714 600 
Q 1481 -109 1013 -844 
L 513 -844 
Q 928 -128 1133 580 
Q 1338 1288 1338 2009 
Q 1338 2731 1133 3434 
Q 928 4138 513 4856 
z
" transform="scale(0.015625)"/>
      </defs>
      <use xlink:href="#DejaVuSans-48"/>
      <use xlink:href="#DejaVuSans-43" transform="translate(75.195312 0)"/>
      <use xlink:href="#DejaVuSans-54" transform="translate(145.019531 0)"/>
      <use xlink:href="#DejaVuSans-5a" transform="translate(206.103516 0)"/>
      <use xlink:href="#DejaVuSans-20" transform="translate(274.609375 0)"/>
      <use xlink:href="#DejaVuSans-35" transform="translate(306.396484 0)"/>
      <use xlink:href="#DejaVuSans-30" transform="translate(370.019531 0)"/>
      <use xlink:href="#DejaVuSans-20" transform="translate(433.642578 0)"/>
      <use xlink:href="#DejaVuSans-6d" transform="translate(465.429688 0)"/>
      <use xlink:href="#DejaVuSans-73" transform="translate(562.841797 0)"/>
      <use xlink:href="#DejaVuSans-64" transform="translate(614.941406 0)"/>
      <use xlink:href="#DejaVuSans-b1" transform="translate(678.417969 0)"/>
      <use xlink:href="#DejaVuSans-53" transform="translate(762.207031 0)"/>
      <use xlink:href="#DejaVuSans-44" transform="translate(825.683594 0)"/>
      <use xlink:href="#DejaVuSans-20" transform="translate(902.685547 0)"/>
      <use xlink:href="#DejaVuSans-28" transform="translate(934.472656 0)"/>
      <use xlink:href="#DejaVuSans-6e" transform="translate(973.486328 0)"/>
      <use xlink:href="#DejaVuSans-3d" transform="translate(1036.865234 0)"/>
      <use xlink:href="#DejaVuSans-32" transform="translate(1120.654297 0)"/>
      <use xlink:href="#DejaVuSans-30" transform="translate(1184.277344 0)"/>
      <use xlink:href="#DejaVuSans-29" transform="translate(1247.900391 0)"/>
     </g>
    </g>
    <g id="line2d_23">
     <path d="M 293.783875 121.654687 
L 313.783875 121.654687 
" style="fill: none; stroke: #000000; stroke-width: 2; stroke-linecap: square"/>
    </g>
    <g id="line2d_24"/>
    <g id="text_19">
     <!-- Sim hctz50 -->
     <g transform="translate(321.783875 125.154687) scale(0.1 -0.1)">
      <use xlink:href="#DejaVuSans-53"/>
      <use xlink:href="#DejaVuSans-69" transform="translate(63.476562 0)"/>
      <use xlink:href="#DejaVuSans-6d" transform="translate(91.259766 0)"/>
      <use xlink:href="#DejaVuSans-20" transform="translate(188.671875 0)"/>
      <use xlink:href="#DejaVuSans-68" transform="translate(220.458984 0)"/>
      <use xlink:href="#DejaVuSans-63" transform="translate(283.837891 0)"/>
      <use xlink:href="#DejaVuSans-74" transform="translate(338.818359 0)"/>
      <use xlink:href="#DejaVuSans-7a" transform="translate(378.027344 0)"/>
      <use xlink:href="#DejaVuSans-35" transform="translate(430.517578 0)"/>
      <use xlink:href="#DejaVuSans-30" transform="translate(494.140625 0)"/>
     </g>
    </g>
    <g id="LineCollection_4">
     <path d="M 303.783875 141.332812 
L 303.783875 131.332812 
" style="fill: none; stroke: #2ca02c"/>
    </g>
    <g id="line2d_25">
     <path d="M 293.783875 136.332812 
L 313.783875 136.332812 
" style="fill: none; stroke-dasharray: 3.7,1.6; stroke-dashoffset: 0; stroke: #2ca02c"/>
    </g>
    <g id="line2d_26">
     <g>
      <use xlink:href="#m953099510b" x="303.783875" y="136.332812" style="fill: #2ca02c; stroke: #000000; stroke-linejoin: miter"/>
     </g>
    </g>
    <g id="text_20">
     <!-- HCTZ 50 stanlab±SD (n=20) -->
     <g transform="translate(321.783875 139.832812) scale(0.1 -0.1)">
      <defs>
       <path id="DejaVuSans-61" d="M 2194 1759 
Q 1497 1759 1228 1600 
Q 959 1441 959 1056 
Q 959 750 1161 570 
Q 1363 391 1709 391 
Q 2188 391 2477 730 
Q 2766 1069 2766 1631 
L 2766 1759 
L 2194 1759 
z
M 3341 1997 
L 3341 0 
L 2766 0 
L 2766 531 
Q 2569 213 2275 61 
Q 1981 -91 1556 -91 
Q 1019 -91 701 211 
Q 384 513 384 1019 
Q 384 1609 779 1909 
Q 1175 2209 1959 2209 
L 2766 2209 
L 2766 2266 
Q 2766 2663 2505 2880 
Q 2244 3097 1772 3097 
Q 1472 3097 1187 3025 
Q 903 2953 641 2809 
L 641 3341 
Q 956 3463 1253 3523 
Q 1550 3584 1831 3584 
Q 2591 3584 2966 3190 
Q 3341 2797 3341 1997 
z
" transform="scale(0.015625)"/>
       <path id="DejaVuSans-6c" d="M 603 4863 
L 1178 4863 
L 1178 0 
L 603 0 
L 603 4863 
z
" transform="scale(0.015625)"/>
       <path id="DejaVuSans-62" d="M 3116 1747 
Q 3116 2381 2855 2742 
Q 2594 3103 2138 3103 
Q 1681 3103 1420 2742 
Q 1159 2381 1159 1747 
Q 1159 1113 1420 752 
Q 1681 391 2138 391 
Q 2594 391 2855 752 
Q 3116 1113 3116 1747 
z
M 1159 2969 
Q 1341 3281 1617 3432 
Q 1894 3584 2278 3584 
Q 2916 3584 3314 3078 
Q 3713 2572 3713 1747 
Q 3713 922 3314 415 
Q 2916 -91 2278 -91 
Q 1894 -91 1617 61 
Q 1341 213 1159 525 
L 1159 0 
L 581 0 
L 581 4863 
L 1159 4863 
L 1159 2969 
z
" transform="scale(0.015625)"/>
      </defs>
      <use xlink:href="#DejaVuSans-48"/>
      <use xlink:href="#DejaVuSans-43" transform="translate(75.195312 0)"/>
      <use xlink:href="#DejaVuSans-54" transform="translate(145.019531 0)"/>
      <use xlink:href="#DejaVuSans-5a" transform="translate(206.103516 0)"/>
      <use xlink:href="#DejaVuSans-20" transform="translate(274.609375 0)"/>
      <use xlink:href="#DejaVuSans-35" transform="translate(306.396484 0)"/>
      <use xlink:href="#DejaVuSans-30" transform="translate(370.019531 0)"/>
      <use xlink:href="#DejaVuSans-20" transform="translate(433.642578 0)"/>
      <use xlink:href="#DejaVuSans-73" transform="translate(465.429688 0)"/>
      <use xlink:href="#DejaVuSans-74" transform="translate(517.529297 0)"/>
      <use xlink:href="#DejaVuSans-61" transform="translate(556.738281 0)"/>
      <use xlink:href="#DejaVuSans-6e" transform="translate(618.017578 0)"/>
      <use xlink:href="#DejaVuSans-6c" transform="translate(681.396484 0)"/>
      <use xlink:href="#DejaVuSans-61" transform="translate(709.179688 0)"/>
      <use xlink:href="#DejaVuSans-62" transform="translate(770.458984 0)"/>
      <use xlink:href="#DejaVuSans-b1" transform="translate(833.935547 0)"/>
      <use xlink:href="#DejaVuSans-53" transform="translate(917.724609 0)"/>
      <use xlink:href="#DejaVuSans-44" transform="translate(981.201172 0)"/>
      <use xlink:href="#DejaVuSans-20" transform="translate(1058.203125 0)"/>
      <use xlink:href="#DejaVuSans-28" transform="translate(1089.990234 0)"/>
      <use xlink:href="#DejaVuSans-6e" transform="translate(1129.003906 0)"/>
      <use xlink:href="#DejaVuSans-3d" transform="translate(1192.382812 0)"/>
      <use xlink:href="#DejaVuSans-32" transform="translate(1276.171875 0)"/>
      <use xlink:href="#DejaVuSans-30" transform="translate(1339.794922 0)"/>
      <use xlink:href="#DejaVuSans-29" transform="translate(1403.417969 0)"/>
     </g>
    </g>
   </g>
  </g>
  <g id="axes_2">
   <g id="patch_8">
    <path d="M 84.427625 633.6 
L 475.027625 633.6 
L 475.027625 392.556522 
L 84.427625 392.556522 
z
" style="fill: #ffffff"/>
   </g>
   <g id="matplotlib.axis_3">
    <g id="xtick_7">
     <g id="line2d_27">
      <g>
       <use xlink:href="#ma90ff04bb2" x="102.18217" y="633.6" style="stroke: #000000; stroke-width: 0.8"/>
      </g>
     </g>
     <g id="text_21">
      <!-- 0 -->
      <g transform="translate(97.410295 651.997656) scale(0.15 -0.15)">
       <use xlink:href="#DejaVuSans-30"/>
      </g>
     </g>
    </g>
    <g id="xtick_8">
     <g id="line2d_28">
      <g>
       <use xlink:href="#ma90ff04bb2" x="173.200352" y="633.6" style="stroke: #000000; stroke-width: 0.8"/>
      </g>
     </g>
     <g id="text_22">
      <!-- 10 -->
      <g transform="translate(163.656602 651.997656) scale(0.15 -0.15)">
       <use xlink:href="#DejaVuSans-31"/>
       <use xlink:href="#DejaVuSans-30" transform="translate(63.623047 0)"/>
      </g>
     </g>
    </g>
    <g id="xtick_9">
     <g id="line2d_29">
      <g>
       <use xlink:href="#ma90ff04bb2" x="244.218534" y="633.6" style="stroke: #000000; stroke-width: 0.8"/>
      </g>
     </g>
     <g id="text_23">
      <!-- 20 -->
      <g transform="translate(234.674784 651.997656) scale(0.15 -0.15)">
       <use xlink:href="#DejaVuSans-32"/>
       <use xlink:href="#DejaVuSans-30" transform="translate(63.623047 0)"/>
      </g>
     </g>
    </g>
    <g id="xtick_10">
     <g id="line2d_30">
      <g>
       <use xlink:href="#ma90ff04bb2" x="315.236716" y="633.6" style="stroke: #000000; stroke-width: 0.8"/>
      </g>
     </g>
     <g id="text_24">
      <!-- 30 -->
      <g transform="translate(305.692966 651.997656) scale(0.15 -0.15)">
       <use xlink:href="#DejaVuSans-33"/>
       <use xlink:href="#DejaVuSans-30" transform="translate(63.623047 0)"/>
      </g>
     </g>
    </g>
    <g id="xtick_11">
     <g id="line2d_31">
      <g>
       <use xlink:href="#ma90ff04bb2" x="386.254898" y="633.6" style="stroke: #000000; stroke-width: 0.8"/>
      </g>
     </g>
     <g id="text_25">
      <!-- 40 -->
      <g transform="translate(376.711148 651.997656) scale(0.15 -0.15)">
       <use xlink:href="#DejaVuSans-34"/>
       <use xlink:href="#DejaVuSans-30" transform="translate(63.623047 0)"/>
      </g>
     </g>
    </g>
    <g id="xtick_12">
     <g id="line2d_32">
      <g>
       <use xlink:href="#ma90ff04bb2" x="457.27308" y="633.6" style="stroke: #000000; stroke-width: 0.8"/>
      </g>
     </g>
     <g id="text_26">
      <!-- 50 -->
      <g transform="translate(447.72933 651.997656) scale(0.15 -0.15)">
       <use xlink:href="#DejaVuSans-35"/>
       <use xlink:href="#DejaVuSans-30" transform="translate(63.623047 0)"/>
      </g>
     </g>
    </g>
    <g id="text_27">
     <!-- time [hr] -->
     <g transform="translate(234.653094 672.794375) scale(0.18 -0.18)">
      <use xlink:href="#DejaVuSans-Bold-74"/>
      <use xlink:href="#DejaVuSans-Bold-69" transform="translate(47.802734 0)"/>
      <use xlink:href="#DejaVuSans-Bold-6d" transform="translate(82.080078 0)"/>
      <use xlink:href="#DejaVuSans-Bold-65" transform="translate(186.279297 0)"/>
      <use xlink:href="#DejaVuSans-Bold-20" transform="translate(254.101562 0)"/>
      <use xlink:href="#DejaVuSans-Bold-5b" transform="translate(288.916016 0)"/>
      <use xlink:href="#DejaVuSans-Bold-68" transform="translate(334.619141 0)"/>
      <use xlink:href="#DejaVuSans-Bold-72" transform="translate(405.810547 0)"/>
      <use xlink:href="#DejaVuSans-Bold-5d" transform="translate(455.126953 0)"/>
     </g>
    </g>
   </g>
   <g id="matplotlib.axis_4">
    <g id="ytick_9">
     <g id="line2d_33">
      <g>
       <use xlink:href="#mb02e4c4c1f" x="84.427625" y="621.884366" style="stroke: #000000; stroke-width: 0.8"/>
      </g>
     </g>
     <g id="text_28">
      <!-- 0 -->
      <g transform="translate(67.883875 627.583194) scale(0.15 -0.15)">
       <use xlink:href="#DejaVuSans-30"/>
      </g>
     </g>
    </g>
    <g id="ytick_10">
     <g id="line2d_34">
      <g>
       <use xlink:href="#mb02e4c4c1f" x="84.427625" y="584.219741" style="stroke: #000000; stroke-width: 0.8"/>
      </g>
     </g>
     <g id="text_29">
      <!-- 50 -->
      <g transform="translate(58.340125 589.918569) scale(0.15 -0.15)">
       <use xlink:href="#DejaVuSans-35"/>
       <use xlink:href="#DejaVuSans-30" transform="translate(63.623047 0)"/>
      </g>
     </g>
    </g>
    <g id="ytick_11">
     <g id="line2d_35">
      <g>
       <use xlink:href="#mb02e4c4c1f" x="84.427625" y="546.555116" style="stroke: #000000; stroke-width: 0.8"/>
      </g>
     </g>
     <g id="text_30">
      <!-- 100 -->
      <g transform="translate(48.796375 552.253944) scale(0.15 -0.15)">
       <use xlink:href="#DejaVuSans-31"/>
       <use xlink:href="#DejaVuSans-30" transform="translate(63.623047 0)"/>
       <use xlink:href="#DejaVuSans-30" transform="translate(127.246094 0)"/>
      </g>
     </g>
    </g>
    <g id="ytick_12">
     <g id="line2d_36">
      <g>
       <use xlink:href="#mb02e4c4c1f" x="84.427625" y="508.890491" style="stroke: #000000; stroke-width: 0.8"/>
      </g>
     </g>
     <g id="text_31">
      <!-- 150 -->
      <g transform="translate(48.796375 514.589319) scale(0.15 -0.15)">
       <use xlink:href="#DejaVuSans-31"/>
       <use xlink:href="#DejaVuSans-35" transform="translate(63.623047 0)"/>
       <use xlink:href="#DejaVuSans-30" transform="translate(127.246094 0)"/>
      </g>
     </g>
    </g>
    <g id="ytick_13">
     <g id="line2d_37">
      <g>
       <use xlink:href="#mb02e4c4c1f" x="84.427625" y="471.225866" style="stroke: #000000; stroke-width: 0.8"/>
      </g>
     </g>
     <g id="text_32">
      <!-- 200 -->
      <g transform="translate(48.796375 476.924694) scale(0.15 -0.15)">
       <use xlink:href="#DejaVuSans-32"/>
       <use xlink:href="#DejaVuSans-30" transform="translate(63.623047 0)"/>
       <use xlink:href="#DejaVuSans-30" transform="translate(127.246094 0)"/>
      </g>
     </g>
    </g>
    <g id="ytick_14">
     <g id="line2d_38">
      <g>
       <use xlink:href="#mb02e4c4c1f" x="84.427625" y="433.561241" style="stroke: #000000; stroke-width: 0.8"/>
      </g>
     </g>
     <g id="text_33">
      <!-- 250 -->
      <g transform="translate(48.796375 439.260069) scale(0.15 -0.15)">
       <use xlink:href="#DejaVuSans-32"/>
       <use xlink:href="#DejaVuSans-35" transform="translate(63.623047 0)"/>
       <use xlink:href="#DejaVuSans-30" transform="translate(127.246094 0)"/>
      </g>
     </g>
    </g>
    <g id="ytick_15">
     <g id="line2d_39">
      <g>
       <use xlink:href="#mb02e4c4c1f" x="84.427625" y="395.896616" style="stroke: #000000; stroke-width: 0.8"/>
      </g>
     </g>
     <g id="text_34">
      <!-- 300 -->
      <g transform="translate(48.796375 401.595444) scale(0.15 -0.15)">
       <use xlink:href="#DejaVuSans-33"/>
       <use xlink:href="#DejaVuSans-30" transform="translate(63.623047 0)"/>
       <use xlink:href="#DejaVuSans-30" transform="translate(127.246094 0)"/>
      </g>
     </g>
    </g>
    <g id="text_35">
     <!-- HCTZ urine -->
     <g transform="translate(20.877188 569.45623) rotate(-90) scale(0.18 -0.18)">
      <defs>
       <path id="DejaVuSans-Bold-75" d="M 500 1363 
L 500 3500 
L 1625 3500 
L 1625 3150 
Q 1625 2866 1622 2436 
Q 1619 2006 1619 1863 
Q 1619 1441 1641 1255 
Q 1663 1069 1716 984 
Q 1784 875 1895 815 
Q 2006 756 2150 756 
Q 2500 756 2700 1025 
Q 2900 1294 2900 1772 
L 2900 3500 
L 4019 3500 
L 4019 0 
L 2900 0 
L 2900 506 
Q 2647 200 2364 54 
Q 2081 -91 1741 -91 
Q 1134 -91 817 281 
Q 500 653 500 1363 
z
" transform="scale(0.015625)"/>
       <path id="DejaVuSans-Bold-6e" d="M 4056 2131 
L 4056 0 
L 2931 0 
L 2931 347 
L 2931 1631 
Q 2931 2084 2911 2256 
Q 2891 2428 2841 2509 
Q 2775 2619 2662 2680 
Q 2550 2741 2406 2741 
Q 2056 2741 1856 2470 
Q 1656 2200 1656 1722 
L 1656 0 
L 538 0 
L 538 3500 
L 1656 3500 
L 1656 2988 
Q 1909 3294 2193 3439 
Q 2478 3584 2822 3584 
Q 3428 3584 3742 3212 
Q 4056 2841 4056 2131 
z
" transform="scale(0.015625)"/>
      </defs>
      <use xlink:href="#DejaVuSans-Bold-48"/>
      <use xlink:href="#DejaVuSans-Bold-43" transform="translate(83.691406 0)"/>
      <use xlink:href="#DejaVuSans-Bold-54" transform="translate(157.080078 0)"/>
      <use xlink:href="#DejaVuSans-Bold-5a" transform="translate(225.292969 0)"/>
      <use xlink:href="#DejaVuSans-Bold-20" transform="translate(297.802734 0)"/>
      <use xlink:href="#DejaVuSans-Bold-75" transform="translate(332.617188 0)"/>
      <use xlink:href="#DejaVuSans-Bold-72" transform="translate(403.808594 0)"/>
      <use xlink:href="#DejaVuSans-Bold-69" transform="translate(453.125 0)"/>
      <use xlink:href="#DejaVuSans-Bold-6e" transform="translate(487.402344 0)"/>
      <use xlink:href="#DejaVuSans-Bold-65" transform="translate(558.59375 0)"/>
     </g>
     <!--  [µmol] -->
     <g transform="translate(41.03325 549.706855) rotate(-90) scale(0.18 -0.18)">
      <defs>
       <path id="DejaVuSans-Bold-6f" d="M 2203 2784 
Q 1831 2784 1636 2517 
Q 1441 2250 1441 1747 
Q 1441 1244 1636 976 
Q 1831 709 2203 709 
Q 2569 709 2762 976 
Q 2956 1244 2956 1747 
Q 2956 2250 2762 2517 
Q 2569 2784 2203 2784 
z
M 2203 3584 
Q 3106 3584 3614 3096 
Q 4122 2609 4122 1747 
Q 4122 884 3614 396 
Q 3106 -91 2203 -91 
Q 1297 -91 786 396 
Q 275 884 275 1747 
Q 275 2609 786 3096 
Q 1297 3584 2203 3584 
z
" transform="scale(0.015625)"/>
       <path id="DejaVuSans-Bold-6c" d="M 538 4863 
L 1656 4863 
L 1656 0 
L 538 0 
L 538 4863 
z
" transform="scale(0.015625)"/>
      </defs>
      <use xlink:href="#DejaVuSans-Bold-20"/>
      <use xlink:href="#DejaVuSans-Bold-5b" transform="translate(34.814453 0)"/>
      <use xlink:href="#DejaVuSans-Bold-b5" transform="translate(80.517578 0)"/>
      <use xlink:href="#DejaVuSans-Bold-6d" transform="translate(154.101562 0)"/>
      <use xlink:href="#DejaVuSans-Bold-6f" transform="translate(258.300781 0)"/>
      <use xlink:href="#DejaVuSans-Bold-6c" transform="translate(327.001953 0)"/>
      <use xlink:href="#DejaVuSans-Bold-5d" transform="translate(361.279297 0)"/>
     </g>
    </g>
   </g>
   <g id="LineCollection_5">
    <path d="M 109.283989 622.643478 
L 109.283989 604.930857 
" clip-path="url(#pb568e42c05)" style="fill: none; stroke: #1f77b4"/>
    <path d="M 116.385807 601.135295 
L 116.385807 574.313325 
" clip-path="url(#pb568e42c05)" style="fill: none; stroke: #1f77b4"/>
    <path d="M 123.487625 576.337624 
L 123.487625 545.467055 
" clip-path="url(#pb568e42c05)" style="fill: none; stroke: #1f77b4"/>
    <path d="M 130.589443 558.118928 
L 130.589443 514.596486 
" clip-path="url(#pb568e42c05)" style="fill: none; stroke: #1f77b4"/>
    <path d="M 144.79308 532.815182 
L 144.79308 490.810965 
" clip-path="url(#pb568e42c05)" style="fill: none; stroke: #1f77b4"/>
    <path d="M 158.996716 516.11471 
L 158.996716 473.098343 
" clip-path="url(#pb568e42c05)" style="fill: none; stroke: #1f77b4"/>
    <path d="M 187.403989 501.944613 
L 187.403989 450.831047 
" clip-path="url(#pb568e42c05)" style="fill: none; stroke: #1f77b4"/>
    <path d="M 272.625807 475.628718 
L 272.625807 426.539452 
" clip-path="url(#pb568e42c05)" style="fill: none; stroke: #1f77b4"/>
    <path d="M 443.069443 459.434321 
L 443.069443 407.81468 
" clip-path="url(#pb568e42c05)" style="fill: none; stroke: #1f77b4"/>
   </g>
   <g id="LineCollection_6">
    <path d="M 109.283989 622.137403 
L 109.283989 606.955156 
" clip-path="url(#pb568e42c05)" style="fill: none; stroke: #2ca02c"/>
    <path d="M 116.385807 603.665669 
L 116.385807 570.264725 
" clip-path="url(#pb568e42c05)" style="fill: none; stroke: #2ca02c"/>
    <path d="M 123.487625 578.361924 
L 123.487625 540.912381 
" clip-path="url(#pb568e42c05)" style="fill: none; stroke: #2ca02c"/>
    <path d="M 130.589443 552.805141 
L 130.589443 516.873823 
" clip-path="url(#pb568e42c05)" style="fill: none; stroke: #2ca02c"/>
    <path d="M 144.79308 525.983171 
L 144.79308 488.533628 
" clip-path="url(#pb568e42c05)" style="fill: none; stroke: #2ca02c"/>
    <path d="M 158.996716 509.029662 
L 158.996716 469.049744 
" clip-path="url(#pb568e42c05)" style="fill: none; stroke: #2ca02c"/>
    <path d="M 187.403989 492.32919 
L 187.403989 447.288523 
" clip-path="url(#pb568e42c05)" style="fill: none; stroke: #2ca02c"/>
    <path d="M 272.625807 467.278482 
L 272.625807 418.695291 
" clip-path="url(#pb568e42c05)" style="fill: none; stroke: #2ca02c"/>
    <path d="M 443.069443 451.59016 
L 443.069443 403.513043 
" clip-path="url(#pb568e42c05)" style="fill: none; stroke: #2ca02c"/>
   </g>
   <g id="line2d_40">
    <path d="M 102.18217 621.884366 
L 103.602534 621.80547 
L 105.022898 621.399024 
L 106.443261 620.60901 
L 107.863625 619.484715 
L 109.283989 618.099091 
L 111.414534 615.680926 
L 114.965443 611.175907 
L 122.777443 601.07797 
L 127.038534 595.968931 
L 131.299625 591.237168 
L 135.560716 586.878916 
L 139.821807 582.87226 
L 144.082898 579.190216 
L 148.343989 575.805597 
L 152.60508 572.692701 
L 156.86617 569.827798 
L 161.837443 566.769996 
L 166.808716 563.989094 
L 171.779989 561.457156 
L 177.461443 558.8364 
L 183.142898 556.475052 
L 188.824352 554.343863 
L 195.215989 552.189397 
L 201.607625 550.261521 
L 208.709443 548.351361 
L 216.521443 546.494289 
L 225.043625 544.717755 
L 234.275989 543.041307 
L 244.218534 541.477155 
L 254.871261 540.031142 
L 266.944352 538.627393 
L 280.437807 537.296704 
L 295.351625 536.057987 
L 312.395989 534.875344 
L 331.570898 533.773787 
L 353.586534 532.736177 
L 379.15308 531.760162 
L 408.980716 530.852724 
L 443.779625 530.026097 
L 457.27308 529.758329 
L 457.27308 529.758329 
" clip-path="url(#pb568e42c05)" style="fill: none; stroke: #000000; stroke-width: 2; stroke-linecap: square"/>
   </g>
   <g id="line2d_41">
    <path d="M 109.283989 613.787167 
L 116.385807 587.72431 
L 123.487625 560.90234 
L 130.589443 536.357707 
L 144.79308 511.813074 
L 158.996716 494.606527 
L 187.403989 476.38783 
L 272.625807 451.084085 
L 443.069443 433.6245 
" clip-path="url(#pb568e42c05)" style="fill: none; stroke-dasharray: 3.7,1.6; stroke-dashoffset: 0; stroke: #1f77b4"/>
    <g clip-path="url(#pb568e42c05)">
     <use xlink:href="#mfb85b89542" x="109.283989" y="613.787167" style="fill: #1f77b4; stroke: #000000; stroke-linejoin: miter"/>
     <use xlink:href="#mfb85b89542" x="116.385807" y="587.72431" style="fill: #1f77b4; stroke: #000000; stroke-linejoin: miter"/>
     <use xlink:href="#mfb85b89542" x="123.487625" y="560.90234" style="fill: #1f77b4; stroke: #000000; stroke-linejoin: miter"/>
     <use xlink:href="#mfb85b89542" x="130.589443" y="536.357707" style="fill: #1f77b4; stroke: #000000; stroke-linejoin: miter"/>
     <use xlink:href="#mfb85b89542" x="144.79308" y="511.813074" style="fill: #1f77b4; stroke: #000000; stroke-linejoin: miter"/>
     <use xlink:href="#mfb85b89542" x="158.996716" y="494.606527" style="fill: #1f77b4; stroke: #000000; stroke-linejoin: miter"/>
     <use xlink:href="#mfb85b89542" x="187.403989" y="476.38783" style="fill: #1f77b4; stroke: #000000; stroke-linejoin: miter"/>
     <use xlink:href="#mfb85b89542" x="272.625807" y="451.084085" style="fill: #1f77b4; stroke: #000000; stroke-linejoin: miter"/>
     <use xlink:href="#mfb85b89542" x="443.069443" y="433.6245" style="fill: #1f77b4; stroke: #000000; stroke-linejoin: miter"/>
    </g>
   </g>
   <g id="line2d_42">
    <path d="M 102.18217 621.884366 
L 103.602534 621.80547 
L 105.022898 621.399024 
L 106.443261 620.60901 
L 107.863625 619.484715 
L 109.283989 618.099091 
L 111.414534 615.680926 
L 114.965443 611.175907 
L 122.777443 601.07797 
L 127.038534 595.968931 
L 131.299625 591.237168 
L 135.560716 586.878916 
L 139.821807 582.87226 
L 144.082898 579.190216 
L 148.343989 575.805597 
L 152.60508 572.692701 
L 156.86617 569.827798 
L 161.837443 566.769996 
L 166.808716 563.989094 
L 171.779989 561.457156 
L 177.461443 558.8364 
L 183.142898 556.475052 
L 188.824352 554.343863 
L 195.215989 552.189397 
L 201.607625 550.261521 
L 208.709443 548.351361 
L 216.521443 546.494289 
L 225.043625 544.717755 
L 234.275989 543.041307 
L 244.218534 541.477155 
L 254.871261 540.031142 
L 266.944352 538.627393 
L 280.437807 537.296704 
L 295.351625 536.057987 
L 312.395989 534.875344 
L 331.570898 533.773787 
L 353.586534 532.736177 
L 379.15308 531.760162 
L 408.980716 530.852724 
L 443.779625 530.026097 
L 457.27308 529.758329 
L 457.27308 529.758329 
" clip-path="url(#pb568e42c05)" style="fill: none; stroke: #000000; stroke-width: 2; stroke-linecap: square"/>
   </g>
   <g id="line2d_43">
    <path d="M 109.283989 614.54628 
L 116.385807 586.965197 
L 123.487625 559.637152 
L 130.589443 534.839482 
L 144.79308 507.258399 
L 158.996716 489.039703 
L 187.403989 469.808856 
L 272.625807 442.986886 
L 443.069443 427.551602 
" clip-path="url(#pb568e42c05)" style="fill: none; stroke-dasharray: 3.7,1.6; stroke-dashoffset: 0; stroke: #2ca02c"/>
    <g clip-path="url(#pb568e42c05)">
     <use xlink:href="#m953099510b" x="109.283989" y="614.54628" style="fill: #2ca02c; stroke: #000000; stroke-linejoin: miter"/>
     <use xlink:href="#m953099510b" x="116.385807" y="586.965197" style="fill: #2ca02c; stroke: #000000; stroke-linejoin: miter"/>
     <use xlink:href="#m953099510b" x="123.487625" y="559.637152" style="fill: #2ca02c; stroke: #000000; stroke-linejoin: miter"/>
     <use xlink:href="#m953099510b" x="130.589443" y="534.839482" style="fill: #2ca02c; stroke: #000000; stroke-linejoin: miter"/>
     <use xlink:href="#m953099510b" x="144.79308" y="507.258399" style="fill: #2ca02c; stroke: #000000; stroke-linejoin: miter"/>
     <use xlink:href="#m953099510b" x="158.996716" y="489.039703" style="fill: #2ca02c; stroke: #000000; stroke-linejoin: miter"/>
     <use xlink:href="#m953099510b" x="187.403989" y="469.808856" style="fill: #2ca02c; stroke: #000000; stroke-linejoin: miter"/>
     <use xlink:href="#m953099510b" x="272.625807" y="442.986886" style="fill: #2ca02c; stroke: #000000; stroke-linejoin: miter"/>
     <use xlink:href="#m953099510b" x="443.069443" y="427.551602" style="fill: #2ca02c; stroke: #000000; stroke-linejoin: miter"/>
    </g>
   </g>
   <g id="patch_9">
    <path d="M 84.427625 633.6 
L 84.427625 392.556522 
" style="fill: none; stroke: #000000; stroke-width: 0.8; stroke-linejoin: miter; stroke-linecap: square"/>
   </g>
   <g id="patch_10">
    <path d="M 475.027625 633.6 
L 475.027625 392.556522 
" style="fill: none; stroke: #000000; stroke-width: 0.8; stroke-linejoin: miter; stroke-linecap: square"/>
   </g>
   <g id="patch_11">
    <path d="M 84.427625 633.6 
L 475.027625 633.6 
" style="fill: none; stroke: #000000; stroke-width: 0.8; stroke-linejoin: miter; stroke-linecap: square"/>
   </g>
   <g id="patch_12">
    <path d="M 84.427625 392.556522 
L 475.027625 392.556522 
" style="fill: none; stroke: #000000; stroke-width: 0.8; stroke-linejoin: miter; stroke-linecap: square"/>
   </g>
   <g id="legend_2">
    <g id="patch_13">
     <path d="M 291.783875 628.6 
L 468.027625 628.6 
Q 470.027625 628.6 470.027625 626.6 
L 470.027625 568.8875 
Q 470.027625 566.8875 468.027625 566.8875 
L 291.783875 566.8875 
Q 289.783875 566.8875 289.783875 568.8875 
L 289.783875 626.6 
Q 289.783875 628.6 291.783875 628.6 
z
" style="fill: #ffffff; opacity: 0.8; stroke: #cccccc; stroke-linejoin: miter"/>
    </g>
    <g id="line2d_44">
     <path d="M 293.783875 574.985937 
L 313.783875 574.985937 
" style="fill: none; stroke: #000000; stroke-width: 2; stroke-linecap: square"/>
    </g>
    <g id="line2d_45"/>
    <g id="text_36">
     <!-- Sim hctz50 -->
     <g transform="translate(321.783875 578.485937) scale(0.1 -0.1)">
      <use xlink:href="#DejaVuSans-53"/>
      <use xlink:href="#DejaVuSans-69" transform="translate(63.476562 0)"/>
      <use xlink:href="#DejaVuSans-6d" transform="translate(91.259766 0)"/>
      <use xlink:href="#DejaVuSans-20" transform="translate(188.671875 0)"/>
      <use xlink:href="#DejaVuSans-68" transform="translate(220.458984 0)"/>
      <use xlink:href="#DejaVuSans-63" transform="translate(283.837891 0)"/>
      <use xlink:href="#DejaVuSans-74" transform="translate(338.818359 0)"/>
      <use xlink:href="#DejaVuSans-7a" transform="translate(378.027344 0)"/>
      <use xlink:href="#DejaVuSans-35" transform="translate(430.517578 0)"/>
      <use xlink:href="#DejaVuSans-30" transform="translate(494.140625 0)"/>
     </g>
    </g>
    <g id="LineCollection_7">
     <path d="M 303.783875 594.664062 
L 303.783875 584.664062 
" style="fill: none; stroke: #1f77b4"/>
    </g>
    <g id="line2d_46">
     <path d="M 293.783875 589.664062 
L 313.783875 589.664062 
" style="fill: none; stroke-dasharray: 3.7,1.6; stroke-dashoffset: 0; stroke: #1f77b4"/>
    </g>
    <g id="line2d_47">
     <g>
      <use xlink:href="#mfb85b89542" x="303.783875" y="589.664062" style="fill: #1f77b4; stroke: #000000; stroke-linejoin: miter"/>
     </g>
    </g>
    <g id="text_37">
     <!-- HCTZ 50 msd±SD (n=20) -->
     <g transform="translate(321.783875 593.164062) scale(0.1 -0.1)">
      <use xlink:href="#DejaVuSans-48"/>
      <use xlink:href="#DejaVuSans-43" transform="translate(75.195312 0)"/>
      <use xlink:href="#DejaVuSans-54" transform="translate(145.019531 0)"/>
      <use xlink:href="#DejaVuSans-5a" transform="translate(206.103516 0)"/>
      <use xlink:href="#DejaVuSans-20" transform="translate(274.609375 0)"/>
      <use xlink:href="#DejaVuSans-35" transform="translate(306.396484 0)"/>
      <use xlink:href="#DejaVuSans-30" transform="translate(370.019531 0)"/>
      <use xlink:href="#DejaVuSans-20" transform="translate(433.642578 0)"/>
      <use xlink:href="#DejaVuSans-6d" transform="translate(465.429688 0)"/>
      <use xlink:href="#DejaVuSans-73" transform="translate(562.841797 0)"/>
      <use xlink:href="#DejaVuSans-64" transform="translate(614.941406 0)"/>
      <use xlink:href="#DejaVuSans-b1" transform="translate(678.417969 0)"/>
      <use xlink:href="#DejaVuSans-53" transform="translate(762.207031 0)"/>
      <use xlink:href="#DejaVuSans-44" transform="translate(825.683594 0)"/>
      <use xlink:href="#DejaVuSans-20" transform="translate(902.685547 0)"/>
      <use xlink:href="#DejaVuSans-28" transform="translate(934.472656 0)"/>
      <use xlink:href="#DejaVuSans-6e" transform="translate(973.486328 0)"/>
      <use xlink:href="#DejaVuSans-3d" transform="translate(1036.865234 0)"/>
      <use xlink:href="#DejaVuSans-32" transform="translate(1120.654297 0)"/>
      <use xlink:href="#DejaVuSans-30" transform="translate(1184.277344 0)"/>
      <use xlink:href="#DejaVuSans-29" transform="translate(1247.900391 0)"/>
     </g>
    </g>
    <g id="line2d_48">
     <path d="M 293.783875 604.342187 
L 313.783875 604.342187 
" style="fill: none; stroke: #000000; stroke-width: 2; stroke-linecap: square"/>
    </g>
    <g id="line2d_49"/>
    <g id="text_38">
     <!-- Sim hctz50 -->
     <g transform="translate(321.783875 607.842187) scale(0.1 -0.1)">
      <use xlink:href="#DejaVuSans-53"/>
      <use xlink:href="#DejaVuSans-69" transform="translate(63.476562 0)"/>
      <use xlink:href="#DejaVuSans-6d" transform="translate(91.259766 0)"/>
      <use xlink:href="#DejaVuSans-20" transform="translate(188.671875 0)"/>
      <use xlink:href="#DejaVuSans-68" transform="translate(220.458984 0)"/>
      <use xlink:href="#DejaVuSans-63" transform="translate(283.837891 0)"/>
      <use xlink:href="#DejaVuSans-74" transform="translate(338.818359 0)"/>
      <use xlink:href="#DejaVuSans-7a" transform="translate(378.027344 0)"/>
      <use xlink:href="#DejaVuSans-35" transform="translate(430.517578 0)"/>
      <use xlink:href="#DejaVuSans-30" transform="translate(494.140625 0)"/>
     </g>
    </g>
    <g id="LineCollection_8">
     <path d="M 303.783875 624.020312 
L 303.783875 614.020312 
" style="fill: none; stroke: #2ca02c"/>
    </g>
    <g id="line2d_50">
     <path d="M 293.783875 619.020312 
L 313.783875 619.020312 
" style="fill: none; stroke-dasharray: 3.7,1.6; stroke-dashoffset: 0; stroke: #2ca02c"/>
    </g>
    <g id="line2d_51">
     <g>
      <use xlink:href="#m953099510b" x="303.783875" y="619.020312" style="fill: #2ca02c; stroke: #000000; stroke-linejoin: miter"/>
     </g>
    </g>
    <g id="text_39">
     <!-- HCTZ 50 stanlab±SD (n=20) -->
     <g transform="translate(321.783875 622.520312) scale(0.1 -0.1)">
      <use xlink:href="#DejaVuSans-48"/>
      <use xlink:href="#DejaVuSans-43" transform="translate(75.195312 0)"/>
      <use xlink:href="#DejaVuSans-54" transform="translate(145.019531 0)"/>
      <use xlink:href="#DejaVuSans-5a" transform="translate(206.103516 0)"/>
      <use xlink:href="#DejaVuSans-20" transform="translate(274.609375 0)"/>
      <use xlink:href="#DejaVuSans-35" transform="translate(306.396484 0)"/>
      <use xlink:href="#DejaVuSans-30" transform="translate(370.019531 0)"/>
      <use xlink:href="#DejaVuSans-20" transform="translate(433.642578 0)"/>
      <use xlink:href="#DejaVuSans-73" transform="translate(465.429688 0)"/>
      <use xlink:href="#DejaVuSans-74" transform="translate(517.529297 0)"/>
      <use xlink:href="#DejaVuSans-61" transform="translate(556.738281 0)"/>
      <use xlink:href="#DejaVuSans-6e" transform="translate(618.017578 0)"/>
      <use xlink:href="#DejaVuSans-6c" transform="translate(681.396484 0)"/>
      <use xlink:href="#DejaVuSans-61" transform="translate(709.179688 0)"/>
      <use xlink:href="#DejaVuSans-62" transform="translate(770.458984 0)"/>
      <use xlink:href="#DejaVuSans-b1" transform="translate(833.935547 0)"/>
      <use xlink:href="#DejaVuSans-53" transform="translate(917.724609 0)"/>
      <use xlink:href="#DejaVuSans-44" transform="translate(981.201172 0)"/>
      <use xlink:href="#DejaVuSans-20" transform="translate(1058.203125 0)"/>
      <use xlink:href="#DejaVuSans-28" transform="translate(1089.990234 0)"/>
      <use xlink:href="#DejaVuSans-6e" transform="translate(1129.003906 0)"/>
      <use xlink:href="#DejaVuSans-3d" transform="translate(1192.382812 0)"/>
      <use xlink:href="#DejaVuSans-32" transform="translate(1276.171875 0)"/>
      <use xlink:href="#DejaVuSans-30" transform="translate(1339.794922 0)"/>
      <use xlink:href="#DejaVuSans-29" transform="translate(1403.417969 0)"/>
     </g>
    </g>
   </g>
  </g>
  <g id="text_40">
   <!-- Barbhaiya1982a Tab 1 &amp; 2 -->
   <g transform="translate(88.923719 26.196094) scale(0.25 -0.25)">
    <defs>
     <path id="DejaVuSans-Bold-42" d="M 2456 2859 
Q 2741 2859 2887 2984 
Q 3034 3109 3034 3353 
Q 3034 3594 2887 3720 
Q 2741 3847 2456 3847 
L 1791 3847 
L 1791 2859 
L 2456 2859 
z
M 2497 819 
Q 2859 819 3042 972 
Q 3225 1125 3225 1434 
Q 3225 1738 3044 1889 
Q 2863 2041 2497 2041 
L 1791 2041 
L 1791 819 
L 2497 819 
z
M 3616 2497 
Q 4003 2384 4215 2081 
Q 4428 1778 4428 1338 
Q 4428 663 3972 331 
Q 3516 0 2584 0 
L 588 0 
L 588 4666 
L 2394 4666 
Q 3366 4666 3802 4372 
Q 4238 4078 4238 3431 
Q 4238 3091 4078 2852 
Q 3919 2613 3616 2497 
z
" transform="scale(0.015625)"/>
     <path id="DejaVuSans-Bold-61" d="M 2106 1575 
Q 1756 1575 1579 1456 
Q 1403 1338 1403 1106 
Q 1403 894 1545 773 
Q 1688 653 1941 653 
Q 2256 653 2472 879 
Q 2688 1106 2688 1447 
L 2688 1575 
L 2106 1575 
z
M 3816 1997 
L 3816 0 
L 2688 0 
L 2688 519 
Q 2463 200 2181 54 
Q 1900 -91 1497 -91 
Q 953 -91 614 226 
Q 275 544 275 1050 
Q 275 1666 698 1953 
Q 1122 2241 2028 2241 
L 2688 2241 
L 2688 2328 
Q 2688 2594 2478 2717 
Q 2269 2841 1825 2841 
Q 1466 2841 1156 2769 
Q 847 2697 581 2553 
L 581 3406 
Q 941 3494 1303 3539 
Q 1666 3584 2028 3584 
Q 2975 3584 3395 3211 
Q 3816 2838 3816 1997 
z
" transform="scale(0.015625)"/>
     <path id="DejaVuSans-Bold-62" d="M 2400 722 
Q 2759 722 2948 984 
Q 3138 1247 3138 1747 
Q 3138 2247 2948 2509 
Q 2759 2772 2400 2772 
Q 2041 2772 1848 2508 
Q 1656 2244 1656 1747 
Q 1656 1250 1848 986 
Q 2041 722 2400 722 
z
M 1656 2988 
Q 1888 3294 2169 3439 
Q 2450 3584 2816 3584 
Q 3463 3584 3878 3070 
Q 4294 2556 4294 1747 
Q 4294 938 3878 423 
Q 3463 -91 2816 -91 
Q 2450 -91 2169 54 
Q 1888 200 1656 506 
L 1656 0 
L 538 0 
L 538 4863 
L 1656 4863 
L 1656 2988 
z
" transform="scale(0.015625)"/>
     <path id="DejaVuSans-Bold-79" d="M 78 3500 
L 1197 3500 
L 2138 1125 
L 2938 3500 
L 4056 3500 
L 2584 -331 
Q 2363 -916 2067 -1148 
Q 1772 -1381 1288 -1381 
L 641 -1381 
L 641 -647 
L 991 -647 
Q 1275 -647 1404 -556 
Q 1534 -466 1606 -231 
L 1638 -134 
L 78 3500 
z
" transform="scale(0.015625)"/>
     <path id="DejaVuSans-Bold-31" d="M 750 831 
L 1813 831 
L 1813 3847 
L 722 3622 
L 722 4441 
L 1806 4666 
L 2950 4666 
L 2950 831 
L 4013 831 
L 4013 0 
L 750 0 
L 750 831 
z
" transform="scale(0.015625)"/>
     <path id="DejaVuSans-Bold-39" d="M 641 103 
L 641 966 
Q 928 831 1190 764 
Q 1453 697 1709 697 
Q 2247 697 2547 995 
Q 2847 1294 2900 1881 
Q 2688 1725 2447 1647 
Q 2206 1569 1925 1569 
Q 1209 1569 770 1986 
Q 331 2403 331 3084 
Q 331 3838 820 4291 
Q 1309 4744 2131 4744 
Q 3044 4744 3544 4128 
Q 4044 3513 4044 2388 
Q 4044 1231 3459 570 
Q 2875 -91 1856 -91 
Q 1528 -91 1228 -42 
Q 928 6 641 103 
z
M 2125 2350 
Q 2441 2350 2600 2554 
Q 2759 2759 2759 3169 
Q 2759 3575 2600 3781 
Q 2441 3988 2125 3988 
Q 1809 3988 1650 3781 
Q 1491 3575 1491 3169 
Q 1491 2759 1650 2554 
Q 1809 2350 2125 2350 
z
" transform="scale(0.015625)"/>
     <path id="DejaVuSans-Bold-38" d="M 2228 2088 
Q 1891 2088 1709 1903 
Q 1528 1719 1528 1375 
Q 1528 1031 1709 848 
Q 1891 666 2228 666 
Q 2563 666 2741 848 
Q 2919 1031 2919 1375 
Q 2919 1722 2741 1905 
Q 2563 2088 2228 2088 
z
M 1350 2484 
Q 925 2613 709 2878 
Q 494 3144 494 3541 
Q 494 4131 934 4440 
Q 1375 4750 2228 4750 
Q 3075 4750 3515 4442 
Q 3956 4134 3956 3541 
Q 3956 3144 3739 2878 
Q 3522 2613 3097 2484 
Q 3572 2353 3814 2058 
Q 4056 1763 4056 1313 
Q 4056 619 3595 264 
Q 3134 -91 2228 -91 
Q 1319 -91 855 264 
Q 391 619 391 1313 
Q 391 1763 633 2058 
Q 875 2353 1350 2484 
z
M 1631 3419 
Q 1631 3141 1786 2991 
Q 1941 2841 2228 2841 
Q 2509 2841 2662 2991 
Q 2816 3141 2816 3419 
Q 2816 3697 2662 3845 
Q 2509 3994 2228 3994 
Q 1941 3994 1786 3844 
Q 1631 3694 1631 3419 
z
" transform="scale(0.015625)"/>
     <path id="DejaVuSans-Bold-32" d="M 1844 884 
L 3897 884 
L 3897 0 
L 506 0 
L 506 884 
L 2209 2388 
Q 2438 2594 2547 2791 
Q 2656 2988 2656 3200 
Q 2656 3528 2436 3728 
Q 2216 3928 1850 3928 
Q 1569 3928 1234 3808 
Q 900 3688 519 3450 
L 519 4475 
Q 925 4609 1322 4679 
Q 1719 4750 2100 4750 
Q 2938 4750 3402 4381 
Q 3866 4013 3866 3353 
Q 3866 2972 3669 2642 
Q 3472 2313 2841 1759 
L 1844 884 
z
" transform="scale(0.015625)"/>
     <path id="DejaVuSans-Bold-26" d="M 2497 3097 
L 3775 1691 
Q 3941 1909 4027 2181 
Q 4113 2453 4128 2797 
L 5100 2797 
Q 5053 2228 4879 1784 
Q 4706 1341 4397 1006 
L 5313 0 
L 3988 0 
L 3681 341 
Q 3353 122 2990 15 
Q 2628 -91 2222 -91 
Q 1400 -91 892 342 
Q 384 775 384 1459 
Q 384 1916 607 2267 
Q 831 2619 1338 2950 
Q 1206 3116 1143 3281 
Q 1081 3447 1081 3628 
Q 1081 4138 1478 4444 
Q 1875 4750 2534 4750 
Q 2819 4750 3126 4704 
Q 3434 4659 3769 4569 
L 3769 3700 
Q 3475 3850 3212 3922 
Q 2950 3994 2700 3994 
Q 2459 3994 2326 3901 
Q 2194 3809 2194 3641 
Q 2194 3534 2270 3398 
Q 2347 3263 2497 3097 
z
M 1875 2322 
Q 1672 2175 1569 1989 
Q 1466 1803 1466 1581 
Q 1466 1222 1731 969 
Q 1997 716 2369 716 
Q 2578 716 2759 780 
Q 2941 844 3097 972 
L 1875 2322 
z
" transform="scale(0.015625)"/>
    </defs>
    <use xlink:href="#DejaVuSans-Bold-42"/>
    <use xlink:href="#DejaVuSans-Bold-61" transform="translate(76.220703 0)"/>
    <use xlink:href="#DejaVuSans-Bold-72" transform="translate(143.701172 0)"/>
    <use xlink:href="#DejaVuSans-Bold-62" transform="translate(193.017578 0)"/>
    <use xlink:href="#DejaVuSans-Bold-68" transform="translate(264.599609 0)"/>
    <use xlink:href="#DejaVuSans-Bold-61" transform="translate(335.791016 0)"/>
    <use xlink:href="#DejaVuSans-Bold-69" transform="translate(403.271484 0)"/>
    <use xlink:href="#DejaVuSans-Bold-79" transform="translate(437.548828 0)"/>
    <use xlink:href="#DejaVuSans-Bold-61" transform="translate(502.734375 0)"/>
    <use xlink:href="#DejaVuSans-Bold-31" transform="translate(570.214844 0)"/>
    <use xlink:href="#DejaVuSans-Bold-39" transform="translate(639.794922 0)"/>
    <use xlink:href="#DejaVuSans-Bold-38" transform="translate(709.375 0)"/>
    <use xlink:href="#DejaVuSans-Bold-32" transform="translate(778.955078 0)"/>
    <use xlink:href="#DejaVuSans-Bold-61" transform="translate(848.535156 0)"/>
    <use xlink:href="#DejaVuSans-Bold-20" transform="translate(916.015625 0)"/>
    <use xlink:href="#DejaVuSans-Bold-54" transform="translate(950.830078 0)"/>
    <use xlink:href="#DejaVuSans-Bold-61" transform="translate(1006.167969 0)"/>
    <use xlink:href="#DejaVuSans-Bold-62" transform="translate(1073.648438 0)"/>
    <use xlink:href="#DejaVuSans-Bold-20" transform="translate(1145.230469 0)"/>
    <use xlink:href="#DejaVuSans-Bold-31" transform="translate(1180.044922 0)"/>
    <use xlink:href="#DejaVuSans-Bold-20" transform="translate(1249.625 0)"/>
    <use xlink:href="#DejaVuSans-Bold-26" transform="translate(1284.439453 0)"/>
    <use xlink:href="#DejaVuSans-Bold-20" transform="translate(1371.646484 0)"/>
    <use xlink:href="#DejaVuSans-Bold-32" transform="translate(1406.460938 0)"/>
   </g>
  </g>
 </g>
 <defs>
  <clipPath id="p830ebdd01f">
   <rect x="84.427625" y="79.2" width="390.6" height="241.043478"/>
  </clipPath>
  <clipPath id="pb568e42c05">
   <rect x="84.427625" y="392.556522" width="390.6" height="241.043478"/>
  </clipPath>
 </defs>
</svg>
