<?xml version="1.0" encoding="utf-8" standalone="no"?>
<!DOCTYPE svg PUBLIC "-//W3C//DTD SVG 1.1//EN"
  "http://www.w3.org/Graphics/SVG/1.1/DTD/svg11.dtd">
<svg xmlns:xlink="http://www.w3.org/1999/xlink" width="457.275313pt" height="683.737812pt" viewBox="0 0 457.275313 683.737812" xmlns="http://www.w3.org/2000/svg" version="1.1">
 <metadata>
  <rdf:RDF xmlns:dc="http://purl.org/dc/elements/1.1/" xmlns:cc="http://creativecommons.org/ns#" xmlns:rdf="http://www.w3.org/1999/02/22-rdf-syntax-ns#">
   <cc:Work>
    <dc:type rdf:resource="http://purl.org/dc/dcmitype/StillImage"/>
    <dc:date>2025-11-04T18:11:51.236573</dc:date>
    <dc:format>image/svg+xml</dc:format>
    <dc:creator>
     <cc:Agent>
      <dc:title>Matplotlib v3.10.7, https://matplotlib.org/</dc:title>
     </cc:Agent>
    </dc:creator>
   </cc:Work>
  </rdf:RDF>
 </metadata>
 <defs>
  <style type="text/css">*{stroke-linejoin: round; stroke-linecap: butt}</style>
 </defs>
 <g id="figure_1">
  <g id="patch_1">
   <path d="M 0 683.737812 
L 457.275313 683.737812 
L 457.275313 0 
L 0 0 
z
" style="fill: #ffffff"/>
  </g>
  <g id="axes_1">
   <g id="patch_2">
    <path d="M 59.475313 320.243478 
L 450.075312 320.243478 
L 450.075312 79.2 
L 59.475313 79.2 
z
" style="fill: #ffffff"/>
   </g>
   <g id="matplotlib.axis_1">
    <g id="xtick_1">
     <g id="line2d_1">
      <defs>
       <path id="m58883a9c4b" d="M 0 0 
L 0 3.5 
" style="stroke: #000000; stroke-width: 0.8"/>
      </defs>
      <g>
       <use xlink:href="#m58883a9c4b" x="77.229858" y="320.243478" style="stroke: #000000; stroke-width: 0.8"/>
      </g>
     </g>
     <g id="text_1">
      <!-- 0 -->
      <g transform="translate(72.457983 338.641135) scale(0.15 -0.15)">
       <defs>
        <path id="DejaVuSans-30" d="M 2034 4250 
Q 1547 4250 1301 3770 
Q 1056 3291 1056 2328 
Q 1056 1369 1301 889 
Q 1547 409 2034 409 
Q 2525 409 2770 889 
Q 3016 1369 3016 2328 
Q 3016 3291 2770 3770 
Q 2525 4250 2034 4250 
z
M 2034 4750 
Q 2819 4750 3233 4129 
Q 3647 3509 3647 2328 
Q 3647 1150 3233 529 
Q 2819 -91 2034 -91 
Q 1250 -91 836 529 
Q 422 1150 422 2328 
Q 422 3509 836 4129 
Q 1250 4750 2034 4750 
z
" transform="scale(0.015625)"/>
       </defs>
       <use xlink:href="#DejaVuSans-30"/>
      </g>
     </g>
    </g>
    <g id="xtick_2">
     <g id="line2d_2">
      <g>
       <use xlink:href="#m58883a9c4b" x="148.24804" y="320.243478" style="stroke: #000000; stroke-width: 0.8"/>
      </g>
     </g>
     <g id="text_2">
      <!-- 2 -->
      <g transform="translate(143.476165 338.641135) scale(0.15 -0.15)">
       <defs>
        <path id="DejaVuSans-32" d="M 1228 531 
L 3431 531 
L 3431 0 
L 469 0 
L 469 531 
Q 828 903 1448 1529 
Q 2069 2156 2228 2338 
Q 2531 2678 2651 2914 
Q 2772 3150 2772 3378 
Q 2772 3750 2511 3984 
Q 2250 4219 1831 4219 
Q 1534 4219 1204 4116 
Q 875 4013 500 3803 
L 500 4441 
Q 881 4594 1212 4672 
Q 1544 4750 1819 4750 
Q 2544 4750 2975 4387 
Q 3406 4025 3406 3419 
Q 3406 3131 3298 2873 
Q 3191 2616 2906 2266 
Q 2828 2175 2409 1742 
Q 1991 1309 1228 531 
z
" transform="scale(0.015625)"/>
       </defs>
       <use xlink:href="#DejaVuSans-32"/>
      </g>
     </g>
    </g>
    <g id="xtick_3">
     <g id="line2d_3">
      <g>
       <use xlink:href="#m58883a9c4b" x="219.266222" y="320.243478" style="stroke: #000000; stroke-width: 0.8"/>
      </g>
     </g>
     <g id="text_3">
      <!-- 4 -->
      <g transform="translate(214.494347 338.641135) scale(0.15 -0.15)">
       <defs>
        <path id="DejaVuSans-34" d="M 2419 4116 
L 825 1625 
L 2419 1625 
L 2419 4116 
z
M 2253 4666 
L 3047 4666 
L 3047 1625 
L 3713 1625 
L 3713 1100 
L 3047 1100 
L 3047 0 
L 2419 0 
L 2419 1100 
L 313 1100 
L 313 1709 
L 2253 4666 
z
" transform="scale(0.015625)"/>
       </defs>
       <use xlink:href="#DejaVuSans-34"/>
      </g>
     </g>
    </g>
    <g id="xtick_4">
     <g id="line2d_4">
      <g>
       <use xlink:href="#m58883a9c4b" x="290.284403" y="320.243478" style="stroke: #000000; stroke-width: 0.8"/>
      </g>
     </g>
     <g id="text_4">
      <!-- 6 -->
      <g transform="translate(285.512528 338.641135) scale(0.15 -0.15)">
       <defs>
        <path id="DejaVuSans-36" d="M 2113 2584 
Q 1688 2584 1439 2293 
Q 1191 2003 1191 1497 
Q 1191 994 1439 701 
Q 1688 409 2113 409 
Q 2538 409 2786 701 
Q 3034 994 3034 1497 
Q 3034 2003 2786 2293 
Q 2538 2584 2113 2584 
z
M 3366 4563 
L 3366 3988 
Q 3128 4100 2886 4159 
Q 2644 4219 2406 4219 
Q 1781 4219 1451 3797 
Q 1122 3375 1075 2522 
Q 1259 2794 1537 2939 
Q 1816 3084 2150 3084 
Q 2853 3084 3261 2657 
Q 3669 2231 3669 1497 
Q 3669 778 3244 343 
Q 2819 -91 2113 -91 
Q 1303 -91 875 529 
Q 447 1150 447 2328 
Q 447 3434 972 4092 
Q 1497 4750 2381 4750 
Q 2619 4750 2861 4703 
Q 3103 4656 3366 4563 
z
" transform="scale(0.015625)"/>
       </defs>
       <use xlink:href="#DejaVuSans-36"/>
      </g>
     </g>
    </g>
    <g id="xtick_5">
     <g id="line2d_5">
      <g>
       <use xlink:href="#m58883a9c4b" x="361.302585" y="320.243478" style="stroke: #000000; stroke-width: 0.8"/>
      </g>
     </g>
     <g id="text_5">
      <!-- 8 -->
      <g transform="translate(356.53071 338.641135) scale(0.15 -0.15)">
       <defs>
        <path id="DejaVuSans-38" d="M 2034 2216 
Q 1584 2216 1326 1975 
Q 1069 1734 1069 1313 
Q 1069 891 1326 650 
Q 1584 409 2034 409 
Q 2484 409 2743 651 
Q 3003 894 3003 1313 
Q 3003 1734 2745 1975 
Q 2488 2216 2034 2216 
z
M 1403 2484 
Q 997 2584 770 2862 
Q 544 3141 544 3541 
Q 544 4100 942 4425 
Q 1341 4750 2034 4750 
Q 2731 4750 3128 4425 
Q 3525 4100 3525 3541 
Q 3525 3141 3298 2862 
Q 3072 2584 2669 2484 
Q 3125 2378 3379 2068 
Q 3634 1759 3634 1313 
Q 3634 634 3220 271 
Q 2806 -91 2034 -91 
Q 1263 -91 848 271 
Q 434 634 434 1313 
Q 434 1759 690 2068 
Q 947 2378 1403 2484 
z
M 1172 3481 
Q 1172 3119 1398 2916 
Q 1625 2713 2034 2713 
Q 2441 2713 2670 2916 
Q 2900 3119 2900 3481 
Q 2900 3844 2670 4047 
Q 2441 4250 2034 4250 
Q 1625 4250 1398 4047 
Q 1172 3844 1172 3481 
z
" transform="scale(0.015625)"/>
       </defs>
       <use xlink:href="#DejaVuSans-38"/>
      </g>
     </g>
    </g>
    <g id="xtick_6">
     <g id="line2d_6">
      <g>
       <use xlink:href="#m58883a9c4b" x="432.320767" y="320.243478" style="stroke: #000000; stroke-width: 0.8"/>
      </g>
     </g>
     <g id="text_6">
      <!-- 10 -->
      <g transform="translate(422.777017 338.641135) scale(0.15 -0.15)">
       <defs>
        <path id="DejaVuSans-31" d="M 794 531 
L 1825 531 
L 1825 4091 
L 703 3866 
L 703 4441 
L 1819 4666 
L 2450 4666 
L 2450 531 
L 3481 531 
L 3481 0 
L 794 0 
L 794 531 
z
" transform="scale(0.015625)"/>
       </defs>
       <use xlink:href="#DejaVuSans-31"/>
       <use xlink:href="#DejaVuSans-30" transform="translate(63.623047 0)"/>
      </g>
     </g>
    </g>
    <g id="text_7">
     <!-- time [hr] -->
     <g transform="translate(209.700781 359.437853) scale(0.18 -0.18)">
      <defs>
       <path id="DejaVuSans-Bold-74" d="M 1759 4494 
L 1759 3500 
L 2913 3500 
L 2913 2700 
L 1759 2700 
L 1759 1216 
Q 1759 972 1856 886 
Q 1953 800 2241 800 
L 2816 800 
L 2816 0 
L 1856 0 
Q 1194 0 917 276 
Q 641 553 641 1216 
L 641 2700 
L 84 2700 
L 84 3500 
L 641 3500 
L 641 4494 
L 1759 4494 
z
" transform="scale(0.015625)"/>
       <path id="DejaVuSans-Bold-69" d="M 538 3500 
L 1656 3500 
L 1656 0 
L 538 0 
L 538 3500 
z
M 538 4863 
L 1656 4863 
L 1656 3950 
L 538 3950 
L 538 4863 
z
" transform="scale(0.015625)"/>
       <path id="DejaVuSans-Bold-6d" d="M 3781 2919 
Q 3994 3244 4286 3414 
Q 4578 3584 4928 3584 
Q 5531 3584 5847 3212 
Q 6163 2841 6163 2131 
L 6163 0 
L 5038 0 
L 5038 1825 
Q 5041 1866 5042 1909 
Q 5044 1953 5044 2034 
Q 5044 2406 4934 2573 
Q 4825 2741 4581 2741 
Q 4263 2741 4089 2478 
Q 3916 2216 3909 1719 
L 3909 0 
L 2784 0 
L 2784 1825 
Q 2784 2406 2684 2573 
Q 2584 2741 2328 2741 
Q 2006 2741 1831 2477 
Q 1656 2213 1656 1722 
L 1656 0 
L 531 0 
L 531 3500 
L 1656 3500 
L 1656 2988 
Q 1863 3284 2130 3434 
Q 2397 3584 2719 3584 
Q 3081 3584 3359 3409 
Q 3638 3234 3781 2919 
z
" transform="scale(0.015625)"/>
       <path id="DejaVuSans-Bold-65" d="M 4031 1759 
L 4031 1441 
L 1416 1441 
Q 1456 1047 1700 850 
Q 1944 653 2381 653 
Q 2734 653 3104 758 
Q 3475 863 3866 1075 
L 3866 213 
Q 3469 63 3072 -14 
Q 2675 -91 2278 -91 
Q 1328 -91 801 392 
Q 275 875 275 1747 
Q 275 2603 792 3093 
Q 1309 3584 2216 3584 
Q 3041 3584 3536 3087 
Q 4031 2591 4031 1759 
z
M 2881 2131 
Q 2881 2450 2695 2645 
Q 2509 2841 2209 2841 
Q 1884 2841 1681 2658 
Q 1478 2475 1428 2131 
L 2881 2131 
z
" transform="scale(0.015625)"/>
       <path id="DejaVuSans-Bold-20" transform="scale(0.015625)"/>
       <path id="DejaVuSans-Bold-5b" d="M 550 4863 
L 2491 4863 
L 2491 4159 
L 1613 4159 
L 1613 -141 
L 2491 -141 
L 2491 -844 
L 550 -844 
L 550 4863 
z
" transform="scale(0.015625)"/>
       <path id="DejaVuSans-Bold-68" d="M 4056 2131 
L 4056 0 
L 2931 0 
L 2931 347 
L 2931 1625 
Q 2931 2084 2911 2256 
Q 2891 2428 2841 2509 
Q 2775 2619 2662 2680 
Q 2550 2741 2406 2741 
Q 2056 2741 1856 2470 
Q 1656 2200 1656 1722 
L 1656 0 
L 538 0 
L 538 4863 
L 1656 4863 
L 1656 2988 
Q 1909 3294 2193 3439 
Q 2478 3584 2822 3584 
Q 3428 3584 3742 3212 
Q 4056 2841 4056 2131 
z
" transform="scale(0.015625)"/>
       <path id="DejaVuSans-Bold-72" d="M 3138 2547 
Q 2991 2616 2845 2648 
Q 2700 2681 2553 2681 
Q 2122 2681 1889 2404 
Q 1656 2128 1656 1613 
L 1656 0 
L 538 0 
L 538 3500 
L 1656 3500 
L 1656 2925 
Q 1872 3269 2151 3426 
Q 2431 3584 2822 3584 
Q 2878 3584 2943 3579 
Q 3009 3575 3134 3559 
L 3138 2547 
z
" transform="scale(0.015625)"/>
       <path id="DejaVuSans-Bold-5d" d="M 2375 -844 
L 434 -844 
L 434 -141 
L 1313 -141 
L 1313 4159 
L 434 4159 
L 434 4863 
L 2375 4863 
L 2375 -844 
z
" transform="scale(0.015625)"/>
      </defs>
      <use xlink:href="#DejaVuSans-Bold-74"/>
      <use xlink:href="#DejaVuSans-Bold-69" transform="translate(47.802734 0)"/>
      <use xlink:href="#DejaVuSans-Bold-6d" transform="translate(82.080078 0)"/>
      <use xlink:href="#DejaVuSans-Bold-65" transform="translate(186.279297 0)"/>
      <use xlink:href="#DejaVuSans-Bold-20" transform="translate(254.101562 0)"/>
      <use xlink:href="#DejaVuSans-Bold-5b" transform="translate(288.916016 0)"/>
      <use xlink:href="#DejaVuSans-Bold-68" transform="translate(334.619141 0)"/>
      <use xlink:href="#DejaVuSans-Bold-72" transform="translate(405.810547 0)"/>
      <use xlink:href="#DejaVuSans-Bold-5d" transform="translate(455.126953 0)"/>
     </g>
    </g>
   </g>
   <g id="matplotlib.axis_2">
    <g id="ytick_1">
     <g id="line2d_7">
      <defs>
       <path id="me252ebf55e" d="M 0 0 
L -3.5 0 
" style="stroke: #000000; stroke-width: 0.8"/>
      </defs>
      <g>
       <use xlink:href="#me252ebf55e" x="59.475313" y="309.286957" style="stroke: #000000; stroke-width: 0.8"/>
      </g>
     </g>
     <g id="text_8">
      <!-- 0 -->
      <g transform="translate(42.931562 314.985785) scale(0.15 -0.15)">
       <use xlink:href="#DejaVuSans-30"/>
      </g>
     </g>
    </g>
    <g id="ytick_2">
     <g id="line2d_8">
      <g>
       <use xlink:href="#me252ebf55e" x="59.475313" y="270.321866" style="stroke: #000000; stroke-width: 0.8"/>
      </g>
     </g>
     <g id="text_9">
      <!-- 1 -->
      <g transform="translate(42.931562 276.020695) scale(0.15 -0.15)">
       <use xlink:href="#DejaVuSans-31"/>
      </g>
     </g>
    </g>
    <g id="ytick_3">
     <g id="line2d_9">
      <g>
       <use xlink:href="#me252ebf55e" x="59.475313" y="231.356776" style="stroke: #000000; stroke-width: 0.8"/>
      </g>
     </g>
     <g id="text_10">
      <!-- 2 -->
      <g transform="translate(42.931562 237.055605) scale(0.15 -0.15)">
       <use xlink:href="#DejaVuSans-32"/>
      </g>
     </g>
    </g>
    <g id="ytick_4">
     <g id="line2d_10">
      <g>
       <use xlink:href="#me252ebf55e" x="59.475313" y="192.391686" style="stroke: #000000; stroke-width: 0.8"/>
      </g>
     </g>
     <g id="text_11">
      <!-- 3 -->
      <g transform="translate(42.931562 198.090514) scale(0.15 -0.15)">
       <defs>
        <path id="DejaVuSans-33" d="M 2597 2516 
Q 3050 2419 3304 2112 
Q 3559 1806 3559 1356 
Q 3559 666 3084 287 
Q 2609 -91 1734 -91 
Q 1441 -91 1130 -33 
Q 819 25 488 141 
L 488 750 
Q 750 597 1062 519 
Q 1375 441 1716 441 
Q 2309 441 2620 675 
Q 2931 909 2931 1356 
Q 2931 1769 2642 2001 
Q 2353 2234 1838 2234 
L 1294 2234 
L 1294 2753 
L 1863 2753 
Q 2328 2753 2575 2939 
Q 2822 3125 2822 3475 
Q 2822 3834 2567 4026 
Q 2313 4219 1838 4219 
Q 1578 4219 1281 4162 
Q 984 4106 628 3988 
L 628 4550 
Q 988 4650 1302 4700 
Q 1616 4750 1894 4750 
Q 2613 4750 3031 4423 
Q 3450 4097 3450 3541 
Q 3450 3153 3228 2886 
Q 3006 2619 2597 2516 
z
" transform="scale(0.015625)"/>
       </defs>
       <use xlink:href="#DejaVuSans-33"/>
      </g>
     </g>
    </g>
    <g id="ytick_5">
     <g id="line2d_11">
      <g>
       <use xlink:href="#me252ebf55e" x="59.475313" y="153.426596" style="stroke: #000000; stroke-width: 0.8"/>
      </g>
     </g>
     <g id="text_12">
      <!-- 4 -->
      <g transform="translate(42.931562 159.125424) scale(0.15 -0.15)">
       <use xlink:href="#DejaVuSans-34"/>
      </g>
     </g>
    </g>
    <g id="ytick_6">
     <g id="line2d_12">
      <g>
       <use xlink:href="#me252ebf55e" x="59.475313" y="114.461506" style="stroke: #000000; stroke-width: 0.8"/>
      </g>
     </g>
     <g id="text_13">
      <!-- 5 -->
      <g transform="translate(42.931562 120.160334) scale(0.15 -0.15)">
       <defs>
        <path id="DejaVuSans-35" d="M 691 4666 
L 3169 4666 
L 3169 4134 
L 1269 4134 
L 1269 2991 
Q 1406 3038 1543 3061 
Q 1681 3084 1819 3084 
Q 2600 3084 3056 2656 
Q 3513 2228 3513 1497 
Q 3513 744 3044 326 
Q 2575 -91 1722 -91 
Q 1428 -91 1123 -41 
Q 819 9 494 109 
L 494 744 
Q 775 591 1075 516 
Q 1375 441 1709 441 
Q 2250 441 2565 725 
Q 2881 1009 2881 1497 
Q 2881 1984 2565 2268 
Q 2250 2553 1709 2553 
Q 1456 2553 1204 2497 
Q 953 2441 691 2322 
L 691 4666 
z
" transform="scale(0.015625)"/>
       </defs>
       <use xlink:href="#DejaVuSans-35"/>
      </g>
     </g>
    </g>
    <g id="text_14">
     <!-- Urine volume [l] -->
     <g transform="translate(35.188125 281.668145) rotate(-90) scale(0.18 -0.18)">
      <defs>
       <path id="DejaVuSans-Bold-55" d="M 588 4666 
L 1791 4666 
L 1791 1869 
Q 1791 1291 1980 1042 
Q 2169 794 2597 794 
Q 3028 794 3217 1042 
Q 3406 1291 3406 1869 
L 3406 4666 
L 4609 4666 
L 4609 1869 
Q 4609 878 4112 393 
Q 3616 -91 2597 -91 
Q 1581 -91 1084 393 
Q 588 878 588 1869 
L 588 4666 
z
" transform="scale(0.015625)"/>
       <path id="DejaVuSans-Bold-6e" d="M 4056 2131 
L 4056 0 
L 2931 0 
L 2931 347 
L 2931 1631 
Q 2931 2084 2911 2256 
Q 2891 2428 2841 2509 
Q 2775 2619 2662 2680 
Q 2550 2741 2406 2741 
Q 2056 2741 1856 2470 
Q 1656 2200 1656 1722 
L 1656 0 
L 538 0 
L 538 3500 
L 1656 3500 
L 1656 2988 
Q 1909 3294 2193 3439 
Q 2478 3584 2822 3584 
Q 3428 3584 3742 3212 
Q 4056 2841 4056 2131 
z
" transform="scale(0.015625)"/>
       <path id="DejaVuSans-Bold-76" d="M 97 3500 
L 1216 3500 
L 2088 1081 
L 2956 3500 
L 4078 3500 
L 2700 0 
L 1472 0 
L 97 3500 
z
" transform="scale(0.015625)"/>
       <path id="DejaVuSans-Bold-6f" d="M 2203 2784 
Q 1831 2784 1636 2517 
Q 1441 2250 1441 1747 
Q 1441 1244 1636 976 
Q 1831 709 2203 709 
Q 2569 709 2762 976 
Q 2956 1244 2956 1747 
Q 2956 2250 2762 2517 
Q 2569 2784 2203 2784 
z
M 2203 3584 
Q 3106 3584 3614 3096 
Q 4122 2609 4122 1747 
Q 4122 884 3614 396 
Q 3106 -91 2203 -91 
Q 1297 -91 786 396 
Q 275 884 275 1747 
Q 275 2609 786 3096 
Q 1297 3584 2203 3584 
z
" transform="scale(0.015625)"/>
       <path id="DejaVuSans-Bold-6c" d="M 538 4863 
L 1656 4863 
L 1656 0 
L 538 0 
L 538 4863 
z
" transform="scale(0.015625)"/>
       <path id="DejaVuSans-Bold-75" d="M 500 1363 
L 500 3500 
L 1625 3500 
L 1625 3150 
Q 1625 2866 1622 2436 
Q 1619 2006 1619 1863 
Q 1619 1441 1641 1255 
Q 1663 1069 1716 984 
Q 1784 875 1895 815 
Q 2006 756 2150 756 
Q 2500 756 2700 1025 
Q 2900 1294 2900 1772 
L 2900 3500 
L 4019 3500 
L 4019 0 
L 2900 0 
L 2900 506 
Q 2647 200 2364 54 
Q 2081 -91 1741 -91 
Q 1134 -91 817 281 
Q 500 653 500 1363 
z
" transform="scale(0.015625)"/>
      </defs>
      <use xlink:href="#DejaVuSans-Bold-55"/>
      <use xlink:href="#DejaVuSans-Bold-72" transform="translate(81.201172 0)"/>
      <use xlink:href="#DejaVuSans-Bold-69" transform="translate(130.517578 0)"/>
      <use xlink:href="#DejaVuSans-Bold-6e" transform="translate(164.794922 0)"/>
      <use xlink:href="#DejaVuSans-Bold-65" transform="translate(235.986328 0)"/>
      <use xlink:href="#DejaVuSans-Bold-20" transform="translate(303.808594 0)"/>
      <use xlink:href="#DejaVuSans-Bold-76" transform="translate(338.623047 0)"/>
      <use xlink:href="#DejaVuSans-Bold-6f" transform="translate(403.808594 0)"/>
      <use xlink:href="#DejaVuSans-Bold-6c" transform="translate(472.509766 0)"/>
      <use xlink:href="#DejaVuSans-Bold-75" transform="translate(506.787109 0)"/>
      <use xlink:href="#DejaVuSans-Bold-6d" transform="translate(577.978516 0)"/>
      <use xlink:href="#DejaVuSans-Bold-65" transform="translate(682.177734 0)"/>
      <use xlink:href="#DejaVuSans-Bold-20" transform="translate(750 0)"/>
      <use xlink:href="#DejaVuSans-Bold-5b" transform="translate(784.814453 0)"/>
      <use xlink:href="#DejaVuSans-Bold-6c" transform="translate(830.517578 0)"/>
      <use xlink:href="#DejaVuSans-Bold-5d" transform="translate(864.794922 0)"/>
     </g>
    </g>
   </g>
   <g id="LineCollection_1">
    <path d="M 77.229858 309.286957 
L 77.229858 309.286957 
" clip-path="url(#p5177a49bd5)" style="fill: none; stroke: #000000"/>
    <path d="M 432.320767 273.283213 
L 432.320767 251.151042 
" clip-path="url(#p5177a49bd5)" style="fill: none; stroke: #000000"/>
   </g>
   <g id="LineCollection_2">
    <path d="M 77.229858 309.286957 
L 77.229858 309.286957 
" clip-path="url(#p5177a49bd5)" style="fill: none; stroke: #1f77b4"/>
    <path d="M 432.320767 243.474919 
L 432.320767 218.537262 
" clip-path="url(#p5177a49bd5)" style="fill: none; stroke: #1f77b4"/>
   </g>
   <g id="LineCollection_3">
    <path d="M 77.229858 309.286957 
L 77.229858 309.286957 
" clip-path="url(#p5177a49bd5)" style="fill: none; stroke: #ff7f0e"/>
    <path d="M 432.320767 245.92972 
L 432.320767 216.394182 
" clip-path="url(#p5177a49bd5)" style="fill: none; stroke: #ff7f0e"/>
   </g>
   <g id="LineCollection_4">
    <path d="M 77.229858 309.286957 
L 77.229858 309.286957 
" clip-path="url(#p5177a49bd5)" style="fill: none; stroke: #2ca02c"/>
    <path d="M 432.320767 248.0728 
L 432.320767 217.6021 
" clip-path="url(#p5177a49bd5)" style="fill: none; stroke: #2ca02c"/>
   </g>
   <g id="LineCollection_5">
    <path d="M 77.229858 309.286957 
L 77.229858 309.286957 
" clip-path="url(#p5177a49bd5)" style="fill: none; stroke: #ff0000"/>
    <path d="M 432.320767 246.942812 
L 432.320767 212.653533 
" clip-path="url(#p5177a49bd5)" style="fill: none; stroke: #ff0000"/>
   </g>
   <g id="line2d_13">
    <path d="M 77.229858 309.286957 
L 458.275313 269.216018 
L 458.275313 269.216018 
" clip-path="url(#p5177a49bd5)" style="fill: none; stroke: #000000; stroke-width: 2; stroke-linecap: square"/>
   </g>
   <g id="line2d_14">
    <path d="M 77.229858 309.286957 
L 98.535313 306.943416 
L 123.391676 303.93242 
L 247.673494 288.526877 
L 308.038949 281.382892 
L 379.057131 273.212169 
L 458.275313 264.318854 
L 458.275313 264.318854 
" clip-path="url(#p5177a49bd5)" style="fill: none; stroke: #1f77b4; stroke-width: 2; stroke-linecap: square"/>
   </g>
   <g id="line2d_15">
    <path d="M 77.229858 309.286957 
L 91.433494 307.714827 
L 105.637131 305.912145 
L 126.942585 302.919949 
L 219.266222 289.595244 
L 258.326222 284.275285 
L 300.937131 278.687933 
L 350.649858 272.406861 
L 403.913494 265.906971 
L 458.275313 259.468333 
L 458.275313 259.468333 
" clip-path="url(#p5177a49bd5)" style="fill: none; stroke: #ff7f0e; stroke-width: 2; stroke-linecap: square"/>
   </g>
   <g id="line2d_16">
    <path d="M 77.229858 309.286957 
L 87.882585 308.091176 
L 98.535313 306.634394 
L 109.18804 304.937376 
L 123.391676 302.434848 
L 151.798949 297.115741 
L 187.30804 290.527472 
L 215.715313 285.495638 
L 244.122585 280.694731 
L 272.529858 276.107169 
L 304.48804 271.172444 
L 339.997131 265.933756 
L 375.506222 260.91586 
L 414.566222 255.612921 
L 458.275313 249.905436 
L 458.275313 249.905436 
" clip-path="url(#p5177a49bd5)" style="fill: none; stroke: #2ca02c; stroke-width: 2; stroke-linecap: square"/>
   </g>
   <g id="line2d_17">
    <path d="M 77.229858 309.286957 
L 87.882585 308.053413 
L 94.984403 307.015392 
L 102.086222 305.801176 
L 112.738949 303.72254 
L 126.942585 300.648916 
L 155.349858 294.148795 
L 183.757131 287.750933 
L 205.062585 283.162051 
L 226.36804 278.772238 
L 251.224403 273.892506 
L 276.080767 269.251857 
L 300.937131 264.826266 
L 329.344403 260.002787 
L 357.751676 255.400275 
L 389.709858 250.453539 
L 425.218949 245.205919 
L 458.275313 240.523801 
L 458.275313 240.523801 
" clip-path="url(#p5177a49bd5)" style="fill: none; stroke: #ff0000; stroke-width: 2; stroke-linecap: square"/>
   </g>
   <g id="line2d_18">
    <path d="M 77.229858 309.286957 
L 432.320767 262.217128 
" clip-path="url(#p5177a49bd5)" style="fill: none; stroke-dasharray: 3.7,1.6; stroke-dashoffset: 0; stroke: #000000"/>
    <defs>
     <path id="m8c6194ae81" d="M -3 3 
L 3 3 
L 3 -3 
L -3 -3 
z
" style="stroke: #000000; stroke-linejoin: miter"/>
    </defs>
    <g clip-path="url(#p5177a49bd5)">
     <use xlink:href="#m8c6194ae81" x="77.229858" y="309.286957" style="stroke: #000000; stroke-linejoin: miter"/>
     <use xlink:href="#m8c6194ae81" x="432.320767" y="262.217128" style="stroke: #000000; stroke-linejoin: miter"/>
    </g>
   </g>
   <g id="line2d_19">
    <path d="M 77.229858 309.286957 
L 432.320767 231.006091 
" clip-path="url(#p5177a49bd5)" style="fill: none; stroke-dasharray: 3.7,1.6; stroke-dashoffset: 0; stroke: #1f77b4"/>
    <defs>
     <path id="me4a29e38c7" d="M -3 3 
L 3 3 
L 3 -3 
L -3 -3 
z
" style="stroke: #000000; stroke-linejoin: miter"/>
    </defs>
    <g clip-path="url(#p5177a49bd5)">
     <use xlink:href="#me4a29e38c7" x="77.229858" y="309.286957" style="fill: #1f77b4; stroke: #000000; stroke-linejoin: miter"/>
     <use xlink:href="#me4a29e38c7" x="432.320767" y="231.006091" style="fill: #1f77b4; stroke: #000000; stroke-linejoin: miter"/>
    </g>
   </g>
   <g id="line2d_20">
    <path d="M 77.229858 309.286957 
L 432.320767 231.161951 
" clip-path="url(#p5177a49bd5)" style="fill: none; stroke-dasharray: 3.7,1.6; stroke-dashoffset: 0; stroke: #ff7f0e"/>
    <defs>
     <path id="mb8858f2a22" d="M -3 3 
L 3 3 
L 3 -3 
L -3 -3 
z
" style="stroke: #000000; stroke-linejoin: miter"/>
    </defs>
    <g clip-path="url(#p5177a49bd5)">
     <use xlink:href="#mb8858f2a22" x="77.229858" y="309.286957" style="fill: #ff7f0e; stroke: #000000; stroke-linejoin: miter"/>
     <use xlink:href="#mb8858f2a22" x="432.320767" y="231.161951" style="fill: #ff7f0e; stroke: #000000; stroke-linejoin: miter"/>
    </g>
   </g>
   <g id="line2d_21">
    <path d="M 77.229858 309.286957 
L 432.320767 232.83745 
" clip-path="url(#p5177a49bd5)" style="fill: none; stroke-dasharray: 3.7,1.6; stroke-dashoffset: 0; stroke: #2ca02c"/>
    <defs>
     <path id="m8d9e93f891" d="M -3 3 
L 3 3 
L 3 -3 
L -3 -3 
z
" style="stroke: #000000; stroke-linejoin: miter"/>
    </defs>
    <g clip-path="url(#p5177a49bd5)">
     <use xlink:href="#m8d9e93f891" x="77.229858" y="309.286957" style="fill: #2ca02c; stroke: #000000; stroke-linejoin: miter"/>
     <use xlink:href="#m8d9e93f891" x="432.320767" y="232.83745" style="fill: #2ca02c; stroke: #000000; stroke-linejoin: miter"/>
    </g>
   </g>
   <g id="line2d_22">
    <path d="M 77.229858 309.286957 
L 432.320767 229.798173 
" clip-path="url(#p5177a49bd5)" style="fill: none; stroke-dasharray: 3.7,1.6; stroke-dashoffset: 0; stroke: #ff0000"/>
    <defs>
     <path id="m4182ce0a70" d="M -3 3 
L 3 3 
L 3 -3 
L -3 -3 
z
" style="stroke: #000000; stroke-linejoin: miter"/>
    </defs>
    <g clip-path="url(#p5177a49bd5)">
     <use xlink:href="#m4182ce0a70" x="77.229858" y="309.286957" style="fill: #ff0000; stroke: #000000; stroke-linejoin: miter"/>
     <use xlink:href="#m4182ce0a70" x="432.320767" y="229.798173" style="fill: #ff0000; stroke: #000000; stroke-linejoin: miter"/>
    </g>
   </g>
   <g id="patch_3">
    <path d="M 59.475313 320.243478 
L 59.475313 79.2 
" style="fill: none; stroke: #000000; stroke-width: 0.8; stroke-linejoin: miter; stroke-linecap: square"/>
   </g>
   <g id="patch_4">
    <path d="M 450.075312 320.243478 
L 450.075312 79.2 
" style="fill: none; stroke: #000000; stroke-width: 0.8; stroke-linejoin: miter; stroke-linecap: square"/>
   </g>
   <g id="patch_5">
    <path d="M 59.475312 320.243478 
L 450.075313 320.243478 
" style="fill: none; stroke: #000000; stroke-width: 0.8; stroke-linejoin: miter; stroke-linecap: square"/>
   </g>
   <g id="patch_6">
    <path d="M 59.475312 79.2 
L 450.075313 79.2 
" style="fill: none; stroke: #000000; stroke-width: 0.8; stroke-linejoin: miter; stroke-linecap: square"/>
   </g>
   <g id="legend_1">
    <g id="patch_7">
     <path d="M 66.475313 233.98125 
L 218.68 233.98125 
Q 220.68 233.98125 220.68 231.98125 
L 220.68 86.2 
Q 220.68 84.2 218.68 84.2 
L 66.475313 84.2 
Q 64.475313 84.2 64.475313 86.2 
L 64.475313 231.98125 
Q 64.475313 233.98125 66.475313 233.98125 
z
" style="fill: #ffffff; opacity: 0.8; stroke: #cccccc; stroke-linejoin: miter"/>
    </g>
    <g id="line2d_23">
     <path d="M 68.475313 92.298437 
L 88.475313 92.298437 
" style="fill: none; stroke: #000000; stroke-width: 2; stroke-linecap: square"/>
    </g>
    <g id="line2d_24"/>
    <g id="text_15">
     <!-- Sim 0 -->
     <g transform="translate(96.475313 95.798437) scale(0.1 -0.1)">
      <defs>
       <path id="DejaVuSans-53" d="M 3425 4513 
L 3425 3897 
Q 3066 4069 2747 4153 
Q 2428 4238 2131 4238 
Q 1616 4238 1336 4038 
Q 1056 3838 1056 3469 
Q 1056 3159 1242 3001 
Q 1428 2844 1947 2747 
L 2328 2669 
Q 3034 2534 3370 2195 
Q 3706 1856 3706 1288 
Q 3706 609 3251 259 
Q 2797 -91 1919 -91 
Q 1588 -91 1214 -16 
Q 841 59 441 206 
L 441 856 
Q 825 641 1194 531 
Q 1563 422 1919 422 
Q 2459 422 2753 634 
Q 3047 847 3047 1241 
Q 3047 1584 2836 1778 
Q 2625 1972 2144 2069 
L 1759 2144 
Q 1053 2284 737 2584 
Q 422 2884 422 3419 
Q 422 4038 858 4394 
Q 1294 4750 2059 4750 
Q 2388 4750 2728 4690 
Q 3069 4631 3425 4513 
z
" transform="scale(0.015625)"/>
       <path id="DejaVuSans-69" d="M 603 3500 
L 1178 3500 
L 1178 0 
L 603 0 
L 603 3500 
z
M 603 4863 
L 1178 4863 
L 1178 4134 
L 603 4134 
L 603 4863 
z
" transform="scale(0.015625)"/>
       <path id="DejaVuSans-6d" d="M 3328 2828 
Q 3544 3216 3844 3400 
Q 4144 3584 4550 3584 
Q 5097 3584 5394 3201 
Q 5691 2819 5691 2113 
L 5691 0 
L 5113 0 
L 5113 2094 
Q 5113 2597 4934 2840 
Q 4756 3084 4391 3084 
Q 3944 3084 3684 2787 
Q 3425 2491 3425 1978 
L 3425 0 
L 2847 0 
L 2847 2094 
Q 2847 2600 2669 2842 
Q 2491 3084 2119 3084 
Q 1678 3084 1418 2786 
Q 1159 2488 1159 1978 
L 1159 0 
L 581 0 
L 581 3500 
L 1159 3500 
L 1159 2956 
Q 1356 3278 1631 3431 
Q 1906 3584 2284 3584 
Q 2666 3584 2933 3390 
Q 3200 3197 3328 2828 
z
" transform="scale(0.015625)"/>
       <path id="DejaVuSans-20" transform="scale(0.015625)"/>
      </defs>
      <use xlink:href="#DejaVuSans-53"/>
      <use xlink:href="#DejaVuSans-69" transform="translate(63.476562 0)"/>
      <use xlink:href="#DejaVuSans-6d" transform="translate(91.259766 0)"/>
      <use xlink:href="#DejaVuSans-20" transform="translate(188.671875 0)"/>
      <use xlink:href="#DejaVuSans-30" transform="translate(220.458984 0)"/>
     </g>
    </g>
    <g id="line2d_25">
     <path d="M 68.475313 106.976562 
L 88.475313 106.976562 
" style="fill: none; stroke: #1f77b4; stroke-width: 2; stroke-linecap: square"/>
    </g>
    <g id="line2d_26"/>
    <g id="text_16">
     <!-- Sim 12.5 -->
     <g transform="translate(96.475313 110.476562) scale(0.1 -0.1)">
      <defs>
       <path id="DejaVuSans-2e" d="M 684 794 
L 1344 794 
L 1344 0 
L 684 0 
L 684 794 
z
" transform="scale(0.015625)"/>
      </defs>
      <use xlink:href="#DejaVuSans-53"/>
      <use xlink:href="#DejaVuSans-69" transform="translate(63.476562 0)"/>
      <use xlink:href="#DejaVuSans-6d" transform="translate(91.259766 0)"/>
      <use xlink:href="#DejaVuSans-20" transform="translate(188.671875 0)"/>
      <use xlink:href="#DejaVuSans-31" transform="translate(220.458984 0)"/>
      <use xlink:href="#DejaVuSans-32" transform="translate(284.082031 0)"/>
      <use xlink:href="#DejaVuSans-2e" transform="translate(347.705078 0)"/>
      <use xlink:href="#DejaVuSans-35" transform="translate(379.492188 0)"/>
     </g>
    </g>
    <g id="line2d_27">
     <path d="M 68.475313 121.654688 
L 88.475313 121.654688 
" style="fill: none; stroke: #ff7f0e; stroke-width: 2; stroke-linecap: square"/>
    </g>
    <g id="line2d_28"/>
    <g id="text_17">
     <!-- Sim 25 -->
     <g transform="translate(96.475313 125.154688) scale(0.1 -0.1)">
      <use xlink:href="#DejaVuSans-53"/>
      <use xlink:href="#DejaVuSans-69" transform="translate(63.476562 0)"/>
      <use xlink:href="#DejaVuSans-6d" transform="translate(91.259766 0)"/>
      <use xlink:href="#DejaVuSans-20" transform="translate(188.671875 0)"/>
      <use xlink:href="#DejaVuSans-32" transform="translate(220.458984 0)"/>
      <use xlink:href="#DejaVuSans-35" transform="translate(284.082031 0)"/>
     </g>
    </g>
    <g id="line2d_29">
     <path d="M 68.475313 136.332812 
L 88.475313 136.332812 
" style="fill: none; stroke: #2ca02c; stroke-width: 2; stroke-linecap: square"/>
    </g>
    <g id="line2d_30"/>
    <g id="text_18">
     <!-- Sim 50 -->
     <g transform="translate(96.475313 139.832812) scale(0.1 -0.1)">
      <use xlink:href="#DejaVuSans-53"/>
      <use xlink:href="#DejaVuSans-69" transform="translate(63.476562 0)"/>
      <use xlink:href="#DejaVuSans-6d" transform="translate(91.259766 0)"/>
      <use xlink:href="#DejaVuSans-20" transform="translate(188.671875 0)"/>
      <use xlink:href="#DejaVuSans-35" transform="translate(220.458984 0)"/>
      <use xlink:href="#DejaVuSans-30" transform="translate(284.082031 0)"/>
     </g>
    </g>
    <g id="line2d_31">
     <path d="M 68.475313 151.010937 
L 88.475313 151.010937 
" style="fill: none; stroke: #ff0000; stroke-width: 2; stroke-linecap: square"/>
    </g>
    <g id="line2d_32"/>
    <g id="text_19">
     <!-- Sim 75 -->
     <g transform="translate(96.475313 154.510937) scale(0.1 -0.1)">
      <defs>
       <path id="DejaVuSans-37" d="M 525 4666 
L 3525 4666 
L 3525 4397 
L 1831 0 
L 1172 0 
L 2766 4134 
L 525 4134 
L 525 4666 
z
" transform="scale(0.015625)"/>
      </defs>
      <use xlink:href="#DejaVuSans-53"/>
      <use xlink:href="#DejaVuSans-69" transform="translate(63.476562 0)"/>
      <use xlink:href="#DejaVuSans-6d" transform="translate(91.259766 0)"/>
      <use xlink:href="#DejaVuSans-20" transform="translate(188.671875 0)"/>
      <use xlink:href="#DejaVuSans-37" transform="translate(220.458984 0)"/>
      <use xlink:href="#DejaVuSans-35" transform="translate(284.082031 0)"/>
     </g>
    </g>
    <g id="LineCollection_6">
     <path d="M 78.475313 170.689062 
L 78.475313 160.689062 
" style="fill: none; stroke: #000000"/>
    </g>
    <g id="line2d_33">
     <path d="M 68.475313 165.689062 
L 88.475313 165.689062 
" style="fill: none; stroke-dasharray: 3.7,1.6; stroke-dashoffset: 0; stroke: #000000"/>
    </g>
    <g id="line2d_34">
     <g>
      <use xlink:href="#m8c6194ae81" x="78.475313" y="165.689062" style="stroke: #000000; stroke-linejoin: miter"/>
     </g>
    </g>
    <g id="text_20">
     <!-- hctz 0 mg±SD (n=8) -->
     <g transform="translate(96.475313 169.189062) scale(0.1 -0.1)">
      <defs>
       <path id="DejaVuSans-68" d="M 3513 2113 
L 3513 0 
L 2938 0 
L 2938 2094 
Q 2938 2591 2744 2837 
Q 2550 3084 2163 3084 
Q 1697 3084 1428 2787 
Q 1159 2491 1159 1978 
L 1159 0 
L 581 0 
L 581 4863 
L 1159 4863 
L 1159 2956 
Q 1366 3272 1645 3428 
Q 1925 3584 2291 3584 
Q 2894 3584 3203 3211 
Q 3513 2838 3513 2113 
z
" transform="scale(0.015625)"/>
       <path id="DejaVuSans-63" d="M 3122 3366 
L 3122 2828 
Q 2878 2963 2633 3030 
Q 2388 3097 2138 3097 
Q 1578 3097 1268 2742 
Q 959 2388 959 1747 
Q 959 1106 1268 751 
Q 1578 397 2138 397 
Q 2388 397 2633 464 
Q 2878 531 3122 666 
L 3122 134 
Q 2881 22 2623 -34 
Q 2366 -91 2075 -91 
Q 1284 -91 818 406 
Q 353 903 353 1747 
Q 353 2603 823 3093 
Q 1294 3584 2113 3584 
Q 2378 3584 2631 3529 
Q 2884 3475 3122 3366 
z
" transform="scale(0.015625)"/>
       <path id="DejaVuSans-74" d="M 1172 4494 
L 1172 3500 
L 2356 3500 
L 2356 3053 
L 1172 3053 
L 1172 1153 
Q 1172 725 1289 603 
Q 1406 481 1766 481 
L 2356 481 
L 2356 0 
L 1766 0 
Q 1100 0 847 248 
Q 594 497 594 1153 
L 594 3053 
L 172 3053 
L 172 3500 
L 594 3500 
L 594 4494 
L 1172 4494 
z
" transform="scale(0.015625)"/>
       <path id="DejaVuSans-7a" d="M 353 3500 
L 3084 3500 
L 3084 2975 
L 922 459 
L 3084 459 
L 3084 0 
L 275 0 
L 275 525 
L 2438 3041 
L 353 3041 
L 353 3500 
z
" transform="scale(0.015625)"/>
       <path id="DejaVuSans-67" d="M 2906 1791 
Q 2906 2416 2648 2759 
Q 2391 3103 1925 3103 
Q 1463 3103 1205 2759 
Q 947 2416 947 1791 
Q 947 1169 1205 825 
Q 1463 481 1925 481 
Q 2391 481 2648 825 
Q 2906 1169 2906 1791 
z
M 3481 434 
Q 3481 -459 3084 -895 
Q 2688 -1331 1869 -1331 
Q 1566 -1331 1297 -1286 
Q 1028 -1241 775 -1147 
L 775 -588 
Q 1028 -725 1275 -790 
Q 1522 -856 1778 -856 
Q 2344 -856 2625 -561 
Q 2906 -266 2906 331 
L 2906 616 
Q 2728 306 2450 153 
Q 2172 0 1784 0 
Q 1141 0 747 490 
Q 353 981 353 1791 
Q 353 2603 747 3093 
Q 1141 3584 1784 3584 
Q 2172 3584 2450 3431 
Q 2728 3278 2906 2969 
L 2906 3500 
L 3481 3500 
L 3481 434 
z
" transform="scale(0.015625)"/>
       <path id="DejaVuSans-b1" d="M 2944 4013 
L 2944 2803 
L 4684 2803 
L 4684 2272 
L 2944 2272 
L 2944 1063 
L 2419 1063 
L 2419 2272 
L 678 2272 
L 678 2803 
L 2419 2803 
L 2419 4013 
L 2944 4013 
z
M 678 531 
L 4684 531 
L 4684 0 
L 678 0 
L 678 531 
z
" transform="scale(0.015625)"/>
       <path id="DejaVuSans-44" d="M 1259 4147 
L 1259 519 
L 2022 519 
Q 2988 519 3436 956 
Q 3884 1394 3884 2338 
Q 3884 3275 3436 3711 
Q 2988 4147 2022 4147 
L 1259 4147 
z
M 628 4666 
L 1925 4666 
Q 3281 4666 3915 4102 
Q 4550 3538 4550 2338 
Q 4550 1131 3912 565 
Q 3275 0 1925 0 
L 628 0 
L 628 4666 
z
" transform="scale(0.015625)"/>
       <path id="DejaVuSans-28" d="M 1984 4856 
Q 1566 4138 1362 3434 
Q 1159 2731 1159 2009 
Q 1159 1288 1364 580 
Q 1569 -128 1984 -844 
L 1484 -844 
Q 1016 -109 783 600 
Q 550 1309 550 2009 
Q 550 2706 781 3412 
Q 1013 4119 1484 4856 
L 1984 4856 
z
" transform="scale(0.015625)"/>
       <path id="DejaVuSans-6e" d="M 3513 2113 
L 3513 0 
L 2938 0 
L 2938 2094 
Q 2938 2591 2744 2837 
Q 2550 3084 2163 3084 
Q 1697 3084 1428 2787 
Q 1159 2491 1159 1978 
L 1159 0 
L 581 0 
L 581 3500 
L 1159 3500 
L 1159 2956 
Q 1366 3272 1645 3428 
Q 1925 3584 2291 3584 
Q 2894 3584 3203 3211 
Q 3513 2838 3513 2113 
z
" transform="scale(0.015625)"/>
       <path id="DejaVuSans-3d" d="M 678 2906 
L 4684 2906 
L 4684 2381 
L 678 2381 
L 678 2906 
z
M 678 1631 
L 4684 1631 
L 4684 1100 
L 678 1100 
L 678 1631 
z
" transform="scale(0.015625)"/>
       <path id="DejaVuSans-29" d="M 513 4856 
L 1013 4856 
Q 1481 4119 1714 3412 
Q 1947 2706 1947 2009 
Q 1947 1309 1714 600 
Q 1481 -109 1013 -844 
L 513 -844 
Q 928 -128 1133 580 
Q 1338 1288 1338 2009 
Q 1338 2731 1133 3434 
Q 928 4138 513 4856 
z
" transform="scale(0.015625)"/>
      </defs>
      <use xlink:href="#DejaVuSans-68"/>
      <use xlink:href="#DejaVuSans-63" transform="translate(63.378906 0)"/>
      <use xlink:href="#DejaVuSans-74" transform="translate(118.359375 0)"/>
      <use xlink:href="#DejaVuSans-7a" transform="translate(157.568359 0)"/>
      <use xlink:href="#DejaVuSans-20" transform="translate(210.058594 0)"/>
      <use xlink:href="#DejaVuSans-30" transform="translate(241.845703 0)"/>
      <use xlink:href="#DejaVuSans-20" transform="translate(305.46875 0)"/>
      <use xlink:href="#DejaVuSans-6d" transform="translate(337.255859 0)"/>
      <use xlink:href="#DejaVuSans-67" transform="translate(434.667969 0)"/>
      <use xlink:href="#DejaVuSans-b1" transform="translate(498.144531 0)"/>
      <use xlink:href="#DejaVuSans-53" transform="translate(581.933594 0)"/>
      <use xlink:href="#DejaVuSans-44" transform="translate(645.410156 0)"/>
      <use xlink:href="#DejaVuSans-20" transform="translate(722.412109 0)"/>
      <use xlink:href="#DejaVuSans-28" transform="translate(754.199219 0)"/>
      <use xlink:href="#DejaVuSans-6e" transform="translate(793.212891 0)"/>
      <use xlink:href="#DejaVuSans-3d" transform="translate(856.591797 0)"/>
      <use xlink:href="#DejaVuSans-38" transform="translate(940.380859 0)"/>
      <use xlink:href="#DejaVuSans-29" transform="translate(1004.003906 0)"/>
     </g>
    </g>
    <g id="LineCollection_7">
     <path d="M 78.475313 185.367188 
L 78.475313 175.367188 
" style="fill: none; stroke: #1f77b4"/>
    </g>
    <g id="line2d_35">
     <path d="M 68.475313 180.367188 
L 88.475313 180.367188 
" style="fill: none; stroke-dasharray: 3.7,1.6; stroke-dashoffset: 0; stroke: #1f77b4"/>
    </g>
    <g id="line2d_36">
     <g>
      <use xlink:href="#me4a29e38c7" x="78.475313" y="180.367188" style="fill: #1f77b4; stroke: #000000; stroke-linejoin: miter"/>
     </g>
    </g>
    <g id="text_21">
     <!-- hctz 12.5 mg±SD (n=8) -->
     <g transform="translate(96.475313 183.867188) scale(0.1 -0.1)">
      <use xlink:href="#DejaVuSans-68"/>
      <use xlink:href="#DejaVuSans-63" transform="translate(63.378906 0)"/>
      <use xlink:href="#DejaVuSans-74" transform="translate(118.359375 0)"/>
      <use xlink:href="#DejaVuSans-7a" transform="translate(157.568359 0)"/>
      <use xlink:href="#DejaVuSans-20" transform="translate(210.058594 0)"/>
      <use xlink:href="#DejaVuSans-31" transform="translate(241.845703 0)"/>
      <use xlink:href="#DejaVuSans-32" transform="translate(305.46875 0)"/>
      <use xlink:href="#DejaVuSans-2e" transform="translate(369.091797 0)"/>
      <use xlink:href="#DejaVuSans-35" transform="translate(400.878906 0)"/>
      <use xlink:href="#DejaVuSans-20" transform="translate(464.501953 0)"/>
      <use xlink:href="#DejaVuSans-6d" transform="translate(496.289062 0)"/>
      <use xlink:href="#DejaVuSans-67" transform="translate(593.701172 0)"/>
      <use xlink:href="#DejaVuSans-b1" transform="translate(657.177734 0)"/>
      <use xlink:href="#DejaVuSans-53" transform="translate(740.966797 0)"/>
      <use xlink:href="#DejaVuSans-44" transform="translate(804.443359 0)"/>
      <use xlink:href="#DejaVuSans-20" transform="translate(881.445312 0)"/>
      <use xlink:href="#DejaVuSans-28" transform="translate(913.232422 0)"/>
      <use xlink:href="#DejaVuSans-6e" transform="translate(952.246094 0)"/>
      <use xlink:href="#DejaVuSans-3d" transform="translate(1015.625 0)"/>
      <use xlink:href="#DejaVuSans-38" transform="translate(1099.414062 0)"/>
      <use xlink:href="#DejaVuSans-29" transform="translate(1163.037109 0)"/>
     </g>
    </g>
    <g id="LineCollection_8">
     <path d="M 78.475313 200.045312 
L 78.475313 190.045312 
" style="fill: none; stroke: #ff7f0e"/>
    </g>
    <g id="line2d_37">
     <path d="M 68.475313 195.045312 
L 88.475313 195.045312 
" style="fill: none; stroke-dasharray: 3.7,1.6; stroke-dashoffset: 0; stroke: #ff7f0e"/>
    </g>
    <g id="line2d_38">
     <g>
      <use xlink:href="#mb8858f2a22" x="78.475313" y="195.045312" style="fill: #ff7f0e; stroke: #000000; stroke-linejoin: miter"/>
     </g>
    </g>
    <g id="text_22">
     <!-- hctz 25 mg±SD (n=8) -->
     <g transform="translate(96.475313 198.545312) scale(0.1 -0.1)">
      <use xlink:href="#DejaVuSans-68"/>
      <use xlink:href="#DejaVuSans-63" transform="translate(63.378906 0)"/>
      <use xlink:href="#DejaVuSans-74" transform="translate(118.359375 0)"/>
      <use xlink:href="#DejaVuSans-7a" transform="translate(157.568359 0)"/>
      <use xlink:href="#DejaVuSans-20" transform="translate(210.058594 0)"/>
      <use xlink:href="#DejaVuSans-32" transform="translate(241.845703 0)"/>
      <use xlink:href="#DejaVuSans-35" transform="translate(305.46875 0)"/>
      <use xlink:href="#DejaVuSans-20" transform="translate(369.091797 0)"/>
      <use xlink:href="#DejaVuSans-6d" transform="translate(400.878906 0)"/>
      <use xlink:href="#DejaVuSans-67" transform="translate(498.291016 0)"/>
      <use xlink:href="#DejaVuSans-b1" transform="translate(561.767578 0)"/>
      <use xlink:href="#DejaVuSans-53" transform="translate(645.556641 0)"/>
      <use xlink:href="#DejaVuSans-44" transform="translate(709.033203 0)"/>
      <use xlink:href="#DejaVuSans-20" transform="translate(786.035156 0)"/>
      <use xlink:href="#DejaVuSans-28" transform="translate(817.822266 0)"/>
      <use xlink:href="#DejaVuSans-6e" transform="translate(856.835938 0)"/>
      <use xlink:href="#DejaVuSans-3d" transform="translate(920.214844 0)"/>
      <use xlink:href="#DejaVuSans-38" transform="translate(1004.003906 0)"/>
      <use xlink:href="#DejaVuSans-29" transform="translate(1067.626953 0)"/>
     </g>
    </g>
    <g id="LineCollection_9">
     <path d="M 78.475313 214.723437 
L 78.475313 204.723437 
" style="fill: none; stroke: #2ca02c"/>
    </g>
    <g id="line2d_39">
     <path d="M 68.475313 209.723437 
L 88.475313 209.723437 
" style="fill: none; stroke-dasharray: 3.7,1.6; stroke-dashoffset: 0; stroke: #2ca02c"/>
    </g>
    <g id="line2d_40">
     <g>
      <use xlink:href="#m8d9e93f891" x="78.475313" y="209.723437" style="fill: #2ca02c; stroke: #000000; stroke-linejoin: miter"/>
     </g>
    </g>
    <g id="text_23">
     <!-- hctz 50 mg±SD (n=8) -->
     <g transform="translate(96.475313 213.223437) scale(0.1 -0.1)">
      <use xlink:href="#DejaVuSans-68"/>
      <use xlink:href="#DejaVuSans-63" transform="translate(63.378906 0)"/>
      <use xlink:href="#DejaVuSans-74" transform="translate(118.359375 0)"/>
      <use xlink:href="#DejaVuSans-7a" transform="translate(157.568359 0)"/>
      <use xlink:href="#DejaVuSans-20" transform="translate(210.058594 0)"/>
      <use xlink:href="#DejaVuSans-35" transform="translate(241.845703 0)"/>
      <use xlink:href="#DejaVuSans-30" transform="translate(305.46875 0)"/>
      <use xlink:href="#DejaVuSans-20" transform="translate(369.091797 0)"/>
      <use xlink:href="#DejaVuSans-6d" transform="translate(400.878906 0)"/>
      <use xlink:href="#DejaVuSans-67" transform="translate(498.291016 0)"/>
      <use xlink:href="#DejaVuSans-b1" transform="translate(561.767578 0)"/>
      <use xlink:href="#DejaVuSans-53" transform="translate(645.556641 0)"/>
      <use xlink:href="#DejaVuSans-44" transform="translate(709.033203 0)"/>
      <use xlink:href="#DejaVuSans-20" transform="translate(786.035156 0)"/>
      <use xlink:href="#DejaVuSans-28" transform="translate(817.822266 0)"/>
      <use xlink:href="#DejaVuSans-6e" transform="translate(856.835938 0)"/>
      <use xlink:href="#DejaVuSans-3d" transform="translate(920.214844 0)"/>
      <use xlink:href="#DejaVuSans-38" transform="translate(1004.003906 0)"/>
      <use xlink:href="#DejaVuSans-29" transform="translate(1067.626953 0)"/>
     </g>
    </g>
    <g id="LineCollection_10">
     <path d="M 78.475313 229.401562 
L 78.475313 219.401562 
" style="fill: none; stroke: #ff0000"/>
    </g>
    <g id="line2d_41">
     <path d="M 68.475313 224.401562 
L 88.475313 224.401562 
" style="fill: none; stroke-dasharray: 3.7,1.6; stroke-dashoffset: 0; stroke: #ff0000"/>
    </g>
    <g id="line2d_42">
     <g>
      <use xlink:href="#m4182ce0a70" x="78.475313" y="224.401562" style="fill: #ff0000; stroke: #000000; stroke-linejoin: miter"/>
     </g>
    </g>
    <g id="text_24">
     <!-- hctz 75 mg±SD (n=8) -->
     <g transform="translate(96.475313 227.901562) scale(0.1 -0.1)">
      <use xlink:href="#DejaVuSans-68"/>
      <use xlink:href="#DejaVuSans-63" transform="translate(63.378906 0)"/>
      <use xlink:href="#DejaVuSans-74" transform="translate(118.359375 0)"/>
      <use xlink:href="#DejaVuSans-7a" transform="translate(157.568359 0)"/>
      <use xlink:href="#DejaVuSans-20" transform="translate(210.058594 0)"/>
      <use xlink:href="#DejaVuSans-37" transform="translate(241.845703 0)"/>
      <use xlink:href="#DejaVuSans-35" transform="translate(305.46875 0)"/>
      <use xlink:href="#DejaVuSans-20" transform="translate(369.091797 0)"/>
      <use xlink:href="#DejaVuSans-6d" transform="translate(400.878906 0)"/>
      <use xlink:href="#DejaVuSans-67" transform="translate(498.291016 0)"/>
      <use xlink:href="#DejaVuSans-b1" transform="translate(561.767578 0)"/>
      <use xlink:href="#DejaVuSans-53" transform="translate(645.556641 0)"/>
      <use xlink:href="#DejaVuSans-44" transform="translate(709.033203 0)"/>
      <use xlink:href="#DejaVuSans-20" transform="translate(786.035156 0)"/>
      <use xlink:href="#DejaVuSans-28" transform="translate(817.822266 0)"/>
      <use xlink:href="#DejaVuSans-6e" transform="translate(856.835938 0)"/>
      <use xlink:href="#DejaVuSans-3d" transform="translate(920.214844 0)"/>
      <use xlink:href="#DejaVuSans-38" transform="translate(1004.003906 0)"/>
      <use xlink:href="#DejaVuSans-29" transform="translate(1067.626953 0)"/>
     </g>
    </g>
   </g>
  </g>
  <g id="axes_2">
   <g id="patch_8">
    <path d="M 59.475313 633.6 
L 450.075312 633.6 
L 450.075312 392.556522 
L 59.475313 392.556522 
z
" style="fill: #ffffff"/>
   </g>
   <g id="matplotlib.axis_3">
    <g id="xtick_7">
     <g id="line2d_43">
      <g>
       <use xlink:href="#m58883a9c4b" x="77.229858" y="633.6" style="stroke: #000000; stroke-width: 0.8"/>
      </g>
     </g>
     <g id="text_25">
      <!-- 0 -->
      <g transform="translate(72.457983 651.997656) scale(0.15 -0.15)">
       <use xlink:href="#DejaVuSans-30"/>
      </g>
     </g>
    </g>
    <g id="xtick_8">
     <g id="line2d_44">
      <g>
       <use xlink:href="#m58883a9c4b" x="148.24804" y="633.6" style="stroke: #000000; stroke-width: 0.8"/>
      </g>
     </g>
     <g id="text_26">
      <!-- 2 -->
      <g transform="translate(143.476165 651.997656) scale(0.15 -0.15)">
       <use xlink:href="#DejaVuSans-32"/>
      </g>
     </g>
    </g>
    <g id="xtick_9">
     <g id="line2d_45">
      <g>
       <use xlink:href="#m58883a9c4b" x="219.266222" y="633.6" style="stroke: #000000; stroke-width: 0.8"/>
      </g>
     </g>
     <g id="text_27">
      <!-- 4 -->
      <g transform="translate(214.494347 651.997656) scale(0.15 -0.15)">
       <use xlink:href="#DejaVuSans-34"/>
      </g>
     </g>
    </g>
    <g id="xtick_10">
     <g id="line2d_46">
      <g>
       <use xlink:href="#m58883a9c4b" x="290.284403" y="633.6" style="stroke: #000000; stroke-width: 0.8"/>
      </g>
     </g>
     <g id="text_28">
      <!-- 6 -->
      <g transform="translate(285.512528 651.997656) scale(0.15 -0.15)">
       <use xlink:href="#DejaVuSans-36"/>
      </g>
     </g>
    </g>
    <g id="xtick_11">
     <g id="line2d_47">
      <g>
       <use xlink:href="#m58883a9c4b" x="361.302585" y="633.6" style="stroke: #000000; stroke-width: 0.8"/>
      </g>
     </g>
     <g id="text_29">
      <!-- 8 -->
      <g transform="translate(356.53071 651.997656) scale(0.15 -0.15)">
       <use xlink:href="#DejaVuSans-38"/>
      </g>
     </g>
    </g>
    <g id="xtick_12">
     <g id="line2d_48">
      <g>
       <use xlink:href="#m58883a9c4b" x="432.320767" y="633.6" style="stroke: #000000; stroke-width: 0.8"/>
      </g>
     </g>
     <g id="text_30">
      <!-- 10 -->
      <g transform="translate(422.777017 651.997656) scale(0.15 -0.15)">
       <use xlink:href="#DejaVuSans-31"/>
       <use xlink:href="#DejaVuSans-30" transform="translate(63.623047 0)"/>
      </g>
     </g>
    </g>
    <g id="text_31">
     <!-- time [hr] -->
     <g transform="translate(209.700781 672.794375) scale(0.18 -0.18)">
      <use xlink:href="#DejaVuSans-Bold-74"/>
      <use xlink:href="#DejaVuSans-Bold-69" transform="translate(47.802734 0)"/>
      <use xlink:href="#DejaVuSans-Bold-6d" transform="translate(82.080078 0)"/>
      <use xlink:href="#DejaVuSans-Bold-65" transform="translate(186.279297 0)"/>
      <use xlink:href="#DejaVuSans-Bold-20" transform="translate(254.101562 0)"/>
      <use xlink:href="#DejaVuSans-Bold-5b" transform="translate(288.916016 0)"/>
      <use xlink:href="#DejaVuSans-Bold-68" transform="translate(334.619141 0)"/>
      <use xlink:href="#DejaVuSans-Bold-72" transform="translate(405.810547 0)"/>
      <use xlink:href="#DejaVuSans-Bold-5d" transform="translate(455.126953 0)"/>
     </g>
    </g>
   </g>
   <g id="matplotlib.axis_4">
    <g id="ytick_7">
     <g id="line2d_49">
      <g>
       <use xlink:href="#me252ebf55e" x="59.475313" y="622.643478" style="stroke: #000000; stroke-width: 0.8"/>
      </g>
     </g>
     <g id="text_32">
      <!-- 0.0 -->
      <g transform="translate(28.620625 628.342306) scale(0.15 -0.15)">
       <use xlink:href="#DejaVuSans-30"/>
       <use xlink:href="#DejaVuSans-2e" transform="translate(63.623047 0)"/>
       <use xlink:href="#DejaVuSans-30" transform="translate(95.410156 0)"/>
      </g>
     </g>
    </g>
    <g id="ytick_8">
     <g id="line2d_50">
      <g>
       <use xlink:href="#me252ebf55e" x="59.475313" y="592.504054" style="stroke: #000000; stroke-width: 0.8"/>
      </g>
     </g>
     <g id="text_33">
      <!-- 0.1 -->
      <g transform="translate(28.620625 598.202882) scale(0.15 -0.15)">
       <use xlink:href="#DejaVuSans-30"/>
       <use xlink:href="#DejaVuSans-2e" transform="translate(63.623047 0)"/>
       <use xlink:href="#DejaVuSans-31" transform="translate(95.410156 0)"/>
      </g>
     </g>
    </g>
    <g id="ytick_9">
     <g id="line2d_51">
      <g>
       <use xlink:href="#me252ebf55e" x="59.475313" y="562.36463" style="stroke: #000000; stroke-width: 0.8"/>
      </g>
     </g>
     <g id="text_34">
      <!-- 0.2 -->
      <g transform="translate(28.620625 568.063458) scale(0.15 -0.15)">
       <use xlink:href="#DejaVuSans-30"/>
       <use xlink:href="#DejaVuSans-2e" transform="translate(63.623047 0)"/>
       <use xlink:href="#DejaVuSans-32" transform="translate(95.410156 0)"/>
      </g>
     </g>
    </g>
    <g id="ytick_10">
     <g id="line2d_52">
      <g>
       <use xlink:href="#me252ebf55e" x="59.475313" y="532.225205" style="stroke: #000000; stroke-width: 0.8"/>
      </g>
     </g>
     <g id="text_35">
      <!-- 0.3 -->
      <g transform="translate(28.620625 537.924033) scale(0.15 -0.15)">
       <use xlink:href="#DejaVuSans-30"/>
       <use xlink:href="#DejaVuSans-2e" transform="translate(63.623047 0)"/>
       <use xlink:href="#DejaVuSans-33" transform="translate(95.410156 0)"/>
      </g>
     </g>
    </g>
    <g id="ytick_11">
     <g id="line2d_53">
      <g>
       <use xlink:href="#me252ebf55e" x="59.475313" y="502.085781" style="stroke: #000000; stroke-width: 0.8"/>
      </g>
     </g>
     <g id="text_36">
      <!-- 0.4 -->
      <g transform="translate(28.620625 507.784609) scale(0.15 -0.15)">
       <use xlink:href="#DejaVuSans-30"/>
       <use xlink:href="#DejaVuSans-2e" transform="translate(63.623047 0)"/>
       <use xlink:href="#DejaVuSans-34" transform="translate(95.410156 0)"/>
      </g>
     </g>
    </g>
    <g id="ytick_12">
     <g id="line2d_54">
      <g>
       <use xlink:href="#me252ebf55e" x="59.475313" y="471.946356" style="stroke: #000000; stroke-width: 0.8"/>
      </g>
     </g>
     <g id="text_37">
      <!-- 0.5 -->
      <g transform="translate(28.620625 477.645185) scale(0.15 -0.15)">
       <use xlink:href="#DejaVuSans-30"/>
       <use xlink:href="#DejaVuSans-2e" transform="translate(63.623047 0)"/>
       <use xlink:href="#DejaVuSans-35" transform="translate(95.410156 0)"/>
      </g>
     </g>
    </g>
    <g id="ytick_13">
     <g id="line2d_55">
      <g>
       <use xlink:href="#me252ebf55e" x="59.475313" y="441.806932" style="stroke: #000000; stroke-width: 0.8"/>
      </g>
     </g>
     <g id="text_38">
      <!-- 0.6 -->
      <g transform="translate(28.620625 447.50576) scale(0.15 -0.15)">
       <use xlink:href="#DejaVuSans-30"/>
       <use xlink:href="#DejaVuSans-2e" transform="translate(63.623047 0)"/>
       <use xlink:href="#DejaVuSans-36" transform="translate(95.410156 0)"/>
      </g>
     </g>
    </g>
    <g id="ytick_14">
     <g id="line2d_56">
      <g>
       <use xlink:href="#me252ebf55e" x="59.475313" y="411.667508" style="stroke: #000000; stroke-width: 0.8"/>
      </g>
     </g>
     <g id="text_39">
      <!-- 0.7 -->
      <g transform="translate(28.620625 417.366336) scale(0.15 -0.15)">
       <use xlink:href="#DejaVuSans-30"/>
       <use xlink:href="#DejaVuSans-2e" transform="translate(63.623047 0)"/>
       <use xlink:href="#DejaVuSans-37" transform="translate(95.410156 0)"/>
      </g>
     </g>
    </g>
    <g id="text_40">
     <!-- Sodium urine [mole] -->
     <g transform="translate(20.877187 616.741386) rotate(-90) scale(0.18 -0.18)">
      <defs>
       <path id="DejaVuSans-Bold-53" d="M 3834 4519 
L 3834 3531 
Q 3450 3703 3084 3790 
Q 2719 3878 2394 3878 
Q 1963 3878 1756 3759 
Q 1550 3641 1550 3391 
Q 1550 3203 1689 3098 
Q 1828 2994 2194 2919 
L 2706 2816 
Q 3484 2659 3812 2340 
Q 4141 2022 4141 1434 
Q 4141 663 3683 286 
Q 3225 -91 2284 -91 
Q 1841 -91 1394 -6 
Q 947 78 500 244 
L 500 1259 
Q 947 1022 1364 901 
Q 1781 781 2169 781 
Q 2563 781 2772 912 
Q 2981 1044 2981 1288 
Q 2981 1506 2839 1625 
Q 2697 1744 2272 1838 
L 1806 1941 
Q 1106 2091 782 2419 
Q 459 2747 459 3303 
Q 459 4000 909 4375 
Q 1359 4750 2203 4750 
Q 2588 4750 2994 4692 
Q 3400 4634 3834 4519 
z
" transform="scale(0.015625)"/>
       <path id="DejaVuSans-Bold-64" d="M 2919 2988 
L 2919 4863 
L 4044 4863 
L 4044 0 
L 2919 0 
L 2919 506 
Q 2688 197 2409 53 
Q 2131 -91 1766 -91 
Q 1119 -91 703 423 
Q 288 938 288 1747 
Q 288 2556 703 3070 
Q 1119 3584 1766 3584 
Q 2128 3584 2408 3439 
Q 2688 3294 2919 2988 
z
M 2181 722 
Q 2541 722 2730 984 
Q 2919 1247 2919 1747 
Q 2919 2247 2730 2509 
Q 2541 2772 2181 2772 
Q 1825 2772 1636 2509 
Q 1447 2247 1447 1747 
Q 1447 1247 1636 984 
Q 1825 722 2181 722 
z
" transform="scale(0.015625)"/>
      </defs>
      <use xlink:href="#DejaVuSans-Bold-53"/>
      <use xlink:href="#DejaVuSans-Bold-6f" transform="translate(72.021484 0)"/>
      <use xlink:href="#DejaVuSans-Bold-64" transform="translate(140.722656 0)"/>
      <use xlink:href="#DejaVuSans-Bold-69" transform="translate(212.304688 0)"/>
      <use xlink:href="#DejaVuSans-Bold-75" transform="translate(246.582031 0)"/>
      <use xlink:href="#DejaVuSans-Bold-6d" transform="translate(317.773438 0)"/>
      <use xlink:href="#DejaVuSans-Bold-20" transform="translate(421.972656 0)"/>
      <use xlink:href="#DejaVuSans-Bold-75" transform="translate(456.787109 0)"/>
      <use xlink:href="#DejaVuSans-Bold-72" transform="translate(527.978516 0)"/>
      <use xlink:href="#DejaVuSans-Bold-69" transform="translate(577.294922 0)"/>
      <use xlink:href="#DejaVuSans-Bold-6e" transform="translate(611.572266 0)"/>
      <use xlink:href="#DejaVuSans-Bold-65" transform="translate(682.763672 0)"/>
      <use xlink:href="#DejaVuSans-Bold-20" transform="translate(750.585938 0)"/>
      <use xlink:href="#DejaVuSans-Bold-5b" transform="translate(785.400391 0)"/>
      <use xlink:href="#DejaVuSans-Bold-6d" transform="translate(831.103516 0)"/>
      <use xlink:href="#DejaVuSans-Bold-6f" transform="translate(935.302734 0)"/>
      <use xlink:href="#DejaVuSans-Bold-6c" transform="translate(1004.003906 0)"/>
      <use xlink:href="#DejaVuSans-Bold-65" transform="translate(1038.28125 0)"/>
      <use xlink:href="#DejaVuSans-Bold-5d" transform="translate(1106.103516 0)"/>
     </g>
    </g>
   </g>
   <g id="LineCollection_11">
    <path d="M 77.229858 622.643478 
L 77.229858 622.643478 
" clip-path="url(#p77d3c35fd6)" style="fill: none; stroke: #000000"/>
    <path d="M 432.320767 615.74155 
L 432.320767 607.302511 
" clip-path="url(#p77d3c35fd6)" style="fill: none; stroke: #000000"/>
   </g>
   <g id="LineCollection_12">
    <path d="M 77.229858 622.643478 
L 77.229858 622.643478 
" clip-path="url(#p77d3c35fd6)" style="fill: none; stroke: #1f77b4"/>
    <path d="M 432.320767 588.344813 
L 432.320767 574.540957 
" clip-path="url(#p77d3c35fd6)" style="fill: none; stroke: #1f77b4"/>
   </g>
   <g id="LineCollection_13">
    <path d="M 77.229858 622.643478 
L 77.229858 622.643478 
" clip-path="url(#p77d3c35fd6)" style="fill: none; stroke: #ff7f0e"/>
    <path d="M 432.320767 591.539592 
L 432.320767 566.584149 
" clip-path="url(#p77d3c35fd6)" style="fill: none; stroke: #ff7f0e"/>
   </g>
   <g id="LineCollection_14">
    <path d="M 77.229858 622.643478 
L 77.229858 622.643478 
" clip-path="url(#p77d3c35fd6)" style="fill: none; stroke: #2ca02c"/>
    <path d="M 432.320767 579.966053 
L 432.320767 568.814466 
" clip-path="url(#p77d3c35fd6)" style="fill: none; stroke: #2ca02c"/>
   </g>
   <g id="LineCollection_15">
    <path d="M 77.229858 622.643478 
L 77.229858 622.643478 
" clip-path="url(#p77d3c35fd6)" style="fill: none; stroke: #ff0000"/>
    <path d="M 432.320767 590.273737 
L 432.320767 560.134312 
" clip-path="url(#p77d3c35fd6)" style="fill: none; stroke: #ff0000"/>
   </g>
   <g id="line2d_57">
    <path d="M 77.229858 622.643478 
L 458.275313 584.389789 
L 458.275313 584.389789 
" clip-path="url(#p77d3c35fd6)" style="fill: none; stroke: #000000; stroke-width: 2; stroke-linecap: square"/>
   </g>
   <g id="line2d_58">
    <path d="M 77.229858 622.643478 
L 98.535313 620.409922 
L 123.391676 617.548581 
L 258.326222 601.656073 
L 325.793494 594.061909 
L 403.913494 585.50011 
L 458.275313 579.652463 
L 458.275313 579.652463 
" clip-path="url(#p77d3c35fd6)" style="fill: none; stroke: #1f77b4; stroke-width: 2; stroke-linecap: square"/>
   </g>
   <g id="line2d_59">
    <path d="M 77.229858 622.643478 
L 91.433494 621.145505 
L 105.637131 619.435331 
L 126.942585 616.602427 
L 229.918949 602.531436 
L 276.080767 596.589563 
L 325.793494 590.430898 
L 379.057131 584.057161 
L 439.422585 577.056855 
L 458.275313 574.910897 
L 458.275313 574.910897 
" clip-path="url(#p77d3c35fd6)" style="fill: none; stroke: #ff7f0e; stroke-width: 2; stroke-linecap: square"/>
   </g>
   <g id="line2d_60">
    <path d="M 77.229858 622.643478 
L 87.882585 621.504697 
L 98.535313 620.12589 
L 109.18804 618.525035 
L 123.391676 616.166254 
L 151.798949 611.141872 
L 190.858949 604.27083 
L 222.817131 598.901296 
L 254.775313 593.778356 
L 286.733494 588.880236 
L 322.242585 583.669255 
L 361.302585 578.17958 
L 403.913494 572.436311 
L 450.075313 566.455905 
L 458.275313 565.416587 
L 458.275313 565.416587 
" clip-path="url(#p77d3c35fd6)" style="fill: none; stroke: #2ca02c; stroke-width: 2; stroke-linecap: square"/>
   </g>
   <g id="line2d_61">
    <path d="M 77.229858 622.643478 
L 87.882585 621.470026 
L 94.984403 620.489442 
L 105.637131 618.722611 
L 116.289858 616.692973 
L 130.493494 613.747714 
L 205.062585 597.86861 
L 229.918949 592.947254 
L 254.775313 588.247008 
L 283.182585 583.124314 
L 311.589858 578.240285 
L 339.997131 573.568282 
L 371.955313 568.535923 
L 407.464403 563.187055 
L 442.973494 558.059192 
L 458.275313 555.909982 
L 458.275313 555.909982 
" clip-path="url(#p77d3c35fd6)" style="fill: none; stroke: #ff0000; stroke-width: 2; stroke-linecap: square"/>
   </g>
   <g id="line2d_62">
    <path d="M 77.229858 622.643478 
L 432.320767 611.522031 
" clip-path="url(#p77d3c35fd6)" style="fill: none; stroke-dasharray: 3.7,1.6; stroke-dashoffset: 0; stroke: #000000"/>
    <g clip-path="url(#p77d3c35fd6)">
     <use xlink:href="#m8c6194ae81" x="77.229858" y="622.643478" style="stroke: #000000; stroke-linejoin: miter"/>
     <use xlink:href="#m8c6194ae81" x="432.320767" y="611.522031" style="stroke: #000000; stroke-linejoin: miter"/>
    </g>
   </g>
   <g id="line2d_63">
    <path d="M 77.229858 622.643478 
L 432.320767 581.442885 
" clip-path="url(#p77d3c35fd6)" style="fill: none; stroke-dasharray: 3.7,1.6; stroke-dashoffset: 0; stroke: #1f77b4"/>
    <g clip-path="url(#p77d3c35fd6)">
     <use xlink:href="#me4a29e38c7" x="77.229858" y="622.643478" style="fill: #1f77b4; stroke: #000000; stroke-linejoin: miter"/>
     <use xlink:href="#me4a29e38c7" x="432.320767" y="581.442885" style="fill: #1f77b4; stroke: #000000; stroke-linejoin: miter"/>
    </g>
   </g>
   <g id="line2d_64">
    <path d="M 77.229858 622.643478 
L 432.320767 579.061871 
" clip-path="url(#p77d3c35fd6)" style="fill: none; stroke-dasharray: 3.7,1.6; stroke-dashoffset: 0; stroke: #ff7f0e"/>
    <g clip-path="url(#p77d3c35fd6)">
     <use xlink:href="#mb8858f2a22" x="77.229858" y="622.643478" style="fill: #ff7f0e; stroke: #000000; stroke-linejoin: miter"/>
     <use xlink:href="#mb8858f2a22" x="432.320767" y="579.061871" style="fill: #ff7f0e; stroke: #000000; stroke-linejoin: miter"/>
    </g>
   </g>
   <g id="line2d_65">
    <path d="M 77.229858 622.643478 
L 432.320767 574.39026 
" clip-path="url(#p77d3c35fd6)" style="fill: none; stroke-dasharray: 3.7,1.6; stroke-dashoffset: 0; stroke: #2ca02c"/>
    <g clip-path="url(#p77d3c35fd6)">
     <use xlink:href="#m8d9e93f891" x="77.229858" y="622.643478" style="fill: #2ca02c; stroke: #000000; stroke-linejoin: miter"/>
     <use xlink:href="#m8d9e93f891" x="432.320767" y="574.39026" style="fill: #2ca02c; stroke: #000000; stroke-linejoin: miter"/>
    </g>
   </g>
   <g id="line2d_66">
    <path d="M 77.229858 622.643478 
L 432.320767 575.204024 
" clip-path="url(#p77d3c35fd6)" style="fill: none; stroke-dasharray: 3.7,1.6; stroke-dashoffset: 0; stroke: #ff0000"/>
    <g clip-path="url(#p77d3c35fd6)">
     <use xlink:href="#m4182ce0a70" x="77.229858" y="622.643478" style="fill: #ff0000; stroke: #000000; stroke-linejoin: miter"/>
     <use xlink:href="#m4182ce0a70" x="432.320767" y="575.204024" style="fill: #ff0000; stroke: #000000; stroke-linejoin: miter"/>
    </g>
   </g>
   <g id="patch_9">
    <path d="M 59.475313 633.6 
L 59.475313 392.556522 
" style="fill: none; stroke: #000000; stroke-width: 0.8; stroke-linejoin: miter; stroke-linecap: square"/>
   </g>
   <g id="patch_10">
    <path d="M 450.075312 633.6 
L 450.075312 392.556522 
" style="fill: none; stroke: #000000; stroke-width: 0.8; stroke-linejoin: miter; stroke-linecap: square"/>
   </g>
   <g id="patch_11">
    <path d="M 59.475312 633.6 
L 450.075313 633.6 
" style="fill: none; stroke: #000000; stroke-width: 0.8; stroke-linejoin: miter; stroke-linecap: square"/>
   </g>
   <g id="patch_12">
    <path d="M 59.475312 392.556522 
L 450.075313 392.556522 
" style="fill: none; stroke: #000000; stroke-width: 0.8; stroke-linejoin: miter; stroke-linecap: square"/>
   </g>
   <g id="legend_2">
    <g id="patch_13">
     <path d="M 290.870625 547.337772 
L 443.075312 547.337772 
Q 445.075312 547.337772 445.075312 545.337772 
L 445.075312 399.556522 
Q 445.075312 397.556522 443.075312 397.556522 
L 290.870625 397.556522 
Q 288.870625 397.556522 288.870625 399.556522 
L 288.870625 545.337772 
Q 288.870625 547.337772 290.870625 547.337772 
z
" style="fill: #ffffff; opacity: 0.8; stroke: #cccccc; stroke-linejoin: miter"/>
    </g>
    <g id="line2d_67">
     <path d="M 292.870625 405.654959 
L 312.870625 405.654959 
" style="fill: none; stroke: #000000; stroke-width: 2; stroke-linecap: square"/>
    </g>
    <g id="line2d_68"/>
    <g id="text_41">
     <!-- Sim 0 -->
     <g transform="translate(320.870625 409.154959) scale(0.1 -0.1)">
      <use xlink:href="#DejaVuSans-53"/>
      <use xlink:href="#DejaVuSans-69" transform="translate(63.476562 0)"/>
      <use xlink:href="#DejaVuSans-6d" transform="translate(91.259766 0)"/>
      <use xlink:href="#DejaVuSans-20" transform="translate(188.671875 0)"/>
      <use xlink:href="#DejaVuSans-30" transform="translate(220.458984 0)"/>
     </g>
    </g>
    <g id="line2d_69">
     <path d="M 292.870625 420.333084 
L 312.870625 420.333084 
" style="fill: none; stroke: #1f77b4; stroke-width: 2; stroke-linecap: square"/>
    </g>
    <g id="line2d_70"/>
    <g id="text_42">
     <!-- Sim 12.5 -->
     <g transform="translate(320.870625 423.833084) scale(0.1 -0.1)">
      <use xlink:href="#DejaVuSans-53"/>
      <use xlink:href="#DejaVuSans-69" transform="translate(63.476562 0)"/>
      <use xlink:href="#DejaVuSans-6d" transform="translate(91.259766 0)"/>
      <use xlink:href="#DejaVuSans-20" transform="translate(188.671875 0)"/>
      <use xlink:href="#DejaVuSans-31" transform="translate(220.458984 0)"/>
      <use xlink:href="#DejaVuSans-32" transform="translate(284.082031 0)"/>
      <use xlink:href="#DejaVuSans-2e" transform="translate(347.705078 0)"/>
      <use xlink:href="#DejaVuSans-35" transform="translate(379.492188 0)"/>
     </g>
    </g>
    <g id="line2d_71">
     <path d="M 292.870625 435.011209 
L 312.870625 435.011209 
" style="fill: none; stroke: #ff7f0e; stroke-width: 2; stroke-linecap: square"/>
    </g>
    <g id="line2d_72"/>
    <g id="text_43">
     <!-- Sim 25 -->
     <g transform="translate(320.870625 438.511209) scale(0.1 -0.1)">
      <use xlink:href="#DejaVuSans-53"/>
      <use xlink:href="#DejaVuSans-69" transform="translate(63.476562 0)"/>
      <use xlink:href="#DejaVuSans-6d" transform="translate(91.259766 0)"/>
      <use xlink:href="#DejaVuSans-20" transform="translate(188.671875 0)"/>
      <use xlink:href="#DejaVuSans-32" transform="translate(220.458984 0)"/>
      <use xlink:href="#DejaVuSans-35" transform="translate(284.082031 0)"/>
     </g>
    </g>
    <g id="line2d_73">
     <path d="M 292.870625 449.689334 
L 312.870625 449.689334 
" style="fill: none; stroke: #2ca02c; stroke-width: 2; stroke-linecap: square"/>
    </g>
    <g id="line2d_74"/>
    <g id="text_44">
     <!-- Sim 50 -->
     <g transform="translate(320.870625 453.189334) scale(0.1 -0.1)">
      <use xlink:href="#DejaVuSans-53"/>
      <use xlink:href="#DejaVuSans-69" transform="translate(63.476562 0)"/>
      <use xlink:href="#DejaVuSans-6d" transform="translate(91.259766 0)"/>
      <use xlink:href="#DejaVuSans-20" transform="translate(188.671875 0)"/>
      <use xlink:href="#DejaVuSans-35" transform="translate(220.458984 0)"/>
      <use xlink:href="#DejaVuSans-30" transform="translate(284.082031 0)"/>
     </g>
    </g>
    <g id="line2d_75">
     <path d="M 292.870625 464.367459 
L 312.870625 464.367459 
" style="fill: none; stroke: #ff0000; stroke-width: 2; stroke-linecap: square"/>
    </g>
    <g id="line2d_76"/>
    <g id="text_45">
     <!-- Sim 75 -->
     <g transform="translate(320.870625 467.867459) scale(0.1 -0.1)">
      <use xlink:href="#DejaVuSans-53"/>
      <use xlink:href="#DejaVuSans-69" transform="translate(63.476562 0)"/>
      <use xlink:href="#DejaVuSans-6d" transform="translate(91.259766 0)"/>
      <use xlink:href="#DejaVuSans-20" transform="translate(188.671875 0)"/>
      <use xlink:href="#DejaVuSans-37" transform="translate(220.458984 0)"/>
      <use xlink:href="#DejaVuSans-35" transform="translate(284.082031 0)"/>
     </g>
    </g>
    <g id="LineCollection_16">
     <path d="M 302.870625 484.045584 
L 302.870625 474.045584 
" style="fill: none; stroke: #000000"/>
    </g>
    <g id="line2d_77">
     <path d="M 292.870625 479.045584 
L 312.870625 479.045584 
" style="fill: none; stroke-dasharray: 3.7,1.6; stroke-dashoffset: 0; stroke: #000000"/>
    </g>
    <g id="line2d_78">
     <g>
      <use xlink:href="#m8c6194ae81" x="302.870625" y="479.045584" style="stroke: #000000; stroke-linejoin: miter"/>
     </g>
    </g>
    <g id="text_46">
     <!-- hctz 0 mg±SD (n=8) -->
     <g transform="translate(320.870625 482.545584) scale(0.1 -0.1)">
      <use xlink:href="#DejaVuSans-68"/>
      <use xlink:href="#DejaVuSans-63" transform="translate(63.378906 0)"/>
      <use xlink:href="#DejaVuSans-74" transform="translate(118.359375 0)"/>
      <use xlink:href="#DejaVuSans-7a" transform="translate(157.568359 0)"/>
      <use xlink:href="#DejaVuSans-20" transform="translate(210.058594 0)"/>
      <use xlink:href="#DejaVuSans-30" transform="translate(241.845703 0)"/>
      <use xlink:href="#DejaVuSans-20" transform="translate(305.46875 0)"/>
      <use xlink:href="#DejaVuSans-6d" transform="translate(337.255859 0)"/>
      <use xlink:href="#DejaVuSans-67" transform="translate(434.667969 0)"/>
      <use xlink:href="#DejaVuSans-b1" transform="translate(498.144531 0)"/>
      <use xlink:href="#DejaVuSans-53" transform="translate(581.933594 0)"/>
      <use xlink:href="#DejaVuSans-44" transform="translate(645.410156 0)"/>
      <use xlink:href="#DejaVuSans-20" transform="translate(722.412109 0)"/>
      <use xlink:href="#DejaVuSans-28" transform="translate(754.199219 0)"/>
      <use xlink:href="#DejaVuSans-6e" transform="translate(793.212891 0)"/>
      <use xlink:href="#DejaVuSans-3d" transform="translate(856.591797 0)"/>
      <use xlink:href="#DejaVuSans-38" transform="translate(940.380859 0)"/>
      <use xlink:href="#DejaVuSans-29" transform="translate(1004.003906 0)"/>
     </g>
    </g>
    <g id="LineCollection_17">
     <path d="M 302.870625 498.723709 
L 302.870625 488.723709 
" style="fill: none; stroke: #1f77b4"/>
    </g>
    <g id="line2d_79">
     <path d="M 292.870625 493.723709 
L 312.870625 493.723709 
" style="fill: none; stroke-dasharray: 3.7,1.6; stroke-dashoffset: 0; stroke: #1f77b4"/>
    </g>
    <g id="line2d_80">
     <g>
      <use xlink:href="#me4a29e38c7" x="302.870625" y="493.723709" style="fill: #1f77b4; stroke: #000000; stroke-linejoin: miter"/>
     </g>
    </g>
    <g id="text_47">
     <!-- hctz 12.5 mg±SD (n=8) -->
     <g transform="translate(320.870625 497.223709) scale(0.1 -0.1)">
      <use xlink:href="#DejaVuSans-68"/>
      <use xlink:href="#DejaVuSans-63" transform="translate(63.378906 0)"/>
      <use xlink:href="#DejaVuSans-74" transform="translate(118.359375 0)"/>
      <use xlink:href="#DejaVuSans-7a" transform="translate(157.568359 0)"/>
      <use xlink:href="#DejaVuSans-20" transform="translate(210.058594 0)"/>
      <use xlink:href="#DejaVuSans-31" transform="translate(241.845703 0)"/>
      <use xlink:href="#DejaVuSans-32" transform="translate(305.46875 0)"/>
      <use xlink:href="#DejaVuSans-2e" transform="translate(369.091797 0)"/>
      <use xlink:href="#DejaVuSans-35" transform="translate(400.878906 0)"/>
      <use xlink:href="#DejaVuSans-20" transform="translate(464.501953 0)"/>
      <use xlink:href="#DejaVuSans-6d" transform="translate(496.289062 0)"/>
      <use xlink:href="#DejaVuSans-67" transform="translate(593.701172 0)"/>
      <use xlink:href="#DejaVuSans-b1" transform="translate(657.177734 0)"/>
      <use xlink:href="#DejaVuSans-53" transform="translate(740.966797 0)"/>
      <use xlink:href="#DejaVuSans-44" transform="translate(804.443359 0)"/>
      <use xlink:href="#DejaVuSans-20" transform="translate(881.445312 0)"/>
      <use xlink:href="#DejaVuSans-28" transform="translate(913.232422 0)"/>
      <use xlink:href="#DejaVuSans-6e" transform="translate(952.246094 0)"/>
      <use xlink:href="#DejaVuSans-3d" transform="translate(1015.625 0)"/>
      <use xlink:href="#DejaVuSans-38" transform="translate(1099.414062 0)"/>
      <use xlink:href="#DejaVuSans-29" transform="translate(1163.037109 0)"/>
     </g>
    </g>
    <g id="LineCollection_18">
     <path d="M 302.870625 513.401834 
L 302.870625 503.401834 
" style="fill: none; stroke: #ff7f0e"/>
    </g>
    <g id="line2d_81">
     <path d="M 292.870625 508.401834 
L 312.870625 508.401834 
" style="fill: none; stroke-dasharray: 3.7,1.6; stroke-dashoffset: 0; stroke: #ff7f0e"/>
    </g>
    <g id="line2d_82">
     <g>
      <use xlink:href="#mb8858f2a22" x="302.870625" y="508.401834" style="fill: #ff7f0e; stroke: #000000; stroke-linejoin: miter"/>
     </g>
    </g>
    <g id="text_48">
     <!-- hctz 25 mg±SD (n=8) -->
     <g transform="translate(320.870625 511.901834) scale(0.1 -0.1)">
      <use xlink:href="#DejaVuSans-68"/>
      <use xlink:href="#DejaVuSans-63" transform="translate(63.378906 0)"/>
      <use xlink:href="#DejaVuSans-74" transform="translate(118.359375 0)"/>
      <use xlink:href="#DejaVuSans-7a" transform="translate(157.568359 0)"/>
      <use xlink:href="#DejaVuSans-20" transform="translate(210.058594 0)"/>
      <use xlink:href="#DejaVuSans-32" transform="translate(241.845703 0)"/>
      <use xlink:href="#DejaVuSans-35" transform="translate(305.46875 0)"/>
      <use xlink:href="#DejaVuSans-20" transform="translate(369.091797 0)"/>
      <use xlink:href="#DejaVuSans-6d" transform="translate(400.878906 0)"/>
      <use xlink:href="#DejaVuSans-67" transform="translate(498.291016 0)"/>
      <use xlink:href="#DejaVuSans-b1" transform="translate(561.767578 0)"/>
      <use xlink:href="#DejaVuSans-53" transform="translate(645.556641 0)"/>
      <use xlink:href="#DejaVuSans-44" transform="translate(709.033203 0)"/>
      <use xlink:href="#DejaVuSans-20" transform="translate(786.035156 0)"/>
      <use xlink:href="#DejaVuSans-28" transform="translate(817.822266 0)"/>
      <use xlink:href="#DejaVuSans-6e" transform="translate(856.835938 0)"/>
      <use xlink:href="#DejaVuSans-3d" transform="translate(920.214844 0)"/>
      <use xlink:href="#DejaVuSans-38" transform="translate(1004.003906 0)"/>
      <use xlink:href="#DejaVuSans-29" transform="translate(1067.626953 0)"/>
     </g>
    </g>
    <g id="LineCollection_19">
     <path d="M 302.870625 528.079959 
L 302.870625 518.079959 
" style="fill: none; stroke: #2ca02c"/>
    </g>
    <g id="line2d_83">
     <path d="M 292.870625 523.079959 
L 312.870625 523.079959 
" style="fill: none; stroke-dasharray: 3.7,1.6; stroke-dashoffset: 0; stroke: #2ca02c"/>
    </g>
    <g id="line2d_84">
     <g>
      <use xlink:href="#m8d9e93f891" x="302.870625" y="523.079959" style="fill: #2ca02c; stroke: #000000; stroke-linejoin: miter"/>
     </g>
    </g>
    <g id="text_49">
     <!-- hctz 50 mg±SD (n=8) -->
     <g transform="translate(320.870625 526.579959) scale(0.1 -0.1)">
      <use xlink:href="#DejaVuSans-68"/>
      <use xlink:href="#DejaVuSans-63" transform="translate(63.378906 0)"/>
      <use xlink:href="#DejaVuSans-74" transform="translate(118.359375 0)"/>
      <use xlink:href="#DejaVuSans-7a" transform="translate(157.568359 0)"/>
      <use xlink:href="#DejaVuSans-20" transform="translate(210.058594 0)"/>
      <use xlink:href="#DejaVuSans-35" transform="translate(241.845703 0)"/>
      <use xlink:href="#DejaVuSans-30" transform="translate(305.46875 0)"/>
      <use xlink:href="#DejaVuSans-20" transform="translate(369.091797 0)"/>
      <use xlink:href="#DejaVuSans-6d" transform="translate(400.878906 0)"/>
      <use xlink:href="#DejaVuSans-67" transform="translate(498.291016 0)"/>
      <use xlink:href="#DejaVuSans-b1" transform="translate(561.767578 0)"/>
      <use xlink:href="#DejaVuSans-53" transform="translate(645.556641 0)"/>
      <use xlink:href="#DejaVuSans-44" transform="translate(709.033203 0)"/>
      <use xlink:href="#DejaVuSans-20" transform="translate(786.035156 0)"/>
      <use xlink:href="#DejaVuSans-28" transform="translate(817.822266 0)"/>
      <use xlink:href="#DejaVuSans-6e" transform="translate(856.835938 0)"/>
      <use xlink:href="#DejaVuSans-3d" transform="translate(920.214844 0)"/>
      <use xlink:href="#DejaVuSans-38" transform="translate(1004.003906 0)"/>
      <use xlink:href="#DejaVuSans-29" transform="translate(1067.626953 0)"/>
     </g>
    </g>
    <g id="LineCollection_20">
     <path d="M 302.870625 542.758084 
L 302.870625 532.758084 
" style="fill: none; stroke: #ff0000"/>
    </g>
    <g id="line2d_85">
     <path d="M 292.870625 537.758084 
L 312.870625 537.758084 
" style="fill: none; stroke-dasharray: 3.7,1.6; stroke-dashoffset: 0; stroke: #ff0000"/>
    </g>
    <g id="line2d_86">
     <g>
      <use xlink:href="#m4182ce0a70" x="302.870625" y="537.758084" style="fill: #ff0000; stroke: #000000; stroke-linejoin: miter"/>
     </g>
    </g>
    <g id="text_50">
     <!-- hctz 75 mg±SD (n=8) -->
     <g transform="translate(320.870625 541.258084) scale(0.1 -0.1)">
      <use xlink:href="#DejaVuSans-68"/>
      <use xlink:href="#DejaVuSans-63" transform="translate(63.378906 0)"/>
      <use xlink:href="#DejaVuSans-74" transform="translate(118.359375 0)"/>
      <use xlink:href="#DejaVuSans-7a" transform="translate(157.568359 0)"/>
      <use xlink:href="#DejaVuSans-20" transform="translate(210.058594 0)"/>
      <use xlink:href="#DejaVuSans-37" transform="translate(241.845703 0)"/>
      <use xlink:href="#DejaVuSans-35" transform="translate(305.46875 0)"/>
      <use xlink:href="#DejaVuSans-20" transform="translate(369.091797 0)"/>
      <use xlink:href="#DejaVuSans-6d" transform="translate(400.878906 0)"/>
      <use xlink:href="#DejaVuSans-67" transform="translate(498.291016 0)"/>
      <use xlink:href="#DejaVuSans-b1" transform="translate(561.767578 0)"/>
      <use xlink:href="#DejaVuSans-53" transform="translate(645.556641 0)"/>
      <use xlink:href="#DejaVuSans-44" transform="translate(709.033203 0)"/>
      <use xlink:href="#DejaVuSans-20" transform="translate(786.035156 0)"/>
      <use xlink:href="#DejaVuSans-28" transform="translate(817.822266 0)"/>
      <use xlink:href="#DejaVuSans-6e" transform="translate(856.835938 0)"/>
      <use xlink:href="#DejaVuSans-3d" transform="translate(920.214844 0)"/>
      <use xlink:href="#DejaVuSans-38" transform="translate(1004.003906 0)"/>
      <use xlink:href="#DejaVuSans-29" transform="translate(1067.626953 0)"/>
     </g>
    </g>
   </g>
  </g>
  <g id="text_51">
   <!-- Beermann1977a Fig5tc -->
   <g transform="translate(85.139375 26.196094) scale(0.25 -0.25)">
    <defs>
     <path id="DejaVuSans-Bold-42" d="M 2456 2859 
Q 2741 2859 2887 2984 
Q 3034 3109 3034 3353 
Q 3034 3594 2887 3720 
Q 2741 3847 2456 3847 
L 1791 3847 
L 1791 2859 
L 2456 2859 
z
M 2497 819 
Q 2859 819 3042 972 
Q 3225 1125 3225 1434 
Q 3225 1738 3044 1889 
Q 2863 2041 2497 2041 
L 1791 2041 
L 1791 819 
L 2497 819 
z
M 3616 2497 
Q 4003 2384 4215 2081 
Q 4428 1778 4428 1338 
Q 4428 663 3972 331 
Q 3516 0 2584 0 
L 588 0 
L 588 4666 
L 2394 4666 
Q 3366 4666 3802 4372 
Q 4238 4078 4238 3431 
Q 4238 3091 4078 2852 
Q 3919 2613 3616 2497 
z
" transform="scale(0.015625)"/>
     <path id="DejaVuSans-Bold-61" d="M 2106 1575 
Q 1756 1575 1579 1456 
Q 1403 1338 1403 1106 
Q 1403 894 1545 773 
Q 1688 653 1941 653 
Q 2256 653 2472 879 
Q 2688 1106 2688 1447 
L 2688 1575 
L 2106 1575 
z
M 3816 1997 
L 3816 0 
L 2688 0 
L 2688 519 
Q 2463 200 2181 54 
Q 1900 -91 1497 -91 
Q 953 -91 614 226 
Q 275 544 275 1050 
Q 275 1666 698 1953 
Q 1122 2241 2028 2241 
L 2688 2241 
L 2688 2328 
Q 2688 2594 2478 2717 
Q 2269 2841 1825 2841 
Q 1466 2841 1156 2769 
Q 847 2697 581 2553 
L 581 3406 
Q 941 3494 1303 3539 
Q 1666 3584 2028 3584 
Q 2975 3584 3395 3211 
Q 3816 2838 3816 1997 
z
" transform="scale(0.015625)"/>
     <path id="DejaVuSans-Bold-31" d="M 750 831 
L 1813 831 
L 1813 3847 
L 722 3622 
L 722 4441 
L 1806 4666 
L 2950 4666 
L 2950 831 
L 4013 831 
L 4013 0 
L 750 0 
L 750 831 
z
" transform="scale(0.015625)"/>
     <path id="DejaVuSans-Bold-39" d="M 641 103 
L 641 966 
Q 928 831 1190 764 
Q 1453 697 1709 697 
Q 2247 697 2547 995 
Q 2847 1294 2900 1881 
Q 2688 1725 2447 1647 
Q 2206 1569 1925 1569 
Q 1209 1569 770 1986 
Q 331 2403 331 3084 
Q 331 3838 820 4291 
Q 1309 4744 2131 4744 
Q 3044 4744 3544 4128 
Q 4044 3513 4044 2388 
Q 4044 1231 3459 570 
Q 2875 -91 1856 -91 
Q 1528 -91 1228 -42 
Q 928 6 641 103 
z
M 2125 2350 
Q 2441 2350 2600 2554 
Q 2759 2759 2759 3169 
Q 2759 3575 2600 3781 
Q 2441 3988 2125 3988 
Q 1809 3988 1650 3781 
Q 1491 3575 1491 3169 
Q 1491 2759 1650 2554 
Q 1809 2350 2125 2350 
z
" transform="scale(0.015625)"/>
     <path id="DejaVuSans-Bold-37" d="M 428 4666 
L 3944 4666 
L 3944 3988 
L 2125 0 
L 953 0 
L 2675 3781 
L 428 3781 
L 428 4666 
z
" transform="scale(0.015625)"/>
     <path id="DejaVuSans-Bold-46" d="M 588 4666 
L 3834 4666 
L 3834 3756 
L 1791 3756 
L 1791 2888 
L 3713 2888 
L 3713 1978 
L 1791 1978 
L 1791 0 
L 588 0 
L 588 4666 
z
" transform="scale(0.015625)"/>
     <path id="DejaVuSans-Bold-67" d="M 2919 594 
Q 2688 288 2409 144 
Q 2131 0 1766 0 
Q 1125 0 706 504 
Q 288 1009 288 1791 
Q 288 2575 706 3076 
Q 1125 3578 1766 3578 
Q 2131 3578 2409 3434 
Q 2688 3291 2919 2981 
L 2919 3500 
L 4044 3500 
L 4044 353 
Q 4044 -491 3511 -936 
Q 2978 -1381 1966 -1381 
Q 1638 -1381 1331 -1331 
Q 1025 -1281 716 -1178 
L 716 -306 
Q 1009 -475 1290 -558 
Q 1572 -641 1856 -641 
Q 2406 -641 2662 -400 
Q 2919 -159 2919 353 
L 2919 594 
z
M 2181 2772 
Q 1834 2772 1640 2515 
Q 1447 2259 1447 1791 
Q 1447 1309 1634 1061 
Q 1822 813 2181 813 
Q 2531 813 2725 1069 
Q 2919 1325 2919 1791 
Q 2919 2259 2725 2515 
Q 2531 2772 2181 2772 
z
" transform="scale(0.015625)"/>
     <path id="DejaVuSans-Bold-35" d="M 678 4666 
L 3669 4666 
L 3669 3781 
L 1638 3781 
L 1638 3059 
Q 1775 3097 1914 3117 
Q 2053 3138 2203 3138 
Q 3056 3138 3531 2711 
Q 4006 2284 4006 1522 
Q 4006 766 3489 337 
Q 2972 -91 2053 -91 
Q 1656 -91 1267 -14 
Q 878 63 494 219 
L 494 1166 
Q 875 947 1217 837 
Q 1559 728 1863 728 
Q 2300 728 2551 942 
Q 2803 1156 2803 1522 
Q 2803 1891 2551 2103 
Q 2300 2316 1863 2316 
Q 1603 2316 1309 2248 
Q 1016 2181 678 2041 
L 678 4666 
z
" transform="scale(0.015625)"/>
     <path id="DejaVuSans-Bold-63" d="M 3366 3391 
L 3366 2478 
Q 3138 2634 2908 2709 
Q 2678 2784 2431 2784 
Q 1963 2784 1702 2511 
Q 1441 2238 1441 1747 
Q 1441 1256 1702 982 
Q 1963 709 2431 709 
Q 2694 709 2930 787 
Q 3166 866 3366 1019 
L 3366 103 
Q 3103 6 2833 -42 
Q 2563 -91 2291 -91 
Q 1344 -91 809 395 
Q 275 881 275 1747 
Q 275 2613 809 3098 
Q 1344 3584 2291 3584 
Q 2566 3584 2833 3536 
Q 3100 3488 3366 3391 
z
" transform="scale(0.015625)"/>
    </defs>
    <use xlink:href="#DejaVuSans-Bold-42"/>
    <use xlink:href="#DejaVuSans-Bold-65" transform="translate(76.220703 0)"/>
    <use xlink:href="#DejaVuSans-Bold-65" transform="translate(144.042969 0)"/>
    <use xlink:href="#DejaVuSans-Bold-72" transform="translate(211.865234 0)"/>
    <use xlink:href="#DejaVuSans-Bold-6d" transform="translate(261.181641 0)"/>
    <use xlink:href="#DejaVuSans-Bold-61" transform="translate(365.380859 0)"/>
    <use xlink:href="#DejaVuSans-Bold-6e" transform="translate(432.861328 0)"/>
    <use xlink:href="#DejaVuSans-Bold-6e" transform="translate(504.052734 0)"/>
    <use xlink:href="#DejaVuSans-Bold-31" transform="translate(575.244141 0)"/>
    <use xlink:href="#DejaVuSans-Bold-39" transform="translate(644.824219 0)"/>
    <use xlink:href="#DejaVuSans-Bold-37" transform="translate(714.404297 0)"/>
    <use xlink:href="#DejaVuSans-Bold-37" transform="translate(783.984375 0)"/>
    <use xlink:href="#DejaVuSans-Bold-61" transform="translate(853.564453 0)"/>
    <use xlink:href="#DejaVuSans-Bold-20" transform="translate(921.044922 0)"/>
    <use xlink:href="#DejaVuSans-Bold-46" transform="translate(955.859375 0)"/>
    <use xlink:href="#DejaVuSans-Bold-69" transform="translate(1024.169922 0)"/>
    <use xlink:href="#DejaVuSans-Bold-67" transform="translate(1058.447266 0)"/>
    <use xlink:href="#DejaVuSans-Bold-35" transform="translate(1130.029297 0)"/>
    <use xlink:href="#DejaVuSans-Bold-74" transform="translate(1199.609375 0)"/>
    <use xlink:href="#DejaVuSans-Bold-63" transform="translate(1247.412109 0)"/>
   </g>
  </g>
 </g>
 <defs>
  <clipPath id="p5177a49bd5">
   <rect x="59.475313" y="79.2" width="390.6" height="241.043478"/>
  </clipPath>
  <clipPath id="p77d3c35fd6">
   <rect x="59.475313" y="392.556522" width="390.6" height="241.043478"/>
  </clipPath>
 </defs>
</svg>
