<?xml version="1.0" encoding="utf-8" standalone="no"?>
<!DOCTYPE svg PUBLIC "-//W3C//DTD SVG 1.1//EN"
  "http://www.w3.org/Graphics/SVG/1.1/DTD/svg11.dtd">
<svg xmlns:xlink="http://www.w3.org/1999/xlink" width="457.295pt" height="370.537812pt" viewBox="0 0 457.295 370.537812" xmlns="http://www.w3.org/2000/svg" version="1.1">
 <metadata>
  <rdf:RDF xmlns:dc="http://purl.org/dc/elements/1.1/" xmlns:cc="http://creativecommons.org/ns#" xmlns:rdf="http://www.w3.org/1999/02/22-rdf-syntax-ns#">
   <cc:Work>
    <dc:type rdf:resource="http://purl.org/dc/dcmitype/StillImage"/>
    <dc:date>2025-11-04T18:11:52.453029</dc:date>
    <dc:format>image/svg+xml</dc:format>
    <dc:creator>
     <cc:Agent>
      <dc:title>Matplotlib v3.10.7, https://matplotlib.org/</dc:title>
     </cc:Agent>
    </dc:creator>
   </cc:Work>
  </rdf:RDF>
 </metadata>
 <defs>
  <style type="text/css">*{stroke-linejoin: round; stroke-linecap: butt}</style>
 </defs>
 <g id="figure_1">
  <g id="patch_1">
   <path d="M 0 370.537812 
L 457.295 370.537812 
L 457.295 0 
L 0 0 
z
" style="fill: #ffffff"/>
  </g>
  <g id="axes_1">
   <g id="patch_2">
    <path d="M 59.495 320.4 
L 450.095 320.4 
L 450.095 43.2 
L 59.495 43.2 
z
" style="fill: #ffffff"/>
   </g>
   <g id="matplotlib.axis_1">
    <g id="xtick_1">
     <g id="line2d_1">
      <defs>
       <path id="m18add26085" d="M 0 0 
L 0 3.5 
" style="stroke: #000000; stroke-width: 0.8"/>
      </defs>
      <g>
       <use xlink:href="#m18add26085" x="98.555" y="320.4" style="stroke: #000000; stroke-width: 0.8"/>
      </g>
     </g>
     <g id="text_1">
      <!-- −20 -->
      <g transform="translate(82.726484 338.797656) scale(0.15 -0.15)">
       <defs>
        <path id="DejaVuSans-2212" d="M 678 2272 
L 4684 2272 
L 4684 1741 
L 678 1741 
L 678 2272 
z
" transform="scale(0.015625)"/>
        <path id="DejaVuSans-32" d="M 1228 531 
L 3431 531 
L 3431 0 
L 469 0 
L 469 531 
Q 828 903 1448 1529 
Q 2069 2156 2228 2338 
Q 2531 2678 2651 2914 
Q 2772 3150 2772 3378 
Q 2772 3750 2511 3984 
Q 2250 4219 1831 4219 
Q 1534 4219 1204 4116 
Q 875 4013 500 3803 
L 500 4441 
Q 881 4594 1212 4672 
Q 1544 4750 1819 4750 
Q 2544 4750 2975 4387 
Q 3406 4025 3406 3419 
Q 3406 3131 3298 2873 
Q 3191 2616 2906 2266 
Q 2828 2175 2409 1742 
Q 1991 1309 1228 531 
z
" transform="scale(0.015625)"/>
        <path id="DejaVuSans-30" d="M 2034 4250 
Q 1547 4250 1301 3770 
Q 1056 3291 1056 2328 
Q 1056 1369 1301 889 
Q 1547 409 2034 409 
Q 2525 409 2770 889 
Q 3016 1369 3016 2328 
Q 3016 3291 2770 3770 
Q 2525 4250 2034 4250 
z
M 2034 4750 
Q 2819 4750 3233 4129 
Q 3647 3509 3647 2328 
Q 3647 1150 3233 529 
Q 2819 -91 2034 -91 
Q 1250 -91 836 529 
Q 422 1150 422 2328 
Q 422 3509 836 4129 
Q 1250 4750 2034 4750 
z
" transform="scale(0.015625)"/>
       </defs>
       <use xlink:href="#DejaVuSans-2212"/>
       <use xlink:href="#DejaVuSans-32" transform="translate(83.789062 0)"/>
       <use xlink:href="#DejaVuSans-30" transform="translate(147.412109 0)"/>
      </g>
     </g>
    </g>
    <g id="xtick_2">
     <g id="line2d_2">
      <g>
       <use xlink:href="#m18add26085" x="176.675" y="320.4" style="stroke: #000000; stroke-width: 0.8"/>
      </g>
     </g>
     <g id="text_2">
      <!-- −10 -->
      <g transform="translate(160.846484 338.797656) scale(0.15 -0.15)">
       <defs>
        <path id="DejaVuSans-31" d="M 794 531 
L 1825 531 
L 1825 4091 
L 703 3866 
L 703 4441 
L 1819 4666 
L 2450 4666 
L 2450 531 
L 3481 531 
L 3481 0 
L 794 0 
L 794 531 
z
" transform="scale(0.015625)"/>
       </defs>
       <use xlink:href="#DejaVuSans-2212"/>
       <use xlink:href="#DejaVuSans-31" transform="translate(83.789062 0)"/>
       <use xlink:href="#DejaVuSans-30" transform="translate(147.412109 0)"/>
      </g>
     </g>
    </g>
    <g id="xtick_3">
     <g id="line2d_3">
      <g>
       <use xlink:href="#m18add26085" x="254.795" y="320.4" style="stroke: #000000; stroke-width: 0.8"/>
      </g>
     </g>
     <g id="text_3">
      <!-- 0 -->
      <g transform="translate(250.023125 338.797656) scale(0.15 -0.15)">
       <use xlink:href="#DejaVuSans-30"/>
      </g>
     </g>
    </g>
    <g id="xtick_4">
     <g id="line2d_4">
      <g>
       <use xlink:href="#m18add26085" x="332.915" y="320.4" style="stroke: #000000; stroke-width: 0.8"/>
      </g>
     </g>
     <g id="text_4">
      <!-- 10 -->
      <g transform="translate(323.37125 338.797656) scale(0.15 -0.15)">
       <use xlink:href="#DejaVuSans-31"/>
       <use xlink:href="#DejaVuSans-30" transform="translate(63.623047 0)"/>
      </g>
     </g>
    </g>
    <g id="xtick_5">
     <g id="line2d_5">
      <g>
       <use xlink:href="#m18add26085" x="411.035" y="320.4" style="stroke: #000000; stroke-width: 0.8"/>
      </g>
     </g>
     <g id="text_5">
      <!-- 20 -->
      <g transform="translate(401.49125 338.797656) scale(0.15 -0.15)">
       <use xlink:href="#DejaVuSans-32"/>
       <use xlink:href="#DejaVuSans-30" transform="translate(63.623047 0)"/>
      </g>
     </g>
    </g>
    <g id="text_6">
     <!-- time [hr] -->
     <g transform="translate(209.720469 359.594375) scale(0.18 -0.18)">
      <defs>
       <path id="DejaVuSans-Bold-74" d="M 1759 4494 
L 1759 3500 
L 2913 3500 
L 2913 2700 
L 1759 2700 
L 1759 1216 
Q 1759 972 1856 886 
Q 1953 800 2241 800 
L 2816 800 
L 2816 0 
L 1856 0 
Q 1194 0 917 276 
Q 641 553 641 1216 
L 641 2700 
L 84 2700 
L 84 3500 
L 641 3500 
L 641 4494 
L 1759 4494 
z
" transform="scale(0.015625)"/>
       <path id="DejaVuSans-Bold-69" d="M 538 3500 
L 1656 3500 
L 1656 0 
L 538 0 
L 538 3500 
z
M 538 4863 
L 1656 4863 
L 1656 3950 
L 538 3950 
L 538 4863 
z
" transform="scale(0.015625)"/>
       <path id="DejaVuSans-Bold-6d" d="M 3781 2919 
Q 3994 3244 4286 3414 
Q 4578 3584 4928 3584 
Q 5531 3584 5847 3212 
Q 6163 2841 6163 2131 
L 6163 0 
L 5038 0 
L 5038 1825 
Q 5041 1866 5042 1909 
Q 5044 1953 5044 2034 
Q 5044 2406 4934 2573 
Q 4825 2741 4581 2741 
Q 4263 2741 4089 2478 
Q 3916 2216 3909 1719 
L 3909 0 
L 2784 0 
L 2784 1825 
Q 2784 2406 2684 2573 
Q 2584 2741 2328 2741 
Q 2006 2741 1831 2477 
Q 1656 2213 1656 1722 
L 1656 0 
L 531 0 
L 531 3500 
L 1656 3500 
L 1656 2988 
Q 1863 3284 2130 3434 
Q 2397 3584 2719 3584 
Q 3081 3584 3359 3409 
Q 3638 3234 3781 2919 
z
" transform="scale(0.015625)"/>
       <path id="DejaVuSans-Bold-65" d="M 4031 1759 
L 4031 1441 
L 1416 1441 
Q 1456 1047 1700 850 
Q 1944 653 2381 653 
Q 2734 653 3104 758 
Q 3475 863 3866 1075 
L 3866 213 
Q 3469 63 3072 -14 
Q 2675 -91 2278 -91 
Q 1328 -91 801 392 
Q 275 875 275 1747 
Q 275 2603 792 3093 
Q 1309 3584 2216 3584 
Q 3041 3584 3536 3087 
Q 4031 2591 4031 1759 
z
M 2881 2131 
Q 2881 2450 2695 2645 
Q 2509 2841 2209 2841 
Q 1884 2841 1681 2658 
Q 1478 2475 1428 2131 
L 2881 2131 
z
" transform="scale(0.015625)"/>
       <path id="DejaVuSans-Bold-20" transform="scale(0.015625)"/>
       <path id="DejaVuSans-Bold-5b" d="M 550 4863 
L 2491 4863 
L 2491 4159 
L 1613 4159 
L 1613 -141 
L 2491 -141 
L 2491 -844 
L 550 -844 
L 550 4863 
z
" transform="scale(0.015625)"/>
       <path id="DejaVuSans-Bold-68" d="M 4056 2131 
L 4056 0 
L 2931 0 
L 2931 347 
L 2931 1625 
Q 2931 2084 2911 2256 
Q 2891 2428 2841 2509 
Q 2775 2619 2662 2680 
Q 2550 2741 2406 2741 
Q 2056 2741 1856 2470 
Q 1656 2200 1656 1722 
L 1656 0 
L 538 0 
L 538 4863 
L 1656 4863 
L 1656 2988 
Q 1909 3294 2193 3439 
Q 2478 3584 2822 3584 
Q 3428 3584 3742 3212 
Q 4056 2841 4056 2131 
z
" transform="scale(0.015625)"/>
       <path id="DejaVuSans-Bold-72" d="M 3138 2547 
Q 2991 2616 2845 2648 
Q 2700 2681 2553 2681 
Q 2122 2681 1889 2404 
Q 1656 2128 1656 1613 
L 1656 0 
L 538 0 
L 538 3500 
L 1656 3500 
L 1656 2925 
Q 1872 3269 2151 3426 
Q 2431 3584 2822 3584 
Q 2878 3584 2943 3579 
Q 3009 3575 3134 3559 
L 3138 2547 
z
" transform="scale(0.015625)"/>
       <path id="DejaVuSans-Bold-5d" d="M 2375 -844 
L 434 -844 
L 434 -141 
L 1313 -141 
L 1313 4159 
L 434 4159 
L 434 4863 
L 2375 4863 
L 2375 -844 
z
" transform="scale(0.015625)"/>
      </defs>
      <use xlink:href="#DejaVuSans-Bold-74"/>
      <use xlink:href="#DejaVuSans-Bold-69" transform="translate(47.802734 0)"/>
      <use xlink:href="#DejaVuSans-Bold-6d" transform="translate(82.080078 0)"/>
      <use xlink:href="#DejaVuSans-Bold-65" transform="translate(186.279297 0)"/>
      <use xlink:href="#DejaVuSans-Bold-20" transform="translate(254.101562 0)"/>
      <use xlink:href="#DejaVuSans-Bold-5b" transform="translate(288.916016 0)"/>
      <use xlink:href="#DejaVuSans-Bold-68" transform="translate(334.619141 0)"/>
      <use xlink:href="#DejaVuSans-Bold-72" transform="translate(405.810547 0)"/>
      <use xlink:href="#DejaVuSans-Bold-5d" transform="translate(455.126953 0)"/>
     </g>
    </g>
   </g>
   <g id="matplotlib.axis_2">
    <g id="ytick_1">
     <g id="line2d_6">
      <defs>
       <path id="m8735aa8915" d="M 0 0 
L -3.5 0 
" style="stroke: #000000; stroke-width: 0.8"/>
      </defs>
      <g>
       <use xlink:href="#m8735aa8915" x="59.495" y="307.8" style="stroke: #000000; stroke-width: 0.8"/>
      </g>
     </g>
     <g id="text_7">
      <!-- 0.0 -->
      <g transform="translate(28.640313 313.498828) scale(0.15 -0.15)">
       <defs>
        <path id="DejaVuSans-2e" d="M 684 794 
L 1344 794 
L 1344 0 
L 684 0 
L 684 794 
z
" transform="scale(0.015625)"/>
       </defs>
       <use xlink:href="#DejaVuSans-30"/>
       <use xlink:href="#DejaVuSans-2e" transform="translate(63.623047 0)"/>
       <use xlink:href="#DejaVuSans-30" transform="translate(95.410156 0)"/>
      </g>
     </g>
    </g>
    <g id="ytick_2">
     <g id="line2d_7">
      <g>
       <use xlink:href="#m8735aa8915" x="59.495" y="266.135417" style="stroke: #000000; stroke-width: 0.8"/>
      </g>
     </g>
     <g id="text_8">
      <!-- 0.1 -->
      <g transform="translate(28.640313 271.834246) scale(0.15 -0.15)">
       <use xlink:href="#DejaVuSans-30"/>
       <use xlink:href="#DejaVuSans-2e" transform="translate(63.623047 0)"/>
       <use xlink:href="#DejaVuSans-31" transform="translate(95.410156 0)"/>
      </g>
     </g>
    </g>
    <g id="ytick_3">
     <g id="line2d_8">
      <g>
       <use xlink:href="#m8735aa8915" x="59.495" y="224.470835" style="stroke: #000000; stroke-width: 0.8"/>
      </g>
     </g>
     <g id="text_9">
      <!-- 0.2 -->
      <g transform="translate(28.640313 230.169663) scale(0.15 -0.15)">
       <use xlink:href="#DejaVuSans-30"/>
       <use xlink:href="#DejaVuSans-2e" transform="translate(63.623047 0)"/>
       <use xlink:href="#DejaVuSans-32" transform="translate(95.410156 0)"/>
      </g>
     </g>
    </g>
    <g id="ytick_4">
     <g id="line2d_9">
      <g>
       <use xlink:href="#m8735aa8915" x="59.495" y="182.806252" style="stroke: #000000; stroke-width: 0.8"/>
      </g>
     </g>
     <g id="text_10">
      <!-- 0.3 -->
      <g transform="translate(28.640313 188.50508) scale(0.15 -0.15)">
       <defs>
        <path id="DejaVuSans-33" d="M 2597 2516 
Q 3050 2419 3304 2112 
Q 3559 1806 3559 1356 
Q 3559 666 3084 287 
Q 2609 -91 1734 -91 
Q 1441 -91 1130 -33 
Q 819 25 488 141 
L 488 750 
Q 750 597 1062 519 
Q 1375 441 1716 441 
Q 2309 441 2620 675 
Q 2931 909 2931 1356 
Q 2931 1769 2642 2001 
Q 2353 2234 1838 2234 
L 1294 2234 
L 1294 2753 
L 1863 2753 
Q 2328 2753 2575 2939 
Q 2822 3125 2822 3475 
Q 2822 3834 2567 4026 
Q 2313 4219 1838 4219 
Q 1578 4219 1281 4162 
Q 984 4106 628 3988 
L 628 4550 
Q 988 4650 1302 4700 
Q 1616 4750 1894 4750 
Q 2613 4750 3031 4423 
Q 3450 4097 3450 3541 
Q 3450 3153 3228 2886 
Q 3006 2619 2597 2516 
z
" transform="scale(0.015625)"/>
       </defs>
       <use xlink:href="#DejaVuSans-30"/>
       <use xlink:href="#DejaVuSans-2e" transform="translate(63.623047 0)"/>
       <use xlink:href="#DejaVuSans-33" transform="translate(95.410156 0)"/>
      </g>
     </g>
    </g>
    <g id="ytick_5">
     <g id="line2d_10">
      <g>
       <use xlink:href="#m8735aa8915" x="59.495" y="141.14167" style="stroke: #000000; stroke-width: 0.8"/>
      </g>
     </g>
     <g id="text_11">
      <!-- 0.4 -->
      <g transform="translate(28.640313 146.840498) scale(0.15 -0.15)">
       <defs>
        <path id="DejaVuSans-34" d="M 2419 4116 
L 825 1625 
L 2419 1625 
L 2419 4116 
z
M 2253 4666 
L 3047 4666 
L 3047 1625 
L 3713 1625 
L 3713 1100 
L 3047 1100 
L 3047 0 
L 2419 0 
L 2419 1100 
L 313 1100 
L 313 1709 
L 2253 4666 
z
" transform="scale(0.015625)"/>
       </defs>
       <use xlink:href="#DejaVuSans-30"/>
       <use xlink:href="#DejaVuSans-2e" transform="translate(63.623047 0)"/>
       <use xlink:href="#DejaVuSans-34" transform="translate(95.410156 0)"/>
      </g>
     </g>
    </g>
    <g id="ytick_6">
     <g id="line2d_11">
      <g>
       <use xlink:href="#m8735aa8915" x="59.495" y="99.477087" style="stroke: #000000; stroke-width: 0.8"/>
      </g>
     </g>
     <g id="text_12">
      <!-- 0.5 -->
      <g transform="translate(28.640313 105.175915) scale(0.15 -0.15)">
       <defs>
        <path id="DejaVuSans-35" d="M 691 4666 
L 3169 4666 
L 3169 4134 
L 1269 4134 
L 1269 2991 
Q 1406 3038 1543 3061 
Q 1681 3084 1819 3084 
Q 2600 3084 3056 2656 
Q 3513 2228 3513 1497 
Q 3513 744 3044 326 
Q 2575 -91 1722 -91 
Q 1428 -91 1123 -41 
Q 819 9 494 109 
L 494 744 
Q 775 591 1075 516 
Q 1375 441 1709 441 
Q 2250 441 2565 725 
Q 2881 1009 2881 1497 
Q 2881 1984 2565 2268 
Q 2250 2553 1709 2553 
Q 1456 2553 1204 2497 
Q 953 2441 691 2322 
L 691 4666 
z
" transform="scale(0.015625)"/>
       </defs>
       <use xlink:href="#DejaVuSans-30"/>
       <use xlink:href="#DejaVuSans-2e" transform="translate(63.623047 0)"/>
       <use xlink:href="#DejaVuSans-35" transform="translate(95.410156 0)"/>
      </g>
     </g>
    </g>
    <g id="ytick_7">
     <g id="line2d_12">
      <g>
       <use xlink:href="#m8735aa8915" x="59.495" y="57.812504" style="stroke: #000000; stroke-width: 0.8"/>
      </g>
     </g>
     <g id="text_13">
      <!-- 0.6 -->
      <g transform="translate(28.640313 63.511332) scale(0.15 -0.15)">
       <defs>
        <path id="DejaVuSans-36" d="M 2113 2584 
Q 1688 2584 1439 2293 
Q 1191 2003 1191 1497 
Q 1191 994 1439 701 
Q 1688 409 2113 409 
Q 2538 409 2786 701 
Q 3034 994 3034 1497 
Q 3034 2003 2786 2293 
Q 2538 2584 2113 2584 
z
M 3366 4563 
L 3366 3988 
Q 3128 4100 2886 4159 
Q 2644 4219 2406 4219 
Q 1781 4219 1451 3797 
Q 1122 3375 1075 2522 
Q 1259 2794 1537 2939 
Q 1816 3084 2150 3084 
Q 2853 3084 3261 2657 
Q 3669 2231 3669 1497 
Q 3669 778 3244 343 
Q 2819 -91 2113 -91 
Q 1303 -91 875 529 
Q 447 1150 447 2328 
Q 447 3434 972 4092 
Q 1497 4750 2381 4750 
Q 2619 4750 2861 4703 
Q 3103 4656 3366 4563 
z
" transform="scale(0.015625)"/>
       </defs>
       <use xlink:href="#DejaVuSans-30"/>
       <use xlink:href="#DejaVuSans-2e" transform="translate(63.623047 0)"/>
       <use xlink:href="#DejaVuSans-36" transform="translate(95.410156 0)"/>
      </g>
     </g>
    </g>
    <g id="text_14">
     <!-- HCTZ [µM] -->
     <g transform="translate(20.877187 235.54125) rotate(-90) scale(0.18 -0.18)">
      <defs>
       <path id="DejaVuSans-Bold-48" d="M 588 4666 
L 1791 4666 
L 1791 2888 
L 3566 2888 
L 3566 4666 
L 4769 4666 
L 4769 0 
L 3566 0 
L 3566 1978 
L 1791 1978 
L 1791 0 
L 588 0 
L 588 4666 
z
" transform="scale(0.015625)"/>
       <path id="DejaVuSans-Bold-43" d="M 4288 256 
Q 3956 84 3597 -3 
Q 3238 -91 2847 -91 
Q 1681 -91 1000 561 
Q 319 1213 319 2328 
Q 319 3447 1000 4098 
Q 1681 4750 2847 4750 
Q 3238 4750 3597 4662 
Q 3956 4575 4288 4403 
L 4288 3438 
Q 3953 3666 3628 3772 
Q 3303 3878 2944 3878 
Q 2300 3878 1931 3465 
Q 1563 3053 1563 2328 
Q 1563 1606 1931 1193 
Q 2300 781 2944 781 
Q 3303 781 3628 887 
Q 3953 994 4288 1222 
L 4288 256 
z
" transform="scale(0.015625)"/>
       <path id="DejaVuSans-Bold-54" d="M 31 4666 
L 4331 4666 
L 4331 3756 
L 2784 3756 
L 2784 0 
L 1581 0 
L 1581 3756 
L 31 3756 
L 31 4666 
z
" transform="scale(0.015625)"/>
       <path id="DejaVuSans-Bold-5a" d="M 359 4666 
L 4281 4666 
L 4281 3938 
L 1778 909 
L 4353 909 
L 4353 0 
L 288 0 
L 288 728 
L 2791 3756 
L 359 3756 
L 359 4666 
z
" transform="scale(0.015625)"/>
       <path id="DejaVuSans-Bold-b5" d="M 544 -1338 
L 544 3500 
L 1672 3500 
L 1672 1466 
Q 1672 1103 1828 926 
Q 1984 750 2303 750 
Q 2625 750 2781 926 
Q 2938 1103 2938 1466 
L 2938 3500 
L 4063 3500 
L 4063 1159 
Q 4063 938 4114 850 
Q 4166 763 4288 763 
Q 4344 763 4395 778 
Q 4447 794 4506 831 
L 4506 50 
Q 4341 -22 4195 -56 
Q 4050 -91 3909 -91 
Q 3631 -91 3454 26 
Q 3278 144 3169 403 
Q 3022 156 2811 32 
Q 2600 -91 2322 -91 
Q 2091 -91 1928 -17 
Q 1766 56 1672 206 
L 1672 -1338 
L 544 -1338 
z
" transform="scale(0.015625)"/>
       <path id="DejaVuSans-Bold-4d" d="M 588 4666 
L 2119 4666 
L 3181 2169 
L 4250 4666 
L 5778 4666 
L 5778 0 
L 4641 0 
L 4641 3413 
L 3566 897 
L 2803 897 
L 1728 3413 
L 1728 0 
L 588 0 
L 588 4666 
z
" transform="scale(0.015625)"/>
      </defs>
      <use xlink:href="#DejaVuSans-Bold-48"/>
      <use xlink:href="#DejaVuSans-Bold-43" transform="translate(83.691406 0)"/>
      <use xlink:href="#DejaVuSans-Bold-54" transform="translate(157.080078 0)"/>
      <use xlink:href="#DejaVuSans-Bold-5a" transform="translate(225.292969 0)"/>
      <use xlink:href="#DejaVuSans-Bold-20" transform="translate(297.802734 0)"/>
      <use xlink:href="#DejaVuSans-Bold-5b" transform="translate(332.617188 0)"/>
      <use xlink:href="#DejaVuSans-Bold-b5" transform="translate(378.320312 0)"/>
      <use xlink:href="#DejaVuSans-Bold-4d" transform="translate(451.904297 0)"/>
      <use xlink:href="#DejaVuSans-Bold-5d" transform="translate(551.416016 0)"/>
     </g>
    </g>
   </g>
   <g id="LineCollection_1">
    <path d="M 254.795 294.119175 
L 254.795 282.716376 
" clip-path="url(#p5ca60922c3)" style="fill: none; stroke: #000000"/>
    <path d="M 258.701 261.041159 
L 258.701 156.146006 
" clip-path="url(#p5ca60922c3)" style="fill: none; stroke: #000000"/>
    <path d="M 262.607 190.339435 
L 262.607 55.8 
" clip-path="url(#p5ca60922c3)" style="fill: none; stroke: #000000"/>
    <path d="M 266.513 170.032301 
L 266.513 70.610169 
" clip-path="url(#p5ca60922c3)" style="fill: none; stroke: #000000"/>
    <path d="M 270.419 172.643513 
L 270.419 90.551424 
" clip-path="url(#p5ca60922c3)" style="fill: none; stroke: #000000"/>
    <path d="M 278.231 185.731577 
L 278.231 116.18153 
" clip-path="url(#p5ca60922c3)" style="fill: none; stroke: #000000"/>
    <path d="M 286.043 208.624597 
L 286.043 141.811175 
" clip-path="url(#p5ca60922c3)" style="fill: none; stroke: #000000"/>
    <path d="M 293.855 231.517847 
L 293.855 154.89993 
" clip-path="url(#p5ca60922c3)" style="fill: none; stroke: #000000"/>
    <path d="M 301.667 249.851474 
L 301.667 197.631931 
" clip-path="url(#p5ca60922c3)" style="fill: none; stroke: #000000"/>
    <path d="M 317.291 260.179198 
L 317.291 228.938685 
" clip-path="url(#p5ca60922c3)" style="fill: none; stroke: #000000"/>
    <path d="M 332.915 268.341068 
L 332.915 239.152391 
" clip-path="url(#p5ca60922c3)" style="fill: none; stroke: #000000"/>
    <path d="M 348.539 279.239219 
L 348.539 259.400123 
" clip-path="url(#p5ca60922c3)" style="fill: none; stroke: #000000"/>
    <path d="M 379.787 287.581463 
L 379.787 272.531059 
" clip-path="url(#p5ca60922c3)" style="fill: none; stroke: #000000"/>
    <path d="M 442.283 294.118484 
L 442.283 282.716607 
" clip-path="url(#p5ca60922c3)" style="fill: none; stroke: #000000"/>
   </g>
   <g id="LineCollection_2">
    <path d="M 254.795 293.549092 
L 254.795 282.146294 
" clip-path="url(#p5ca60922c3)" style="fill: none; stroke: #1f77b4"/>
    <path d="M 258.701 250.2104 
L 258.701 182.940453 
" clip-path="url(#p5ca60922c3)" style="fill: none; stroke: #1f77b4"/>
    <path d="M 262.607 198.548851 
L 262.607 76.322965 
" clip-path="url(#p5ca60922c3)" style="fill: none; stroke: #1f77b4"/>
    <path d="M 266.513 180.066095 
L 266.513 72.890383 
" clip-path="url(#p5ca60922c3)" style="fill: none; stroke: #1f77b4"/>
    <path d="M 270.419 184.04562 
L 270.419 101.953071 
" clip-path="url(#p5ca60922c3)" style="fill: none; stroke: #1f77b4"/>
    <path d="M 278.231 189.722729 
L 278.231 121.311695 
" clip-path="url(#p5ca60922c3)" style="fill: none; stroke: #1f77b4"/>
    <path d="M 286.043 194.82987 
L 286.043 149.22213 
" clip-path="url(#p5ca60922c3)" style="fill: none; stroke: #1f77b4"/>
    <path d="M 293.855 196.628807 
L 293.855 167.441741 
" clip-path="url(#p5ca60922c3)" style="fill: none; stroke: #1f77b4"/>
    <path d="M 301.667 234.00376 
L 301.667 202.763247 
" clip-path="url(#p5ca60922c3)" style="fill: none; stroke: #1f77b4"/>
    <path d="M 317.291 260.293099 
L 317.291 229.509343 
" clip-path="url(#p5ca60922c3)" style="fill: none; stroke: #1f77b4"/>
    <path d="M 332.915 264.236015 
L 332.915 239.152391 
" clip-path="url(#p5ca60922c3)" style="fill: none; stroke: #1f77b4"/>
    <path d="M 348.539 280.150545 
L 348.539 258.488567 
" clip-path="url(#p5ca60922c3)" style="fill: none; stroke: #1f77b4"/>
    <path d="M 379.787 286.8984 
L 379.787 273.214582 
" clip-path="url(#p5ca60922c3)" style="fill: none; stroke: #1f77b4"/>
    <path d="M 442.283 293.549323 
L 442.283 283.286689 
" clip-path="url(#p5ca60922c3)" style="fill: none; stroke: #1f77b4"/>
   </g>
   <g id="line2d_13">
    <path d="M 59.432504 287.853149 
L 67.307 289.457829 
L 67.307 289.457829 
L 67.681976 287.865184 
L 68.056952 283.566092 
L 68.806904 269.95398 
L 70.681784 226.585801 
L 72.181688 194.807654 
L 73.306616 175.223986 
L 74.431544 159.421806 
L 75.556472 147.072573 
L 76.6814 137.712396 
L 77.431352 132.894259 
L 78.181304 129.055412 
L 78.931256 126.071712 
L 79.681208 123.830755 
L 80.43116 122.232058 
L 81.181112 121.186631 
L 81.931064 120.616217 
L 82.681016 120.452369 
L 83.430968 120.635461 
L 84.18092 121.113725 
L 84.930872 121.842329 
L 86.0558 123.321337 
L 87.180728 125.168598 
L 88.680632 128.056388 
L 90.930488 132.991844 
L 94.305272 141.081928 
L 102.92972 161.997943 
L 107.054456 171.336761 
L 110.804216 179.323397 
L 114.553976 186.825722 
L 118.303736 193.85889 
L 122.053496 200.446021 
L 125.803256 206.612959 
L 129.553016 212.385851 
L 133.677752 218.311138 
L 137.802488 223.822288 
L 141.927224 228.949245 
L 146.05196 233.719879 
L 150.176696 238.160065 
L 154.301432 242.293794 
L 158.801144 246.479885 
L 163.300856 250.35435 
L 167.800568 253.941712 
L 172.675256 257.530154 
L 177.549944 260.834392 
L 182.424632 263.878455 
L 187.674296 266.89085 
L 192.92396 269.651905 
L 198.5486 272.35697 
L 204.548216 274.981348 
L 210.547832 277.363148 
L 216.922424 279.655494 
L 223.671992 281.84367 
L 230.796536 283.916666 
L 238.296056 285.866994 
L 246.170552 287.690402 
L 254.795 289.457829 
L 254.795 289.457829 
L 255.1856 287.733418 
L 255.5762 283.113408 
L 256.3574 268.626573 
L 260.2634 183.990881 
L 261.4352 165.777977 
L 262.607 151.493127 
L 263.7788 140.654153 
L 264.56 135.072688 
L 265.3412 130.622628 
L 266.1224 127.15796 
L 266.9036 124.546038 
L 267.6848 122.668256 
L 268.466 121.419776 
L 269.2472 120.708699 
L 270.0284 120.454979 
L 270.8096 120.589225 
L 271.5908 121.051508 
L 272.372 121.790219 
L 273.5438 123.321337 
L 274.7156 125.252204 
L 276.278 128.28198 
L 278.231 132.560941 
L 281.3558 140.009979 
L 290.7302 162.724813 
L 295.0268 172.395754 
L 298.9328 180.639085 
L 302.8388 188.358817 
L 306.7448 195.574393 
L 310.6508 202.312989 
L 314.5568 208.604077 
L 318.4628 214.477005 
L 322.3688 219.959965 
L 326.2748 225.079589 
L 330.1808 229.860834 
L 334.4774 234.757138 
L 338.774 239.300959 
L 343.0706 243.51891 
L 347.3672 247.435572 
L 352.0544 251.391306 
L 356.7416 255.04259 
L 361.4288 258.414291 
L 366.5066 261.777858 
L 371.5844 264.866505 
L 376.6622 267.704338 
L 382.1306 270.505092 
L 387.599 273.065243 
L 393.458 275.566754 
L 399.7076 277.987007 
L 406.3478 280.307513 
L 413.3786 282.513917 
L 420.8 284.595858 
L 428.612 286.54672 
L 436.8146 288.363283 
L 445.7984 290.116905 
L 450.095 290.878547 
L 450.095 290.878547 
" clip-path="url(#p5ca60922c3)" style="fill: none; stroke: #000000; stroke-width: 2; stroke-linecap: square"/>
   </g>
   <g id="line2d_14">
    <path d="M 254.795 288.417776 
L 258.701 208.593583 
L 262.607 123.069718 
L 266.513 120.321235 
L 270.419 131.597468 
L 278.231 150.956553 
L 286.043 175.217886 
L 293.855 193.208888 
L 301.667 223.741702 
L 317.291 244.558941 
L 332.915 253.74673 
L 348.539 269.319671 
L 379.787 280.056261 
L 442.283 288.417545 
" clip-path="url(#p5ca60922c3)" style="fill: none; stroke-dasharray: 3.7,1.6; stroke-dashoffset: 0; stroke: #000000"/>
    <defs>
     <path id="m4364736716" d="M -3 3 
L 3 3 
L 3 -3 
L -3 -3 
z
" style="stroke: #000000; stroke-linejoin: miter"/>
    </defs>
    <g clip-path="url(#p5ca60922c3)">
     <use xlink:href="#m4364736716" x="254.795" y="288.417776" style="stroke: #000000; stroke-linejoin: miter"/>
     <use xlink:href="#m4364736716" x="258.701" y="208.593583" style="stroke: #000000; stroke-linejoin: miter"/>
     <use xlink:href="#m4364736716" x="262.607" y="123.069718" style="stroke: #000000; stroke-linejoin: miter"/>
     <use xlink:href="#m4364736716" x="266.513" y="120.321235" style="stroke: #000000; stroke-linejoin: miter"/>
     <use xlink:href="#m4364736716" x="270.419" y="131.597468" style="stroke: #000000; stroke-linejoin: miter"/>
     <use xlink:href="#m4364736716" x="278.231" y="150.956553" style="stroke: #000000; stroke-linejoin: miter"/>
     <use xlink:href="#m4364736716" x="286.043" y="175.217886" style="stroke: #000000; stroke-linejoin: miter"/>
     <use xlink:href="#m4364736716" x="293.855" y="193.208888" style="stroke: #000000; stroke-linejoin: miter"/>
     <use xlink:href="#m4364736716" x="301.667" y="223.741702" style="stroke: #000000; stroke-linejoin: miter"/>
     <use xlink:href="#m4364736716" x="317.291" y="244.558941" style="stroke: #000000; stroke-linejoin: miter"/>
     <use xlink:href="#m4364736716" x="332.915" y="253.74673" style="stroke: #000000; stroke-linejoin: miter"/>
     <use xlink:href="#m4364736716" x="348.539" y="269.319671" style="stroke: #000000; stroke-linejoin: miter"/>
     <use xlink:href="#m4364736716" x="379.787" y="280.056261" style="stroke: #000000; stroke-linejoin: miter"/>
     <use xlink:href="#m4364736716" x="442.283" y="288.417545" style="stroke: #000000; stroke-linejoin: miter"/>
    </g>
   </g>
   <g id="line2d_15">
    <path d="M 254.795 287.847693 
L 258.701 216.575426 
L 262.607 137.435908 
L 266.513 126.478239 
L 270.419 142.999345 
L 278.231 155.517212 
L 286.043 172.026 
L 293.855 182.035274 
L 301.667 218.383504 
L 317.291 244.901221 
L 332.915 251.694203 
L 348.539 269.319556 
L 379.787 280.056491 
L 442.283 288.418006 
" clip-path="url(#p5ca60922c3)" style="fill: none; stroke-dasharray: 3.7,1.6; stroke-dashoffset: 0; stroke: #1f77b4"/>
    <defs>
     <path id="m06f6596b3b" d="M -3 3 
L 3 3 
L 3 -3 
L -3 -3 
z
" style="stroke: #000000; stroke-linejoin: miter"/>
    </defs>
    <g clip-path="url(#p5ca60922c3)">
     <use xlink:href="#m06f6596b3b" x="254.795" y="287.847693" style="fill: #1f77b4; stroke: #000000; stroke-linejoin: miter"/>
     <use xlink:href="#m06f6596b3b" x="258.701" y="216.575426" style="fill: #1f77b4; stroke: #000000; stroke-linejoin: miter"/>
     <use xlink:href="#m06f6596b3b" x="262.607" y="137.435908" style="fill: #1f77b4; stroke: #000000; stroke-linejoin: miter"/>
     <use xlink:href="#m06f6596b3b" x="266.513" y="126.478239" style="fill: #1f77b4; stroke: #000000; stroke-linejoin: miter"/>
     <use xlink:href="#m06f6596b3b" x="270.419" y="142.999345" style="fill: #1f77b4; stroke: #000000; stroke-linejoin: miter"/>
     <use xlink:href="#m06f6596b3b" x="278.231" y="155.517212" style="fill: #1f77b4; stroke: #000000; stroke-linejoin: miter"/>
     <use xlink:href="#m06f6596b3b" x="286.043" y="172.026" style="fill: #1f77b4; stroke: #000000; stroke-linejoin: miter"/>
     <use xlink:href="#m06f6596b3b" x="293.855" y="182.035274" style="fill: #1f77b4; stroke: #000000; stroke-linejoin: miter"/>
     <use xlink:href="#m06f6596b3b" x="301.667" y="218.383504" style="fill: #1f77b4; stroke: #000000; stroke-linejoin: miter"/>
     <use xlink:href="#m06f6596b3b" x="317.291" y="244.901221" style="fill: #1f77b4; stroke: #000000; stroke-linejoin: miter"/>
     <use xlink:href="#m06f6596b3b" x="332.915" y="251.694203" style="fill: #1f77b4; stroke: #000000; stroke-linejoin: miter"/>
     <use xlink:href="#m06f6596b3b" x="348.539" y="269.319556" style="fill: #1f77b4; stroke: #000000; stroke-linejoin: miter"/>
     <use xlink:href="#m06f6596b3b" x="379.787" y="280.056491" style="fill: #1f77b4; stroke: #000000; stroke-linejoin: miter"/>
     <use xlink:href="#m06f6596b3b" x="442.283" y="288.418006" style="fill: #1f77b4; stroke: #000000; stroke-linejoin: miter"/>
    </g>
   </g>
   <g id="patch_3">
    <path d="M 59.495 320.4 
L 59.495 43.2 
" style="fill: none; stroke: #000000; stroke-width: 0.8; stroke-linejoin: miter; stroke-linecap: square"/>
   </g>
   <g id="patch_4">
    <path d="M 450.095 320.4 
L 450.095 43.2 
" style="fill: none; stroke: #000000; stroke-width: 0.8; stroke-linejoin: miter; stroke-linecap: square"/>
   </g>
   <g id="patch_5">
    <path d="M 59.495 320.4 
L 450.095 320.4 
" style="fill: none; stroke: #000000; stroke-width: 0.8; stroke-linejoin: miter; stroke-linecap: square"/>
   </g>
   <g id="patch_6">
    <path d="M 59.495 43.2 
L 450.095 43.2 
" style="fill: none; stroke: #000000; stroke-width: 0.8; stroke-linejoin: miter; stroke-linecap: square"/>
   </g>
   <g id="legend_1">
    <g id="patch_7">
     <path d="M 221.691875 95.5125 
L 443.095 95.5125 
Q 445.095 95.5125 445.095 93.5125 
L 445.095 50.2 
Q 445.095 48.2 443.095 48.2 
L 221.691875 48.2 
Q 219.691875 48.2 219.691875 50.2 
L 219.691875 93.5125 
Q 219.691875 95.5125 221.691875 95.5125 
z
" style="fill: #ffffff; opacity: 0.8; stroke: #cccccc; stroke-linejoin: miter"/>
    </g>
    <g id="line2d_16">
     <path d="M 223.691875 56.298437 
L 243.691875 56.298437 
" style="fill: none; stroke: #000000; stroke-width: 2; stroke-linecap: square"/>
    </g>
    <g id="line2d_17"/>
    <g id="text_15">
     <!-- Sim -->
     <g transform="translate(251.691875 59.798437) scale(0.1 -0.1)">
      <defs>
       <path id="DejaVuSans-53" d="M 3425 4513 
L 3425 3897 
Q 3066 4069 2747 4153 
Q 2428 4238 2131 4238 
Q 1616 4238 1336 4038 
Q 1056 3838 1056 3469 
Q 1056 3159 1242 3001 
Q 1428 2844 1947 2747 
L 2328 2669 
Q 3034 2534 3370 2195 
Q 3706 1856 3706 1288 
Q 3706 609 3251 259 
Q 2797 -91 1919 -91 
Q 1588 -91 1214 -16 
Q 841 59 441 206 
L 441 856 
Q 825 641 1194 531 
Q 1563 422 1919 422 
Q 2459 422 2753 634 
Q 3047 847 3047 1241 
Q 3047 1584 2836 1778 
Q 2625 1972 2144 2069 
L 1759 2144 
Q 1053 2284 737 2584 
Q 422 2884 422 3419 
Q 422 4038 858 4394 
Q 1294 4750 2059 4750 
Q 2388 4750 2728 4690 
Q 3069 4631 3425 4513 
z
" transform="scale(0.015625)"/>
       <path id="DejaVuSans-69" d="M 603 3500 
L 1178 3500 
L 1178 0 
L 603 0 
L 603 3500 
z
M 603 4863 
L 1178 4863 
L 1178 4134 
L 603 4134 
L 603 4863 
z
" transform="scale(0.015625)"/>
       <path id="DejaVuSans-6d" d="M 3328 2828 
Q 3544 3216 3844 3400 
Q 4144 3584 4550 3584 
Q 5097 3584 5394 3201 
Q 5691 2819 5691 2113 
L 5691 0 
L 5113 0 
L 5113 2094 
Q 5113 2597 4934 2840 
Q 4756 3084 4391 3084 
Q 3944 3084 3684 2787 
Q 3425 2491 3425 1978 
L 3425 0 
L 2847 0 
L 2847 2094 
Q 2847 2600 2669 2842 
Q 2491 3084 2119 3084 
Q 1678 3084 1418 2786 
Q 1159 2488 1159 1978 
L 1159 0 
L 581 0 
L 581 3500 
L 1159 3500 
L 1159 2956 
Q 1356 3278 1631 3431 
Q 1906 3584 2284 3584 
Q 2666 3584 2933 3390 
Q 3200 3197 3328 2828 
z
" transform="scale(0.015625)"/>
      </defs>
      <use xlink:href="#DejaVuSans-53"/>
      <use xlink:href="#DejaVuSans-69" transform="translate(63.476562 0)"/>
      <use xlink:href="#DejaVuSans-6d" transform="translate(91.259766 0)"/>
     </g>
    </g>
    <g id="LineCollection_3">
     <path d="M 233.691875 75.976562 
L 233.691875 65.976562 
" style="fill: none; stroke: #000000"/>
    </g>
    <g id="line2d_18">
     <path d="M 223.691875 70.976562 
L 243.691875 70.976562 
" style="fill: none; stroke-dasharray: 3.7,1.6; stroke-dashoffset: 0; stroke: #000000"/>
    </g>
    <g id="line2d_19">
     <g>
      <use xlink:href="#m4364736716" x="233.691875" y="70.976562" style="stroke: #000000; stroke-linejoin: miter"/>
     </g>
    </g>
    <g id="text_16">
     <!-- 25 mg (HCTZ25)±SD (n=30) -->
     <g transform="translate(251.691875 74.476562) scale(0.1 -0.1)">
      <defs>
       <path id="DejaVuSans-20" transform="scale(0.015625)"/>
       <path id="DejaVuSans-67" d="M 2906 1791 
Q 2906 2416 2648 2759 
Q 2391 3103 1925 3103 
Q 1463 3103 1205 2759 
Q 947 2416 947 1791 
Q 947 1169 1205 825 
Q 1463 481 1925 481 
Q 2391 481 2648 825 
Q 2906 1169 2906 1791 
z
M 3481 434 
Q 3481 -459 3084 -895 
Q 2688 -1331 1869 -1331 
Q 1566 -1331 1297 -1286 
Q 1028 -1241 775 -1147 
L 775 -588 
Q 1028 -725 1275 -790 
Q 1522 -856 1778 -856 
Q 2344 -856 2625 -561 
Q 2906 -266 2906 331 
L 2906 616 
Q 2728 306 2450 153 
Q 2172 0 1784 0 
Q 1141 0 747 490 
Q 353 981 353 1791 
Q 353 2603 747 3093 
Q 1141 3584 1784 3584 
Q 2172 3584 2450 3431 
Q 2728 3278 2906 2969 
L 2906 3500 
L 3481 3500 
L 3481 434 
z
" transform="scale(0.015625)"/>
       <path id="DejaVuSans-28" d="M 1984 4856 
Q 1566 4138 1362 3434 
Q 1159 2731 1159 2009 
Q 1159 1288 1364 580 
Q 1569 -128 1984 -844 
L 1484 -844 
Q 1016 -109 783 600 
Q 550 1309 550 2009 
Q 550 2706 781 3412 
Q 1013 4119 1484 4856 
L 1984 4856 
z
" transform="scale(0.015625)"/>
       <path id="DejaVuSans-48" d="M 628 4666 
L 1259 4666 
L 1259 2753 
L 3553 2753 
L 3553 4666 
L 4184 4666 
L 4184 0 
L 3553 0 
L 3553 2222 
L 1259 2222 
L 1259 0 
L 628 0 
L 628 4666 
z
" transform="scale(0.015625)"/>
       <path id="DejaVuSans-43" d="M 4122 4306 
L 4122 3641 
Q 3803 3938 3442 4084 
Q 3081 4231 2675 4231 
Q 1875 4231 1450 3742 
Q 1025 3253 1025 2328 
Q 1025 1406 1450 917 
Q 1875 428 2675 428 
Q 3081 428 3442 575 
Q 3803 722 4122 1019 
L 4122 359 
Q 3791 134 3420 21 
Q 3050 -91 2638 -91 
Q 1578 -91 968 557 
Q 359 1206 359 2328 
Q 359 3453 968 4101 
Q 1578 4750 2638 4750 
Q 3056 4750 3426 4639 
Q 3797 4528 4122 4306 
z
" transform="scale(0.015625)"/>
       <path id="DejaVuSans-54" d="M -19 4666 
L 3928 4666 
L 3928 4134 
L 2272 4134 
L 2272 0 
L 1638 0 
L 1638 4134 
L -19 4134 
L -19 4666 
z
" transform="scale(0.015625)"/>
       <path id="DejaVuSans-5a" d="M 359 4666 
L 4025 4666 
L 4025 4184 
L 1075 531 
L 4097 531 
L 4097 0 
L 288 0 
L 288 481 
L 3238 4134 
L 359 4134 
L 359 4666 
z
" transform="scale(0.015625)"/>
       <path id="DejaVuSans-29" d="M 513 4856 
L 1013 4856 
Q 1481 4119 1714 3412 
Q 1947 2706 1947 2009 
Q 1947 1309 1714 600 
Q 1481 -109 1013 -844 
L 513 -844 
Q 928 -128 1133 580 
Q 1338 1288 1338 2009 
Q 1338 2731 1133 3434 
Q 928 4138 513 4856 
z
" transform="scale(0.015625)"/>
       <path id="DejaVuSans-b1" d="M 2944 4013 
L 2944 2803 
L 4684 2803 
L 4684 2272 
L 2944 2272 
L 2944 1063 
L 2419 1063 
L 2419 2272 
L 678 2272 
L 678 2803 
L 2419 2803 
L 2419 4013 
L 2944 4013 
z
M 678 531 
L 4684 531 
L 4684 0 
L 678 0 
L 678 531 
z
" transform="scale(0.015625)"/>
       <path id="DejaVuSans-44" d="M 1259 4147 
L 1259 519 
L 2022 519 
Q 2988 519 3436 956 
Q 3884 1394 3884 2338 
Q 3884 3275 3436 3711 
Q 2988 4147 2022 4147 
L 1259 4147 
z
M 628 4666 
L 1925 4666 
Q 3281 4666 3915 4102 
Q 4550 3538 4550 2338 
Q 4550 1131 3912 565 
Q 3275 0 1925 0 
L 628 0 
L 628 4666 
z
" transform="scale(0.015625)"/>
       <path id="DejaVuSans-6e" d="M 3513 2113 
L 3513 0 
L 2938 0 
L 2938 2094 
Q 2938 2591 2744 2837 
Q 2550 3084 2163 3084 
Q 1697 3084 1428 2787 
Q 1159 2491 1159 1978 
L 1159 0 
L 581 0 
L 581 3500 
L 1159 3500 
L 1159 2956 
Q 1366 3272 1645 3428 
Q 1925 3584 2291 3584 
Q 2894 3584 3203 3211 
Q 3513 2838 3513 2113 
z
" transform="scale(0.015625)"/>
       <path id="DejaVuSans-3d" d="M 678 2906 
L 4684 2906 
L 4684 2381 
L 678 2381 
L 678 2906 
z
M 678 1631 
L 4684 1631 
L 4684 1100 
L 678 1100 
L 678 1631 
z
" transform="scale(0.015625)"/>
      </defs>
      <use xlink:href="#DejaVuSans-32"/>
      <use xlink:href="#DejaVuSans-35" transform="translate(63.623047 0)"/>
      <use xlink:href="#DejaVuSans-20" transform="translate(127.246094 0)"/>
      <use xlink:href="#DejaVuSans-6d" transform="translate(159.033203 0)"/>
      <use xlink:href="#DejaVuSans-67" transform="translate(256.445312 0)"/>
      <use xlink:href="#DejaVuSans-20" transform="translate(319.921875 0)"/>
      <use xlink:href="#DejaVuSans-28" transform="translate(351.708984 0)"/>
      <use xlink:href="#DejaVuSans-48" transform="translate(390.722656 0)"/>
      <use xlink:href="#DejaVuSans-43" transform="translate(465.917969 0)"/>
      <use xlink:href="#DejaVuSans-54" transform="translate(535.742188 0)"/>
      <use xlink:href="#DejaVuSans-5a" transform="translate(596.826172 0)"/>
      <use xlink:href="#DejaVuSans-32" transform="translate(665.332031 0)"/>
      <use xlink:href="#DejaVuSans-35" transform="translate(728.955078 0)"/>
      <use xlink:href="#DejaVuSans-29" transform="translate(792.578125 0)"/>
      <use xlink:href="#DejaVuSans-b1" transform="translate(831.591797 0)"/>
      <use xlink:href="#DejaVuSans-53" transform="translate(915.380859 0)"/>
      <use xlink:href="#DejaVuSans-44" transform="translate(978.857422 0)"/>
      <use xlink:href="#DejaVuSans-20" transform="translate(1055.859375 0)"/>
      <use xlink:href="#DejaVuSans-28" transform="translate(1087.646484 0)"/>
      <use xlink:href="#DejaVuSans-6e" transform="translate(1126.660156 0)"/>
      <use xlink:href="#DejaVuSans-3d" transform="translate(1190.039062 0)"/>
      <use xlink:href="#DejaVuSans-33" transform="translate(1273.828125 0)"/>
      <use xlink:href="#DejaVuSans-30" transform="translate(1337.451172 0)"/>
      <use xlink:href="#DejaVuSans-29" transform="translate(1401.074219 0)"/>
     </g>
    </g>
    <g id="LineCollection_4">
     <path d="M 233.691875 90.654687 
L 233.691875 80.654687 
" style="fill: none; stroke: #1f77b4"/>
    </g>
    <g id="line2d_20">
     <path d="M 223.691875 85.654687 
L 243.691875 85.654687 
" style="fill: none; stroke-dasharray: 3.7,1.6; stroke-dashoffset: 0; stroke: #1f77b4"/>
    </g>
    <g id="line2d_21">
     <g>
      <use xlink:href="#m06f6596b3b" x="233.691875" y="85.654687" style="fill: #1f77b4; stroke: #000000; stroke-linejoin: miter"/>
     </g>
    </g>
    <g id="text_17">
     <!-- 25 mg (CAN300_HCTZ25)±SD (n=30) -->
     <g transform="translate(251.691875 89.154687) scale(0.1 -0.1)">
      <defs>
       <path id="DejaVuSans-41" d="M 2188 4044 
L 1331 1722 
L 3047 1722 
L 2188 4044 
z
M 1831 4666 
L 2547 4666 
L 4325 0 
L 3669 0 
L 3244 1197 
L 1141 1197 
L 716 0 
L 50 0 
L 1831 4666 
z
" transform="scale(0.015625)"/>
       <path id="DejaVuSans-4e" d="M 628 4666 
L 1478 4666 
L 3547 763 
L 3547 4666 
L 4159 4666 
L 4159 0 
L 3309 0 
L 1241 3903 
L 1241 0 
L 628 0 
L 628 4666 
z
" transform="scale(0.015625)"/>
       <path id="DejaVuSans-5f" d="M 3263 -1063 
L 3263 -1509 
L -63 -1509 
L -63 -1063 
L 3263 -1063 
z
" transform="scale(0.015625)"/>
      </defs>
      <use xlink:href="#DejaVuSans-32"/>
      <use xlink:href="#DejaVuSans-35" transform="translate(63.623047 0)"/>
      <use xlink:href="#DejaVuSans-20" transform="translate(127.246094 0)"/>
      <use xlink:href="#DejaVuSans-6d" transform="translate(159.033203 0)"/>
      <use xlink:href="#DejaVuSans-67" transform="translate(256.445312 0)"/>
      <use xlink:href="#DejaVuSans-20" transform="translate(319.921875 0)"/>
      <use xlink:href="#DejaVuSans-28" transform="translate(351.708984 0)"/>
      <use xlink:href="#DejaVuSans-43" transform="translate(390.722656 0)"/>
      <use xlink:href="#DejaVuSans-41" transform="translate(460.546875 0)"/>
      <use xlink:href="#DejaVuSans-4e" transform="translate(528.955078 0)"/>
      <use xlink:href="#DejaVuSans-33" transform="translate(603.759766 0)"/>
      <use xlink:href="#DejaVuSans-30" transform="translate(667.382812 0)"/>
      <use xlink:href="#DejaVuSans-30" transform="translate(731.005859 0)"/>
      <use xlink:href="#DejaVuSans-5f" transform="translate(794.628906 0)"/>
      <use xlink:href="#DejaVuSans-48" transform="translate(844.628906 0)"/>
      <use xlink:href="#DejaVuSans-43" transform="translate(919.824219 0)"/>
      <use xlink:href="#DejaVuSans-54" transform="translate(989.648438 0)"/>
      <use xlink:href="#DejaVuSans-5a" transform="translate(1050.732422 0)"/>
      <use xlink:href="#DejaVuSans-32" transform="translate(1119.238281 0)"/>
      <use xlink:href="#DejaVuSans-35" transform="translate(1182.861328 0)"/>
      <use xlink:href="#DejaVuSans-29" transform="translate(1246.484375 0)"/>
      <use xlink:href="#DejaVuSans-b1" transform="translate(1285.498047 0)"/>
      <use xlink:href="#DejaVuSans-53" transform="translate(1369.287109 0)"/>
      <use xlink:href="#DejaVuSans-44" transform="translate(1432.763672 0)"/>
      <use xlink:href="#DejaVuSans-20" transform="translate(1509.765625 0)"/>
      <use xlink:href="#DejaVuSans-28" transform="translate(1541.552734 0)"/>
      <use xlink:href="#DejaVuSans-6e" transform="translate(1580.566406 0)"/>
      <use xlink:href="#DejaVuSans-3d" transform="translate(1643.945312 0)"/>
      <use xlink:href="#DejaVuSans-33" transform="translate(1727.734375 0)"/>
      <use xlink:href="#DejaVuSans-30" transform="translate(1791.357422 0)"/>
      <use xlink:href="#DejaVuSans-29" transform="translate(1854.980469 0)"/>
     </g>
    </g>
   </g>
  </g>
  <g id="text_18">
   <!-- Devineni2014 Fig3 -->
   <g transform="translate(117.036016 26.196094) scale(0.25 -0.25)">
    <defs>
     <path id="DejaVuSans-Bold-44" d="M 1791 3756 
L 1791 909 
L 2222 909 
Q 2959 909 3348 1275 
Q 3738 1641 3738 2338 
Q 3738 3031 3350 3393 
Q 2963 3756 2222 3756 
L 1791 3756 
z
M 588 4666 
L 1856 4666 
Q 2919 4666 3439 4514 
Q 3959 4363 4331 4000 
Q 4659 3684 4818 3271 
Q 4978 2859 4978 2338 
Q 4978 1809 4818 1395 
Q 4659 981 4331 666 
Q 3956 303 3431 151 
Q 2906 0 1856 0 
L 588 0 
L 588 4666 
z
" transform="scale(0.015625)"/>
     <path id="DejaVuSans-Bold-76" d="M 97 3500 
L 1216 3500 
L 2088 1081 
L 2956 3500 
L 4078 3500 
L 2700 0 
L 1472 0 
L 97 3500 
z
" transform="scale(0.015625)"/>
     <path id="DejaVuSans-Bold-6e" d="M 4056 2131 
L 4056 0 
L 2931 0 
L 2931 347 
L 2931 1631 
Q 2931 2084 2911 2256 
Q 2891 2428 2841 2509 
Q 2775 2619 2662 2680 
Q 2550 2741 2406 2741 
Q 2056 2741 1856 2470 
Q 1656 2200 1656 1722 
L 1656 0 
L 538 0 
L 538 3500 
L 1656 3500 
L 1656 2988 
Q 1909 3294 2193 3439 
Q 2478 3584 2822 3584 
Q 3428 3584 3742 3212 
Q 4056 2841 4056 2131 
z
" transform="scale(0.015625)"/>
     <path id="DejaVuSans-Bold-32" d="M 1844 884 
L 3897 884 
L 3897 0 
L 506 0 
L 506 884 
L 2209 2388 
Q 2438 2594 2547 2791 
Q 2656 2988 2656 3200 
Q 2656 3528 2436 3728 
Q 2216 3928 1850 3928 
Q 1569 3928 1234 3808 
Q 900 3688 519 3450 
L 519 4475 
Q 925 4609 1322 4679 
Q 1719 4750 2100 4750 
Q 2938 4750 3402 4381 
Q 3866 4013 3866 3353 
Q 3866 2972 3669 2642 
Q 3472 2313 2841 1759 
L 1844 884 
z
" transform="scale(0.015625)"/>
     <path id="DejaVuSans-Bold-30" d="M 2944 2338 
Q 2944 3213 2780 3570 
Q 2616 3928 2228 3928 
Q 1841 3928 1675 3570 
Q 1509 3213 1509 2338 
Q 1509 1453 1675 1090 
Q 1841 728 2228 728 
Q 2613 728 2778 1090 
Q 2944 1453 2944 2338 
z
M 4147 2328 
Q 4147 1169 3647 539 
Q 3147 -91 2228 -91 
Q 1306 -91 806 539 
Q 306 1169 306 2328 
Q 306 3491 806 4120 
Q 1306 4750 2228 4750 
Q 3147 4750 3647 4120 
Q 4147 3491 4147 2328 
z
" transform="scale(0.015625)"/>
     <path id="DejaVuSans-Bold-31" d="M 750 831 
L 1813 831 
L 1813 3847 
L 722 3622 
L 722 4441 
L 1806 4666 
L 2950 4666 
L 2950 831 
L 4013 831 
L 4013 0 
L 750 0 
L 750 831 
z
" transform="scale(0.015625)"/>
     <path id="DejaVuSans-Bold-34" d="M 2356 3675 
L 1038 1722 
L 2356 1722 
L 2356 3675 
z
M 2156 4666 
L 3494 4666 
L 3494 1722 
L 4159 1722 
L 4159 850 
L 3494 850 
L 3494 0 
L 2356 0 
L 2356 850 
L 288 850 
L 288 1881 
L 2156 4666 
z
" transform="scale(0.015625)"/>
     <path id="DejaVuSans-Bold-46" d="M 588 4666 
L 3834 4666 
L 3834 3756 
L 1791 3756 
L 1791 2888 
L 3713 2888 
L 3713 1978 
L 1791 1978 
L 1791 0 
L 588 0 
L 588 4666 
z
" transform="scale(0.015625)"/>
     <path id="DejaVuSans-Bold-67" d="M 2919 594 
Q 2688 288 2409 144 
Q 2131 0 1766 0 
Q 1125 0 706 504 
Q 288 1009 288 1791 
Q 288 2575 706 3076 
Q 1125 3578 1766 3578 
Q 2131 3578 2409 3434 
Q 2688 3291 2919 2981 
L 2919 3500 
L 4044 3500 
L 4044 353 
Q 4044 -491 3511 -936 
Q 2978 -1381 1966 -1381 
Q 1638 -1381 1331 -1331 
Q 1025 -1281 716 -1178 
L 716 -306 
Q 1009 -475 1290 -558 
Q 1572 -641 1856 -641 
Q 2406 -641 2662 -400 
Q 2919 -159 2919 353 
L 2919 594 
z
M 2181 2772 
Q 1834 2772 1640 2515 
Q 1447 2259 1447 1791 
Q 1447 1309 1634 1061 
Q 1822 813 2181 813 
Q 2531 813 2725 1069 
Q 2919 1325 2919 1791 
Q 2919 2259 2725 2515 
Q 2531 2772 2181 2772 
z
" transform="scale(0.015625)"/>
     <path id="DejaVuSans-Bold-33" d="M 2981 2516 
Q 3453 2394 3698 2092 
Q 3944 1791 3944 1325 
Q 3944 631 3412 270 
Q 2881 -91 1863 -91 
Q 1503 -91 1142 -33 
Q 781 25 428 141 
L 428 1069 
Q 766 900 1098 814 
Q 1431 728 1753 728 
Q 2231 728 2486 893 
Q 2741 1059 2741 1369 
Q 2741 1688 2480 1852 
Q 2219 2016 1709 2016 
L 1228 2016 
L 1228 2791 
L 1734 2791 
Q 2188 2791 2409 2933 
Q 2631 3075 2631 3366 
Q 2631 3634 2415 3781 
Q 2200 3928 1806 3928 
Q 1516 3928 1219 3862 
Q 922 3797 628 3669 
L 628 4550 
Q 984 4650 1334 4700 
Q 1684 4750 2022 4750 
Q 2931 4750 3382 4451 
Q 3834 4153 3834 3553 
Q 3834 3144 3618 2883 
Q 3403 2622 2981 2516 
z
" transform="scale(0.015625)"/>
    </defs>
    <use xlink:href="#DejaVuSans-Bold-44"/>
    <use xlink:href="#DejaVuSans-Bold-65" transform="translate(83.007812 0)"/>
    <use xlink:href="#DejaVuSans-Bold-76" transform="translate(150.830078 0)"/>
    <use xlink:href="#DejaVuSans-Bold-69" transform="translate(216.015625 0)"/>
    <use xlink:href="#DejaVuSans-Bold-6e" transform="translate(250.292969 0)"/>
    <use xlink:href="#DejaVuSans-Bold-65" transform="translate(321.484375 0)"/>
    <use xlink:href="#DejaVuSans-Bold-6e" transform="translate(389.306641 0)"/>
    <use xlink:href="#DejaVuSans-Bold-69" transform="translate(460.498047 0)"/>
    <use xlink:href="#DejaVuSans-Bold-32" transform="translate(494.775391 0)"/>
    <use xlink:href="#DejaVuSans-Bold-30" transform="translate(564.355469 0)"/>
    <use xlink:href="#DejaVuSans-Bold-31" transform="translate(633.935547 0)"/>
    <use xlink:href="#DejaVuSans-Bold-34" transform="translate(703.515625 0)"/>
    <use xlink:href="#DejaVuSans-Bold-20" transform="translate(773.095703 0)"/>
    <use xlink:href="#DejaVuSans-Bold-46" transform="translate(807.910156 0)"/>
    <use xlink:href="#DejaVuSans-Bold-69" transform="translate(876.220703 0)"/>
    <use xlink:href="#DejaVuSans-Bold-67" transform="translate(910.498047 0)"/>
    <use xlink:href="#DejaVuSans-Bold-33" transform="translate(982.080078 0)"/>
   </g>
  </g>
 </g>
 <defs>
  <clipPath id="p5ca60922c3">
   <rect x="59.495" y="43.2" width="390.6" height="277.2"/>
  </clipPath>
 </defs>
</svg>
