<?xml version="1.0" encoding="utf-8" standalone="no"?>
<!DOCTYPE svg PUBLIC "-//W3C//DTD SVG 1.1//EN"
  "http://www.w3.org/Graphics/SVG/1.1/DTD/svg11.dtd">
<svg xmlns:xlink="http://www.w3.org/1999/xlink" width="466.83875pt" height="370.537812pt" viewBox="0 0 466.83875 370.537812" xmlns="http://www.w3.org/2000/svg" version="1.1">
 <metadata>
  <rdf:RDF xmlns:dc="http://purl.org/dc/elements/1.1/" xmlns:cc="http://creativecommons.org/ns#" xmlns:rdf="http://www.w3.org/1999/02/22-rdf-syntax-ns#">
   <cc:Work>
    <dc:type rdf:resource="http://purl.org/dc/dcmitype/StillImage"/>
    <dc:date>2025-11-04T18:11:56.996019</dc:date>
    <dc:format>image/svg+xml</dc:format>
    <dc:creator>
     <cc:Agent>
      <dc:title>Matplotlib v3.10.7, https://matplotlib.org/</dc:title>
     </cc:Agent>
    </dc:creator>
   </cc:Work>
  </rdf:RDF>
 </metadata>
 <defs>
  <style type="text/css">*{stroke-linejoin: round; stroke-linecap: butt}</style>
 </defs>
 <g id="figure_1">
  <g id="patch_1">
   <path d="M 0 370.537812 
L 466.83875 370.537812 
L 466.83875 0 
L 0 0 
z
" style="fill: #ffffff"/>
  </g>
  <g id="axes_1">
   <g id="patch_2">
    <path d="M 69.03875 320.4 
L 459.63875 320.4 
L 459.63875 43.2 
L 69.03875 43.2 
z
" style="fill: #ffffff"/>
   </g>
   <g id="matplotlib.axis_1">
    <g id="xtick_1">
     <g id="line2d_1">
      <defs>
       <path id="m9a93197625" d="M 0 0 
L 0 3.5 
" style="stroke: #000000; stroke-width: 0.8"/>
      </defs>
      <g>
       <use xlink:href="#m9a93197625" x="86.793295" y="320.4" style="stroke: #000000; stroke-width: 0.8"/>
      </g>
     </g>
     <g id="text_1">
      <!-- 0 -->
      <g transform="translate(82.02142 338.797656) scale(0.15 -0.15)">
       <defs>
        <path id="DejaVuSans-30" d="M 2034 4250 
Q 1547 4250 1301 3770 
Q 1056 3291 1056 2328 
Q 1056 1369 1301 889 
Q 1547 409 2034 409 
Q 2525 409 2770 889 
Q 3016 1369 3016 2328 
Q 3016 3291 2770 3770 
Q 2525 4250 2034 4250 
z
M 2034 4750 
Q 2819 4750 3233 4129 
Q 3647 3509 3647 2328 
Q 3647 1150 3233 529 
Q 2819 -91 2034 -91 
Q 1250 -91 836 529 
Q 422 1150 422 2328 
Q 422 3509 836 4129 
Q 1250 4750 2034 4750 
z
" transform="scale(0.015625)"/>
       </defs>
       <use xlink:href="#DejaVuSans-30"/>
      </g>
     </g>
    </g>
    <g id="xtick_2">
     <g id="line2d_2">
      <g>
       <use xlink:href="#m9a93197625" x="157.811477" y="320.4" style="stroke: #000000; stroke-width: 0.8"/>
      </g>
     </g>
     <g id="text_2">
      <!-- 10 -->
      <g transform="translate(148.267727 338.797656) scale(0.15 -0.15)">
       <defs>
        <path id="DejaVuSans-31" d="M 794 531 
L 1825 531 
L 1825 4091 
L 703 3866 
L 703 4441 
L 1819 4666 
L 2450 4666 
L 2450 531 
L 3481 531 
L 3481 0 
L 794 0 
L 794 531 
z
" transform="scale(0.015625)"/>
       </defs>
       <use xlink:href="#DejaVuSans-31"/>
       <use xlink:href="#DejaVuSans-30" transform="translate(63.623047 0)"/>
      </g>
     </g>
    </g>
    <g id="xtick_3">
     <g id="line2d_3">
      <g>
       <use xlink:href="#m9a93197625" x="228.829659" y="320.4" style="stroke: #000000; stroke-width: 0.8"/>
      </g>
     </g>
     <g id="text_3">
      <!-- 20 -->
      <g transform="translate(219.285909 338.797656) scale(0.15 -0.15)">
       <defs>
        <path id="DejaVuSans-32" d="M 1228 531 
L 3431 531 
L 3431 0 
L 469 0 
L 469 531 
Q 828 903 1448 1529 
Q 2069 2156 2228 2338 
Q 2531 2678 2651 2914 
Q 2772 3150 2772 3378 
Q 2772 3750 2511 3984 
Q 2250 4219 1831 4219 
Q 1534 4219 1204 4116 
Q 875 4013 500 3803 
L 500 4441 
Q 881 4594 1212 4672 
Q 1544 4750 1819 4750 
Q 2544 4750 2975 4387 
Q 3406 4025 3406 3419 
Q 3406 3131 3298 2873 
Q 3191 2616 2906 2266 
Q 2828 2175 2409 1742 
Q 1991 1309 1228 531 
z
" transform="scale(0.015625)"/>
       </defs>
       <use xlink:href="#DejaVuSans-32"/>
       <use xlink:href="#DejaVuSans-30" transform="translate(63.623047 0)"/>
      </g>
     </g>
    </g>
    <g id="xtick_4">
     <g id="line2d_4">
      <g>
       <use xlink:href="#m9a93197625" x="299.847841" y="320.4" style="stroke: #000000; stroke-width: 0.8"/>
      </g>
     </g>
     <g id="text_4">
      <!-- 30 -->
      <g transform="translate(290.304091 338.797656) scale(0.15 -0.15)">
       <defs>
        <path id="DejaVuSans-33" d="M 2597 2516 
Q 3050 2419 3304 2112 
Q 3559 1806 3559 1356 
Q 3559 666 3084 287 
Q 2609 -91 1734 -91 
Q 1441 -91 1130 -33 
Q 819 25 488 141 
L 488 750 
Q 750 597 1062 519 
Q 1375 441 1716 441 
Q 2309 441 2620 675 
Q 2931 909 2931 1356 
Q 2931 1769 2642 2001 
Q 2353 2234 1838 2234 
L 1294 2234 
L 1294 2753 
L 1863 2753 
Q 2328 2753 2575 2939 
Q 2822 3125 2822 3475 
Q 2822 3834 2567 4026 
Q 2313 4219 1838 4219 
Q 1578 4219 1281 4162 
Q 984 4106 628 3988 
L 628 4550 
Q 988 4650 1302 4700 
Q 1616 4750 1894 4750 
Q 2613 4750 3031 4423 
Q 3450 4097 3450 3541 
Q 3450 3153 3228 2886 
Q 3006 2619 2597 2516 
z
" transform="scale(0.015625)"/>
       </defs>
       <use xlink:href="#DejaVuSans-33"/>
       <use xlink:href="#DejaVuSans-30" transform="translate(63.623047 0)"/>
      </g>
     </g>
    </g>
    <g id="xtick_5">
     <g id="line2d_5">
      <g>
       <use xlink:href="#m9a93197625" x="370.866023" y="320.4" style="stroke: #000000; stroke-width: 0.8"/>
      </g>
     </g>
     <g id="text_5">
      <!-- 40 -->
      <g transform="translate(361.322273 338.797656) scale(0.15 -0.15)">
       <defs>
        <path id="DejaVuSans-34" d="M 2419 4116 
L 825 1625 
L 2419 1625 
L 2419 4116 
z
M 2253 4666 
L 3047 4666 
L 3047 1625 
L 3713 1625 
L 3713 1100 
L 3047 1100 
L 3047 0 
L 2419 0 
L 2419 1100 
L 313 1100 
L 313 1709 
L 2253 4666 
z
" transform="scale(0.015625)"/>
       </defs>
       <use xlink:href="#DejaVuSans-34"/>
       <use xlink:href="#DejaVuSans-30" transform="translate(63.623047 0)"/>
      </g>
     </g>
    </g>
    <g id="xtick_6">
     <g id="line2d_6">
      <g>
       <use xlink:href="#m9a93197625" x="441.884205" y="320.4" style="stroke: #000000; stroke-width: 0.8"/>
      </g>
     </g>
     <g id="text_6">
      <!-- 50 -->
      <g transform="translate(432.340455 338.797656) scale(0.15 -0.15)">
       <defs>
        <path id="DejaVuSans-35" d="M 691 4666 
L 3169 4666 
L 3169 4134 
L 1269 4134 
L 1269 2991 
Q 1406 3038 1543 3061 
Q 1681 3084 1819 3084 
Q 2600 3084 3056 2656 
Q 3513 2228 3513 1497 
Q 3513 744 3044 326 
Q 2575 -91 1722 -91 
Q 1428 -91 1123 -41 
Q 819 9 494 109 
L 494 744 
Q 775 591 1075 516 
Q 1375 441 1709 441 
Q 2250 441 2565 725 
Q 2881 1009 2881 1497 
Q 2881 1984 2565 2268 
Q 2250 2553 1709 2553 
Q 1456 2553 1204 2497 
Q 953 2441 691 2322 
L 691 4666 
z
" transform="scale(0.015625)"/>
       </defs>
       <use xlink:href="#DejaVuSans-35"/>
       <use xlink:href="#DejaVuSans-30" transform="translate(63.623047 0)"/>
      </g>
     </g>
    </g>
    <g id="text_7">
     <!-- time [hr] -->
     <g transform="translate(219.264219 359.594375) scale(0.18 -0.18)">
      <defs>
       <path id="DejaVuSans-Bold-74" d="M 1759 4494 
L 1759 3500 
L 2913 3500 
L 2913 2700 
L 1759 2700 
L 1759 1216 
Q 1759 972 1856 886 
Q 1953 800 2241 800 
L 2816 800 
L 2816 0 
L 1856 0 
Q 1194 0 917 276 
Q 641 553 641 1216 
L 641 2700 
L 84 2700 
L 84 3500 
L 641 3500 
L 641 4494 
L 1759 4494 
z
" transform="scale(0.015625)"/>
       <path id="DejaVuSans-Bold-69" d="M 538 3500 
L 1656 3500 
L 1656 0 
L 538 0 
L 538 3500 
z
M 538 4863 
L 1656 4863 
L 1656 3950 
L 538 3950 
L 538 4863 
z
" transform="scale(0.015625)"/>
       <path id="DejaVuSans-Bold-6d" d="M 3781 2919 
Q 3994 3244 4286 3414 
Q 4578 3584 4928 3584 
Q 5531 3584 5847 3212 
Q 6163 2841 6163 2131 
L 6163 0 
L 5038 0 
L 5038 1825 
Q 5041 1866 5042 1909 
Q 5044 1953 5044 2034 
Q 5044 2406 4934 2573 
Q 4825 2741 4581 2741 
Q 4263 2741 4089 2478 
Q 3916 2216 3909 1719 
L 3909 0 
L 2784 0 
L 2784 1825 
Q 2784 2406 2684 2573 
Q 2584 2741 2328 2741 
Q 2006 2741 1831 2477 
Q 1656 2213 1656 1722 
L 1656 0 
L 531 0 
L 531 3500 
L 1656 3500 
L 1656 2988 
Q 1863 3284 2130 3434 
Q 2397 3584 2719 3584 
Q 3081 3584 3359 3409 
Q 3638 3234 3781 2919 
z
" transform="scale(0.015625)"/>
       <path id="DejaVuSans-Bold-65" d="M 4031 1759 
L 4031 1441 
L 1416 1441 
Q 1456 1047 1700 850 
Q 1944 653 2381 653 
Q 2734 653 3104 758 
Q 3475 863 3866 1075 
L 3866 213 
Q 3469 63 3072 -14 
Q 2675 -91 2278 -91 
Q 1328 -91 801 392 
Q 275 875 275 1747 
Q 275 2603 792 3093 
Q 1309 3584 2216 3584 
Q 3041 3584 3536 3087 
Q 4031 2591 4031 1759 
z
M 2881 2131 
Q 2881 2450 2695 2645 
Q 2509 2841 2209 2841 
Q 1884 2841 1681 2658 
Q 1478 2475 1428 2131 
L 2881 2131 
z
" transform="scale(0.015625)"/>
       <path id="DejaVuSans-Bold-20" transform="scale(0.015625)"/>
       <path id="DejaVuSans-Bold-5b" d="M 550 4863 
L 2491 4863 
L 2491 4159 
L 1613 4159 
L 1613 -141 
L 2491 -141 
L 2491 -844 
L 550 -844 
L 550 4863 
z
" transform="scale(0.015625)"/>
       <path id="DejaVuSans-Bold-68" d="M 4056 2131 
L 4056 0 
L 2931 0 
L 2931 347 
L 2931 1625 
Q 2931 2084 2911 2256 
Q 2891 2428 2841 2509 
Q 2775 2619 2662 2680 
Q 2550 2741 2406 2741 
Q 2056 2741 1856 2470 
Q 1656 2200 1656 1722 
L 1656 0 
L 538 0 
L 538 4863 
L 1656 4863 
L 1656 2988 
Q 1909 3294 2193 3439 
Q 2478 3584 2822 3584 
Q 3428 3584 3742 3212 
Q 4056 2841 4056 2131 
z
" transform="scale(0.015625)"/>
       <path id="DejaVuSans-Bold-72" d="M 3138 2547 
Q 2991 2616 2845 2648 
Q 2700 2681 2553 2681 
Q 2122 2681 1889 2404 
Q 1656 2128 1656 1613 
L 1656 0 
L 538 0 
L 538 3500 
L 1656 3500 
L 1656 2925 
Q 1872 3269 2151 3426 
Q 2431 3584 2822 3584 
Q 2878 3584 2943 3579 
Q 3009 3575 3134 3559 
L 3138 2547 
z
" transform="scale(0.015625)"/>
       <path id="DejaVuSans-Bold-5d" d="M 2375 -844 
L 434 -844 
L 434 -141 
L 1313 -141 
L 1313 4159 
L 434 4159 
L 434 4863 
L 2375 4863 
L 2375 -844 
z
" transform="scale(0.015625)"/>
      </defs>
      <use xlink:href="#DejaVuSans-Bold-74"/>
      <use xlink:href="#DejaVuSans-Bold-69" transform="translate(47.802734 0)"/>
      <use xlink:href="#DejaVuSans-Bold-6d" transform="translate(82.080078 0)"/>
      <use xlink:href="#DejaVuSans-Bold-65" transform="translate(186.279297 0)"/>
      <use xlink:href="#DejaVuSans-Bold-20" transform="translate(254.101562 0)"/>
      <use xlink:href="#DejaVuSans-Bold-5b" transform="translate(288.916016 0)"/>
      <use xlink:href="#DejaVuSans-Bold-68" transform="translate(334.619141 0)"/>
      <use xlink:href="#DejaVuSans-Bold-72" transform="translate(405.810547 0)"/>
      <use xlink:href="#DejaVuSans-Bold-5d" transform="translate(455.126953 0)"/>
     </g>
    </g>
   </g>
   <g id="matplotlib.axis_2">
    <g id="ytick_1">
     <g id="line2d_7">
      <defs>
       <path id="m519472acfc" d="M 0 0 
L -3.5 0 
" style="stroke: #000000; stroke-width: 0.8"/>
      </defs>
      <g>
       <use xlink:href="#m519472acfc" x="69.03875" y="307.538227" style="stroke: #000000; stroke-width: 0.8"/>
      </g>
     </g>
     <g id="text_8">
      <!-- 0.00 -->
      <g transform="translate(28.640313 313.237055) scale(0.15 -0.15)">
       <defs>
        <path id="DejaVuSans-2e" d="M 684 794 
L 1344 794 
L 1344 0 
L 684 0 
L 684 794 
z
" transform="scale(0.015625)"/>
       </defs>
       <use xlink:href="#DejaVuSans-30"/>
       <use xlink:href="#DejaVuSans-2e" transform="translate(63.623047 0)"/>
       <use xlink:href="#DejaVuSans-30" transform="translate(95.410156 0)"/>
       <use xlink:href="#DejaVuSans-30" transform="translate(159.033203 0)"/>
      </g>
     </g>
    </g>
    <g id="ytick_2">
     <g id="line2d_8">
      <g>
       <use xlink:href="#m519472acfc" x="69.03875" y="275.067486" style="stroke: #000000; stroke-width: 0.8"/>
      </g>
     </g>
     <g id="text_9">
      <!-- 0.25 -->
      <g transform="translate(28.640313 280.766314) scale(0.15 -0.15)">
       <use xlink:href="#DejaVuSans-30"/>
       <use xlink:href="#DejaVuSans-2e" transform="translate(63.623047 0)"/>
       <use xlink:href="#DejaVuSans-32" transform="translate(95.410156 0)"/>
       <use xlink:href="#DejaVuSans-35" transform="translate(159.033203 0)"/>
      </g>
     </g>
    </g>
    <g id="ytick_3">
     <g id="line2d_9">
      <g>
       <use xlink:href="#m519472acfc" x="69.03875" y="242.596745" style="stroke: #000000; stroke-width: 0.8"/>
      </g>
     </g>
     <g id="text_10">
      <!-- 0.50 -->
      <g transform="translate(28.640313 248.295573) scale(0.15 -0.15)">
       <use xlink:href="#DejaVuSans-30"/>
       <use xlink:href="#DejaVuSans-2e" transform="translate(63.623047 0)"/>
       <use xlink:href="#DejaVuSans-35" transform="translate(95.410156 0)"/>
       <use xlink:href="#DejaVuSans-30" transform="translate(159.033203 0)"/>
      </g>
     </g>
    </g>
    <g id="ytick_4">
     <g id="line2d_10">
      <g>
       <use xlink:href="#m519472acfc" x="69.03875" y="210.126004" style="stroke: #000000; stroke-width: 0.8"/>
      </g>
     </g>
     <g id="text_11">
      <!-- 0.75 -->
      <g transform="translate(28.640313 215.824832) scale(0.15 -0.15)">
       <defs>
        <path id="DejaVuSans-37" d="M 525 4666 
L 3525 4666 
L 3525 4397 
L 1831 0 
L 1172 0 
L 2766 4134 
L 525 4134 
L 525 4666 
z
" transform="scale(0.015625)"/>
       </defs>
       <use xlink:href="#DejaVuSans-30"/>
       <use xlink:href="#DejaVuSans-2e" transform="translate(63.623047 0)"/>
       <use xlink:href="#DejaVuSans-37" transform="translate(95.410156 0)"/>
       <use xlink:href="#DejaVuSans-35" transform="translate(159.033203 0)"/>
      </g>
     </g>
    </g>
    <g id="ytick_5">
     <g id="line2d_11">
      <g>
       <use xlink:href="#m519472acfc" x="69.03875" y="177.655263" style="stroke: #000000; stroke-width: 0.8"/>
      </g>
     </g>
     <g id="text_12">
      <!-- 1.00 -->
      <g transform="translate(28.640313 183.354091) scale(0.15 -0.15)">
       <use xlink:href="#DejaVuSans-31"/>
       <use xlink:href="#DejaVuSans-2e" transform="translate(63.623047 0)"/>
       <use xlink:href="#DejaVuSans-30" transform="translate(95.410156 0)"/>
       <use xlink:href="#DejaVuSans-30" transform="translate(159.033203 0)"/>
      </g>
     </g>
    </g>
    <g id="ytick_6">
     <g id="line2d_12">
      <g>
       <use xlink:href="#m519472acfc" x="69.03875" y="145.184522" style="stroke: #000000; stroke-width: 0.8"/>
      </g>
     </g>
     <g id="text_13">
      <!-- 1.25 -->
      <g transform="translate(28.640313 150.88335) scale(0.15 -0.15)">
       <use xlink:href="#DejaVuSans-31"/>
       <use xlink:href="#DejaVuSans-2e" transform="translate(63.623047 0)"/>
       <use xlink:href="#DejaVuSans-32" transform="translate(95.410156 0)"/>
       <use xlink:href="#DejaVuSans-35" transform="translate(159.033203 0)"/>
      </g>
     </g>
    </g>
    <g id="ytick_7">
     <g id="line2d_13">
      <g>
       <use xlink:href="#m519472acfc" x="69.03875" y="112.713781" style="stroke: #000000; stroke-width: 0.8"/>
      </g>
     </g>
     <g id="text_14">
      <!-- 1.50 -->
      <g transform="translate(28.640313 118.412609) scale(0.15 -0.15)">
       <use xlink:href="#DejaVuSans-31"/>
       <use xlink:href="#DejaVuSans-2e" transform="translate(63.623047 0)"/>
       <use xlink:href="#DejaVuSans-35" transform="translate(95.410156 0)"/>
       <use xlink:href="#DejaVuSans-30" transform="translate(159.033203 0)"/>
      </g>
     </g>
    </g>
    <g id="ytick_8">
     <g id="line2d_14">
      <g>
       <use xlink:href="#m519472acfc" x="69.03875" y="80.24304" style="stroke: #000000; stroke-width: 0.8"/>
      </g>
     </g>
     <g id="text_15">
      <!-- 1.75 -->
      <g transform="translate(28.640313 85.941868) scale(0.15 -0.15)">
       <use xlink:href="#DejaVuSans-31"/>
       <use xlink:href="#DejaVuSans-2e" transform="translate(63.623047 0)"/>
       <use xlink:href="#DejaVuSans-37" transform="translate(95.410156 0)"/>
       <use xlink:href="#DejaVuSans-35" transform="translate(159.033203 0)"/>
      </g>
     </g>
    </g>
    <g id="ytick_9">
     <g id="line2d_15">
      <g>
       <use xlink:href="#m519472acfc" x="69.03875" y="47.772299" style="stroke: #000000; stroke-width: 0.8"/>
      </g>
     </g>
     <g id="text_16">
      <!-- 2.00 -->
      <g transform="translate(28.640313 53.471127) scale(0.15 -0.15)">
       <use xlink:href="#DejaVuSans-32"/>
       <use xlink:href="#DejaVuSans-2e" transform="translate(63.623047 0)"/>
       <use xlink:href="#DejaVuSans-30" transform="translate(95.410156 0)"/>
       <use xlink:href="#DejaVuSans-30" transform="translate(159.033203 0)"/>
      </g>
     </g>
    </g>
    <g id="text_17">
     <!-- HCTZ [µM] -->
     <g transform="translate(20.877188 235.54125) rotate(-90) scale(0.18 -0.18)">
      <defs>
       <path id="DejaVuSans-Bold-48" d="M 588 4666 
L 1791 4666 
L 1791 2888 
L 3566 2888 
L 3566 4666 
L 4769 4666 
L 4769 0 
L 3566 0 
L 3566 1978 
L 1791 1978 
L 1791 0 
L 588 0 
L 588 4666 
z
" transform="scale(0.015625)"/>
       <path id="DejaVuSans-Bold-43" d="M 4288 256 
Q 3956 84 3597 -3 
Q 3238 -91 2847 -91 
Q 1681 -91 1000 561 
Q 319 1213 319 2328 
Q 319 3447 1000 4098 
Q 1681 4750 2847 4750 
Q 3238 4750 3597 4662 
Q 3956 4575 4288 4403 
L 4288 3438 
Q 3953 3666 3628 3772 
Q 3303 3878 2944 3878 
Q 2300 3878 1931 3465 
Q 1563 3053 1563 2328 
Q 1563 1606 1931 1193 
Q 2300 781 2944 781 
Q 3303 781 3628 887 
Q 3953 994 4288 1222 
L 4288 256 
z
" transform="scale(0.015625)"/>
       <path id="DejaVuSans-Bold-54" d="M 31 4666 
L 4331 4666 
L 4331 3756 
L 2784 3756 
L 2784 0 
L 1581 0 
L 1581 3756 
L 31 3756 
L 31 4666 
z
" transform="scale(0.015625)"/>
       <path id="DejaVuSans-Bold-5a" d="M 359 4666 
L 4281 4666 
L 4281 3938 
L 1778 909 
L 4353 909 
L 4353 0 
L 288 0 
L 288 728 
L 2791 3756 
L 359 3756 
L 359 4666 
z
" transform="scale(0.015625)"/>
       <path id="DejaVuSans-Bold-b5" d="M 544 -1338 
L 544 3500 
L 1672 3500 
L 1672 1466 
Q 1672 1103 1828 926 
Q 1984 750 2303 750 
Q 2625 750 2781 926 
Q 2938 1103 2938 1466 
L 2938 3500 
L 4063 3500 
L 4063 1159 
Q 4063 938 4114 850 
Q 4166 763 4288 763 
Q 4344 763 4395 778 
Q 4447 794 4506 831 
L 4506 50 
Q 4341 -22 4195 -56 
Q 4050 -91 3909 -91 
Q 3631 -91 3454 26 
Q 3278 144 3169 403 
Q 3022 156 2811 32 
Q 2600 -91 2322 -91 
Q 2091 -91 1928 -17 
Q 1766 56 1672 206 
L 1672 -1338 
L 544 -1338 
z
" transform="scale(0.015625)"/>
       <path id="DejaVuSans-Bold-4d" d="M 588 4666 
L 2119 4666 
L 3181 2169 
L 4250 4666 
L 5778 4666 
L 5778 0 
L 4641 0 
L 4641 3413 
L 3566 897 
L 2803 897 
L 1728 3413 
L 1728 0 
L 588 0 
L 588 4666 
z
" transform="scale(0.015625)"/>
      </defs>
      <use xlink:href="#DejaVuSans-Bold-48"/>
      <use xlink:href="#DejaVuSans-Bold-43" transform="translate(83.691406 0)"/>
      <use xlink:href="#DejaVuSans-Bold-54" transform="translate(157.080078 0)"/>
      <use xlink:href="#DejaVuSans-Bold-5a" transform="translate(225.292969 0)"/>
      <use xlink:href="#DejaVuSans-Bold-20" transform="translate(297.802734 0)"/>
      <use xlink:href="#DejaVuSans-Bold-5b" transform="translate(332.617188 0)"/>
      <use xlink:href="#DejaVuSans-Bold-b5" transform="translate(378.320312 0)"/>
      <use xlink:href="#DejaVuSans-Bold-4d" transform="translate(451.904297 0)"/>
      <use xlink:href="#DejaVuSans-Bold-5d" transform="translate(551.416016 0)"/>
     </g>
    </g>
   </g>
   <g id="LineCollection_1">
    <path d="M 90.344205 307.145568 
L 90.344205 288.03615 
" clip-path="url(#p4c5b4bd707)" style="fill: none; stroke: #000000"/>
    <path d="M 93.895114 290.435734 
L 93.895114 262.164266 
" clip-path="url(#p4c5b4bd707)" style="fill: none; stroke: #000000"/>
    <path d="M 97.446023 281.884488 
L 97.446023 247.766759 
" clip-path="url(#p4c5b4bd707)" style="fill: none; stroke: #000000"/>
    <path d="M 100.996932 276.561773 
L 100.996932 245.14903 
" clip-path="url(#p4c5b4bd707)" style="fill: none; stroke: #000000"/>
    <path d="M 108.09875 270.017452 
L 108.09875 244.712742 
" clip-path="url(#p4c5b4bd707)" style="fill: none; stroke: #000000"/>
    <path d="M 115.200568 276.343629 
L 115.200568 257.932271 
" clip-path="url(#p4c5b4bd707)" style="fill: none; stroke: #000000"/>
    <path d="M 129.404205 288.952355 
L 129.404205 278.830471 
" clip-path="url(#p4c5b4bd707)" style="fill: none; stroke: #000000"/>
    <path d="M 143.607841 294.536842 
L 143.607841 286.247368 
" clip-path="url(#p4c5b4bd707)" style="fill: none; stroke: #000000"/>
    <path d="M 172.015114 302.564543 
L 172.015114 292.180886 
" clip-path="url(#p4c5b4bd707)" style="fill: none; stroke: #000000"/>
    <path d="M 257.236932 306.360249 
L 257.236932 300.863019 
" clip-path="url(#p4c5b4bd707)" style="fill: none; stroke: #000000"/>
    <path d="M 342.45875 307.8 
L 342.45875 303.262604 
" clip-path="url(#p4c5b4bd707)" style="fill: none; stroke: #000000"/>
   </g>
   <g id="LineCollection_2">
    <path d="M 90.344205 302.171884 
L 90.344205 276.518144 
" clip-path="url(#p4c5b4bd707)" style="fill: none; stroke: #000000"/>
    <path d="M 93.895114 285.287535 
L 93.895114 239.913573 
" clip-path="url(#p4c5b4bd707)" style="fill: none; stroke: #000000"/>
    <path d="M 97.446023 273.944044 
L 97.446023 234.678116 
" clip-path="url(#p4c5b4bd707)" style="fill: none; stroke: #000000"/>
    <path d="M 100.996932 273.071468 
L 100.996932 234.678116 
" clip-path="url(#p4c5b4bd707)" style="fill: none; stroke: #000000"/>
    <path d="M 108.09875 271.326316 
L 108.09875 240.78615 
" clip-path="url(#p4c5b4bd707)" style="fill: none; stroke: #000000"/>
    <path d="M 115.200568 277.172576 
L 115.200568 253.700277 
" clip-path="url(#p4c5b4bd707)" style="fill: none; stroke: #000000"/>
    <path d="M 129.404205 291.831856 
L 129.404205 278.394183 
" clip-path="url(#p4c5b4bd707)" style="fill: none; stroke: #000000"/>
    <path d="M 143.607841 295.278532 
L 143.607841 287.076316 
" clip-path="url(#p4c5b4bd707)" style="fill: none; stroke: #000000"/>
    <path d="M 172.015114 301.866482 
L 172.015114 295.496676 
" clip-path="url(#p4c5b4bd707)" style="fill: none; stroke: #000000"/>
    <path d="M 257.236932 305.313158 
L 257.236932 300.513989 
" clip-path="url(#p4c5b4bd707)" style="fill: none; stroke: #000000"/>
    <path d="M 342.45875 306.927424 
L 342.45875 301.691967 
" clip-path="url(#p4c5b4bd707)" style="fill: none; stroke: #000000"/>
   </g>
   <g id="LineCollection_3">
    <path d="M 90.344205 302.782687 
L 90.344205 269.101247 
" clip-path="url(#p4c5b4bd707)" style="fill: none; stroke: #1f77b4"/>
    <path d="M 93.895114 281.79723 
L 93.895114 172.725208 
" clip-path="url(#p4c5b4bd707)" style="fill: none; stroke: #1f77b4"/>
    <path d="M 97.446023 246.457895 
L 97.446023 166.180886 
" clip-path="url(#p4c5b4bd707)" style="fill: none; stroke: #1f77b4"/>
    <path d="M 100.996932 242.531302 
L 100.996932 153.528532 
" clip-path="url(#p4c5b4bd707)" style="fill: none; stroke: #1f77b4"/>
    <path d="M 108.09875 239.913573 
L 108.09875 190.176731 
" clip-path="url(#p4c5b4bd707)" style="fill: none; stroke: #1f77b4"/>
    <path d="M 115.200568 242.095014 
L 115.200568 217.662881 
" clip-path="url(#p4c5b4bd707)" style="fill: none; stroke: #1f77b4"/>
    <path d="M 129.404205 265.218283 
L 129.404205 251.257064 
" clip-path="url(#p4c5b4bd707)" style="fill: none; stroke: #1f77b4"/>
    <path d="M 143.607841 278.219668 
L 143.607841 266.439889 
" clip-path="url(#p4c5b4bd707)" style="fill: none; stroke: #1f77b4"/>
    <path d="M 172.015114 292.79169 
L 172.015114 283.62964 
" clip-path="url(#p4c5b4bd707)" style="fill: none; stroke: #1f77b4"/>
    <path d="M 257.236932 302.30277 
L 257.236932 295.583934 
" clip-path="url(#p4c5b4bd707)" style="fill: none; stroke: #1f77b4"/>
    <path d="M 342.45875 305.749446 
L 342.45875 301.735596 
" clip-path="url(#p4c5b4bd707)" style="fill: none; stroke: #1f77b4"/>
   </g>
   <g id="LineCollection_4">
    <path d="M 90.344205 283.97867 
L 90.344205 239.477285 
" clip-path="url(#p4c5b4bd707)" style="fill: none; stroke: #1f77b4"/>
    <path d="M 93.895114 249.075623 
L 93.895114 180.142105 
" clip-path="url(#p4c5b4bd707)" style="fill: none; stroke: #1f77b4"/>
    <path d="M 97.446023 232.060388 
L 97.446023 158.763989 
" clip-path="url(#p4c5b4bd707)" style="fill: none; stroke: #1f77b4"/>
    <path d="M 100.996932 237.732133 
L 100.996932 179.269529 
" clip-path="url(#p4c5b4bd707)" style="fill: none; stroke: #1f77b4"/>
    <path d="M 108.09875 238.604709 
L 108.09875 194.9759 
" clip-path="url(#p4c5b4bd707)" style="fill: none; stroke: #1f77b4"/>
    <path d="M 115.200568 246.894183 
L 115.200568 217.226593 
" clip-path="url(#p4c5b4bd707)" style="fill: none; stroke: #1f77b4"/>
    <path d="M 129.404205 271.762604 
L 129.404205 253.438504 
" clip-path="url(#p4c5b4bd707)" style="fill: none; stroke: #1f77b4"/>
    <path d="M 143.607841 286.334626 
L 143.607841 270.279224 
" clip-path="url(#p4c5b4bd707)" style="fill: none; stroke: #1f77b4"/>
    <path d="M 172.015114 293.969668 
L 172.015114 284.37133 
" clip-path="url(#p4c5b4bd707)" style="fill: none; stroke: #1f77b4"/>
    <path d="M 257.236932 303.437119 
L 257.236932 296.80554 
" clip-path="url(#p4c5b4bd707)" style="fill: none; stroke: #1f77b4"/>
    <path d="M 342.45875 307.101939 
L 342.45875 300.906648 
" clip-path="url(#p4c5b4bd707)" style="fill: none; stroke: #1f77b4"/>
   </g>
   <g id="LineCollection_5">
    <path d="M 90.344205 306.665651 
L 90.344205 208.064543 
" clip-path="url(#p4c5b4bd707)" style="fill: none; stroke: #2ca02c"/>
    <path d="M 93.895114 249.075623 
L 93.895114 118.189197 
" clip-path="url(#p4c5b4bd707)" style="fill: none; stroke: #2ca02c"/>
    <path d="M 97.446023 217.662881 
L 97.446023 88.521607 
" clip-path="url(#p4c5b4bd707)" style="fill: none; stroke: #2ca02c"/>
    <path d="M 100.996932 207.191967 
L 100.996932 86.776454 
" clip-path="url(#p4c5b4bd707)" style="fill: none; stroke: #2ca02c"/>
    <path d="M 108.09875 171.852632 
L 108.09875 93.320776 
" clip-path="url(#p4c5b4bd707)" style="fill: none; stroke: #2ca02c"/>
    <path d="M 115.200568 196.721053 
L 115.200568 110.336011 
" clip-path="url(#p4c5b4bd707)" style="fill: none; stroke: #2ca02c"/>
    <path d="M 129.404205 243.840166 
L 129.404205 191.485596 
" clip-path="url(#p4c5b4bd707)" style="fill: none; stroke: #2ca02c"/>
    <path d="M 143.607841 260.855402 
L 143.607841 230.315235 
" clip-path="url(#p4c5b4bd707)" style="fill: none; stroke: #2ca02c"/>
    <path d="M 172.015114 277.827008 
L 172.015114 263.691274 
" clip-path="url(#p4c5b4bd707)" style="fill: none; stroke: #2ca02c"/>
    <path d="M 257.236932 298.027147 
L 257.236932 288.952355 
" clip-path="url(#p4c5b4bd707)" style="fill: none; stroke: #2ca02c"/>
    <path d="M 342.45875 304.440582 
L 342.45875 299.72867 
" clip-path="url(#p4c5b4bd707)" style="fill: none; stroke: #2ca02c"/>
   </g>
   <g id="LineCollection_6">
    <path d="M 90.344205 258.237673 
L 90.344205 247.766759 
" clip-path="url(#p4c5b4bd707)" style="fill: none; stroke: #2ca02c"/>
    <path d="M 93.895114 224.64349 
L 93.895114 92.884488 
" clip-path="url(#p4c5b4bd707)" style="fill: none; stroke: #2ca02c"/>
    <path d="M 97.446023 164.872022 
L 97.446023 56.672576 
" clip-path="url(#p4c5b4bd707)" style="fill: none; stroke: #2ca02c"/>
    <path d="M 100.996932 157.891413 
L 100.996932 55.8 
" clip-path="url(#p4c5b4bd707)" style="fill: none; stroke: #2ca02c"/>
    <path d="M 108.09875 181.887258 
L 108.09875 83.28615 
" clip-path="url(#p4c5b4bd707)" style="fill: none; stroke: #2ca02c"/>
    <path d="M 115.200568 198.466205 
L 115.200568 116.444044 
" clip-path="url(#p4c5b4bd707)" style="fill: none; stroke: #2ca02c"/>
    <path d="M 129.404205 246.457895 
L 129.404205 196.721053 
" clip-path="url(#p4c5b4bd707)" style="fill: none; stroke: #2ca02c"/>
    <path d="M 143.607841 260.855402 
L 143.607841 232.932964 
" clip-path="url(#p4c5b4bd707)" style="fill: none; stroke: #2ca02c"/>
    <path d="M 172.015114 287.64349 
L 172.015114 267.661496 
" clip-path="url(#p4c5b4bd707)" style="fill: none; stroke: #2ca02c"/>
    <path d="M 257.236932 299.685042 
L 257.236932 290.610249 
" clip-path="url(#p4c5b4bd707)" style="fill: none; stroke: #2ca02c"/>
    <path d="M 342.45875 306.229363 
L 342.45875 298.376177 
" clip-path="url(#p4c5b4bd707)" style="fill: none; stroke: #2ca02c"/>
   </g>
   <g id="line2d_16">
    <path d="M 86.793295 307.538227 
L 87.503477 305.527546 
L 88.213659 301.027007 
L 91.054386 279.174126 
L 92.47475 270.55446 
L 93.895114 264.077395 
L 94.605295 261.56715 
L 95.315477 259.484619 
L 96.025659 257.784488 
L 96.735841 256.422899 
L 97.446023 255.358715 
L 98.156205 254.554146 
L 98.866386 253.97499 
L 99.576568 253.590626 
L 100.28675 253.373862 
L 100.996932 253.300709 
L 102.417295 253.503677 
L 103.837659 254.061299 
L 105.258023 254.869285 
L 107.388568 256.386054 
L 110.939477 259.322633 
L 119.461659 266.565304 
L 123.72275 269.88147 
L 127.983841 272.93146 
L 132.244932 275.721854 
L 136.506023 278.269732 
L 141.477295 280.961952 
L 146.448568 283.381394 
L 151.419841 285.556318 
L 157.101295 287.775176 
L 162.78275 289.741885 
L 168.464205 291.486352 
L 174.855841 293.215868 
L 181.957659 294.886267 
L 189.059477 296.329297 
L 196.871477 297.693112 
L 205.393659 298.955751 
L 214.626023 300.103315 
L 225.27875 301.195352 
L 237.351841 302.193629 
L 250.845295 303.076236 
L 266.469295 303.867293 
L 284.934023 304.57098 
L 307.659841 305.200555 
L 336.067114 305.750531 
L 372.996568 306.229969 
L 423.419477 306.647894 
L 441.884205 306.759292 
L 441.884205 306.759292 
" clip-path="url(#p4c5b4bd707)" style="fill: none; stroke: #000000; stroke-width: 2; stroke-linecap: square"/>
   </g>
   <g id="line2d_17">
    <path d="M 90.344205 297.590859 
L 93.895114 276.3 
L 97.446023 264.825623 
L 100.996932 260.855402 
L 108.09875 257.365097 
L 115.200568 267.13795 
L 129.404205 283.891413 
L 143.607841 290.392105 
L 172.015114 297.372715 
L 257.236932 303.611634 
L 342.45875 305.531302 
" clip-path="url(#p4c5b4bd707)" style="fill: none; stroke-dasharray: 3.7,1.6; stroke-dashoffset: 0; stroke: #000000"/>
    <defs>
     <path id="m5ff8dde32f" d="M 0 3 
C 0.795609 3 1.55874 2.683901 2.12132 2.12132 
C 2.683901 1.55874 3 0.795609 3 0 
C 3 -0.795609 2.683901 -1.55874 2.12132 -2.12132 
C 1.55874 -2.683901 0.795609 -3 0 -3 
C -0.795609 -3 -1.55874 -2.683901 -2.12132 -2.12132 
C -2.683901 -1.55874 -3 -0.795609 -3 0 
C -3 0.795609 -2.683901 1.55874 -2.12132 2.12132 
C -1.55874 2.683901 -0.795609 3 0 3 
z
" style="stroke: #000000"/>
    </defs>
    <g clip-path="url(#p4c5b4bd707)">
     <use xlink:href="#m5ff8dde32f" x="90.344205" y="297.590859" style="stroke: #000000"/>
     <use xlink:href="#m5ff8dde32f" x="93.895114" y="276.3" style="stroke: #000000"/>
     <use xlink:href="#m5ff8dde32f" x="97.446023" y="264.825623" style="stroke: #000000"/>
     <use xlink:href="#m5ff8dde32f" x="100.996932" y="260.855402" style="stroke: #000000"/>
     <use xlink:href="#m5ff8dde32f" x="108.09875" y="257.365097" style="stroke: #000000"/>
     <use xlink:href="#m5ff8dde32f" x="115.200568" y="267.13795" style="stroke: #000000"/>
     <use xlink:href="#m5ff8dde32f" x="129.404205" y="283.891413" style="stroke: #000000"/>
     <use xlink:href="#m5ff8dde32f" x="143.607841" y="290.392105" style="stroke: #000000"/>
     <use xlink:href="#m5ff8dde32f" x="172.015114" y="297.372715" style="stroke: #000000"/>
     <use xlink:href="#m5ff8dde32f" x="257.236932" y="303.611634" style="stroke: #000000"/>
     <use xlink:href="#m5ff8dde32f" x="342.45875" y="305.531302" style="stroke: #000000"/>
    </g>
   </g>
   <g id="line2d_18">
    <path d="M 90.344205 289.345014 
L 93.895114 262.600554 
L 97.446023 254.31108 
L 100.996932 253.874792 
L 108.09875 256.056233 
L 115.200568 265.436427 
L 129.404205 285.113019 
L 143.607841 291.177424 
L 172.015114 298.681579 
L 257.236932 302.913573 
L 342.45875 304.309695 
" clip-path="url(#p4c5b4bd707)" style="fill: none; stroke-dasharray: 3.7,1.6; stroke-dashoffset: 0; stroke: #000000"/>
    <defs>
     <path id="m085f66a80f" d="M -3 3 
L 3 3 
L 3 -3 
L -3 -3 
z
" style="stroke: #000000; stroke-linejoin: miter"/>
    </defs>
    <g clip-path="url(#p4c5b4bd707)">
     <use xlink:href="#m085f66a80f" x="90.344205" y="289.345014" style="stroke: #000000; stroke-linejoin: miter"/>
     <use xlink:href="#m085f66a80f" x="93.895114" y="262.600554" style="stroke: #000000; stroke-linejoin: miter"/>
     <use xlink:href="#m085f66a80f" x="97.446023" y="254.31108" style="stroke: #000000; stroke-linejoin: miter"/>
     <use xlink:href="#m085f66a80f" x="100.996932" y="253.874792" style="stroke: #000000; stroke-linejoin: miter"/>
     <use xlink:href="#m085f66a80f" x="108.09875" y="256.056233" style="stroke: #000000; stroke-linejoin: miter"/>
     <use xlink:href="#m085f66a80f" x="115.200568" y="265.436427" style="stroke: #000000; stroke-linejoin: miter"/>
     <use xlink:href="#m085f66a80f" x="129.404205" y="285.113019" style="stroke: #000000; stroke-linejoin: miter"/>
     <use xlink:href="#m085f66a80f" x="143.607841" y="291.177424" style="stroke: #000000; stroke-linejoin: miter"/>
     <use xlink:href="#m085f66a80f" x="172.015114" y="298.681579" style="stroke: #000000; stroke-linejoin: miter"/>
     <use xlink:href="#m085f66a80f" x="257.236932" y="302.913573" style="stroke: #000000; stroke-linejoin: miter"/>
     <use xlink:href="#m085f66a80f" x="342.45875" y="304.309695" style="stroke: #000000; stroke-linejoin: miter"/>
    </g>
   </g>
   <g id="line2d_19">
    <path d="M 86.793295 307.538227 
L 87.503477 303.516866 
L 88.213659 294.515787 
L 91.054386 250.810026 
L 92.47475 233.570693 
L 93.895114 220.616563 
L 94.605295 215.596072 
L 95.315477 211.43101 
L 96.025659 208.030748 
L 96.735841 205.307571 
L 97.446023 203.179202 
L 98.156205 201.570065 
L 98.866386 200.411754 
L 99.576568 199.643025 
L 100.28675 199.209496 
L 100.996932 199.063191 
L 101.707114 199.162002 
L 102.417295 199.469128 
L 103.127477 199.952524 
L 104.547841 201.340579 
L 105.968205 203.145733 
L 108.09875 206.352053 
L 111.649659 212.333399 
L 118.751477 224.437129 
L 122.302386 230.072549 
L 125.853295 235.341222 
L 129.404205 240.241171 
L 132.955114 244.787414 
L 136.506023 249.001236 
L 140.056932 252.905537 
L 143.607841 256.522869 
L 147.868932 260.514941 
L 152.130023 264.15894 
L 156.391114 267.486299 
L 160.652205 270.525646 
L 164.913295 273.303008 
L 169.174386 275.842034 
L 174.145659 278.531555 
L 179.116932 280.956603 
L 184.088205 283.144677 
L 189.769659 285.386583 
L 195.451114 287.383578 
L 201.84275 289.373007 
L 208.234386 291.124316 
L 215.336205 292.828376 
L 223.148205 294.450593 
L 230.960205 295.848237 
L 239.482386 297.157229 
L 249.424932 298.447914 
L 260.077659 299.600051 
L 272.15075 300.675275 
L 285.644205 301.649992 
L 301.268205 302.55045 
L 319.732932 303.381628 
L 341.748568 304.13846 
L 368.735477 304.830158 
L 402.114023 305.451993 
L 441.884205 305.980356 
L 441.884205 305.980356 
" clip-path="url(#p4c5b4bd707)" style="fill: none; stroke: #1f77b4; stroke-width: 2; stroke-linecap: square"/>
   </g>
   <g id="line2d_20">
    <path d="M 90.344205 285.941967 
L 93.895114 227.261219 
L 97.446023 206.319391 
L 100.996932 198.029917 
L 108.09875 215.045152 
L 115.200568 229.878947 
L 129.404205 258.237673 
L 143.607841 272.329778 
L 172.015114 288.210665 
L 257.236932 298.943352 
L 342.45875 303.742521 
" clip-path="url(#p4c5b4bd707)" style="fill: none; stroke-dasharray: 3.7,1.6; stroke-dashoffset: 0; stroke: #1f77b4"/>
    <defs>
     <path id="m26a2313f3b" d="M 0 3 
C 0.795609 3 1.55874 2.683901 2.12132 2.12132 
C 2.683901 1.55874 3 0.795609 3 0 
C 3 -0.795609 2.683901 -1.55874 2.12132 -2.12132 
C 1.55874 -2.683901 0.795609 -3 0 -3 
C -0.795609 -3 -1.55874 -2.683901 -2.12132 -2.12132 
C -2.683901 -1.55874 -3 -0.795609 -3 0 
C -3 0.795609 -2.683901 1.55874 -2.12132 2.12132 
C -1.55874 2.683901 -0.795609 3 0 3 
z
" style="stroke: #000000"/>
    </defs>
    <g clip-path="url(#p4c5b4bd707)">
     <use xlink:href="#m26a2313f3b" x="90.344205" y="285.941967" style="fill: #1f77b4; stroke: #000000"/>
     <use xlink:href="#m26a2313f3b" x="93.895114" y="227.261219" style="fill: #1f77b4; stroke: #000000"/>
     <use xlink:href="#m26a2313f3b" x="97.446023" y="206.319391" style="fill: #1f77b4; stroke: #000000"/>
     <use xlink:href="#m26a2313f3b" x="100.996932" y="198.029917" style="fill: #1f77b4; stroke: #000000"/>
     <use xlink:href="#m26a2313f3b" x="108.09875" y="215.045152" style="fill: #1f77b4; stroke: #000000"/>
     <use xlink:href="#m26a2313f3b" x="115.200568" y="229.878947" style="fill: #1f77b4; stroke: #000000"/>
     <use xlink:href="#m26a2313f3b" x="129.404205" y="258.237673" style="fill: #1f77b4; stroke: #000000"/>
     <use xlink:href="#m26a2313f3b" x="143.607841" y="272.329778" style="fill: #1f77b4; stroke: #000000"/>
     <use xlink:href="#m26a2313f3b" x="172.015114" y="288.210665" style="fill: #1f77b4; stroke: #000000"/>
     <use xlink:href="#m26a2313f3b" x="257.236932" y="298.943352" style="fill: #1f77b4; stroke: #000000"/>
     <use xlink:href="#m26a2313f3b" x="342.45875" y="303.742521" style="fill: #1f77b4; stroke: #000000"/>
    </g>
   </g>
   <g id="line2d_21">
    <path d="M 90.344205 261.727978 
L 93.895114 214.608864 
L 97.446023 195.412188 
L 100.996932 208.500831 
L 108.09875 216.790305 
L 115.200568 232.060388 
L 129.404205 262.600554 
L 143.607841 278.306925 
L 172.015114 289.170499 
L 257.236932 300.12133 
L 342.45875 304.004294 
" clip-path="url(#p4c5b4bd707)" style="fill: none; stroke-dasharray: 3.7,1.6; stroke-dashoffset: 0; stroke: #1f77b4"/>
    <defs>
     <path id="m0a9464f413" d="M -3 3 
L 3 3 
L 3 -3 
L -3 -3 
z
" style="stroke: #000000; stroke-linejoin: miter"/>
    </defs>
    <g clip-path="url(#p4c5b4bd707)">
     <use xlink:href="#m0a9464f413" x="90.344205" y="261.727978" style="fill: #1f77b4; stroke: #000000; stroke-linejoin: miter"/>
     <use xlink:href="#m0a9464f413" x="93.895114" y="214.608864" style="fill: #1f77b4; stroke: #000000; stroke-linejoin: miter"/>
     <use xlink:href="#m0a9464f413" x="97.446023" y="195.412188" style="fill: #1f77b4; stroke: #000000; stroke-linejoin: miter"/>
     <use xlink:href="#m0a9464f413" x="100.996932" y="208.500831" style="fill: #1f77b4; stroke: #000000; stroke-linejoin: miter"/>
     <use xlink:href="#m0a9464f413" x="108.09875" y="216.790305" style="fill: #1f77b4; stroke: #000000; stroke-linejoin: miter"/>
     <use xlink:href="#m0a9464f413" x="115.200568" y="232.060388" style="fill: #1f77b4; stroke: #000000; stroke-linejoin: miter"/>
     <use xlink:href="#m0a9464f413" x="129.404205" y="262.600554" style="fill: #1f77b4; stroke: #000000; stroke-linejoin: miter"/>
     <use xlink:href="#m0a9464f413" x="143.607841" y="278.306925" style="fill: #1f77b4; stroke: #000000; stroke-linejoin: miter"/>
     <use xlink:href="#m0a9464f413" x="172.015114" y="289.170499" style="fill: #1f77b4; stroke: #000000; stroke-linejoin: miter"/>
     <use xlink:href="#m0a9464f413" x="257.236932" y="300.12133" style="fill: #1f77b4; stroke: #000000; stroke-linejoin: miter"/>
     <use xlink:href="#m0a9464f413" x="342.45875" y="304.004294" style="fill: #1f77b4; stroke: #000000; stroke-linejoin: miter"/>
    </g>
   </g>
   <g id="line2d_22">
    <path d="M 86.793295 307.538227 
L 87.503477 299.495504 
L 88.213659 281.493346 
L 91.054386 194.081824 
L 92.47475 159.603158 
L 93.895114 133.694899 
L 94.605295 123.653917 
L 95.315477 115.323794 
L 96.025659 108.523269 
L 96.735841 103.076914 
L 97.446023 98.820177 
L 98.156205 95.601902 
L 98.866386 93.28528 
L 99.576568 91.747822 
L 100.28675 90.880765 
L 100.996932 90.588155 
L 101.707114 90.785776 
L 102.417295 91.400029 
L 103.127477 92.366821 
L 103.837659 93.630514 
L 105.258023 96.86246 
L 106.678386 100.784424 
L 108.808932 107.474058 
L 112.359841 119.591633 
L 118.041295 138.99908 
L 121.592205 150.410252 
L 125.143114 161.096305 
L 128.694023 171.041957 
L 132.244932 180.272736 
L 135.795841 188.82971 
L 139.34675 196.758458 
L 142.897659 204.104398 
L 146.448568 210.910896 
L 149.999477 217.218606 
L 153.550386 223.065317 
L 157.101295 228.486021 
L 160.652205 233.513065 
L 164.203114 238.176325 
L 167.754023 242.503382 
L 171.304932 246.519702 
L 174.855841 250.248789 
L 179.116932 254.374978 
L 183.378023 258.153057 
L 187.639114 261.614229 
L 191.900205 264.786847 
L 196.161295 267.69667 
L 200.422386 270.367105 
L 205.393659 273.208321 
L 210.364932 275.783044 
L 215.336205 278.118525 
L 221.017659 280.525857 
L 226.699114 282.684794 
L 233.09075 284.852004 
L 239.482386 286.776232 
L 246.584205 288.666543 
L 253.686023 290.331077 
L 261.498023 291.938209 
L 270.020205 293.463669 
L 279.252568 294.890674 
L 289.195114 296.209347 
L 300.558023 297.48961 
L 313.341295 298.69733 
L 327.544932 299.811592 
L 343.879114 300.864283 
L 363.054023 301.864608 
L 385.069659 302.782212 
L 411.346386 303.644955 
L 441.884205 304.422486 
L 441.884205 304.422486 
" clip-path="url(#p4c5b4bd707)" style="fill: none; stroke: #2ca02c; stroke-width: 2; stroke-linecap: square"/>
   </g>
   <g id="line2d_23">
    <path d="M 90.344205 257.365097 
L 93.895114 183.63241 
L 97.446023 153.092244 
L 100.996932 146.984211 
L 108.09875 132.586704 
L 115.200568 153.528532 
L 129.404205 217.662881 
L 143.607841 245.585319 
L 172.015114 270.759141 
L 257.236932 293.489751 
L 342.45875 302.084626 
" clip-path="url(#p4c5b4bd707)" style="fill: none; stroke-dasharray: 3.7,1.6; stroke-dashoffset: 0; stroke: #2ca02c"/>
    <defs>
     <path id="m3d1ca3b33a" d="M 0 3 
C 0.795609 3 1.55874 2.683901 2.12132 2.12132 
C 2.683901 1.55874 3 0.795609 3 0 
C 3 -0.795609 2.683901 -1.55874 2.12132 -2.12132 
C 1.55874 -2.683901 0.795609 -3 0 -3 
C -0.795609 -3 -1.55874 -2.683901 -2.12132 -2.12132 
C -2.683901 -1.55874 -3 -0.795609 -3 0 
C -3 0.795609 -2.683901 1.55874 -2.12132 2.12132 
C -1.55874 2.683901 -0.795609 3 0 3 
z
" style="stroke: #000000"/>
    </defs>
    <g clip-path="url(#p4c5b4bd707)">
     <use xlink:href="#m3d1ca3b33a" x="90.344205" y="257.365097" style="fill: #2ca02c; stroke: #000000"/>
     <use xlink:href="#m3d1ca3b33a" x="93.895114" y="183.63241" style="fill: #2ca02c; stroke: #000000"/>
     <use xlink:href="#m3d1ca3b33a" x="97.446023" y="153.092244" style="fill: #2ca02c; stroke: #000000"/>
     <use xlink:href="#m3d1ca3b33a" x="100.996932" y="146.984211" style="fill: #2ca02c; stroke: #000000"/>
     <use xlink:href="#m3d1ca3b33a" x="108.09875" y="132.586704" style="fill: #2ca02c; stroke: #000000"/>
     <use xlink:href="#m3d1ca3b33a" x="115.200568" y="153.528532" style="fill: #2ca02c; stroke: #000000"/>
     <use xlink:href="#m3d1ca3b33a" x="129.404205" y="217.662881" style="fill: #2ca02c; stroke: #000000"/>
     <use xlink:href="#m3d1ca3b33a" x="143.607841" y="245.585319" style="fill: #2ca02c; stroke: #000000"/>
     <use xlink:href="#m3d1ca3b33a" x="172.015114" y="270.759141" style="fill: #2ca02c; stroke: #000000"/>
     <use xlink:href="#m3d1ca3b33a" x="257.236932" y="293.489751" style="fill: #2ca02c; stroke: #000000"/>
     <use xlink:href="#m3d1ca3b33a" x="342.45875" y="302.084626" style="fill: #2ca02c; stroke: #000000"/>
    </g>
   </g>
   <g id="line2d_24">
    <path d="M 90.344205 253.002216 
L 93.895114 158.763989 
L 97.446023 110.772299 
L 100.996932 106.845706 
L 108.09875 132.586704 
L 115.200568 157.455125 
L 129.404205 221.589474 
L 143.607841 246.894183 
L 172.015114 277.652493 
L 257.236932 295.147645 
L 342.45875 302.30277 
" clip-path="url(#p4c5b4bd707)" style="fill: none; stroke-dasharray: 3.7,1.6; stroke-dashoffset: 0; stroke: #2ca02c"/>
    <defs>
     <path id="m05f032d69d" d="M -3 3 
L 3 3 
L 3 -3 
L -3 -3 
z
" style="stroke: #000000; stroke-linejoin: miter"/>
    </defs>
    <g clip-path="url(#p4c5b4bd707)">
     <use xlink:href="#m05f032d69d" x="90.344205" y="253.002216" style="fill: #2ca02c; stroke: #000000; stroke-linejoin: miter"/>
     <use xlink:href="#m05f032d69d" x="93.895114" y="158.763989" style="fill: #2ca02c; stroke: #000000; stroke-linejoin: miter"/>
     <use xlink:href="#m05f032d69d" x="97.446023" y="110.772299" style="fill: #2ca02c; stroke: #000000; stroke-linejoin: miter"/>
     <use xlink:href="#m05f032d69d" x="100.996932" y="106.845706" style="fill: #2ca02c; stroke: #000000; stroke-linejoin: miter"/>
     <use xlink:href="#m05f032d69d" x="108.09875" y="132.586704" style="fill: #2ca02c; stroke: #000000; stroke-linejoin: miter"/>
     <use xlink:href="#m05f032d69d" x="115.200568" y="157.455125" style="fill: #2ca02c; stroke: #000000; stroke-linejoin: miter"/>
     <use xlink:href="#m05f032d69d" x="129.404205" y="221.589474" style="fill: #2ca02c; stroke: #000000; stroke-linejoin: miter"/>
     <use xlink:href="#m05f032d69d" x="143.607841" y="246.894183" style="fill: #2ca02c; stroke: #000000; stroke-linejoin: miter"/>
     <use xlink:href="#m05f032d69d" x="172.015114" y="277.652493" style="fill: #2ca02c; stroke: #000000; stroke-linejoin: miter"/>
     <use xlink:href="#m05f032d69d" x="257.236932" y="295.147645" style="fill: #2ca02c; stroke: #000000; stroke-linejoin: miter"/>
     <use xlink:href="#m05f032d69d" x="342.45875" y="302.30277" style="fill: #2ca02c; stroke: #000000; stroke-linejoin: miter"/>
    </g>
   </g>
   <g id="patch_3">
    <path d="M 69.03875 320.4 
L 69.03875 43.2 
" style="fill: none; stroke: #000000; stroke-width: 0.8; stroke-linejoin: miter; stroke-linecap: square"/>
   </g>
   <g id="patch_4">
    <path d="M 459.63875 320.4 
L 459.63875 43.2 
" style="fill: none; stroke: #000000; stroke-width: 0.8; stroke-linejoin: miter; stroke-linecap: square"/>
   </g>
   <g id="patch_5">
    <path d="M 69.03875 320.4 
L 459.63875 320.4 
" style="fill: none; stroke: #000000; stroke-width: 0.8; stroke-linejoin: miter; stroke-linecap: square"/>
   </g>
   <g id="patch_6">
    <path d="M 69.03875 43.2 
L 459.63875 43.2 
" style="fill: none; stroke: #000000; stroke-width: 0.8; stroke-linejoin: miter; stroke-linecap: square"/>
   </g>
   <g id="legend_1">
    <g id="patch_7">
     <path d="M 301.498125 183.303125 
L 452.63875 183.303125 
Q 454.63875 183.303125 454.63875 181.303125 
L 454.63875 50.2 
Q 454.63875 48.2 452.63875 48.2 
L 301.498125 48.2 
Q 299.498125 48.2 299.498125 50.2 
L 299.498125 181.303125 
Q 299.498125 183.303125 301.498125 183.303125 
z
" style="fill: #ffffff; opacity: 0.8; stroke: #cccccc; stroke-linejoin: miter"/>
    </g>
    <g id="line2d_25">
     <path d="M 303.498125 56.298437 
L 323.498125 56.298437 
" style="fill: none; stroke: #000000; stroke-width: 2; stroke-linecap: square"/>
    </g>
    <g id="line2d_26"/>
    <g id="text_18">
     <!-- Sim 25 -->
     <g transform="translate(331.498125 59.798437) scale(0.1 -0.1)">
      <defs>
       <path id="DejaVuSans-53" d="M 3425 4513 
L 3425 3897 
Q 3066 4069 2747 4153 
Q 2428 4238 2131 4238 
Q 1616 4238 1336 4038 
Q 1056 3838 1056 3469 
Q 1056 3159 1242 3001 
Q 1428 2844 1947 2747 
L 2328 2669 
Q 3034 2534 3370 2195 
Q 3706 1856 3706 1288 
Q 3706 609 3251 259 
Q 2797 -91 1919 -91 
Q 1588 -91 1214 -16 
Q 841 59 441 206 
L 441 856 
Q 825 641 1194 531 
Q 1563 422 1919 422 
Q 2459 422 2753 634 
Q 3047 847 3047 1241 
Q 3047 1584 2836 1778 
Q 2625 1972 2144 2069 
L 1759 2144 
Q 1053 2284 737 2584 
Q 422 2884 422 3419 
Q 422 4038 858 4394 
Q 1294 4750 2059 4750 
Q 2388 4750 2728 4690 
Q 3069 4631 3425 4513 
z
" transform="scale(0.015625)"/>
       <path id="DejaVuSans-69" d="M 603 3500 
L 1178 3500 
L 1178 0 
L 603 0 
L 603 3500 
z
M 603 4863 
L 1178 4863 
L 1178 4134 
L 603 4134 
L 603 4863 
z
" transform="scale(0.015625)"/>
       <path id="DejaVuSans-6d" d="M 3328 2828 
Q 3544 3216 3844 3400 
Q 4144 3584 4550 3584 
Q 5097 3584 5394 3201 
Q 5691 2819 5691 2113 
L 5691 0 
L 5113 0 
L 5113 2094 
Q 5113 2597 4934 2840 
Q 4756 3084 4391 3084 
Q 3944 3084 3684 2787 
Q 3425 2491 3425 1978 
L 3425 0 
L 2847 0 
L 2847 2094 
Q 2847 2600 2669 2842 
Q 2491 3084 2119 3084 
Q 1678 3084 1418 2786 
Q 1159 2488 1159 1978 
L 1159 0 
L 581 0 
L 581 3500 
L 1159 3500 
L 1159 2956 
Q 1356 3278 1631 3431 
Q 1906 3584 2284 3584 
Q 2666 3584 2933 3390 
Q 3200 3197 3328 2828 
z
" transform="scale(0.015625)"/>
       <path id="DejaVuSans-20" transform="scale(0.015625)"/>
      </defs>
      <use xlink:href="#DejaVuSans-53"/>
      <use xlink:href="#DejaVuSans-69" transform="translate(63.476562 0)"/>
      <use xlink:href="#DejaVuSans-6d" transform="translate(91.259766 0)"/>
      <use xlink:href="#DejaVuSans-20" transform="translate(188.671875 0)"/>
      <use xlink:href="#DejaVuSans-32" transform="translate(220.458984 0)"/>
      <use xlink:href="#DejaVuSans-35" transform="translate(284.082031 0)"/>
     </g>
    </g>
    <g id="LineCollection_7">
     <path d="M 313.498125 75.976562 
L 313.498125 65.976562 
" style="fill: none; stroke: #000000"/>
    </g>
    <g id="line2d_27">
     <path d="M 303.498125 70.976562 
L 323.498125 70.976562 
" style="fill: none; stroke-dasharray: 3.7,1.6; stroke-dashoffset: 0; stroke: #000000"/>
    </g>
    <g id="line2d_28">
     <g>
      <use xlink:href="#m5ff8dde32f" x="313.498125" y="70.976562" style="stroke: #000000"/>
     </g>
    </g>
    <g id="text_19">
     <!-- 25 mg tab±SD (n=12) -->
     <g transform="translate(331.498125 74.476562) scale(0.1 -0.1)">
      <defs>
       <path id="DejaVuSans-67" d="M 2906 1791 
Q 2906 2416 2648 2759 
Q 2391 3103 1925 3103 
Q 1463 3103 1205 2759 
Q 947 2416 947 1791 
Q 947 1169 1205 825 
Q 1463 481 1925 481 
Q 2391 481 2648 825 
Q 2906 1169 2906 1791 
z
M 3481 434 
Q 3481 -459 3084 -895 
Q 2688 -1331 1869 -1331 
Q 1566 -1331 1297 -1286 
Q 1028 -1241 775 -1147 
L 775 -588 
Q 1028 -725 1275 -790 
Q 1522 -856 1778 -856 
Q 2344 -856 2625 -561 
Q 2906 -266 2906 331 
L 2906 616 
Q 2728 306 2450 153 
Q 2172 0 1784 0 
Q 1141 0 747 490 
Q 353 981 353 1791 
Q 353 2603 747 3093 
Q 1141 3584 1784 3584 
Q 2172 3584 2450 3431 
Q 2728 3278 2906 2969 
L 2906 3500 
L 3481 3500 
L 3481 434 
z
" transform="scale(0.015625)"/>
       <path id="DejaVuSans-74" d="M 1172 4494 
L 1172 3500 
L 2356 3500 
L 2356 3053 
L 1172 3053 
L 1172 1153 
Q 1172 725 1289 603 
Q 1406 481 1766 481 
L 2356 481 
L 2356 0 
L 1766 0 
Q 1100 0 847 248 
Q 594 497 594 1153 
L 594 3053 
L 172 3053 
L 172 3500 
L 594 3500 
L 594 4494 
L 1172 4494 
z
" transform="scale(0.015625)"/>
       <path id="DejaVuSans-61" d="M 2194 1759 
Q 1497 1759 1228 1600 
Q 959 1441 959 1056 
Q 959 750 1161 570 
Q 1363 391 1709 391 
Q 2188 391 2477 730 
Q 2766 1069 2766 1631 
L 2766 1759 
L 2194 1759 
z
M 3341 1997 
L 3341 0 
L 2766 0 
L 2766 531 
Q 2569 213 2275 61 
Q 1981 -91 1556 -91 
Q 1019 -91 701 211 
Q 384 513 384 1019 
Q 384 1609 779 1909 
Q 1175 2209 1959 2209 
L 2766 2209 
L 2766 2266 
Q 2766 2663 2505 2880 
Q 2244 3097 1772 3097 
Q 1472 3097 1187 3025 
Q 903 2953 641 2809 
L 641 3341 
Q 956 3463 1253 3523 
Q 1550 3584 1831 3584 
Q 2591 3584 2966 3190 
Q 3341 2797 3341 1997 
z
" transform="scale(0.015625)"/>
       <path id="DejaVuSans-62" d="M 3116 1747 
Q 3116 2381 2855 2742 
Q 2594 3103 2138 3103 
Q 1681 3103 1420 2742 
Q 1159 2381 1159 1747 
Q 1159 1113 1420 752 
Q 1681 391 2138 391 
Q 2594 391 2855 752 
Q 3116 1113 3116 1747 
z
M 1159 2969 
Q 1341 3281 1617 3432 
Q 1894 3584 2278 3584 
Q 2916 3584 3314 3078 
Q 3713 2572 3713 1747 
Q 3713 922 3314 415 
Q 2916 -91 2278 -91 
Q 1894 -91 1617 61 
Q 1341 213 1159 525 
L 1159 0 
L 581 0 
L 581 4863 
L 1159 4863 
L 1159 2969 
z
" transform="scale(0.015625)"/>
       <path id="DejaVuSans-b1" d="M 2944 4013 
L 2944 2803 
L 4684 2803 
L 4684 2272 
L 2944 2272 
L 2944 1063 
L 2419 1063 
L 2419 2272 
L 678 2272 
L 678 2803 
L 2419 2803 
L 2419 4013 
L 2944 4013 
z
M 678 531 
L 4684 531 
L 4684 0 
L 678 0 
L 678 531 
z
" transform="scale(0.015625)"/>
       <path id="DejaVuSans-44" d="M 1259 4147 
L 1259 519 
L 2022 519 
Q 2988 519 3436 956 
Q 3884 1394 3884 2338 
Q 3884 3275 3436 3711 
Q 2988 4147 2022 4147 
L 1259 4147 
z
M 628 4666 
L 1925 4666 
Q 3281 4666 3915 4102 
Q 4550 3538 4550 2338 
Q 4550 1131 3912 565 
Q 3275 0 1925 0 
L 628 0 
L 628 4666 
z
" transform="scale(0.015625)"/>
       <path id="DejaVuSans-28" d="M 1984 4856 
Q 1566 4138 1362 3434 
Q 1159 2731 1159 2009 
Q 1159 1288 1364 580 
Q 1569 -128 1984 -844 
L 1484 -844 
Q 1016 -109 783 600 
Q 550 1309 550 2009 
Q 550 2706 781 3412 
Q 1013 4119 1484 4856 
L 1984 4856 
z
" transform="scale(0.015625)"/>
       <path id="DejaVuSans-6e" d="M 3513 2113 
L 3513 0 
L 2938 0 
L 2938 2094 
Q 2938 2591 2744 2837 
Q 2550 3084 2163 3084 
Q 1697 3084 1428 2787 
Q 1159 2491 1159 1978 
L 1159 0 
L 581 0 
L 581 3500 
L 1159 3500 
L 1159 2956 
Q 1366 3272 1645 3428 
Q 1925 3584 2291 3584 
Q 2894 3584 3203 3211 
Q 3513 2838 3513 2113 
z
" transform="scale(0.015625)"/>
       <path id="DejaVuSans-3d" d="M 678 2906 
L 4684 2906 
L 4684 2381 
L 678 2381 
L 678 2906 
z
M 678 1631 
L 4684 1631 
L 4684 1100 
L 678 1100 
L 678 1631 
z
" transform="scale(0.015625)"/>
       <path id="DejaVuSans-29" d="M 513 4856 
L 1013 4856 
Q 1481 4119 1714 3412 
Q 1947 2706 1947 2009 
Q 1947 1309 1714 600 
Q 1481 -109 1013 -844 
L 513 -844 
Q 928 -128 1133 580 
Q 1338 1288 1338 2009 
Q 1338 2731 1133 3434 
Q 928 4138 513 4856 
z
" transform="scale(0.015625)"/>
      </defs>
      <use xlink:href="#DejaVuSans-32"/>
      <use xlink:href="#DejaVuSans-35" transform="translate(63.623047 0)"/>
      <use xlink:href="#DejaVuSans-20" transform="translate(127.246094 0)"/>
      <use xlink:href="#DejaVuSans-6d" transform="translate(159.033203 0)"/>
      <use xlink:href="#DejaVuSans-67" transform="translate(256.445312 0)"/>
      <use xlink:href="#DejaVuSans-20" transform="translate(319.921875 0)"/>
      <use xlink:href="#DejaVuSans-74" transform="translate(351.708984 0)"/>
      <use xlink:href="#DejaVuSans-61" transform="translate(390.917969 0)"/>
      <use xlink:href="#DejaVuSans-62" transform="translate(452.197266 0)"/>
      <use xlink:href="#DejaVuSans-b1" transform="translate(515.673828 0)"/>
      <use xlink:href="#DejaVuSans-53" transform="translate(599.462891 0)"/>
      <use xlink:href="#DejaVuSans-44" transform="translate(662.939453 0)"/>
      <use xlink:href="#DejaVuSans-20" transform="translate(739.941406 0)"/>
      <use xlink:href="#DejaVuSans-28" transform="translate(771.728516 0)"/>
      <use xlink:href="#DejaVuSans-6e" transform="translate(810.742188 0)"/>
      <use xlink:href="#DejaVuSans-3d" transform="translate(874.121094 0)"/>
      <use xlink:href="#DejaVuSans-31" transform="translate(957.910156 0)"/>
      <use xlink:href="#DejaVuSans-32" transform="translate(1021.533203 0)"/>
      <use xlink:href="#DejaVuSans-29" transform="translate(1085.15625 0)"/>
     </g>
    </g>
    <g id="LineCollection_8">
     <path d="M 313.498125 90.654687 
L 313.498125 80.654687 
" style="fill: none; stroke: #000000"/>
    </g>
    <g id="line2d_29">
     <path d="M 303.498125 85.654687 
L 323.498125 85.654687 
" style="fill: none; stroke-dasharray: 3.7,1.6; stroke-dashoffset: 0; stroke: #000000"/>
    </g>
    <g id="line2d_30">
     <g>
      <use xlink:href="#m085f66a80f" x="313.498125" y="85.654687" style="stroke: #000000; stroke-linejoin: miter"/>
     </g>
    </g>
    <g id="text_20">
     <!-- 25 mg sus±SD (n=12) -->
     <g transform="translate(331.498125 89.154687) scale(0.1 -0.1)">
      <defs>
       <path id="DejaVuSans-73" d="M 2834 3397 
L 2834 2853 
Q 2591 2978 2328 3040 
Q 2066 3103 1784 3103 
Q 1356 3103 1142 2972 
Q 928 2841 928 2578 
Q 928 2378 1081 2264 
Q 1234 2150 1697 2047 
L 1894 2003 
Q 2506 1872 2764 1633 
Q 3022 1394 3022 966 
Q 3022 478 2636 193 
Q 2250 -91 1575 -91 
Q 1294 -91 989 -36 
Q 684 19 347 128 
L 347 722 
Q 666 556 975 473 
Q 1284 391 1588 391 
Q 1994 391 2212 530 
Q 2431 669 2431 922 
Q 2431 1156 2273 1281 
Q 2116 1406 1581 1522 
L 1381 1569 
Q 847 1681 609 1914 
Q 372 2147 372 2553 
Q 372 3047 722 3315 
Q 1072 3584 1716 3584 
Q 2034 3584 2315 3537 
Q 2597 3491 2834 3397 
z
" transform="scale(0.015625)"/>
       <path id="DejaVuSans-75" d="M 544 1381 
L 544 3500 
L 1119 3500 
L 1119 1403 
Q 1119 906 1312 657 
Q 1506 409 1894 409 
Q 2359 409 2629 706 
Q 2900 1003 2900 1516 
L 2900 3500 
L 3475 3500 
L 3475 0 
L 2900 0 
L 2900 538 
Q 2691 219 2414 64 
Q 2138 -91 1772 -91 
Q 1169 -91 856 284 
Q 544 659 544 1381 
z
M 1991 3584 
L 1991 3584 
z
" transform="scale(0.015625)"/>
      </defs>
      <use xlink:href="#DejaVuSans-32"/>
      <use xlink:href="#DejaVuSans-35" transform="translate(63.623047 0)"/>
      <use xlink:href="#DejaVuSans-20" transform="translate(127.246094 0)"/>
      <use xlink:href="#DejaVuSans-6d" transform="translate(159.033203 0)"/>
      <use xlink:href="#DejaVuSans-67" transform="translate(256.445312 0)"/>
      <use xlink:href="#DejaVuSans-20" transform="translate(319.921875 0)"/>
      <use xlink:href="#DejaVuSans-73" transform="translate(351.708984 0)"/>
      <use xlink:href="#DejaVuSans-75" transform="translate(403.808594 0)"/>
      <use xlink:href="#DejaVuSans-73" transform="translate(467.1875 0)"/>
      <use xlink:href="#DejaVuSans-b1" transform="translate(519.287109 0)"/>
      <use xlink:href="#DejaVuSans-53" transform="translate(603.076172 0)"/>
      <use xlink:href="#DejaVuSans-44" transform="translate(666.552734 0)"/>
      <use xlink:href="#DejaVuSans-20" transform="translate(743.554688 0)"/>
      <use xlink:href="#DejaVuSans-28" transform="translate(775.341797 0)"/>
      <use xlink:href="#DejaVuSans-6e" transform="translate(814.355469 0)"/>
      <use xlink:href="#DejaVuSans-3d" transform="translate(877.734375 0)"/>
      <use xlink:href="#DejaVuSans-31" transform="translate(961.523438 0)"/>
      <use xlink:href="#DejaVuSans-32" transform="translate(1025.146484 0)"/>
      <use xlink:href="#DejaVuSans-29" transform="translate(1088.769531 0)"/>
     </g>
    </g>
    <g id="line2d_31">
     <path d="M 303.498125 100.332812 
L 323.498125 100.332812 
" style="fill: none; stroke: #1f77b4; stroke-width: 2; stroke-linecap: square"/>
    </g>
    <g id="line2d_32"/>
    <g id="text_21">
     <!-- Sim 50 -->
     <g transform="translate(331.498125 103.832812) scale(0.1 -0.1)">
      <use xlink:href="#DejaVuSans-53"/>
      <use xlink:href="#DejaVuSans-69" transform="translate(63.476562 0)"/>
      <use xlink:href="#DejaVuSans-6d" transform="translate(91.259766 0)"/>
      <use xlink:href="#DejaVuSans-20" transform="translate(188.671875 0)"/>
      <use xlink:href="#DejaVuSans-35" transform="translate(220.458984 0)"/>
      <use xlink:href="#DejaVuSans-30" transform="translate(284.082031 0)"/>
     </g>
    </g>
    <g id="LineCollection_9">
     <path d="M 313.498125 120.010937 
L 313.498125 110.010937 
" style="fill: none; stroke: #1f77b4"/>
    </g>
    <g id="line2d_33">
     <path d="M 303.498125 115.010937 
L 323.498125 115.010937 
" style="fill: none; stroke-dasharray: 3.7,1.6; stroke-dashoffset: 0; stroke: #1f77b4"/>
    </g>
    <g id="line2d_34">
     <g>
      <use xlink:href="#m26a2313f3b" x="313.498125" y="115.010937" style="fill: #1f77b4; stroke: #000000"/>
     </g>
    </g>
    <g id="text_22">
     <!-- 50 mg tab±SD (n=12) -->
     <g transform="translate(331.498125 118.510937) scale(0.1 -0.1)">
      <use xlink:href="#DejaVuSans-35"/>
      <use xlink:href="#DejaVuSans-30" transform="translate(63.623047 0)"/>
      <use xlink:href="#DejaVuSans-20" transform="translate(127.246094 0)"/>
      <use xlink:href="#DejaVuSans-6d" transform="translate(159.033203 0)"/>
      <use xlink:href="#DejaVuSans-67" transform="translate(256.445312 0)"/>
      <use xlink:href="#DejaVuSans-20" transform="translate(319.921875 0)"/>
      <use xlink:href="#DejaVuSans-74" transform="translate(351.708984 0)"/>
      <use xlink:href="#DejaVuSans-61" transform="translate(390.917969 0)"/>
      <use xlink:href="#DejaVuSans-62" transform="translate(452.197266 0)"/>
      <use xlink:href="#DejaVuSans-b1" transform="translate(515.673828 0)"/>
      <use xlink:href="#DejaVuSans-53" transform="translate(599.462891 0)"/>
      <use xlink:href="#DejaVuSans-44" transform="translate(662.939453 0)"/>
      <use xlink:href="#DejaVuSans-20" transform="translate(739.941406 0)"/>
      <use xlink:href="#DejaVuSans-28" transform="translate(771.728516 0)"/>
      <use xlink:href="#DejaVuSans-6e" transform="translate(810.742188 0)"/>
      <use xlink:href="#DejaVuSans-3d" transform="translate(874.121094 0)"/>
      <use xlink:href="#DejaVuSans-31" transform="translate(957.910156 0)"/>
      <use xlink:href="#DejaVuSans-32" transform="translate(1021.533203 0)"/>
      <use xlink:href="#DejaVuSans-29" transform="translate(1085.15625 0)"/>
     </g>
    </g>
    <g id="LineCollection_10">
     <path d="M 313.498125 134.689062 
L 313.498125 124.689062 
" style="fill: none; stroke: #1f77b4"/>
    </g>
    <g id="line2d_35">
     <path d="M 303.498125 129.689062 
L 323.498125 129.689062 
" style="fill: none; stroke-dasharray: 3.7,1.6; stroke-dashoffset: 0; stroke: #1f77b4"/>
    </g>
    <g id="line2d_36">
     <g>
      <use xlink:href="#m0a9464f413" x="313.498125" y="129.689062" style="fill: #1f77b4; stroke: #000000; stroke-linejoin: miter"/>
     </g>
    </g>
    <g id="text_23">
     <!-- 50 mg sus±SD (n=12) -->
     <g transform="translate(331.498125 133.189062) scale(0.1 -0.1)">
      <use xlink:href="#DejaVuSans-35"/>
      <use xlink:href="#DejaVuSans-30" transform="translate(63.623047 0)"/>
      <use xlink:href="#DejaVuSans-20" transform="translate(127.246094 0)"/>
      <use xlink:href="#DejaVuSans-6d" transform="translate(159.033203 0)"/>
      <use xlink:href="#DejaVuSans-67" transform="translate(256.445312 0)"/>
      <use xlink:href="#DejaVuSans-20" transform="translate(319.921875 0)"/>
      <use xlink:href="#DejaVuSans-73" transform="translate(351.708984 0)"/>
      <use xlink:href="#DejaVuSans-75" transform="translate(403.808594 0)"/>
      <use xlink:href="#DejaVuSans-73" transform="translate(467.1875 0)"/>
      <use xlink:href="#DejaVuSans-b1" transform="translate(519.287109 0)"/>
      <use xlink:href="#DejaVuSans-53" transform="translate(603.076172 0)"/>
      <use xlink:href="#DejaVuSans-44" transform="translate(666.552734 0)"/>
      <use xlink:href="#DejaVuSans-20" transform="translate(743.554688 0)"/>
      <use xlink:href="#DejaVuSans-28" transform="translate(775.341797 0)"/>
      <use xlink:href="#DejaVuSans-6e" transform="translate(814.355469 0)"/>
      <use xlink:href="#DejaVuSans-3d" transform="translate(877.734375 0)"/>
      <use xlink:href="#DejaVuSans-31" transform="translate(961.523438 0)"/>
      <use xlink:href="#DejaVuSans-32" transform="translate(1025.146484 0)"/>
      <use xlink:href="#DejaVuSans-29" transform="translate(1088.769531 0)"/>
     </g>
    </g>
    <g id="line2d_37">
     <path d="M 303.498125 144.367187 
L 323.498125 144.367187 
" style="fill: none; stroke: #2ca02c; stroke-width: 2; stroke-linecap: square"/>
    </g>
    <g id="line2d_38"/>
    <g id="text_24">
     <!-- Sim 100 -->
     <g transform="translate(331.498125 147.867187) scale(0.1 -0.1)">
      <use xlink:href="#DejaVuSans-53"/>
      <use xlink:href="#DejaVuSans-69" transform="translate(63.476562 0)"/>
      <use xlink:href="#DejaVuSans-6d" transform="translate(91.259766 0)"/>
      <use xlink:href="#DejaVuSans-20" transform="translate(188.671875 0)"/>
      <use xlink:href="#DejaVuSans-31" transform="translate(220.458984 0)"/>
      <use xlink:href="#DejaVuSans-30" transform="translate(284.082031 0)"/>
      <use xlink:href="#DejaVuSans-30" transform="translate(347.705078 0)"/>
     </g>
    </g>
    <g id="LineCollection_11">
     <path d="M 313.498125 164.045312 
L 313.498125 154.045312 
" style="fill: none; stroke: #2ca02c"/>
    </g>
    <g id="line2d_39">
     <path d="M 303.498125 159.045312 
L 323.498125 159.045312 
" style="fill: none; stroke-dasharray: 3.7,1.6; stroke-dashoffset: 0; stroke: #2ca02c"/>
    </g>
    <g id="line2d_40">
     <g>
      <use xlink:href="#m3d1ca3b33a" x="313.498125" y="159.045312" style="fill: #2ca02c; stroke: #000000"/>
     </g>
    </g>
    <g id="text_25">
     <!-- 100 mg tab±SD (n=12) -->
     <g transform="translate(331.498125 162.545312) scale(0.1 -0.1)">
      <use xlink:href="#DejaVuSans-31"/>
      <use xlink:href="#DejaVuSans-30" transform="translate(63.623047 0)"/>
      <use xlink:href="#DejaVuSans-30" transform="translate(127.246094 0)"/>
      <use xlink:href="#DejaVuSans-20" transform="translate(190.869141 0)"/>
      <use xlink:href="#DejaVuSans-6d" transform="translate(222.65625 0)"/>
      <use xlink:href="#DejaVuSans-67" transform="translate(320.068359 0)"/>
      <use xlink:href="#DejaVuSans-20" transform="translate(383.544922 0)"/>
      <use xlink:href="#DejaVuSans-74" transform="translate(415.332031 0)"/>
      <use xlink:href="#DejaVuSans-61" transform="translate(454.541016 0)"/>
      <use xlink:href="#DejaVuSans-62" transform="translate(515.820312 0)"/>
      <use xlink:href="#DejaVuSans-b1" transform="translate(579.296875 0)"/>
      <use xlink:href="#DejaVuSans-53" transform="translate(663.085938 0)"/>
      <use xlink:href="#DejaVuSans-44" transform="translate(726.5625 0)"/>
      <use xlink:href="#DejaVuSans-20" transform="translate(803.564453 0)"/>
      <use xlink:href="#DejaVuSans-28" transform="translate(835.351562 0)"/>
      <use xlink:href="#DejaVuSans-6e" transform="translate(874.365234 0)"/>
      <use xlink:href="#DejaVuSans-3d" transform="translate(937.744141 0)"/>
      <use xlink:href="#DejaVuSans-31" transform="translate(1021.533203 0)"/>
      <use xlink:href="#DejaVuSans-32" transform="translate(1085.15625 0)"/>
      <use xlink:href="#DejaVuSans-29" transform="translate(1148.779297 0)"/>
     </g>
    </g>
    <g id="LineCollection_12">
     <path d="M 313.498125 178.723437 
L 313.498125 168.723437 
" style="fill: none; stroke: #2ca02c"/>
    </g>
    <g id="line2d_41">
     <path d="M 303.498125 173.723437 
L 323.498125 173.723437 
" style="fill: none; stroke-dasharray: 3.7,1.6; stroke-dashoffset: 0; stroke: #2ca02c"/>
    </g>
    <g id="line2d_42">
     <g>
      <use xlink:href="#m05f032d69d" x="313.498125" y="173.723437" style="fill: #2ca02c; stroke: #000000; stroke-linejoin: miter"/>
     </g>
    </g>
    <g id="text_26">
     <!-- 100 mg sus±SD (n=12) -->
     <g transform="translate(331.498125 177.223437) scale(0.1 -0.1)">
      <use xlink:href="#DejaVuSans-31"/>
      <use xlink:href="#DejaVuSans-30" transform="translate(63.623047 0)"/>
      <use xlink:href="#DejaVuSans-30" transform="translate(127.246094 0)"/>
      <use xlink:href="#DejaVuSans-20" transform="translate(190.869141 0)"/>
      <use xlink:href="#DejaVuSans-6d" transform="translate(222.65625 0)"/>
      <use xlink:href="#DejaVuSans-67" transform="translate(320.068359 0)"/>
      <use xlink:href="#DejaVuSans-20" transform="translate(383.544922 0)"/>
      <use xlink:href="#DejaVuSans-73" transform="translate(415.332031 0)"/>
      <use xlink:href="#DejaVuSans-75" transform="translate(467.431641 0)"/>
      <use xlink:href="#DejaVuSans-73" transform="translate(530.810547 0)"/>
      <use xlink:href="#DejaVuSans-b1" transform="translate(582.910156 0)"/>
      <use xlink:href="#DejaVuSans-53" transform="translate(666.699219 0)"/>
      <use xlink:href="#DejaVuSans-44" transform="translate(730.175781 0)"/>
      <use xlink:href="#DejaVuSans-20" transform="translate(807.177734 0)"/>
      <use xlink:href="#DejaVuSans-28" transform="translate(838.964844 0)"/>
      <use xlink:href="#DejaVuSans-6e" transform="translate(877.978516 0)"/>
      <use xlink:href="#DejaVuSans-3d" transform="translate(941.357422 0)"/>
      <use xlink:href="#DejaVuSans-31" transform="translate(1025.146484 0)"/>
      <use xlink:href="#DejaVuSans-32" transform="translate(1088.769531 0)"/>
      <use xlink:href="#DejaVuSans-29" transform="translate(1152.392578 0)"/>
     </g>
    </g>
   </g>
  </g>
  <g id="text_27">
   <!-- Patel1984 Fig1 -->
   <g transform="translate(152.421562 26.196094) scale(0.25 -0.25)">
    <defs>
     <path id="DejaVuSans-Bold-50" d="M 588 4666 
L 2584 4666 
Q 3475 4666 3951 4270 
Q 4428 3875 4428 3144 
Q 4428 2409 3951 2014 
Q 3475 1619 2584 1619 
L 1791 1619 
L 1791 0 
L 588 0 
L 588 4666 
z
M 1791 3794 
L 1791 2491 
L 2456 2491 
Q 2806 2491 2997 2661 
Q 3188 2831 3188 3144 
Q 3188 3456 2997 3625 
Q 2806 3794 2456 3794 
L 1791 3794 
z
" transform="scale(0.015625)"/>
     <path id="DejaVuSans-Bold-61" d="M 2106 1575 
Q 1756 1575 1579 1456 
Q 1403 1338 1403 1106 
Q 1403 894 1545 773 
Q 1688 653 1941 653 
Q 2256 653 2472 879 
Q 2688 1106 2688 1447 
L 2688 1575 
L 2106 1575 
z
M 3816 1997 
L 3816 0 
L 2688 0 
L 2688 519 
Q 2463 200 2181 54 
Q 1900 -91 1497 -91 
Q 953 -91 614 226 
Q 275 544 275 1050 
Q 275 1666 698 1953 
Q 1122 2241 2028 2241 
L 2688 2241 
L 2688 2328 
Q 2688 2594 2478 2717 
Q 2269 2841 1825 2841 
Q 1466 2841 1156 2769 
Q 847 2697 581 2553 
L 581 3406 
Q 941 3494 1303 3539 
Q 1666 3584 2028 3584 
Q 2975 3584 3395 3211 
Q 3816 2838 3816 1997 
z
" transform="scale(0.015625)"/>
     <path id="DejaVuSans-Bold-6c" d="M 538 4863 
L 1656 4863 
L 1656 0 
L 538 0 
L 538 4863 
z
" transform="scale(0.015625)"/>
     <path id="DejaVuSans-Bold-31" d="M 750 831 
L 1813 831 
L 1813 3847 
L 722 3622 
L 722 4441 
L 1806 4666 
L 2950 4666 
L 2950 831 
L 4013 831 
L 4013 0 
L 750 0 
L 750 831 
z
" transform="scale(0.015625)"/>
     <path id="DejaVuSans-Bold-39" d="M 641 103 
L 641 966 
Q 928 831 1190 764 
Q 1453 697 1709 697 
Q 2247 697 2547 995 
Q 2847 1294 2900 1881 
Q 2688 1725 2447 1647 
Q 2206 1569 1925 1569 
Q 1209 1569 770 1986 
Q 331 2403 331 3084 
Q 331 3838 820 4291 
Q 1309 4744 2131 4744 
Q 3044 4744 3544 4128 
Q 4044 3513 4044 2388 
Q 4044 1231 3459 570 
Q 2875 -91 1856 -91 
Q 1528 -91 1228 -42 
Q 928 6 641 103 
z
M 2125 2350 
Q 2441 2350 2600 2554 
Q 2759 2759 2759 3169 
Q 2759 3575 2600 3781 
Q 2441 3988 2125 3988 
Q 1809 3988 1650 3781 
Q 1491 3575 1491 3169 
Q 1491 2759 1650 2554 
Q 1809 2350 2125 2350 
z
" transform="scale(0.015625)"/>
     <path id="DejaVuSans-Bold-38" d="M 2228 2088 
Q 1891 2088 1709 1903 
Q 1528 1719 1528 1375 
Q 1528 1031 1709 848 
Q 1891 666 2228 666 
Q 2563 666 2741 848 
Q 2919 1031 2919 1375 
Q 2919 1722 2741 1905 
Q 2563 2088 2228 2088 
z
M 1350 2484 
Q 925 2613 709 2878 
Q 494 3144 494 3541 
Q 494 4131 934 4440 
Q 1375 4750 2228 4750 
Q 3075 4750 3515 4442 
Q 3956 4134 3956 3541 
Q 3956 3144 3739 2878 
Q 3522 2613 3097 2484 
Q 3572 2353 3814 2058 
Q 4056 1763 4056 1313 
Q 4056 619 3595 264 
Q 3134 -91 2228 -91 
Q 1319 -91 855 264 
Q 391 619 391 1313 
Q 391 1763 633 2058 
Q 875 2353 1350 2484 
z
M 1631 3419 
Q 1631 3141 1786 2991 
Q 1941 2841 2228 2841 
Q 2509 2841 2662 2991 
Q 2816 3141 2816 3419 
Q 2816 3697 2662 3845 
Q 2509 3994 2228 3994 
Q 1941 3994 1786 3844 
Q 1631 3694 1631 3419 
z
" transform="scale(0.015625)"/>
     <path id="DejaVuSans-Bold-34" d="M 2356 3675 
L 1038 1722 
L 2356 1722 
L 2356 3675 
z
M 2156 4666 
L 3494 4666 
L 3494 1722 
L 4159 1722 
L 4159 850 
L 3494 850 
L 3494 0 
L 2356 0 
L 2356 850 
L 288 850 
L 288 1881 
L 2156 4666 
z
" transform="scale(0.015625)"/>
     <path id="DejaVuSans-Bold-46" d="M 588 4666 
L 3834 4666 
L 3834 3756 
L 1791 3756 
L 1791 2888 
L 3713 2888 
L 3713 1978 
L 1791 1978 
L 1791 0 
L 588 0 
L 588 4666 
z
" transform="scale(0.015625)"/>
     <path id="DejaVuSans-Bold-67" d="M 2919 594 
Q 2688 288 2409 144 
Q 2131 0 1766 0 
Q 1125 0 706 504 
Q 288 1009 288 1791 
Q 288 2575 706 3076 
Q 1125 3578 1766 3578 
Q 2131 3578 2409 3434 
Q 2688 3291 2919 2981 
L 2919 3500 
L 4044 3500 
L 4044 353 
Q 4044 -491 3511 -936 
Q 2978 -1381 1966 -1381 
Q 1638 -1381 1331 -1331 
Q 1025 -1281 716 -1178 
L 716 -306 
Q 1009 -475 1290 -558 
Q 1572 -641 1856 -641 
Q 2406 -641 2662 -400 
Q 2919 -159 2919 353 
L 2919 594 
z
M 2181 2772 
Q 1834 2772 1640 2515 
Q 1447 2259 1447 1791 
Q 1447 1309 1634 1061 
Q 1822 813 2181 813 
Q 2531 813 2725 1069 
Q 2919 1325 2919 1791 
Q 2919 2259 2725 2515 
Q 2531 2772 2181 2772 
z
" transform="scale(0.015625)"/>
    </defs>
    <use xlink:href="#DejaVuSans-Bold-50"/>
    <use xlink:href="#DejaVuSans-Bold-61" transform="translate(70.666016 0)"/>
    <use xlink:href="#DejaVuSans-Bold-74" transform="translate(138.146484 0)"/>
    <use xlink:href="#DejaVuSans-Bold-65" transform="translate(185.949219 0)"/>
    <use xlink:href="#DejaVuSans-Bold-6c" transform="translate(253.771484 0)"/>
    <use xlink:href="#DejaVuSans-Bold-31" transform="translate(288.048828 0)"/>
    <use xlink:href="#DejaVuSans-Bold-39" transform="translate(357.628906 0)"/>
    <use xlink:href="#DejaVuSans-Bold-38" transform="translate(427.208984 0)"/>
    <use xlink:href="#DejaVuSans-Bold-34" transform="translate(496.789062 0)"/>
    <use xlink:href="#DejaVuSans-Bold-20" transform="translate(566.369141 0)"/>
    <use xlink:href="#DejaVuSans-Bold-46" transform="translate(601.183594 0)"/>
    <use xlink:href="#DejaVuSans-Bold-69" transform="translate(669.494141 0)"/>
    <use xlink:href="#DejaVuSans-Bold-67" transform="translate(703.771484 0)"/>
    <use xlink:href="#DejaVuSans-Bold-31" transform="translate(775.353516 0)"/>
   </g>
  </g>
 </g>
 <defs>
  <clipPath id="p4c5b4bd707">
   <rect x="69.03875" y="43.2" width="390.6" height="277.2"/>
  </clipPath>
 </defs>
</svg>
