<?xml version="1.0" encoding="utf-8" standalone="no"?>
<!DOCTYPE svg PUBLIC "-//W3C//DTD SVG 1.1//EN"
  "http://www.w3.org/Graphics/SVG/1.1/DTD/svg11.dtd">
<svg xmlns:xlink="http://www.w3.org/1999/xlink" width="491.771375pt" height="370.537812pt" viewBox="0 0 491.771375 370.537812" xmlns="http://www.w3.org/2000/svg" version="1.1">
 <metadata>
  <rdf:RDF xmlns:dc="http://purl.org/dc/elements/1.1/" xmlns:cc="http://creativecommons.org/ns#" xmlns:rdf="http://www.w3.org/1999/02/22-rdf-syntax-ns#">
   <cc:Work>
    <dc:type rdf:resource="http://purl.org/dc/dcmitype/StillImage"/>
    <dc:date>2025-11-04T18:11:57.098105</dc:date>
    <dc:format>image/svg+xml</dc:format>
    <dc:creator>
     <cc:Agent>
      <dc:title>Matplotlib v3.10.7, https://matplotlib.org/</dc:title>
     </cc:Agent>
    </dc:creator>
   </cc:Work>
  </rdf:RDF>
 </metadata>
 <defs>
  <style type="text/css">*{stroke-linejoin: round; stroke-linecap: butt}</style>
 </defs>
 <g id="figure_1">
  <g id="patch_1">
   <path d="M -0 370.537812 
L 491.771375 370.537812 
L 491.771375 0 
L -0 0 
z
" style="fill: #ffffff"/>
  </g>
  <g id="axes_1">
   <g id="patch_2">
    <path d="M 84.427625 320.4 
L 475.027625 320.4 
L 475.027625 43.2 
L 84.427625 43.2 
z
" style="fill: #ffffff"/>
   </g>
   <g id="matplotlib.axis_1">
    <g id="xtick_1">
     <g id="line2d_1">
      <defs>
       <path id="mc4d7490d6b" d="M 0 0 
L 0 3.5 
" style="stroke: #000000; stroke-width: 0.8"/>
      </defs>
      <g>
       <use xlink:href="#mc4d7490d6b" x="97.896591" y="320.4" style="stroke: #000000; stroke-width: 0.8"/>
      </g>
     </g>
     <g id="text_1">
      <!-- 0 -->
      <g transform="translate(93.124716 338.797656) scale(0.15 -0.15)">
       <defs>
        <path id="DejaVuSans-30" d="M 2034 4250 
Q 1547 4250 1301 3770 
Q 1056 3291 1056 2328 
Q 1056 1369 1301 889 
Q 1547 409 2034 409 
Q 2525 409 2770 889 
Q 3016 1369 3016 2328 
Q 3016 3291 2770 3770 
Q 2525 4250 2034 4250 
z
M 2034 4750 
Q 2819 4750 3233 4129 
Q 3647 3509 3647 2328 
Q 3647 1150 3233 529 
Q 2819 -91 2034 -91 
Q 1250 -91 836 529 
Q 422 1150 422 2328 
Q 422 3509 836 4129 
Q 1250 4750 2034 4750 
z
" transform="scale(0.015625)"/>
       </defs>
       <use xlink:href="#DejaVuSans-30"/>
      </g>
     </g>
    </g>
    <g id="xtick_2">
     <g id="line2d_2">
      <g>
       <use xlink:href="#mc4d7490d6b" x="151.772453" y="320.4" style="stroke: #000000; stroke-width: 0.8"/>
      </g>
     </g>
     <g id="text_2">
      <!-- 10 -->
      <g transform="translate(142.228703 338.797656) scale(0.15 -0.15)">
       <defs>
        <path id="DejaVuSans-31" d="M 794 531 
L 1825 531 
L 1825 4091 
L 703 3866 
L 703 4441 
L 1819 4666 
L 2450 4666 
L 2450 531 
L 3481 531 
L 3481 0 
L 794 0 
L 794 531 
z
" transform="scale(0.015625)"/>
       </defs>
       <use xlink:href="#DejaVuSans-31"/>
       <use xlink:href="#DejaVuSans-30" transform="translate(63.623047 0)"/>
      </g>
     </g>
    </g>
    <g id="xtick_3">
     <g id="line2d_3">
      <g>
       <use xlink:href="#mc4d7490d6b" x="205.648315" y="320.4" style="stroke: #000000; stroke-width: 0.8"/>
      </g>
     </g>
     <g id="text_3">
      <!-- 20 -->
      <g transform="translate(196.104565 338.797656) scale(0.15 -0.15)">
       <defs>
        <path id="DejaVuSans-32" d="M 1228 531 
L 3431 531 
L 3431 0 
L 469 0 
L 469 531 
Q 828 903 1448 1529 
Q 2069 2156 2228 2338 
Q 2531 2678 2651 2914 
Q 2772 3150 2772 3378 
Q 2772 3750 2511 3984 
Q 2250 4219 1831 4219 
Q 1534 4219 1204 4116 
Q 875 4013 500 3803 
L 500 4441 
Q 881 4594 1212 4672 
Q 1544 4750 1819 4750 
Q 2544 4750 2975 4387 
Q 3406 4025 3406 3419 
Q 3406 3131 3298 2873 
Q 3191 2616 2906 2266 
Q 2828 2175 2409 1742 
Q 1991 1309 1228 531 
z
" transform="scale(0.015625)"/>
       </defs>
       <use xlink:href="#DejaVuSans-32"/>
       <use xlink:href="#DejaVuSans-30" transform="translate(63.623047 0)"/>
      </g>
     </g>
    </g>
    <g id="xtick_4">
     <g id="line2d_4">
      <g>
       <use xlink:href="#mc4d7490d6b" x="259.524177" y="320.4" style="stroke: #000000; stroke-width: 0.8"/>
      </g>
     </g>
     <g id="text_4">
      <!-- 30 -->
      <g transform="translate(249.980427 338.797656) scale(0.15 -0.15)">
       <defs>
        <path id="DejaVuSans-33" d="M 2597 2516 
Q 3050 2419 3304 2112 
Q 3559 1806 3559 1356 
Q 3559 666 3084 287 
Q 2609 -91 1734 -91 
Q 1441 -91 1130 -33 
Q 819 25 488 141 
L 488 750 
Q 750 597 1062 519 
Q 1375 441 1716 441 
Q 2309 441 2620 675 
Q 2931 909 2931 1356 
Q 2931 1769 2642 2001 
Q 2353 2234 1838 2234 
L 1294 2234 
L 1294 2753 
L 1863 2753 
Q 2328 2753 2575 2939 
Q 2822 3125 2822 3475 
Q 2822 3834 2567 4026 
Q 2313 4219 1838 4219 
Q 1578 4219 1281 4162 
Q 984 4106 628 3988 
L 628 4550 
Q 988 4650 1302 4700 
Q 1616 4750 1894 4750 
Q 2613 4750 3031 4423 
Q 3450 4097 3450 3541 
Q 3450 3153 3228 2886 
Q 3006 2619 2597 2516 
z
" transform="scale(0.015625)"/>
       </defs>
       <use xlink:href="#DejaVuSans-33"/>
       <use xlink:href="#DejaVuSans-30" transform="translate(63.623047 0)"/>
      </g>
     </g>
    </g>
    <g id="xtick_5">
     <g id="line2d_5">
      <g>
       <use xlink:href="#mc4d7490d6b" x="313.400039" y="320.4" style="stroke: #000000; stroke-width: 0.8"/>
      </g>
     </g>
     <g id="text_5">
      <!-- 40 -->
      <g transform="translate(303.856289 338.797656) scale(0.15 -0.15)">
       <defs>
        <path id="DejaVuSans-34" d="M 2419 4116 
L 825 1625 
L 2419 1625 
L 2419 4116 
z
M 2253 4666 
L 3047 4666 
L 3047 1625 
L 3713 1625 
L 3713 1100 
L 3047 1100 
L 3047 0 
L 2419 0 
L 2419 1100 
L 313 1100 
L 313 1709 
L 2253 4666 
z
" transform="scale(0.015625)"/>
       </defs>
       <use xlink:href="#DejaVuSans-34"/>
       <use xlink:href="#DejaVuSans-30" transform="translate(63.623047 0)"/>
      </g>
     </g>
    </g>
    <g id="xtick_6">
     <g id="line2d_6">
      <g>
       <use xlink:href="#mc4d7490d6b" x="367.275901" y="320.4" style="stroke: #000000; stroke-width: 0.8"/>
      </g>
     </g>
     <g id="text_6">
      <!-- 50 -->
      <g transform="translate(357.732151 338.797656) scale(0.15 -0.15)">
       <defs>
        <path id="DejaVuSans-35" d="M 691 4666 
L 3169 4666 
L 3169 4134 
L 1269 4134 
L 1269 2991 
Q 1406 3038 1543 3061 
Q 1681 3084 1819 3084 
Q 2600 3084 3056 2656 
Q 3513 2228 3513 1497 
Q 3513 744 3044 326 
Q 2575 -91 1722 -91 
Q 1428 -91 1123 -41 
Q 819 9 494 109 
L 494 744 
Q 775 591 1075 516 
Q 1375 441 1709 441 
Q 2250 441 2565 725 
Q 2881 1009 2881 1497 
Q 2881 1984 2565 2268 
Q 2250 2553 1709 2553 
Q 1456 2553 1204 2497 
Q 953 2441 691 2322 
L 691 4666 
z
" transform="scale(0.015625)"/>
       </defs>
       <use xlink:href="#DejaVuSans-35"/>
       <use xlink:href="#DejaVuSans-30" transform="translate(63.623047 0)"/>
      </g>
     </g>
    </g>
    <g id="xtick_7">
     <g id="line2d_7">
      <g>
       <use xlink:href="#mc4d7490d6b" x="421.151763" y="320.4" style="stroke: #000000; stroke-width: 0.8"/>
      </g>
     </g>
     <g id="text_7">
      <!-- 60 -->
      <g transform="translate(411.608013 338.797656) scale(0.15 -0.15)">
       <defs>
        <path id="DejaVuSans-36" d="M 2113 2584 
Q 1688 2584 1439 2293 
Q 1191 2003 1191 1497 
Q 1191 994 1439 701 
Q 1688 409 2113 409 
Q 2538 409 2786 701 
Q 3034 994 3034 1497 
Q 3034 2003 2786 2293 
Q 2538 2584 2113 2584 
z
M 3366 4563 
L 3366 3988 
Q 3128 4100 2886 4159 
Q 2644 4219 2406 4219 
Q 1781 4219 1451 3797 
Q 1122 3375 1075 2522 
Q 1259 2794 1537 2939 
Q 1816 3084 2150 3084 
Q 2853 3084 3261 2657 
Q 3669 2231 3669 1497 
Q 3669 778 3244 343 
Q 2819 -91 2113 -91 
Q 1303 -91 875 529 
Q 447 1150 447 2328 
Q 447 3434 972 4092 
Q 1497 4750 2381 4750 
Q 2619 4750 2861 4703 
Q 3103 4656 3366 4563 
z
" transform="scale(0.015625)"/>
       </defs>
       <use xlink:href="#DejaVuSans-36"/>
       <use xlink:href="#DejaVuSans-30" transform="translate(63.623047 0)"/>
      </g>
     </g>
    </g>
    <g id="xtick_8">
     <g id="line2d_8">
      <g>
       <use xlink:href="#mc4d7490d6b" x="475.027625" y="320.4" style="stroke: #000000; stroke-width: 0.8"/>
      </g>
     </g>
     <g id="text_8">
      <!-- 70 -->
      <g transform="translate(465.483875 338.797656) scale(0.15 -0.15)">
       <defs>
        <path id="DejaVuSans-37" d="M 525 4666 
L 3525 4666 
L 3525 4397 
L 1831 0 
L 1172 0 
L 2766 4134 
L 525 4134 
L 525 4666 
z
" transform="scale(0.015625)"/>
       </defs>
       <use xlink:href="#DejaVuSans-37"/>
       <use xlink:href="#DejaVuSans-30" transform="translate(63.623047 0)"/>
      </g>
     </g>
    </g>
    <g id="text_9">
     <!-- time [hr] -->
     <g transform="translate(234.653094 359.594375) scale(0.18 -0.18)">
      <defs>
       <path id="DejaVuSans-Bold-74" d="M 1759 4494 
L 1759 3500 
L 2913 3500 
L 2913 2700 
L 1759 2700 
L 1759 1216 
Q 1759 972 1856 886 
Q 1953 800 2241 800 
L 2816 800 
L 2816 0 
L 1856 0 
Q 1194 0 917 276 
Q 641 553 641 1216 
L 641 2700 
L 84 2700 
L 84 3500 
L 641 3500 
L 641 4494 
L 1759 4494 
z
" transform="scale(0.015625)"/>
       <path id="DejaVuSans-Bold-69" d="M 538 3500 
L 1656 3500 
L 1656 0 
L 538 0 
L 538 3500 
z
M 538 4863 
L 1656 4863 
L 1656 3950 
L 538 3950 
L 538 4863 
z
" transform="scale(0.015625)"/>
       <path id="DejaVuSans-Bold-6d" d="M 3781 2919 
Q 3994 3244 4286 3414 
Q 4578 3584 4928 3584 
Q 5531 3584 5847 3212 
Q 6163 2841 6163 2131 
L 6163 0 
L 5038 0 
L 5038 1825 
Q 5041 1866 5042 1909 
Q 5044 1953 5044 2034 
Q 5044 2406 4934 2573 
Q 4825 2741 4581 2741 
Q 4263 2741 4089 2478 
Q 3916 2216 3909 1719 
L 3909 0 
L 2784 0 
L 2784 1825 
Q 2784 2406 2684 2573 
Q 2584 2741 2328 2741 
Q 2006 2741 1831 2477 
Q 1656 2213 1656 1722 
L 1656 0 
L 531 0 
L 531 3500 
L 1656 3500 
L 1656 2988 
Q 1863 3284 2130 3434 
Q 2397 3584 2719 3584 
Q 3081 3584 3359 3409 
Q 3638 3234 3781 2919 
z
" transform="scale(0.015625)"/>
       <path id="DejaVuSans-Bold-65" d="M 4031 1759 
L 4031 1441 
L 1416 1441 
Q 1456 1047 1700 850 
Q 1944 653 2381 653 
Q 2734 653 3104 758 
Q 3475 863 3866 1075 
L 3866 213 
Q 3469 63 3072 -14 
Q 2675 -91 2278 -91 
Q 1328 -91 801 392 
Q 275 875 275 1747 
Q 275 2603 792 3093 
Q 1309 3584 2216 3584 
Q 3041 3584 3536 3087 
Q 4031 2591 4031 1759 
z
M 2881 2131 
Q 2881 2450 2695 2645 
Q 2509 2841 2209 2841 
Q 1884 2841 1681 2658 
Q 1478 2475 1428 2131 
L 2881 2131 
z
" transform="scale(0.015625)"/>
       <path id="DejaVuSans-Bold-20" transform="scale(0.015625)"/>
       <path id="DejaVuSans-Bold-5b" d="M 550 4863 
L 2491 4863 
L 2491 4159 
L 1613 4159 
L 1613 -141 
L 2491 -141 
L 2491 -844 
L 550 -844 
L 550 4863 
z
" transform="scale(0.015625)"/>
       <path id="DejaVuSans-Bold-68" d="M 4056 2131 
L 4056 0 
L 2931 0 
L 2931 347 
L 2931 1625 
Q 2931 2084 2911 2256 
Q 2891 2428 2841 2509 
Q 2775 2619 2662 2680 
Q 2550 2741 2406 2741 
Q 2056 2741 1856 2470 
Q 1656 2200 1656 1722 
L 1656 0 
L 538 0 
L 538 4863 
L 1656 4863 
L 1656 2988 
Q 1909 3294 2193 3439 
Q 2478 3584 2822 3584 
Q 3428 3584 3742 3212 
Q 4056 2841 4056 2131 
z
" transform="scale(0.015625)"/>
       <path id="DejaVuSans-Bold-72" d="M 3138 2547 
Q 2991 2616 2845 2648 
Q 2700 2681 2553 2681 
Q 2122 2681 1889 2404 
Q 1656 2128 1656 1613 
L 1656 0 
L 538 0 
L 538 3500 
L 1656 3500 
L 1656 2925 
Q 1872 3269 2151 3426 
Q 2431 3584 2822 3584 
Q 2878 3584 2943 3579 
Q 3009 3575 3134 3559 
L 3138 2547 
z
" transform="scale(0.015625)"/>
       <path id="DejaVuSans-Bold-5d" d="M 2375 -844 
L 434 -844 
L 434 -141 
L 1313 -141 
L 1313 4159 
L 434 4159 
L 434 4863 
L 2375 4863 
L 2375 -844 
z
" transform="scale(0.015625)"/>
      </defs>
      <use xlink:href="#DejaVuSans-Bold-74"/>
      <use xlink:href="#DejaVuSans-Bold-69" transform="translate(47.802734 0)"/>
      <use xlink:href="#DejaVuSans-Bold-6d" transform="translate(82.080078 0)"/>
      <use xlink:href="#DejaVuSans-Bold-65" transform="translate(186.279297 0)"/>
      <use xlink:href="#DejaVuSans-Bold-20" transform="translate(254.101562 0)"/>
      <use xlink:href="#DejaVuSans-Bold-5b" transform="translate(288.916016 0)"/>
      <use xlink:href="#DejaVuSans-Bold-68" transform="translate(334.619141 0)"/>
      <use xlink:href="#DejaVuSans-Bold-72" transform="translate(405.810547 0)"/>
      <use xlink:href="#DejaVuSans-Bold-5d" transform="translate(455.126953 0)"/>
     </g>
    </g>
   </g>
   <g id="matplotlib.axis_2">
    <g id="ytick_1">
     <g id="line2d_9">
      <defs>
       <path id="m6334335b4f" d="M 0 0 
L -3.5 0 
" style="stroke: #000000; stroke-width: 0.8"/>
      </defs>
      <g>
       <use xlink:href="#m6334335b4f" x="84.427625" y="307.8" style="stroke: #000000; stroke-width: 0.8"/>
      </g>
     </g>
     <g id="text_10">
      <!-- 0 -->
      <g transform="translate(67.883875 313.498828) scale(0.15 -0.15)">
       <use xlink:href="#DejaVuSans-30"/>
      </g>
     </g>
    </g>
    <g id="ytick_2">
     <g id="line2d_10">
      <g>
       <use xlink:href="#m6334335b4f" x="84.427625" y="256.286411" style="stroke: #000000; stroke-width: 0.8"/>
      </g>
     </g>
     <g id="text_11">
      <!-- 100 -->
      <g transform="translate(48.796375 261.98524) scale(0.15 -0.15)">
       <use xlink:href="#DejaVuSans-31"/>
       <use xlink:href="#DejaVuSans-30" transform="translate(63.623047 0)"/>
       <use xlink:href="#DejaVuSans-30" transform="translate(127.246094 0)"/>
      </g>
     </g>
    </g>
    <g id="ytick_3">
     <g id="line2d_11">
      <g>
       <use xlink:href="#m6334335b4f" x="84.427625" y="204.772823" style="stroke: #000000; stroke-width: 0.8"/>
      </g>
     </g>
     <g id="text_12">
      <!-- 200 -->
      <g transform="translate(48.796375 210.471651) scale(0.15 -0.15)">
       <use xlink:href="#DejaVuSans-32"/>
       <use xlink:href="#DejaVuSans-30" transform="translate(63.623047 0)"/>
       <use xlink:href="#DejaVuSans-30" transform="translate(127.246094 0)"/>
      </g>
     </g>
    </g>
    <g id="ytick_4">
     <g id="line2d_12">
      <g>
       <use xlink:href="#m6334335b4f" x="84.427625" y="153.259234" style="stroke: #000000; stroke-width: 0.8"/>
      </g>
     </g>
     <g id="text_13">
      <!-- 300 -->
      <g transform="translate(48.796375 158.958062) scale(0.15 -0.15)">
       <use xlink:href="#DejaVuSans-33"/>
       <use xlink:href="#DejaVuSans-30" transform="translate(63.623047 0)"/>
       <use xlink:href="#DejaVuSans-30" transform="translate(127.246094 0)"/>
      </g>
     </g>
    </g>
    <g id="ytick_5">
     <g id="line2d_13">
      <g>
       <use xlink:href="#m6334335b4f" x="84.427625" y="101.745646" style="stroke: #000000; stroke-width: 0.8"/>
      </g>
     </g>
     <g id="text_14">
      <!-- 400 -->
      <g transform="translate(48.796375 107.444474) scale(0.15 -0.15)">
       <use xlink:href="#DejaVuSans-34"/>
       <use xlink:href="#DejaVuSans-30" transform="translate(63.623047 0)"/>
       <use xlink:href="#DejaVuSans-30" transform="translate(127.246094 0)"/>
      </g>
     </g>
    </g>
    <g id="ytick_6">
     <g id="line2d_14">
      <g>
       <use xlink:href="#m6334335b4f" x="84.427625" y="50.232057" style="stroke: #000000; stroke-width: 0.8"/>
      </g>
     </g>
     <g id="text_15">
      <!-- 500 -->
      <g transform="translate(48.796375 55.930885) scale(0.15 -0.15)">
       <use xlink:href="#DejaVuSans-35"/>
       <use xlink:href="#DejaVuSans-30" transform="translate(63.623047 0)"/>
       <use xlink:href="#DejaVuSans-30" transform="translate(127.246094 0)"/>
      </g>
     </g>
    </g>
    <g id="text_16">
     <!-- HCTZ urine -->
     <g transform="translate(20.877188 238.177969) rotate(-90) scale(0.18 -0.18)">
      <defs>
       <path id="DejaVuSans-Bold-48" d="M 588 4666 
L 1791 4666 
L 1791 2888 
L 3566 2888 
L 3566 4666 
L 4769 4666 
L 4769 0 
L 3566 0 
L 3566 1978 
L 1791 1978 
L 1791 0 
L 588 0 
L 588 4666 
z
" transform="scale(0.015625)"/>
       <path id="DejaVuSans-Bold-43" d="M 4288 256 
Q 3956 84 3597 -3 
Q 3238 -91 2847 -91 
Q 1681 -91 1000 561 
Q 319 1213 319 2328 
Q 319 3447 1000 4098 
Q 1681 4750 2847 4750 
Q 3238 4750 3597 4662 
Q 3956 4575 4288 4403 
L 4288 3438 
Q 3953 3666 3628 3772 
Q 3303 3878 2944 3878 
Q 2300 3878 1931 3465 
Q 1563 3053 1563 2328 
Q 1563 1606 1931 1193 
Q 2300 781 2944 781 
Q 3303 781 3628 887 
Q 3953 994 4288 1222 
L 4288 256 
z
" transform="scale(0.015625)"/>
       <path id="DejaVuSans-Bold-54" d="M 31 4666 
L 4331 4666 
L 4331 3756 
L 2784 3756 
L 2784 0 
L 1581 0 
L 1581 3756 
L 31 3756 
L 31 4666 
z
" transform="scale(0.015625)"/>
       <path id="DejaVuSans-Bold-5a" d="M 359 4666 
L 4281 4666 
L 4281 3938 
L 1778 909 
L 4353 909 
L 4353 0 
L 288 0 
L 288 728 
L 2791 3756 
L 359 3756 
L 359 4666 
z
" transform="scale(0.015625)"/>
       <path id="DejaVuSans-Bold-75" d="M 500 1363 
L 500 3500 
L 1625 3500 
L 1625 3150 
Q 1625 2866 1622 2436 
Q 1619 2006 1619 1863 
Q 1619 1441 1641 1255 
Q 1663 1069 1716 984 
Q 1784 875 1895 815 
Q 2006 756 2150 756 
Q 2500 756 2700 1025 
Q 2900 1294 2900 1772 
L 2900 3500 
L 4019 3500 
L 4019 0 
L 2900 0 
L 2900 506 
Q 2647 200 2364 54 
Q 2081 -91 1741 -91 
Q 1134 -91 817 281 
Q 500 653 500 1363 
z
" transform="scale(0.015625)"/>
       <path id="DejaVuSans-Bold-6e" d="M 4056 2131 
L 4056 0 
L 2931 0 
L 2931 347 
L 2931 1631 
Q 2931 2084 2911 2256 
Q 2891 2428 2841 2509 
Q 2775 2619 2662 2680 
Q 2550 2741 2406 2741 
Q 2056 2741 1856 2470 
Q 1656 2200 1656 1722 
L 1656 0 
L 538 0 
L 538 3500 
L 1656 3500 
L 1656 2988 
Q 1909 3294 2193 3439 
Q 2478 3584 2822 3584 
Q 3428 3584 3742 3212 
Q 4056 2841 4056 2131 
z
" transform="scale(0.015625)"/>
      </defs>
      <use xlink:href="#DejaVuSans-Bold-48"/>
      <use xlink:href="#DejaVuSans-Bold-43" transform="translate(83.691406 0)"/>
      <use xlink:href="#DejaVuSans-Bold-54" transform="translate(157.080078 0)"/>
      <use xlink:href="#DejaVuSans-Bold-5a" transform="translate(225.292969 0)"/>
      <use xlink:href="#DejaVuSans-Bold-20" transform="translate(297.802734 0)"/>
      <use xlink:href="#DejaVuSans-Bold-75" transform="translate(332.617188 0)"/>
      <use xlink:href="#DejaVuSans-Bold-72" transform="translate(403.808594 0)"/>
      <use xlink:href="#DejaVuSans-Bold-69" transform="translate(453.125 0)"/>
      <use xlink:href="#DejaVuSans-Bold-6e" transform="translate(487.402344 0)"/>
      <use xlink:href="#DejaVuSans-Bold-65" transform="translate(558.59375 0)"/>
     </g>
     <!--  [µmol] -->
     <g transform="translate(41.03325 218.428594) rotate(-90) scale(0.18 -0.18)">
      <defs>
       <path id="DejaVuSans-Bold-b5" d="M 544 -1338 
L 544 3500 
L 1672 3500 
L 1672 1466 
Q 1672 1103 1828 926 
Q 1984 750 2303 750 
Q 2625 750 2781 926 
Q 2938 1103 2938 1466 
L 2938 3500 
L 4063 3500 
L 4063 1159 
Q 4063 938 4114 850 
Q 4166 763 4288 763 
Q 4344 763 4395 778 
Q 4447 794 4506 831 
L 4506 50 
Q 4341 -22 4195 -56 
Q 4050 -91 3909 -91 
Q 3631 -91 3454 26 
Q 3278 144 3169 403 
Q 3022 156 2811 32 
Q 2600 -91 2322 -91 
Q 2091 -91 1928 -17 
Q 1766 56 1672 206 
L 1672 -1338 
L 544 -1338 
z
" transform="scale(0.015625)"/>
       <path id="DejaVuSans-Bold-6f" d="M 2203 2784 
Q 1831 2784 1636 2517 
Q 1441 2250 1441 1747 
Q 1441 1244 1636 976 
Q 1831 709 2203 709 
Q 2569 709 2762 976 
Q 2956 1244 2956 1747 
Q 2956 2250 2762 2517 
Q 2569 2784 2203 2784 
z
M 2203 3584 
Q 3106 3584 3614 3096 
Q 4122 2609 4122 1747 
Q 4122 884 3614 396 
Q 3106 -91 2203 -91 
Q 1297 -91 786 396 
Q 275 884 275 1747 
Q 275 2609 786 3096 
Q 1297 3584 2203 3584 
z
" transform="scale(0.015625)"/>
       <path id="DejaVuSans-Bold-6c" d="M 538 4863 
L 1656 4863 
L 1656 0 
L 538 0 
L 538 4863 
z
" transform="scale(0.015625)"/>
      </defs>
      <use xlink:href="#DejaVuSans-Bold-20"/>
      <use xlink:href="#DejaVuSans-Bold-5b" transform="translate(34.814453 0)"/>
      <use xlink:href="#DejaVuSans-Bold-b5" transform="translate(80.517578 0)"/>
      <use xlink:href="#DejaVuSans-Bold-6d" transform="translate(154.101562 0)"/>
      <use xlink:href="#DejaVuSans-Bold-6f" transform="translate(258.300781 0)"/>
      <use xlink:href="#DejaVuSans-Bold-6c" transform="translate(327.001953 0)"/>
      <use xlink:href="#DejaVuSans-Bold-5d" transform="translate(361.279297 0)"/>
     </g>
    </g>
   </g>
   <g id="line2d_15">
    <path d="M 97.896591 307.8 
L 99.512866 307.720144 
L 101.129142 307.363927 
L 102.745418 306.752217 
L 104.900453 305.678902 
L 109.210522 303.181654 
L 115.136866 299.79664 
L 119.446935 297.581654 
L 123.757004 295.5944 
L 128.605832 293.6098 
L 133.454659 291.860995 
L 138.842246 290.158366 
L 144.768591 288.536615 
L 151.233694 287.021317 
L 158.237556 285.629162 
L 165.780177 284.368719 
L 173.861556 283.241623 
L 183.020453 282.187636 
L 193.795625 281.18487 
L 206.187073 280.271612 
L 220.733556 279.438676 
L 237.973832 278.686925 
L 258.985418 278.004067 
L 285.384591 277.381388 
L 318.787625 276.827559 
L 361.888315 276.347075 
L 367.275901 276.3 
L 367.275901 276.3 
" clip-path="url(#pb8bfe02492)" style="fill: none; stroke: #000000; stroke-width: 2; stroke-linecap: square"/>
   </g>
   <g id="line2d_16">
    <path d="M 97.896591 307.8 
L 108.671763 303.738699 
L 119.446935 298.477021 
L 130.222108 294.524573 
L 140.99728 293.193146 
L 162.547625 290.529437 
L 227.198659 286.906111 
L 259.524177 285.530288 
L 291.849694 283.717772 
L 356.500728 281.401114 
" clip-path="url(#pb8bfe02492)" style="fill: none; stroke-dasharray: 3.7,1.6; stroke-dashoffset: 0; stroke: #000000"/>
    <defs>
     <path id="md087db1f44" d="M 0 3 
C 0.795609 3 1.55874 2.683901 2.12132 2.12132 
C 2.683901 1.55874 3 0.795609 3 0 
C 3 -0.795609 2.683901 -1.55874 2.12132 -2.12132 
C 1.55874 -2.683901 0.795609 -3 0 -3 
C -0.795609 -3 -1.55874 -2.683901 -2.12132 -2.12132 
C -2.683901 -1.55874 -3 -0.795609 -3 0 
C -3 0.795609 -2.683901 1.55874 -2.12132 2.12132 
C -1.55874 2.683901 -0.795609 3 0 3 
z
" style="stroke: #000000"/>
    </defs>
    <g clip-path="url(#pb8bfe02492)">
     <use xlink:href="#md087db1f44" x="97.896591" y="307.8" style="stroke: #000000"/>
     <use xlink:href="#md087db1f44" x="108.671763" y="303.738699" style="stroke: #000000"/>
     <use xlink:href="#md087db1f44" x="119.446935" y="298.477021" style="stroke: #000000"/>
     <use xlink:href="#md087db1f44" x="130.222108" y="294.524573" style="stroke: #000000"/>
     <use xlink:href="#md087db1f44" x="140.99728" y="293.193146" style="stroke: #000000"/>
     <use xlink:href="#md087db1f44" x="162.547625" y="290.529437" style="stroke: #000000"/>
     <use xlink:href="#md087db1f44" x="227.198659" y="286.906111" style="stroke: #000000"/>
     <use xlink:href="#md087db1f44" x="259.524177" y="285.530288" style="stroke: #000000"/>
     <use xlink:href="#md087db1f44" x="291.849694" y="283.717772" style="stroke: #000000"/>
     <use xlink:href="#md087db1f44" x="356.500728" y="281.401114" style="stroke: #000000"/>
    </g>
   </g>
   <g id="line2d_17">
    <path d="M 97.896591 307.8 
L 108.671763 301.991921 
L 119.446935 298.040326 
L 130.222108 294.524573 
L 140.99728 292.756451 
L 162.547625 290.093597 
L 227.198659 285.596881 
L 259.524177 284.6569 
L 291.849694 281.970994 
L 356.500728 280.965273 
" clip-path="url(#pb8bfe02492)" style="fill: none; stroke-dasharray: 3.7,1.6; stroke-dashoffset: 0; stroke: #000000"/>
    <defs>
     <path id="m8e1af070e6" d="M -3 3 
L 3 3 
L 3 -3 
L -3 -3 
z
" style="stroke: #000000; stroke-linejoin: miter"/>
    </defs>
    <g clip-path="url(#pb8bfe02492)">
     <use xlink:href="#m8e1af070e6" x="97.896591" y="307.8" style="stroke: #000000; stroke-linejoin: miter"/>
     <use xlink:href="#m8e1af070e6" x="108.671763" y="301.991921" style="stroke: #000000; stroke-linejoin: miter"/>
     <use xlink:href="#m8e1af070e6" x="119.446935" y="298.040326" style="stroke: #000000; stroke-linejoin: miter"/>
     <use xlink:href="#m8e1af070e6" x="130.222108" y="294.524573" style="stroke: #000000; stroke-linejoin: miter"/>
     <use xlink:href="#m8e1af070e6" x="140.99728" y="292.756451" style="stroke: #000000; stroke-linejoin: miter"/>
     <use xlink:href="#m8e1af070e6" x="162.547625" y="290.093597" style="stroke: #000000; stroke-linejoin: miter"/>
     <use xlink:href="#m8e1af070e6" x="227.198659" y="285.596881" style="stroke: #000000; stroke-linejoin: miter"/>
     <use xlink:href="#m8e1af070e6" x="259.524177" y="284.6569" style="stroke: #000000; stroke-linejoin: miter"/>
     <use xlink:href="#m8e1af070e6" x="291.849694" y="281.970994" style="stroke: #000000; stroke-linejoin: miter"/>
     <use xlink:href="#m8e1af070e6" x="356.500728" y="280.965273" style="stroke: #000000; stroke-linejoin: miter"/>
    </g>
   </g>
   <g id="line2d_18">
    <path d="M 97.896591 307.8 
L 98.974108 307.746048 
L 100.051625 307.468101 
L 101.129142 306.927854 
L 102.206659 306.159009 
L 103.822935 304.685897 
L 105.97797 302.356432 
L 117.291901 289.520433 
L 121.063211 285.820812 
L 124.834522 282.462776 
L 128.605832 279.419601 
L 132.377142 276.661626 
L 136.148453 274.160488 
L 140.458522 271.583368 
L 144.768591 269.27323 
L 149.078659 267.199454 
L 153.927487 265.115495 
L 158.776315 263.262974 
L 164.163901 261.440702 
L 170.090246 259.683715 
L 176.555349 258.018658 
L 183.559211 256.463852 
L 191.101832 255.02994 
L 199.183211 253.720938 
L 208.342108 252.467684 
L 218.578522 251.297674 
L 230.431211 250.179935 
L 243.900177 249.145102 
L 259.524177 248.178207 
L 277.84197 247.277417 
L 299.392315 246.447721 
L 325.252728 245.683193 
L 355.96197 245.003448 
L 367.275901 244.8 
L 367.275901 244.8 
" clip-path="url(#pb8bfe02492)" style="fill: none; stroke: #1f77b4; stroke-width: 2; stroke-linecap: square"/>
   </g>
   <g id="line2d_19">
    <path d="M 97.896591 307.8 
L 108.671763 299.3709 
L 119.446935 290.61652 
L 130.222108 283.608064 
L 140.99728 279.219776 
L 162.547625 275.682678 
L 227.198659 269.002491 
L 259.524177 266.753279 
L 291.849694 264.067373 
L 356.500728 260.87818 
" clip-path="url(#pb8bfe02492)" style="fill: none; stroke-dasharray: 3.7,1.6; stroke-dashoffset: 0; stroke: #1f77b4"/>
    <defs>
     <path id="mb083adfd68" d="M 0 3 
C 0.795609 3 1.55874 2.683901 2.12132 2.12132 
C 2.683901 1.55874 3 0.795609 3 0 
C 3 -0.795609 2.683901 -1.55874 2.12132 -2.12132 
C 1.55874 -2.683901 0.795609 -3 0 -3 
C -0.795609 -3 -1.55874 -2.683901 -2.12132 -2.12132 
C -2.683901 -1.55874 -3 -0.795609 -3 0 
C -3 0.795609 -2.683901 1.55874 -2.12132 2.12132 
C -1.55874 2.683901 -0.795609 3 0 3 
z
" style="stroke: #000000"/>
    </defs>
    <g clip-path="url(#pb8bfe02492)">
     <use xlink:href="#mb083adfd68" x="97.896591" y="307.8" style="fill: #1f77b4; stroke: #000000"/>
     <use xlink:href="#mb083adfd68" x="108.671763" y="299.3709" style="fill: #1f77b4; stroke: #000000"/>
     <use xlink:href="#mb083adfd68" x="119.446935" y="290.61652" style="fill: #1f77b4; stroke: #000000"/>
     <use xlink:href="#mb083adfd68" x="130.222108" y="283.608064" style="fill: #1f77b4; stroke: #000000"/>
     <use xlink:href="#mb083adfd68" x="140.99728" y="279.219776" style="fill: #1f77b4; stroke: #000000"/>
     <use xlink:href="#mb083adfd68" x="162.547625" y="275.682678" style="fill: #1f77b4; stroke: #000000"/>
     <use xlink:href="#mb083adfd68" x="227.198659" y="269.002491" style="fill: #1f77b4; stroke: #000000"/>
     <use xlink:href="#mb083adfd68" x="259.524177" y="266.753279" style="fill: #1f77b4; stroke: #000000"/>
     <use xlink:href="#mb083adfd68" x="291.849694" y="264.067373" style="fill: #1f77b4; stroke: #000000"/>
     <use xlink:href="#mb083adfd68" x="356.500728" y="260.87818" style="fill: #1f77b4; stroke: #000000"/>
    </g>
   </g>
   <g id="line2d_20">
    <path d="M 97.896591 307.8 
L 108.671763 298.934205 
L 119.446935 287.122964 
L 130.222108 280.551203 
L 140.99728 277.472144 
L 162.547625 273.499206 
L 227.198659 267.255713 
L 259.524177 265.442342 
L 291.849694 263.630679 
L 356.500728 260.441486 
" clip-path="url(#pb8bfe02492)" style="fill: none; stroke-dasharray: 3.7,1.6; stroke-dashoffset: 0; stroke: #1f77b4"/>
    <defs>
     <path id="m90e8c60fca" d="M -3 3 
L 3 3 
L 3 -3 
L -3 -3 
z
" style="stroke: #000000; stroke-linejoin: miter"/>
    </defs>
    <g clip-path="url(#pb8bfe02492)">
     <use xlink:href="#m90e8c60fca" x="97.896591" y="307.8" style="fill: #1f77b4; stroke: #000000; stroke-linejoin: miter"/>
     <use xlink:href="#m90e8c60fca" x="108.671763" y="298.934205" style="fill: #1f77b4; stroke: #000000; stroke-linejoin: miter"/>
     <use xlink:href="#m90e8c60fca" x="119.446935" y="287.122964" style="fill: #1f77b4; stroke: #000000; stroke-linejoin: miter"/>
     <use xlink:href="#m90e8c60fca" x="130.222108" y="280.551203" style="fill: #1f77b4; stroke: #000000; stroke-linejoin: miter"/>
     <use xlink:href="#m90e8c60fca" x="140.99728" y="277.472144" style="fill: #1f77b4; stroke: #000000; stroke-linejoin: miter"/>
     <use xlink:href="#m90e8c60fca" x="162.547625" y="273.499206" style="fill: #1f77b4; stroke: #000000; stroke-linejoin: miter"/>
     <use xlink:href="#m90e8c60fca" x="227.198659" y="267.255713" style="fill: #1f77b4; stroke: #000000; stroke-linejoin: miter"/>
     <use xlink:href="#m90e8c60fca" x="259.524177" y="265.442342" style="fill: #1f77b4; stroke: #000000; stroke-linejoin: miter"/>
     <use xlink:href="#m90e8c60fca" x="291.849694" y="263.630679" style="fill: #1f77b4; stroke: #000000; stroke-linejoin: miter"/>
     <use xlink:href="#m90e8c60fca" x="356.500728" y="260.441486" style="fill: #1f77b4; stroke: #000000; stroke-linejoin: miter"/>
    </g>
   </g>
   <g id="line2d_21">
    <path d="M 97.896591 307.8 
L 98.974108 307.692095 
L 99.512866 307.480577 
L 100.051625 307.136202 
L 101.129142 306.055707 
L 102.206659 304.518018 
L 103.284177 302.622911 
L 104.900453 299.315608 
L 107.594246 293.154132 
L 114.059349 278.144207 
L 117.291901 271.240865 
L 120.524453 264.855796 
L 123.757004 258.9776 
L 126.989556 253.574344 
L 130.222108 248.608785 
L 133.454659 244.043981 
L 136.687211 239.845207 
L 139.919763 235.980473 
L 143.152315 232.420543 
L 146.923625 228.617127 
L 150.694935 225.154216 
L 154.466246 221.9976 
L 158.237556 219.116646 
L 162.547625 216.126622 
L 166.857694 213.424518 
L 171.167763 210.978234 
L 176.016591 208.496829 
L 180.865418 206.268137 
L 186.253004 204.051012 
L 191.640591 202.07173 
L 197.566935 200.132196 
L 204.032039 198.260373 
L 211.035901 196.476855 
L 218.578522 194.795348 
L 226.659901 193.223525 
L 235.818797 191.679411 
L 245.516453 190.269332 
L 256.291625 188.922258 
L 268.683073 187.602286 
L 282.690797 186.34374 
L 298.314797 185.168957 
L 316.093832 184.060487 
L 336.566659 183.016734 
L 359.73328 182.066361 
L 367.275901 181.8 
L 367.275901 181.8 
" clip-path="url(#pb8bfe02492)" style="fill: none; stroke: #2ca02c; stroke-width: 2; stroke-linecap: square"/>
   </g>
   <g id="line2d_22">
    <path d="M 97.896591 307.8 
L 108.671763 293.257177 
L 119.446935 268.781796 
L 130.222108 254.786228 
L 140.99728 246.904383 
L 162.547625 239.437036 
L 227.198659 229.699986 
L 259.524177 226.140692 
L 291.849694 223.454786 
L 356.500728 220.265593 
" clip-path="url(#pb8bfe02492)" style="fill: none; stroke-dasharray: 3.7,1.6; stroke-dashoffset: 0; stroke: #2ca02c"/>
    <defs>
     <path id="m33ccb45fee" d="M 0 3 
C 0.795609 3 1.55874 2.683901 2.12132 2.12132 
C 2.683901 1.55874 3 0.795609 3 0 
C 3 -0.795609 2.683901 -1.55874 2.12132 -2.12132 
C 1.55874 -2.683901 0.795609 -3 0 -3 
C -0.795609 -3 -1.55874 -2.683901 -2.12132 -2.12132 
C -2.683901 -1.55874 -3 -0.795609 -3 0 
C -3 0.795609 -2.683901 1.55874 -2.12132 2.12132 
C -1.55874 2.683901 -0.795609 3 0 3 
z
" style="stroke: #000000"/>
    </defs>
    <g clip-path="url(#pb8bfe02492)">
     <use xlink:href="#m33ccb45fee" x="97.896591" y="307.8" style="fill: #2ca02c; stroke: #000000"/>
     <use xlink:href="#m33ccb45fee" x="108.671763" y="293.257177" style="fill: #2ca02c; stroke: #000000"/>
     <use xlink:href="#m33ccb45fee" x="119.446935" y="268.781796" style="fill: #2ca02c; stroke: #000000"/>
     <use xlink:href="#m33ccb45fee" x="130.222108" y="254.786228" style="fill: #2ca02c; stroke: #000000"/>
     <use xlink:href="#m33ccb45fee" x="140.99728" y="246.904383" style="fill: #2ca02c; stroke: #000000"/>
     <use xlink:href="#m33ccb45fee" x="162.547625" y="239.437036" style="fill: #2ca02c; stroke: #000000"/>
     <use xlink:href="#m33ccb45fee" x="227.198659" y="229.699986" style="fill: #2ca02c; stroke: #000000"/>
     <use xlink:href="#m33ccb45fee" x="259.524177" y="226.140692" style="fill: #2ca02c; stroke: #000000"/>
     <use xlink:href="#m33ccb45fee" x="291.849694" y="223.454786" style="fill: #2ca02c; stroke: #000000"/>
     <use xlink:href="#m33ccb45fee" x="356.500728" y="220.265593" style="fill: #2ca02c; stroke: #000000"/>
    </g>
   </g>
   <g id="line2d_23">
    <path d="M 97.896591 307.8 
L 108.671763 287.580149 
L 119.446935 263.542315 
L 130.222108 252.166915 
L 140.99728 244.720911 
L 162.547625 237.254417 
L 227.198659 226.207284 
L 259.524177 221.7746 
L 291.849694 219.087841 
L 356.500728 215.461953 
" clip-path="url(#pb8bfe02492)" style="fill: none; stroke-dasharray: 3.7,1.6; stroke-dashoffset: 0; stroke: #2ca02c"/>
    <defs>
     <path id="mb7c74aee12" d="M -3 3 
L 3 3 
L 3 -3 
L -3 -3 
z
" style="stroke: #000000; stroke-linejoin: miter"/>
    </defs>
    <g clip-path="url(#pb8bfe02492)">
     <use xlink:href="#mb7c74aee12" x="97.896591" y="307.8" style="fill: #2ca02c; stroke: #000000; stroke-linejoin: miter"/>
     <use xlink:href="#mb7c74aee12" x="108.671763" y="287.580149" style="fill: #2ca02c; stroke: #000000; stroke-linejoin: miter"/>
     <use xlink:href="#mb7c74aee12" x="119.446935" y="263.542315" style="fill: #2ca02c; stroke: #000000; stroke-linejoin: miter"/>
     <use xlink:href="#mb7c74aee12" x="130.222108" y="252.166915" style="fill: #2ca02c; stroke: #000000; stroke-linejoin: miter"/>
     <use xlink:href="#mb7c74aee12" x="140.99728" y="244.720911" style="fill: #2ca02c; stroke: #000000; stroke-linejoin: miter"/>
     <use xlink:href="#mb7c74aee12" x="162.547625" y="237.254417" style="fill: #2ca02c; stroke: #000000; stroke-linejoin: miter"/>
     <use xlink:href="#mb7c74aee12" x="227.198659" y="226.207284" style="fill: #2ca02c; stroke: #000000; stroke-linejoin: miter"/>
     <use xlink:href="#mb7c74aee12" x="259.524177" y="221.7746" style="fill: #2ca02c; stroke: #000000; stroke-linejoin: miter"/>
     <use xlink:href="#mb7c74aee12" x="291.849694" y="219.087841" style="fill: #2ca02c; stroke: #000000; stroke-linejoin: miter"/>
     <use xlink:href="#mb7c74aee12" x="356.500728" y="215.461953" style="fill: #2ca02c; stroke: #000000; stroke-linejoin: miter"/>
    </g>
   </g>
   <g id="line2d_24">
    <path d="M 97.896591 307.8 
L 98.435349 307.770089 
L 98.974108 307.584191 
L 99.512866 307.161154 
L 100.051625 306.472404 
L 100.590384 305.517617 
L 101.667901 302.87584 
L 102.745418 299.417733 
L 104.361694 293.132327 
L 106.516728 283.549611 
L 115.136866 243.773123 
L 118.369418 230.30957 
L 121.60197 217.882882 
L 124.834522 206.451104 
L 128.067073 195.944766 
L 131.299625 186.288848 
L 134.532177 177.410714 
L 137.764728 169.242693 
L 140.99728 161.72266 
L 144.229832 154.793918 
L 147.462384 148.404835 
L 150.694935 142.508433 
L 153.927487 137.061979 
L 157.160039 132.026606 
L 160.392591 127.366953 
L 163.625142 123.050853 
L 167.396453 118.410714 
L 171.167763 114.156468 
L 174.939073 110.250492 
L 178.710384 106.659063 
L 182.481694 103.351945 
L 186.791763 99.885866 
L 191.101832 96.71976 
L 195.411901 93.821774 
L 200.260728 90.847084 
L 205.109556 88.140955 
L 210.497142 85.41191 
L 215.884728 82.940114 
L 221.811073 80.480926 
L 227.737418 78.259372 
L 234.202522 76.071315 
L 241.206384 73.94082 
L 248.749004 71.886141 
L 256.830384 69.920295 
L 265.450522 68.05183 
L 275.148177 66.188055 
L 285.384591 64.451103 
L 296.698522 62.761829 
L 309.08997 61.143641 
L 322.558935 59.61373 
L 337.105418 58.184178 
L 353.268177 56.82088 
L 367.275901 55.8 
L 367.275901 55.8 
" clip-path="url(#pb8bfe02492)" style="fill: none; stroke: #d62728; stroke-width: 2; stroke-linecap: square"/>
   </g>
   <g id="line2d_25">
    <path d="M 97.896591 307.8 
L 108.671763 269.676528 
L 119.446935 218.563637 
L 130.222108 191.903075 
L 140.99728 179.217591 
L 162.547625 161.70627 
L 227.198659 137.994997 
L 259.524177 130.942146 
L 291.849694 125.636074 
L 356.500728 119.826714 
" clip-path="url(#pb8bfe02492)" style="fill: none; stroke-dasharray: 3.7,1.6; stroke-dashoffset: 0; stroke: #d62728"/>
    <defs>
     <path id="mfa84a4da32" d="M 0 3 
C 0.795609 3 1.55874 2.683901 2.12132 2.12132 
C 2.683901 1.55874 3 0.795609 3 0 
C 3 -0.795609 2.683901 -1.55874 2.12132 -2.12132 
C 1.55874 -2.683901 0.795609 -3 0 -3 
C -0.795609 -3 -1.55874 -2.683901 -2.12132 -2.12132 
C -2.683901 -1.55874 -3 -0.795609 -3 0 
C -3 0.795609 -2.683901 1.55874 -2.12132 2.12132 
C -1.55874 2.683901 -0.795609 3 0 3 
z
" style="stroke: #000000"/>
    </defs>
    <g clip-path="url(#pb8bfe02492)">
     <use xlink:href="#mfa84a4da32" x="97.896591" y="307.8" style="fill: #d62728; stroke: #000000"/>
     <use xlink:href="#mfa84a4da32" x="108.671763" y="269.676528" style="fill: #d62728; stroke: #000000"/>
     <use xlink:href="#mfa84a4da32" x="119.446935" y="218.563637" style="fill: #d62728; stroke: #000000"/>
     <use xlink:href="#mfa84a4da32" x="130.222108" y="191.903075" style="fill: #d62728; stroke: #000000"/>
     <use xlink:href="#mfa84a4da32" x="140.99728" y="179.217591" style="fill: #d62728; stroke: #000000"/>
     <use xlink:href="#mfa84a4da32" x="162.547625" y="161.70627" style="fill: #d62728; stroke: #000000"/>
     <use xlink:href="#mfa84a4da32" x="227.198659" y="137.994997" style="fill: #d62728; stroke: #000000"/>
     <use xlink:href="#mfa84a4da32" x="259.524177" y="130.942146" style="fill: #d62728; stroke: #000000"/>
     <use xlink:href="#mfa84a4da32" x="291.849694" y="125.636074" style="fill: #d62728; stroke: #000000"/>
     <use xlink:href="#mfa84a4da32" x="356.500728" y="119.826714" style="fill: #d62728; stroke: #000000"/>
    </g>
   </g>
   <g id="line2d_26">
    <path d="M 97.896591 307.8 
L 108.671763 261.816027 
L 119.446935 215.505921 
L 130.222108 186.226047 
L 140.99728 169.610312 
L 162.547625 149.04213 
L 227.198659 129.261107 
L 259.524177 120.461479 
L 291.849694 116.028795 
L 356.500728 109.346046 
" clip-path="url(#pb8bfe02492)" style="fill: none; stroke-dasharray: 3.7,1.6; stroke-dashoffset: 0; stroke: #d62728"/>
    <defs>
     <path id="m32e8c98a6b" d="M -3 3 
L 3 3 
L 3 -3 
L -3 -3 
z
" style="stroke: #000000; stroke-linejoin: miter"/>
    </defs>
    <g clip-path="url(#pb8bfe02492)">
     <use xlink:href="#m32e8c98a6b" x="97.896591" y="307.8" style="fill: #d62728; stroke: #000000; stroke-linejoin: miter"/>
     <use xlink:href="#m32e8c98a6b" x="108.671763" y="261.816027" style="fill: #d62728; stroke: #000000; stroke-linejoin: miter"/>
     <use xlink:href="#m32e8c98a6b" x="119.446935" y="215.505921" style="fill: #d62728; stroke: #000000; stroke-linejoin: miter"/>
     <use xlink:href="#m32e8c98a6b" x="130.222108" y="186.226047" style="fill: #d62728; stroke: #000000; stroke-linejoin: miter"/>
     <use xlink:href="#m32e8c98a6b" x="140.99728" y="169.610312" style="fill: #d62728; stroke: #000000; stroke-linejoin: miter"/>
     <use xlink:href="#m32e8c98a6b" x="162.547625" y="149.04213" style="fill: #d62728; stroke: #000000; stroke-linejoin: miter"/>
     <use xlink:href="#m32e8c98a6b" x="227.198659" y="129.261107" style="fill: #d62728; stroke: #000000; stroke-linejoin: miter"/>
     <use xlink:href="#m32e8c98a6b" x="259.524177" y="120.461479" style="fill: #d62728; stroke: #000000; stroke-linejoin: miter"/>
     <use xlink:href="#m32e8c98a6b" x="291.849694" y="116.028795" style="fill: #d62728; stroke: #000000; stroke-linejoin: miter"/>
     <use xlink:href="#m32e8c98a6b" x="356.500728" y="109.346046" style="fill: #d62728; stroke: #000000; stroke-linejoin: miter"/>
    </g>
   </g>
   <g id="patch_3">
    <path d="M 84.427625 320.4 
L 84.427625 43.2 
" style="fill: none; stroke: #000000; stroke-width: 0.8; stroke-linejoin: miter; stroke-linecap: square"/>
   </g>
   <g id="patch_4">
    <path d="M 475.027625 320.4 
L 475.027625 43.2 
" style="fill: none; stroke: #000000; stroke-width: 0.8; stroke-linejoin: miter; stroke-linecap: square"/>
   </g>
   <g id="patch_5">
    <path d="M 84.427625 320.4 
L 475.027625 320.4 
" style="fill: none; stroke: #000000; stroke-width: 0.8; stroke-linejoin: miter; stroke-linecap: square"/>
   </g>
   <g id="patch_6">
    <path d="M 84.427625 43.2 
L 475.027625 43.2 
" style="fill: none; stroke: #000000; stroke-width: 0.8; stroke-linejoin: miter; stroke-linecap: square"/>
   </g>
   <g id="legend_1">
    <g id="patch_7">
     <path d="M 339.315125 227.3375 
L 468.027625 227.3375 
Q 470.027625 227.3375 470.027625 225.3375 
L 470.027625 50.2 
Q 470.027625 48.2 468.027625 48.2 
L 339.315125 48.2 
Q 337.315125 48.2 337.315125 50.2 
L 337.315125 225.3375 
Q 337.315125 227.3375 339.315125 227.3375 
z
" style="fill: #ffffff; opacity: 0.8; stroke: #cccccc; stroke-linejoin: miter"/>
    </g>
    <g id="line2d_27">
     <path d="M 341.315125 56.298437 
L 361.315125 56.298437 
" style="fill: none; stroke: #000000; stroke-width: 2; stroke-linecap: square"/>
    </g>
    <g id="line2d_28"/>
    <g id="text_17">
     <!-- Sim 25 -->
     <g transform="translate(369.315125 59.798437) scale(0.1 -0.1)">
      <defs>
       <path id="DejaVuSans-53" d="M 3425 4513 
L 3425 3897 
Q 3066 4069 2747 4153 
Q 2428 4238 2131 4238 
Q 1616 4238 1336 4038 
Q 1056 3838 1056 3469 
Q 1056 3159 1242 3001 
Q 1428 2844 1947 2747 
L 2328 2669 
Q 3034 2534 3370 2195 
Q 3706 1856 3706 1288 
Q 3706 609 3251 259 
Q 2797 -91 1919 -91 
Q 1588 -91 1214 -16 
Q 841 59 441 206 
L 441 856 
Q 825 641 1194 531 
Q 1563 422 1919 422 
Q 2459 422 2753 634 
Q 3047 847 3047 1241 
Q 3047 1584 2836 1778 
Q 2625 1972 2144 2069 
L 1759 2144 
Q 1053 2284 737 2584 
Q 422 2884 422 3419 
Q 422 4038 858 4394 
Q 1294 4750 2059 4750 
Q 2388 4750 2728 4690 
Q 3069 4631 3425 4513 
z
" transform="scale(0.015625)"/>
       <path id="DejaVuSans-69" d="M 603 3500 
L 1178 3500 
L 1178 0 
L 603 0 
L 603 3500 
z
M 603 4863 
L 1178 4863 
L 1178 4134 
L 603 4134 
L 603 4863 
z
" transform="scale(0.015625)"/>
       <path id="DejaVuSans-6d" d="M 3328 2828 
Q 3544 3216 3844 3400 
Q 4144 3584 4550 3584 
Q 5097 3584 5394 3201 
Q 5691 2819 5691 2113 
L 5691 0 
L 5113 0 
L 5113 2094 
Q 5113 2597 4934 2840 
Q 4756 3084 4391 3084 
Q 3944 3084 3684 2787 
Q 3425 2491 3425 1978 
L 3425 0 
L 2847 0 
L 2847 2094 
Q 2847 2600 2669 2842 
Q 2491 3084 2119 3084 
Q 1678 3084 1418 2786 
Q 1159 2488 1159 1978 
L 1159 0 
L 581 0 
L 581 3500 
L 1159 3500 
L 1159 2956 
Q 1356 3278 1631 3431 
Q 1906 3584 2284 3584 
Q 2666 3584 2933 3390 
Q 3200 3197 3328 2828 
z
" transform="scale(0.015625)"/>
       <path id="DejaVuSans-20" transform="scale(0.015625)"/>
      </defs>
      <use xlink:href="#DejaVuSans-53"/>
      <use xlink:href="#DejaVuSans-69" transform="translate(63.476562 0)"/>
      <use xlink:href="#DejaVuSans-6d" transform="translate(91.259766 0)"/>
      <use xlink:href="#DejaVuSans-20" transform="translate(188.671875 0)"/>
      <use xlink:href="#DejaVuSans-32" transform="translate(220.458984 0)"/>
      <use xlink:href="#DejaVuSans-35" transform="translate(284.082031 0)"/>
     </g>
    </g>
    <g id="line2d_29">
     <path d="M 341.315125 70.976562 
L 361.315125 70.976562 
" style="fill: none; stroke-dasharray: 3.7,1.6; stroke-dashoffset: 0; stroke: #000000"/>
    </g>
    <g id="line2d_30">
     <g>
      <use xlink:href="#md087db1f44" x="351.315125" y="70.976562" style="stroke: #000000"/>
     </g>
    </g>
    <g id="text_18">
     <!-- 25 mg tab (n=12) -->
     <g transform="translate(369.315125 74.476562) scale(0.1 -0.1)">
      <defs>
       <path id="DejaVuSans-67" d="M 2906 1791 
Q 2906 2416 2648 2759 
Q 2391 3103 1925 3103 
Q 1463 3103 1205 2759 
Q 947 2416 947 1791 
Q 947 1169 1205 825 
Q 1463 481 1925 481 
Q 2391 481 2648 825 
Q 2906 1169 2906 1791 
z
M 3481 434 
Q 3481 -459 3084 -895 
Q 2688 -1331 1869 -1331 
Q 1566 -1331 1297 -1286 
Q 1028 -1241 775 -1147 
L 775 -588 
Q 1028 -725 1275 -790 
Q 1522 -856 1778 -856 
Q 2344 -856 2625 -561 
Q 2906 -266 2906 331 
L 2906 616 
Q 2728 306 2450 153 
Q 2172 0 1784 0 
Q 1141 0 747 490 
Q 353 981 353 1791 
Q 353 2603 747 3093 
Q 1141 3584 1784 3584 
Q 2172 3584 2450 3431 
Q 2728 3278 2906 2969 
L 2906 3500 
L 3481 3500 
L 3481 434 
z
" transform="scale(0.015625)"/>
       <path id="DejaVuSans-74" d="M 1172 4494 
L 1172 3500 
L 2356 3500 
L 2356 3053 
L 1172 3053 
L 1172 1153 
Q 1172 725 1289 603 
Q 1406 481 1766 481 
L 2356 481 
L 2356 0 
L 1766 0 
Q 1100 0 847 248 
Q 594 497 594 1153 
L 594 3053 
L 172 3053 
L 172 3500 
L 594 3500 
L 594 4494 
L 1172 4494 
z
" transform="scale(0.015625)"/>
       <path id="DejaVuSans-61" d="M 2194 1759 
Q 1497 1759 1228 1600 
Q 959 1441 959 1056 
Q 959 750 1161 570 
Q 1363 391 1709 391 
Q 2188 391 2477 730 
Q 2766 1069 2766 1631 
L 2766 1759 
L 2194 1759 
z
M 3341 1997 
L 3341 0 
L 2766 0 
L 2766 531 
Q 2569 213 2275 61 
Q 1981 -91 1556 -91 
Q 1019 -91 701 211 
Q 384 513 384 1019 
Q 384 1609 779 1909 
Q 1175 2209 1959 2209 
L 2766 2209 
L 2766 2266 
Q 2766 2663 2505 2880 
Q 2244 3097 1772 3097 
Q 1472 3097 1187 3025 
Q 903 2953 641 2809 
L 641 3341 
Q 956 3463 1253 3523 
Q 1550 3584 1831 3584 
Q 2591 3584 2966 3190 
Q 3341 2797 3341 1997 
z
" transform="scale(0.015625)"/>
       <path id="DejaVuSans-62" d="M 3116 1747 
Q 3116 2381 2855 2742 
Q 2594 3103 2138 3103 
Q 1681 3103 1420 2742 
Q 1159 2381 1159 1747 
Q 1159 1113 1420 752 
Q 1681 391 2138 391 
Q 2594 391 2855 752 
Q 3116 1113 3116 1747 
z
M 1159 2969 
Q 1341 3281 1617 3432 
Q 1894 3584 2278 3584 
Q 2916 3584 3314 3078 
Q 3713 2572 3713 1747 
Q 3713 922 3314 415 
Q 2916 -91 2278 -91 
Q 1894 -91 1617 61 
Q 1341 213 1159 525 
L 1159 0 
L 581 0 
L 581 4863 
L 1159 4863 
L 1159 2969 
z
" transform="scale(0.015625)"/>
       <path id="DejaVuSans-28" d="M 1984 4856 
Q 1566 4138 1362 3434 
Q 1159 2731 1159 2009 
Q 1159 1288 1364 580 
Q 1569 -128 1984 -844 
L 1484 -844 
Q 1016 -109 783 600 
Q 550 1309 550 2009 
Q 550 2706 781 3412 
Q 1013 4119 1484 4856 
L 1984 4856 
z
" transform="scale(0.015625)"/>
       <path id="DejaVuSans-6e" d="M 3513 2113 
L 3513 0 
L 2938 0 
L 2938 2094 
Q 2938 2591 2744 2837 
Q 2550 3084 2163 3084 
Q 1697 3084 1428 2787 
Q 1159 2491 1159 1978 
L 1159 0 
L 581 0 
L 581 3500 
L 1159 3500 
L 1159 2956 
Q 1366 3272 1645 3428 
Q 1925 3584 2291 3584 
Q 2894 3584 3203 3211 
Q 3513 2838 3513 2113 
z
" transform="scale(0.015625)"/>
       <path id="DejaVuSans-3d" d="M 678 2906 
L 4684 2906 
L 4684 2381 
L 678 2381 
L 678 2906 
z
M 678 1631 
L 4684 1631 
L 4684 1100 
L 678 1100 
L 678 1631 
z
" transform="scale(0.015625)"/>
       <path id="DejaVuSans-29" d="M 513 4856 
L 1013 4856 
Q 1481 4119 1714 3412 
Q 1947 2706 1947 2009 
Q 1947 1309 1714 600 
Q 1481 -109 1013 -844 
L 513 -844 
Q 928 -128 1133 580 
Q 1338 1288 1338 2009 
Q 1338 2731 1133 3434 
Q 928 4138 513 4856 
z
" transform="scale(0.015625)"/>
      </defs>
      <use xlink:href="#DejaVuSans-32"/>
      <use xlink:href="#DejaVuSans-35" transform="translate(63.623047 0)"/>
      <use xlink:href="#DejaVuSans-20" transform="translate(127.246094 0)"/>
      <use xlink:href="#DejaVuSans-6d" transform="translate(159.033203 0)"/>
      <use xlink:href="#DejaVuSans-67" transform="translate(256.445312 0)"/>
      <use xlink:href="#DejaVuSans-20" transform="translate(319.921875 0)"/>
      <use xlink:href="#DejaVuSans-74" transform="translate(351.708984 0)"/>
      <use xlink:href="#DejaVuSans-61" transform="translate(390.917969 0)"/>
      <use xlink:href="#DejaVuSans-62" transform="translate(452.197266 0)"/>
      <use xlink:href="#DejaVuSans-20" transform="translate(515.673828 0)"/>
      <use xlink:href="#DejaVuSans-28" transform="translate(547.460938 0)"/>
      <use xlink:href="#DejaVuSans-6e" transform="translate(586.474609 0)"/>
      <use xlink:href="#DejaVuSans-3d" transform="translate(649.853516 0)"/>
      <use xlink:href="#DejaVuSans-31" transform="translate(733.642578 0)"/>
      <use xlink:href="#DejaVuSans-32" transform="translate(797.265625 0)"/>
      <use xlink:href="#DejaVuSans-29" transform="translate(860.888672 0)"/>
     </g>
    </g>
    <g id="line2d_31">
     <path d="M 341.315125 85.654687 
L 361.315125 85.654687 
" style="fill: none; stroke-dasharray: 3.7,1.6; stroke-dashoffset: 0; stroke: #000000"/>
    </g>
    <g id="line2d_32">
     <g>
      <use xlink:href="#m8e1af070e6" x="351.315125" y="85.654687" style="stroke: #000000; stroke-linejoin: miter"/>
     </g>
    </g>
    <g id="text_19">
     <!-- 25 mg sus (n=12) -->
     <g transform="translate(369.315125 89.154687) scale(0.1 -0.1)">
      <defs>
       <path id="DejaVuSans-73" d="M 2834 3397 
L 2834 2853 
Q 2591 2978 2328 3040 
Q 2066 3103 1784 3103 
Q 1356 3103 1142 2972 
Q 928 2841 928 2578 
Q 928 2378 1081 2264 
Q 1234 2150 1697 2047 
L 1894 2003 
Q 2506 1872 2764 1633 
Q 3022 1394 3022 966 
Q 3022 478 2636 193 
Q 2250 -91 1575 -91 
Q 1294 -91 989 -36 
Q 684 19 347 128 
L 347 722 
Q 666 556 975 473 
Q 1284 391 1588 391 
Q 1994 391 2212 530 
Q 2431 669 2431 922 
Q 2431 1156 2273 1281 
Q 2116 1406 1581 1522 
L 1381 1569 
Q 847 1681 609 1914 
Q 372 2147 372 2553 
Q 372 3047 722 3315 
Q 1072 3584 1716 3584 
Q 2034 3584 2315 3537 
Q 2597 3491 2834 3397 
z
" transform="scale(0.015625)"/>
       <path id="DejaVuSans-75" d="M 544 1381 
L 544 3500 
L 1119 3500 
L 1119 1403 
Q 1119 906 1312 657 
Q 1506 409 1894 409 
Q 2359 409 2629 706 
Q 2900 1003 2900 1516 
L 2900 3500 
L 3475 3500 
L 3475 0 
L 2900 0 
L 2900 538 
Q 2691 219 2414 64 
Q 2138 -91 1772 -91 
Q 1169 -91 856 284 
Q 544 659 544 1381 
z
M 1991 3584 
L 1991 3584 
z
" transform="scale(0.015625)"/>
      </defs>
      <use xlink:href="#DejaVuSans-32"/>
      <use xlink:href="#DejaVuSans-35" transform="translate(63.623047 0)"/>
      <use xlink:href="#DejaVuSans-20" transform="translate(127.246094 0)"/>
      <use xlink:href="#DejaVuSans-6d" transform="translate(159.033203 0)"/>
      <use xlink:href="#DejaVuSans-67" transform="translate(256.445312 0)"/>
      <use xlink:href="#DejaVuSans-20" transform="translate(319.921875 0)"/>
      <use xlink:href="#DejaVuSans-73" transform="translate(351.708984 0)"/>
      <use xlink:href="#DejaVuSans-75" transform="translate(403.808594 0)"/>
      <use xlink:href="#DejaVuSans-73" transform="translate(467.1875 0)"/>
      <use xlink:href="#DejaVuSans-20" transform="translate(519.287109 0)"/>
      <use xlink:href="#DejaVuSans-28" transform="translate(551.074219 0)"/>
      <use xlink:href="#DejaVuSans-6e" transform="translate(590.087891 0)"/>
      <use xlink:href="#DejaVuSans-3d" transform="translate(653.466797 0)"/>
      <use xlink:href="#DejaVuSans-31" transform="translate(737.255859 0)"/>
      <use xlink:href="#DejaVuSans-32" transform="translate(800.878906 0)"/>
      <use xlink:href="#DejaVuSans-29" transform="translate(864.501953 0)"/>
     </g>
    </g>
    <g id="line2d_33">
     <path d="M 341.315125 100.332812 
L 361.315125 100.332812 
" style="fill: none; stroke: #1f77b4; stroke-width: 2; stroke-linecap: square"/>
    </g>
    <g id="line2d_34"/>
    <g id="text_20">
     <!-- Sim 50 -->
     <g transform="translate(369.315125 103.832812) scale(0.1 -0.1)">
      <use xlink:href="#DejaVuSans-53"/>
      <use xlink:href="#DejaVuSans-69" transform="translate(63.476562 0)"/>
      <use xlink:href="#DejaVuSans-6d" transform="translate(91.259766 0)"/>
      <use xlink:href="#DejaVuSans-20" transform="translate(188.671875 0)"/>
      <use xlink:href="#DejaVuSans-35" transform="translate(220.458984 0)"/>
      <use xlink:href="#DejaVuSans-30" transform="translate(284.082031 0)"/>
     </g>
    </g>
    <g id="line2d_35">
     <path d="M 341.315125 115.010937 
L 361.315125 115.010937 
" style="fill: none; stroke-dasharray: 3.7,1.6; stroke-dashoffset: 0; stroke: #1f77b4"/>
    </g>
    <g id="line2d_36">
     <g>
      <use xlink:href="#mb083adfd68" x="351.315125" y="115.010937" style="fill: #1f77b4; stroke: #000000"/>
     </g>
    </g>
    <g id="text_21">
     <!-- 50 mg tab (n=12) -->
     <g transform="translate(369.315125 118.510937) scale(0.1 -0.1)">
      <use xlink:href="#DejaVuSans-35"/>
      <use xlink:href="#DejaVuSans-30" transform="translate(63.623047 0)"/>
      <use xlink:href="#DejaVuSans-20" transform="translate(127.246094 0)"/>
      <use xlink:href="#DejaVuSans-6d" transform="translate(159.033203 0)"/>
      <use xlink:href="#DejaVuSans-67" transform="translate(256.445312 0)"/>
      <use xlink:href="#DejaVuSans-20" transform="translate(319.921875 0)"/>
      <use xlink:href="#DejaVuSans-74" transform="translate(351.708984 0)"/>
      <use xlink:href="#DejaVuSans-61" transform="translate(390.917969 0)"/>
      <use xlink:href="#DejaVuSans-62" transform="translate(452.197266 0)"/>
      <use xlink:href="#DejaVuSans-20" transform="translate(515.673828 0)"/>
      <use xlink:href="#DejaVuSans-28" transform="translate(547.460938 0)"/>
      <use xlink:href="#DejaVuSans-6e" transform="translate(586.474609 0)"/>
      <use xlink:href="#DejaVuSans-3d" transform="translate(649.853516 0)"/>
      <use xlink:href="#DejaVuSans-31" transform="translate(733.642578 0)"/>
      <use xlink:href="#DejaVuSans-32" transform="translate(797.265625 0)"/>
      <use xlink:href="#DejaVuSans-29" transform="translate(860.888672 0)"/>
     </g>
    </g>
    <g id="line2d_37">
     <path d="M 341.315125 129.689062 
L 361.315125 129.689062 
" style="fill: none; stroke-dasharray: 3.7,1.6; stroke-dashoffset: 0; stroke: #1f77b4"/>
    </g>
    <g id="line2d_38">
     <g>
      <use xlink:href="#m90e8c60fca" x="351.315125" y="129.689062" style="fill: #1f77b4; stroke: #000000; stroke-linejoin: miter"/>
     </g>
    </g>
    <g id="text_22">
     <!-- 50 mg sus (n=12) -->
     <g transform="translate(369.315125 133.189062) scale(0.1 -0.1)">
      <use xlink:href="#DejaVuSans-35"/>
      <use xlink:href="#DejaVuSans-30" transform="translate(63.623047 0)"/>
      <use xlink:href="#DejaVuSans-20" transform="translate(127.246094 0)"/>
      <use xlink:href="#DejaVuSans-6d" transform="translate(159.033203 0)"/>
      <use xlink:href="#DejaVuSans-67" transform="translate(256.445312 0)"/>
      <use xlink:href="#DejaVuSans-20" transform="translate(319.921875 0)"/>
      <use xlink:href="#DejaVuSans-73" transform="translate(351.708984 0)"/>
      <use xlink:href="#DejaVuSans-75" transform="translate(403.808594 0)"/>
      <use xlink:href="#DejaVuSans-73" transform="translate(467.1875 0)"/>
      <use xlink:href="#DejaVuSans-20" transform="translate(519.287109 0)"/>
      <use xlink:href="#DejaVuSans-28" transform="translate(551.074219 0)"/>
      <use xlink:href="#DejaVuSans-6e" transform="translate(590.087891 0)"/>
      <use xlink:href="#DejaVuSans-3d" transform="translate(653.466797 0)"/>
      <use xlink:href="#DejaVuSans-31" transform="translate(737.255859 0)"/>
      <use xlink:href="#DejaVuSans-32" transform="translate(800.878906 0)"/>
      <use xlink:href="#DejaVuSans-29" transform="translate(864.501953 0)"/>
     </g>
    </g>
    <g id="line2d_39">
     <path d="M 341.315125 144.367187 
L 361.315125 144.367187 
" style="fill: none; stroke: #2ca02c; stroke-width: 2; stroke-linecap: square"/>
    </g>
    <g id="line2d_40"/>
    <g id="text_23">
     <!-- Sim 100 -->
     <g transform="translate(369.315125 147.867187) scale(0.1 -0.1)">
      <use xlink:href="#DejaVuSans-53"/>
      <use xlink:href="#DejaVuSans-69" transform="translate(63.476562 0)"/>
      <use xlink:href="#DejaVuSans-6d" transform="translate(91.259766 0)"/>
      <use xlink:href="#DejaVuSans-20" transform="translate(188.671875 0)"/>
      <use xlink:href="#DejaVuSans-31" transform="translate(220.458984 0)"/>
      <use xlink:href="#DejaVuSans-30" transform="translate(284.082031 0)"/>
      <use xlink:href="#DejaVuSans-30" transform="translate(347.705078 0)"/>
     </g>
    </g>
    <g id="line2d_41">
     <path d="M 341.315125 159.045312 
L 361.315125 159.045312 
" style="fill: none; stroke-dasharray: 3.7,1.6; stroke-dashoffset: 0; stroke: #2ca02c"/>
    </g>
    <g id="line2d_42">
     <g>
      <use xlink:href="#m33ccb45fee" x="351.315125" y="159.045312" style="fill: #2ca02c; stroke: #000000"/>
     </g>
    </g>
    <g id="text_24">
     <!-- 100 mg tab (n=12) -->
     <g transform="translate(369.315125 162.545312) scale(0.1 -0.1)">
      <use xlink:href="#DejaVuSans-31"/>
      <use xlink:href="#DejaVuSans-30" transform="translate(63.623047 0)"/>
      <use xlink:href="#DejaVuSans-30" transform="translate(127.246094 0)"/>
      <use xlink:href="#DejaVuSans-20" transform="translate(190.869141 0)"/>
      <use xlink:href="#DejaVuSans-6d" transform="translate(222.65625 0)"/>
      <use xlink:href="#DejaVuSans-67" transform="translate(320.068359 0)"/>
      <use xlink:href="#DejaVuSans-20" transform="translate(383.544922 0)"/>
      <use xlink:href="#DejaVuSans-74" transform="translate(415.332031 0)"/>
      <use xlink:href="#DejaVuSans-61" transform="translate(454.541016 0)"/>
      <use xlink:href="#DejaVuSans-62" transform="translate(515.820312 0)"/>
      <use xlink:href="#DejaVuSans-20" transform="translate(579.296875 0)"/>
      <use xlink:href="#DejaVuSans-28" transform="translate(611.083984 0)"/>
      <use xlink:href="#DejaVuSans-6e" transform="translate(650.097656 0)"/>
      <use xlink:href="#DejaVuSans-3d" transform="translate(713.476562 0)"/>
      <use xlink:href="#DejaVuSans-31" transform="translate(797.265625 0)"/>
      <use xlink:href="#DejaVuSans-32" transform="translate(860.888672 0)"/>
      <use xlink:href="#DejaVuSans-29" transform="translate(924.511719 0)"/>
     </g>
    </g>
    <g id="line2d_43">
     <path d="M 341.315125 173.723437 
L 361.315125 173.723437 
" style="fill: none; stroke-dasharray: 3.7,1.6; stroke-dashoffset: 0; stroke: #2ca02c"/>
    </g>
    <g id="line2d_44">
     <g>
      <use xlink:href="#mb7c74aee12" x="351.315125" y="173.723437" style="fill: #2ca02c; stroke: #000000; stroke-linejoin: miter"/>
     </g>
    </g>
    <g id="text_25">
     <!-- 100 mg sus (n=12) -->
     <g transform="translate(369.315125 177.223437) scale(0.1 -0.1)">
      <use xlink:href="#DejaVuSans-31"/>
      <use xlink:href="#DejaVuSans-30" transform="translate(63.623047 0)"/>
      <use xlink:href="#DejaVuSans-30" transform="translate(127.246094 0)"/>
      <use xlink:href="#DejaVuSans-20" transform="translate(190.869141 0)"/>
      <use xlink:href="#DejaVuSans-6d" transform="translate(222.65625 0)"/>
      <use xlink:href="#DejaVuSans-67" transform="translate(320.068359 0)"/>
      <use xlink:href="#DejaVuSans-20" transform="translate(383.544922 0)"/>
      <use xlink:href="#DejaVuSans-73" transform="translate(415.332031 0)"/>
      <use xlink:href="#DejaVuSans-75" transform="translate(467.431641 0)"/>
      <use xlink:href="#DejaVuSans-73" transform="translate(530.810547 0)"/>
      <use xlink:href="#DejaVuSans-20" transform="translate(582.910156 0)"/>
      <use xlink:href="#DejaVuSans-28" transform="translate(614.697266 0)"/>
      <use xlink:href="#DejaVuSans-6e" transform="translate(653.710938 0)"/>
      <use xlink:href="#DejaVuSans-3d" transform="translate(717.089844 0)"/>
      <use xlink:href="#DejaVuSans-31" transform="translate(800.878906 0)"/>
      <use xlink:href="#DejaVuSans-32" transform="translate(864.501953 0)"/>
      <use xlink:href="#DejaVuSans-29" transform="translate(928.125 0)"/>
     </g>
    </g>
    <g id="line2d_45">
     <path d="M 341.315125 188.401562 
L 361.315125 188.401562 
" style="fill: none; stroke: #d62728; stroke-width: 2; stroke-linecap: square"/>
    </g>
    <g id="line2d_46"/>
    <g id="text_26">
     <!-- Sim 200 -->
     <g transform="translate(369.315125 191.901562) scale(0.1 -0.1)">
      <use xlink:href="#DejaVuSans-53"/>
      <use xlink:href="#DejaVuSans-69" transform="translate(63.476562 0)"/>
      <use xlink:href="#DejaVuSans-6d" transform="translate(91.259766 0)"/>
      <use xlink:href="#DejaVuSans-20" transform="translate(188.671875 0)"/>
      <use xlink:href="#DejaVuSans-32" transform="translate(220.458984 0)"/>
      <use xlink:href="#DejaVuSans-30" transform="translate(284.082031 0)"/>
      <use xlink:href="#DejaVuSans-30" transform="translate(347.705078 0)"/>
     </g>
    </g>
    <g id="line2d_47">
     <path d="M 341.315125 203.079687 
L 361.315125 203.079687 
" style="fill: none; stroke-dasharray: 3.7,1.6; stroke-dashoffset: 0; stroke: #d62728"/>
    </g>
    <g id="line2d_48">
     <g>
      <use xlink:href="#mfa84a4da32" x="351.315125" y="203.079687" style="fill: #d62728; stroke: #000000"/>
     </g>
    </g>
    <g id="text_27">
     <!-- 200 mg tab (n=12) -->
     <g transform="translate(369.315125 206.579687) scale(0.1 -0.1)">
      <use xlink:href="#DejaVuSans-32"/>
      <use xlink:href="#DejaVuSans-30" transform="translate(63.623047 0)"/>
      <use xlink:href="#DejaVuSans-30" transform="translate(127.246094 0)"/>
      <use xlink:href="#DejaVuSans-20" transform="translate(190.869141 0)"/>
      <use xlink:href="#DejaVuSans-6d" transform="translate(222.65625 0)"/>
      <use xlink:href="#DejaVuSans-67" transform="translate(320.068359 0)"/>
      <use xlink:href="#DejaVuSans-20" transform="translate(383.544922 0)"/>
      <use xlink:href="#DejaVuSans-74" transform="translate(415.332031 0)"/>
      <use xlink:href="#DejaVuSans-61" transform="translate(454.541016 0)"/>
      <use xlink:href="#DejaVuSans-62" transform="translate(515.820312 0)"/>
      <use xlink:href="#DejaVuSans-20" transform="translate(579.296875 0)"/>
      <use xlink:href="#DejaVuSans-28" transform="translate(611.083984 0)"/>
      <use xlink:href="#DejaVuSans-6e" transform="translate(650.097656 0)"/>
      <use xlink:href="#DejaVuSans-3d" transform="translate(713.476562 0)"/>
      <use xlink:href="#DejaVuSans-31" transform="translate(797.265625 0)"/>
      <use xlink:href="#DejaVuSans-32" transform="translate(860.888672 0)"/>
      <use xlink:href="#DejaVuSans-29" transform="translate(924.511719 0)"/>
     </g>
    </g>
    <g id="line2d_49">
     <path d="M 341.315125 217.757812 
L 361.315125 217.757812 
" style="fill: none; stroke-dasharray: 3.7,1.6; stroke-dashoffset: 0; stroke: #d62728"/>
    </g>
    <g id="line2d_50">
     <g>
      <use xlink:href="#m32e8c98a6b" x="351.315125" y="217.757812" style="fill: #d62728; stroke: #000000; stroke-linejoin: miter"/>
     </g>
    </g>
    <g id="text_28">
     <!-- 200 mg sus (n=12) -->
     <g transform="translate(369.315125 221.257812) scale(0.1 -0.1)">
      <use xlink:href="#DejaVuSans-32"/>
      <use xlink:href="#DejaVuSans-30" transform="translate(63.623047 0)"/>
      <use xlink:href="#DejaVuSans-30" transform="translate(127.246094 0)"/>
      <use xlink:href="#DejaVuSans-20" transform="translate(190.869141 0)"/>
      <use xlink:href="#DejaVuSans-6d" transform="translate(222.65625 0)"/>
      <use xlink:href="#DejaVuSans-67" transform="translate(320.068359 0)"/>
      <use xlink:href="#DejaVuSans-20" transform="translate(383.544922 0)"/>
      <use xlink:href="#DejaVuSans-73" transform="translate(415.332031 0)"/>
      <use xlink:href="#DejaVuSans-75" transform="translate(467.431641 0)"/>
      <use xlink:href="#DejaVuSans-73" transform="translate(530.810547 0)"/>
      <use xlink:href="#DejaVuSans-20" transform="translate(582.910156 0)"/>
      <use xlink:href="#DejaVuSans-28" transform="translate(614.697266 0)"/>
      <use xlink:href="#DejaVuSans-6e" transform="translate(653.710938 0)"/>
      <use xlink:href="#DejaVuSans-3d" transform="translate(717.089844 0)"/>
      <use xlink:href="#DejaVuSans-31" transform="translate(800.878906 0)"/>
      <use xlink:href="#DejaVuSans-32" transform="translate(864.501953 0)"/>
      <use xlink:href="#DejaVuSans-29" transform="translate(928.125 0)"/>
     </g>
    </g>
   </g>
  </g>
  <g id="text_29">
   <!-- Patel1984 Fig2 -->
   <g transform="translate(167.810438 26.196094) scale(0.25 -0.25)">
    <defs>
     <path id="DejaVuSans-Bold-50" d="M 588 4666 
L 2584 4666 
Q 3475 4666 3951 4270 
Q 4428 3875 4428 3144 
Q 4428 2409 3951 2014 
Q 3475 1619 2584 1619 
L 1791 1619 
L 1791 0 
L 588 0 
L 588 4666 
z
M 1791 3794 
L 1791 2491 
L 2456 2491 
Q 2806 2491 2997 2661 
Q 3188 2831 3188 3144 
Q 3188 3456 2997 3625 
Q 2806 3794 2456 3794 
L 1791 3794 
z
" transform="scale(0.015625)"/>
     <path id="DejaVuSans-Bold-61" d="M 2106 1575 
Q 1756 1575 1579 1456 
Q 1403 1338 1403 1106 
Q 1403 894 1545 773 
Q 1688 653 1941 653 
Q 2256 653 2472 879 
Q 2688 1106 2688 1447 
L 2688 1575 
L 2106 1575 
z
M 3816 1997 
L 3816 0 
L 2688 0 
L 2688 519 
Q 2463 200 2181 54 
Q 1900 -91 1497 -91 
Q 953 -91 614 226 
Q 275 544 275 1050 
Q 275 1666 698 1953 
Q 1122 2241 2028 2241 
L 2688 2241 
L 2688 2328 
Q 2688 2594 2478 2717 
Q 2269 2841 1825 2841 
Q 1466 2841 1156 2769 
Q 847 2697 581 2553 
L 581 3406 
Q 941 3494 1303 3539 
Q 1666 3584 2028 3584 
Q 2975 3584 3395 3211 
Q 3816 2838 3816 1997 
z
" transform="scale(0.015625)"/>
     <path id="DejaVuSans-Bold-31" d="M 750 831 
L 1813 831 
L 1813 3847 
L 722 3622 
L 722 4441 
L 1806 4666 
L 2950 4666 
L 2950 831 
L 4013 831 
L 4013 0 
L 750 0 
L 750 831 
z
" transform="scale(0.015625)"/>
     <path id="DejaVuSans-Bold-39" d="M 641 103 
L 641 966 
Q 928 831 1190 764 
Q 1453 697 1709 697 
Q 2247 697 2547 995 
Q 2847 1294 2900 1881 
Q 2688 1725 2447 1647 
Q 2206 1569 1925 1569 
Q 1209 1569 770 1986 
Q 331 2403 331 3084 
Q 331 3838 820 4291 
Q 1309 4744 2131 4744 
Q 3044 4744 3544 4128 
Q 4044 3513 4044 2388 
Q 4044 1231 3459 570 
Q 2875 -91 1856 -91 
Q 1528 -91 1228 -42 
Q 928 6 641 103 
z
M 2125 2350 
Q 2441 2350 2600 2554 
Q 2759 2759 2759 3169 
Q 2759 3575 2600 3781 
Q 2441 3988 2125 3988 
Q 1809 3988 1650 3781 
Q 1491 3575 1491 3169 
Q 1491 2759 1650 2554 
Q 1809 2350 2125 2350 
z
" transform="scale(0.015625)"/>
     <path id="DejaVuSans-Bold-38" d="M 2228 2088 
Q 1891 2088 1709 1903 
Q 1528 1719 1528 1375 
Q 1528 1031 1709 848 
Q 1891 666 2228 666 
Q 2563 666 2741 848 
Q 2919 1031 2919 1375 
Q 2919 1722 2741 1905 
Q 2563 2088 2228 2088 
z
M 1350 2484 
Q 925 2613 709 2878 
Q 494 3144 494 3541 
Q 494 4131 934 4440 
Q 1375 4750 2228 4750 
Q 3075 4750 3515 4442 
Q 3956 4134 3956 3541 
Q 3956 3144 3739 2878 
Q 3522 2613 3097 2484 
Q 3572 2353 3814 2058 
Q 4056 1763 4056 1313 
Q 4056 619 3595 264 
Q 3134 -91 2228 -91 
Q 1319 -91 855 264 
Q 391 619 391 1313 
Q 391 1763 633 2058 
Q 875 2353 1350 2484 
z
M 1631 3419 
Q 1631 3141 1786 2991 
Q 1941 2841 2228 2841 
Q 2509 2841 2662 2991 
Q 2816 3141 2816 3419 
Q 2816 3697 2662 3845 
Q 2509 3994 2228 3994 
Q 1941 3994 1786 3844 
Q 1631 3694 1631 3419 
z
" transform="scale(0.015625)"/>
     <path id="DejaVuSans-Bold-34" d="M 2356 3675 
L 1038 1722 
L 2356 1722 
L 2356 3675 
z
M 2156 4666 
L 3494 4666 
L 3494 1722 
L 4159 1722 
L 4159 850 
L 3494 850 
L 3494 0 
L 2356 0 
L 2356 850 
L 288 850 
L 288 1881 
L 2156 4666 
z
" transform="scale(0.015625)"/>
     <path id="DejaVuSans-Bold-46" d="M 588 4666 
L 3834 4666 
L 3834 3756 
L 1791 3756 
L 1791 2888 
L 3713 2888 
L 3713 1978 
L 1791 1978 
L 1791 0 
L 588 0 
L 588 4666 
z
" transform="scale(0.015625)"/>
     <path id="DejaVuSans-Bold-67" d="M 2919 594 
Q 2688 288 2409 144 
Q 2131 0 1766 0 
Q 1125 0 706 504 
Q 288 1009 288 1791 
Q 288 2575 706 3076 
Q 1125 3578 1766 3578 
Q 2131 3578 2409 3434 
Q 2688 3291 2919 2981 
L 2919 3500 
L 4044 3500 
L 4044 353 
Q 4044 -491 3511 -936 
Q 2978 -1381 1966 -1381 
Q 1638 -1381 1331 -1331 
Q 1025 -1281 716 -1178 
L 716 -306 
Q 1009 -475 1290 -558 
Q 1572 -641 1856 -641 
Q 2406 -641 2662 -400 
Q 2919 -159 2919 353 
L 2919 594 
z
M 2181 2772 
Q 1834 2772 1640 2515 
Q 1447 2259 1447 1791 
Q 1447 1309 1634 1061 
Q 1822 813 2181 813 
Q 2531 813 2725 1069 
Q 2919 1325 2919 1791 
Q 2919 2259 2725 2515 
Q 2531 2772 2181 2772 
z
" transform="scale(0.015625)"/>
     <path id="DejaVuSans-Bold-32" d="M 1844 884 
L 3897 884 
L 3897 0 
L 506 0 
L 506 884 
L 2209 2388 
Q 2438 2594 2547 2791 
Q 2656 2988 2656 3200 
Q 2656 3528 2436 3728 
Q 2216 3928 1850 3928 
Q 1569 3928 1234 3808 
Q 900 3688 519 3450 
L 519 4475 
Q 925 4609 1322 4679 
Q 1719 4750 2100 4750 
Q 2938 4750 3402 4381 
Q 3866 4013 3866 3353 
Q 3866 2972 3669 2642 
Q 3472 2313 2841 1759 
L 1844 884 
z
" transform="scale(0.015625)"/>
    </defs>
    <use xlink:href="#DejaVuSans-Bold-50"/>
    <use xlink:href="#DejaVuSans-Bold-61" transform="translate(70.666016 0)"/>
    <use xlink:href="#DejaVuSans-Bold-74" transform="translate(138.146484 0)"/>
    <use xlink:href="#DejaVuSans-Bold-65" transform="translate(185.949219 0)"/>
    <use xlink:href="#DejaVuSans-Bold-6c" transform="translate(253.771484 0)"/>
    <use xlink:href="#DejaVuSans-Bold-31" transform="translate(288.048828 0)"/>
    <use xlink:href="#DejaVuSans-Bold-39" transform="translate(357.628906 0)"/>
    <use xlink:href="#DejaVuSans-Bold-38" transform="translate(427.208984 0)"/>
    <use xlink:href="#DejaVuSans-Bold-34" transform="translate(496.789062 0)"/>
    <use xlink:href="#DejaVuSans-Bold-20" transform="translate(566.369141 0)"/>
    <use xlink:href="#DejaVuSans-Bold-46" transform="translate(601.183594 0)"/>
    <use xlink:href="#DejaVuSans-Bold-69" transform="translate(669.494141 0)"/>
    <use xlink:href="#DejaVuSans-Bold-67" transform="translate(703.771484 0)"/>
    <use xlink:href="#DejaVuSans-Bold-32" transform="translate(775.353516 0)"/>
   </g>
  </g>
 </g>
 <defs>
  <clipPath id="pb8bfe02492">
   <rect x="84.427625" y="43.2" width="390.6" height="277.2"/>
  </clipPath>
 </defs>
</svg>
