<?xml version="1.0" encoding="utf-8" standalone="no"?>
<!DOCTYPE svg PUBLIC "-//W3C//DTD SVG 1.1//EN"
  "http://www.w3.org/Graphics/SVG/1.1/DTD/svg11.dtd">
<svg xmlns:xlink="http://www.w3.org/1999/xlink" width="852.651875pt" height="370.537812pt" viewBox="0 0 852.651875 370.537812" xmlns="http://www.w3.org/2000/svg" version="1.1">
 <metadata>
  <rdf:RDF xmlns:dc="http://purl.org/dc/elements/1.1/" xmlns:cc="http://creativecommons.org/ns#" xmlns:rdf="http://www.w3.org/1999/02/22-rdf-syntax-ns#">
   <cc:Work>
    <dc:type rdf:resource="http://purl.org/dc/dcmitype/StillImage"/>
    <dc:date>2025-11-04T18:11:57.229627</dc:date>
    <dc:format>image/svg+xml</dc:format>
    <dc:creator>
     <cc:Agent>
      <dc:title>Matplotlib v3.10.7, https://matplotlib.org/</dc:title>
     </cc:Agent>
    </dc:creator>
   </cc:Work>
  </rdf:RDF>
 </metadata>
 <defs>
  <style type="text/css">*{stroke-linejoin: round; stroke-linecap: butt}</style>
 </defs>
 <g id="figure_1">
  <g id="patch_1">
   <path d="M 0 370.537812 
L 852.651875 370.537812 
L 852.651875 0 
L 0 0 
z
" style="fill: #ffffff"/>
  </g>
  <g id="axes_1">
   <g id="patch_2">
    <path d="M 64.251875 320.4 
L 403.904049 320.4 
L 403.904049 43.2 
L 64.251875 43.2 
z
" style="fill: #ffffff"/>
   </g>
   <g id="matplotlib.axis_1">
    <g id="xtick_1">
     <g id="line2d_1">
      <defs>
       <path id="m8ffb9061fe" d="M 0 0 
L 0 3.5 
" style="stroke: #000000; stroke-width: 0.8"/>
      </defs>
      <g>
       <use xlink:href="#m8ffb9061fe" x="96.294533" y="320.4" style="stroke: #000000; stroke-width: 0.8"/>
      </g>
     </g>
     <g id="text_1">
      <!-- 0 -->
      <g transform="translate(91.522658 338.797656) scale(0.15 -0.15)">
       <defs>
        <path id="DejaVuSans-30" d="M 2034 4250 
Q 1547 4250 1301 3770 
Q 1056 3291 1056 2328 
Q 1056 1369 1301 889 
Q 1547 409 2034 409 
Q 2525 409 2770 889 
Q 3016 1369 3016 2328 
Q 3016 3291 2770 3770 
Q 2525 4250 2034 4250 
z
M 2034 4750 
Q 2819 4750 3233 4129 
Q 3647 3509 3647 2328 
Q 3647 1150 3233 529 
Q 2819 -91 2034 -91 
Q 1250 -91 836 529 
Q 422 1150 422 2328 
Q 422 3509 836 4129 
Q 1250 4750 2034 4750 
z
" transform="scale(0.015625)"/>
       </defs>
       <use xlink:href="#DejaVuSans-30"/>
      </g>
     </g>
    </g>
    <g id="xtick_2">
     <g id="line2d_2">
      <g>
       <use xlink:href="#m8ffb9061fe" x="160.379849" y="320.4" style="stroke: #000000; stroke-width: 0.8"/>
      </g>
     </g>
     <g id="text_2">
      <!-- 5 -->
      <g transform="translate(155.607974 338.797656) scale(0.15 -0.15)">
       <defs>
        <path id="DejaVuSans-35" d="M 691 4666 
L 3169 4666 
L 3169 4134 
L 1269 4134 
L 1269 2991 
Q 1406 3038 1543 3061 
Q 1681 3084 1819 3084 
Q 2600 3084 3056 2656 
Q 3513 2228 3513 1497 
Q 3513 744 3044 326 
Q 2575 -91 1722 -91 
Q 1428 -91 1123 -41 
Q 819 9 494 109 
L 494 744 
Q 775 591 1075 516 
Q 1375 441 1709 441 
Q 2250 441 2565 725 
Q 2881 1009 2881 1497 
Q 2881 1984 2565 2268 
Q 2250 2553 1709 2553 
Q 1456 2553 1204 2497 
Q 953 2441 691 2322 
L 691 4666 
z
" transform="scale(0.015625)"/>
       </defs>
       <use xlink:href="#DejaVuSans-35"/>
      </g>
     </g>
    </g>
    <g id="xtick_3">
     <g id="line2d_3">
      <g>
       <use xlink:href="#m8ffb9061fe" x="224.465165" y="320.4" style="stroke: #000000; stroke-width: 0.8"/>
      </g>
     </g>
     <g id="text_3">
      <!-- 10 -->
      <g transform="translate(214.921415 338.797656) scale(0.15 -0.15)">
       <defs>
        <path id="DejaVuSans-31" d="M 794 531 
L 1825 531 
L 1825 4091 
L 703 3866 
L 703 4441 
L 1819 4666 
L 2450 4666 
L 2450 531 
L 3481 531 
L 3481 0 
L 794 0 
L 794 531 
z
" transform="scale(0.015625)"/>
       </defs>
       <use xlink:href="#DejaVuSans-31"/>
       <use xlink:href="#DejaVuSans-30" transform="translate(63.623047 0)"/>
      </g>
     </g>
    </g>
    <g id="xtick_4">
     <g id="line2d_4">
      <g>
       <use xlink:href="#m8ffb9061fe" x="288.55048" y="320.4" style="stroke: #000000; stroke-width: 0.8"/>
      </g>
     </g>
     <g id="text_4">
      <!-- 15 -->
      <g transform="translate(279.00673 338.797656) scale(0.15 -0.15)">
       <use xlink:href="#DejaVuSans-31"/>
       <use xlink:href="#DejaVuSans-35" transform="translate(63.623047 0)"/>
      </g>
     </g>
    </g>
    <g id="xtick_5">
     <g id="line2d_5">
      <g>
       <use xlink:href="#m8ffb9061fe" x="352.635796" y="320.4" style="stroke: #000000; stroke-width: 0.8"/>
      </g>
     </g>
     <g id="text_5">
      <!-- 20 -->
      <g transform="translate(343.092046 338.797656) scale(0.15 -0.15)">
       <defs>
        <path id="DejaVuSans-32" d="M 1228 531 
L 3431 531 
L 3431 0 
L 469 0 
L 469 531 
Q 828 903 1448 1529 
Q 2069 2156 2228 2338 
Q 2531 2678 2651 2914 
Q 2772 3150 2772 3378 
Q 2772 3750 2511 3984 
Q 2250 4219 1831 4219 
Q 1534 4219 1204 4116 
Q 875 4013 500 3803 
L 500 4441 
Q 881 4594 1212 4672 
Q 1544 4750 1819 4750 
Q 2544 4750 2975 4387 
Q 3406 4025 3406 3419 
Q 3406 3131 3298 2873 
Q 3191 2616 2906 2266 
Q 2828 2175 2409 1742 
Q 1991 1309 1228 531 
z
" transform="scale(0.015625)"/>
       </defs>
       <use xlink:href="#DejaVuSans-32"/>
       <use xlink:href="#DejaVuSans-30" transform="translate(63.623047 0)"/>
      </g>
     </g>
    </g>
    <g id="text_6">
     <!-- time [hr] -->
     <g transform="translate(189.003431 359.594375) scale(0.18 -0.18)">
      <defs>
       <path id="DejaVuSans-Bold-74" d="M 1759 4494 
L 1759 3500 
L 2913 3500 
L 2913 2700 
L 1759 2700 
L 1759 1216 
Q 1759 972 1856 886 
Q 1953 800 2241 800 
L 2816 800 
L 2816 0 
L 1856 0 
Q 1194 0 917 276 
Q 641 553 641 1216 
L 641 2700 
L 84 2700 
L 84 3500 
L 641 3500 
L 641 4494 
L 1759 4494 
z
" transform="scale(0.015625)"/>
       <path id="DejaVuSans-Bold-69" d="M 538 3500 
L 1656 3500 
L 1656 0 
L 538 0 
L 538 3500 
z
M 538 4863 
L 1656 4863 
L 1656 3950 
L 538 3950 
L 538 4863 
z
" transform="scale(0.015625)"/>
       <path id="DejaVuSans-Bold-6d" d="M 3781 2919 
Q 3994 3244 4286 3414 
Q 4578 3584 4928 3584 
Q 5531 3584 5847 3212 
Q 6163 2841 6163 2131 
L 6163 0 
L 5038 0 
L 5038 1825 
Q 5041 1866 5042 1909 
Q 5044 1953 5044 2034 
Q 5044 2406 4934 2573 
Q 4825 2741 4581 2741 
Q 4263 2741 4089 2478 
Q 3916 2216 3909 1719 
L 3909 0 
L 2784 0 
L 2784 1825 
Q 2784 2406 2684 2573 
Q 2584 2741 2328 2741 
Q 2006 2741 1831 2477 
Q 1656 2213 1656 1722 
L 1656 0 
L 531 0 
L 531 3500 
L 1656 3500 
L 1656 2988 
Q 1863 3284 2130 3434 
Q 2397 3584 2719 3584 
Q 3081 3584 3359 3409 
Q 3638 3234 3781 2919 
z
" transform="scale(0.015625)"/>
       <path id="DejaVuSans-Bold-65" d="M 4031 1759 
L 4031 1441 
L 1416 1441 
Q 1456 1047 1700 850 
Q 1944 653 2381 653 
Q 2734 653 3104 758 
Q 3475 863 3866 1075 
L 3866 213 
Q 3469 63 3072 -14 
Q 2675 -91 2278 -91 
Q 1328 -91 801 392 
Q 275 875 275 1747 
Q 275 2603 792 3093 
Q 1309 3584 2216 3584 
Q 3041 3584 3536 3087 
Q 4031 2591 4031 1759 
z
M 2881 2131 
Q 2881 2450 2695 2645 
Q 2509 2841 2209 2841 
Q 1884 2841 1681 2658 
Q 1478 2475 1428 2131 
L 2881 2131 
z
" transform="scale(0.015625)"/>
       <path id="DejaVuSans-Bold-20" transform="scale(0.015625)"/>
       <path id="DejaVuSans-Bold-5b" d="M 550 4863 
L 2491 4863 
L 2491 4159 
L 1613 4159 
L 1613 -141 
L 2491 -141 
L 2491 -844 
L 550 -844 
L 550 4863 
z
" transform="scale(0.015625)"/>
       <path id="DejaVuSans-Bold-68" d="M 4056 2131 
L 4056 0 
L 2931 0 
L 2931 347 
L 2931 1625 
Q 2931 2084 2911 2256 
Q 2891 2428 2841 2509 
Q 2775 2619 2662 2680 
Q 2550 2741 2406 2741 
Q 2056 2741 1856 2470 
Q 1656 2200 1656 1722 
L 1656 0 
L 538 0 
L 538 4863 
L 1656 4863 
L 1656 2988 
Q 1909 3294 2193 3439 
Q 2478 3584 2822 3584 
Q 3428 3584 3742 3212 
Q 4056 2841 4056 2131 
z
" transform="scale(0.015625)"/>
       <path id="DejaVuSans-Bold-72" d="M 3138 2547 
Q 2991 2616 2845 2648 
Q 2700 2681 2553 2681 
Q 2122 2681 1889 2404 
Q 1656 2128 1656 1613 
L 1656 0 
L 538 0 
L 538 3500 
L 1656 3500 
L 1656 2925 
Q 1872 3269 2151 3426 
Q 2431 3584 2822 3584 
Q 2878 3584 2943 3579 
Q 3009 3575 3134 3559 
L 3138 2547 
z
" transform="scale(0.015625)"/>
       <path id="DejaVuSans-Bold-5d" d="M 2375 -844 
L 434 -844 
L 434 -141 
L 1313 -141 
L 1313 4159 
L 434 4159 
L 434 4863 
L 2375 4863 
L 2375 -844 
z
" transform="scale(0.015625)"/>
      </defs>
      <use xlink:href="#DejaVuSans-Bold-74"/>
      <use xlink:href="#DejaVuSans-Bold-69" transform="translate(47.802734 0)"/>
      <use xlink:href="#DejaVuSans-Bold-6d" transform="translate(82.080078 0)"/>
      <use xlink:href="#DejaVuSans-Bold-65" transform="translate(186.279297 0)"/>
      <use xlink:href="#DejaVuSans-Bold-20" transform="translate(254.101562 0)"/>
      <use xlink:href="#DejaVuSans-Bold-5b" transform="translate(288.916016 0)"/>
      <use xlink:href="#DejaVuSans-Bold-68" transform="translate(334.619141 0)"/>
      <use xlink:href="#DejaVuSans-Bold-72" transform="translate(405.810547 0)"/>
      <use xlink:href="#DejaVuSans-Bold-5d" transform="translate(455.126953 0)"/>
     </g>
    </g>
   </g>
   <g id="matplotlib.axis_2">
    <g id="ytick_1">
     <g id="line2d_6">
      <defs>
       <path id="m8836410758" d="M 0 0 
L -3.5 0 
" style="stroke: #000000; stroke-width: 0.8"/>
      </defs>
      <g>
       <use xlink:href="#m8836410758" x="64.251875" y="307.8" style="stroke: #000000; stroke-width: 0.8"/>
      </g>
     </g>
     <g id="text_7">
      <!-- 0 -->
      <g transform="translate(47.708125 313.498828) scale(0.15 -0.15)">
       <use xlink:href="#DejaVuSans-30"/>
      </g>
     </g>
    </g>
    <g id="ytick_2">
     <g id="line2d_7">
      <g>
       <use xlink:href="#m8836410758" x="64.251875" y="275.149049" style="stroke: #000000; stroke-width: 0.8"/>
      </g>
     </g>
     <g id="text_8">
      <!-- 100 -->
      <g transform="translate(28.620625 280.847877) scale(0.15 -0.15)">
       <use xlink:href="#DejaVuSans-31"/>
       <use xlink:href="#DejaVuSans-30" transform="translate(63.623047 0)"/>
       <use xlink:href="#DejaVuSans-30" transform="translate(127.246094 0)"/>
      </g>
     </g>
    </g>
    <g id="ytick_3">
     <g id="line2d_8">
      <g>
       <use xlink:href="#m8836410758" x="64.251875" y="242.498097" style="stroke: #000000; stroke-width: 0.8"/>
      </g>
     </g>
     <g id="text_9">
      <!-- 200 -->
      <g transform="translate(28.620625 248.196925) scale(0.15 -0.15)">
       <use xlink:href="#DejaVuSans-32"/>
       <use xlink:href="#DejaVuSans-30" transform="translate(63.623047 0)"/>
       <use xlink:href="#DejaVuSans-30" transform="translate(127.246094 0)"/>
      </g>
     </g>
    </g>
    <g id="ytick_4">
     <g id="line2d_9">
      <g>
       <use xlink:href="#m8836410758" x="64.251875" y="209.847146" style="stroke: #000000; stroke-width: 0.8"/>
      </g>
     </g>
     <g id="text_10">
      <!-- 300 -->
      <g transform="translate(28.620625 215.545974) scale(0.15 -0.15)">
       <defs>
        <path id="DejaVuSans-33" d="M 2597 2516 
Q 3050 2419 3304 2112 
Q 3559 1806 3559 1356 
Q 3559 666 3084 287 
Q 2609 -91 1734 -91 
Q 1441 -91 1130 -33 
Q 819 25 488 141 
L 488 750 
Q 750 597 1062 519 
Q 1375 441 1716 441 
Q 2309 441 2620 675 
Q 2931 909 2931 1356 
Q 2931 1769 2642 2001 
Q 2353 2234 1838 2234 
L 1294 2234 
L 1294 2753 
L 1863 2753 
Q 2328 2753 2575 2939 
Q 2822 3125 2822 3475 
Q 2822 3834 2567 4026 
Q 2313 4219 1838 4219 
Q 1578 4219 1281 4162 
Q 984 4106 628 3988 
L 628 4550 
Q 988 4650 1302 4700 
Q 1616 4750 1894 4750 
Q 2613 4750 3031 4423 
Q 3450 4097 3450 3541 
Q 3450 3153 3228 2886 
Q 3006 2619 2597 2516 
z
" transform="scale(0.015625)"/>
       </defs>
       <use xlink:href="#DejaVuSans-33"/>
       <use xlink:href="#DejaVuSans-30" transform="translate(63.623047 0)"/>
       <use xlink:href="#DejaVuSans-30" transform="translate(127.246094 0)"/>
      </g>
     </g>
    </g>
    <g id="ytick_5">
     <g id="line2d_10">
      <g>
       <use xlink:href="#m8836410758" x="64.251875" y="177.196194" style="stroke: #000000; stroke-width: 0.8"/>
      </g>
     </g>
     <g id="text_11">
      <!-- 400 -->
      <g transform="translate(28.620625 182.895022) scale(0.15 -0.15)">
       <defs>
        <path id="DejaVuSans-34" d="M 2419 4116 
L 825 1625 
L 2419 1625 
L 2419 4116 
z
M 2253 4666 
L 3047 4666 
L 3047 1625 
L 3713 1625 
L 3713 1100 
L 3047 1100 
L 3047 0 
L 2419 0 
L 2419 1100 
L 313 1100 
L 313 1709 
L 2253 4666 
z
" transform="scale(0.015625)"/>
       </defs>
       <use xlink:href="#DejaVuSans-34"/>
       <use xlink:href="#DejaVuSans-30" transform="translate(63.623047 0)"/>
       <use xlink:href="#DejaVuSans-30" transform="translate(127.246094 0)"/>
      </g>
     </g>
    </g>
    <g id="ytick_6">
     <g id="line2d_11">
      <g>
       <use xlink:href="#m8836410758" x="64.251875" y="144.545243" style="stroke: #000000; stroke-width: 0.8"/>
      </g>
     </g>
     <g id="text_12">
      <!-- 500 -->
      <g transform="translate(28.620625 150.244071) scale(0.15 -0.15)">
       <use xlink:href="#DejaVuSans-35"/>
       <use xlink:href="#DejaVuSans-30" transform="translate(63.623047 0)"/>
       <use xlink:href="#DejaVuSans-30" transform="translate(127.246094 0)"/>
      </g>
     </g>
    </g>
    <g id="ytick_7">
     <g id="line2d_12">
      <g>
       <use xlink:href="#m8836410758" x="64.251875" y="111.894292" style="stroke: #000000; stroke-width: 0.8"/>
      </g>
     </g>
     <g id="text_13">
      <!-- 600 -->
      <g transform="translate(28.620625 117.59312) scale(0.15 -0.15)">
       <defs>
        <path id="DejaVuSans-36" d="M 2113 2584 
Q 1688 2584 1439 2293 
Q 1191 2003 1191 1497 
Q 1191 994 1439 701 
Q 1688 409 2113 409 
Q 2538 409 2786 701 
Q 3034 994 3034 1497 
Q 3034 2003 2786 2293 
Q 2538 2584 2113 2584 
z
M 3366 4563 
L 3366 3988 
Q 3128 4100 2886 4159 
Q 2644 4219 2406 4219 
Q 1781 4219 1451 3797 
Q 1122 3375 1075 2522 
Q 1259 2794 1537 2939 
Q 1816 3084 2150 3084 
Q 2853 3084 3261 2657 
Q 3669 2231 3669 1497 
Q 3669 778 3244 343 
Q 2819 -91 2113 -91 
Q 1303 -91 875 529 
Q 447 1150 447 2328 
Q 447 3434 972 4092 
Q 1497 4750 2381 4750 
Q 2619 4750 2861 4703 
Q 3103 4656 3366 4563 
z
" transform="scale(0.015625)"/>
       </defs>
       <use xlink:href="#DejaVuSans-36"/>
       <use xlink:href="#DejaVuSans-30" transform="translate(63.623047 0)"/>
       <use xlink:href="#DejaVuSans-30" transform="translate(127.246094 0)"/>
      </g>
     </g>
    </g>
    <g id="ytick_8">
     <g id="line2d_13">
      <g>
       <use xlink:href="#m8836410758" x="64.251875" y="79.24334" style="stroke: #000000; stroke-width: 0.8"/>
      </g>
     </g>
     <g id="text_14">
      <!-- 700 -->
      <g transform="translate(28.620625 84.942168) scale(0.15 -0.15)">
       <defs>
        <path id="DejaVuSans-37" d="M 525 4666 
L 3525 4666 
L 3525 4397 
L 1831 0 
L 1172 0 
L 2766 4134 
L 525 4134 
L 525 4666 
z
" transform="scale(0.015625)"/>
       </defs>
       <use xlink:href="#DejaVuSans-37"/>
       <use xlink:href="#DejaVuSans-30" transform="translate(63.623047 0)"/>
       <use xlink:href="#DejaVuSans-30" transform="translate(127.246094 0)"/>
      </g>
     </g>
    </g>
    <g id="ytick_9">
     <g id="line2d_14">
      <g>
       <use xlink:href="#m8836410758" x="64.251875" y="46.592389" style="stroke: #000000; stroke-width: 0.8"/>
      </g>
     </g>
     <g id="text_15">
      <!-- 800 -->
      <g transform="translate(28.620625 52.291217) scale(0.15 -0.15)">
       <defs>
        <path id="DejaVuSans-38" d="M 2034 2216 
Q 1584 2216 1326 1975 
Q 1069 1734 1069 1313 
Q 1069 891 1326 650 
Q 1584 409 2034 409 
Q 2484 409 2743 651 
Q 3003 894 3003 1313 
Q 3003 1734 2745 1975 
Q 2488 2216 2034 2216 
z
M 1403 2484 
Q 997 2584 770 2862 
Q 544 3141 544 3541 
Q 544 4100 942 4425 
Q 1341 4750 2034 4750 
Q 2731 4750 3128 4425 
Q 3525 4100 3525 3541 
Q 3525 3141 3298 2862 
Q 3072 2584 2669 2484 
Q 3125 2378 3379 2068 
Q 3634 1759 3634 1313 
Q 3634 634 3220 271 
Q 2806 -91 2034 -91 
Q 1263 -91 848 271 
Q 434 634 434 1313 
Q 434 1759 690 2068 
Q 947 2378 1403 2484 
z
M 1172 3481 
Q 1172 3119 1398 2916 
Q 1625 2713 2034 2713 
Q 2441 2713 2670 2916 
Q 2900 3119 2900 3481 
Q 2900 3844 2670 4047 
Q 2441 4250 2034 4250 
Q 1625 4250 1398 4047 
Q 1172 3844 1172 3481 
z
" transform="scale(0.015625)"/>
       </defs>
       <use xlink:href="#DejaVuSans-38"/>
       <use xlink:href="#DejaVuSans-30" transform="translate(63.623047 0)"/>
       <use xlink:href="#DejaVuSans-30" transform="translate(127.246094 0)"/>
      </g>
     </g>
    </g>
    <g id="text_16">
     <!-- Sodium urine [mmole] -->
     <g transform="translate(20.877187 294.841406) rotate(-90) scale(0.18 -0.18)">
      <defs>
       <path id="DejaVuSans-Bold-53" d="M 3834 4519 
L 3834 3531 
Q 3450 3703 3084 3790 
Q 2719 3878 2394 3878 
Q 1963 3878 1756 3759 
Q 1550 3641 1550 3391 
Q 1550 3203 1689 3098 
Q 1828 2994 2194 2919 
L 2706 2816 
Q 3484 2659 3812 2340 
Q 4141 2022 4141 1434 
Q 4141 663 3683 286 
Q 3225 -91 2284 -91 
Q 1841 -91 1394 -6 
Q 947 78 500 244 
L 500 1259 
Q 947 1022 1364 901 
Q 1781 781 2169 781 
Q 2563 781 2772 912 
Q 2981 1044 2981 1288 
Q 2981 1506 2839 1625 
Q 2697 1744 2272 1838 
L 1806 1941 
Q 1106 2091 782 2419 
Q 459 2747 459 3303 
Q 459 4000 909 4375 
Q 1359 4750 2203 4750 
Q 2588 4750 2994 4692 
Q 3400 4634 3834 4519 
z
" transform="scale(0.015625)"/>
       <path id="DejaVuSans-Bold-6f" d="M 2203 2784 
Q 1831 2784 1636 2517 
Q 1441 2250 1441 1747 
Q 1441 1244 1636 976 
Q 1831 709 2203 709 
Q 2569 709 2762 976 
Q 2956 1244 2956 1747 
Q 2956 2250 2762 2517 
Q 2569 2784 2203 2784 
z
M 2203 3584 
Q 3106 3584 3614 3096 
Q 4122 2609 4122 1747 
Q 4122 884 3614 396 
Q 3106 -91 2203 -91 
Q 1297 -91 786 396 
Q 275 884 275 1747 
Q 275 2609 786 3096 
Q 1297 3584 2203 3584 
z
" transform="scale(0.015625)"/>
       <path id="DejaVuSans-Bold-64" d="M 2919 2988 
L 2919 4863 
L 4044 4863 
L 4044 0 
L 2919 0 
L 2919 506 
Q 2688 197 2409 53 
Q 2131 -91 1766 -91 
Q 1119 -91 703 423 
Q 288 938 288 1747 
Q 288 2556 703 3070 
Q 1119 3584 1766 3584 
Q 2128 3584 2408 3439 
Q 2688 3294 2919 2988 
z
M 2181 722 
Q 2541 722 2730 984 
Q 2919 1247 2919 1747 
Q 2919 2247 2730 2509 
Q 2541 2772 2181 2772 
Q 1825 2772 1636 2509 
Q 1447 2247 1447 1747 
Q 1447 1247 1636 984 
Q 1825 722 2181 722 
z
" transform="scale(0.015625)"/>
       <path id="DejaVuSans-Bold-75" d="M 500 1363 
L 500 3500 
L 1625 3500 
L 1625 3150 
Q 1625 2866 1622 2436 
Q 1619 2006 1619 1863 
Q 1619 1441 1641 1255 
Q 1663 1069 1716 984 
Q 1784 875 1895 815 
Q 2006 756 2150 756 
Q 2500 756 2700 1025 
Q 2900 1294 2900 1772 
L 2900 3500 
L 4019 3500 
L 4019 0 
L 2900 0 
L 2900 506 
Q 2647 200 2364 54 
Q 2081 -91 1741 -91 
Q 1134 -91 817 281 
Q 500 653 500 1363 
z
" transform="scale(0.015625)"/>
       <path id="DejaVuSans-Bold-6e" d="M 4056 2131 
L 4056 0 
L 2931 0 
L 2931 347 
L 2931 1631 
Q 2931 2084 2911 2256 
Q 2891 2428 2841 2509 
Q 2775 2619 2662 2680 
Q 2550 2741 2406 2741 
Q 2056 2741 1856 2470 
Q 1656 2200 1656 1722 
L 1656 0 
L 538 0 
L 538 3500 
L 1656 3500 
L 1656 2988 
Q 1909 3294 2193 3439 
Q 2478 3584 2822 3584 
Q 3428 3584 3742 3212 
Q 4056 2841 4056 2131 
z
" transform="scale(0.015625)"/>
       <path id="DejaVuSans-Bold-6c" d="M 538 4863 
L 1656 4863 
L 1656 0 
L 538 0 
L 538 4863 
z
" transform="scale(0.015625)"/>
      </defs>
      <use xlink:href="#DejaVuSans-Bold-53"/>
      <use xlink:href="#DejaVuSans-Bold-6f" transform="translate(72.021484 0)"/>
      <use xlink:href="#DejaVuSans-Bold-64" transform="translate(140.722656 0)"/>
      <use xlink:href="#DejaVuSans-Bold-69" transform="translate(212.304688 0)"/>
      <use xlink:href="#DejaVuSans-Bold-75" transform="translate(246.582031 0)"/>
      <use xlink:href="#DejaVuSans-Bold-6d" transform="translate(317.773438 0)"/>
      <use xlink:href="#DejaVuSans-Bold-20" transform="translate(421.972656 0)"/>
      <use xlink:href="#DejaVuSans-Bold-75" transform="translate(456.787109 0)"/>
      <use xlink:href="#DejaVuSans-Bold-72" transform="translate(527.978516 0)"/>
      <use xlink:href="#DejaVuSans-Bold-69" transform="translate(577.294922 0)"/>
      <use xlink:href="#DejaVuSans-Bold-6e" transform="translate(611.572266 0)"/>
      <use xlink:href="#DejaVuSans-Bold-65" transform="translate(682.763672 0)"/>
      <use xlink:href="#DejaVuSans-Bold-20" transform="translate(750.585938 0)"/>
      <use xlink:href="#DejaVuSans-Bold-5b" transform="translate(785.400391 0)"/>
      <use xlink:href="#DejaVuSans-Bold-6d" transform="translate(831.103516 0)"/>
      <use xlink:href="#DejaVuSans-Bold-6d" transform="translate(935.302734 0)"/>
      <use xlink:href="#DejaVuSans-Bold-6f" transform="translate(1039.501953 0)"/>
      <use xlink:href="#DejaVuSans-Bold-6c" transform="translate(1108.203125 0)"/>
      <use xlink:href="#DejaVuSans-Bold-65" transform="translate(1142.480469 0)"/>
      <use xlink:href="#DejaVuSans-Bold-5d" transform="translate(1210.302734 0)"/>
     </g>
    </g>
   </g>
   <g id="LineCollection_1">
    <path d="M 250.099291 295.392638 
L 250.099291 253.599421 
" clip-path="url(#pc301d4f6b6)" style="fill: none; stroke: #000000"/>
    <path clip-path="url(#pc301d4f6b6)" style="fill: none; stroke: #000000"/>
   </g>
   <g id="LineCollection_2">
    <path d="M 250.099291 292.780562 
L 250.099291 255.558478 
" clip-path="url(#pc301d4f6b6)" style="fill: none; stroke: #000000"/>
    <path clip-path="url(#pc301d4f6b6)" style="fill: none; stroke: #000000"/>
   </g>
   <g id="LineCollection_3">
    <path d="M 250.099291 297.678205 
L 250.099291 257.191025 
" clip-path="url(#pc301d4f6b6)" style="fill: none; stroke: #1f77b4"/>
    <path clip-path="url(#pc301d4f6b6)" style="fill: none; stroke: #1f77b4"/>
   </g>
   <g id="LineCollection_4">
    <path d="M 250.099291 285.923863 
L 250.099291 248.048759 
" clip-path="url(#pc301d4f6b6)" style="fill: none; stroke: #1f77b4"/>
    <path clip-path="url(#pc301d4f6b6)" style="fill: none; stroke: #1f77b4"/>
   </g>
   <g id="LineCollection_5">
    <path d="M 250.099291 297.025186 
L 250.099291 247.39574 
" clip-path="url(#pc301d4f6b6)" style="fill: none; stroke: #2ca02c"/>
    <path clip-path="url(#pc301d4f6b6)" style="fill: none; stroke: #2ca02c"/>
   </g>
   <g id="LineCollection_6">
    <path d="M 250.099291 293.107072 
L 250.099291 231.070264 
" clip-path="url(#pc301d4f6b6)" style="fill: none; stroke: #2ca02c"/>
    <path clip-path="url(#pc301d4f6b6)" style="fill: none; stroke: #2ca02c"/>
   </g>
   <g id="line2d_15">
    <path d="M 96.294533 307.8 
L 101.421358 306.1772 
L 106.548183 304.324517 
L 114.238421 301.255546 
L 151.407905 286.012015 
L 166.78838 280.061301 
L 184.732269 273.371831 
L 203.957864 266.451808 
L 225.746871 258.854655 
L 250.099291 250.603322 
L 278.29683 241.287079 
L 311.621194 230.516066 
L 352.635796 217.505437 
L 403.904049 201.491184 
L 469.271071 181.318548 
L 556.427101 154.669008 
L 671.780669 119.642878 
L 737.147691 99.873857 
L 737.147691 99.873857 
" clip-path="url(#pc301d4f6b6)" style="fill: none; stroke: #000000; stroke-width: 2; stroke-linecap: square"/>
   </g>
   <g id="line2d_16">
    <path d="M 250.099291 274.49603 
L 96.294533 307.8 
" clip-path="url(#pc301d4f6b6)" style="fill: none; stroke-dasharray: 3.7,1.6; stroke-dashoffset: 0; stroke: #000000"/>
    <defs>
     <path id="m00955ecfa7" d="M 0 3 
C 0.795609 3 1.55874 2.683901 2.12132 2.12132 
C 2.683901 1.55874 3 0.795609 3 0 
C 3 -0.795609 2.683901 -1.55874 2.12132 -2.12132 
C 1.55874 -2.683901 0.795609 -3 0 -3 
C -0.795609 -3 -1.55874 -2.683901 -2.12132 -2.12132 
C -2.683901 -1.55874 -3 -0.795609 -3 0 
C -3 0.795609 -2.683901 1.55874 -2.12132 2.12132 
C -1.55874 2.683901 -0.795609 3 0 3 
z
" style="stroke: #000000"/>
    </defs>
    <g clip-path="url(#pc301d4f6b6)">
     <use xlink:href="#m00955ecfa7" x="250.099291" y="274.49603" style="stroke: #000000"/>
     <use xlink:href="#m00955ecfa7" x="96.294533" y="307.8" style="stroke: #000000"/>
    </g>
   </g>
   <g id="line2d_17">
    <path d="M 250.099291 274.16952 
L 96.294533 307.8 
" clip-path="url(#pc301d4f6b6)" style="fill: none; stroke-dasharray: 3.7,1.6; stroke-dashoffset: 0; stroke: #000000"/>
    <defs>
     <path id="m703c17583c" d="M -3 3 
L 3 3 
L 3 -3 
L -3 -3 
z
" style="stroke: #000000; stroke-linejoin: miter"/>
    </defs>
    <g clip-path="url(#pc301d4f6b6)">
     <use xlink:href="#m703c17583c" x="250.099291" y="274.16952" style="stroke: #000000; stroke-linejoin: miter"/>
     <use xlink:href="#m703c17583c" x="96.294533" y="307.8" style="stroke: #000000; stroke-linejoin: miter"/>
    </g>
   </g>
   <g id="line2d_18">
    <path d="M 96.294533 307.8 
L 100.139652 306.566323 
L 103.984771 305.07262 
L 107.82989 303.338366 
L 112.956715 300.783027 
L 123.210366 295.339961 
L 137.309135 287.896354 
L 148.844492 282.079375 
L 160.379849 276.529538 
L 171.915206 271.223256 
L 184.732269 265.578044 
L 198.831038 259.630912 
L 214.211514 253.409055 
L 230.873696 246.9303 
L 248.817585 240.203969 
L 268.043179 233.232121 
L 289.832187 225.566056 
L 314.184607 217.230684 
L 342.382146 207.814122 
L 375.70651 196.927084 
L 415.439406 184.191933 
L 462.862539 169.23439 
L 520.539324 151.282549 
L 592.314877 129.186116 
L 679.470907 102.596235 
L 737.147691 85.104355 
L 737.147691 85.104355 
" clip-path="url(#pc301d4f6b6)" style="fill: none; stroke: #1f77b4; stroke-width: 2; stroke-linecap: square"/>
   </g>
   <g id="line2d_19">
    <path d="M 250.099291 277.434615 
L 96.294533 307.8 
" clip-path="url(#pc301d4f6b6)" style="fill: none; stroke-dasharray: 3.7,1.6; stroke-dashoffset: 0; stroke: #1f77b4"/>
    <defs>
     <path id="ma662a21858" d="M 0 3 
C 0.795609 3 1.55874 2.683901 2.12132 2.12132 
C 2.683901 1.55874 3 0.795609 3 0 
C 3 -0.795609 2.683901 -1.55874 2.12132 -2.12132 
C 1.55874 -2.683901 0.795609 -3 0 -3 
C -0.795609 -3 -1.55874 -2.683901 -2.12132 -2.12132 
C -2.683901 -1.55874 -3 -0.795609 -3 0 
C -3 0.795609 -2.683901 1.55874 -2.12132 2.12132 
C -1.55874 2.683901 -0.795609 3 0 3 
z
" style="stroke: #000000"/>
    </defs>
    <g clip-path="url(#pc301d4f6b6)">
     <use xlink:href="#ma662a21858" x="250.099291" y="277.434615" style="fill: #1f77b4; stroke: #000000"/>
     <use xlink:href="#ma662a21858" x="96.294533" y="307.8" style="fill: #1f77b4; stroke: #000000"/>
    </g>
   </g>
   <g id="line2d_20">
    <path d="M 250.099291 266.986311 
L 96.294533 307.8 
" clip-path="url(#pc301d4f6b6)" style="fill: none; stroke-dasharray: 3.7,1.6; stroke-dashoffset: 0; stroke: #1f77b4"/>
    <defs>
     <path id="m4aba42dc25" d="M -3 3 
L 3 3 
L 3 -3 
L -3 -3 
z
" style="stroke: #000000; stroke-linejoin: miter"/>
    </defs>
    <g clip-path="url(#pc301d4f6b6)">
     <use xlink:href="#m4aba42dc25" x="250.099291" y="266.986311" style="fill: #1f77b4; stroke: #000000; stroke-linejoin: miter"/>
     <use xlink:href="#m4aba42dc25" x="96.294533" y="307.8" style="fill: #1f77b4; stroke: #000000; stroke-linejoin: miter"/>
    </g>
   </g>
   <g id="line2d_21">
    <path d="M 96.294533 307.8 
L 98.857946 306.976878 
L 101.421358 305.943028 
L 103.984771 304.662311 
L 106.548183 303.166287 
L 110.393302 300.620567 
L 115.520128 296.88064 
L 128.337191 287.047916 
L 137.309135 280.336854 
L 144.999373 274.831727 
L 152.689611 269.568499 
L 161.661555 263.721215 
L 170.633499 258.165435 
L 179.605443 252.873952 
L 188.577388 247.820855 
L 198.831038 242.307463 
L 209.084689 237.042766 
L 220.620046 231.38237 
L 232.155402 225.966112 
L 244.972466 220.197386 
L 259.071235 214.113511 
L 274.451711 207.743017 
L 291.113893 201.105709 
L 309.057781 194.21334 
L 328.283376 187.070734 
L 350.072384 179.22174 
L 374.424804 170.696745 
L 401.340636 161.513424 
L 432.101588 151.256188 
L 467.989365 139.533747 
L 509.003967 126.378459 
L 556.427101 111.406779 
L 611.540472 94.246814 
L 675.625788 74.535413 
L 737.147691 55.8 
L 737.147691 55.8 
" clip-path="url(#pc301d4f6b6)" style="fill: none; stroke: #2ca02c; stroke-width: 2; stroke-linecap: square"/>
   </g>
   <g id="line2d_22">
    <path d="M 250.099291 272.210463 
L 96.294533 307.8 
" clip-path="url(#pc301d4f6b6)" style="fill: none; stroke-dasharray: 3.7,1.6; stroke-dashoffset: 0; stroke: #2ca02c"/>
    <defs>
     <path id="m143641f99d" d="M 0 3 
C 0.795609 3 1.55874 2.683901 2.12132 2.12132 
C 2.683901 1.55874 3 0.795609 3 0 
C 3 -0.795609 2.683901 -1.55874 2.12132 -2.12132 
C 1.55874 -2.683901 0.795609 -3 0 -3 
C -0.795609 -3 -1.55874 -2.683901 -2.12132 -2.12132 
C -2.683901 -1.55874 -3 -0.795609 -3 0 
C -3 0.795609 -2.683901 1.55874 -2.12132 2.12132 
C -1.55874 2.683901 -0.795609 3 0 3 
z
" style="stroke: #000000"/>
    </defs>
    <g clip-path="url(#pc301d4f6b6)">
     <use xlink:href="#m143641f99d" x="250.099291" y="272.210463" style="fill: #2ca02c; stroke: #000000"/>
     <use xlink:href="#m143641f99d" x="96.294533" y="307.8" style="fill: #2ca02c; stroke: #000000"/>
    </g>
   </g>
   <g id="line2d_23">
    <path d="M 250.099291 262.088668 
L 96.294533 307.8 
" clip-path="url(#pc301d4f6b6)" style="fill: none; stroke-dasharray: 3.7,1.6; stroke-dashoffset: 0; stroke: #2ca02c"/>
    <defs>
     <path id="m9914e5a9c8" d="M -3 3 
L 3 3 
L 3 -3 
L -3 -3 
z
" style="stroke: #000000; stroke-linejoin: miter"/>
    </defs>
    <g clip-path="url(#pc301d4f6b6)">
     <use xlink:href="#m9914e5a9c8" x="250.099291" y="262.088668" style="fill: #2ca02c; stroke: #000000; stroke-linejoin: miter"/>
     <use xlink:href="#m9914e5a9c8" x="96.294533" y="307.8" style="fill: #2ca02c; stroke: #000000; stroke-linejoin: miter"/>
    </g>
   </g>
   <g id="patch_3">
    <path d="M 64.251875 320.4 
L 64.251875 43.2 
" style="fill: none; stroke: #000000; stroke-width: 0.8; stroke-linejoin: miter; stroke-linecap: square"/>
   </g>
   <g id="patch_4">
    <path d="M 403.904049 320.4 
L 403.904049 43.2 
" style="fill: none; stroke: #000000; stroke-width: 0.8; stroke-linejoin: miter; stroke-linecap: square"/>
   </g>
   <g id="patch_5">
    <path d="M 64.251875 320.4 
L 403.904049 320.4 
" style="fill: none; stroke: #000000; stroke-width: 0.8; stroke-linejoin: miter; stroke-linecap: square"/>
   </g>
   <g id="patch_6">
    <path d="M 64.251875 43.2 
L 403.904049 43.2 
" style="fill: none; stroke: #000000; stroke-width: 0.8; stroke-linejoin: miter; stroke-linecap: square"/>
   </g>
   <g id="legend_1">
    <g id="patch_7">
     <path d="M 71.251875 183.303125 
L 222.3925 183.303125 
Q 224.3925 183.303125 224.3925 181.303125 
L 224.3925 50.2 
Q 224.3925 48.2 222.3925 48.2 
L 71.251875 48.2 
Q 69.251875 48.2 69.251875 50.2 
L 69.251875 181.303125 
Q 69.251875 183.303125 71.251875 183.303125 
z
" style="fill: #ffffff; opacity: 0.8; stroke: #cccccc; stroke-linejoin: miter"/>
    </g>
    <g id="line2d_24">
     <path d="M 73.251875 56.298437 
L 93.251875 56.298437 
" style="fill: none; stroke: #000000; stroke-width: 2; stroke-linecap: square"/>
    </g>
    <g id="line2d_25"/>
    <g id="text_17">
     <!-- Sim 25 -->
     <g transform="translate(101.251875 59.798437) scale(0.1 -0.1)">
      <defs>
       <path id="DejaVuSans-53" d="M 3425 4513 
L 3425 3897 
Q 3066 4069 2747 4153 
Q 2428 4238 2131 4238 
Q 1616 4238 1336 4038 
Q 1056 3838 1056 3469 
Q 1056 3159 1242 3001 
Q 1428 2844 1947 2747 
L 2328 2669 
Q 3034 2534 3370 2195 
Q 3706 1856 3706 1288 
Q 3706 609 3251 259 
Q 2797 -91 1919 -91 
Q 1588 -91 1214 -16 
Q 841 59 441 206 
L 441 856 
Q 825 641 1194 531 
Q 1563 422 1919 422 
Q 2459 422 2753 634 
Q 3047 847 3047 1241 
Q 3047 1584 2836 1778 
Q 2625 1972 2144 2069 
L 1759 2144 
Q 1053 2284 737 2584 
Q 422 2884 422 3419 
Q 422 4038 858 4394 
Q 1294 4750 2059 4750 
Q 2388 4750 2728 4690 
Q 3069 4631 3425 4513 
z
" transform="scale(0.015625)"/>
       <path id="DejaVuSans-69" d="M 603 3500 
L 1178 3500 
L 1178 0 
L 603 0 
L 603 3500 
z
M 603 4863 
L 1178 4863 
L 1178 4134 
L 603 4134 
L 603 4863 
z
" transform="scale(0.015625)"/>
       <path id="DejaVuSans-6d" d="M 3328 2828 
Q 3544 3216 3844 3400 
Q 4144 3584 4550 3584 
Q 5097 3584 5394 3201 
Q 5691 2819 5691 2113 
L 5691 0 
L 5113 0 
L 5113 2094 
Q 5113 2597 4934 2840 
Q 4756 3084 4391 3084 
Q 3944 3084 3684 2787 
Q 3425 2491 3425 1978 
L 3425 0 
L 2847 0 
L 2847 2094 
Q 2847 2600 2669 2842 
Q 2491 3084 2119 3084 
Q 1678 3084 1418 2786 
Q 1159 2488 1159 1978 
L 1159 0 
L 581 0 
L 581 3500 
L 1159 3500 
L 1159 2956 
Q 1356 3278 1631 3431 
Q 1906 3584 2284 3584 
Q 2666 3584 2933 3390 
Q 3200 3197 3328 2828 
z
" transform="scale(0.015625)"/>
       <path id="DejaVuSans-20" transform="scale(0.015625)"/>
      </defs>
      <use xlink:href="#DejaVuSans-53"/>
      <use xlink:href="#DejaVuSans-69" transform="translate(63.476562 0)"/>
      <use xlink:href="#DejaVuSans-6d" transform="translate(91.259766 0)"/>
      <use xlink:href="#DejaVuSans-20" transform="translate(188.671875 0)"/>
      <use xlink:href="#DejaVuSans-32" transform="translate(220.458984 0)"/>
      <use xlink:href="#DejaVuSans-35" transform="translate(284.082031 0)"/>
     </g>
    </g>
    <g id="LineCollection_7">
     <path d="M 83.251875 75.976562 
L 83.251875 65.976562 
" style="fill: none; stroke: #000000"/>
    </g>
    <g id="line2d_26">
     <path d="M 73.251875 70.976562 
L 93.251875 70.976562 
" style="fill: none; stroke-dasharray: 3.7,1.6; stroke-dashoffset: 0; stroke: #000000"/>
    </g>
    <g id="line2d_27">
     <g>
      <use xlink:href="#m00955ecfa7" x="83.251875" y="70.976562" style="stroke: #000000"/>
     </g>
    </g>
    <g id="text_18">
     <!-- 25 mg tab±SD (n=12) -->
     <g transform="translate(101.251875 74.476562) scale(0.1 -0.1)">
      <defs>
       <path id="DejaVuSans-67" d="M 2906 1791 
Q 2906 2416 2648 2759 
Q 2391 3103 1925 3103 
Q 1463 3103 1205 2759 
Q 947 2416 947 1791 
Q 947 1169 1205 825 
Q 1463 481 1925 481 
Q 2391 481 2648 825 
Q 2906 1169 2906 1791 
z
M 3481 434 
Q 3481 -459 3084 -895 
Q 2688 -1331 1869 -1331 
Q 1566 -1331 1297 -1286 
Q 1028 -1241 775 -1147 
L 775 -588 
Q 1028 -725 1275 -790 
Q 1522 -856 1778 -856 
Q 2344 -856 2625 -561 
Q 2906 -266 2906 331 
L 2906 616 
Q 2728 306 2450 153 
Q 2172 0 1784 0 
Q 1141 0 747 490 
Q 353 981 353 1791 
Q 353 2603 747 3093 
Q 1141 3584 1784 3584 
Q 2172 3584 2450 3431 
Q 2728 3278 2906 2969 
L 2906 3500 
L 3481 3500 
L 3481 434 
z
" transform="scale(0.015625)"/>
       <path id="DejaVuSans-74" d="M 1172 4494 
L 1172 3500 
L 2356 3500 
L 2356 3053 
L 1172 3053 
L 1172 1153 
Q 1172 725 1289 603 
Q 1406 481 1766 481 
L 2356 481 
L 2356 0 
L 1766 0 
Q 1100 0 847 248 
Q 594 497 594 1153 
L 594 3053 
L 172 3053 
L 172 3500 
L 594 3500 
L 594 4494 
L 1172 4494 
z
" transform="scale(0.015625)"/>
       <path id="DejaVuSans-61" d="M 2194 1759 
Q 1497 1759 1228 1600 
Q 959 1441 959 1056 
Q 959 750 1161 570 
Q 1363 391 1709 391 
Q 2188 391 2477 730 
Q 2766 1069 2766 1631 
L 2766 1759 
L 2194 1759 
z
M 3341 1997 
L 3341 0 
L 2766 0 
L 2766 531 
Q 2569 213 2275 61 
Q 1981 -91 1556 -91 
Q 1019 -91 701 211 
Q 384 513 384 1019 
Q 384 1609 779 1909 
Q 1175 2209 1959 2209 
L 2766 2209 
L 2766 2266 
Q 2766 2663 2505 2880 
Q 2244 3097 1772 3097 
Q 1472 3097 1187 3025 
Q 903 2953 641 2809 
L 641 3341 
Q 956 3463 1253 3523 
Q 1550 3584 1831 3584 
Q 2591 3584 2966 3190 
Q 3341 2797 3341 1997 
z
" transform="scale(0.015625)"/>
       <path id="DejaVuSans-62" d="M 3116 1747 
Q 3116 2381 2855 2742 
Q 2594 3103 2138 3103 
Q 1681 3103 1420 2742 
Q 1159 2381 1159 1747 
Q 1159 1113 1420 752 
Q 1681 391 2138 391 
Q 2594 391 2855 752 
Q 3116 1113 3116 1747 
z
M 1159 2969 
Q 1341 3281 1617 3432 
Q 1894 3584 2278 3584 
Q 2916 3584 3314 3078 
Q 3713 2572 3713 1747 
Q 3713 922 3314 415 
Q 2916 -91 2278 -91 
Q 1894 -91 1617 61 
Q 1341 213 1159 525 
L 1159 0 
L 581 0 
L 581 4863 
L 1159 4863 
L 1159 2969 
z
" transform="scale(0.015625)"/>
       <path id="DejaVuSans-b1" d="M 2944 4013 
L 2944 2803 
L 4684 2803 
L 4684 2272 
L 2944 2272 
L 2944 1063 
L 2419 1063 
L 2419 2272 
L 678 2272 
L 678 2803 
L 2419 2803 
L 2419 4013 
L 2944 4013 
z
M 678 531 
L 4684 531 
L 4684 0 
L 678 0 
L 678 531 
z
" transform="scale(0.015625)"/>
       <path id="DejaVuSans-44" d="M 1259 4147 
L 1259 519 
L 2022 519 
Q 2988 519 3436 956 
Q 3884 1394 3884 2338 
Q 3884 3275 3436 3711 
Q 2988 4147 2022 4147 
L 1259 4147 
z
M 628 4666 
L 1925 4666 
Q 3281 4666 3915 4102 
Q 4550 3538 4550 2338 
Q 4550 1131 3912 565 
Q 3275 0 1925 0 
L 628 0 
L 628 4666 
z
" transform="scale(0.015625)"/>
       <path id="DejaVuSans-28" d="M 1984 4856 
Q 1566 4138 1362 3434 
Q 1159 2731 1159 2009 
Q 1159 1288 1364 580 
Q 1569 -128 1984 -844 
L 1484 -844 
Q 1016 -109 783 600 
Q 550 1309 550 2009 
Q 550 2706 781 3412 
Q 1013 4119 1484 4856 
L 1984 4856 
z
" transform="scale(0.015625)"/>
       <path id="DejaVuSans-6e" d="M 3513 2113 
L 3513 0 
L 2938 0 
L 2938 2094 
Q 2938 2591 2744 2837 
Q 2550 3084 2163 3084 
Q 1697 3084 1428 2787 
Q 1159 2491 1159 1978 
L 1159 0 
L 581 0 
L 581 3500 
L 1159 3500 
L 1159 2956 
Q 1366 3272 1645 3428 
Q 1925 3584 2291 3584 
Q 2894 3584 3203 3211 
Q 3513 2838 3513 2113 
z
" transform="scale(0.015625)"/>
       <path id="DejaVuSans-3d" d="M 678 2906 
L 4684 2906 
L 4684 2381 
L 678 2381 
L 678 2906 
z
M 678 1631 
L 4684 1631 
L 4684 1100 
L 678 1100 
L 678 1631 
z
" transform="scale(0.015625)"/>
       <path id="DejaVuSans-29" d="M 513 4856 
L 1013 4856 
Q 1481 4119 1714 3412 
Q 1947 2706 1947 2009 
Q 1947 1309 1714 600 
Q 1481 -109 1013 -844 
L 513 -844 
Q 928 -128 1133 580 
Q 1338 1288 1338 2009 
Q 1338 2731 1133 3434 
Q 928 4138 513 4856 
z
" transform="scale(0.015625)"/>
      </defs>
      <use xlink:href="#DejaVuSans-32"/>
      <use xlink:href="#DejaVuSans-35" transform="translate(63.623047 0)"/>
      <use xlink:href="#DejaVuSans-20" transform="translate(127.246094 0)"/>
      <use xlink:href="#DejaVuSans-6d" transform="translate(159.033203 0)"/>
      <use xlink:href="#DejaVuSans-67" transform="translate(256.445312 0)"/>
      <use xlink:href="#DejaVuSans-20" transform="translate(319.921875 0)"/>
      <use xlink:href="#DejaVuSans-74" transform="translate(351.708984 0)"/>
      <use xlink:href="#DejaVuSans-61" transform="translate(390.917969 0)"/>
      <use xlink:href="#DejaVuSans-62" transform="translate(452.197266 0)"/>
      <use xlink:href="#DejaVuSans-b1" transform="translate(515.673828 0)"/>
      <use xlink:href="#DejaVuSans-53" transform="translate(599.462891 0)"/>
      <use xlink:href="#DejaVuSans-44" transform="translate(662.939453 0)"/>
      <use xlink:href="#DejaVuSans-20" transform="translate(739.941406 0)"/>
      <use xlink:href="#DejaVuSans-28" transform="translate(771.728516 0)"/>
      <use xlink:href="#DejaVuSans-6e" transform="translate(810.742188 0)"/>
      <use xlink:href="#DejaVuSans-3d" transform="translate(874.121094 0)"/>
      <use xlink:href="#DejaVuSans-31" transform="translate(957.910156 0)"/>
      <use xlink:href="#DejaVuSans-32" transform="translate(1021.533203 0)"/>
      <use xlink:href="#DejaVuSans-29" transform="translate(1085.15625 0)"/>
     </g>
    </g>
    <g id="LineCollection_8">
     <path d="M 83.251875 90.654687 
L 83.251875 80.654687 
" style="fill: none; stroke: #000000"/>
    </g>
    <g id="line2d_28">
     <path d="M 73.251875 85.654687 
L 93.251875 85.654687 
" style="fill: none; stroke-dasharray: 3.7,1.6; stroke-dashoffset: 0; stroke: #000000"/>
    </g>
    <g id="line2d_29">
     <g>
      <use xlink:href="#m703c17583c" x="83.251875" y="85.654687" style="stroke: #000000; stroke-linejoin: miter"/>
     </g>
    </g>
    <g id="text_19">
     <!-- 25 mg sus±SD (n=12) -->
     <g transform="translate(101.251875 89.154687) scale(0.1 -0.1)">
      <defs>
       <path id="DejaVuSans-73" d="M 2834 3397 
L 2834 2853 
Q 2591 2978 2328 3040 
Q 2066 3103 1784 3103 
Q 1356 3103 1142 2972 
Q 928 2841 928 2578 
Q 928 2378 1081 2264 
Q 1234 2150 1697 2047 
L 1894 2003 
Q 2506 1872 2764 1633 
Q 3022 1394 3022 966 
Q 3022 478 2636 193 
Q 2250 -91 1575 -91 
Q 1294 -91 989 -36 
Q 684 19 347 128 
L 347 722 
Q 666 556 975 473 
Q 1284 391 1588 391 
Q 1994 391 2212 530 
Q 2431 669 2431 922 
Q 2431 1156 2273 1281 
Q 2116 1406 1581 1522 
L 1381 1569 
Q 847 1681 609 1914 
Q 372 2147 372 2553 
Q 372 3047 722 3315 
Q 1072 3584 1716 3584 
Q 2034 3584 2315 3537 
Q 2597 3491 2834 3397 
z
" transform="scale(0.015625)"/>
       <path id="DejaVuSans-75" d="M 544 1381 
L 544 3500 
L 1119 3500 
L 1119 1403 
Q 1119 906 1312 657 
Q 1506 409 1894 409 
Q 2359 409 2629 706 
Q 2900 1003 2900 1516 
L 2900 3500 
L 3475 3500 
L 3475 0 
L 2900 0 
L 2900 538 
Q 2691 219 2414 64 
Q 2138 -91 1772 -91 
Q 1169 -91 856 284 
Q 544 659 544 1381 
z
M 1991 3584 
L 1991 3584 
z
" transform="scale(0.015625)"/>
      </defs>
      <use xlink:href="#DejaVuSans-32"/>
      <use xlink:href="#DejaVuSans-35" transform="translate(63.623047 0)"/>
      <use xlink:href="#DejaVuSans-20" transform="translate(127.246094 0)"/>
      <use xlink:href="#DejaVuSans-6d" transform="translate(159.033203 0)"/>
      <use xlink:href="#DejaVuSans-67" transform="translate(256.445312 0)"/>
      <use xlink:href="#DejaVuSans-20" transform="translate(319.921875 0)"/>
      <use xlink:href="#DejaVuSans-73" transform="translate(351.708984 0)"/>
      <use xlink:href="#DejaVuSans-75" transform="translate(403.808594 0)"/>
      <use xlink:href="#DejaVuSans-73" transform="translate(467.1875 0)"/>
      <use xlink:href="#DejaVuSans-b1" transform="translate(519.287109 0)"/>
      <use xlink:href="#DejaVuSans-53" transform="translate(603.076172 0)"/>
      <use xlink:href="#DejaVuSans-44" transform="translate(666.552734 0)"/>
      <use xlink:href="#DejaVuSans-20" transform="translate(743.554688 0)"/>
      <use xlink:href="#DejaVuSans-28" transform="translate(775.341797 0)"/>
      <use xlink:href="#DejaVuSans-6e" transform="translate(814.355469 0)"/>
      <use xlink:href="#DejaVuSans-3d" transform="translate(877.734375 0)"/>
      <use xlink:href="#DejaVuSans-31" transform="translate(961.523438 0)"/>
      <use xlink:href="#DejaVuSans-32" transform="translate(1025.146484 0)"/>
      <use xlink:href="#DejaVuSans-29" transform="translate(1088.769531 0)"/>
     </g>
    </g>
    <g id="line2d_30">
     <path d="M 73.251875 100.332812 
L 93.251875 100.332812 
" style="fill: none; stroke: #1f77b4; stroke-width: 2; stroke-linecap: square"/>
    </g>
    <g id="line2d_31"/>
    <g id="text_20">
     <!-- Sim 50 -->
     <g transform="translate(101.251875 103.832812) scale(0.1 -0.1)">
      <use xlink:href="#DejaVuSans-53"/>
      <use xlink:href="#DejaVuSans-69" transform="translate(63.476562 0)"/>
      <use xlink:href="#DejaVuSans-6d" transform="translate(91.259766 0)"/>
      <use xlink:href="#DejaVuSans-20" transform="translate(188.671875 0)"/>
      <use xlink:href="#DejaVuSans-35" transform="translate(220.458984 0)"/>
      <use xlink:href="#DejaVuSans-30" transform="translate(284.082031 0)"/>
     </g>
    </g>
    <g id="LineCollection_9">
     <path d="M 83.251875 120.010937 
L 83.251875 110.010937 
" style="fill: none; stroke: #1f77b4"/>
    </g>
    <g id="line2d_32">
     <path d="M 73.251875 115.010937 
L 93.251875 115.010937 
" style="fill: none; stroke-dasharray: 3.7,1.6; stroke-dashoffset: 0; stroke: #1f77b4"/>
    </g>
    <g id="line2d_33">
     <g>
      <use xlink:href="#ma662a21858" x="83.251875" y="115.010937" style="fill: #1f77b4; stroke: #000000"/>
     </g>
    </g>
    <g id="text_21">
     <!-- 50 mg tab±SD (n=12) -->
     <g transform="translate(101.251875 118.510937) scale(0.1 -0.1)">
      <use xlink:href="#DejaVuSans-35"/>
      <use xlink:href="#DejaVuSans-30" transform="translate(63.623047 0)"/>
      <use xlink:href="#DejaVuSans-20" transform="translate(127.246094 0)"/>
      <use xlink:href="#DejaVuSans-6d" transform="translate(159.033203 0)"/>
      <use xlink:href="#DejaVuSans-67" transform="translate(256.445312 0)"/>
      <use xlink:href="#DejaVuSans-20" transform="translate(319.921875 0)"/>
      <use xlink:href="#DejaVuSans-74" transform="translate(351.708984 0)"/>
      <use xlink:href="#DejaVuSans-61" transform="translate(390.917969 0)"/>
      <use xlink:href="#DejaVuSans-62" transform="translate(452.197266 0)"/>
      <use xlink:href="#DejaVuSans-b1" transform="translate(515.673828 0)"/>
      <use xlink:href="#DejaVuSans-53" transform="translate(599.462891 0)"/>
      <use xlink:href="#DejaVuSans-44" transform="translate(662.939453 0)"/>
      <use xlink:href="#DejaVuSans-20" transform="translate(739.941406 0)"/>
      <use xlink:href="#DejaVuSans-28" transform="translate(771.728516 0)"/>
      <use xlink:href="#DejaVuSans-6e" transform="translate(810.742188 0)"/>
      <use xlink:href="#DejaVuSans-3d" transform="translate(874.121094 0)"/>
      <use xlink:href="#DejaVuSans-31" transform="translate(957.910156 0)"/>
      <use xlink:href="#DejaVuSans-32" transform="translate(1021.533203 0)"/>
      <use xlink:href="#DejaVuSans-29" transform="translate(1085.15625 0)"/>
     </g>
    </g>
    <g id="LineCollection_10">
     <path d="M 83.251875 134.689062 
L 83.251875 124.689062 
" style="fill: none; stroke: #1f77b4"/>
    </g>
    <g id="line2d_34">
     <path d="M 73.251875 129.689062 
L 93.251875 129.689062 
" style="fill: none; stroke-dasharray: 3.7,1.6; stroke-dashoffset: 0; stroke: #1f77b4"/>
    </g>
    <g id="line2d_35">
     <g>
      <use xlink:href="#m4aba42dc25" x="83.251875" y="129.689062" style="fill: #1f77b4; stroke: #000000; stroke-linejoin: miter"/>
     </g>
    </g>
    <g id="text_22">
     <!-- 50 mg sus±SD (n=12) -->
     <g transform="translate(101.251875 133.189062) scale(0.1 -0.1)">
      <use xlink:href="#DejaVuSans-35"/>
      <use xlink:href="#DejaVuSans-30" transform="translate(63.623047 0)"/>
      <use xlink:href="#DejaVuSans-20" transform="translate(127.246094 0)"/>
      <use xlink:href="#DejaVuSans-6d" transform="translate(159.033203 0)"/>
      <use xlink:href="#DejaVuSans-67" transform="translate(256.445312 0)"/>
      <use xlink:href="#DejaVuSans-20" transform="translate(319.921875 0)"/>
      <use xlink:href="#DejaVuSans-73" transform="translate(351.708984 0)"/>
      <use xlink:href="#DejaVuSans-75" transform="translate(403.808594 0)"/>
      <use xlink:href="#DejaVuSans-73" transform="translate(467.1875 0)"/>
      <use xlink:href="#DejaVuSans-b1" transform="translate(519.287109 0)"/>
      <use xlink:href="#DejaVuSans-53" transform="translate(603.076172 0)"/>
      <use xlink:href="#DejaVuSans-44" transform="translate(666.552734 0)"/>
      <use xlink:href="#DejaVuSans-20" transform="translate(743.554688 0)"/>
      <use xlink:href="#DejaVuSans-28" transform="translate(775.341797 0)"/>
      <use xlink:href="#DejaVuSans-6e" transform="translate(814.355469 0)"/>
      <use xlink:href="#DejaVuSans-3d" transform="translate(877.734375 0)"/>
      <use xlink:href="#DejaVuSans-31" transform="translate(961.523438 0)"/>
      <use xlink:href="#DejaVuSans-32" transform="translate(1025.146484 0)"/>
      <use xlink:href="#DejaVuSans-29" transform="translate(1088.769531 0)"/>
     </g>
    </g>
    <g id="line2d_36">
     <path d="M 73.251875 144.367187 
L 93.251875 144.367187 
" style="fill: none; stroke: #2ca02c; stroke-width: 2; stroke-linecap: square"/>
    </g>
    <g id="line2d_37"/>
    <g id="text_23">
     <!-- Sim 100 -->
     <g transform="translate(101.251875 147.867187) scale(0.1 -0.1)">
      <use xlink:href="#DejaVuSans-53"/>
      <use xlink:href="#DejaVuSans-69" transform="translate(63.476562 0)"/>
      <use xlink:href="#DejaVuSans-6d" transform="translate(91.259766 0)"/>
      <use xlink:href="#DejaVuSans-20" transform="translate(188.671875 0)"/>
      <use xlink:href="#DejaVuSans-31" transform="translate(220.458984 0)"/>
      <use xlink:href="#DejaVuSans-30" transform="translate(284.082031 0)"/>
      <use xlink:href="#DejaVuSans-30" transform="translate(347.705078 0)"/>
     </g>
    </g>
    <g id="LineCollection_11">
     <path d="M 83.251875 164.045312 
L 83.251875 154.045312 
" style="fill: none; stroke: #2ca02c"/>
    </g>
    <g id="line2d_38">
     <path d="M 73.251875 159.045312 
L 93.251875 159.045312 
" style="fill: none; stroke-dasharray: 3.7,1.6; stroke-dashoffset: 0; stroke: #2ca02c"/>
    </g>
    <g id="line2d_39">
     <g>
      <use xlink:href="#m143641f99d" x="83.251875" y="159.045312" style="fill: #2ca02c; stroke: #000000"/>
     </g>
    </g>
    <g id="text_24">
     <!-- 100 mg tab±SD (n=12) -->
     <g transform="translate(101.251875 162.545312) scale(0.1 -0.1)">
      <use xlink:href="#DejaVuSans-31"/>
      <use xlink:href="#DejaVuSans-30" transform="translate(63.623047 0)"/>
      <use xlink:href="#DejaVuSans-30" transform="translate(127.246094 0)"/>
      <use xlink:href="#DejaVuSans-20" transform="translate(190.869141 0)"/>
      <use xlink:href="#DejaVuSans-6d" transform="translate(222.65625 0)"/>
      <use xlink:href="#DejaVuSans-67" transform="translate(320.068359 0)"/>
      <use xlink:href="#DejaVuSans-20" transform="translate(383.544922 0)"/>
      <use xlink:href="#DejaVuSans-74" transform="translate(415.332031 0)"/>
      <use xlink:href="#DejaVuSans-61" transform="translate(454.541016 0)"/>
      <use xlink:href="#DejaVuSans-62" transform="translate(515.820312 0)"/>
      <use xlink:href="#DejaVuSans-b1" transform="translate(579.296875 0)"/>
      <use xlink:href="#DejaVuSans-53" transform="translate(663.085938 0)"/>
      <use xlink:href="#DejaVuSans-44" transform="translate(726.5625 0)"/>
      <use xlink:href="#DejaVuSans-20" transform="translate(803.564453 0)"/>
      <use xlink:href="#DejaVuSans-28" transform="translate(835.351562 0)"/>
      <use xlink:href="#DejaVuSans-6e" transform="translate(874.365234 0)"/>
      <use xlink:href="#DejaVuSans-3d" transform="translate(937.744141 0)"/>
      <use xlink:href="#DejaVuSans-31" transform="translate(1021.533203 0)"/>
      <use xlink:href="#DejaVuSans-32" transform="translate(1085.15625 0)"/>
      <use xlink:href="#DejaVuSans-29" transform="translate(1148.779297 0)"/>
     </g>
    </g>
    <g id="LineCollection_12">
     <path d="M 83.251875 178.723437 
L 83.251875 168.723437 
" style="fill: none; stroke: #2ca02c"/>
    </g>
    <g id="line2d_40">
     <path d="M 73.251875 173.723437 
L 93.251875 173.723437 
" style="fill: none; stroke-dasharray: 3.7,1.6; stroke-dashoffset: 0; stroke: #2ca02c"/>
    </g>
    <g id="line2d_41">
     <g>
      <use xlink:href="#m9914e5a9c8" x="83.251875" y="173.723437" style="fill: #2ca02c; stroke: #000000; stroke-linejoin: miter"/>
     </g>
    </g>
    <g id="text_25">
     <!-- 100 mg sus±SD (n=12) -->
     <g transform="translate(101.251875 177.223437) scale(0.1 -0.1)">
      <use xlink:href="#DejaVuSans-31"/>
      <use xlink:href="#DejaVuSans-30" transform="translate(63.623047 0)"/>
      <use xlink:href="#DejaVuSans-30" transform="translate(127.246094 0)"/>
      <use xlink:href="#DejaVuSans-20" transform="translate(190.869141 0)"/>
      <use xlink:href="#DejaVuSans-6d" transform="translate(222.65625 0)"/>
      <use xlink:href="#DejaVuSans-67" transform="translate(320.068359 0)"/>
      <use xlink:href="#DejaVuSans-20" transform="translate(383.544922 0)"/>
      <use xlink:href="#DejaVuSans-73" transform="translate(415.332031 0)"/>
      <use xlink:href="#DejaVuSans-75" transform="translate(467.431641 0)"/>
      <use xlink:href="#DejaVuSans-73" transform="translate(530.810547 0)"/>
      <use xlink:href="#DejaVuSans-b1" transform="translate(582.910156 0)"/>
      <use xlink:href="#DejaVuSans-53" transform="translate(666.699219 0)"/>
      <use xlink:href="#DejaVuSans-44" transform="translate(730.175781 0)"/>
      <use xlink:href="#DejaVuSans-20" transform="translate(807.177734 0)"/>
      <use xlink:href="#DejaVuSans-28" transform="translate(838.964844 0)"/>
      <use xlink:href="#DejaVuSans-6e" transform="translate(877.978516 0)"/>
      <use xlink:href="#DejaVuSans-3d" transform="translate(941.357422 0)"/>
      <use xlink:href="#DejaVuSans-31" transform="translate(1025.146484 0)"/>
      <use xlink:href="#DejaVuSans-32" transform="translate(1088.769531 0)"/>
      <use xlink:href="#DejaVuSans-29" transform="translate(1152.392578 0)"/>
     </g>
    </g>
   </g>
  </g>
  <g id="axes_2">
   <g id="patch_8">
    <path d="M 505.799701 320.4 
L 845.451875 320.4 
L 845.451875 43.2 
L 505.799701 43.2 
z
" style="fill: #ffffff"/>
   </g>
   <g id="matplotlib.axis_3">
    <g id="xtick_6">
     <g id="line2d_42">
      <g>
       <use xlink:href="#m8ffb9061fe" x="537.842359" y="320.4" style="stroke: #000000; stroke-width: 0.8"/>
      </g>
     </g>
     <g id="text_26">
      <!-- 0 -->
      <g transform="translate(533.070484 338.797656) scale(0.15 -0.15)">
       <use xlink:href="#DejaVuSans-30"/>
      </g>
     </g>
    </g>
    <g id="xtick_7">
     <g id="line2d_43">
      <g>
       <use xlink:href="#m8ffb9061fe" x="601.927675" y="320.4" style="stroke: #000000; stroke-width: 0.8"/>
      </g>
     </g>
     <g id="text_27">
      <!-- 5 -->
      <g transform="translate(597.1558 338.797656) scale(0.15 -0.15)">
       <use xlink:href="#DejaVuSans-35"/>
      </g>
     </g>
    </g>
    <g id="xtick_8">
     <g id="line2d_44">
      <g>
       <use xlink:href="#m8ffb9061fe" x="666.012991" y="320.4" style="stroke: #000000; stroke-width: 0.8"/>
      </g>
     </g>
     <g id="text_28">
      <!-- 10 -->
      <g transform="translate(656.469241 338.797656) scale(0.15 -0.15)">
       <use xlink:href="#DejaVuSans-31"/>
       <use xlink:href="#DejaVuSans-30" transform="translate(63.623047 0)"/>
      </g>
     </g>
    </g>
    <g id="xtick_9">
     <g id="line2d_45">
      <g>
       <use xlink:href="#m8ffb9061fe" x="730.098307" y="320.4" style="stroke: #000000; stroke-width: 0.8"/>
      </g>
     </g>
     <g id="text_29">
      <!-- 15 -->
      <g transform="translate(720.554557 338.797656) scale(0.15 -0.15)">
       <use xlink:href="#DejaVuSans-31"/>
       <use xlink:href="#DejaVuSans-35" transform="translate(63.623047 0)"/>
      </g>
     </g>
    </g>
    <g id="xtick_10">
     <g id="line2d_46">
      <g>
       <use xlink:href="#m8ffb9061fe" x="794.183622" y="320.4" style="stroke: #000000; stroke-width: 0.8"/>
      </g>
     </g>
     <g id="text_30">
      <!-- 20 -->
      <g transform="translate(784.639872 338.797656) scale(0.15 -0.15)">
       <use xlink:href="#DejaVuSans-32"/>
       <use xlink:href="#DejaVuSans-30" transform="translate(63.623047 0)"/>
      </g>
     </g>
    </g>
    <g id="text_31">
     <!-- time [hr] -->
     <g transform="translate(630.551257 359.594375) scale(0.18 -0.18)">
      <use xlink:href="#DejaVuSans-Bold-74"/>
      <use xlink:href="#DejaVuSans-Bold-69" transform="translate(47.802734 0)"/>
      <use xlink:href="#DejaVuSans-Bold-6d" transform="translate(82.080078 0)"/>
      <use xlink:href="#DejaVuSans-Bold-65" transform="translate(186.279297 0)"/>
      <use xlink:href="#DejaVuSans-Bold-20" transform="translate(254.101562 0)"/>
      <use xlink:href="#DejaVuSans-Bold-5b" transform="translate(288.916016 0)"/>
      <use xlink:href="#DejaVuSans-Bold-68" transform="translate(334.619141 0)"/>
      <use xlink:href="#DejaVuSans-Bold-72" transform="translate(405.810547 0)"/>
      <use xlink:href="#DejaVuSans-Bold-5d" transform="translate(455.126953 0)"/>
     </g>
    </g>
   </g>
   <g id="matplotlib.axis_4">
    <g id="ytick_10">
     <g id="line2d_47">
      <g>
       <use xlink:href="#m8836410758" x="505.799701" y="307.8" style="stroke: #000000; stroke-width: 0.8"/>
      </g>
     </g>
     <g id="text_32">
      <!-- 0 -->
      <g transform="translate(489.255951 313.498828) scale(0.15 -0.15)">
       <use xlink:href="#DejaVuSans-30"/>
      </g>
     </g>
    </g>
    <g id="ytick_11">
     <g id="line2d_48">
      <g>
       <use xlink:href="#m8836410758" x="505.799701" y="265.147871" style="stroke: #000000; stroke-width: 0.8"/>
      </g>
     </g>
     <g id="text_33">
      <!-- 200 -->
      <g transform="translate(470.168451 270.846699) scale(0.15 -0.15)">
       <use xlink:href="#DejaVuSans-32"/>
       <use xlink:href="#DejaVuSans-30" transform="translate(63.623047 0)"/>
       <use xlink:href="#DejaVuSans-30" transform="translate(127.246094 0)"/>
      </g>
     </g>
    </g>
    <g id="ytick_12">
     <g id="line2d_49">
      <g>
       <use xlink:href="#m8836410758" x="505.799701" y="222.495743" style="stroke: #000000; stroke-width: 0.8"/>
      </g>
     </g>
     <g id="text_34">
      <!-- 400 -->
      <g transform="translate(470.168451 228.194571) scale(0.15 -0.15)">
       <use xlink:href="#DejaVuSans-34"/>
       <use xlink:href="#DejaVuSans-30" transform="translate(63.623047 0)"/>
       <use xlink:href="#DejaVuSans-30" transform="translate(127.246094 0)"/>
      </g>
     </g>
    </g>
    <g id="ytick_13">
     <g id="line2d_50">
      <g>
       <use xlink:href="#m8836410758" x="505.799701" y="179.843614" style="stroke: #000000; stroke-width: 0.8"/>
      </g>
     </g>
     <g id="text_35">
      <!-- 600 -->
      <g transform="translate(470.168451 185.542442) scale(0.15 -0.15)">
       <use xlink:href="#DejaVuSans-36"/>
       <use xlink:href="#DejaVuSans-30" transform="translate(63.623047 0)"/>
       <use xlink:href="#DejaVuSans-30" transform="translate(127.246094 0)"/>
      </g>
     </g>
    </g>
    <g id="ytick_14">
     <g id="line2d_51">
      <g>
       <use xlink:href="#m8836410758" x="505.799701" y="137.191485" style="stroke: #000000; stroke-width: 0.8"/>
      </g>
     </g>
     <g id="text_36">
      <!-- 800 -->
      <g transform="translate(470.168451 142.890313) scale(0.15 -0.15)">
       <use xlink:href="#DejaVuSans-38"/>
       <use xlink:href="#DejaVuSans-30" transform="translate(63.623047 0)"/>
       <use xlink:href="#DejaVuSans-30" transform="translate(127.246094 0)"/>
      </g>
     </g>
    </g>
    <g id="ytick_15">
     <g id="line2d_52">
      <g>
       <use xlink:href="#m8836410758" x="505.799701" y="94.539356" style="stroke: #000000; stroke-width: 0.8"/>
      </g>
     </g>
     <g id="text_37">
      <!-- 1000 -->
      <g transform="translate(460.624701 100.238185) scale(0.15 -0.15)">
       <use xlink:href="#DejaVuSans-31"/>
       <use xlink:href="#DejaVuSans-30" transform="translate(63.623047 0)"/>
       <use xlink:href="#DejaVuSans-30" transform="translate(127.246094 0)"/>
       <use xlink:href="#DejaVuSans-30" transform="translate(190.869141 0)"/>
      </g>
     </g>
    </g>
    <g id="ytick_16">
     <g id="line2d_53">
      <g>
       <use xlink:href="#m8836410758" x="505.799701" y="51.887228" style="stroke: #000000; stroke-width: 0.8"/>
      </g>
     </g>
     <g id="text_38">
      <!-- 1200 -->
      <g transform="translate(460.624701 57.586056) scale(0.15 -0.15)">
       <use xlink:href="#DejaVuSans-31"/>
       <use xlink:href="#DejaVuSans-32" transform="translate(63.623047 0)"/>
       <use xlink:href="#DejaVuSans-30" transform="translate(127.246094 0)"/>
       <use xlink:href="#DejaVuSans-30" transform="translate(190.869141 0)"/>
      </g>
     </g>
    </g>
    <g id="text_39">
     <!-- Chloride urine [mmole] -->
     <g transform="translate(452.881264 299.214844) rotate(-90) scale(0.18 -0.18)">
      <defs>
       <path id="DejaVuSans-Bold-43" d="M 4288 256 
Q 3956 84 3597 -3 
Q 3238 -91 2847 -91 
Q 1681 -91 1000 561 
Q 319 1213 319 2328 
Q 319 3447 1000 4098 
Q 1681 4750 2847 4750 
Q 3238 4750 3597 4662 
Q 3956 4575 4288 4403 
L 4288 3438 
Q 3953 3666 3628 3772 
Q 3303 3878 2944 3878 
Q 2300 3878 1931 3465 
Q 1563 3053 1563 2328 
Q 1563 1606 1931 1193 
Q 2300 781 2944 781 
Q 3303 781 3628 887 
Q 3953 994 4288 1222 
L 4288 256 
z
" transform="scale(0.015625)"/>
      </defs>
      <use xlink:href="#DejaVuSans-Bold-43"/>
      <use xlink:href="#DejaVuSans-Bold-68" transform="translate(73.388672 0)"/>
      <use xlink:href="#DejaVuSans-Bold-6c" transform="translate(144.580078 0)"/>
      <use xlink:href="#DejaVuSans-Bold-6f" transform="translate(178.857422 0)"/>
      <use xlink:href="#DejaVuSans-Bold-72" transform="translate(247.558594 0)"/>
      <use xlink:href="#DejaVuSans-Bold-69" transform="translate(296.875 0)"/>
      <use xlink:href="#DejaVuSans-Bold-64" transform="translate(331.152344 0)"/>
      <use xlink:href="#DejaVuSans-Bold-65" transform="translate(402.734375 0)"/>
      <use xlink:href="#DejaVuSans-Bold-20" transform="translate(470.556641 0)"/>
      <use xlink:href="#DejaVuSans-Bold-75" transform="translate(505.371094 0)"/>
      <use xlink:href="#DejaVuSans-Bold-72" transform="translate(576.5625 0)"/>
      <use xlink:href="#DejaVuSans-Bold-69" transform="translate(625.878906 0)"/>
      <use xlink:href="#DejaVuSans-Bold-6e" transform="translate(660.15625 0)"/>
      <use xlink:href="#DejaVuSans-Bold-65" transform="translate(731.347656 0)"/>
      <use xlink:href="#DejaVuSans-Bold-20" transform="translate(799.169922 0)"/>
      <use xlink:href="#DejaVuSans-Bold-5b" transform="translate(833.984375 0)"/>
      <use xlink:href="#DejaVuSans-Bold-6d" transform="translate(879.6875 0)"/>
      <use xlink:href="#DejaVuSans-Bold-6d" transform="translate(983.886719 0)"/>
      <use xlink:href="#DejaVuSans-Bold-6f" transform="translate(1088.085938 0)"/>
      <use xlink:href="#DejaVuSans-Bold-6c" transform="translate(1156.787109 0)"/>
      <use xlink:href="#DejaVuSans-Bold-65" transform="translate(1191.064453 0)"/>
      <use xlink:href="#DejaVuSans-Bold-5d" transform="translate(1258.886719 0)"/>
     </g>
    </g>
   </g>
   <g id="LineCollection_13">
    <path d="M 691.647117 293.938058 
L 691.647117 263.655047 
" clip-path="url(#p692ed4d09e)" style="fill: none; stroke: #000000"/>
    <path clip-path="url(#p692ed4d09e)" style="fill: none; stroke: #000000"/>
   </g>
   <g id="LineCollection_14">
    <path d="M 691.647117 291.592191 
L 691.647117 265.574393 
" clip-path="url(#p692ed4d09e)" style="fill: none; stroke: #000000"/>
    <path clip-path="url(#p692ed4d09e)" style="fill: none; stroke: #000000"/>
   </g>
   <g id="LineCollection_15">
    <path d="M 691.647117 293.724798 
L 691.647117 265.574393 
" clip-path="url(#p692ed4d09e)" style="fill: none; stroke: #1f77b4"/>
    <path clip-path="url(#p692ed4d09e)" style="fill: none; stroke: #1f77b4"/>
   </g>
   <g id="LineCollection_16">
    <path d="M 691.647117 287.96676 
L 691.647117 259.389834 
" clip-path="url(#p692ed4d09e)" style="fill: none; stroke: #1f77b4"/>
    <path clip-path="url(#p692ed4d09e)" style="fill: none; stroke: #1f77b4"/>
   </g>
   <g id="LineCollection_17">
    <path d="M 691.647117 295.644143 
L 691.647117 259.389834 
" clip-path="url(#p692ed4d09e)" style="fill: none; stroke: #2ca02c"/>
    <path clip-path="url(#p692ed4d09e)" style="fill: none; stroke: #2ca02c"/>
   </g>
   <g id="LineCollection_18">
    <path d="M 691.647117 292.871755 
L 691.647117 247.660499 
" clip-path="url(#p692ed4d09e)" style="fill: none; stroke: #2ca02c"/>
    <path clip-path="url(#p692ed4d09e)" style="fill: none; stroke: #2ca02c"/>
   </g>
   <g id="line2d_54">
    <path d="M 537.842359 307.8 
L 540.405772 307.245492 
L 542.969184 306.48352 
L 545.532597 305.479435 
L 548.09601 304.265754 
L 551.941128 302.155833 
L 557.067954 299.021855 
L 577.575255 286.095975 
L 585.265493 281.629011 
L 592.955731 277.428598 
L 600.645969 273.480384 
L 608.336206 269.763604 
L 617.308151 265.691303 
L 626.280095 261.873029 
L 635.252039 258.280286 
L 645.50569 254.418315 
L 655.75934 250.785369 
L 667.294697 246.936934 
L 680.11176 242.916956 
L 692.928823 239.127848 
L 707.027593 235.186359 
L 722.408069 231.114748 
L 739.070251 226.927581 
L 758.295845 222.33308 
L 780.084853 217.372254 
L 804.437273 212.070628 
L 831.353106 206.439886 
L 853.651875 201.91549 
L 853.651875 201.91549 
" clip-path="url(#p692ed4d09e)" style="fill: none; stroke: #000000; stroke-width: 2; stroke-linecap: square"/>
   </g>
   <g id="line2d_55">
    <path d="M 691.647117 278.796552 
L 537.842359 307.8 
" clip-path="url(#p692ed4d09e)" style="fill: none; stroke-dasharray: 3.7,1.6; stroke-dashoffset: 0; stroke: #000000"/>
    <g clip-path="url(#p692ed4d09e)">
     <use xlink:href="#m00955ecfa7" x="691.647117" y="278.796552" style="stroke: #000000"/>
     <use xlink:href="#m00955ecfa7" x="537.842359" y="307.8" style="stroke: #000000"/>
    </g>
   </g>
   <g id="line2d_56">
    <path d="M 691.647117 278.583292 
L 537.842359 307.8 
" clip-path="url(#p692ed4d09e)" style="fill: none; stroke-dasharray: 3.7,1.6; stroke-dashoffset: 0; stroke: #000000"/>
    <g clip-path="url(#p692ed4d09e)">
     <use xlink:href="#m703c17583c" x="691.647117" y="278.583292" style="stroke: #000000; stroke-linejoin: miter"/>
     <use xlink:href="#m703c17583c" x="537.842359" y="307.8" style="stroke: #000000; stroke-linejoin: miter"/>
    </g>
   </g>
   <g id="line2d_57">
    <path d="M 537.842359 307.8 
L 540.405772 307.195469 
L 541.687478 306.747248 
L 542.969184 306.176269 
L 545.532597 304.674191 
L 548.09601 302.756092 
L 550.659422 300.518975 
L 554.504541 296.763383 
L 559.631366 291.37324 
L 571.166723 279.163511 
L 577.575255 272.778113 
L 582.70208 267.947958 
L 587.828905 263.368766 
L 592.955731 259.032189 
L 599.364262 253.932597 
L 605.772794 249.162914 
L 612.181325 244.694472 
L 618.589857 240.500342 
L 624.998389 236.555861 
L 631.40692 232.838694 
L 639.097158 228.649917 
L 646.787396 224.728486 
L 654.477634 221.046954 
L 663.449578 217.022807 
L 672.421522 213.258394 
L 681.393466 209.724223 
L 691.647117 205.934206 
L 701.900768 202.378005 
L 713.436124 198.621119 
L 724.971481 195.088799 
L 737.788544 191.391226 
L 751.887314 187.560452 
L 767.26779 183.620487 
L 783.929972 179.587563 
L 801.87386 175.470874 
L 822.381161 171.000616 
L 845.451875 166.211246 
L 853.651875 164.559866 
L 853.651875 164.559866 
" clip-path="url(#p692ed4d09e)" style="fill: none; stroke: #1f77b4; stroke-width: 2; stroke-linecap: square"/>
   </g>
   <g id="line2d_58">
    <path d="M 691.647117 279.649595 
L 537.842359 307.8 
" clip-path="url(#p692ed4d09e)" style="fill: none; stroke-dasharray: 3.7,1.6; stroke-dashoffset: 0; stroke: #1f77b4"/>
    <g clip-path="url(#p692ed4d09e)">
     <use xlink:href="#ma662a21858" x="691.647117" y="279.649595" style="fill: #1f77b4; stroke: #000000"/>
     <use xlink:href="#ma662a21858" x="537.842359" y="307.8" style="fill: #1f77b4; stroke: #000000"/>
    </g>
   </g>
   <g id="line2d_59">
    <path d="M 691.647117 273.678297 
L 537.842359 307.8 
" clip-path="url(#p692ed4d09e)" style="fill: none; stroke-dasharray: 3.7,1.6; stroke-dashoffset: 0; stroke: #1f77b4"/>
    <g clip-path="url(#p692ed4d09e)">
     <use xlink:href="#m4aba42dc25" x="691.647117" y="273.678297" style="fill: #1f77b4; stroke: #000000; stroke-linejoin: miter"/>
     <use xlink:href="#m4aba42dc25" x="537.842359" y="307.8" style="fill: #1f77b4; stroke: #000000; stroke-linejoin: miter"/>
    </g>
   </g>
   <g id="line2d_60">
    <path d="M 537.842359 307.8 
L 539.124065 307.520018 
L 540.405772 307.095444 
L 541.687478 306.451467 
L 542.969184 305.56259 
L 544.250891 304.430056 
L 545.532597 303.069359 
L 546.814303 301.50308 
L 549.377716 297.856099 
L 551.941128 293.69016 
L 555.786247 286.843778 
L 571.166723 258.522729 
L 576.293549 249.849723 
L 581.420374 241.728679 
L 586.547199 234.15435 
L 591.674024 227.099148 
L 596.80085 220.526681 
L 601.927675 214.398464 
L 607.0545 208.677085 
L 612.181325 203.327556 
L 617.308151 198.317782 
L 622.434976 193.618599 
L 627.561801 189.203617 
L 632.688626 185.048997 
L 637.815452 181.133207 
L 644.223983 176.544847 
L 650.632515 172.265369 
L 657.041046 168.264688 
L 663.449578 164.516129 
L 669.85811 160.995985 
L 677.548348 157.043751 
L 685.238585 153.357906 
L 692.928823 149.910225 
L 701.900768 146.156055 
L 710.872712 142.658136 
L 719.844656 139.38679 
L 730.098307 135.892658 
L 740.351957 132.627751 
L 751.887314 129.193492 
L 764.704377 125.63406 
L 777.52144 122.306272 
L 791.62021 118.873756 
L 807.000686 115.360017 
L 823.662868 111.781261 
L 841.606756 108.147069 
L 853.651875 105.815448 
L 853.651875 105.815448 
" clip-path="url(#p692ed4d09e)" style="fill: none; stroke: #2ca02c; stroke-width: 2; stroke-linecap: square"/>
   </g>
   <g id="line2d_61">
    <path d="M 691.647117 277.516989 
L 537.842359 307.8 
" clip-path="url(#p692ed4d09e)" style="fill: none; stroke-dasharray: 3.7,1.6; stroke-dashoffset: 0; stroke: #2ca02c"/>
    <g clip-path="url(#p692ed4d09e)">
     <use xlink:href="#m143641f99d" x="691.647117" y="277.516989" style="fill: #2ca02c; stroke: #000000"/>
     <use xlink:href="#m143641f99d" x="537.842359" y="307.8" style="fill: #2ca02c; stroke: #000000"/>
    </g>
   </g>
   <g id="line2d_62">
    <path d="M 691.647117 270.266127 
L 537.842359 307.8 
" clip-path="url(#p692ed4d09e)" style="fill: none; stroke-dasharray: 3.7,1.6; stroke-dashoffset: 0; stroke: #2ca02c"/>
    <g clip-path="url(#p692ed4d09e)">
     <use xlink:href="#m9914e5a9c8" x="691.647117" y="270.266127" style="fill: #2ca02c; stroke: #000000; stroke-linejoin: miter"/>
     <use xlink:href="#m9914e5a9c8" x="537.842359" y="307.8" style="fill: #2ca02c; stroke: #000000; stroke-linejoin: miter"/>
    </g>
   </g>
   <g id="patch_9">
    <path d="M 505.799701 320.4 
L 505.799701 43.2 
" style="fill: none; stroke: #000000; stroke-width: 0.8; stroke-linejoin: miter; stroke-linecap: square"/>
   </g>
   <g id="patch_10">
    <path d="M 845.451875 320.4 
L 845.451875 43.2 
" style="fill: none; stroke: #000000; stroke-width: 0.8; stroke-linejoin: miter; stroke-linecap: square"/>
   </g>
   <g id="patch_11">
    <path d="M 505.799701 320.4 
L 845.451875 320.4 
" style="fill: none; stroke: #000000; stroke-width: 0.8; stroke-linejoin: miter; stroke-linecap: square"/>
   </g>
   <g id="patch_12">
    <path d="M 505.799701 43.2 
L 845.451875 43.2 
" style="fill: none; stroke: #000000; stroke-width: 0.8; stroke-linejoin: miter; stroke-linecap: square"/>
   </g>
   <g id="legend_2">
    <g id="patch_13">
     <path d="M 512.799701 183.303125 
L 663.940326 183.303125 
Q 665.940326 183.303125 665.940326 181.303125 
L 665.940326 50.2 
Q 665.940326 48.2 663.940326 48.2 
L 512.799701 48.2 
Q 510.799701 48.2 510.799701 50.2 
L 510.799701 181.303125 
Q 510.799701 183.303125 512.799701 183.303125 
z
" style="fill: #ffffff; opacity: 0.8; stroke: #cccccc; stroke-linejoin: miter"/>
    </g>
    <g id="line2d_63">
     <path d="M 514.799701 56.298437 
L 534.799701 56.298437 
" style="fill: none; stroke: #000000; stroke-width: 2; stroke-linecap: square"/>
    </g>
    <g id="line2d_64"/>
    <g id="text_40">
     <!-- Sim 25 -->
     <g transform="translate(542.799701 59.798437) scale(0.1 -0.1)">
      <use xlink:href="#DejaVuSans-53"/>
      <use xlink:href="#DejaVuSans-69" transform="translate(63.476562 0)"/>
      <use xlink:href="#DejaVuSans-6d" transform="translate(91.259766 0)"/>
      <use xlink:href="#DejaVuSans-20" transform="translate(188.671875 0)"/>
      <use xlink:href="#DejaVuSans-32" transform="translate(220.458984 0)"/>
      <use xlink:href="#DejaVuSans-35" transform="translate(284.082031 0)"/>
     </g>
    </g>
    <g id="LineCollection_19">
     <path d="M 524.799701 75.976562 
L 524.799701 65.976562 
" style="fill: none; stroke: #000000"/>
    </g>
    <g id="line2d_65">
     <path d="M 514.799701 70.976562 
L 534.799701 70.976562 
" style="fill: none; stroke-dasharray: 3.7,1.6; stroke-dashoffset: 0; stroke: #000000"/>
    </g>
    <g id="line2d_66">
     <g>
      <use xlink:href="#m00955ecfa7" x="524.799701" y="70.976562" style="stroke: #000000"/>
     </g>
    </g>
    <g id="text_41">
     <!-- 25 mg tab±SD (n=12) -->
     <g transform="translate(542.799701 74.476562) scale(0.1 -0.1)">
      <use xlink:href="#DejaVuSans-32"/>
      <use xlink:href="#DejaVuSans-35" transform="translate(63.623047 0)"/>
      <use xlink:href="#DejaVuSans-20" transform="translate(127.246094 0)"/>
      <use xlink:href="#DejaVuSans-6d" transform="translate(159.033203 0)"/>
      <use xlink:href="#DejaVuSans-67" transform="translate(256.445312 0)"/>
      <use xlink:href="#DejaVuSans-20" transform="translate(319.921875 0)"/>
      <use xlink:href="#DejaVuSans-74" transform="translate(351.708984 0)"/>
      <use xlink:href="#DejaVuSans-61" transform="translate(390.917969 0)"/>
      <use xlink:href="#DejaVuSans-62" transform="translate(452.197266 0)"/>
      <use xlink:href="#DejaVuSans-b1" transform="translate(515.673828 0)"/>
      <use xlink:href="#DejaVuSans-53" transform="translate(599.462891 0)"/>
      <use xlink:href="#DejaVuSans-44" transform="translate(662.939453 0)"/>
      <use xlink:href="#DejaVuSans-20" transform="translate(739.941406 0)"/>
      <use xlink:href="#DejaVuSans-28" transform="translate(771.728516 0)"/>
      <use xlink:href="#DejaVuSans-6e" transform="translate(810.742188 0)"/>
      <use xlink:href="#DejaVuSans-3d" transform="translate(874.121094 0)"/>
      <use xlink:href="#DejaVuSans-31" transform="translate(957.910156 0)"/>
      <use xlink:href="#DejaVuSans-32" transform="translate(1021.533203 0)"/>
      <use xlink:href="#DejaVuSans-29" transform="translate(1085.15625 0)"/>
     </g>
    </g>
    <g id="LineCollection_20">
     <path d="M 524.799701 90.654687 
L 524.799701 80.654687 
" style="fill: none; stroke: #000000"/>
    </g>
    <g id="line2d_67">
     <path d="M 514.799701 85.654687 
L 534.799701 85.654687 
" style="fill: none; stroke-dasharray: 3.7,1.6; stroke-dashoffset: 0; stroke: #000000"/>
    </g>
    <g id="line2d_68">
     <g>
      <use xlink:href="#m703c17583c" x="524.799701" y="85.654687" style="stroke: #000000; stroke-linejoin: miter"/>
     </g>
    </g>
    <g id="text_42">
     <!-- 25 mg sus±SD (n=12) -->
     <g transform="translate(542.799701 89.154687) scale(0.1 -0.1)">
      <use xlink:href="#DejaVuSans-32"/>
      <use xlink:href="#DejaVuSans-35" transform="translate(63.623047 0)"/>
      <use xlink:href="#DejaVuSans-20" transform="translate(127.246094 0)"/>
      <use xlink:href="#DejaVuSans-6d" transform="translate(159.033203 0)"/>
      <use xlink:href="#DejaVuSans-67" transform="translate(256.445312 0)"/>
      <use xlink:href="#DejaVuSans-20" transform="translate(319.921875 0)"/>
      <use xlink:href="#DejaVuSans-73" transform="translate(351.708984 0)"/>
      <use xlink:href="#DejaVuSans-75" transform="translate(403.808594 0)"/>
      <use xlink:href="#DejaVuSans-73" transform="translate(467.1875 0)"/>
      <use xlink:href="#DejaVuSans-b1" transform="translate(519.287109 0)"/>
      <use xlink:href="#DejaVuSans-53" transform="translate(603.076172 0)"/>
      <use xlink:href="#DejaVuSans-44" transform="translate(666.552734 0)"/>
      <use xlink:href="#DejaVuSans-20" transform="translate(743.554688 0)"/>
      <use xlink:href="#DejaVuSans-28" transform="translate(775.341797 0)"/>
      <use xlink:href="#DejaVuSans-6e" transform="translate(814.355469 0)"/>
      <use xlink:href="#DejaVuSans-3d" transform="translate(877.734375 0)"/>
      <use xlink:href="#DejaVuSans-31" transform="translate(961.523438 0)"/>
      <use xlink:href="#DejaVuSans-32" transform="translate(1025.146484 0)"/>
      <use xlink:href="#DejaVuSans-29" transform="translate(1088.769531 0)"/>
     </g>
    </g>
    <g id="line2d_69">
     <path d="M 514.799701 100.332812 
L 534.799701 100.332812 
" style="fill: none; stroke: #1f77b4; stroke-width: 2; stroke-linecap: square"/>
    </g>
    <g id="line2d_70"/>
    <g id="text_43">
     <!-- Sim 50 -->
     <g transform="translate(542.799701 103.832812) scale(0.1 -0.1)">
      <use xlink:href="#DejaVuSans-53"/>
      <use xlink:href="#DejaVuSans-69" transform="translate(63.476562 0)"/>
      <use xlink:href="#DejaVuSans-6d" transform="translate(91.259766 0)"/>
      <use xlink:href="#DejaVuSans-20" transform="translate(188.671875 0)"/>
      <use xlink:href="#DejaVuSans-35" transform="translate(220.458984 0)"/>
      <use xlink:href="#DejaVuSans-30" transform="translate(284.082031 0)"/>
     </g>
    </g>
    <g id="LineCollection_21">
     <path d="M 524.799701 120.010937 
L 524.799701 110.010937 
" style="fill: none; stroke: #1f77b4"/>
    </g>
    <g id="line2d_71">
     <path d="M 514.799701 115.010937 
L 534.799701 115.010937 
" style="fill: none; stroke-dasharray: 3.7,1.6; stroke-dashoffset: 0; stroke: #1f77b4"/>
    </g>
    <g id="line2d_72">
     <g>
      <use xlink:href="#ma662a21858" x="524.799701" y="115.010937" style="fill: #1f77b4; stroke: #000000"/>
     </g>
    </g>
    <g id="text_44">
     <!-- 50 mg tab±SD (n=12) -->
     <g transform="translate(542.799701 118.510937) scale(0.1 -0.1)">
      <use xlink:href="#DejaVuSans-35"/>
      <use xlink:href="#DejaVuSans-30" transform="translate(63.623047 0)"/>
      <use xlink:href="#DejaVuSans-20" transform="translate(127.246094 0)"/>
      <use xlink:href="#DejaVuSans-6d" transform="translate(159.033203 0)"/>
      <use xlink:href="#DejaVuSans-67" transform="translate(256.445312 0)"/>
      <use xlink:href="#DejaVuSans-20" transform="translate(319.921875 0)"/>
      <use xlink:href="#DejaVuSans-74" transform="translate(351.708984 0)"/>
      <use xlink:href="#DejaVuSans-61" transform="translate(390.917969 0)"/>
      <use xlink:href="#DejaVuSans-62" transform="translate(452.197266 0)"/>
      <use xlink:href="#DejaVuSans-b1" transform="translate(515.673828 0)"/>
      <use xlink:href="#DejaVuSans-53" transform="translate(599.462891 0)"/>
      <use xlink:href="#DejaVuSans-44" transform="translate(662.939453 0)"/>
      <use xlink:href="#DejaVuSans-20" transform="translate(739.941406 0)"/>
      <use xlink:href="#DejaVuSans-28" transform="translate(771.728516 0)"/>
      <use xlink:href="#DejaVuSans-6e" transform="translate(810.742188 0)"/>
      <use xlink:href="#DejaVuSans-3d" transform="translate(874.121094 0)"/>
      <use xlink:href="#DejaVuSans-31" transform="translate(957.910156 0)"/>
      <use xlink:href="#DejaVuSans-32" transform="translate(1021.533203 0)"/>
      <use xlink:href="#DejaVuSans-29" transform="translate(1085.15625 0)"/>
     </g>
    </g>
    <g id="LineCollection_22">
     <path d="M 524.799701 134.689062 
L 524.799701 124.689062 
" style="fill: none; stroke: #1f77b4"/>
    </g>
    <g id="line2d_73">
     <path d="M 514.799701 129.689062 
L 534.799701 129.689062 
" style="fill: none; stroke-dasharray: 3.7,1.6; stroke-dashoffset: 0; stroke: #1f77b4"/>
    </g>
    <g id="line2d_74">
     <g>
      <use xlink:href="#m4aba42dc25" x="524.799701" y="129.689062" style="fill: #1f77b4; stroke: #000000; stroke-linejoin: miter"/>
     </g>
    </g>
    <g id="text_45">
     <!-- 50 mg sus±SD (n=12) -->
     <g transform="translate(542.799701 133.189062) scale(0.1 -0.1)">
      <use xlink:href="#DejaVuSans-35"/>
      <use xlink:href="#DejaVuSans-30" transform="translate(63.623047 0)"/>
      <use xlink:href="#DejaVuSans-20" transform="translate(127.246094 0)"/>
      <use xlink:href="#DejaVuSans-6d" transform="translate(159.033203 0)"/>
      <use xlink:href="#DejaVuSans-67" transform="translate(256.445312 0)"/>
      <use xlink:href="#DejaVuSans-20" transform="translate(319.921875 0)"/>
      <use xlink:href="#DejaVuSans-73" transform="translate(351.708984 0)"/>
      <use xlink:href="#DejaVuSans-75" transform="translate(403.808594 0)"/>
      <use xlink:href="#DejaVuSans-73" transform="translate(467.1875 0)"/>
      <use xlink:href="#DejaVuSans-b1" transform="translate(519.287109 0)"/>
      <use xlink:href="#DejaVuSans-53" transform="translate(603.076172 0)"/>
      <use xlink:href="#DejaVuSans-44" transform="translate(666.552734 0)"/>
      <use xlink:href="#DejaVuSans-20" transform="translate(743.554688 0)"/>
      <use xlink:href="#DejaVuSans-28" transform="translate(775.341797 0)"/>
      <use xlink:href="#DejaVuSans-6e" transform="translate(814.355469 0)"/>
      <use xlink:href="#DejaVuSans-3d" transform="translate(877.734375 0)"/>
      <use xlink:href="#DejaVuSans-31" transform="translate(961.523438 0)"/>
      <use xlink:href="#DejaVuSans-32" transform="translate(1025.146484 0)"/>
      <use xlink:href="#DejaVuSans-29" transform="translate(1088.769531 0)"/>
     </g>
    </g>
    <g id="line2d_75">
     <path d="M 514.799701 144.367187 
L 534.799701 144.367187 
" style="fill: none; stroke: #2ca02c; stroke-width: 2; stroke-linecap: square"/>
    </g>
    <g id="line2d_76"/>
    <g id="text_46">
     <!-- Sim 100 -->
     <g transform="translate(542.799701 147.867187) scale(0.1 -0.1)">
      <use xlink:href="#DejaVuSans-53"/>
      <use xlink:href="#DejaVuSans-69" transform="translate(63.476562 0)"/>
      <use xlink:href="#DejaVuSans-6d" transform="translate(91.259766 0)"/>
      <use xlink:href="#DejaVuSans-20" transform="translate(188.671875 0)"/>
      <use xlink:href="#DejaVuSans-31" transform="translate(220.458984 0)"/>
      <use xlink:href="#DejaVuSans-30" transform="translate(284.082031 0)"/>
      <use xlink:href="#DejaVuSans-30" transform="translate(347.705078 0)"/>
     </g>
    </g>
    <g id="LineCollection_23">
     <path d="M 524.799701 164.045312 
L 524.799701 154.045312 
" style="fill: none; stroke: #2ca02c"/>
    </g>
    <g id="line2d_77">
     <path d="M 514.799701 159.045312 
L 534.799701 159.045312 
" style="fill: none; stroke-dasharray: 3.7,1.6; stroke-dashoffset: 0; stroke: #2ca02c"/>
    </g>
    <g id="line2d_78">
     <g>
      <use xlink:href="#m143641f99d" x="524.799701" y="159.045312" style="fill: #2ca02c; stroke: #000000"/>
     </g>
    </g>
    <g id="text_47">
     <!-- 100 mg tab±SD (n=12) -->
     <g transform="translate(542.799701 162.545312) scale(0.1 -0.1)">
      <use xlink:href="#DejaVuSans-31"/>
      <use xlink:href="#DejaVuSans-30" transform="translate(63.623047 0)"/>
      <use xlink:href="#DejaVuSans-30" transform="translate(127.246094 0)"/>
      <use xlink:href="#DejaVuSans-20" transform="translate(190.869141 0)"/>
      <use xlink:href="#DejaVuSans-6d" transform="translate(222.65625 0)"/>
      <use xlink:href="#DejaVuSans-67" transform="translate(320.068359 0)"/>
      <use xlink:href="#DejaVuSans-20" transform="translate(383.544922 0)"/>
      <use xlink:href="#DejaVuSans-74" transform="translate(415.332031 0)"/>
      <use xlink:href="#DejaVuSans-61" transform="translate(454.541016 0)"/>
      <use xlink:href="#DejaVuSans-62" transform="translate(515.820312 0)"/>
      <use xlink:href="#DejaVuSans-b1" transform="translate(579.296875 0)"/>
      <use xlink:href="#DejaVuSans-53" transform="translate(663.085938 0)"/>
      <use xlink:href="#DejaVuSans-44" transform="translate(726.5625 0)"/>
      <use xlink:href="#DejaVuSans-20" transform="translate(803.564453 0)"/>
      <use xlink:href="#DejaVuSans-28" transform="translate(835.351562 0)"/>
      <use xlink:href="#DejaVuSans-6e" transform="translate(874.365234 0)"/>
      <use xlink:href="#DejaVuSans-3d" transform="translate(937.744141 0)"/>
      <use xlink:href="#DejaVuSans-31" transform="translate(1021.533203 0)"/>
      <use xlink:href="#DejaVuSans-32" transform="translate(1085.15625 0)"/>
      <use xlink:href="#DejaVuSans-29" transform="translate(1148.779297 0)"/>
     </g>
    </g>
    <g id="LineCollection_24">
     <path d="M 524.799701 178.723437 
L 524.799701 168.723437 
" style="fill: none; stroke: #2ca02c"/>
    </g>
    <g id="line2d_79">
     <path d="M 514.799701 173.723437 
L 534.799701 173.723437 
" style="fill: none; stroke-dasharray: 3.7,1.6; stroke-dashoffset: 0; stroke: #2ca02c"/>
    </g>
    <g id="line2d_80">
     <g>
      <use xlink:href="#m9914e5a9c8" x="524.799701" y="173.723437" style="fill: #2ca02c; stroke: #000000; stroke-linejoin: miter"/>
     </g>
    </g>
    <g id="text_48">
     <!-- 100 mg sus±SD (n=12) -->
     <g transform="translate(542.799701 177.223437) scale(0.1 -0.1)">
      <use xlink:href="#DejaVuSans-31"/>
      <use xlink:href="#DejaVuSans-30" transform="translate(63.623047 0)"/>
      <use xlink:href="#DejaVuSans-30" transform="translate(127.246094 0)"/>
      <use xlink:href="#DejaVuSans-20" transform="translate(190.869141 0)"/>
      <use xlink:href="#DejaVuSans-6d" transform="translate(222.65625 0)"/>
      <use xlink:href="#DejaVuSans-67" transform="translate(320.068359 0)"/>
      <use xlink:href="#DejaVuSans-20" transform="translate(383.544922 0)"/>
      <use xlink:href="#DejaVuSans-73" transform="translate(415.332031 0)"/>
      <use xlink:href="#DejaVuSans-75" transform="translate(467.431641 0)"/>
      <use xlink:href="#DejaVuSans-73" transform="translate(530.810547 0)"/>
      <use xlink:href="#DejaVuSans-b1" transform="translate(582.910156 0)"/>
      <use xlink:href="#DejaVuSans-53" transform="translate(666.699219 0)"/>
      <use xlink:href="#DejaVuSans-44" transform="translate(730.175781 0)"/>
      <use xlink:href="#DejaVuSans-20" transform="translate(807.177734 0)"/>
      <use xlink:href="#DejaVuSans-28" transform="translate(838.964844 0)"/>
      <use xlink:href="#DejaVuSans-6e" transform="translate(877.978516 0)"/>
      <use xlink:href="#DejaVuSans-3d" transform="translate(941.357422 0)"/>
      <use xlink:href="#DejaVuSans-31" transform="translate(1025.146484 0)"/>
      <use xlink:href="#DejaVuSans-32" transform="translate(1088.769531 0)"/>
      <use xlink:href="#DejaVuSans-29" transform="translate(1152.392578 0)"/>
     </g>
    </g>
   </g>
  </g>
  <g id="text_49">
   <!-- Patel1984 Tab4 -->
   <g transform="translate(334.105391 26.196094) scale(0.25 -0.25)">
    <defs>
     <path id="DejaVuSans-Bold-50" d="M 588 4666 
L 2584 4666 
Q 3475 4666 3951 4270 
Q 4428 3875 4428 3144 
Q 4428 2409 3951 2014 
Q 3475 1619 2584 1619 
L 1791 1619 
L 1791 0 
L 588 0 
L 588 4666 
z
M 1791 3794 
L 1791 2491 
L 2456 2491 
Q 2806 2491 2997 2661 
Q 3188 2831 3188 3144 
Q 3188 3456 2997 3625 
Q 2806 3794 2456 3794 
L 1791 3794 
z
" transform="scale(0.015625)"/>
     <path id="DejaVuSans-Bold-61" d="M 2106 1575 
Q 1756 1575 1579 1456 
Q 1403 1338 1403 1106 
Q 1403 894 1545 773 
Q 1688 653 1941 653 
Q 2256 653 2472 879 
Q 2688 1106 2688 1447 
L 2688 1575 
L 2106 1575 
z
M 3816 1997 
L 3816 0 
L 2688 0 
L 2688 519 
Q 2463 200 2181 54 
Q 1900 -91 1497 -91 
Q 953 -91 614 226 
Q 275 544 275 1050 
Q 275 1666 698 1953 
Q 1122 2241 2028 2241 
L 2688 2241 
L 2688 2328 
Q 2688 2594 2478 2717 
Q 2269 2841 1825 2841 
Q 1466 2841 1156 2769 
Q 847 2697 581 2553 
L 581 3406 
Q 941 3494 1303 3539 
Q 1666 3584 2028 3584 
Q 2975 3584 3395 3211 
Q 3816 2838 3816 1997 
z
" transform="scale(0.015625)"/>
     <path id="DejaVuSans-Bold-31" d="M 750 831 
L 1813 831 
L 1813 3847 
L 722 3622 
L 722 4441 
L 1806 4666 
L 2950 4666 
L 2950 831 
L 4013 831 
L 4013 0 
L 750 0 
L 750 831 
z
" transform="scale(0.015625)"/>
     <path id="DejaVuSans-Bold-39" d="M 641 103 
L 641 966 
Q 928 831 1190 764 
Q 1453 697 1709 697 
Q 2247 697 2547 995 
Q 2847 1294 2900 1881 
Q 2688 1725 2447 1647 
Q 2206 1569 1925 1569 
Q 1209 1569 770 1986 
Q 331 2403 331 3084 
Q 331 3838 820 4291 
Q 1309 4744 2131 4744 
Q 3044 4744 3544 4128 
Q 4044 3513 4044 2388 
Q 4044 1231 3459 570 
Q 2875 -91 1856 -91 
Q 1528 -91 1228 -42 
Q 928 6 641 103 
z
M 2125 2350 
Q 2441 2350 2600 2554 
Q 2759 2759 2759 3169 
Q 2759 3575 2600 3781 
Q 2441 3988 2125 3988 
Q 1809 3988 1650 3781 
Q 1491 3575 1491 3169 
Q 1491 2759 1650 2554 
Q 1809 2350 2125 2350 
z
" transform="scale(0.015625)"/>
     <path id="DejaVuSans-Bold-38" d="M 2228 2088 
Q 1891 2088 1709 1903 
Q 1528 1719 1528 1375 
Q 1528 1031 1709 848 
Q 1891 666 2228 666 
Q 2563 666 2741 848 
Q 2919 1031 2919 1375 
Q 2919 1722 2741 1905 
Q 2563 2088 2228 2088 
z
M 1350 2484 
Q 925 2613 709 2878 
Q 494 3144 494 3541 
Q 494 4131 934 4440 
Q 1375 4750 2228 4750 
Q 3075 4750 3515 4442 
Q 3956 4134 3956 3541 
Q 3956 3144 3739 2878 
Q 3522 2613 3097 2484 
Q 3572 2353 3814 2058 
Q 4056 1763 4056 1313 
Q 4056 619 3595 264 
Q 3134 -91 2228 -91 
Q 1319 -91 855 264 
Q 391 619 391 1313 
Q 391 1763 633 2058 
Q 875 2353 1350 2484 
z
M 1631 3419 
Q 1631 3141 1786 2991 
Q 1941 2841 2228 2841 
Q 2509 2841 2662 2991 
Q 2816 3141 2816 3419 
Q 2816 3697 2662 3845 
Q 2509 3994 2228 3994 
Q 1941 3994 1786 3844 
Q 1631 3694 1631 3419 
z
" transform="scale(0.015625)"/>
     <path id="DejaVuSans-Bold-34" d="M 2356 3675 
L 1038 1722 
L 2356 1722 
L 2356 3675 
z
M 2156 4666 
L 3494 4666 
L 3494 1722 
L 4159 1722 
L 4159 850 
L 3494 850 
L 3494 0 
L 2356 0 
L 2356 850 
L 288 850 
L 288 1881 
L 2156 4666 
z
" transform="scale(0.015625)"/>
     <path id="DejaVuSans-Bold-54" d="M 31 4666 
L 4331 4666 
L 4331 3756 
L 2784 3756 
L 2784 0 
L 1581 0 
L 1581 3756 
L 31 3756 
L 31 4666 
z
" transform="scale(0.015625)"/>
     <path id="DejaVuSans-Bold-62" d="M 2400 722 
Q 2759 722 2948 984 
Q 3138 1247 3138 1747 
Q 3138 2247 2948 2509 
Q 2759 2772 2400 2772 
Q 2041 2772 1848 2508 
Q 1656 2244 1656 1747 
Q 1656 1250 1848 986 
Q 2041 722 2400 722 
z
M 1656 2988 
Q 1888 3294 2169 3439 
Q 2450 3584 2816 3584 
Q 3463 3584 3878 3070 
Q 4294 2556 4294 1747 
Q 4294 938 3878 423 
Q 3463 -91 2816 -91 
Q 2450 -91 2169 54 
Q 1888 200 1656 506 
L 1656 0 
L 538 0 
L 538 4863 
L 1656 4863 
L 1656 2988 
z
" transform="scale(0.015625)"/>
    </defs>
    <use xlink:href="#DejaVuSans-Bold-50"/>
    <use xlink:href="#DejaVuSans-Bold-61" transform="translate(70.666016 0)"/>
    <use xlink:href="#DejaVuSans-Bold-74" transform="translate(138.146484 0)"/>
    <use xlink:href="#DejaVuSans-Bold-65" transform="translate(185.949219 0)"/>
    <use xlink:href="#DejaVuSans-Bold-6c" transform="translate(253.771484 0)"/>
    <use xlink:href="#DejaVuSans-Bold-31" transform="translate(288.048828 0)"/>
    <use xlink:href="#DejaVuSans-Bold-39" transform="translate(357.628906 0)"/>
    <use xlink:href="#DejaVuSans-Bold-38" transform="translate(427.208984 0)"/>
    <use xlink:href="#DejaVuSans-Bold-34" transform="translate(496.789062 0)"/>
    <use xlink:href="#DejaVuSans-Bold-20" transform="translate(566.369141 0)"/>
    <use xlink:href="#DejaVuSans-Bold-54" transform="translate(601.183594 0)"/>
    <use xlink:href="#DejaVuSans-Bold-61" transform="translate(656.521484 0)"/>
    <use xlink:href="#DejaVuSans-Bold-62" transform="translate(724.001953 0)"/>
    <use xlink:href="#DejaVuSans-Bold-34" transform="translate(795.583984 0)"/>
   </g>
  </g>
 </g>
 <defs>
  <clipPath id="pc301d4f6b6">
   <rect x="64.251875" y="43.2" width="339.652174" height="277.2"/>
  </clipPath>
  <clipPath id="p692ed4d09e">
   <rect x="505.799701" y="43.2" width="339.652174" height="277.2"/>
  </clipPath>
 </defs>
</svg>
