<?xml version="1.0" encoding="utf-8" standalone="no"?>
<!DOCTYPE svg PUBLIC "-//W3C//DTD SVG 1.1//EN"
  "http://www.w3.org/Graphics/SVG/1.1/DTD/svg11.dtd">
<svg xmlns:xlink="http://www.w3.org/1999/xlink" width="466.819063pt" height="683.737812pt" viewBox="0 0 466.819063 683.737812" xmlns="http://www.w3.org/2000/svg" version="1.1">
 <metadata>
  <rdf:RDF xmlns:dc="http://purl.org/dc/elements/1.1/" xmlns:cc="http://creativecommons.org/ns#" xmlns:rdf="http://www.w3.org/1999/02/22-rdf-syntax-ns#">
   <cc:Work>
    <dc:type rdf:resource="http://purl.org/dc/dcmitype/StillImage"/>
    <dc:date>2025-11-04T18:11:57.858388</dc:date>
    <dc:format>image/svg+xml</dc:format>
    <dc:creator>
     <cc:Agent>
      <dc:title>Matplotlib v3.10.7, https://matplotlib.org/</dc:title>
     </cc:Agent>
    </dc:creator>
   </cc:Work>
  </rdf:RDF>
 </metadata>
 <defs>
  <style type="text/css">*{stroke-linejoin: round; stroke-linecap: butt}</style>
 </defs>
 <g id="figure_1">
  <g id="patch_1">
   <path d="M 0 683.737812 
L 466.819063 683.737812 
L 466.819063 0 
L 0 0 
z
" style="fill: #ffffff"/>
  </g>
  <g id="axes_1">
   <g id="patch_2">
    <path d="M 69.019063 320.243478 
L 459.619063 320.243478 
L 459.619063 79.2 
L 69.019063 79.2 
z
" style="fill: #ffffff"/>
   </g>
   <g id="matplotlib.axis_1">
    <g id="xtick_1">
     <g id="line2d_1">
      <defs>
       <path id="m5cfa7c9593" d="M 0 0 
L 0 3.5 
" style="stroke: #000000; stroke-width: 0.8"/>
      </defs>
      <g>
       <use xlink:href="#m5cfa7c9593" x="86.773608" y="320.243478" style="stroke: #000000; stroke-width: 0.8"/>
      </g>
     </g>
     <g id="text_1">
      <!-- 0 -->
      <g transform="translate(82.001733 338.641135) scale(0.15 -0.15)">
       <defs>
        <path id="DejaVuSans-30" d="M 2034 4250 
Q 1547 4250 1301 3770 
Q 1056 3291 1056 2328 
Q 1056 1369 1301 889 
Q 1547 409 2034 409 
Q 2525 409 2770 889 
Q 3016 1369 3016 2328 
Q 3016 3291 2770 3770 
Q 2525 4250 2034 4250 
z
M 2034 4750 
Q 2819 4750 3233 4129 
Q 3647 3509 3647 2328 
Q 3647 1150 3233 529 
Q 2819 -91 2034 -91 
Q 1250 -91 836 529 
Q 422 1150 422 2328 
Q 422 3509 836 4129 
Q 1250 4750 2034 4750 
z
" transform="scale(0.015625)"/>
       </defs>
       <use xlink:href="#DejaVuSans-30"/>
      </g>
     </g>
    </g>
    <g id="xtick_2">
     <g id="line2d_2">
      <g>
       <use xlink:href="#m5cfa7c9593" x="175.546335" y="320.243478" style="stroke: #000000; stroke-width: 0.8"/>
      </g>
     </g>
     <g id="text_2">
      <!-- 10 -->
      <g transform="translate(166.002585 338.641135) scale(0.15 -0.15)">
       <defs>
        <path id="DejaVuSans-31" d="M 794 531 
L 1825 531 
L 1825 4091 
L 703 3866 
L 703 4441 
L 1819 4666 
L 2450 4666 
L 2450 531 
L 3481 531 
L 3481 0 
L 794 0 
L 794 531 
z
" transform="scale(0.015625)"/>
       </defs>
       <use xlink:href="#DejaVuSans-31"/>
       <use xlink:href="#DejaVuSans-30" transform="translate(63.623047 0)"/>
      </g>
     </g>
    </g>
    <g id="xtick_3">
     <g id="line2d_3">
      <g>
       <use xlink:href="#m5cfa7c9593" x="264.319063" y="320.243478" style="stroke: #000000; stroke-width: 0.8"/>
      </g>
     </g>
     <g id="text_3">
      <!-- 20 -->
      <g transform="translate(254.775313 338.641135) scale(0.15 -0.15)">
       <defs>
        <path id="DejaVuSans-32" d="M 1228 531 
L 3431 531 
L 3431 0 
L 469 0 
L 469 531 
Q 828 903 1448 1529 
Q 2069 2156 2228 2338 
Q 2531 2678 2651 2914 
Q 2772 3150 2772 3378 
Q 2772 3750 2511 3984 
Q 2250 4219 1831 4219 
Q 1534 4219 1204 4116 
Q 875 4013 500 3803 
L 500 4441 
Q 881 4594 1212 4672 
Q 1544 4750 1819 4750 
Q 2544 4750 2975 4387 
Q 3406 4025 3406 3419 
Q 3406 3131 3298 2873 
Q 3191 2616 2906 2266 
Q 2828 2175 2409 1742 
Q 1991 1309 1228 531 
z
" transform="scale(0.015625)"/>
       </defs>
       <use xlink:href="#DejaVuSans-32"/>
       <use xlink:href="#DejaVuSans-30" transform="translate(63.623047 0)"/>
      </g>
     </g>
    </g>
    <g id="xtick_4">
     <g id="line2d_4">
      <g>
       <use xlink:href="#m5cfa7c9593" x="353.09179" y="320.243478" style="stroke: #000000; stroke-width: 0.8"/>
      </g>
     </g>
     <g id="text_4">
      <!-- 30 -->
      <g transform="translate(343.54804 338.641135) scale(0.15 -0.15)">
       <defs>
        <path id="DejaVuSans-33" d="M 2597 2516 
Q 3050 2419 3304 2112 
Q 3559 1806 3559 1356 
Q 3559 666 3084 287 
Q 2609 -91 1734 -91 
Q 1441 -91 1130 -33 
Q 819 25 488 141 
L 488 750 
Q 750 597 1062 519 
Q 1375 441 1716 441 
Q 2309 441 2620 675 
Q 2931 909 2931 1356 
Q 2931 1769 2642 2001 
Q 2353 2234 1838 2234 
L 1294 2234 
L 1294 2753 
L 1863 2753 
Q 2328 2753 2575 2939 
Q 2822 3125 2822 3475 
Q 2822 3834 2567 4026 
Q 2313 4219 1838 4219 
Q 1578 4219 1281 4162 
Q 984 4106 628 3988 
L 628 4550 
Q 988 4650 1302 4700 
Q 1616 4750 1894 4750 
Q 2613 4750 3031 4423 
Q 3450 4097 3450 3541 
Q 3450 3153 3228 2886 
Q 3006 2619 2597 2516 
z
" transform="scale(0.015625)"/>
       </defs>
       <use xlink:href="#DejaVuSans-33"/>
       <use xlink:href="#DejaVuSans-30" transform="translate(63.623047 0)"/>
      </g>
     </g>
    </g>
    <g id="xtick_5">
     <g id="line2d_5">
      <g>
       <use xlink:href="#m5cfa7c9593" x="441.864517" y="320.243478" style="stroke: #000000; stroke-width: 0.8"/>
      </g>
     </g>
     <g id="text_5">
      <!-- 40 -->
      <g transform="translate(432.320767 338.641135) scale(0.15 -0.15)">
       <defs>
        <path id="DejaVuSans-34" d="M 2419 4116 
L 825 1625 
L 2419 1625 
L 2419 4116 
z
M 2253 4666 
L 3047 4666 
L 3047 1625 
L 3713 1625 
L 3713 1100 
L 3047 1100 
L 3047 0 
L 2419 0 
L 2419 1100 
L 313 1100 
L 313 1709 
L 2253 4666 
z
" transform="scale(0.015625)"/>
       </defs>
       <use xlink:href="#DejaVuSans-34"/>
       <use xlink:href="#DejaVuSans-30" transform="translate(63.623047 0)"/>
      </g>
     </g>
    </g>
    <g id="text_6">
     <!-- time [hr] -->
     <g transform="translate(219.244531 359.437853) scale(0.18 -0.18)">
      <defs>
       <path id="DejaVuSans-Bold-74" d="M 1759 4494 
L 1759 3500 
L 2913 3500 
L 2913 2700 
L 1759 2700 
L 1759 1216 
Q 1759 972 1856 886 
Q 1953 800 2241 800 
L 2816 800 
L 2816 0 
L 1856 0 
Q 1194 0 917 276 
Q 641 553 641 1216 
L 641 2700 
L 84 2700 
L 84 3500 
L 641 3500 
L 641 4494 
L 1759 4494 
z
" transform="scale(0.015625)"/>
       <path id="DejaVuSans-Bold-69" d="M 538 3500 
L 1656 3500 
L 1656 0 
L 538 0 
L 538 3500 
z
M 538 4863 
L 1656 4863 
L 1656 3950 
L 538 3950 
L 538 4863 
z
" transform="scale(0.015625)"/>
       <path id="DejaVuSans-Bold-6d" d="M 3781 2919 
Q 3994 3244 4286 3414 
Q 4578 3584 4928 3584 
Q 5531 3584 5847 3212 
Q 6163 2841 6163 2131 
L 6163 0 
L 5038 0 
L 5038 1825 
Q 5041 1866 5042 1909 
Q 5044 1953 5044 2034 
Q 5044 2406 4934 2573 
Q 4825 2741 4581 2741 
Q 4263 2741 4089 2478 
Q 3916 2216 3909 1719 
L 3909 0 
L 2784 0 
L 2784 1825 
Q 2784 2406 2684 2573 
Q 2584 2741 2328 2741 
Q 2006 2741 1831 2477 
Q 1656 2213 1656 1722 
L 1656 0 
L 531 0 
L 531 3500 
L 1656 3500 
L 1656 2988 
Q 1863 3284 2130 3434 
Q 2397 3584 2719 3584 
Q 3081 3584 3359 3409 
Q 3638 3234 3781 2919 
z
" transform="scale(0.015625)"/>
       <path id="DejaVuSans-Bold-65" d="M 4031 1759 
L 4031 1441 
L 1416 1441 
Q 1456 1047 1700 850 
Q 1944 653 2381 653 
Q 2734 653 3104 758 
Q 3475 863 3866 1075 
L 3866 213 
Q 3469 63 3072 -14 
Q 2675 -91 2278 -91 
Q 1328 -91 801 392 
Q 275 875 275 1747 
Q 275 2603 792 3093 
Q 1309 3584 2216 3584 
Q 3041 3584 3536 3087 
Q 4031 2591 4031 1759 
z
M 2881 2131 
Q 2881 2450 2695 2645 
Q 2509 2841 2209 2841 
Q 1884 2841 1681 2658 
Q 1478 2475 1428 2131 
L 2881 2131 
z
" transform="scale(0.015625)"/>
       <path id="DejaVuSans-Bold-20" transform="scale(0.015625)"/>
       <path id="DejaVuSans-Bold-5b" d="M 550 4863 
L 2491 4863 
L 2491 4159 
L 1613 4159 
L 1613 -141 
L 2491 -141 
L 2491 -844 
L 550 -844 
L 550 4863 
z
" transform="scale(0.015625)"/>
       <path id="DejaVuSans-Bold-68" d="M 4056 2131 
L 4056 0 
L 2931 0 
L 2931 347 
L 2931 1625 
Q 2931 2084 2911 2256 
Q 2891 2428 2841 2509 
Q 2775 2619 2662 2680 
Q 2550 2741 2406 2741 
Q 2056 2741 1856 2470 
Q 1656 2200 1656 1722 
L 1656 0 
L 538 0 
L 538 4863 
L 1656 4863 
L 1656 2988 
Q 1909 3294 2193 3439 
Q 2478 3584 2822 3584 
Q 3428 3584 3742 3212 
Q 4056 2841 4056 2131 
z
" transform="scale(0.015625)"/>
       <path id="DejaVuSans-Bold-72" d="M 3138 2547 
Q 2991 2616 2845 2648 
Q 2700 2681 2553 2681 
Q 2122 2681 1889 2404 
Q 1656 2128 1656 1613 
L 1656 0 
L 538 0 
L 538 3500 
L 1656 3500 
L 1656 2925 
Q 1872 3269 2151 3426 
Q 2431 3584 2822 3584 
Q 2878 3584 2943 3579 
Q 3009 3575 3134 3559 
L 3138 2547 
z
" transform="scale(0.015625)"/>
       <path id="DejaVuSans-Bold-5d" d="M 2375 -844 
L 434 -844 
L 434 -141 
L 1313 -141 
L 1313 4159 
L 434 4159 
L 434 4863 
L 2375 4863 
L 2375 -844 
z
" transform="scale(0.015625)"/>
      </defs>
      <use xlink:href="#DejaVuSans-Bold-74"/>
      <use xlink:href="#DejaVuSans-Bold-69" transform="translate(47.802734 0)"/>
      <use xlink:href="#DejaVuSans-Bold-6d" transform="translate(82.080078 0)"/>
      <use xlink:href="#DejaVuSans-Bold-65" transform="translate(186.279297 0)"/>
      <use xlink:href="#DejaVuSans-Bold-20" transform="translate(254.101562 0)"/>
      <use xlink:href="#DejaVuSans-Bold-5b" transform="translate(288.916016 0)"/>
      <use xlink:href="#DejaVuSans-Bold-68" transform="translate(334.619141 0)"/>
      <use xlink:href="#DejaVuSans-Bold-72" transform="translate(405.810547 0)"/>
      <use xlink:href="#DejaVuSans-Bold-5d" transform="translate(455.126953 0)"/>
     </g>
    </g>
   </g>
   <g id="matplotlib.axis_2">
    <g id="ytick_1">
     <g id="line2d_6">
      <defs>
       <path id="m65228c75b1" d="M 0 0 
L -3.5 0 
" style="stroke: #000000; stroke-width: 0.8"/>
      </defs>
      <g>
       <use xlink:href="#m65228c75b1" x="69.019063" y="295.853673" style="stroke: #000000; stroke-width: 0.8"/>
      </g>
     </g>
     <g id="text_7">
      <!-- 0.00 -->
      <g transform="translate(28.620625 301.552501) scale(0.15 -0.15)">
       <defs>
        <path id="DejaVuSans-2e" d="M 684 794 
L 1344 794 
L 1344 0 
L 684 0 
L 684 794 
z
" transform="scale(0.015625)"/>
       </defs>
       <use xlink:href="#DejaVuSans-30"/>
       <use xlink:href="#DejaVuSans-2e" transform="translate(63.623047 0)"/>
       <use xlink:href="#DejaVuSans-30" transform="translate(95.410156 0)"/>
       <use xlink:href="#DejaVuSans-30" transform="translate(159.033203 0)"/>
      </g>
     </g>
    </g>
    <g id="ytick_2">
     <g id="line2d_7">
      <g>
       <use xlink:href="#m65228c75b1" x="69.019063" y="262.398682" style="stroke: #000000; stroke-width: 0.8"/>
      </g>
     </g>
     <g id="text_8">
      <!-- 0.25 -->
      <g transform="translate(28.620625 268.09751) scale(0.15 -0.15)">
       <defs>
        <path id="DejaVuSans-35" d="M 691 4666 
L 3169 4666 
L 3169 4134 
L 1269 4134 
L 1269 2991 
Q 1406 3038 1543 3061 
Q 1681 3084 1819 3084 
Q 2600 3084 3056 2656 
Q 3513 2228 3513 1497 
Q 3513 744 3044 326 
Q 2575 -91 1722 -91 
Q 1428 -91 1123 -41 
Q 819 9 494 109 
L 494 744 
Q 775 591 1075 516 
Q 1375 441 1709 441 
Q 2250 441 2565 725 
Q 2881 1009 2881 1497 
Q 2881 1984 2565 2268 
Q 2250 2553 1709 2553 
Q 1456 2553 1204 2497 
Q 953 2441 691 2322 
L 691 4666 
z
" transform="scale(0.015625)"/>
       </defs>
       <use xlink:href="#DejaVuSans-30"/>
       <use xlink:href="#DejaVuSans-2e" transform="translate(63.623047 0)"/>
       <use xlink:href="#DejaVuSans-32" transform="translate(95.410156 0)"/>
       <use xlink:href="#DejaVuSans-35" transform="translate(159.033203 0)"/>
      </g>
     </g>
    </g>
    <g id="ytick_3">
     <g id="line2d_8">
      <g>
       <use xlink:href="#m65228c75b1" x="69.019063" y="228.94369" style="stroke: #000000; stroke-width: 0.8"/>
      </g>
     </g>
     <g id="text_9">
      <!-- 0.50 -->
      <g transform="translate(28.620625 234.642519) scale(0.15 -0.15)">
       <use xlink:href="#DejaVuSans-30"/>
       <use xlink:href="#DejaVuSans-2e" transform="translate(63.623047 0)"/>
       <use xlink:href="#DejaVuSans-35" transform="translate(95.410156 0)"/>
       <use xlink:href="#DejaVuSans-30" transform="translate(159.033203 0)"/>
      </g>
     </g>
    </g>
    <g id="ytick_4">
     <g id="line2d_9">
      <g>
       <use xlink:href="#m65228c75b1" x="69.019063" y="195.488699" style="stroke: #000000; stroke-width: 0.8"/>
      </g>
     </g>
     <g id="text_10">
      <!-- 0.75 -->
      <g transform="translate(28.620625 201.187527) scale(0.15 -0.15)">
       <defs>
        <path id="DejaVuSans-37" d="M 525 4666 
L 3525 4666 
L 3525 4397 
L 1831 0 
L 1172 0 
L 2766 4134 
L 525 4134 
L 525 4666 
z
" transform="scale(0.015625)"/>
       </defs>
       <use xlink:href="#DejaVuSans-30"/>
       <use xlink:href="#DejaVuSans-2e" transform="translate(63.623047 0)"/>
       <use xlink:href="#DejaVuSans-37" transform="translate(95.410156 0)"/>
       <use xlink:href="#DejaVuSans-35" transform="translate(159.033203 0)"/>
      </g>
     </g>
    </g>
    <g id="ytick_5">
     <g id="line2d_10">
      <g>
       <use xlink:href="#m65228c75b1" x="69.019063" y="162.033708" style="stroke: #000000; stroke-width: 0.8"/>
      </g>
     </g>
     <g id="text_11">
      <!-- 1.00 -->
      <g transform="translate(28.620625 167.732536) scale(0.15 -0.15)">
       <use xlink:href="#DejaVuSans-31"/>
       <use xlink:href="#DejaVuSans-2e" transform="translate(63.623047 0)"/>
       <use xlink:href="#DejaVuSans-30" transform="translate(95.410156 0)"/>
       <use xlink:href="#DejaVuSans-30" transform="translate(159.033203 0)"/>
      </g>
     </g>
    </g>
    <g id="ytick_6">
     <g id="line2d_11">
      <g>
       <use xlink:href="#m65228c75b1" x="69.019063" y="128.578716" style="stroke: #000000; stroke-width: 0.8"/>
      </g>
     </g>
     <g id="text_12">
      <!-- 1.25 -->
      <g transform="translate(28.620625 134.277544) scale(0.15 -0.15)">
       <use xlink:href="#DejaVuSans-31"/>
       <use xlink:href="#DejaVuSans-2e" transform="translate(63.623047 0)"/>
       <use xlink:href="#DejaVuSans-32" transform="translate(95.410156 0)"/>
       <use xlink:href="#DejaVuSans-35" transform="translate(159.033203 0)"/>
      </g>
     </g>
    </g>
    <g id="ytick_7">
     <g id="line2d_12">
      <g>
       <use xlink:href="#m65228c75b1" x="69.019063" y="95.123725" style="stroke: #000000; stroke-width: 0.8"/>
      </g>
     </g>
     <g id="text_13">
      <!-- 1.50 -->
      <g transform="translate(28.620625 100.822553) scale(0.15 -0.15)">
       <use xlink:href="#DejaVuSans-31"/>
       <use xlink:href="#DejaVuSans-2e" transform="translate(63.623047 0)"/>
       <use xlink:href="#DejaVuSans-35" transform="translate(95.410156 0)"/>
       <use xlink:href="#DejaVuSans-30" transform="translate(159.033203 0)"/>
      </g>
     </g>
    </g>
    <g id="text_14">
     <!-- renin [pM] -->
     <g transform="translate(20.877188 252.921583) rotate(-90) scale(0.18 -0.18)">
      <defs>
       <path id="DejaVuSans-Bold-6e" d="M 4056 2131 
L 4056 0 
L 2931 0 
L 2931 347 
L 2931 1631 
Q 2931 2084 2911 2256 
Q 2891 2428 2841 2509 
Q 2775 2619 2662 2680 
Q 2550 2741 2406 2741 
Q 2056 2741 1856 2470 
Q 1656 2200 1656 1722 
L 1656 0 
L 538 0 
L 538 3500 
L 1656 3500 
L 1656 2988 
Q 1909 3294 2193 3439 
Q 2478 3584 2822 3584 
Q 3428 3584 3742 3212 
Q 4056 2841 4056 2131 
z
" transform="scale(0.015625)"/>
       <path id="DejaVuSans-Bold-70" d="M 1656 506 
L 1656 -1331 
L 538 -1331 
L 538 3500 
L 1656 3500 
L 1656 2988 
Q 1888 3294 2169 3439 
Q 2450 3584 2816 3584 
Q 3463 3584 3878 3070 
Q 4294 2556 4294 1747 
Q 4294 938 3878 423 
Q 3463 -91 2816 -91 
Q 2450 -91 2169 54 
Q 1888 200 1656 506 
z
M 2400 2772 
Q 2041 2772 1848 2508 
Q 1656 2244 1656 1747 
Q 1656 1250 1848 986 
Q 2041 722 2400 722 
Q 2759 722 2948 984 
Q 3138 1247 3138 1747 
Q 3138 2247 2948 2509 
Q 2759 2772 2400 2772 
z
" transform="scale(0.015625)"/>
       <path id="DejaVuSans-Bold-4d" d="M 588 4666 
L 2119 4666 
L 3181 2169 
L 4250 4666 
L 5778 4666 
L 5778 0 
L 4641 0 
L 4641 3413 
L 3566 897 
L 2803 897 
L 1728 3413 
L 1728 0 
L 588 0 
L 588 4666 
z
" transform="scale(0.015625)"/>
      </defs>
      <use xlink:href="#DejaVuSans-Bold-72"/>
      <use xlink:href="#DejaVuSans-Bold-65" transform="translate(49.316406 0)"/>
      <use xlink:href="#DejaVuSans-Bold-6e" transform="translate(117.138672 0)"/>
      <use xlink:href="#DejaVuSans-Bold-69" transform="translate(188.330078 0)"/>
      <use xlink:href="#DejaVuSans-Bold-6e" transform="translate(222.607422 0)"/>
      <use xlink:href="#DejaVuSans-Bold-20" transform="translate(293.798828 0)"/>
      <use xlink:href="#DejaVuSans-Bold-5b" transform="translate(328.613281 0)"/>
      <use xlink:href="#DejaVuSans-Bold-70" transform="translate(374.316406 0)"/>
      <use xlink:href="#DejaVuSans-Bold-4d" transform="translate(445.898438 0)"/>
      <use xlink:href="#DejaVuSans-Bold-5d" transform="translate(545.410156 0)"/>
     </g>
    </g>
   </g>
   <g id="LineCollection_1">
    <path d="M 86.773608 295.014093 
L 86.773608 237.922639 
" clip-path="url(#pb9ec1ad708)" style="fill: none; stroke: #1f77b4"/>
    <path d="M 140.037244 292.495352 
L 140.037244 232.045577 
" clip-path="url(#pb9ec1ad708)" style="fill: none; stroke: #1f77b4"/>
    <path d="M 193.300881 293.334933 
L 193.300881 236.243478 
" clip-path="url(#pb9ec1ad708)" style="fill: none; stroke: #1f77b4"/>
    <path d="M 299.828153 281.58081 
L 299.828153 224.489355 
" clip-path="url(#pb9ec1ad708)" style="fill: none; stroke: #1f77b4"/>
    <path d="M 406.355426 224.489355 
L 406.355426 165.718741 
" clip-path="url(#pb9ec1ad708)" style="fill: none; stroke: #1f77b4"/>
   </g>
   <g id="LineCollection_2">
    <path d="M 86.773608 280.741229 
L 86.773608 220.291454 
" clip-path="url(#pb9ec1ad708)" style="fill: none; stroke: #1f77b4"/>
    <path d="M 140.037244 238.762219 
L 140.037244 178.312444 
" clip-path="url(#pb9ec1ad708)" style="fill: none; stroke: #1f77b4"/>
    <path d="M 193.300881 282.42039 
L 193.300881 223.649775 
" clip-path="url(#pb9ec1ad708)" style="fill: none; stroke: #1f77b4"/>
    <path d="M 299.828153 265.628786 
L 299.828153 205.17901 
" clip-path="url(#pb9ec1ad708)" style="fill: none; stroke: #1f77b4"/>
    <path d="M 406.355426 167.397901 
L 406.355426 108.627286 
" clip-path="url(#pb9ec1ad708)" style="fill: none; stroke: #1f77b4"/>
   </g>
   <g id="LineCollection_3">
    <path d="M 86.773608 309.286957 
L 86.773608 191.745727 
" clip-path="url(#pb9ec1ad708)" style="fill: none; stroke: #1f77b4"/>
    <path d="M 140.037244 279.901649 
L 140.037244 164.03958 
" clip-path="url(#pb9ec1ad708)" style="fill: none; stroke: #1f77b4"/>
    <path d="M 193.300881 289.137031 
L 193.300881 173.274963 
" clip-path="url(#pb9ec1ad708)" style="fill: none; stroke: #1f77b4"/>
    <path d="M 299.828153 278.222489 
L 299.828153 162.36042 
" clip-path="url(#pb9ec1ad708)" style="fill: none; stroke: #1f77b4"/>
    <path d="M 406.355426 265.628786 
L 406.355426 144.729235 
" clip-path="url(#pb9ec1ad708)" style="fill: none; stroke: #1f77b4"/>
   </g>
   <g id="LineCollection_4">
    <path d="M 86.773608 287.457871 
L 86.773608 168.237481 
" clip-path="url(#pb9ec1ad708)" style="fill: none; stroke: #1f77b4"/>
    <path d="M 140.037244 267.307946 
L 140.037244 148.087556 
" clip-path="url(#pb9ec1ad708)" style="fill: none; stroke: #1f77b4"/>
    <path d="M 193.300881 269.826687 
L 193.300881 152.285457 
" clip-path="url(#pb9ec1ad708)" style="fill: none; stroke: #1f77b4"/>
    <path d="M 299.828153 258.072564 
L 299.828153 138.852174 
" clip-path="url(#pb9ec1ad708)" style="fill: none; stroke: #1f77b4"/>
    <path d="M 406.355426 207.697751 
L 406.355426 90.156522 
" clip-path="url(#pb9ec1ad708)" style="fill: none; stroke: #1f77b4"/>
   </g>
   <g id="line2d_13">
    <path d="M 86.773608 248.778936 
L 441.864517 248.778936 
L 441.864517 248.778936 
" clip-path="url(#pb9ec1ad708)" style="fill: none; stroke: #000000; stroke-width: 2; stroke-linecap: square"/>
   </g>
   <g id="line2d_14">
    <path d="M 86.773608 248.778936 
L 441.864517 248.778936 
L 441.864517 248.778936 
" clip-path="url(#pb9ec1ad708)" style="fill: none; stroke: #1f77b4; stroke-width: 2; stroke-linecap: square"/>
   </g>
   <g id="line2d_15">
    <path d="M 86.773608 266.468366 
L 140.037244 262.270465 
L 193.300881 264.789205 
L 299.828153 253.035082 
L 406.355426 195.104048 
" clip-path="url(#pb9ec1ad708)" style="fill: none; stroke-dasharray: 3.7,1.6; stroke-dashoffset: 0; stroke: #1f77b4"/>
    <defs>
     <path id="m6cb2ca8040" d="M -3 -0 
L 3 3 
L 3 -3 
z
" style="stroke: #000000; stroke-linejoin: miter"/>
    </defs>
    <g clip-path="url(#pb9ec1ad708)">
     <use xlink:href="#m6cb2ca8040" x="86.773608" y="266.468366" style="fill: #1f77b4; stroke: #000000; stroke-linejoin: miter"/>
     <use xlink:href="#m6cb2ca8040" x="140.037244" y="262.270465" style="fill: #1f77b4; stroke: #000000; stroke-linejoin: miter"/>
     <use xlink:href="#m6cb2ca8040" x="193.300881" y="264.789205" style="fill: #1f77b4; stroke: #000000; stroke-linejoin: miter"/>
     <use xlink:href="#m6cb2ca8040" x="299.828153" y="253.035082" style="fill: #1f77b4; stroke: #000000; stroke-linejoin: miter"/>
     <use xlink:href="#m6cb2ca8040" x="406.355426" y="195.104048" style="fill: #1f77b4; stroke: #000000; stroke-linejoin: miter"/>
    </g>
   </g>
   <g id="line2d_16">
    <path d="M 86.773608 250.516342 
L 140.037244 208.537331 
L 193.300881 253.035082 
L 299.828153 235.403898 
L 406.355426 138.012594 
" clip-path="url(#pb9ec1ad708)" style="fill: none; stroke-dasharray: 3.7,1.6; stroke-dashoffset: 0; stroke: #1f77b4"/>
    <g clip-path="url(#pb9ec1ad708)">
     <use xlink:href="#m6cb2ca8040" x="86.773608" y="250.516342" style="fill: #1f77b4; stroke: #000000; stroke-linejoin: miter"/>
     <use xlink:href="#m6cb2ca8040" x="140.037244" y="208.537331" style="fill: #1f77b4; stroke: #000000; stroke-linejoin: miter"/>
     <use xlink:href="#m6cb2ca8040" x="193.300881" y="253.035082" style="fill: #1f77b4; stroke: #000000; stroke-linejoin: miter"/>
     <use xlink:href="#m6cb2ca8040" x="299.828153" y="235.403898" style="fill: #1f77b4; stroke: #000000; stroke-linejoin: miter"/>
     <use xlink:href="#m6cb2ca8040" x="406.355426" y="138.012594" style="fill: #1f77b4; stroke: #000000; stroke-linejoin: miter"/>
    </g>
   </g>
   <g id="line2d_17">
    <path d="M 86.773608 250.516342 
L 140.037244 221.970615 
L 193.300881 231.205997 
L 299.828153 220.291454 
L 406.355426 205.17901 
" clip-path="url(#pb9ec1ad708)" style="fill: none; stroke-dasharray: 3.7,1.6; stroke-dashoffset: 0; stroke: #1f77b4"/>
    <defs>
     <path id="m15736d05c8" d="M 3 0 
L -3 -3 
L -3 3 
z
" style="stroke: #000000; stroke-linejoin: miter"/>
    </defs>
    <g clip-path="url(#pb9ec1ad708)">
     <use xlink:href="#m15736d05c8" x="86.773608" y="250.516342" style="fill: #1f77b4; stroke: #000000; stroke-linejoin: miter"/>
     <use xlink:href="#m15736d05c8" x="140.037244" y="221.970615" style="fill: #1f77b4; stroke: #000000; stroke-linejoin: miter"/>
     <use xlink:href="#m15736d05c8" x="193.300881" y="231.205997" style="fill: #1f77b4; stroke: #000000; stroke-linejoin: miter"/>
     <use xlink:href="#m15736d05c8" x="299.828153" y="220.291454" style="fill: #1f77b4; stroke: #000000; stroke-linejoin: miter"/>
     <use xlink:href="#m15736d05c8" x="406.355426" y="205.17901" style="fill: #1f77b4; stroke: #000000; stroke-linejoin: miter"/>
    </g>
   </g>
   <g id="line2d_18">
    <path d="M 86.773608 227.847676 
L 140.037244 207.697751 
L 193.300881 211.056072 
L 299.828153 198.462369 
L 406.355426 148.927136 
" clip-path="url(#pb9ec1ad708)" style="fill: none; stroke-dasharray: 3.7,1.6; stroke-dashoffset: 0; stroke: #1f77b4"/>
    <g clip-path="url(#pb9ec1ad708)">
     <use xlink:href="#m15736d05c8" x="86.773608" y="227.847676" style="fill: #1f77b4; stroke: #000000; stroke-linejoin: miter"/>
     <use xlink:href="#m15736d05c8" x="140.037244" y="207.697751" style="fill: #1f77b4; stroke: #000000; stroke-linejoin: miter"/>
     <use xlink:href="#m15736d05c8" x="193.300881" y="211.056072" style="fill: #1f77b4; stroke: #000000; stroke-linejoin: miter"/>
     <use xlink:href="#m15736d05c8" x="299.828153" y="198.462369" style="fill: #1f77b4; stroke: #000000; stroke-linejoin: miter"/>
     <use xlink:href="#m15736d05c8" x="406.355426" y="148.927136" style="fill: #1f77b4; stroke: #000000; stroke-linejoin: miter"/>
    </g>
   </g>
   <g id="patch_3">
    <path d="M 69.019063 320.243478 
L 69.019063 79.2 
" style="fill: none; stroke: #000000; stroke-width: 0.8; stroke-linejoin: miter; stroke-linecap: square"/>
   </g>
   <g id="patch_4">
    <path d="M 459.619063 320.243478 
L 459.619063 79.2 
" style="fill: none; stroke: #000000; stroke-width: 0.8; stroke-linejoin: miter; stroke-linecap: square"/>
   </g>
   <g id="patch_5">
    <path d="M 69.019063 320.243478 
L 459.619063 320.243478 
" style="fill: none; stroke: #000000; stroke-width: 0.8; stroke-linejoin: miter; stroke-linecap: square"/>
   </g>
   <g id="patch_6">
    <path d="M 69.019063 79.2 
L 459.619063 79.2 
" style="fill: none; stroke: #000000; stroke-width: 0.8; stroke-linejoin: miter; stroke-linecap: square"/>
   </g>
   <g id="legend_1">
    <g id="patch_7">
     <path d="M 76.019063 175.26875 
L 237.037813 175.26875 
Q 239.037813 175.26875 239.037813 173.26875 
L 239.037813 86.2 
Q 239.037813 84.2 237.037813 84.2 
L 76.019063 84.2 
Q 74.019063 84.2 74.019063 86.2 
L 74.019063 173.26875 
Q 74.019063 175.26875 76.019063 175.26875 
z
" style="fill: #ffffff; opacity: 0.8; stroke: #cccccc; stroke-linejoin: miter"/>
    </g>
    <g id="line2d_19">
     <path d="M 78.019063 92.298437 
L 98.019063 92.298437 
" style="fill: none; stroke: #000000; stroke-width: 2; stroke-linecap: square"/>
    </g>
    <g id="line2d_20"/>
    <g id="text_15">
     <!-- Sim -->
     <g transform="translate(106.019063 95.798437) scale(0.1 -0.1)">
      <defs>
       <path id="DejaVuSans-53" d="M 3425 4513 
L 3425 3897 
Q 3066 4069 2747 4153 
Q 2428 4238 2131 4238 
Q 1616 4238 1336 4038 
Q 1056 3838 1056 3469 
Q 1056 3159 1242 3001 
Q 1428 2844 1947 2747 
L 2328 2669 
Q 3034 2534 3370 2195 
Q 3706 1856 3706 1288 
Q 3706 609 3251 259 
Q 2797 -91 1919 -91 
Q 1588 -91 1214 -16 
Q 841 59 441 206 
L 441 856 
Q 825 641 1194 531 
Q 1563 422 1919 422 
Q 2459 422 2753 634 
Q 3047 847 3047 1241 
Q 3047 1584 2836 1778 
Q 2625 1972 2144 2069 
L 1759 2144 
Q 1053 2284 737 2584 
Q 422 2884 422 3419 
Q 422 4038 858 4394 
Q 1294 4750 2059 4750 
Q 2388 4750 2728 4690 
Q 3069 4631 3425 4513 
z
" transform="scale(0.015625)"/>
       <path id="DejaVuSans-69" d="M 603 3500 
L 1178 3500 
L 1178 0 
L 603 0 
L 603 3500 
z
M 603 4863 
L 1178 4863 
L 1178 4134 
L 603 4134 
L 603 4863 
z
" transform="scale(0.015625)"/>
       <path id="DejaVuSans-6d" d="M 3328 2828 
Q 3544 3216 3844 3400 
Q 4144 3584 4550 3584 
Q 5097 3584 5394 3201 
Q 5691 2819 5691 2113 
L 5691 0 
L 5113 0 
L 5113 2094 
Q 5113 2597 4934 2840 
Q 4756 3084 4391 3084 
Q 3944 3084 3684 2787 
Q 3425 2491 3425 1978 
L 3425 0 
L 2847 0 
L 2847 2094 
Q 2847 2600 2669 2842 
Q 2491 3084 2119 3084 
Q 1678 3084 1418 2786 
Q 1159 2488 1159 1978 
L 1159 0 
L 581 0 
L 581 3500 
L 1159 3500 
L 1159 2956 
Q 1356 3278 1631 3431 
Q 1906 3584 2284 3584 
Q 2666 3584 2933 3390 
Q 3200 3197 3328 2828 
z
" transform="scale(0.015625)"/>
      </defs>
      <use xlink:href="#DejaVuSans-53"/>
      <use xlink:href="#DejaVuSans-69" transform="translate(63.476562 0)"/>
      <use xlink:href="#DejaVuSans-6d" transform="translate(91.259766 0)"/>
     </g>
    </g>
    <g id="line2d_21">
     <path d="M 78.019063 106.976562 
L 98.019063 106.976562 
" style="fill: none; stroke: #1f77b4; stroke-width: 2; stroke-linecap: square"/>
    </g>
    <g id="line2d_22"/>
    <g id="text_16">
     <!-- Sim -->
     <g transform="translate(106.019063 110.476562) scale(0.1 -0.1)">
      <use xlink:href="#DejaVuSans-53"/>
      <use xlink:href="#DejaVuSans-69" transform="translate(63.476562 0)"/>
      <use xlink:href="#DejaVuSans-6d" transform="translate(91.259766 0)"/>
     </g>
    </g>
    <g id="LineCollection_5">
     <path d="M 88.019063 126.654688 
L 88.019063 116.654688 
" style="fill: none; stroke: #1f77b4"/>
    </g>
    <g id="line2d_23">
     <path d="M 78.019063 121.654688 
L 98.019063 121.654688 
" style="fill: none; stroke-dasharray: 3.7,1.6; stroke-dashoffset: 0; stroke: #1f77b4"/>
    </g>
    <g id="line2d_24">
     <g>
      <use xlink:href="#m6cb2ca8040" x="88.019063" y="121.654688" style="fill: #1f77b4; stroke: #000000; stroke-linejoin: miter"/>
     </g>
    </g>
    <g id="text_17">
     <!-- black (supine)±SD (n=9) -->
     <g transform="translate(106.019063 125.154688) scale(0.1 -0.1)">
      <defs>
       <path id="DejaVuSans-62" d="M 3116 1747 
Q 3116 2381 2855 2742 
Q 2594 3103 2138 3103 
Q 1681 3103 1420 2742 
Q 1159 2381 1159 1747 
Q 1159 1113 1420 752 
Q 1681 391 2138 391 
Q 2594 391 2855 752 
Q 3116 1113 3116 1747 
z
M 1159 2969 
Q 1341 3281 1617 3432 
Q 1894 3584 2278 3584 
Q 2916 3584 3314 3078 
Q 3713 2572 3713 1747 
Q 3713 922 3314 415 
Q 2916 -91 2278 -91 
Q 1894 -91 1617 61 
Q 1341 213 1159 525 
L 1159 0 
L 581 0 
L 581 4863 
L 1159 4863 
L 1159 2969 
z
" transform="scale(0.015625)"/>
       <path id="DejaVuSans-6c" d="M 603 4863 
L 1178 4863 
L 1178 0 
L 603 0 
L 603 4863 
z
" transform="scale(0.015625)"/>
       <path id="DejaVuSans-61" d="M 2194 1759 
Q 1497 1759 1228 1600 
Q 959 1441 959 1056 
Q 959 750 1161 570 
Q 1363 391 1709 391 
Q 2188 391 2477 730 
Q 2766 1069 2766 1631 
L 2766 1759 
L 2194 1759 
z
M 3341 1997 
L 3341 0 
L 2766 0 
L 2766 531 
Q 2569 213 2275 61 
Q 1981 -91 1556 -91 
Q 1019 -91 701 211 
Q 384 513 384 1019 
Q 384 1609 779 1909 
Q 1175 2209 1959 2209 
L 2766 2209 
L 2766 2266 
Q 2766 2663 2505 2880 
Q 2244 3097 1772 3097 
Q 1472 3097 1187 3025 
Q 903 2953 641 2809 
L 641 3341 
Q 956 3463 1253 3523 
Q 1550 3584 1831 3584 
Q 2591 3584 2966 3190 
Q 3341 2797 3341 1997 
z
" transform="scale(0.015625)"/>
       <path id="DejaVuSans-63" d="M 3122 3366 
L 3122 2828 
Q 2878 2963 2633 3030 
Q 2388 3097 2138 3097 
Q 1578 3097 1268 2742 
Q 959 2388 959 1747 
Q 959 1106 1268 751 
Q 1578 397 2138 397 
Q 2388 397 2633 464 
Q 2878 531 3122 666 
L 3122 134 
Q 2881 22 2623 -34 
Q 2366 -91 2075 -91 
Q 1284 -91 818 406 
Q 353 903 353 1747 
Q 353 2603 823 3093 
Q 1294 3584 2113 3584 
Q 2378 3584 2631 3529 
Q 2884 3475 3122 3366 
z
" transform="scale(0.015625)"/>
       <path id="DejaVuSans-6b" d="M 581 4863 
L 1159 4863 
L 1159 1991 
L 2875 3500 
L 3609 3500 
L 1753 1863 
L 3688 0 
L 2938 0 
L 1159 1709 
L 1159 0 
L 581 0 
L 581 4863 
z
" transform="scale(0.015625)"/>
       <path id="DejaVuSans-20" transform="scale(0.015625)"/>
       <path id="DejaVuSans-28" d="M 1984 4856 
Q 1566 4138 1362 3434 
Q 1159 2731 1159 2009 
Q 1159 1288 1364 580 
Q 1569 -128 1984 -844 
L 1484 -844 
Q 1016 -109 783 600 
Q 550 1309 550 2009 
Q 550 2706 781 3412 
Q 1013 4119 1484 4856 
L 1984 4856 
z
" transform="scale(0.015625)"/>
       <path id="DejaVuSans-73" d="M 2834 3397 
L 2834 2853 
Q 2591 2978 2328 3040 
Q 2066 3103 1784 3103 
Q 1356 3103 1142 2972 
Q 928 2841 928 2578 
Q 928 2378 1081 2264 
Q 1234 2150 1697 2047 
L 1894 2003 
Q 2506 1872 2764 1633 
Q 3022 1394 3022 966 
Q 3022 478 2636 193 
Q 2250 -91 1575 -91 
Q 1294 -91 989 -36 
Q 684 19 347 128 
L 347 722 
Q 666 556 975 473 
Q 1284 391 1588 391 
Q 1994 391 2212 530 
Q 2431 669 2431 922 
Q 2431 1156 2273 1281 
Q 2116 1406 1581 1522 
L 1381 1569 
Q 847 1681 609 1914 
Q 372 2147 372 2553 
Q 372 3047 722 3315 
Q 1072 3584 1716 3584 
Q 2034 3584 2315 3537 
Q 2597 3491 2834 3397 
z
" transform="scale(0.015625)"/>
       <path id="DejaVuSans-75" d="M 544 1381 
L 544 3500 
L 1119 3500 
L 1119 1403 
Q 1119 906 1312 657 
Q 1506 409 1894 409 
Q 2359 409 2629 706 
Q 2900 1003 2900 1516 
L 2900 3500 
L 3475 3500 
L 3475 0 
L 2900 0 
L 2900 538 
Q 2691 219 2414 64 
Q 2138 -91 1772 -91 
Q 1169 -91 856 284 
Q 544 659 544 1381 
z
M 1991 3584 
L 1991 3584 
z
" transform="scale(0.015625)"/>
       <path id="DejaVuSans-70" d="M 1159 525 
L 1159 -1331 
L 581 -1331 
L 581 3500 
L 1159 3500 
L 1159 2969 
Q 1341 3281 1617 3432 
Q 1894 3584 2278 3584 
Q 2916 3584 3314 3078 
Q 3713 2572 3713 1747 
Q 3713 922 3314 415 
Q 2916 -91 2278 -91 
Q 1894 -91 1617 61 
Q 1341 213 1159 525 
z
M 3116 1747 
Q 3116 2381 2855 2742 
Q 2594 3103 2138 3103 
Q 1681 3103 1420 2742 
Q 1159 2381 1159 1747 
Q 1159 1113 1420 752 
Q 1681 391 2138 391 
Q 2594 391 2855 752 
Q 3116 1113 3116 1747 
z
" transform="scale(0.015625)"/>
       <path id="DejaVuSans-6e" d="M 3513 2113 
L 3513 0 
L 2938 0 
L 2938 2094 
Q 2938 2591 2744 2837 
Q 2550 3084 2163 3084 
Q 1697 3084 1428 2787 
Q 1159 2491 1159 1978 
L 1159 0 
L 581 0 
L 581 3500 
L 1159 3500 
L 1159 2956 
Q 1366 3272 1645 3428 
Q 1925 3584 2291 3584 
Q 2894 3584 3203 3211 
Q 3513 2838 3513 2113 
z
" transform="scale(0.015625)"/>
       <path id="DejaVuSans-65" d="M 3597 1894 
L 3597 1613 
L 953 1613 
Q 991 1019 1311 708 
Q 1631 397 2203 397 
Q 2534 397 2845 478 
Q 3156 559 3463 722 
L 3463 178 
Q 3153 47 2828 -22 
Q 2503 -91 2169 -91 
Q 1331 -91 842 396 
Q 353 884 353 1716 
Q 353 2575 817 3079 
Q 1281 3584 2069 3584 
Q 2775 3584 3186 3129 
Q 3597 2675 3597 1894 
z
M 3022 2063 
Q 3016 2534 2758 2815 
Q 2500 3097 2075 3097 
Q 1594 3097 1305 2825 
Q 1016 2553 972 2059 
L 3022 2063 
z
" transform="scale(0.015625)"/>
       <path id="DejaVuSans-29" d="M 513 4856 
L 1013 4856 
Q 1481 4119 1714 3412 
Q 1947 2706 1947 2009 
Q 1947 1309 1714 600 
Q 1481 -109 1013 -844 
L 513 -844 
Q 928 -128 1133 580 
Q 1338 1288 1338 2009 
Q 1338 2731 1133 3434 
Q 928 4138 513 4856 
z
" transform="scale(0.015625)"/>
       <path id="DejaVuSans-b1" d="M 2944 4013 
L 2944 2803 
L 4684 2803 
L 4684 2272 
L 2944 2272 
L 2944 1063 
L 2419 1063 
L 2419 2272 
L 678 2272 
L 678 2803 
L 2419 2803 
L 2419 4013 
L 2944 4013 
z
M 678 531 
L 4684 531 
L 4684 0 
L 678 0 
L 678 531 
z
" transform="scale(0.015625)"/>
       <path id="DejaVuSans-44" d="M 1259 4147 
L 1259 519 
L 2022 519 
Q 2988 519 3436 956 
Q 3884 1394 3884 2338 
Q 3884 3275 3436 3711 
Q 2988 4147 2022 4147 
L 1259 4147 
z
M 628 4666 
L 1925 4666 
Q 3281 4666 3915 4102 
Q 4550 3538 4550 2338 
Q 4550 1131 3912 565 
Q 3275 0 1925 0 
L 628 0 
L 628 4666 
z
" transform="scale(0.015625)"/>
       <path id="DejaVuSans-3d" d="M 678 2906 
L 4684 2906 
L 4684 2381 
L 678 2381 
L 678 2906 
z
M 678 1631 
L 4684 1631 
L 4684 1100 
L 678 1100 
L 678 1631 
z
" transform="scale(0.015625)"/>
       <path id="DejaVuSans-39" d="M 703 97 
L 703 672 
Q 941 559 1184 500 
Q 1428 441 1663 441 
Q 2288 441 2617 861 
Q 2947 1281 2994 2138 
Q 2813 1869 2534 1725 
Q 2256 1581 1919 1581 
Q 1219 1581 811 2004 
Q 403 2428 403 3163 
Q 403 3881 828 4315 
Q 1253 4750 1959 4750 
Q 2769 4750 3195 4129 
Q 3622 3509 3622 2328 
Q 3622 1225 3098 567 
Q 2575 -91 1691 -91 
Q 1453 -91 1209 -44 
Q 966 3 703 97 
z
M 1959 2075 
Q 2384 2075 2632 2365 
Q 2881 2656 2881 3163 
Q 2881 3666 2632 3958 
Q 2384 4250 1959 4250 
Q 1534 4250 1286 3958 
Q 1038 3666 1038 3163 
Q 1038 2656 1286 2365 
Q 1534 2075 1959 2075 
z
" transform="scale(0.015625)"/>
      </defs>
      <use xlink:href="#DejaVuSans-62"/>
      <use xlink:href="#DejaVuSans-6c" transform="translate(63.476562 0)"/>
      <use xlink:href="#DejaVuSans-61" transform="translate(91.259766 0)"/>
      <use xlink:href="#DejaVuSans-63" transform="translate(152.539062 0)"/>
      <use xlink:href="#DejaVuSans-6b" transform="translate(207.519531 0)"/>
      <use xlink:href="#DejaVuSans-20" transform="translate(265.429688 0)"/>
      <use xlink:href="#DejaVuSans-28" transform="translate(297.216797 0)"/>
      <use xlink:href="#DejaVuSans-73" transform="translate(336.230469 0)"/>
      <use xlink:href="#DejaVuSans-75" transform="translate(388.330078 0)"/>
      <use xlink:href="#DejaVuSans-70" transform="translate(451.708984 0)"/>
      <use xlink:href="#DejaVuSans-69" transform="translate(515.185547 0)"/>
      <use xlink:href="#DejaVuSans-6e" transform="translate(542.96875 0)"/>
      <use xlink:href="#DejaVuSans-65" transform="translate(606.347656 0)"/>
      <use xlink:href="#DejaVuSans-29" transform="translate(667.871094 0)"/>
      <use xlink:href="#DejaVuSans-b1" transform="translate(706.884766 0)"/>
      <use xlink:href="#DejaVuSans-53" transform="translate(790.673828 0)"/>
      <use xlink:href="#DejaVuSans-44" transform="translate(854.150391 0)"/>
      <use xlink:href="#DejaVuSans-20" transform="translate(931.152344 0)"/>
      <use xlink:href="#DejaVuSans-28" transform="translate(962.939453 0)"/>
      <use xlink:href="#DejaVuSans-6e" transform="translate(1001.953125 0)"/>
      <use xlink:href="#DejaVuSans-3d" transform="translate(1065.332031 0)"/>
      <use xlink:href="#DejaVuSans-39" transform="translate(1149.121094 0)"/>
      <use xlink:href="#DejaVuSans-29" transform="translate(1212.744141 0)"/>
     </g>
    </g>
    <g id="LineCollection_6">
     <path d="M 88.019063 141.332812 
L 88.019063 131.332812 
" style="fill: none; stroke: #1f77b4"/>
    </g>
    <g id="line2d_25">
     <path d="M 78.019063 136.332812 
L 98.019063 136.332812 
" style="fill: none; stroke-dasharray: 3.7,1.6; stroke-dashoffset: 0; stroke: #1f77b4"/>
    </g>
    <g id="line2d_26">
     <g>
      <use xlink:href="#m6cb2ca8040" x="88.019063" y="136.332812" style="fill: #1f77b4; stroke: #000000; stroke-linejoin: miter"/>
     </g>
    </g>
    <g id="text_18">
     <!-- black (upright)±SD (n=9) -->
     <g transform="translate(106.019063 139.832812) scale(0.1 -0.1)">
      <defs>
       <path id="DejaVuSans-72" d="M 2631 2963 
Q 2534 3019 2420 3045 
Q 2306 3072 2169 3072 
Q 1681 3072 1420 2755 
Q 1159 2438 1159 1844 
L 1159 0 
L 581 0 
L 581 3500 
L 1159 3500 
L 1159 2956 
Q 1341 3275 1631 3429 
Q 1922 3584 2338 3584 
Q 2397 3584 2469 3576 
Q 2541 3569 2628 3553 
L 2631 2963 
z
" transform="scale(0.015625)"/>
       <path id="DejaVuSans-67" d="M 2906 1791 
Q 2906 2416 2648 2759 
Q 2391 3103 1925 3103 
Q 1463 3103 1205 2759 
Q 947 2416 947 1791 
Q 947 1169 1205 825 
Q 1463 481 1925 481 
Q 2391 481 2648 825 
Q 2906 1169 2906 1791 
z
M 3481 434 
Q 3481 -459 3084 -895 
Q 2688 -1331 1869 -1331 
Q 1566 -1331 1297 -1286 
Q 1028 -1241 775 -1147 
L 775 -588 
Q 1028 -725 1275 -790 
Q 1522 -856 1778 -856 
Q 2344 -856 2625 -561 
Q 2906 -266 2906 331 
L 2906 616 
Q 2728 306 2450 153 
Q 2172 0 1784 0 
Q 1141 0 747 490 
Q 353 981 353 1791 
Q 353 2603 747 3093 
Q 1141 3584 1784 3584 
Q 2172 3584 2450 3431 
Q 2728 3278 2906 2969 
L 2906 3500 
L 3481 3500 
L 3481 434 
z
" transform="scale(0.015625)"/>
       <path id="DejaVuSans-68" d="M 3513 2113 
L 3513 0 
L 2938 0 
L 2938 2094 
Q 2938 2591 2744 2837 
Q 2550 3084 2163 3084 
Q 1697 3084 1428 2787 
Q 1159 2491 1159 1978 
L 1159 0 
L 581 0 
L 581 4863 
L 1159 4863 
L 1159 2956 
Q 1366 3272 1645 3428 
Q 1925 3584 2291 3584 
Q 2894 3584 3203 3211 
Q 3513 2838 3513 2113 
z
" transform="scale(0.015625)"/>
       <path id="DejaVuSans-74" d="M 1172 4494 
L 1172 3500 
L 2356 3500 
L 2356 3053 
L 1172 3053 
L 1172 1153 
Q 1172 725 1289 603 
Q 1406 481 1766 481 
L 2356 481 
L 2356 0 
L 1766 0 
Q 1100 0 847 248 
Q 594 497 594 1153 
L 594 3053 
L 172 3053 
L 172 3500 
L 594 3500 
L 594 4494 
L 1172 4494 
z
" transform="scale(0.015625)"/>
      </defs>
      <use xlink:href="#DejaVuSans-62"/>
      <use xlink:href="#DejaVuSans-6c" transform="translate(63.476562 0)"/>
      <use xlink:href="#DejaVuSans-61" transform="translate(91.259766 0)"/>
      <use xlink:href="#DejaVuSans-63" transform="translate(152.539062 0)"/>
      <use xlink:href="#DejaVuSans-6b" transform="translate(207.519531 0)"/>
      <use xlink:href="#DejaVuSans-20" transform="translate(265.429688 0)"/>
      <use xlink:href="#DejaVuSans-28" transform="translate(297.216797 0)"/>
      <use xlink:href="#DejaVuSans-75" transform="translate(336.230469 0)"/>
      <use xlink:href="#DejaVuSans-70" transform="translate(399.609375 0)"/>
      <use xlink:href="#DejaVuSans-72" transform="translate(463.085938 0)"/>
      <use xlink:href="#DejaVuSans-69" transform="translate(504.199219 0)"/>
      <use xlink:href="#DejaVuSans-67" transform="translate(531.982422 0)"/>
      <use xlink:href="#DejaVuSans-68" transform="translate(595.458984 0)"/>
      <use xlink:href="#DejaVuSans-74" transform="translate(658.837891 0)"/>
      <use xlink:href="#DejaVuSans-29" transform="translate(698.046875 0)"/>
      <use xlink:href="#DejaVuSans-b1" transform="translate(737.060547 0)"/>
      <use xlink:href="#DejaVuSans-53" transform="translate(820.849609 0)"/>
      <use xlink:href="#DejaVuSans-44" transform="translate(884.326172 0)"/>
      <use xlink:href="#DejaVuSans-20" transform="translate(961.328125 0)"/>
      <use xlink:href="#DejaVuSans-28" transform="translate(993.115234 0)"/>
      <use xlink:href="#DejaVuSans-6e" transform="translate(1032.128906 0)"/>
      <use xlink:href="#DejaVuSans-3d" transform="translate(1095.507812 0)"/>
      <use xlink:href="#DejaVuSans-39" transform="translate(1179.296875 0)"/>
      <use xlink:href="#DejaVuSans-29" transform="translate(1242.919922 0)"/>
     </g>
    </g>
    <g id="LineCollection_7">
     <path d="M 88.019063 156.010937 
L 88.019063 146.010937 
" style="fill: none; stroke: #1f77b4"/>
    </g>
    <g id="line2d_27">
     <path d="M 78.019063 151.010937 
L 98.019063 151.010937 
" style="fill: none; stroke-dasharray: 3.7,1.6; stroke-dashoffset: 0; stroke: #1f77b4"/>
    </g>
    <g id="line2d_28">
     <g>
      <use xlink:href="#m15736d05c8" x="88.019063" y="151.010937" style="fill: #1f77b4; stroke: #000000; stroke-linejoin: miter"/>
     </g>
    </g>
    <g id="text_19">
     <!-- white (supine)±SD (n=9) -->
     <g transform="translate(106.019063 154.510937) scale(0.1 -0.1)">
      <defs>
       <path id="DejaVuSans-77" d="M 269 3500 
L 844 3500 
L 1563 769 
L 2278 3500 
L 2956 3500 
L 3675 769 
L 4391 3500 
L 4966 3500 
L 4050 0 
L 3372 0 
L 2619 2869 
L 1863 0 
L 1184 0 
L 269 3500 
z
" transform="scale(0.015625)"/>
      </defs>
      <use xlink:href="#DejaVuSans-77"/>
      <use xlink:href="#DejaVuSans-68" transform="translate(81.787109 0)"/>
      <use xlink:href="#DejaVuSans-69" transform="translate(145.166016 0)"/>
      <use xlink:href="#DejaVuSans-74" transform="translate(172.949219 0)"/>
      <use xlink:href="#DejaVuSans-65" transform="translate(212.158203 0)"/>
      <use xlink:href="#DejaVuSans-20" transform="translate(273.681641 0)"/>
      <use xlink:href="#DejaVuSans-28" transform="translate(305.46875 0)"/>
      <use xlink:href="#DejaVuSans-73" transform="translate(344.482422 0)"/>
      <use xlink:href="#DejaVuSans-75" transform="translate(396.582031 0)"/>
      <use xlink:href="#DejaVuSans-70" transform="translate(459.960938 0)"/>
      <use xlink:href="#DejaVuSans-69" transform="translate(523.4375 0)"/>
      <use xlink:href="#DejaVuSans-6e" transform="translate(551.220703 0)"/>
      <use xlink:href="#DejaVuSans-65" transform="translate(614.599609 0)"/>
      <use xlink:href="#DejaVuSans-29" transform="translate(676.123047 0)"/>
      <use xlink:href="#DejaVuSans-b1" transform="translate(715.136719 0)"/>
      <use xlink:href="#DejaVuSans-53" transform="translate(798.925781 0)"/>
      <use xlink:href="#DejaVuSans-44" transform="translate(862.402344 0)"/>
      <use xlink:href="#DejaVuSans-20" transform="translate(939.404297 0)"/>
      <use xlink:href="#DejaVuSans-28" transform="translate(971.191406 0)"/>
      <use xlink:href="#DejaVuSans-6e" transform="translate(1010.205078 0)"/>
      <use xlink:href="#DejaVuSans-3d" transform="translate(1073.583984 0)"/>
      <use xlink:href="#DejaVuSans-39" transform="translate(1157.373047 0)"/>
      <use xlink:href="#DejaVuSans-29" transform="translate(1220.996094 0)"/>
     </g>
    </g>
    <g id="LineCollection_8">
     <path d="M 88.019063 170.689062 
L 88.019063 160.689062 
" style="fill: none; stroke: #1f77b4"/>
    </g>
    <g id="line2d_29">
     <path d="M 78.019063 165.689062 
L 98.019063 165.689062 
" style="fill: none; stroke-dasharray: 3.7,1.6; stroke-dashoffset: 0; stroke: #1f77b4"/>
    </g>
    <g id="line2d_30">
     <g>
      <use xlink:href="#m15736d05c8" x="88.019063" y="165.689062" style="fill: #1f77b4; stroke: #000000; stroke-linejoin: miter"/>
     </g>
    </g>
    <g id="text_20">
     <!-- white (upright)±SD (n=9) -->
     <g transform="translate(106.019063 169.189062) scale(0.1 -0.1)">
      <use xlink:href="#DejaVuSans-77"/>
      <use xlink:href="#DejaVuSans-68" transform="translate(81.787109 0)"/>
      <use xlink:href="#DejaVuSans-69" transform="translate(145.166016 0)"/>
      <use xlink:href="#DejaVuSans-74" transform="translate(172.949219 0)"/>
      <use xlink:href="#DejaVuSans-65" transform="translate(212.158203 0)"/>
      <use xlink:href="#DejaVuSans-20" transform="translate(273.681641 0)"/>
      <use xlink:href="#DejaVuSans-28" transform="translate(305.46875 0)"/>
      <use xlink:href="#DejaVuSans-75" transform="translate(344.482422 0)"/>
      <use xlink:href="#DejaVuSans-70" transform="translate(407.861328 0)"/>
      <use xlink:href="#DejaVuSans-72" transform="translate(471.337891 0)"/>
      <use xlink:href="#DejaVuSans-69" transform="translate(512.451172 0)"/>
      <use xlink:href="#DejaVuSans-67" transform="translate(540.234375 0)"/>
      <use xlink:href="#DejaVuSans-68" transform="translate(603.710938 0)"/>
      <use xlink:href="#DejaVuSans-74" transform="translate(667.089844 0)"/>
      <use xlink:href="#DejaVuSans-29" transform="translate(706.298828 0)"/>
      <use xlink:href="#DejaVuSans-b1" transform="translate(745.3125 0)"/>
      <use xlink:href="#DejaVuSans-53" transform="translate(829.101562 0)"/>
      <use xlink:href="#DejaVuSans-44" transform="translate(892.578125 0)"/>
      <use xlink:href="#DejaVuSans-20" transform="translate(969.580078 0)"/>
      <use xlink:href="#DejaVuSans-28" transform="translate(1001.367188 0)"/>
      <use xlink:href="#DejaVuSans-6e" transform="translate(1040.380859 0)"/>
      <use xlink:href="#DejaVuSans-3d" transform="translate(1103.759766 0)"/>
      <use xlink:href="#DejaVuSans-39" transform="translate(1187.548828 0)"/>
      <use xlink:href="#DejaVuSans-29" transform="translate(1251.171875 0)"/>
     </g>
    </g>
   </g>
  </g>
  <g id="axes_2">
   <g id="patch_8">
    <path d="M 69.019063 633.6 
L 459.619063 633.6 
L 459.619063 392.556522 
L 69.019063 392.556522 
z
" style="fill: #ffffff"/>
   </g>
   <g id="matplotlib.axis_3">
    <g id="xtick_6">
     <g id="line2d_31">
      <g>
       <use xlink:href="#m5cfa7c9593" x="86.773608" y="633.6" style="stroke: #000000; stroke-width: 0.8"/>
      </g>
     </g>
     <g id="text_21">
      <!-- 0 -->
      <g transform="translate(82.001733 651.997656) scale(0.15 -0.15)">
       <use xlink:href="#DejaVuSans-30"/>
      </g>
     </g>
    </g>
    <g id="xtick_7">
     <g id="line2d_32">
      <g>
       <use xlink:href="#m5cfa7c9593" x="175.546335" y="633.6" style="stroke: #000000; stroke-width: 0.8"/>
      </g>
     </g>
     <g id="text_22">
      <!-- 10 -->
      <g transform="translate(166.002585 651.997656) scale(0.15 -0.15)">
       <use xlink:href="#DejaVuSans-31"/>
       <use xlink:href="#DejaVuSans-30" transform="translate(63.623047 0)"/>
      </g>
     </g>
    </g>
    <g id="xtick_8">
     <g id="line2d_33">
      <g>
       <use xlink:href="#m5cfa7c9593" x="264.319063" y="633.6" style="stroke: #000000; stroke-width: 0.8"/>
      </g>
     </g>
     <g id="text_23">
      <!-- 20 -->
      <g transform="translate(254.775313 651.997656) scale(0.15 -0.15)">
       <use xlink:href="#DejaVuSans-32"/>
       <use xlink:href="#DejaVuSans-30" transform="translate(63.623047 0)"/>
      </g>
     </g>
    </g>
    <g id="xtick_9">
     <g id="line2d_34">
      <g>
       <use xlink:href="#m5cfa7c9593" x="353.09179" y="633.6" style="stroke: #000000; stroke-width: 0.8"/>
      </g>
     </g>
     <g id="text_24">
      <!-- 30 -->
      <g transform="translate(343.54804 651.997656) scale(0.15 -0.15)">
       <use xlink:href="#DejaVuSans-33"/>
       <use xlink:href="#DejaVuSans-30" transform="translate(63.623047 0)"/>
      </g>
     </g>
    </g>
    <g id="xtick_10">
     <g id="line2d_35">
      <g>
       <use xlink:href="#m5cfa7c9593" x="441.864517" y="633.6" style="stroke: #000000; stroke-width: 0.8"/>
      </g>
     </g>
     <g id="text_25">
      <!-- 40 -->
      <g transform="translate(432.320767 651.997656) scale(0.15 -0.15)">
       <use xlink:href="#DejaVuSans-34"/>
       <use xlink:href="#DejaVuSans-30" transform="translate(63.623047 0)"/>
      </g>
     </g>
    </g>
    <g id="text_26">
     <!-- time [hr] -->
     <g transform="translate(219.244531 672.794375) scale(0.18 -0.18)">
      <use xlink:href="#DejaVuSans-Bold-74"/>
      <use xlink:href="#DejaVuSans-Bold-69" transform="translate(47.802734 0)"/>
      <use xlink:href="#DejaVuSans-Bold-6d" transform="translate(82.080078 0)"/>
      <use xlink:href="#DejaVuSans-Bold-65" transform="translate(186.279297 0)"/>
      <use xlink:href="#DejaVuSans-Bold-20" transform="translate(254.101562 0)"/>
      <use xlink:href="#DejaVuSans-Bold-5b" transform="translate(288.916016 0)"/>
      <use xlink:href="#DejaVuSans-Bold-68" transform="translate(334.619141 0)"/>
      <use xlink:href="#DejaVuSans-Bold-72" transform="translate(405.810547 0)"/>
      <use xlink:href="#DejaVuSans-Bold-5d" transform="translate(455.126953 0)"/>
     </g>
    </g>
   </g>
   <g id="matplotlib.axis_4">
    <g id="ytick_8">
     <g id="line2d_36">
      <g>
       <use xlink:href="#m65228c75b1" x="69.019063" y="601.564585" style="stroke: #000000; stroke-width: 0.8"/>
      </g>
     </g>
     <g id="text_27">
      <!-- 20 -->
      <g transform="translate(42.931563 607.263413) scale(0.15 -0.15)">
       <use xlink:href="#DejaVuSans-32"/>
       <use xlink:href="#DejaVuSans-30" transform="translate(63.623047 0)"/>
      </g>
     </g>
    </g>
    <g id="ytick_9">
     <g id="line2d_37">
      <g>
       <use xlink:href="#m65228c75b1" x="69.019063" y="550.224822" style="stroke: #000000; stroke-width: 0.8"/>
      </g>
     </g>
     <g id="text_28">
      <!-- 40 -->
      <g transform="translate(42.931563 555.92365) scale(0.15 -0.15)">
       <use xlink:href="#DejaVuSans-34"/>
       <use xlink:href="#DejaVuSans-30" transform="translate(63.623047 0)"/>
      </g>
     </g>
    </g>
    <g id="ytick_10">
     <g id="line2d_38">
      <g>
       <use xlink:href="#m65228c75b1" x="69.019063" y="498.885059" style="stroke: #000000; stroke-width: 0.8"/>
      </g>
     </g>
     <g id="text_29">
      <!-- 60 -->
      <g transform="translate(42.931563 504.583888) scale(0.15 -0.15)">
       <defs>
        <path id="DejaVuSans-36" d="M 2113 2584 
Q 1688 2584 1439 2293 
Q 1191 2003 1191 1497 
Q 1191 994 1439 701 
Q 1688 409 2113 409 
Q 2538 409 2786 701 
Q 3034 994 3034 1497 
Q 3034 2003 2786 2293 
Q 2538 2584 2113 2584 
z
M 3366 4563 
L 3366 3988 
Q 3128 4100 2886 4159 
Q 2644 4219 2406 4219 
Q 1781 4219 1451 3797 
Q 1122 3375 1075 2522 
Q 1259 2794 1537 2939 
Q 1816 3084 2150 3084 
Q 2853 3084 3261 2657 
Q 3669 2231 3669 1497 
Q 3669 778 3244 343 
Q 2819 -91 2113 -91 
Q 1303 -91 875 529 
Q 447 1150 447 2328 
Q 447 3434 972 4092 
Q 1497 4750 2381 4750 
Q 2619 4750 2861 4703 
Q 3103 4656 3366 4563 
z
" transform="scale(0.015625)"/>
       </defs>
       <use xlink:href="#DejaVuSans-36"/>
       <use xlink:href="#DejaVuSans-30" transform="translate(63.623047 0)"/>
      </g>
     </g>
    </g>
    <g id="ytick_11">
     <g id="line2d_39">
      <g>
       <use xlink:href="#m65228c75b1" x="69.019063" y="447.545297" style="stroke: #000000; stroke-width: 0.8"/>
      </g>
     </g>
     <g id="text_30">
      <!-- 80 -->
      <g transform="translate(42.931563 453.244125) scale(0.15 -0.15)">
       <defs>
        <path id="DejaVuSans-38" d="M 2034 2216 
Q 1584 2216 1326 1975 
Q 1069 1734 1069 1313 
Q 1069 891 1326 650 
Q 1584 409 2034 409 
Q 2484 409 2743 651 
Q 3003 894 3003 1313 
Q 3003 1734 2745 1975 
Q 2488 2216 2034 2216 
z
M 1403 2484 
Q 997 2584 770 2862 
Q 544 3141 544 3541 
Q 544 4100 942 4425 
Q 1341 4750 2034 4750 
Q 2731 4750 3128 4425 
Q 3525 4100 3525 3541 
Q 3525 3141 3298 2862 
Q 3072 2584 2669 2484 
Q 3125 2378 3379 2068 
Q 3634 1759 3634 1313 
Q 3634 634 3220 271 
Q 2806 -91 2034 -91 
Q 1263 -91 848 271 
Q 434 634 434 1313 
Q 434 1759 690 2068 
Q 947 2378 1403 2484 
z
M 1172 3481 
Q 1172 3119 1398 2916 
Q 1625 2713 2034 2713 
Q 2441 2713 2670 2916 
Q 2900 3119 2900 3481 
Q 2900 3844 2670 4047 
Q 2441 4250 2034 4250 
Q 1625 4250 1398 4047 
Q 1172 3844 1172 3481 
z
" transform="scale(0.015625)"/>
       </defs>
       <use xlink:href="#DejaVuSans-38"/>
       <use xlink:href="#DejaVuSans-30" transform="translate(63.623047 0)"/>
      </g>
     </g>
    </g>
    <g id="ytick_12">
     <g id="line2d_40">
      <g>
       <use xlink:href="#m65228c75b1" x="69.019063" y="396.205534" style="stroke: #000000; stroke-width: 0.8"/>
      </g>
     </g>
     <g id="text_31">
      <!-- 100 -->
      <g transform="translate(33.387813 401.904362) scale(0.15 -0.15)">
       <use xlink:href="#DejaVuSans-31"/>
       <use xlink:href="#DejaVuSans-30" transform="translate(63.623047 0)"/>
       <use xlink:href="#DejaVuSans-30" transform="translate(127.246094 0)"/>
      </g>
     </g>
    </g>
    <g id="text_32">
     <!-- aldosterone [nM] -->
     <g transform="translate(25.644375 600.480917) rotate(-90) scale(0.18 -0.18)">
      <defs>
       <path id="DejaVuSans-Bold-61" d="M 2106 1575 
Q 1756 1575 1579 1456 
Q 1403 1338 1403 1106 
Q 1403 894 1545 773 
Q 1688 653 1941 653 
Q 2256 653 2472 879 
Q 2688 1106 2688 1447 
L 2688 1575 
L 2106 1575 
z
M 3816 1997 
L 3816 0 
L 2688 0 
L 2688 519 
Q 2463 200 2181 54 
Q 1900 -91 1497 -91 
Q 953 -91 614 226 
Q 275 544 275 1050 
Q 275 1666 698 1953 
Q 1122 2241 2028 2241 
L 2688 2241 
L 2688 2328 
Q 2688 2594 2478 2717 
Q 2269 2841 1825 2841 
Q 1466 2841 1156 2769 
Q 847 2697 581 2553 
L 581 3406 
Q 941 3494 1303 3539 
Q 1666 3584 2028 3584 
Q 2975 3584 3395 3211 
Q 3816 2838 3816 1997 
z
" transform="scale(0.015625)"/>
       <path id="DejaVuSans-Bold-6c" d="M 538 4863 
L 1656 4863 
L 1656 0 
L 538 0 
L 538 4863 
z
" transform="scale(0.015625)"/>
       <path id="DejaVuSans-Bold-64" d="M 2919 2988 
L 2919 4863 
L 4044 4863 
L 4044 0 
L 2919 0 
L 2919 506 
Q 2688 197 2409 53 
Q 2131 -91 1766 -91 
Q 1119 -91 703 423 
Q 288 938 288 1747 
Q 288 2556 703 3070 
Q 1119 3584 1766 3584 
Q 2128 3584 2408 3439 
Q 2688 3294 2919 2988 
z
M 2181 722 
Q 2541 722 2730 984 
Q 2919 1247 2919 1747 
Q 2919 2247 2730 2509 
Q 2541 2772 2181 2772 
Q 1825 2772 1636 2509 
Q 1447 2247 1447 1747 
Q 1447 1247 1636 984 
Q 1825 722 2181 722 
z
" transform="scale(0.015625)"/>
       <path id="DejaVuSans-Bold-6f" d="M 2203 2784 
Q 1831 2784 1636 2517 
Q 1441 2250 1441 1747 
Q 1441 1244 1636 976 
Q 1831 709 2203 709 
Q 2569 709 2762 976 
Q 2956 1244 2956 1747 
Q 2956 2250 2762 2517 
Q 2569 2784 2203 2784 
z
M 2203 3584 
Q 3106 3584 3614 3096 
Q 4122 2609 4122 1747 
Q 4122 884 3614 396 
Q 3106 -91 2203 -91 
Q 1297 -91 786 396 
Q 275 884 275 1747 
Q 275 2609 786 3096 
Q 1297 3584 2203 3584 
z
" transform="scale(0.015625)"/>
       <path id="DejaVuSans-Bold-73" d="M 3272 3391 
L 3272 2541 
Q 2913 2691 2578 2766 
Q 2244 2841 1947 2841 
Q 1628 2841 1473 2761 
Q 1319 2681 1319 2516 
Q 1319 2381 1436 2309 
Q 1553 2238 1856 2203 
L 2053 2175 
Q 2913 2066 3209 1816 
Q 3506 1566 3506 1031 
Q 3506 472 3093 190 
Q 2681 -91 1863 -91 
Q 1516 -91 1145 -36 
Q 775 19 384 128 
L 384 978 
Q 719 816 1070 734 
Q 1422 653 1784 653 
Q 2113 653 2278 743 
Q 2444 834 2444 1013 
Q 2444 1163 2330 1236 
Q 2216 1309 1875 1350 
L 1678 1375 
Q 931 1469 631 1722 
Q 331 1975 331 2491 
Q 331 3047 712 3315 
Q 1094 3584 1881 3584 
Q 2191 3584 2531 3537 
Q 2872 3491 3272 3391 
z
" transform="scale(0.015625)"/>
      </defs>
      <use xlink:href="#DejaVuSans-Bold-61"/>
      <use xlink:href="#DejaVuSans-Bold-6c" transform="translate(67.480469 0)"/>
      <use xlink:href="#DejaVuSans-Bold-64" transform="translate(101.757812 0)"/>
      <use xlink:href="#DejaVuSans-Bold-6f" transform="translate(173.339844 0)"/>
      <use xlink:href="#DejaVuSans-Bold-73" transform="translate(242.041016 0)"/>
      <use xlink:href="#DejaVuSans-Bold-74" transform="translate(301.5625 0)"/>
      <use xlink:href="#DejaVuSans-Bold-65" transform="translate(349.365234 0)"/>
      <use xlink:href="#DejaVuSans-Bold-72" transform="translate(417.1875 0)"/>
      <use xlink:href="#DejaVuSans-Bold-6f" transform="translate(466.503906 0)"/>
      <use xlink:href="#DejaVuSans-Bold-6e" transform="translate(535.205078 0)"/>
      <use xlink:href="#DejaVuSans-Bold-65" transform="translate(606.396484 0)"/>
      <use xlink:href="#DejaVuSans-Bold-20" transform="translate(674.21875 0)"/>
      <use xlink:href="#DejaVuSans-Bold-5b" transform="translate(709.033203 0)"/>
      <use xlink:href="#DejaVuSans-Bold-6e" transform="translate(754.736328 0)"/>
      <use xlink:href="#DejaVuSans-Bold-4d" transform="translate(825.927734 0)"/>
      <use xlink:href="#DejaVuSans-Bold-5d" transform="translate(925.439453 0)"/>
     </g>
    </g>
   </g>
   <g id="LineCollection_9">
    <path d="M 86.773608 622.643478 
L 86.773608 553.773913 
" clip-path="url(#p9d95f81f9a)" style="fill: none; stroke: #1f77b4"/>
    <path d="M 140.037244 613.252174 
L 140.037244 565.252174 
" clip-path="url(#p9d95f81f9a)" style="fill: none; stroke: #1f77b4"/>
    <path d="M 193.300881 619.513043 
L 193.300881 579.86087 
" clip-path="url(#p9d95f81f9a)" style="fill: none; stroke: #1f77b4"/>
    <path d="M 299.828153 601.773913 
L 299.828153 541.252174 
" clip-path="url(#p9d95f81f9a)" style="fill: none; stroke: #1f77b4"/>
    <path d="M 406.355426 619.513043 
L 406.355426 527.686957 
" clip-path="url(#p9d95f81f9a)" style="fill: none; stroke: #1f77b4"/>
   </g>
   <g id="LineCollection_10">
    <path d="M 86.773608 606.991304 
L 86.773608 525.6 
" clip-path="url(#p9d95f81f9a)" style="fill: none; stroke: #1f77b4"/>
    <path d="M 140.037244 616.382609 
L 140.037244 497.426087 
" clip-path="url(#p9d95f81f9a)" style="fill: none; stroke: #1f77b4"/>
    <path d="M 193.300881 606.991304 
L 193.300881 477.6 
" clip-path="url(#p9d95f81f9a)" style="fill: none; stroke: #1f77b4"/>
    <path d="M 299.828153 554.817391 
L 299.828153 462.991304 
" clip-path="url(#p9d95f81f9a)" style="fill: none; stroke: #1f77b4"/>
    <path d="M 406.355426 590.295652 
L 406.355426 488.034783 
" clip-path="url(#p9d95f81f9a)" style="fill: none; stroke: #1f77b4"/>
   </g>
   <g id="LineCollection_11">
    <path d="M 86.773608 602.817391 
L 86.773608 529.773913 
" clip-path="url(#p9d95f81f9a)" style="fill: none; stroke: #1f77b4"/>
    <path d="M 140.037244 597.6 
L 140.037244 526.643478 
" clip-path="url(#p9d95f81f9a)" style="fill: none; stroke: #1f77b4"/>
    <path d="M 193.300881 606.991304 
L 193.300881 573.6 
" clip-path="url(#p9d95f81f9a)" style="fill: none; stroke: #1f77b4"/>
    <path d="M 299.828153 619.513043 
L 299.828153 452.556522 
" clip-path="url(#p9d95f81f9a)" style="fill: none; stroke: #1f77b4"/>
    <path d="M 406.355426 606.991304 
L 406.355426 554.817391 
" clip-path="url(#p9d95f81f9a)" style="fill: none; stroke: #1f77b4"/>
   </g>
   <g id="LineCollection_12">
    <path d="M 86.773608 584.034783 
L 86.773608 452.556522 
" clip-path="url(#p9d95f81f9a)" style="fill: none; stroke: #1f77b4"/>
    <path d="M 140.037244 555.86087 
L 140.037244 422.295652 
" clip-path="url(#p9d95f81f9a)" style="fill: none; stroke: #1f77b4"/>
    <path d="M 193.300881 567.33913 
L 193.300881 440.034783 
" clip-path="url(#p9d95f81f9a)" style="fill: none; stroke: #1f77b4"/>
    <path d="M 299.828153 564.208696 
L 299.828153 411.86087 
" clip-path="url(#p9d95f81f9a)" style="fill: none; stroke: #1f77b4"/>
    <path d="M 406.355426 545.426087 
L 406.355426 403.513043 
" clip-path="url(#p9d95f81f9a)" style="fill: none; stroke: #1f77b4"/>
   </g>
   <g id="line2d_41">
    <path d="M 86.773608 559.787609 
L 441.864517 559.787609 
L 441.864517 559.787609 
" clip-path="url(#p9d95f81f9a)" style="fill: none; stroke: #000000; stroke-width: 2; stroke-linecap: square"/>
   </g>
   <g id="line2d_42">
    <path d="M 86.773608 559.787609 
L 441.864517 559.787609 
L 441.864517 559.787609 
" clip-path="url(#p9d95f81f9a)" style="fill: none; stroke: #1f77b4; stroke-width: 2; stroke-linecap: square"/>
   </g>
   <g id="line2d_43">
    <path d="M 86.773608 588.208696 
L 140.037244 589.252174 
L 193.300881 599.686957 
L 299.828153 571.513043 
L 406.355426 573.6 
" clip-path="url(#p9d95f81f9a)" style="fill: none; stroke-dasharray: 3.7,1.6; stroke-dashoffset: 0; stroke: #1f77b4"/>
    <g clip-path="url(#p9d95f81f9a)">
     <use xlink:href="#m6cb2ca8040" x="86.773608" y="588.208696" style="fill: #1f77b4; stroke: #000000; stroke-linejoin: miter"/>
     <use xlink:href="#m6cb2ca8040" x="140.037244" y="589.252174" style="fill: #1f77b4; stroke: #000000; stroke-linejoin: miter"/>
     <use xlink:href="#m6cb2ca8040" x="193.300881" y="599.686957" style="fill: #1f77b4; stroke: #000000; stroke-linejoin: miter"/>
     <use xlink:href="#m6cb2ca8040" x="299.828153" y="571.513043" style="fill: #1f77b4; stroke: #000000; stroke-linejoin: miter"/>
     <use xlink:href="#m6cb2ca8040" x="406.355426" y="573.6" style="fill: #1f77b4; stroke: #000000; stroke-linejoin: miter"/>
    </g>
   </g>
   <g id="line2d_44">
    <path d="M 86.773608 566.295652 
L 140.037244 556.904348 
L 193.300881 542.295652 
L 299.828153 508.904348 
L 406.355426 539.165217 
" clip-path="url(#p9d95f81f9a)" style="fill: none; stroke-dasharray: 3.7,1.6; stroke-dashoffset: 0; stroke: #1f77b4"/>
    <g clip-path="url(#p9d95f81f9a)">
     <use xlink:href="#m6cb2ca8040" x="86.773608" y="566.295652" style="fill: #1f77b4; stroke: #000000; stroke-linejoin: miter"/>
     <use xlink:href="#m6cb2ca8040" x="140.037244" y="556.904348" style="fill: #1f77b4; stroke: #000000; stroke-linejoin: miter"/>
     <use xlink:href="#m6cb2ca8040" x="193.300881" y="542.295652" style="fill: #1f77b4; stroke: #000000; stroke-linejoin: miter"/>
     <use xlink:href="#m6cb2ca8040" x="299.828153" y="508.904348" style="fill: #1f77b4; stroke: #000000; stroke-linejoin: miter"/>
     <use xlink:href="#m6cb2ca8040" x="406.355426" y="539.165217" style="fill: #1f77b4; stroke: #000000; stroke-linejoin: miter"/>
    </g>
   </g>
   <g id="line2d_45">
    <path d="M 86.773608 566.295652 
L 140.037244 562.121739 
L 193.300881 590.295652 
L 299.828153 536.034783 
L 406.355426 580.904348 
" clip-path="url(#p9d95f81f9a)" style="fill: none; stroke-dasharray: 3.7,1.6; stroke-dashoffset: 0; stroke: #1f77b4"/>
    <g clip-path="url(#p9d95f81f9a)">
     <use xlink:href="#m15736d05c8" x="86.773608" y="566.295652" style="fill: #1f77b4; stroke: #000000; stroke-linejoin: miter"/>
     <use xlink:href="#m15736d05c8" x="140.037244" y="562.121739" style="fill: #1f77b4; stroke: #000000; stroke-linejoin: miter"/>
     <use xlink:href="#m15736d05c8" x="193.300881" y="590.295652" style="fill: #1f77b4; stroke: #000000; stroke-linejoin: miter"/>
     <use xlink:href="#m15736d05c8" x="299.828153" y="536.034783" style="fill: #1f77b4; stroke: #000000; stroke-linejoin: miter"/>
     <use xlink:href="#m15736d05c8" x="406.355426" y="580.904348" style="fill: #1f77b4; stroke: #000000; stroke-linejoin: miter"/>
    </g>
   </g>
   <g id="line2d_46">
    <path d="M 86.773608 518.295652 
L 140.037244 489.078261 
L 193.300881 503.686957 
L 299.828153 488.034783 
L 406.355426 474.469565 
" clip-path="url(#p9d95f81f9a)" style="fill: none; stroke-dasharray: 3.7,1.6; stroke-dashoffset: 0; stroke: #1f77b4"/>
    <g clip-path="url(#p9d95f81f9a)">
     <use xlink:href="#m15736d05c8" x="86.773608" y="518.295652" style="fill: #1f77b4; stroke: #000000; stroke-linejoin: miter"/>
     <use xlink:href="#m15736d05c8" x="140.037244" y="489.078261" style="fill: #1f77b4; stroke: #000000; stroke-linejoin: miter"/>
     <use xlink:href="#m15736d05c8" x="193.300881" y="503.686957" style="fill: #1f77b4; stroke: #000000; stroke-linejoin: miter"/>
     <use xlink:href="#m15736d05c8" x="299.828153" y="488.034783" style="fill: #1f77b4; stroke: #000000; stroke-linejoin: miter"/>
     <use xlink:href="#m15736d05c8" x="406.355426" y="474.469565" style="fill: #1f77b4; stroke: #000000; stroke-linejoin: miter"/>
    </g>
   </g>
   <g id="patch_9">
    <path d="M 69.019063 633.6 
L 69.019063 392.556522 
" style="fill: none; stroke: #000000; stroke-width: 0.8; stroke-linejoin: miter; stroke-linecap: square"/>
   </g>
   <g id="patch_10">
    <path d="M 459.619063 633.6 
L 459.619063 392.556522 
" style="fill: none; stroke: #000000; stroke-width: 0.8; stroke-linejoin: miter; stroke-linecap: square"/>
   </g>
   <g id="patch_11">
    <path d="M 69.019063 633.6 
L 459.619063 633.6 
" style="fill: none; stroke: #000000; stroke-width: 0.8; stroke-linejoin: miter; stroke-linecap: square"/>
   </g>
   <g id="patch_12">
    <path d="M 69.019063 392.556522 
L 459.619063 392.556522 
" style="fill: none; stroke: #000000; stroke-width: 0.8; stroke-linejoin: miter; stroke-linecap: square"/>
   </g>
   <g id="legend_2">
    <g id="patch_13">
     <path d="M 76.019063 488.625272 
L 237.037813 488.625272 
Q 239.037813 488.625272 239.037813 486.625272 
L 239.037813 399.556522 
Q 239.037813 397.556522 237.037813 397.556522 
L 76.019063 397.556522 
Q 74.019063 397.556522 74.019063 399.556522 
L 74.019063 486.625272 
Q 74.019063 488.625272 76.019063 488.625272 
z
" style="fill: #ffffff; opacity: 0.8; stroke: #cccccc; stroke-linejoin: miter"/>
    </g>
    <g id="line2d_47">
     <path d="M 78.019063 405.654959 
L 98.019063 405.654959 
" style="fill: none; stroke: #000000; stroke-width: 2; stroke-linecap: square"/>
    </g>
    <g id="line2d_48"/>
    <g id="text_33">
     <!-- Sim -->
     <g transform="translate(106.019063 409.154959) scale(0.1 -0.1)">
      <use xlink:href="#DejaVuSans-53"/>
      <use xlink:href="#DejaVuSans-69" transform="translate(63.476562 0)"/>
      <use xlink:href="#DejaVuSans-6d" transform="translate(91.259766 0)"/>
     </g>
    </g>
    <g id="line2d_49">
     <path d="M 78.019063 420.333084 
L 98.019063 420.333084 
" style="fill: none; stroke: #1f77b4; stroke-width: 2; stroke-linecap: square"/>
    </g>
    <g id="line2d_50"/>
    <g id="text_34">
     <!-- Sim -->
     <g transform="translate(106.019063 423.833084) scale(0.1 -0.1)">
      <use xlink:href="#DejaVuSans-53"/>
      <use xlink:href="#DejaVuSans-69" transform="translate(63.476562 0)"/>
      <use xlink:href="#DejaVuSans-6d" transform="translate(91.259766 0)"/>
     </g>
    </g>
    <g id="LineCollection_13">
     <path d="M 88.019063 440.011209 
L 88.019063 430.011209 
" style="fill: none; stroke: #1f77b4"/>
    </g>
    <g id="line2d_51">
     <path d="M 78.019063 435.011209 
L 98.019063 435.011209 
" style="fill: none; stroke-dasharray: 3.7,1.6; stroke-dashoffset: 0; stroke: #1f77b4"/>
    </g>
    <g id="line2d_52">
     <g>
      <use xlink:href="#m6cb2ca8040" x="88.019063" y="435.011209" style="fill: #1f77b4; stroke: #000000; stroke-linejoin: miter"/>
     </g>
    </g>
    <g id="text_35">
     <!-- black (supine)±SD (n=9) -->
     <g transform="translate(106.019063 438.511209) scale(0.1 -0.1)">
      <use xlink:href="#DejaVuSans-62"/>
      <use xlink:href="#DejaVuSans-6c" transform="translate(63.476562 0)"/>
      <use xlink:href="#DejaVuSans-61" transform="translate(91.259766 0)"/>
      <use xlink:href="#DejaVuSans-63" transform="translate(152.539062 0)"/>
      <use xlink:href="#DejaVuSans-6b" transform="translate(207.519531 0)"/>
      <use xlink:href="#DejaVuSans-20" transform="translate(265.429688 0)"/>
      <use xlink:href="#DejaVuSans-28" transform="translate(297.216797 0)"/>
      <use xlink:href="#DejaVuSans-73" transform="translate(336.230469 0)"/>
      <use xlink:href="#DejaVuSans-75" transform="translate(388.330078 0)"/>
      <use xlink:href="#DejaVuSans-70" transform="translate(451.708984 0)"/>
      <use xlink:href="#DejaVuSans-69" transform="translate(515.185547 0)"/>
      <use xlink:href="#DejaVuSans-6e" transform="translate(542.96875 0)"/>
      <use xlink:href="#DejaVuSans-65" transform="translate(606.347656 0)"/>
      <use xlink:href="#DejaVuSans-29" transform="translate(667.871094 0)"/>
      <use xlink:href="#DejaVuSans-b1" transform="translate(706.884766 0)"/>
      <use xlink:href="#DejaVuSans-53" transform="translate(790.673828 0)"/>
      <use xlink:href="#DejaVuSans-44" transform="translate(854.150391 0)"/>
      <use xlink:href="#DejaVuSans-20" transform="translate(931.152344 0)"/>
      <use xlink:href="#DejaVuSans-28" transform="translate(962.939453 0)"/>
      <use xlink:href="#DejaVuSans-6e" transform="translate(1001.953125 0)"/>
      <use xlink:href="#DejaVuSans-3d" transform="translate(1065.332031 0)"/>
      <use xlink:href="#DejaVuSans-39" transform="translate(1149.121094 0)"/>
      <use xlink:href="#DejaVuSans-29" transform="translate(1212.744141 0)"/>
     </g>
    </g>
    <g id="LineCollection_14">
     <path d="M 88.019063 454.689334 
L 88.019063 444.689334 
" style="fill: none; stroke: #1f77b4"/>
    </g>
    <g id="line2d_53">
     <path d="M 78.019063 449.689334 
L 98.019063 449.689334 
" style="fill: none; stroke-dasharray: 3.7,1.6; stroke-dashoffset: 0; stroke: #1f77b4"/>
    </g>
    <g id="line2d_54">
     <g>
      <use xlink:href="#m6cb2ca8040" x="88.019063" y="449.689334" style="fill: #1f77b4; stroke: #000000; stroke-linejoin: miter"/>
     </g>
    </g>
    <g id="text_36">
     <!-- black (upright)±SD (n=9) -->
     <g transform="translate(106.019063 453.189334) scale(0.1 -0.1)">
      <use xlink:href="#DejaVuSans-62"/>
      <use xlink:href="#DejaVuSans-6c" transform="translate(63.476562 0)"/>
      <use xlink:href="#DejaVuSans-61" transform="translate(91.259766 0)"/>
      <use xlink:href="#DejaVuSans-63" transform="translate(152.539062 0)"/>
      <use xlink:href="#DejaVuSans-6b" transform="translate(207.519531 0)"/>
      <use xlink:href="#DejaVuSans-20" transform="translate(265.429688 0)"/>
      <use xlink:href="#DejaVuSans-28" transform="translate(297.216797 0)"/>
      <use xlink:href="#DejaVuSans-75" transform="translate(336.230469 0)"/>
      <use xlink:href="#DejaVuSans-70" transform="translate(399.609375 0)"/>
      <use xlink:href="#DejaVuSans-72" transform="translate(463.085938 0)"/>
      <use xlink:href="#DejaVuSans-69" transform="translate(504.199219 0)"/>
      <use xlink:href="#DejaVuSans-67" transform="translate(531.982422 0)"/>
      <use xlink:href="#DejaVuSans-68" transform="translate(595.458984 0)"/>
      <use xlink:href="#DejaVuSans-74" transform="translate(658.837891 0)"/>
      <use xlink:href="#DejaVuSans-29" transform="translate(698.046875 0)"/>
      <use xlink:href="#DejaVuSans-b1" transform="translate(737.060547 0)"/>
      <use xlink:href="#DejaVuSans-53" transform="translate(820.849609 0)"/>
      <use xlink:href="#DejaVuSans-44" transform="translate(884.326172 0)"/>
      <use xlink:href="#DejaVuSans-20" transform="translate(961.328125 0)"/>
      <use xlink:href="#DejaVuSans-28" transform="translate(993.115234 0)"/>
      <use xlink:href="#DejaVuSans-6e" transform="translate(1032.128906 0)"/>
      <use xlink:href="#DejaVuSans-3d" transform="translate(1095.507812 0)"/>
      <use xlink:href="#DejaVuSans-39" transform="translate(1179.296875 0)"/>
      <use xlink:href="#DejaVuSans-29" transform="translate(1242.919922 0)"/>
     </g>
    </g>
    <g id="LineCollection_15">
     <path d="M 88.019063 469.367459 
L 88.019063 459.367459 
" style="fill: none; stroke: #1f77b4"/>
    </g>
    <g id="line2d_55">
     <path d="M 78.019063 464.367459 
L 98.019063 464.367459 
" style="fill: none; stroke-dasharray: 3.7,1.6; stroke-dashoffset: 0; stroke: #1f77b4"/>
    </g>
    <g id="line2d_56">
     <g>
      <use xlink:href="#m15736d05c8" x="88.019063" y="464.367459" style="fill: #1f77b4; stroke: #000000; stroke-linejoin: miter"/>
     </g>
    </g>
    <g id="text_37">
     <!-- white (supine)±SD (n=9) -->
     <g transform="translate(106.019063 467.867459) scale(0.1 -0.1)">
      <use xlink:href="#DejaVuSans-77"/>
      <use xlink:href="#DejaVuSans-68" transform="translate(81.787109 0)"/>
      <use xlink:href="#DejaVuSans-69" transform="translate(145.166016 0)"/>
      <use xlink:href="#DejaVuSans-74" transform="translate(172.949219 0)"/>
      <use xlink:href="#DejaVuSans-65" transform="translate(212.158203 0)"/>
      <use xlink:href="#DejaVuSans-20" transform="translate(273.681641 0)"/>
      <use xlink:href="#DejaVuSans-28" transform="translate(305.46875 0)"/>
      <use xlink:href="#DejaVuSans-73" transform="translate(344.482422 0)"/>
      <use xlink:href="#DejaVuSans-75" transform="translate(396.582031 0)"/>
      <use xlink:href="#DejaVuSans-70" transform="translate(459.960938 0)"/>
      <use xlink:href="#DejaVuSans-69" transform="translate(523.4375 0)"/>
      <use xlink:href="#DejaVuSans-6e" transform="translate(551.220703 0)"/>
      <use xlink:href="#DejaVuSans-65" transform="translate(614.599609 0)"/>
      <use xlink:href="#DejaVuSans-29" transform="translate(676.123047 0)"/>
      <use xlink:href="#DejaVuSans-b1" transform="translate(715.136719 0)"/>
      <use xlink:href="#DejaVuSans-53" transform="translate(798.925781 0)"/>
      <use xlink:href="#DejaVuSans-44" transform="translate(862.402344 0)"/>
      <use xlink:href="#DejaVuSans-20" transform="translate(939.404297 0)"/>
      <use xlink:href="#DejaVuSans-28" transform="translate(971.191406 0)"/>
      <use xlink:href="#DejaVuSans-6e" transform="translate(1010.205078 0)"/>
      <use xlink:href="#DejaVuSans-3d" transform="translate(1073.583984 0)"/>
      <use xlink:href="#DejaVuSans-39" transform="translate(1157.373047 0)"/>
      <use xlink:href="#DejaVuSans-29" transform="translate(1220.996094 0)"/>
     </g>
    </g>
    <g id="LineCollection_16">
     <path d="M 88.019063 484.045584 
L 88.019063 474.045584 
" style="fill: none; stroke: #1f77b4"/>
    </g>
    <g id="line2d_57">
     <path d="M 78.019063 479.045584 
L 98.019063 479.045584 
" style="fill: none; stroke-dasharray: 3.7,1.6; stroke-dashoffset: 0; stroke: #1f77b4"/>
    </g>
    <g id="line2d_58">
     <g>
      <use xlink:href="#m15736d05c8" x="88.019063" y="479.045584" style="fill: #1f77b4; stroke: #000000; stroke-linejoin: miter"/>
     </g>
    </g>
    <g id="text_38">
     <!-- white (upright)±SD (n=9) -->
     <g transform="translate(106.019063 482.545584) scale(0.1 -0.1)">
      <use xlink:href="#DejaVuSans-77"/>
      <use xlink:href="#DejaVuSans-68" transform="translate(81.787109 0)"/>
      <use xlink:href="#DejaVuSans-69" transform="translate(145.166016 0)"/>
      <use xlink:href="#DejaVuSans-74" transform="translate(172.949219 0)"/>
      <use xlink:href="#DejaVuSans-65" transform="translate(212.158203 0)"/>
      <use xlink:href="#DejaVuSans-20" transform="translate(273.681641 0)"/>
      <use xlink:href="#DejaVuSans-28" transform="translate(305.46875 0)"/>
      <use xlink:href="#DejaVuSans-75" transform="translate(344.482422 0)"/>
      <use xlink:href="#DejaVuSans-70" transform="translate(407.861328 0)"/>
      <use xlink:href="#DejaVuSans-72" transform="translate(471.337891 0)"/>
      <use xlink:href="#DejaVuSans-69" transform="translate(512.451172 0)"/>
      <use xlink:href="#DejaVuSans-67" transform="translate(540.234375 0)"/>
      <use xlink:href="#DejaVuSans-68" transform="translate(603.710938 0)"/>
      <use xlink:href="#DejaVuSans-74" transform="translate(667.089844 0)"/>
      <use xlink:href="#DejaVuSans-29" transform="translate(706.298828 0)"/>
      <use xlink:href="#DejaVuSans-b1" transform="translate(745.3125 0)"/>
      <use xlink:href="#DejaVuSans-53" transform="translate(829.101562 0)"/>
      <use xlink:href="#DejaVuSans-44" transform="translate(892.578125 0)"/>
      <use xlink:href="#DejaVuSans-20" transform="translate(969.580078 0)"/>
      <use xlink:href="#DejaVuSans-28" transform="translate(1001.367188 0)"/>
      <use xlink:href="#DejaVuSans-6e" transform="translate(1040.380859 0)"/>
      <use xlink:href="#DejaVuSans-3d" transform="translate(1103.759766 0)"/>
      <use xlink:href="#DejaVuSans-39" transform="translate(1187.548828 0)"/>
      <use xlink:href="#DejaVuSans-29" transform="translate(1251.171875 0)"/>
     </g>
    </g>
   </g>
  </g>
  <g id="text_39">
   <!-- Ripley2000 Fig 3 -->
   <g transform="translate(140.288594 26.196094) scale(0.25 -0.25)">
    <defs>
     <path id="DejaVuSans-Bold-52" d="M 2297 2597 
Q 2675 2597 2839 2737 
Q 3003 2878 3003 3200 
Q 3003 3519 2839 3656 
Q 2675 3794 2297 3794 
L 1791 3794 
L 1791 2597 
L 2297 2597 
z
M 1791 1766 
L 1791 0 
L 588 0 
L 588 4666 
L 2425 4666 
Q 3347 4666 3776 4356 
Q 4206 4047 4206 3378 
Q 4206 2916 3982 2619 
Q 3759 2322 3309 2181 
Q 3556 2125 3751 1926 
Q 3947 1728 4147 1325 
L 4800 0 
L 3519 0 
L 2950 1159 
Q 2778 1509 2601 1637 
Q 2425 1766 2131 1766 
L 1791 1766 
z
" transform="scale(0.015625)"/>
     <path id="DejaVuSans-Bold-79" d="M 78 3500 
L 1197 3500 
L 2138 1125 
L 2938 3500 
L 4056 3500 
L 2584 -331 
Q 2363 -916 2067 -1148 
Q 1772 -1381 1288 -1381 
L 641 -1381 
L 641 -647 
L 991 -647 
Q 1275 -647 1404 -556 
Q 1534 -466 1606 -231 
L 1638 -134 
L 78 3500 
z
" transform="scale(0.015625)"/>
     <path id="DejaVuSans-Bold-32" d="M 1844 884 
L 3897 884 
L 3897 0 
L 506 0 
L 506 884 
L 2209 2388 
Q 2438 2594 2547 2791 
Q 2656 2988 2656 3200 
Q 2656 3528 2436 3728 
Q 2216 3928 1850 3928 
Q 1569 3928 1234 3808 
Q 900 3688 519 3450 
L 519 4475 
Q 925 4609 1322 4679 
Q 1719 4750 2100 4750 
Q 2938 4750 3402 4381 
Q 3866 4013 3866 3353 
Q 3866 2972 3669 2642 
Q 3472 2313 2841 1759 
L 1844 884 
z
" transform="scale(0.015625)"/>
     <path id="DejaVuSans-Bold-30" d="M 2944 2338 
Q 2944 3213 2780 3570 
Q 2616 3928 2228 3928 
Q 1841 3928 1675 3570 
Q 1509 3213 1509 2338 
Q 1509 1453 1675 1090 
Q 1841 728 2228 728 
Q 2613 728 2778 1090 
Q 2944 1453 2944 2338 
z
M 4147 2328 
Q 4147 1169 3647 539 
Q 3147 -91 2228 -91 
Q 1306 -91 806 539 
Q 306 1169 306 2328 
Q 306 3491 806 4120 
Q 1306 4750 2228 4750 
Q 3147 4750 3647 4120 
Q 4147 3491 4147 2328 
z
" transform="scale(0.015625)"/>
     <path id="DejaVuSans-Bold-46" d="M 588 4666 
L 3834 4666 
L 3834 3756 
L 1791 3756 
L 1791 2888 
L 3713 2888 
L 3713 1978 
L 1791 1978 
L 1791 0 
L 588 0 
L 588 4666 
z
" transform="scale(0.015625)"/>
     <path id="DejaVuSans-Bold-67" d="M 2919 594 
Q 2688 288 2409 144 
Q 2131 0 1766 0 
Q 1125 0 706 504 
Q 288 1009 288 1791 
Q 288 2575 706 3076 
Q 1125 3578 1766 3578 
Q 2131 3578 2409 3434 
Q 2688 3291 2919 2981 
L 2919 3500 
L 4044 3500 
L 4044 353 
Q 4044 -491 3511 -936 
Q 2978 -1381 1966 -1381 
Q 1638 -1381 1331 -1331 
Q 1025 -1281 716 -1178 
L 716 -306 
Q 1009 -475 1290 -558 
Q 1572 -641 1856 -641 
Q 2406 -641 2662 -400 
Q 2919 -159 2919 353 
L 2919 594 
z
M 2181 2772 
Q 1834 2772 1640 2515 
Q 1447 2259 1447 1791 
Q 1447 1309 1634 1061 
Q 1822 813 2181 813 
Q 2531 813 2725 1069 
Q 2919 1325 2919 1791 
Q 2919 2259 2725 2515 
Q 2531 2772 2181 2772 
z
" transform="scale(0.015625)"/>
     <path id="DejaVuSans-Bold-33" d="M 2981 2516 
Q 3453 2394 3698 2092 
Q 3944 1791 3944 1325 
Q 3944 631 3412 270 
Q 2881 -91 1863 -91 
Q 1503 -91 1142 -33 
Q 781 25 428 141 
L 428 1069 
Q 766 900 1098 814 
Q 1431 728 1753 728 
Q 2231 728 2486 893 
Q 2741 1059 2741 1369 
Q 2741 1688 2480 1852 
Q 2219 2016 1709 2016 
L 1228 2016 
L 1228 2791 
L 1734 2791 
Q 2188 2791 2409 2933 
Q 2631 3075 2631 3366 
Q 2631 3634 2415 3781 
Q 2200 3928 1806 3928 
Q 1516 3928 1219 3862 
Q 922 3797 628 3669 
L 628 4550 
Q 984 4650 1334 4700 
Q 1684 4750 2022 4750 
Q 2931 4750 3382 4451 
Q 3834 4153 3834 3553 
Q 3834 3144 3618 2883 
Q 3403 2622 2981 2516 
z
" transform="scale(0.015625)"/>
    </defs>
    <use xlink:href="#DejaVuSans-Bold-52"/>
    <use xlink:href="#DejaVuSans-Bold-69" transform="translate(77.001953 0)"/>
    <use xlink:href="#DejaVuSans-Bold-70" transform="translate(111.279297 0)"/>
    <use xlink:href="#DejaVuSans-Bold-6c" transform="translate(182.861328 0)"/>
    <use xlink:href="#DejaVuSans-Bold-65" transform="translate(217.138672 0)"/>
    <use xlink:href="#DejaVuSans-Bold-79" transform="translate(284.960938 0)"/>
    <use xlink:href="#DejaVuSans-Bold-32" transform="translate(350.146484 0)"/>
    <use xlink:href="#DejaVuSans-Bold-30" transform="translate(419.726562 0)"/>
    <use xlink:href="#DejaVuSans-Bold-30" transform="translate(489.306641 0)"/>
    <use xlink:href="#DejaVuSans-Bold-30" transform="translate(558.886719 0)"/>
    <use xlink:href="#DejaVuSans-Bold-20" transform="translate(628.466797 0)"/>
    <use xlink:href="#DejaVuSans-Bold-46" transform="translate(663.28125 0)"/>
    <use xlink:href="#DejaVuSans-Bold-69" transform="translate(731.591797 0)"/>
    <use xlink:href="#DejaVuSans-Bold-67" transform="translate(765.869141 0)"/>
    <use xlink:href="#DejaVuSans-Bold-20" transform="translate(837.451172 0)"/>
    <use xlink:href="#DejaVuSans-Bold-33" transform="translate(872.265625 0)"/>
   </g>
  </g>
 </g>
 <defs>
  <clipPath id="pb9ec1ad708">
   <rect x="69.019063" y="79.2" width="390.6" height="241.043478"/>
  </clipPath>
  <clipPath id="p9d95f81f9a">
   <rect x="69.019063" y="392.556522" width="390.6" height="241.043478"/>
  </clipPath>
 </defs>
</svg>
