<?xml version="1.0" encoding="utf-8" standalone="no"?>
<!DOCTYPE svg PUBLIC "-//W3C//DTD SVG 1.1//EN"
  "http://www.w3.org/Graphics/SVG/1.1/DTD/svg11.dtd">
<svg xmlns:xlink="http://www.w3.org/1999/xlink" width="482.207938pt" height="1017.093875pt" viewBox="0 0 482.207938 1017.093875" xmlns="http://www.w3.org/2000/svg" version="1.1">
 <metadata>
  <rdf:RDF xmlns:dc="http://purl.org/dc/elements/1.1/" xmlns:cc="http://creativecommons.org/ns#" xmlns:rdf="http://www.w3.org/1999/02/22-rdf-syntax-ns#">
   <cc:Work>
    <dc:type rdf:resource="http://purl.org/dc/dcmitype/StillImage"/>
    <dc:date>2025-11-04T18:11:59.627686</dc:date>
    <dc:format>image/svg+xml</dc:format>
    <dc:creator>
     <cc:Agent>
      <dc:title>Matplotlib v3.10.7, https://matplotlib.org/</dc:title>
     </cc:Agent>
    </dc:creator>
   </cc:Work>
  </rdf:RDF>
 </metadata>
 <defs>
  <style type="text/css">*{stroke-linejoin: round; stroke-linecap: butt}</style>
 </defs>
 <g id="figure_1">
  <g id="patch_1">
   <path d="M 0 1017.093875 
L 482.207938 1017.093875 
L 482.207938 0 
L 0 0 
z
" style="fill: #ffffff"/>
  </g>
  <g id="axes_1">
   <g id="patch_2">
    <path d="M 84.407937 346.2 
L 475.007938 346.2 
L 475.007938 115.2 
L 84.407937 115.2 
z
" style="fill: #ffffff"/>
   </g>
   <g id="matplotlib.axis_1">
    <g id="xtick_1">
     <g id="line2d_1">
      <defs>
       <path id="m56a312e036" d="M 0 0 
L 0 3.5 
" style="stroke: #000000; stroke-width: 0.8"/>
      </defs>
      <g>
       <use xlink:href="#m56a312e036" x="102.162483" y="346.2" style="stroke: #000000; stroke-width: 0.8"/>
      </g>
     </g>
     <g id="text_1">
      <!-- 0 -->
      <g transform="translate(97.390608 364.597656) scale(0.15 -0.15)">
       <defs>
        <path id="DejaVuSans-30" d="M 2034 4250 
Q 1547 4250 1301 3770 
Q 1056 3291 1056 2328 
Q 1056 1369 1301 889 
Q 1547 409 2034 409 
Q 2525 409 2770 889 
Q 3016 1369 3016 2328 
Q 3016 3291 2770 3770 
Q 2525 4250 2034 4250 
z
M 2034 4750 
Q 2819 4750 3233 4129 
Q 3647 3509 3647 2328 
Q 3647 1150 3233 529 
Q 2819 -91 2034 -91 
Q 1250 -91 836 529 
Q 422 1150 422 2328 
Q 422 3509 836 4129 
Q 1250 4750 2034 4750 
z
" transform="scale(0.015625)"/>
       </defs>
       <use xlink:href="#DejaVuSans-30"/>
      </g>
     </g>
    </g>
    <g id="xtick_2">
     <g id="line2d_2">
      <g>
       <use xlink:href="#m56a312e036" x="188.069198" y="346.2" style="stroke: #000000; stroke-width: 0.8"/>
      </g>
     </g>
     <g id="text_2">
      <!-- 100 -->
      <g transform="translate(173.753573 364.597656) scale(0.15 -0.15)">
       <defs>
        <path id="DejaVuSans-31" d="M 794 531 
L 1825 531 
L 1825 4091 
L 703 3866 
L 703 4441 
L 1819 4666 
L 2450 4666 
L 2450 531 
L 3481 531 
L 3481 0 
L 794 0 
L 794 531 
z
" transform="scale(0.015625)"/>
       </defs>
       <use xlink:href="#DejaVuSans-31"/>
       <use xlink:href="#DejaVuSans-30" transform="translate(63.623047 0)"/>
       <use xlink:href="#DejaVuSans-30" transform="translate(127.246094 0)"/>
      </g>
     </g>
    </g>
    <g id="xtick_3">
     <g id="line2d_3">
      <g>
       <use xlink:href="#m56a312e036" x="273.975912" y="346.2" style="stroke: #000000; stroke-width: 0.8"/>
      </g>
     </g>
     <g id="text_3">
      <!-- 200 -->
      <g transform="translate(259.660287 364.597656) scale(0.15 -0.15)">
       <defs>
        <path id="DejaVuSans-32" d="M 1228 531 
L 3431 531 
L 3431 0 
L 469 0 
L 469 531 
Q 828 903 1448 1529 
Q 2069 2156 2228 2338 
Q 2531 2678 2651 2914 
Q 2772 3150 2772 3378 
Q 2772 3750 2511 3984 
Q 2250 4219 1831 4219 
Q 1534 4219 1204 4116 
Q 875 4013 500 3803 
L 500 4441 
Q 881 4594 1212 4672 
Q 1544 4750 1819 4750 
Q 2544 4750 2975 4387 
Q 3406 4025 3406 3419 
Q 3406 3131 3298 2873 
Q 3191 2616 2906 2266 
Q 2828 2175 2409 1742 
Q 1991 1309 1228 531 
z
" transform="scale(0.015625)"/>
       </defs>
       <use xlink:href="#DejaVuSans-32"/>
       <use xlink:href="#DejaVuSans-30" transform="translate(63.623047 0)"/>
       <use xlink:href="#DejaVuSans-30" transform="translate(127.246094 0)"/>
      </g>
     </g>
    </g>
    <g id="xtick_4">
     <g id="line2d_4">
      <g>
       <use xlink:href="#m56a312e036" x="359.882627" y="346.2" style="stroke: #000000; stroke-width: 0.8"/>
      </g>
     </g>
     <g id="text_4">
      <!-- 300 -->
      <g transform="translate(345.567002 364.597656) scale(0.15 -0.15)">
       <defs>
        <path id="DejaVuSans-33" d="M 2597 2516 
Q 3050 2419 3304 2112 
Q 3559 1806 3559 1356 
Q 3559 666 3084 287 
Q 2609 -91 1734 -91 
Q 1441 -91 1130 -33 
Q 819 25 488 141 
L 488 750 
Q 750 597 1062 519 
Q 1375 441 1716 441 
Q 2309 441 2620 675 
Q 2931 909 2931 1356 
Q 2931 1769 2642 2001 
Q 2353 2234 1838 2234 
L 1294 2234 
L 1294 2753 
L 1863 2753 
Q 2328 2753 2575 2939 
Q 2822 3125 2822 3475 
Q 2822 3834 2567 4026 
Q 2313 4219 1838 4219 
Q 1578 4219 1281 4162 
Q 984 4106 628 3988 
L 628 4550 
Q 988 4650 1302 4700 
Q 1616 4750 1894 4750 
Q 2613 4750 3031 4423 
Q 3450 4097 3450 3541 
Q 3450 3153 3228 2886 
Q 3006 2619 2597 2516 
z
" transform="scale(0.015625)"/>
       </defs>
       <use xlink:href="#DejaVuSans-33"/>
       <use xlink:href="#DejaVuSans-30" transform="translate(63.623047 0)"/>
       <use xlink:href="#DejaVuSans-30" transform="translate(127.246094 0)"/>
      </g>
     </g>
    </g>
    <g id="xtick_5">
     <g id="line2d_5">
      <g>
       <use xlink:href="#m56a312e036" x="445.789341" y="346.2" style="stroke: #000000; stroke-width: 0.8"/>
      </g>
     </g>
     <g id="text_5">
      <!-- 400 -->
      <g transform="translate(431.473716 364.597656) scale(0.15 -0.15)">
       <defs>
        <path id="DejaVuSans-34" d="M 2419 4116 
L 825 1625 
L 2419 1625 
L 2419 4116 
z
M 2253 4666 
L 3047 4666 
L 3047 1625 
L 3713 1625 
L 3713 1100 
L 3047 1100 
L 3047 0 
L 2419 0 
L 2419 1100 
L 313 1100 
L 313 1709 
L 2253 4666 
z
" transform="scale(0.015625)"/>
       </defs>
       <use xlink:href="#DejaVuSans-34"/>
       <use xlink:href="#DejaVuSans-30" transform="translate(63.623047 0)"/>
       <use xlink:href="#DejaVuSans-30" transform="translate(127.246094 0)"/>
      </g>
     </g>
    </g>
    <g id="text_6">
     <!-- HCTZ excretion -->
     <g transform="translate(202.007 385.394375) scale(0.18 -0.18)">
      <defs>
       <path id="DejaVuSans-Bold-48" d="M 588 4666 
L 1791 4666 
L 1791 2888 
L 3566 2888 
L 3566 4666 
L 4769 4666 
L 4769 0 
L 3566 0 
L 3566 1978 
L 1791 1978 
L 1791 0 
L 588 0 
L 588 4666 
z
" transform="scale(0.015625)"/>
       <path id="DejaVuSans-Bold-43" d="M 4288 256 
Q 3956 84 3597 -3 
Q 3238 -91 2847 -91 
Q 1681 -91 1000 561 
Q 319 1213 319 2328 
Q 319 3447 1000 4098 
Q 1681 4750 2847 4750 
Q 3238 4750 3597 4662 
Q 3956 4575 4288 4403 
L 4288 3438 
Q 3953 3666 3628 3772 
Q 3303 3878 2944 3878 
Q 2300 3878 1931 3465 
Q 1563 3053 1563 2328 
Q 1563 1606 1931 1193 
Q 2300 781 2944 781 
Q 3303 781 3628 887 
Q 3953 994 4288 1222 
L 4288 256 
z
" transform="scale(0.015625)"/>
       <path id="DejaVuSans-Bold-54" d="M 31 4666 
L 4331 4666 
L 4331 3756 
L 2784 3756 
L 2784 0 
L 1581 0 
L 1581 3756 
L 31 3756 
L 31 4666 
z
" transform="scale(0.015625)"/>
       <path id="DejaVuSans-Bold-5a" d="M 359 4666 
L 4281 4666 
L 4281 3938 
L 1778 909 
L 4353 909 
L 4353 0 
L 288 0 
L 288 728 
L 2791 3756 
L 359 3756 
L 359 4666 
z
" transform="scale(0.015625)"/>
       <path id="DejaVuSans-Bold-20" transform="scale(0.015625)"/>
       <path id="DejaVuSans-Bold-65" d="M 4031 1759 
L 4031 1441 
L 1416 1441 
Q 1456 1047 1700 850 
Q 1944 653 2381 653 
Q 2734 653 3104 758 
Q 3475 863 3866 1075 
L 3866 213 
Q 3469 63 3072 -14 
Q 2675 -91 2278 -91 
Q 1328 -91 801 392 
Q 275 875 275 1747 
Q 275 2603 792 3093 
Q 1309 3584 2216 3584 
Q 3041 3584 3536 3087 
Q 4031 2591 4031 1759 
z
M 2881 2131 
Q 2881 2450 2695 2645 
Q 2509 2841 2209 2841 
Q 1884 2841 1681 2658 
Q 1478 2475 1428 2131 
L 2881 2131 
z
" transform="scale(0.015625)"/>
       <path id="DejaVuSans-Bold-78" d="M 1422 1791 
L 159 3500 
L 1344 3500 
L 2059 2463 
L 2784 3500 
L 3969 3500 
L 2706 1797 
L 4031 0 
L 2847 0 
L 2059 1106 
L 1281 0 
L 97 0 
L 1422 1791 
z
" transform="scale(0.015625)"/>
       <path id="DejaVuSans-Bold-63" d="M 3366 3391 
L 3366 2478 
Q 3138 2634 2908 2709 
Q 2678 2784 2431 2784 
Q 1963 2784 1702 2511 
Q 1441 2238 1441 1747 
Q 1441 1256 1702 982 
Q 1963 709 2431 709 
Q 2694 709 2930 787 
Q 3166 866 3366 1019 
L 3366 103 
Q 3103 6 2833 -42 
Q 2563 -91 2291 -91 
Q 1344 -91 809 395 
Q 275 881 275 1747 
Q 275 2613 809 3098 
Q 1344 3584 2291 3584 
Q 2566 3584 2833 3536 
Q 3100 3488 3366 3391 
z
" transform="scale(0.015625)"/>
       <path id="DejaVuSans-Bold-72" d="M 3138 2547 
Q 2991 2616 2845 2648 
Q 2700 2681 2553 2681 
Q 2122 2681 1889 2404 
Q 1656 2128 1656 1613 
L 1656 0 
L 538 0 
L 538 3500 
L 1656 3500 
L 1656 2925 
Q 1872 3269 2151 3426 
Q 2431 3584 2822 3584 
Q 2878 3584 2943 3579 
Q 3009 3575 3134 3559 
L 3138 2547 
z
" transform="scale(0.015625)"/>
       <path id="DejaVuSans-Bold-74" d="M 1759 4494 
L 1759 3500 
L 2913 3500 
L 2913 2700 
L 1759 2700 
L 1759 1216 
Q 1759 972 1856 886 
Q 1953 800 2241 800 
L 2816 800 
L 2816 0 
L 1856 0 
Q 1194 0 917 276 
Q 641 553 641 1216 
L 641 2700 
L 84 2700 
L 84 3500 
L 641 3500 
L 641 4494 
L 1759 4494 
z
" transform="scale(0.015625)"/>
       <path id="DejaVuSans-Bold-69" d="M 538 3500 
L 1656 3500 
L 1656 0 
L 538 0 
L 538 3500 
z
M 538 4863 
L 1656 4863 
L 1656 3950 
L 538 3950 
L 538 4863 
z
" transform="scale(0.015625)"/>
       <path id="DejaVuSans-Bold-6f" d="M 2203 2784 
Q 1831 2784 1636 2517 
Q 1441 2250 1441 1747 
Q 1441 1244 1636 976 
Q 1831 709 2203 709 
Q 2569 709 2762 976 
Q 2956 1244 2956 1747 
Q 2956 2250 2762 2517 
Q 2569 2784 2203 2784 
z
M 2203 3584 
Q 3106 3584 3614 3096 
Q 4122 2609 4122 1747 
Q 4122 884 3614 396 
Q 3106 -91 2203 -91 
Q 1297 -91 786 396 
Q 275 884 275 1747 
Q 275 2609 786 3096 
Q 1297 3584 2203 3584 
z
" transform="scale(0.015625)"/>
       <path id="DejaVuSans-Bold-6e" d="M 4056 2131 
L 4056 0 
L 2931 0 
L 2931 347 
L 2931 1631 
Q 2931 2084 2911 2256 
Q 2891 2428 2841 2509 
Q 2775 2619 2662 2680 
Q 2550 2741 2406 2741 
Q 2056 2741 1856 2470 
Q 1656 2200 1656 1722 
L 1656 0 
L 538 0 
L 538 3500 
L 1656 3500 
L 1656 2988 
Q 1909 3294 2193 3439 
Q 2478 3584 2822 3584 
Q 3428 3584 3742 3212 
Q 4056 2841 4056 2131 
z
" transform="scale(0.015625)"/>
      </defs>
      <use xlink:href="#DejaVuSans-Bold-48"/>
      <use xlink:href="#DejaVuSans-Bold-43" transform="translate(83.691406 0)"/>
      <use xlink:href="#DejaVuSans-Bold-54" transform="translate(157.080078 0)"/>
      <use xlink:href="#DejaVuSans-Bold-5a" transform="translate(225.292969 0)"/>
      <use xlink:href="#DejaVuSans-Bold-20" transform="translate(297.802734 0)"/>
      <use xlink:href="#DejaVuSans-Bold-65" transform="translate(332.617188 0)"/>
      <use xlink:href="#DejaVuSans-Bold-78" transform="translate(400.439453 0)"/>
      <use xlink:href="#DejaVuSans-Bold-63" transform="translate(464.941406 0)"/>
      <use xlink:href="#DejaVuSans-Bold-72" transform="translate(524.21875 0)"/>
      <use xlink:href="#DejaVuSans-Bold-65" transform="translate(573.535156 0)"/>
      <use xlink:href="#DejaVuSans-Bold-74" transform="translate(641.357422 0)"/>
      <use xlink:href="#DejaVuSans-Bold-69" transform="translate(689.160156 0)"/>
      <use xlink:href="#DejaVuSans-Bold-6f" transform="translate(723.4375 0)"/>
      <use xlink:href="#DejaVuSans-Bold-6e" transform="translate(792.138672 0)"/>
     </g>
     <!-- urine [nmol/min] -->
     <g transform="translate(194.6945 405.550438) scale(0.18 -0.18)">
      <defs>
       <path id="DejaVuSans-Bold-75" d="M 500 1363 
L 500 3500 
L 1625 3500 
L 1625 3150 
Q 1625 2866 1622 2436 
Q 1619 2006 1619 1863 
Q 1619 1441 1641 1255 
Q 1663 1069 1716 984 
Q 1784 875 1895 815 
Q 2006 756 2150 756 
Q 2500 756 2700 1025 
Q 2900 1294 2900 1772 
L 2900 3500 
L 4019 3500 
L 4019 0 
L 2900 0 
L 2900 506 
Q 2647 200 2364 54 
Q 2081 -91 1741 -91 
Q 1134 -91 817 281 
Q 500 653 500 1363 
z
" transform="scale(0.015625)"/>
       <path id="DejaVuSans-Bold-5b" d="M 550 4863 
L 2491 4863 
L 2491 4159 
L 1613 4159 
L 1613 -141 
L 2491 -141 
L 2491 -844 
L 550 -844 
L 550 4863 
z
" transform="scale(0.015625)"/>
       <path id="DejaVuSans-Bold-6d" d="M 3781 2919 
Q 3994 3244 4286 3414 
Q 4578 3584 4928 3584 
Q 5531 3584 5847 3212 
Q 6163 2841 6163 2131 
L 6163 0 
L 5038 0 
L 5038 1825 
Q 5041 1866 5042 1909 
Q 5044 1953 5044 2034 
Q 5044 2406 4934 2573 
Q 4825 2741 4581 2741 
Q 4263 2741 4089 2478 
Q 3916 2216 3909 1719 
L 3909 0 
L 2784 0 
L 2784 1825 
Q 2784 2406 2684 2573 
Q 2584 2741 2328 2741 
Q 2006 2741 1831 2477 
Q 1656 2213 1656 1722 
L 1656 0 
L 531 0 
L 531 3500 
L 1656 3500 
L 1656 2988 
Q 1863 3284 2130 3434 
Q 2397 3584 2719 3584 
Q 3081 3584 3359 3409 
Q 3638 3234 3781 2919 
z
" transform="scale(0.015625)"/>
       <path id="DejaVuSans-Bold-6c" d="M 538 4863 
L 1656 4863 
L 1656 0 
L 538 0 
L 538 4863 
z
" transform="scale(0.015625)"/>
       <path id="DejaVuSans-Bold-2f" d="M 1644 4666 
L 2338 4666 
L 691 -594 
L 0 -594 
L 1644 4666 
z
" transform="scale(0.015625)"/>
       <path id="DejaVuSans-Bold-5d" d="M 2375 -844 
L 434 -844 
L 434 -141 
L 1313 -141 
L 1313 4159 
L 434 4159 
L 434 4863 
L 2375 4863 
L 2375 -844 
z
" transform="scale(0.015625)"/>
      </defs>
      <use xlink:href="#DejaVuSans-Bold-75"/>
      <use xlink:href="#DejaVuSans-Bold-72" transform="translate(71.191406 0)"/>
      <use xlink:href="#DejaVuSans-Bold-69" transform="translate(120.507812 0)"/>
      <use xlink:href="#DejaVuSans-Bold-6e" transform="translate(154.785156 0)"/>
      <use xlink:href="#DejaVuSans-Bold-65" transform="translate(225.976562 0)"/>
      <use xlink:href="#DejaVuSans-Bold-20" transform="translate(293.798828 0)"/>
      <use xlink:href="#DejaVuSans-Bold-5b" transform="translate(328.613281 0)"/>
      <use xlink:href="#DejaVuSans-Bold-6e" transform="translate(374.316406 0)"/>
      <use xlink:href="#DejaVuSans-Bold-6d" transform="translate(445.507812 0)"/>
      <use xlink:href="#DejaVuSans-Bold-6f" transform="translate(549.707031 0)"/>
      <use xlink:href="#DejaVuSans-Bold-6c" transform="translate(618.408203 0)"/>
      <use xlink:href="#DejaVuSans-Bold-2f" transform="translate(652.685547 0)"/>
      <use xlink:href="#DejaVuSans-Bold-6d" transform="translate(689.208984 0)"/>
      <use xlink:href="#DejaVuSans-Bold-69" transform="translate(793.408203 0)"/>
      <use xlink:href="#DejaVuSans-Bold-6e" transform="translate(827.685547 0)"/>
      <use xlink:href="#DejaVuSans-Bold-5d" transform="translate(898.876953 0)"/>
     </g>
    </g>
   </g>
   <g id="matplotlib.axis_2">
    <g id="ytick_1">
     <g id="line2d_6">
      <defs>
       <path id="mc069857db0" d="M 0 0 
L -3.5 0 
" style="stroke: #000000; stroke-width: 0.8"/>
      </defs>
      <g>
       <use xlink:href="#mc069857db0" x="84.407937" y="323.350753" style="stroke: #000000; stroke-width: 0.8"/>
      </g>
     </g>
     <g id="text_7">
      <!-- 100 -->
      <g transform="translate(48.776687 329.049581) scale(0.15 -0.15)">
       <use xlink:href="#DejaVuSans-31"/>
       <use xlink:href="#DejaVuSans-30" transform="translate(63.623047 0)"/>
       <use xlink:href="#DejaVuSans-30" transform="translate(127.246094 0)"/>
      </g>
     </g>
    </g>
    <g id="ytick_2">
     <g id="line2d_7">
      <g>
       <use xlink:href="#mc069857db0" x="84.407937" y="263.184131" style="stroke: #000000; stroke-width: 0.8"/>
      </g>
     </g>
     <g id="text_8">
      <!-- 150 -->
      <g transform="translate(48.776687 268.882959) scale(0.15 -0.15)">
       <defs>
        <path id="DejaVuSans-35" d="M 691 4666 
L 3169 4666 
L 3169 4134 
L 1269 4134 
L 1269 2991 
Q 1406 3038 1543 3061 
Q 1681 3084 1819 3084 
Q 2600 3084 3056 2656 
Q 3513 2228 3513 1497 
Q 3513 744 3044 326 
Q 2575 -91 1722 -91 
Q 1428 -91 1123 -41 
Q 819 9 494 109 
L 494 744 
Q 775 591 1075 516 
Q 1375 441 1709 441 
Q 2250 441 2565 725 
Q 2881 1009 2881 1497 
Q 2881 1984 2565 2268 
Q 2250 2553 1709 2553 
Q 1456 2553 1204 2497 
Q 953 2441 691 2322 
L 691 4666 
z
" transform="scale(0.015625)"/>
       </defs>
       <use xlink:href="#DejaVuSans-31"/>
       <use xlink:href="#DejaVuSans-35" transform="translate(63.623047 0)"/>
       <use xlink:href="#DejaVuSans-30" transform="translate(127.246094 0)"/>
      </g>
     </g>
    </g>
    <g id="ytick_3">
     <g id="line2d_8">
      <g>
       <use xlink:href="#mc069857db0" x="84.407937" y="203.017509" style="stroke: #000000; stroke-width: 0.8"/>
      </g>
     </g>
     <g id="text_9">
      <!-- 200 -->
      <g transform="translate(48.776687 208.716337) scale(0.15 -0.15)">
       <use xlink:href="#DejaVuSans-32"/>
       <use xlink:href="#DejaVuSans-30" transform="translate(63.623047 0)"/>
       <use xlink:href="#DejaVuSans-30" transform="translate(127.246094 0)"/>
      </g>
     </g>
    </g>
    <g id="ytick_4">
     <g id="line2d_9">
      <g>
       <use xlink:href="#mc069857db0" x="84.407937" y="142.850887" style="stroke: #000000; stroke-width: 0.8"/>
      </g>
     </g>
     <g id="text_10">
      <!-- 250 -->
      <g transform="translate(48.776687 148.549715) scale(0.15 -0.15)">
       <use xlink:href="#DejaVuSans-32"/>
       <use xlink:href="#DejaVuSans-35" transform="translate(63.623047 0)"/>
       <use xlink:href="#DejaVuSans-30" transform="translate(127.246094 0)"/>
      </g>
     </g>
    </g>
    <g id="text_11">
     <!-- diuresis [ml/hr] -->
     <g transform="translate(41.03325 308.931094) rotate(-90) scale(0.18 -0.18)">
      <defs>
       <path id="DejaVuSans-Bold-64" d="M 2919 2988 
L 2919 4863 
L 4044 4863 
L 4044 0 
L 2919 0 
L 2919 506 
Q 2688 197 2409 53 
Q 2131 -91 1766 -91 
Q 1119 -91 703 423 
Q 288 938 288 1747 
Q 288 2556 703 3070 
Q 1119 3584 1766 3584 
Q 2128 3584 2408 3439 
Q 2688 3294 2919 2988 
z
M 2181 722 
Q 2541 722 2730 984 
Q 2919 1247 2919 1747 
Q 2919 2247 2730 2509 
Q 2541 2772 2181 2772 
Q 1825 2772 1636 2509 
Q 1447 2247 1447 1747 
Q 1447 1247 1636 984 
Q 1825 722 2181 722 
z
" transform="scale(0.015625)"/>
       <path id="DejaVuSans-Bold-73" d="M 3272 3391 
L 3272 2541 
Q 2913 2691 2578 2766 
Q 2244 2841 1947 2841 
Q 1628 2841 1473 2761 
Q 1319 2681 1319 2516 
Q 1319 2381 1436 2309 
Q 1553 2238 1856 2203 
L 2053 2175 
Q 2913 2066 3209 1816 
Q 3506 1566 3506 1031 
Q 3506 472 3093 190 
Q 2681 -91 1863 -91 
Q 1516 -91 1145 -36 
Q 775 19 384 128 
L 384 978 
Q 719 816 1070 734 
Q 1422 653 1784 653 
Q 2113 653 2278 743 
Q 2444 834 2444 1013 
Q 2444 1163 2330 1236 
Q 2216 1309 1875 1350 
L 1678 1375 
Q 931 1469 631 1722 
Q 331 1975 331 2491 
Q 331 3047 712 3315 
Q 1094 3584 1881 3584 
Q 2191 3584 2531 3537 
Q 2872 3491 3272 3391 
z
" transform="scale(0.015625)"/>
       <path id="DejaVuSans-Bold-68" d="M 4056 2131 
L 4056 0 
L 2931 0 
L 2931 347 
L 2931 1625 
Q 2931 2084 2911 2256 
Q 2891 2428 2841 2509 
Q 2775 2619 2662 2680 
Q 2550 2741 2406 2741 
Q 2056 2741 1856 2470 
Q 1656 2200 1656 1722 
L 1656 0 
L 538 0 
L 538 4863 
L 1656 4863 
L 1656 2988 
Q 1909 3294 2193 3439 
Q 2478 3584 2822 3584 
Q 3428 3584 3742 3212 
Q 4056 2841 4056 2131 
z
" transform="scale(0.015625)"/>
      </defs>
      <use xlink:href="#DejaVuSans-Bold-64"/>
      <use xlink:href="#DejaVuSans-Bold-69" transform="translate(71.582031 0)"/>
      <use xlink:href="#DejaVuSans-Bold-75" transform="translate(105.859375 0)"/>
      <use xlink:href="#DejaVuSans-Bold-72" transform="translate(177.050781 0)"/>
      <use xlink:href="#DejaVuSans-Bold-65" transform="translate(226.367188 0)"/>
      <use xlink:href="#DejaVuSans-Bold-73" transform="translate(294.189453 0)"/>
      <use xlink:href="#DejaVuSans-Bold-69" transform="translate(353.710938 0)"/>
      <use xlink:href="#DejaVuSans-Bold-73" transform="translate(387.988281 0)"/>
      <use xlink:href="#DejaVuSans-Bold-20" transform="translate(447.509766 0)"/>
      <use xlink:href="#DejaVuSans-Bold-5b" transform="translate(482.324219 0)"/>
      <use xlink:href="#DejaVuSans-Bold-6d" transform="translate(528.027344 0)"/>
      <use xlink:href="#DejaVuSans-Bold-6c" transform="translate(632.226562 0)"/>
      <use xlink:href="#DejaVuSans-Bold-2f" transform="translate(666.503906 0)"/>
      <use xlink:href="#DejaVuSans-Bold-68" transform="translate(703.027344 0)"/>
      <use xlink:href="#DejaVuSans-Bold-72" transform="translate(774.21875 0)"/>
      <use xlink:href="#DejaVuSans-Bold-5d" transform="translate(823.535156 0)"/>
     </g>
    </g>
   </g>
   <g id="line2d_10">
    <path d="M 102.162483 328.364638 
L 194.225739 280.082429 
L 243.968098 254.23639 
L 269.281563 241.360686 
L 278.709117 236.880979 
L 279.707938 236.592845 
L 279.079749 237.153546 
L 274.65342 239.913381 
L 264.060154 246.050546 
L 244.081049 257.29757 
L 215.533039 273.101967 
L 183.47659 290.603385 
L 151.503681 307.812343 
L 123.59599 322.588593 
L 110.698162 329.209444 
L 106.326612 331.24081 
L 104.311917 331.9584 
L 103.249212 332.126959 
L 102.693078 332.014477 
L 102.396445 331.738562 
L 102.392034 331.731311 
L 102.392034 331.731311 
" clip-path="url(#p4c0d3f51b8)" style="fill: none; stroke: #1f77b4; stroke-width: 2; stroke-linecap: square"/>
   </g>
   <g id="line2d_11">
    <path d="M 202.861807 125.7 
L 315.938439 154.065704 
L 242.591435 268.921241 
L 203.625839 190.369674 
L 144.031398 268.326879 
L 122.638522 330.165775 
" clip-path="url(#p4c0d3f51b8)" style="fill: none; stroke-dasharray: 3.7,1.6; stroke-dashoffset: 0; stroke: #1f77b4"/>
    <defs>
     <path id="m0dcb97bd02" d="M -3 3 
L 3 3 
L 3 -3 
L -3 -3 
z
" style="stroke: #000000; stroke-linejoin: miter"/>
    </defs>
    <g clip-path="url(#p4c0d3f51b8)">
     <use xlink:href="#m0dcb97bd02" x="202.861807" y="125.7" style="fill: #1f77b4; stroke: #000000; stroke-linejoin: miter"/>
     <use xlink:href="#m0dcb97bd02" x="315.938439" y="154.065704" style="fill: #1f77b4; stroke: #000000; stroke-linejoin: miter"/>
     <use xlink:href="#m0dcb97bd02" x="242.591435" y="268.921241" style="fill: #1f77b4; stroke: #000000; stroke-linejoin: miter"/>
     <use xlink:href="#m0dcb97bd02" x="203.625839" y="190.369674" style="fill: #1f77b4; stroke: #000000; stroke-linejoin: miter"/>
     <use xlink:href="#m0dcb97bd02" x="144.031398" y="268.326879" style="fill: #1f77b4; stroke: #000000; stroke-linejoin: miter"/>
     <use xlink:href="#m0dcb97bd02" x="122.638522" y="330.165775" style="fill: #1f77b4; stroke: #000000; stroke-linejoin: miter"/>
    </g>
   </g>
   <g id="line2d_12">
    <path d="M 102.162483 328.364638 
L 216.574765 268.307312 
L 286.288995 231.875309 
L 343.041744 202.409988 
L 385.773712 180.45 
L 416.126359 165.09754 
L 436.400643 155.105491 
L 448.813196 149.275758 
L 455.25575 146.588302 
L 457.253392 146.223093 
L 455.997015 147.54196 
L 452.398043 150.058438 
L 447.144357 153.407063 
L 433.59436 161.586495 
L 418.043833 170.666852 
L 393.913913 184.460358 
L 363.181247 201.715651 
L 328.903594 220.657501 
L 293.925788 239.696343 
L 260.432538 257.663142 
L 226.628283 275.53576 
L 193.674942 292.700754 
L 163.040389 308.411699 
L 137.172583 321.43746 
L 121.446204 329.128643 
L 113.650493 332.717966 
L 109.373238 334.46386 
L 106.727202 335.322945 
L 105.009818 335.663669 
L 103.905845 335.670318 
L 103.213608 335.467416 
L 102.761778 335.11181 
L 102.621586 334.918252 
L 102.621586 334.918252 
" clip-path="url(#p4c0d3f51b8)" style="fill: none; stroke: #ff7f0e; stroke-width: 2; stroke-linecap: square"/>
   </g>
   <g id="line2d_13">
    <path d="M 339.623409 239.120001 
L 427.487007 189.306873 
L 321.286658 218.339976 
L 244.883528 247.342856 
L 167.716368 280.941973 
L 136.391085 323.491788 
" clip-path="url(#p4c0d3f51b8)" style="fill: none; stroke-dasharray: 3.7,1.6; stroke-dashoffset: 0; stroke: #ff7f0e"/>
    <defs>
     <path id="mfedcffb224" d="M -3 3 
L 3 3 
L 3 -3 
L -3 -3 
z
" style="stroke: #000000; stroke-linejoin: miter"/>
    </defs>
    <g clip-path="url(#p4c0d3f51b8)">
     <use xlink:href="#mfedcffb224" x="339.623409" y="239.120001" style="fill: #ff7f0e; stroke: #000000; stroke-linejoin: miter"/>
     <use xlink:href="#mfedcffb224" x="427.487007" y="189.306873" style="fill: #ff7f0e; stroke: #000000; stroke-linejoin: miter"/>
     <use xlink:href="#mfedcffb224" x="321.286658" y="218.339976" style="fill: #ff7f0e; stroke: #000000; stroke-linejoin: miter"/>
     <use xlink:href="#mfedcffb224" x="244.883528" y="247.342856" style="fill: #ff7f0e; stroke: #000000; stroke-linejoin: miter"/>
     <use xlink:href="#mfedcffb224" x="167.716368" y="280.941973" style="fill: #ff7f0e; stroke: #000000; stroke-linejoin: miter"/>
     <use xlink:href="#mfedcffb224" x="136.391085" y="323.491788" style="fill: #ff7f0e; stroke: #000000; stroke-linejoin: miter"/>
    </g>
   </g>
   <g id="patch_3">
    <path d="M 84.407937 346.2 
L 84.407937 115.2 
" style="fill: none; stroke: #000000; stroke-width: 0.8; stroke-linejoin: miter; stroke-linecap: square"/>
   </g>
   <g id="patch_4">
    <path d="M 475.007938 346.2 
L 475.007938 115.2 
" style="fill: none; stroke: #000000; stroke-width: 0.8; stroke-linejoin: miter; stroke-linecap: square"/>
   </g>
   <g id="patch_5">
    <path d="M 84.407937 346.2 
L 475.007938 346.2 
" style="fill: none; stroke: #000000; stroke-width: 0.8; stroke-linejoin: miter; stroke-linecap: square"/>
   </g>
   <g id="patch_6">
    <path d="M 84.407937 115.2 
L 475.007938 115.2 
" style="fill: none; stroke: #000000; stroke-width: 0.8; stroke-linejoin: miter; stroke-linecap: square"/>
   </g>
   <g id="legend_1">
    <g id="patch_7">
     <path d="M 331.768875 341.2 
L 468.007938 341.2 
Q 470.007938 341.2 470.007938 339.2 
L 470.007938 281.4875 
Q 470.007938 279.4875 468.007938 279.4875 
L 331.768875 279.4875 
Q 329.768875 279.4875 329.768875 281.4875 
L 329.768875 339.2 
Q 329.768875 341.2 331.768875 341.2 
z
" style="fill: #ffffff; opacity: 0.8; stroke: #cccccc; stroke-linejoin: miter"/>
    </g>
    <g id="line2d_14">
     <path d="M 333.768875 287.585938 
L 353.768875 287.585938 
" style="fill: none; stroke: #1f77b4; stroke-width: 2; stroke-linecap: square"/>
    </g>
    <g id="line2d_15"/>
    <g id="text_12">
     <!-- Sim 50 -->
     <g transform="translate(361.768875 291.085938) scale(0.1 -0.1)">
      <defs>
       <path id="DejaVuSans-53" d="M 3425 4513 
L 3425 3897 
Q 3066 4069 2747 4153 
Q 2428 4238 2131 4238 
Q 1616 4238 1336 4038 
Q 1056 3838 1056 3469 
Q 1056 3159 1242 3001 
Q 1428 2844 1947 2747 
L 2328 2669 
Q 3034 2534 3370 2195 
Q 3706 1856 3706 1288 
Q 3706 609 3251 259 
Q 2797 -91 1919 -91 
Q 1588 -91 1214 -16 
Q 841 59 441 206 
L 441 856 
Q 825 641 1194 531 
Q 1563 422 1919 422 
Q 2459 422 2753 634 
Q 3047 847 3047 1241 
Q 3047 1584 2836 1778 
Q 2625 1972 2144 2069 
L 1759 2144 
Q 1053 2284 737 2584 
Q 422 2884 422 3419 
Q 422 4038 858 4394 
Q 1294 4750 2059 4750 
Q 2388 4750 2728 4690 
Q 3069 4631 3425 4513 
z
" transform="scale(0.015625)"/>
       <path id="DejaVuSans-69" d="M 603 3500 
L 1178 3500 
L 1178 0 
L 603 0 
L 603 3500 
z
M 603 4863 
L 1178 4863 
L 1178 4134 
L 603 4134 
L 603 4863 
z
" transform="scale(0.015625)"/>
       <path id="DejaVuSans-6d" d="M 3328 2828 
Q 3544 3216 3844 3400 
Q 4144 3584 4550 3584 
Q 5097 3584 5394 3201 
Q 5691 2819 5691 2113 
L 5691 0 
L 5113 0 
L 5113 2094 
Q 5113 2597 4934 2840 
Q 4756 3084 4391 3084 
Q 3944 3084 3684 2787 
Q 3425 2491 3425 1978 
L 3425 0 
L 2847 0 
L 2847 2094 
Q 2847 2600 2669 2842 
Q 2491 3084 2119 3084 
Q 1678 3084 1418 2786 
Q 1159 2488 1159 1978 
L 1159 0 
L 581 0 
L 581 3500 
L 1159 3500 
L 1159 2956 
Q 1356 3278 1631 3431 
Q 1906 3584 2284 3584 
Q 2666 3584 2933 3390 
Q 3200 3197 3328 2828 
z
" transform="scale(0.015625)"/>
       <path id="DejaVuSans-20" transform="scale(0.015625)"/>
      </defs>
      <use xlink:href="#DejaVuSans-53"/>
      <use xlink:href="#DejaVuSans-69" transform="translate(63.476562 0)"/>
      <use xlink:href="#DejaVuSans-6d" transform="translate(91.259766 0)"/>
      <use xlink:href="#DejaVuSans-20" transform="translate(188.671875 0)"/>
      <use xlink:href="#DejaVuSans-35" transform="translate(220.458984 0)"/>
      <use xlink:href="#DejaVuSans-30" transform="translate(284.082031 0)"/>
     </g>
    </g>
    <g id="line2d_16">
     <path d="M 333.768875 302.264063 
L 353.768875 302.264063 
" style="fill: none; stroke-dasharray: 3.7,1.6; stroke-dashoffset: 0; stroke: #1f77b4"/>
    </g>
    <g id="line2d_17">
     <g>
      <use xlink:href="#m0dcb97bd02" x="343.768875" y="302.264063" style="fill: #1f77b4; stroke: #000000; stroke-linejoin: miter"/>
     </g>
    </g>
    <g id="text_13">
     <!-- HCTZ 50mg (n=10) -->
     <g transform="translate(361.768875 305.764063) scale(0.1 -0.1)">
      <defs>
       <path id="DejaVuSans-48" d="M 628 4666 
L 1259 4666 
L 1259 2753 
L 3553 2753 
L 3553 4666 
L 4184 4666 
L 4184 0 
L 3553 0 
L 3553 2222 
L 1259 2222 
L 1259 0 
L 628 0 
L 628 4666 
z
" transform="scale(0.015625)"/>
       <path id="DejaVuSans-43" d="M 4122 4306 
L 4122 3641 
Q 3803 3938 3442 4084 
Q 3081 4231 2675 4231 
Q 1875 4231 1450 3742 
Q 1025 3253 1025 2328 
Q 1025 1406 1450 917 
Q 1875 428 2675 428 
Q 3081 428 3442 575 
Q 3803 722 4122 1019 
L 4122 359 
Q 3791 134 3420 21 
Q 3050 -91 2638 -91 
Q 1578 -91 968 557 
Q 359 1206 359 2328 
Q 359 3453 968 4101 
Q 1578 4750 2638 4750 
Q 3056 4750 3426 4639 
Q 3797 4528 4122 4306 
z
" transform="scale(0.015625)"/>
       <path id="DejaVuSans-54" d="M -19 4666 
L 3928 4666 
L 3928 4134 
L 2272 4134 
L 2272 0 
L 1638 0 
L 1638 4134 
L -19 4134 
L -19 4666 
z
" transform="scale(0.015625)"/>
       <path id="DejaVuSans-5a" d="M 359 4666 
L 4025 4666 
L 4025 4184 
L 1075 531 
L 4097 531 
L 4097 0 
L 288 0 
L 288 481 
L 3238 4134 
L 359 4134 
L 359 4666 
z
" transform="scale(0.015625)"/>
       <path id="DejaVuSans-67" d="M 2906 1791 
Q 2906 2416 2648 2759 
Q 2391 3103 1925 3103 
Q 1463 3103 1205 2759 
Q 947 2416 947 1791 
Q 947 1169 1205 825 
Q 1463 481 1925 481 
Q 2391 481 2648 825 
Q 2906 1169 2906 1791 
z
M 3481 434 
Q 3481 -459 3084 -895 
Q 2688 -1331 1869 -1331 
Q 1566 -1331 1297 -1286 
Q 1028 -1241 775 -1147 
L 775 -588 
Q 1028 -725 1275 -790 
Q 1522 -856 1778 -856 
Q 2344 -856 2625 -561 
Q 2906 -266 2906 331 
L 2906 616 
Q 2728 306 2450 153 
Q 2172 0 1784 0 
Q 1141 0 747 490 
Q 353 981 353 1791 
Q 353 2603 747 3093 
Q 1141 3584 1784 3584 
Q 2172 3584 2450 3431 
Q 2728 3278 2906 2969 
L 2906 3500 
L 3481 3500 
L 3481 434 
z
" transform="scale(0.015625)"/>
       <path id="DejaVuSans-28" d="M 1984 4856 
Q 1566 4138 1362 3434 
Q 1159 2731 1159 2009 
Q 1159 1288 1364 580 
Q 1569 -128 1984 -844 
L 1484 -844 
Q 1016 -109 783 600 
Q 550 1309 550 2009 
Q 550 2706 781 3412 
Q 1013 4119 1484 4856 
L 1984 4856 
z
" transform="scale(0.015625)"/>
       <path id="DejaVuSans-6e" d="M 3513 2113 
L 3513 0 
L 2938 0 
L 2938 2094 
Q 2938 2591 2744 2837 
Q 2550 3084 2163 3084 
Q 1697 3084 1428 2787 
Q 1159 2491 1159 1978 
L 1159 0 
L 581 0 
L 581 3500 
L 1159 3500 
L 1159 2956 
Q 1366 3272 1645 3428 
Q 1925 3584 2291 3584 
Q 2894 3584 3203 3211 
Q 3513 2838 3513 2113 
z
" transform="scale(0.015625)"/>
       <path id="DejaVuSans-3d" d="M 678 2906 
L 4684 2906 
L 4684 2381 
L 678 2381 
L 678 2906 
z
M 678 1631 
L 4684 1631 
L 4684 1100 
L 678 1100 
L 678 1631 
z
" transform="scale(0.015625)"/>
       <path id="DejaVuSans-29" d="M 513 4856 
L 1013 4856 
Q 1481 4119 1714 3412 
Q 1947 2706 1947 2009 
Q 1947 1309 1714 600 
Q 1481 -109 1013 -844 
L 513 -844 
Q 928 -128 1133 580 
Q 1338 1288 1338 2009 
Q 1338 2731 1133 3434 
Q 928 4138 513 4856 
z
" transform="scale(0.015625)"/>
      </defs>
      <use xlink:href="#DejaVuSans-48"/>
      <use xlink:href="#DejaVuSans-43" transform="translate(75.195312 0)"/>
      <use xlink:href="#DejaVuSans-54" transform="translate(145.019531 0)"/>
      <use xlink:href="#DejaVuSans-5a" transform="translate(206.103516 0)"/>
      <use xlink:href="#DejaVuSans-20" transform="translate(274.609375 0)"/>
      <use xlink:href="#DejaVuSans-35" transform="translate(306.396484 0)"/>
      <use xlink:href="#DejaVuSans-30" transform="translate(370.019531 0)"/>
      <use xlink:href="#DejaVuSans-6d" transform="translate(433.642578 0)"/>
      <use xlink:href="#DejaVuSans-67" transform="translate(531.054688 0)"/>
      <use xlink:href="#DejaVuSans-20" transform="translate(594.53125 0)"/>
      <use xlink:href="#DejaVuSans-28" transform="translate(626.318359 0)"/>
      <use xlink:href="#DejaVuSans-6e" transform="translate(665.332031 0)"/>
      <use xlink:href="#DejaVuSans-3d" transform="translate(728.710938 0)"/>
      <use xlink:href="#DejaVuSans-31" transform="translate(812.5 0)"/>
      <use xlink:href="#DejaVuSans-30" transform="translate(876.123047 0)"/>
      <use xlink:href="#DejaVuSans-29" transform="translate(939.746094 0)"/>
     </g>
    </g>
    <g id="line2d_18">
     <path d="M 333.768875 316.942188 
L 353.768875 316.942188 
" style="fill: none; stroke: #ff7f0e; stroke-width: 2; stroke-linecap: square"/>
    </g>
    <g id="line2d_19"/>
    <g id="text_14">
     <!-- Sim 100 -->
     <g transform="translate(361.768875 320.442188) scale(0.1 -0.1)">
      <use xlink:href="#DejaVuSans-53"/>
      <use xlink:href="#DejaVuSans-69" transform="translate(63.476562 0)"/>
      <use xlink:href="#DejaVuSans-6d" transform="translate(91.259766 0)"/>
      <use xlink:href="#DejaVuSans-20" transform="translate(188.671875 0)"/>
      <use xlink:href="#DejaVuSans-31" transform="translate(220.458984 0)"/>
      <use xlink:href="#DejaVuSans-30" transform="translate(284.082031 0)"/>
      <use xlink:href="#DejaVuSans-30" transform="translate(347.705078 0)"/>
     </g>
    </g>
    <g id="line2d_20">
     <path d="M 333.768875 331.620312 
L 353.768875 331.620312 
" style="fill: none; stroke-dasharray: 3.7,1.6; stroke-dashoffset: 0; stroke: #ff7f0e"/>
    </g>
    <g id="line2d_21">
     <g>
      <use xlink:href="#mfedcffb224" x="343.768875" y="331.620312" style="fill: #ff7f0e; stroke: #000000; stroke-linejoin: miter"/>
     </g>
    </g>
    <g id="text_15">
     <!-- HCTZ 100mg (n=10) -->
     <g transform="translate(361.768875 335.120312) scale(0.1 -0.1)">
      <use xlink:href="#DejaVuSans-48"/>
      <use xlink:href="#DejaVuSans-43" transform="translate(75.195312 0)"/>
      <use xlink:href="#DejaVuSans-54" transform="translate(145.019531 0)"/>
      <use xlink:href="#DejaVuSans-5a" transform="translate(206.103516 0)"/>
      <use xlink:href="#DejaVuSans-20" transform="translate(274.609375 0)"/>
      <use xlink:href="#DejaVuSans-31" transform="translate(306.396484 0)"/>
      <use xlink:href="#DejaVuSans-30" transform="translate(370.019531 0)"/>
      <use xlink:href="#DejaVuSans-30" transform="translate(433.642578 0)"/>
      <use xlink:href="#DejaVuSans-6d" transform="translate(497.265625 0)"/>
      <use xlink:href="#DejaVuSans-67" transform="translate(594.677734 0)"/>
      <use xlink:href="#DejaVuSans-20" transform="translate(658.154297 0)"/>
      <use xlink:href="#DejaVuSans-28" transform="translate(689.941406 0)"/>
      <use xlink:href="#DejaVuSans-6e" transform="translate(728.955078 0)"/>
      <use xlink:href="#DejaVuSans-3d" transform="translate(792.333984 0)"/>
      <use xlink:href="#DejaVuSans-31" transform="translate(876.123047 0)"/>
      <use xlink:href="#DejaVuSans-30" transform="translate(939.746094 0)"/>
      <use xlink:href="#DejaVuSans-29" transform="translate(1003.369141 0)"/>
     </g>
    </g>
   </g>
  </g>
  <g id="axes_2">
   <g id="patch_8">
    <path d="M 84.407937 646.5 
L 475.007938 646.5 
L 475.007938 415.5 
L 84.407937 415.5 
z
" style="fill: #ffffff"/>
   </g>
   <g id="matplotlib.axis_3">
    <g id="xtick_6">
     <g id="line2d_22">
      <g>
       <use xlink:href="#m56a312e036" x="102.162483" y="646.5" style="stroke: #000000; stroke-width: 0.8"/>
      </g>
     </g>
     <g id="text_16">
      <!-- 0 -->
      <g transform="translate(97.390608 664.897656) scale(0.15 -0.15)">
       <use xlink:href="#DejaVuSans-30"/>
      </g>
     </g>
    </g>
    <g id="xtick_7">
     <g id="line2d_23">
      <g>
       <use xlink:href="#m56a312e036" x="188.069198" y="646.5" style="stroke: #000000; stroke-width: 0.8"/>
      </g>
     </g>
     <g id="text_17">
      <!-- 100 -->
      <g transform="translate(173.753573 664.897656) scale(0.15 -0.15)">
       <use xlink:href="#DejaVuSans-31"/>
       <use xlink:href="#DejaVuSans-30" transform="translate(63.623047 0)"/>
       <use xlink:href="#DejaVuSans-30" transform="translate(127.246094 0)"/>
      </g>
     </g>
    </g>
    <g id="xtick_8">
     <g id="line2d_24">
      <g>
       <use xlink:href="#m56a312e036" x="273.975912" y="646.5" style="stroke: #000000; stroke-width: 0.8"/>
      </g>
     </g>
     <g id="text_18">
      <!-- 200 -->
      <g transform="translate(259.660287 664.897656) scale(0.15 -0.15)">
       <use xlink:href="#DejaVuSans-32"/>
       <use xlink:href="#DejaVuSans-30" transform="translate(63.623047 0)"/>
       <use xlink:href="#DejaVuSans-30" transform="translate(127.246094 0)"/>
      </g>
     </g>
    </g>
    <g id="xtick_9">
     <g id="line2d_25">
      <g>
       <use xlink:href="#m56a312e036" x="359.882627" y="646.5" style="stroke: #000000; stroke-width: 0.8"/>
      </g>
     </g>
     <g id="text_19">
      <!-- 300 -->
      <g transform="translate(345.567002 664.897656) scale(0.15 -0.15)">
       <use xlink:href="#DejaVuSans-33"/>
       <use xlink:href="#DejaVuSans-30" transform="translate(63.623047 0)"/>
       <use xlink:href="#DejaVuSans-30" transform="translate(127.246094 0)"/>
      </g>
     </g>
    </g>
    <g id="xtick_10">
     <g id="line2d_26">
      <g>
       <use xlink:href="#m56a312e036" x="445.789341" y="646.5" style="stroke: #000000; stroke-width: 0.8"/>
      </g>
     </g>
     <g id="text_20">
      <!-- 400 -->
      <g transform="translate(431.473716 664.897656) scale(0.15 -0.15)">
       <use xlink:href="#DejaVuSans-34"/>
       <use xlink:href="#DejaVuSans-30" transform="translate(63.623047 0)"/>
       <use xlink:href="#DejaVuSans-30" transform="translate(127.246094 0)"/>
      </g>
     </g>
    </g>
    <g id="text_21">
     <!-- HCTZ excretion -->
     <g transform="translate(202.007 685.694375) scale(0.18 -0.18)">
      <use xlink:href="#DejaVuSans-Bold-48"/>
      <use xlink:href="#DejaVuSans-Bold-43" transform="translate(83.691406 0)"/>
      <use xlink:href="#DejaVuSans-Bold-54" transform="translate(157.080078 0)"/>
      <use xlink:href="#DejaVuSans-Bold-5a" transform="translate(225.292969 0)"/>
      <use xlink:href="#DejaVuSans-Bold-20" transform="translate(297.802734 0)"/>
      <use xlink:href="#DejaVuSans-Bold-65" transform="translate(332.617188 0)"/>
      <use xlink:href="#DejaVuSans-Bold-78" transform="translate(400.439453 0)"/>
      <use xlink:href="#DejaVuSans-Bold-63" transform="translate(464.941406 0)"/>
      <use xlink:href="#DejaVuSans-Bold-72" transform="translate(524.21875 0)"/>
      <use xlink:href="#DejaVuSans-Bold-65" transform="translate(573.535156 0)"/>
      <use xlink:href="#DejaVuSans-Bold-74" transform="translate(641.357422 0)"/>
      <use xlink:href="#DejaVuSans-Bold-69" transform="translate(689.160156 0)"/>
      <use xlink:href="#DejaVuSans-Bold-6f" transform="translate(723.4375 0)"/>
      <use xlink:href="#DejaVuSans-Bold-6e" transform="translate(792.138672 0)"/>
     </g>
     <!-- urine [nmol/min] -->
     <g transform="translate(194.6945 705.850437) scale(0.18 -0.18)">
      <use xlink:href="#DejaVuSans-Bold-75"/>
      <use xlink:href="#DejaVuSans-Bold-72" transform="translate(71.191406 0)"/>
      <use xlink:href="#DejaVuSans-Bold-69" transform="translate(120.507812 0)"/>
      <use xlink:href="#DejaVuSans-Bold-6e" transform="translate(154.785156 0)"/>
      <use xlink:href="#DejaVuSans-Bold-65" transform="translate(225.976562 0)"/>
      <use xlink:href="#DejaVuSans-Bold-20" transform="translate(293.798828 0)"/>
      <use xlink:href="#DejaVuSans-Bold-5b" transform="translate(328.613281 0)"/>
      <use xlink:href="#DejaVuSans-Bold-6e" transform="translate(374.316406 0)"/>
      <use xlink:href="#DejaVuSans-Bold-6d" transform="translate(445.507812 0)"/>
      <use xlink:href="#DejaVuSans-Bold-6f" transform="translate(549.707031 0)"/>
      <use xlink:href="#DejaVuSans-Bold-6c" transform="translate(618.408203 0)"/>
      <use xlink:href="#DejaVuSans-Bold-2f" transform="translate(652.685547 0)"/>
      <use xlink:href="#DejaVuSans-Bold-6d" transform="translate(689.208984 0)"/>
      <use xlink:href="#DejaVuSans-Bold-69" transform="translate(793.408203 0)"/>
      <use xlink:href="#DejaVuSans-Bold-6e" transform="translate(827.685547 0)"/>
      <use xlink:href="#DejaVuSans-Bold-5d" transform="translate(898.876953 0)"/>
     </g>
    </g>
   </g>
   <g id="matplotlib.axis_4">
    <g id="ytick_5">
     <g id="line2d_27">
      <g>
       <use xlink:href="#mc069857db0" x="84.407937" y="641.3125" style="stroke: #000000; stroke-width: 0.8"/>
      </g>
     </g>
     <g id="text_22">
      <!-- 5 -->
      <g transform="translate(67.864187 647.011328) scale(0.15 -0.15)">
       <use xlink:href="#DejaVuSans-35"/>
      </g>
     </g>
    </g>
    <g id="ytick_6">
     <g id="line2d_28">
      <g>
       <use xlink:href="#mc069857db0" x="84.407937" y="601" style="stroke: #000000; stroke-width: 0.8"/>
      </g>
     </g>
     <g id="text_23">
      <!-- 10 -->
      <g transform="translate(58.320437 606.698828) scale(0.15 -0.15)">
       <use xlink:href="#DejaVuSans-31"/>
       <use xlink:href="#DejaVuSans-30" transform="translate(63.623047 0)"/>
      </g>
     </g>
    </g>
    <g id="ytick_7">
     <g id="line2d_29">
      <g>
       <use xlink:href="#mc069857db0" x="84.407937" y="560.6875" style="stroke: #000000; stroke-width: 0.8"/>
      </g>
     </g>
     <g id="text_24">
      <!-- 15 -->
      <g transform="translate(58.320437 566.386328) scale(0.15 -0.15)">
       <use xlink:href="#DejaVuSans-31"/>
       <use xlink:href="#DejaVuSans-35" transform="translate(63.623047 0)"/>
      </g>
     </g>
    </g>
    <g id="ytick_8">
     <g id="line2d_30">
      <g>
       <use xlink:href="#mc069857db0" x="84.407937" y="520.375" style="stroke: #000000; stroke-width: 0.8"/>
      </g>
     </g>
     <g id="text_25">
      <!-- 20 -->
      <g transform="translate(58.320437 526.073828) scale(0.15 -0.15)">
       <use xlink:href="#DejaVuSans-32"/>
       <use xlink:href="#DejaVuSans-30" transform="translate(63.623047 0)"/>
      </g>
     </g>
    </g>
    <g id="ytick_9">
     <g id="line2d_31">
      <g>
       <use xlink:href="#mc069857db0" x="84.407937" y="480.0625" style="stroke: #000000; stroke-width: 0.8"/>
      </g>
     </g>
     <g id="text_26">
      <!-- 25 -->
      <g transform="translate(58.320437 485.761328) scale(0.15 -0.15)">
       <use xlink:href="#DejaVuSans-32"/>
       <use xlink:href="#DejaVuSans-35" transform="translate(63.623047 0)"/>
      </g>
     </g>
    </g>
    <g id="ytick_10">
     <g id="line2d_32">
      <g>
       <use xlink:href="#mc069857db0" x="84.407937" y="439.75" style="stroke: #000000; stroke-width: 0.8"/>
      </g>
     </g>
     <g id="text_27">
      <!-- 30 -->
      <g transform="translate(58.320437 445.448828) scale(0.15 -0.15)">
       <use xlink:href="#DejaVuSans-33"/>
       <use xlink:href="#DejaVuSans-30" transform="translate(63.623047 0)"/>
      </g>
     </g>
    </g>
    <g id="text_28">
     <!-- Sodium excretion -->
     <g transform="translate(30.420937 619.875) rotate(-90) scale(0.18 -0.18)">
      <defs>
       <path id="DejaVuSans-Bold-53" d="M 3834 4519 
L 3834 3531 
Q 3450 3703 3084 3790 
Q 2719 3878 2394 3878 
Q 1963 3878 1756 3759 
Q 1550 3641 1550 3391 
Q 1550 3203 1689 3098 
Q 1828 2994 2194 2919 
L 2706 2816 
Q 3484 2659 3812 2340 
Q 4141 2022 4141 1434 
Q 4141 663 3683 286 
Q 3225 -91 2284 -91 
Q 1841 -91 1394 -6 
Q 947 78 500 244 
L 500 1259 
Q 947 1022 1364 901 
Q 1781 781 2169 781 
Q 2563 781 2772 912 
Q 2981 1044 2981 1288 
Q 2981 1506 2839 1625 
Q 2697 1744 2272 1838 
L 1806 1941 
Q 1106 2091 782 2419 
Q 459 2747 459 3303 
Q 459 4000 909 4375 
Q 1359 4750 2203 4750 
Q 2588 4750 2994 4692 
Q 3400 4634 3834 4519 
z
" transform="scale(0.015625)"/>
      </defs>
      <use xlink:href="#DejaVuSans-Bold-53"/>
      <use xlink:href="#DejaVuSans-Bold-6f" transform="translate(72.021484 0)"/>
      <use xlink:href="#DejaVuSans-Bold-64" transform="translate(140.722656 0)"/>
      <use xlink:href="#DejaVuSans-Bold-69" transform="translate(212.304688 0)"/>
      <use xlink:href="#DejaVuSans-Bold-75" transform="translate(246.582031 0)"/>
      <use xlink:href="#DejaVuSans-Bold-6d" transform="translate(317.773438 0)"/>
      <use xlink:href="#DejaVuSans-Bold-20" transform="translate(421.972656 0)"/>
      <use xlink:href="#DejaVuSans-Bold-65" transform="translate(456.787109 0)"/>
      <use xlink:href="#DejaVuSans-Bold-78" transform="translate(524.609375 0)"/>
      <use xlink:href="#DejaVuSans-Bold-63" transform="translate(589.111328 0)"/>
      <use xlink:href="#DejaVuSans-Bold-72" transform="translate(648.388672 0)"/>
      <use xlink:href="#DejaVuSans-Bold-65" transform="translate(697.705078 0)"/>
      <use xlink:href="#DejaVuSans-Bold-74" transform="translate(765.527344 0)"/>
      <use xlink:href="#DejaVuSans-Bold-69" transform="translate(813.330078 0)"/>
      <use xlink:href="#DejaVuSans-Bold-6f" transform="translate(847.607422 0)"/>
      <use xlink:href="#DejaVuSans-Bold-6e" transform="translate(916.308594 0)"/>
     </g>
     <!--  [mmole/hr] -->
     <g transform="translate(50.577 590.622188) rotate(-90) scale(0.18 -0.18)">
      <use xlink:href="#DejaVuSans-Bold-20"/>
      <use xlink:href="#DejaVuSans-Bold-5b" transform="translate(34.814453 0)"/>
      <use xlink:href="#DejaVuSans-Bold-6d" transform="translate(80.517578 0)"/>
      <use xlink:href="#DejaVuSans-Bold-6d" transform="translate(184.716797 0)"/>
      <use xlink:href="#DejaVuSans-Bold-6f" transform="translate(288.916016 0)"/>
      <use xlink:href="#DejaVuSans-Bold-6c" transform="translate(357.617188 0)"/>
      <use xlink:href="#DejaVuSans-Bold-65" transform="translate(391.894531 0)"/>
      <use xlink:href="#DejaVuSans-Bold-2f" transform="translate(459.716797 0)"/>
      <use xlink:href="#DejaVuSans-Bold-68" transform="translate(496.240234 0)"/>
      <use xlink:href="#DejaVuSans-Bold-72" transform="translate(567.431641 0)"/>
      <use xlink:href="#DejaVuSans-Bold-5d" transform="translate(616.748047 0)"/>
     </g>
    </g>
   </g>
   <g id="line2d_33">
    <path d="M 102.162483 586.263983 
L 269.281563 516.334671 
L 279.707938 511.896254 
L 277.280263 512.860693 
L 248.038198 524.940463 
L 179.183771 553.634041 
L 131.91292 573.545761 
L 114.082922 581.256853 
L 107.626268 584.259383 
L 104.636578 585.875308 
L 103.068187 586.956131 
L 102.392034 587.649481 
L 102.392034 587.649481 
" clip-path="url(#pe91edb4c62)" style="fill: none; stroke: #1f77b4; stroke-width: 2; stroke-linecap: square"/>
   </g>
   <g id="line2d_34">
    <path d="M 202.861807 534.75 
L 315.938439 426 
L 242.591435 541 
L 203.625839 526.625 
L 144.031398 554.125 
L 122.638522 636 
" clip-path="url(#pe91edb4c62)" style="fill: none; stroke-dasharray: 3.7,1.6; stroke-dashoffset: 0; stroke: #1f77b4"/>
    <g clip-path="url(#pe91edb4c62)">
     <use xlink:href="#m0dcb97bd02" x="202.861807" y="534.75" style="fill: #1f77b4; stroke: #000000; stroke-linejoin: miter"/>
     <use xlink:href="#m0dcb97bd02" x="315.938439" y="426" style="fill: #1f77b4; stroke: #000000; stroke-linejoin: miter"/>
     <use xlink:href="#m0dcb97bd02" x="242.591435" y="541" style="fill: #1f77b4; stroke: #000000; stroke-linejoin: miter"/>
     <use xlink:href="#m0dcb97bd02" x="203.625839" y="526.625" style="fill: #1f77b4; stroke: #000000; stroke-linejoin: miter"/>
     <use xlink:href="#m0dcb97bd02" x="144.031398" y="554.125" style="fill: #1f77b4; stroke: #000000; stroke-linejoin: miter"/>
     <use xlink:href="#m0dcb97bd02" x="122.638522" y="636" style="fill: #1f77b4; stroke: #000000; stroke-linejoin: miter"/>
    </g>
   </g>
   <g id="line2d_35">
    <path d="M 102.162483 586.263983 
L 343.041744 485.535882 
L 436.400643 446.320197 
L 457.253392 437.376675 
L 455.997015 437.832004 
L 440.749681 444.027229 
L 393.913913 463.385636 
L 316.532012 495.632241 
L 236.890227 529.072628 
L 173.863305 555.771086 
L 139.314687 570.621503 
L 122.707083 577.976501 
L 114.097221 582.015214 
L 109.142654 584.57045 
L 105.941775 586.459815 
L 103.939538 587.883928 
L 102.821627 588.932347 
L 102.621586 589.178164 
L 102.621586 589.178164 
" clip-path="url(#pe91edb4c62)" style="fill: none; stroke: #ff7f0e; stroke-width: 2; stroke-linecap: square"/>
   </g>
   <g id="line2d_36">
    <path d="M 339.623409 491 
L 427.487007 461.625 
L 321.286658 530.375 
L 244.883528 534.125 
L 167.716368 570.375 
L 136.391085 621.625 
" clip-path="url(#pe91edb4c62)" style="fill: none; stroke-dasharray: 3.7,1.6; stroke-dashoffset: 0; stroke: #ff7f0e"/>
    <g clip-path="url(#pe91edb4c62)">
     <use xlink:href="#mfedcffb224" x="339.623409" y="491" style="fill: #ff7f0e; stroke: #000000; stroke-linejoin: miter"/>
     <use xlink:href="#mfedcffb224" x="427.487007" y="461.625" style="fill: #ff7f0e; stroke: #000000; stroke-linejoin: miter"/>
     <use xlink:href="#mfedcffb224" x="321.286658" y="530.375" style="fill: #ff7f0e; stroke: #000000; stroke-linejoin: miter"/>
     <use xlink:href="#mfedcffb224" x="244.883528" y="534.125" style="fill: #ff7f0e; stroke: #000000; stroke-linejoin: miter"/>
     <use xlink:href="#mfedcffb224" x="167.716368" y="570.375" style="fill: #ff7f0e; stroke: #000000; stroke-linejoin: miter"/>
     <use xlink:href="#mfedcffb224" x="136.391085" y="621.625" style="fill: #ff7f0e; stroke: #000000; stroke-linejoin: miter"/>
    </g>
   </g>
   <g id="patch_9">
    <path d="M 84.407937 646.5 
L 84.407937 415.5 
" style="fill: none; stroke: #000000; stroke-width: 0.8; stroke-linejoin: miter; stroke-linecap: square"/>
   </g>
   <g id="patch_10">
    <path d="M 475.007938 646.5 
L 475.007938 415.5 
" style="fill: none; stroke: #000000; stroke-width: 0.8; stroke-linejoin: miter; stroke-linecap: square"/>
   </g>
   <g id="patch_11">
    <path d="M 84.407937 646.5 
L 475.007938 646.5 
" style="fill: none; stroke: #000000; stroke-width: 0.8; stroke-linejoin: miter; stroke-linecap: square"/>
   </g>
   <g id="patch_12">
    <path d="M 84.407937 415.5 
L 475.007938 415.5 
" style="fill: none; stroke: #000000; stroke-width: 0.8; stroke-linejoin: miter; stroke-linecap: square"/>
   </g>
   <g id="legend_2">
    <g id="patch_13">
     <path d="M 91.407937 482.2125 
L 227.647 482.2125 
Q 229.647 482.2125 229.647 480.2125 
L 229.647 422.5 
Q 229.647 420.5 227.647 420.5 
L 91.407937 420.5 
Q 89.407937 420.5 89.407937 422.5 
L 89.407937 480.2125 
Q 89.407937 482.2125 91.407937 482.2125 
z
" style="fill: #ffffff; opacity: 0.8; stroke: #cccccc; stroke-linejoin: miter"/>
    </g>
    <g id="line2d_37">
     <path d="M 93.407937 428.598438 
L 113.407937 428.598438 
" style="fill: none; stroke: #1f77b4; stroke-width: 2; stroke-linecap: square"/>
    </g>
    <g id="line2d_38"/>
    <g id="text_29">
     <!-- Sim 50 -->
     <g transform="translate(121.407937 432.098438) scale(0.1 -0.1)">
      <use xlink:href="#DejaVuSans-53"/>
      <use xlink:href="#DejaVuSans-69" transform="translate(63.476562 0)"/>
      <use xlink:href="#DejaVuSans-6d" transform="translate(91.259766 0)"/>
      <use xlink:href="#DejaVuSans-20" transform="translate(188.671875 0)"/>
      <use xlink:href="#DejaVuSans-35" transform="translate(220.458984 0)"/>
      <use xlink:href="#DejaVuSans-30" transform="translate(284.082031 0)"/>
     </g>
    </g>
    <g id="line2d_39">
     <path d="M 93.407937 443.276563 
L 113.407937 443.276563 
" style="fill: none; stroke-dasharray: 3.7,1.6; stroke-dashoffset: 0; stroke: #1f77b4"/>
    </g>
    <g id="line2d_40">
     <g>
      <use xlink:href="#m0dcb97bd02" x="103.407937" y="443.276563" style="fill: #1f77b4; stroke: #000000; stroke-linejoin: miter"/>
     </g>
    </g>
    <g id="text_30">
     <!-- HCTZ 50mg (n=10) -->
     <g transform="translate(121.407937 446.776563) scale(0.1 -0.1)">
      <use xlink:href="#DejaVuSans-48"/>
      <use xlink:href="#DejaVuSans-43" transform="translate(75.195312 0)"/>
      <use xlink:href="#DejaVuSans-54" transform="translate(145.019531 0)"/>
      <use xlink:href="#DejaVuSans-5a" transform="translate(206.103516 0)"/>
      <use xlink:href="#DejaVuSans-20" transform="translate(274.609375 0)"/>
      <use xlink:href="#DejaVuSans-35" transform="translate(306.396484 0)"/>
      <use xlink:href="#DejaVuSans-30" transform="translate(370.019531 0)"/>
      <use xlink:href="#DejaVuSans-6d" transform="translate(433.642578 0)"/>
      <use xlink:href="#DejaVuSans-67" transform="translate(531.054688 0)"/>
      <use xlink:href="#DejaVuSans-20" transform="translate(594.53125 0)"/>
      <use xlink:href="#DejaVuSans-28" transform="translate(626.318359 0)"/>
      <use xlink:href="#DejaVuSans-6e" transform="translate(665.332031 0)"/>
      <use xlink:href="#DejaVuSans-3d" transform="translate(728.710938 0)"/>
      <use xlink:href="#DejaVuSans-31" transform="translate(812.5 0)"/>
      <use xlink:href="#DejaVuSans-30" transform="translate(876.123047 0)"/>
      <use xlink:href="#DejaVuSans-29" transform="translate(939.746094 0)"/>
     </g>
    </g>
    <g id="line2d_41">
     <path d="M 93.407937 457.954688 
L 113.407937 457.954688 
" style="fill: none; stroke: #ff7f0e; stroke-width: 2; stroke-linecap: square"/>
    </g>
    <g id="line2d_42"/>
    <g id="text_31">
     <!-- Sim 100 -->
     <g transform="translate(121.407937 461.454688) scale(0.1 -0.1)">
      <use xlink:href="#DejaVuSans-53"/>
      <use xlink:href="#DejaVuSans-69" transform="translate(63.476562 0)"/>
      <use xlink:href="#DejaVuSans-6d" transform="translate(91.259766 0)"/>
      <use xlink:href="#DejaVuSans-20" transform="translate(188.671875 0)"/>
      <use xlink:href="#DejaVuSans-31" transform="translate(220.458984 0)"/>
      <use xlink:href="#DejaVuSans-30" transform="translate(284.082031 0)"/>
      <use xlink:href="#DejaVuSans-30" transform="translate(347.705078 0)"/>
     </g>
    </g>
    <g id="line2d_43">
     <path d="M 93.407937 472.632812 
L 113.407937 472.632812 
" style="fill: none; stroke-dasharray: 3.7,1.6; stroke-dashoffset: 0; stroke: #ff7f0e"/>
    </g>
    <g id="line2d_44">
     <g>
      <use xlink:href="#mfedcffb224" x="103.407937" y="472.632812" style="fill: #ff7f0e; stroke: #000000; stroke-linejoin: miter"/>
     </g>
    </g>
    <g id="text_32">
     <!-- HCTZ 100mg (n=10) -->
     <g transform="translate(121.407937 476.132812) scale(0.1 -0.1)">
      <use xlink:href="#DejaVuSans-48"/>
      <use xlink:href="#DejaVuSans-43" transform="translate(75.195312 0)"/>
      <use xlink:href="#DejaVuSans-54" transform="translate(145.019531 0)"/>
      <use xlink:href="#DejaVuSans-5a" transform="translate(206.103516 0)"/>
      <use xlink:href="#DejaVuSans-20" transform="translate(274.609375 0)"/>
      <use xlink:href="#DejaVuSans-31" transform="translate(306.396484 0)"/>
      <use xlink:href="#DejaVuSans-30" transform="translate(370.019531 0)"/>
      <use xlink:href="#DejaVuSans-30" transform="translate(433.642578 0)"/>
      <use xlink:href="#DejaVuSans-6d" transform="translate(497.265625 0)"/>
      <use xlink:href="#DejaVuSans-67" transform="translate(594.677734 0)"/>
      <use xlink:href="#DejaVuSans-20" transform="translate(658.154297 0)"/>
      <use xlink:href="#DejaVuSans-28" transform="translate(689.941406 0)"/>
      <use xlink:href="#DejaVuSans-6e" transform="translate(728.955078 0)"/>
      <use xlink:href="#DejaVuSans-3d" transform="translate(792.333984 0)"/>
      <use xlink:href="#DejaVuSans-31" transform="translate(876.123047 0)"/>
      <use xlink:href="#DejaVuSans-30" transform="translate(939.746094 0)"/>
      <use xlink:href="#DejaVuSans-29" transform="translate(1003.369141 0)"/>
     </g>
    </g>
   </g>
  </g>
  <g id="axes_3">
   <g id="patch_14">
    <path d="M 84.407937 946.8 
L 475.007938 946.8 
L 475.007938 715.8 
L 84.407937 715.8 
z
" style="fill: #ffffff"/>
   </g>
   <g id="matplotlib.axis_5">
    <g id="xtick_11">
     <g id="line2d_45">
      <g>
       <use xlink:href="#m56a312e036" x="102.162483" y="946.8" style="stroke: #000000; stroke-width: 0.8"/>
      </g>
     </g>
     <g id="text_33">
      <!-- 0 -->
      <g transform="translate(97.390608 965.197656) scale(0.15 -0.15)">
       <use xlink:href="#DejaVuSans-30"/>
      </g>
     </g>
    </g>
    <g id="xtick_12">
     <g id="line2d_46">
      <g>
       <use xlink:href="#m56a312e036" x="188.069198" y="946.8" style="stroke: #000000; stroke-width: 0.8"/>
      </g>
     </g>
     <g id="text_34">
      <!-- 100 -->
      <g transform="translate(173.753573 965.197656) scale(0.15 -0.15)">
       <use xlink:href="#DejaVuSans-31"/>
       <use xlink:href="#DejaVuSans-30" transform="translate(63.623047 0)"/>
       <use xlink:href="#DejaVuSans-30" transform="translate(127.246094 0)"/>
      </g>
     </g>
    </g>
    <g id="xtick_13">
     <g id="line2d_47">
      <g>
       <use xlink:href="#m56a312e036" x="273.975912" y="946.8" style="stroke: #000000; stroke-width: 0.8"/>
      </g>
     </g>
     <g id="text_35">
      <!-- 200 -->
      <g transform="translate(259.660287 965.197656) scale(0.15 -0.15)">
       <use xlink:href="#DejaVuSans-32"/>
       <use xlink:href="#DejaVuSans-30" transform="translate(63.623047 0)"/>
       <use xlink:href="#DejaVuSans-30" transform="translate(127.246094 0)"/>
      </g>
     </g>
    </g>
    <g id="xtick_14">
     <g id="line2d_48">
      <g>
       <use xlink:href="#m56a312e036" x="359.882627" y="946.8" style="stroke: #000000; stroke-width: 0.8"/>
      </g>
     </g>
     <g id="text_36">
      <!-- 300 -->
      <g transform="translate(345.567002 965.197656) scale(0.15 -0.15)">
       <use xlink:href="#DejaVuSans-33"/>
       <use xlink:href="#DejaVuSans-30" transform="translate(63.623047 0)"/>
       <use xlink:href="#DejaVuSans-30" transform="translate(127.246094 0)"/>
      </g>
     </g>
    </g>
    <g id="xtick_15">
     <g id="line2d_49">
      <g>
       <use xlink:href="#m56a312e036" x="445.789341" y="946.8" style="stroke: #000000; stroke-width: 0.8"/>
      </g>
     </g>
     <g id="text_37">
      <!-- 400 -->
      <g transform="translate(431.473716 965.197656) scale(0.15 -0.15)">
       <use xlink:href="#DejaVuSans-34"/>
       <use xlink:href="#DejaVuSans-30" transform="translate(63.623047 0)"/>
       <use xlink:href="#DejaVuSans-30" transform="translate(127.246094 0)"/>
      </g>
     </g>
    </g>
    <g id="text_38">
     <!-- HCTZ excretion -->
     <g transform="translate(202.007 985.994375) scale(0.18 -0.18)">
      <use xlink:href="#DejaVuSans-Bold-48"/>
      <use xlink:href="#DejaVuSans-Bold-43" transform="translate(83.691406 0)"/>
      <use xlink:href="#DejaVuSans-Bold-54" transform="translate(157.080078 0)"/>
      <use xlink:href="#DejaVuSans-Bold-5a" transform="translate(225.292969 0)"/>
      <use xlink:href="#DejaVuSans-Bold-20" transform="translate(297.802734 0)"/>
      <use xlink:href="#DejaVuSans-Bold-65" transform="translate(332.617188 0)"/>
      <use xlink:href="#DejaVuSans-Bold-78" transform="translate(400.439453 0)"/>
      <use xlink:href="#DejaVuSans-Bold-63" transform="translate(464.941406 0)"/>
      <use xlink:href="#DejaVuSans-Bold-72" transform="translate(524.21875 0)"/>
      <use xlink:href="#DejaVuSans-Bold-65" transform="translate(573.535156 0)"/>
      <use xlink:href="#DejaVuSans-Bold-74" transform="translate(641.357422 0)"/>
      <use xlink:href="#DejaVuSans-Bold-69" transform="translate(689.160156 0)"/>
      <use xlink:href="#DejaVuSans-Bold-6f" transform="translate(723.4375 0)"/>
      <use xlink:href="#DejaVuSans-Bold-6e" transform="translate(792.138672 0)"/>
     </g>
     <!-- urine [nmol/min] -->
     <g transform="translate(194.6945 1006.150438) scale(0.18 -0.18)">
      <use xlink:href="#DejaVuSans-Bold-75"/>
      <use xlink:href="#DejaVuSans-Bold-72" transform="translate(71.191406 0)"/>
      <use xlink:href="#DejaVuSans-Bold-69" transform="translate(120.507812 0)"/>
      <use xlink:href="#DejaVuSans-Bold-6e" transform="translate(154.785156 0)"/>
      <use xlink:href="#DejaVuSans-Bold-65" transform="translate(225.976562 0)"/>
      <use xlink:href="#DejaVuSans-Bold-20" transform="translate(293.798828 0)"/>
      <use xlink:href="#DejaVuSans-Bold-5b" transform="translate(328.613281 0)"/>
      <use xlink:href="#DejaVuSans-Bold-6e" transform="translate(374.316406 0)"/>
      <use xlink:href="#DejaVuSans-Bold-6d" transform="translate(445.507812 0)"/>
      <use xlink:href="#DejaVuSans-Bold-6f" transform="translate(549.707031 0)"/>
      <use xlink:href="#DejaVuSans-Bold-6c" transform="translate(618.408203 0)"/>
      <use xlink:href="#DejaVuSans-Bold-2f" transform="translate(652.685547 0)"/>
      <use xlink:href="#DejaVuSans-Bold-6d" transform="translate(689.208984 0)"/>
      <use xlink:href="#DejaVuSans-Bold-69" transform="translate(793.408203 0)"/>
      <use xlink:href="#DejaVuSans-Bold-6e" transform="translate(827.685547 0)"/>
      <use xlink:href="#DejaVuSans-Bold-5d" transform="translate(898.876953 0)"/>
     </g>
    </g>
   </g>
   <g id="matplotlib.axis_6">
    <g id="ytick_11">
     <g id="line2d_50">
      <g>
       <use xlink:href="#mc069857db0" x="84.407937" y="912.872327" style="stroke: #000000; stroke-width: 0.8"/>
      </g>
     </g>
     <g id="text_39">
      <!-- 20 -->
      <g transform="translate(58.320437 918.571156) scale(0.15 -0.15)">
       <use xlink:href="#DejaVuSans-32"/>
       <use xlink:href="#DejaVuSans-30" transform="translate(63.623047 0)"/>
      </g>
     </g>
    </g>
    <g id="ytick_12">
     <g id="line2d_51">
      <g>
       <use xlink:href="#mc069857db0" x="84.407937" y="872.780148" style="stroke: #000000; stroke-width: 0.8"/>
      </g>
     </g>
     <g id="text_40">
      <!-- 40 -->
      <g transform="translate(58.320437 878.478976) scale(0.15 -0.15)">
       <use xlink:href="#DejaVuSans-34"/>
       <use xlink:href="#DejaVuSans-30" transform="translate(63.623047 0)"/>
      </g>
     </g>
    </g>
    <g id="ytick_13">
     <g id="line2d_52">
      <g>
       <use xlink:href="#mc069857db0" x="84.407937" y="832.687968" style="stroke: #000000; stroke-width: 0.8"/>
      </g>
     </g>
     <g id="text_41">
      <!-- 60 -->
      <g transform="translate(58.320437 838.386796) scale(0.15 -0.15)">
       <defs>
        <path id="DejaVuSans-36" d="M 2113 2584 
Q 1688 2584 1439 2293 
Q 1191 2003 1191 1497 
Q 1191 994 1439 701 
Q 1688 409 2113 409 
Q 2538 409 2786 701 
Q 3034 994 3034 1497 
Q 3034 2003 2786 2293 
Q 2538 2584 2113 2584 
z
M 3366 4563 
L 3366 3988 
Q 3128 4100 2886 4159 
Q 2644 4219 2406 4219 
Q 1781 4219 1451 3797 
Q 1122 3375 1075 2522 
Q 1259 2794 1537 2939 
Q 1816 3084 2150 3084 
Q 2853 3084 3261 2657 
Q 3669 2231 3669 1497 
Q 3669 778 3244 343 
Q 2819 -91 2113 -91 
Q 1303 -91 875 529 
Q 447 1150 447 2328 
Q 447 3434 972 4092 
Q 1497 4750 2381 4750 
Q 2619 4750 2861 4703 
Q 3103 4656 3366 4563 
z
" transform="scale(0.015625)"/>
       </defs>
       <use xlink:href="#DejaVuSans-36"/>
       <use xlink:href="#DejaVuSans-30" transform="translate(63.623047 0)"/>
      </g>
     </g>
    </g>
    <g id="ytick_14">
     <g id="line2d_53">
      <g>
       <use xlink:href="#mc069857db0" x="84.407937" y="792.595788" style="stroke: #000000; stroke-width: 0.8"/>
      </g>
     </g>
     <g id="text_42">
      <!-- 80 -->
      <g transform="translate(58.320437 798.294616) scale(0.15 -0.15)">
       <defs>
        <path id="DejaVuSans-38" d="M 2034 2216 
Q 1584 2216 1326 1975 
Q 1069 1734 1069 1313 
Q 1069 891 1326 650 
Q 1584 409 2034 409 
Q 2484 409 2743 651 
Q 3003 894 3003 1313 
Q 3003 1734 2745 1975 
Q 2488 2216 2034 2216 
z
M 1403 2484 
Q 997 2584 770 2862 
Q 544 3141 544 3541 
Q 544 4100 942 4425 
Q 1341 4750 2034 4750 
Q 2731 4750 3128 4425 
Q 3525 4100 3525 3541 
Q 3525 3141 3298 2862 
Q 3072 2584 2669 2484 
Q 3125 2378 3379 2068 
Q 3634 1759 3634 1313 
Q 3634 634 3220 271 
Q 2806 -91 2034 -91 
Q 1263 -91 848 271 
Q 434 634 434 1313 
Q 434 1759 690 2068 
Q 947 2378 1403 2484 
z
M 1172 3481 
Q 1172 3119 1398 2916 
Q 1625 2713 2034 2713 
Q 2441 2713 2670 2916 
Q 2900 3119 2900 3481 
Q 2900 3844 2670 4047 
Q 2441 4250 2034 4250 
Q 1625 4250 1398 4047 
Q 1172 3844 1172 3481 
z
" transform="scale(0.015625)"/>
       </defs>
       <use xlink:href="#DejaVuSans-38"/>
       <use xlink:href="#DejaVuSans-30" transform="translate(63.623047 0)"/>
      </g>
     </g>
    </g>
    <g id="ytick_15">
     <g id="line2d_54">
      <g>
       <use xlink:href="#mc069857db0" x="84.407937" y="752.503608" style="stroke: #000000; stroke-width: 0.8"/>
      </g>
     </g>
     <g id="text_43">
      <!-- 100 -->
      <g transform="translate(48.776687 758.202436) scale(0.15 -0.15)">
       <use xlink:href="#DejaVuSans-31"/>
       <use xlink:href="#DejaVuSans-30" transform="translate(63.623047 0)"/>
       <use xlink:href="#DejaVuSans-30" transform="translate(127.246094 0)"/>
      </g>
     </g>
    </g>
    <g id="text_44">
     <!-- Chloride excretion -->
     <g transform="translate(20.877187 924.548437) rotate(-90) scale(0.18 -0.18)">
      <use xlink:href="#DejaVuSans-Bold-43"/>
      <use xlink:href="#DejaVuSans-Bold-68" transform="translate(73.388672 0)"/>
      <use xlink:href="#DejaVuSans-Bold-6c" transform="translate(144.580078 0)"/>
      <use xlink:href="#DejaVuSans-Bold-6f" transform="translate(178.857422 0)"/>
      <use xlink:href="#DejaVuSans-Bold-72" transform="translate(247.558594 0)"/>
      <use xlink:href="#DejaVuSans-Bold-69" transform="translate(296.875 0)"/>
      <use xlink:href="#DejaVuSans-Bold-64" transform="translate(331.152344 0)"/>
      <use xlink:href="#DejaVuSans-Bold-65" transform="translate(402.734375 0)"/>
      <use xlink:href="#DejaVuSans-Bold-20" transform="translate(470.556641 0)"/>
      <use xlink:href="#DejaVuSans-Bold-65" transform="translate(505.371094 0)"/>
      <use xlink:href="#DejaVuSans-Bold-78" transform="translate(573.193359 0)"/>
      <use xlink:href="#DejaVuSans-Bold-63" transform="translate(637.695312 0)"/>
      <use xlink:href="#DejaVuSans-Bold-72" transform="translate(696.972656 0)"/>
      <use xlink:href="#DejaVuSans-Bold-65" transform="translate(746.289062 0)"/>
      <use xlink:href="#DejaVuSans-Bold-74" transform="translate(814.111328 0)"/>
      <use xlink:href="#DejaVuSans-Bold-69" transform="translate(861.914062 0)"/>
      <use xlink:href="#DejaVuSans-Bold-6f" transform="translate(896.191406 0)"/>
      <use xlink:href="#DejaVuSans-Bold-6e" transform="translate(964.892578 0)"/>
     </g>
     <!--  [mmole/hr] -->
     <g transform="translate(41.03325 890.922188) rotate(-90) scale(0.18 -0.18)">
      <use xlink:href="#DejaVuSans-Bold-20"/>
      <use xlink:href="#DejaVuSans-Bold-5b" transform="translate(34.814453 0)"/>
      <use xlink:href="#DejaVuSans-Bold-6d" transform="translate(80.517578 0)"/>
      <use xlink:href="#DejaVuSans-Bold-6d" transform="translate(184.716797 0)"/>
      <use xlink:href="#DejaVuSans-Bold-6f" transform="translate(288.916016 0)"/>
      <use xlink:href="#DejaVuSans-Bold-6c" transform="translate(357.617188 0)"/>
      <use xlink:href="#DejaVuSans-Bold-65" transform="translate(391.894531 0)"/>
      <use xlink:href="#DejaVuSans-Bold-2f" transform="translate(459.716797 0)"/>
      <use xlink:href="#DejaVuSans-Bold-68" transform="translate(496.240234 0)"/>
      <use xlink:href="#DejaVuSans-Bold-72" transform="translate(567.431641 0)"/>
      <use xlink:href="#DejaVuSans-Bold-5d" transform="translate(616.748047 0)"/>
     </g>
    </g>
   </g>
   <g id="line2d_55">
    <path d="M 102.162483 929.254547 
L 159.368624 893.463641 
L 194.225739 871.865198 
L 222.602113 854.549141 
L 243.968098 841.826263 
L 259.144421 833.130229 
L 269.281563 827.681687 
L 275.48784 824.734444 
L 278.709117 823.655656 
L 279.707938 823.939153 
L 279.079749 825.193536 
L 277.280263 827.122738 
L 274.65342 829.506325 
L 267.878422 835.032693 
L 260.103158 840.942813 
L 252.046987 846.815676 
L 240.193599 855.149247 
L 229.050032 862.723383 
L 215.533039 871.618948 
L 203.52382 879.272632 
L 190.427026 887.361925 
L 177.133345 895.304186 
L 164.395383 902.664498 
L 151.503681 909.866886 
L 138.012894 917.136867 
L 125.488323 923.628753 
L 114.935424 928.854858 
L 108.788069 931.679115 
L 105.76786 932.850002 
L 104.108894 933.274867 
L 103.188374 933.304239 
L 102.678123 933.1176 
L 102.392034 932.783776 
L 102.392034 932.783776 
" clip-path="url(#pf91d95b385)" style="fill: none; stroke: #1f77b4; stroke-width: 2; stroke-linecap: square"/>
   </g>
   <g id="line2d_56">
    <path d="M 202.861807 860.920233 
L 315.938439 758.673756 
L 242.591435 804.132822 
L 203.625839 822.989771 
L 144.031398 860.219349 
L 122.638522 918.184089 
" clip-path="url(#pf91d95b385)" style="fill: none; stroke-dasharray: 3.7,1.6; stroke-dashoffset: 0; stroke: #1f77b4"/>
    <g clip-path="url(#pf91d95b385)">
     <use xlink:href="#m0dcb97bd02" x="202.861807" y="860.920233" style="fill: #1f77b4; stroke: #000000; stroke-linejoin: miter"/>
     <use xlink:href="#m0dcb97bd02" x="315.938439" y="758.673756" style="fill: #1f77b4; stroke: #000000; stroke-linejoin: miter"/>
     <use xlink:href="#m0dcb97bd02" x="242.591435" y="804.132822" style="fill: #1f77b4; stroke: #000000; stroke-linejoin: miter"/>
     <use xlink:href="#m0dcb97bd02" x="203.625839" y="822.989771" style="fill: #1f77b4; stroke: #000000; stroke-linejoin: miter"/>
     <use xlink:href="#m0dcb97bd02" x="144.031398" y="860.219349" style="fill: #1f77b4; stroke: #000000; stroke-linejoin: miter"/>
     <use xlink:href="#m0dcb97bd02" x="122.638522" y="918.184089" style="fill: #1f77b4; stroke: #000000; stroke-linejoin: miter"/>
    </g>
   </g>
   <g id="line2d_57">
    <path d="M 102.162483 929.254547 
L 143.352413 903.436438 
L 216.574765 857.800347 
L 286.288995 815.013194 
L 343.041744 781.158682 
L 385.773712 756.822891 
L 416.126359 740.778194 
L 436.400643 731.358697 
L 448.813196 726.978234 
L 455.25575 726.3 
L 457.253392 728.263402 
L 455.997015 732.056544 
L 452.398043 737.072656 
L 447.144357 742.866371 
L 440.749681 749.115709 
L 433.59436 755.5912 
L 425.957825 762.131753 
L 418.043833 768.626266 
L 409.99981 774.999834 
L 401.931491 781.203545 
L 393.913913 787.206984 
L 378.224716 798.552697 
L 363.181247 808.991138 
L 348.887302 818.549138 
L 335.371592 827.284572 
L 322.625018 835.265781 
L 310.62026 842.561774 
L 299.321944 849.237869 
L 283.615359 858.219239 
L 269.283707 866.117486 
L 256.205058 873.083653 
L 240.5227 881.139488 
L 226.628283 888.011901 
L 211.45379 895.239158 
L 195.994615 902.30913 
L 181.102029 908.84514 
L 167.41456 914.616503 
L 153.038022 920.433062 
L 139.314687 925.737616 
L 127.266618 930.155751 
L 118.26119 933.229223 
L 112.566461 934.955854 
L 108.84919 935.863521 
L 106.418731 936.242438 
L 104.797728 936.283593 
L 103.762056 936.102003 
L 103.100036 935.772733 
L 102.667423 935.312082 
L 102.621586 935.23798 
L 102.621586 935.23798 
" clip-path="url(#pf91d95b385)" style="fill: none; stroke: #ff7f0e; stroke-width: 2; stroke-linecap: square"/>
   </g>
   <g id="line2d_58">
    <path d="M 339.623409 804.038321 
L 427.487007 782.984217 
L 321.286658 817.431913 
L 244.883528 815.193413 
L 167.716368 868.511838 
L 136.391085 909.927037 
" clip-path="url(#pf91d95b385)" style="fill: none; stroke-dasharray: 3.7,1.6; stroke-dashoffset: 0; stroke: #ff7f0e"/>
    <g clip-path="url(#pf91d95b385)">
     <use xlink:href="#mfedcffb224" x="339.623409" y="804.038321" style="fill: #ff7f0e; stroke: #000000; stroke-linejoin: miter"/>
     <use xlink:href="#mfedcffb224" x="427.487007" y="782.984217" style="fill: #ff7f0e; stroke: #000000; stroke-linejoin: miter"/>
     <use xlink:href="#mfedcffb224" x="321.286658" y="817.431913" style="fill: #ff7f0e; stroke: #000000; stroke-linejoin: miter"/>
     <use xlink:href="#mfedcffb224" x="244.883528" y="815.193413" style="fill: #ff7f0e; stroke: #000000; stroke-linejoin: miter"/>
     <use xlink:href="#mfedcffb224" x="167.716368" y="868.511838" style="fill: #ff7f0e; stroke: #000000; stroke-linejoin: miter"/>
     <use xlink:href="#mfedcffb224" x="136.391085" y="909.927037" style="fill: #ff7f0e; stroke: #000000; stroke-linejoin: miter"/>
    </g>
   </g>
   <g id="patch_15">
    <path d="M 84.407937 946.8 
L 84.407937 715.8 
" style="fill: none; stroke: #000000; stroke-width: 0.8; stroke-linejoin: miter; stroke-linecap: square"/>
   </g>
   <g id="patch_16">
    <path d="M 475.007938 946.8 
L 475.007938 715.8 
" style="fill: none; stroke: #000000; stroke-width: 0.8; stroke-linejoin: miter; stroke-linecap: square"/>
   </g>
   <g id="patch_17">
    <path d="M 84.407937 946.8 
L 475.007938 946.8 
" style="fill: none; stroke: #000000; stroke-width: 0.8; stroke-linejoin: miter; stroke-linecap: square"/>
   </g>
   <g id="patch_18">
    <path d="M 84.407937 715.8 
L 475.007938 715.8 
" style="fill: none; stroke: #000000; stroke-width: 0.8; stroke-linejoin: miter; stroke-linecap: square"/>
   </g>
   <g id="legend_3">
    <g id="patch_19">
     <path d="M 91.407937 782.5125 
L 227.647 782.5125 
Q 229.647 782.5125 229.647 780.5125 
L 229.647 722.8 
Q 229.647 720.8 227.647 720.8 
L 91.407937 720.8 
Q 89.407937 720.8 89.407937 722.8 
L 89.407937 780.5125 
Q 89.407937 782.5125 91.407937 782.5125 
z
" style="fill: #ffffff; opacity: 0.8; stroke: #cccccc; stroke-linejoin: miter"/>
    </g>
    <g id="line2d_59">
     <path d="M 93.407937 728.898438 
L 113.407937 728.898438 
" style="fill: none; stroke: #1f77b4; stroke-width: 2; stroke-linecap: square"/>
    </g>
    <g id="line2d_60"/>
    <g id="text_45">
     <!-- Sim 50 -->
     <g transform="translate(121.407937 732.398438) scale(0.1 -0.1)">
      <use xlink:href="#DejaVuSans-53"/>
      <use xlink:href="#DejaVuSans-69" transform="translate(63.476562 0)"/>
      <use xlink:href="#DejaVuSans-6d" transform="translate(91.259766 0)"/>
      <use xlink:href="#DejaVuSans-20" transform="translate(188.671875 0)"/>
      <use xlink:href="#DejaVuSans-35" transform="translate(220.458984 0)"/>
      <use xlink:href="#DejaVuSans-30" transform="translate(284.082031 0)"/>
     </g>
    </g>
    <g id="line2d_61">
     <path d="M 93.407937 743.576563 
L 113.407937 743.576563 
" style="fill: none; stroke-dasharray: 3.7,1.6; stroke-dashoffset: 0; stroke: #1f77b4"/>
    </g>
    <g id="line2d_62">
     <g>
      <use xlink:href="#m0dcb97bd02" x="103.407937" y="743.576563" style="fill: #1f77b4; stroke: #000000; stroke-linejoin: miter"/>
     </g>
    </g>
    <g id="text_46">
     <!-- HCTZ 50mg (n=10) -->
     <g transform="translate(121.407937 747.076563) scale(0.1 -0.1)">
      <use xlink:href="#DejaVuSans-48"/>
      <use xlink:href="#DejaVuSans-43" transform="translate(75.195312 0)"/>
      <use xlink:href="#DejaVuSans-54" transform="translate(145.019531 0)"/>
      <use xlink:href="#DejaVuSans-5a" transform="translate(206.103516 0)"/>
      <use xlink:href="#DejaVuSans-20" transform="translate(274.609375 0)"/>
      <use xlink:href="#DejaVuSans-35" transform="translate(306.396484 0)"/>
      <use xlink:href="#DejaVuSans-30" transform="translate(370.019531 0)"/>
      <use xlink:href="#DejaVuSans-6d" transform="translate(433.642578 0)"/>
      <use xlink:href="#DejaVuSans-67" transform="translate(531.054688 0)"/>
      <use xlink:href="#DejaVuSans-20" transform="translate(594.53125 0)"/>
      <use xlink:href="#DejaVuSans-28" transform="translate(626.318359 0)"/>
      <use xlink:href="#DejaVuSans-6e" transform="translate(665.332031 0)"/>
      <use xlink:href="#DejaVuSans-3d" transform="translate(728.710938 0)"/>
      <use xlink:href="#DejaVuSans-31" transform="translate(812.5 0)"/>
      <use xlink:href="#DejaVuSans-30" transform="translate(876.123047 0)"/>
      <use xlink:href="#DejaVuSans-29" transform="translate(939.746094 0)"/>
     </g>
    </g>
    <g id="line2d_63">
     <path d="M 93.407937 758.254688 
L 113.407937 758.254688 
" style="fill: none; stroke: #ff7f0e; stroke-width: 2; stroke-linecap: square"/>
    </g>
    <g id="line2d_64"/>
    <g id="text_47">
     <!-- Sim 100 -->
     <g transform="translate(121.407937 761.754688) scale(0.1 -0.1)">
      <use xlink:href="#DejaVuSans-53"/>
      <use xlink:href="#DejaVuSans-69" transform="translate(63.476562 0)"/>
      <use xlink:href="#DejaVuSans-6d" transform="translate(91.259766 0)"/>
      <use xlink:href="#DejaVuSans-20" transform="translate(188.671875 0)"/>
      <use xlink:href="#DejaVuSans-31" transform="translate(220.458984 0)"/>
      <use xlink:href="#DejaVuSans-30" transform="translate(284.082031 0)"/>
      <use xlink:href="#DejaVuSans-30" transform="translate(347.705078 0)"/>
     </g>
    </g>
    <g id="line2d_65">
     <path d="M 93.407937 772.932813 
L 113.407937 772.932813 
" style="fill: none; stroke-dasharray: 3.7,1.6; stroke-dashoffset: 0; stroke: #ff7f0e"/>
    </g>
    <g id="line2d_66">
     <g>
      <use xlink:href="#mfedcffb224" x="103.407937" y="772.932813" style="fill: #ff7f0e; stroke: #000000; stroke-linejoin: miter"/>
     </g>
    </g>
    <g id="text_48">
     <!-- HCTZ 100mg (n=10) -->
     <g transform="translate(121.407937 776.432813) scale(0.1 -0.1)">
      <use xlink:href="#DejaVuSans-48"/>
      <use xlink:href="#DejaVuSans-43" transform="translate(75.195312 0)"/>
      <use xlink:href="#DejaVuSans-54" transform="translate(145.019531 0)"/>
      <use xlink:href="#DejaVuSans-5a" transform="translate(206.103516 0)"/>
      <use xlink:href="#DejaVuSans-20" transform="translate(274.609375 0)"/>
      <use xlink:href="#DejaVuSans-31" transform="translate(306.396484 0)"/>
      <use xlink:href="#DejaVuSans-30" transform="translate(370.019531 0)"/>
      <use xlink:href="#DejaVuSans-30" transform="translate(433.642578 0)"/>
      <use xlink:href="#DejaVuSans-6d" transform="translate(497.265625 0)"/>
      <use xlink:href="#DejaVuSans-67" transform="translate(594.677734 0)"/>
      <use xlink:href="#DejaVuSans-20" transform="translate(658.154297 0)"/>
      <use xlink:href="#DejaVuSans-28" transform="translate(689.941406 0)"/>
      <use xlink:href="#DejaVuSans-6e" transform="translate(728.955078 0)"/>
      <use xlink:href="#DejaVuSans-3d" transform="translate(792.333984 0)"/>
      <use xlink:href="#DejaVuSans-31" transform="translate(876.123047 0)"/>
      <use xlink:href="#DejaVuSans-30" transform="translate(939.746094 0)"/>
      <use xlink:href="#DejaVuSans-29" transform="translate(1003.369141 0)"/>
     </g>
    </g>
   </g>
  </g>
  <g id="text_49">
   <!-- Williams1982 Fig2ABC -->
   <g transform="translate(115.595438 26.196094) scale(0.25 -0.25)">
    <defs>
     <path id="DejaVuSans-Bold-57" d="M 191 4666 
L 1344 4666 
L 2150 1275 
L 2950 4666 
L 4109 4666 
L 4909 1275 
L 5716 4666 
L 6859 4666 
L 5759 0 
L 4372 0 
L 3525 3547 
L 2688 0 
L 1300 0 
L 191 4666 
z
" transform="scale(0.015625)"/>
     <path id="DejaVuSans-Bold-61" d="M 2106 1575 
Q 1756 1575 1579 1456 
Q 1403 1338 1403 1106 
Q 1403 894 1545 773 
Q 1688 653 1941 653 
Q 2256 653 2472 879 
Q 2688 1106 2688 1447 
L 2688 1575 
L 2106 1575 
z
M 3816 1997 
L 3816 0 
L 2688 0 
L 2688 519 
Q 2463 200 2181 54 
Q 1900 -91 1497 -91 
Q 953 -91 614 226 
Q 275 544 275 1050 
Q 275 1666 698 1953 
Q 1122 2241 2028 2241 
L 2688 2241 
L 2688 2328 
Q 2688 2594 2478 2717 
Q 2269 2841 1825 2841 
Q 1466 2841 1156 2769 
Q 847 2697 581 2553 
L 581 3406 
Q 941 3494 1303 3539 
Q 1666 3584 2028 3584 
Q 2975 3584 3395 3211 
Q 3816 2838 3816 1997 
z
" transform="scale(0.015625)"/>
     <path id="DejaVuSans-Bold-31" d="M 750 831 
L 1813 831 
L 1813 3847 
L 722 3622 
L 722 4441 
L 1806 4666 
L 2950 4666 
L 2950 831 
L 4013 831 
L 4013 0 
L 750 0 
L 750 831 
z
" transform="scale(0.015625)"/>
     <path id="DejaVuSans-Bold-39" d="M 641 103 
L 641 966 
Q 928 831 1190 764 
Q 1453 697 1709 697 
Q 2247 697 2547 995 
Q 2847 1294 2900 1881 
Q 2688 1725 2447 1647 
Q 2206 1569 1925 1569 
Q 1209 1569 770 1986 
Q 331 2403 331 3084 
Q 331 3838 820 4291 
Q 1309 4744 2131 4744 
Q 3044 4744 3544 4128 
Q 4044 3513 4044 2388 
Q 4044 1231 3459 570 
Q 2875 -91 1856 -91 
Q 1528 -91 1228 -42 
Q 928 6 641 103 
z
M 2125 2350 
Q 2441 2350 2600 2554 
Q 2759 2759 2759 3169 
Q 2759 3575 2600 3781 
Q 2441 3988 2125 3988 
Q 1809 3988 1650 3781 
Q 1491 3575 1491 3169 
Q 1491 2759 1650 2554 
Q 1809 2350 2125 2350 
z
" transform="scale(0.015625)"/>
     <path id="DejaVuSans-Bold-38" d="M 2228 2088 
Q 1891 2088 1709 1903 
Q 1528 1719 1528 1375 
Q 1528 1031 1709 848 
Q 1891 666 2228 666 
Q 2563 666 2741 848 
Q 2919 1031 2919 1375 
Q 2919 1722 2741 1905 
Q 2563 2088 2228 2088 
z
M 1350 2484 
Q 925 2613 709 2878 
Q 494 3144 494 3541 
Q 494 4131 934 4440 
Q 1375 4750 2228 4750 
Q 3075 4750 3515 4442 
Q 3956 4134 3956 3541 
Q 3956 3144 3739 2878 
Q 3522 2613 3097 2484 
Q 3572 2353 3814 2058 
Q 4056 1763 4056 1313 
Q 4056 619 3595 264 
Q 3134 -91 2228 -91 
Q 1319 -91 855 264 
Q 391 619 391 1313 
Q 391 1763 633 2058 
Q 875 2353 1350 2484 
z
M 1631 3419 
Q 1631 3141 1786 2991 
Q 1941 2841 2228 2841 
Q 2509 2841 2662 2991 
Q 2816 3141 2816 3419 
Q 2816 3697 2662 3845 
Q 2509 3994 2228 3994 
Q 1941 3994 1786 3844 
Q 1631 3694 1631 3419 
z
" transform="scale(0.015625)"/>
     <path id="DejaVuSans-Bold-32" d="M 1844 884 
L 3897 884 
L 3897 0 
L 506 0 
L 506 884 
L 2209 2388 
Q 2438 2594 2547 2791 
Q 2656 2988 2656 3200 
Q 2656 3528 2436 3728 
Q 2216 3928 1850 3928 
Q 1569 3928 1234 3808 
Q 900 3688 519 3450 
L 519 4475 
Q 925 4609 1322 4679 
Q 1719 4750 2100 4750 
Q 2938 4750 3402 4381 
Q 3866 4013 3866 3353 
Q 3866 2972 3669 2642 
Q 3472 2313 2841 1759 
L 1844 884 
z
" transform="scale(0.015625)"/>
     <path id="DejaVuSans-Bold-46" d="M 588 4666 
L 3834 4666 
L 3834 3756 
L 1791 3756 
L 1791 2888 
L 3713 2888 
L 3713 1978 
L 1791 1978 
L 1791 0 
L 588 0 
L 588 4666 
z
" transform="scale(0.015625)"/>
     <path id="DejaVuSans-Bold-67" d="M 2919 594 
Q 2688 288 2409 144 
Q 2131 0 1766 0 
Q 1125 0 706 504 
Q 288 1009 288 1791 
Q 288 2575 706 3076 
Q 1125 3578 1766 3578 
Q 2131 3578 2409 3434 
Q 2688 3291 2919 2981 
L 2919 3500 
L 4044 3500 
L 4044 353 
Q 4044 -491 3511 -936 
Q 2978 -1381 1966 -1381 
Q 1638 -1381 1331 -1331 
Q 1025 -1281 716 -1178 
L 716 -306 
Q 1009 -475 1290 -558 
Q 1572 -641 1856 -641 
Q 2406 -641 2662 -400 
Q 2919 -159 2919 353 
L 2919 594 
z
M 2181 2772 
Q 1834 2772 1640 2515 
Q 1447 2259 1447 1791 
Q 1447 1309 1634 1061 
Q 1822 813 2181 813 
Q 2531 813 2725 1069 
Q 2919 1325 2919 1791 
Q 2919 2259 2725 2515 
Q 2531 2772 2181 2772 
z
" transform="scale(0.015625)"/>
     <path id="DejaVuSans-Bold-41" d="M 3419 850 
L 1538 850 
L 1241 0 
L 31 0 
L 1759 4666 
L 3194 4666 
L 4922 0 
L 3713 0 
L 3419 850 
z
M 1838 1716 
L 3116 1716 
L 2478 3572 
L 1838 1716 
z
" transform="scale(0.015625)"/>
     <path id="DejaVuSans-Bold-42" d="M 2456 2859 
Q 2741 2859 2887 2984 
Q 3034 3109 3034 3353 
Q 3034 3594 2887 3720 
Q 2741 3847 2456 3847 
L 1791 3847 
L 1791 2859 
L 2456 2859 
z
M 2497 819 
Q 2859 819 3042 972 
Q 3225 1125 3225 1434 
Q 3225 1738 3044 1889 
Q 2863 2041 2497 2041 
L 1791 2041 
L 1791 819 
L 2497 819 
z
M 3616 2497 
Q 4003 2384 4215 2081 
Q 4428 1778 4428 1338 
Q 4428 663 3972 331 
Q 3516 0 2584 0 
L 588 0 
L 588 4666 
L 2394 4666 
Q 3366 4666 3802 4372 
Q 4238 4078 4238 3431 
Q 4238 3091 4078 2852 
Q 3919 2613 3616 2497 
z
" transform="scale(0.015625)"/>
    </defs>
    <use xlink:href="#DejaVuSans-Bold-57"/>
    <use xlink:href="#DejaVuSans-Bold-69" transform="translate(110.302734 0)"/>
    <use xlink:href="#DejaVuSans-Bold-6c" transform="translate(144.580078 0)"/>
    <use xlink:href="#DejaVuSans-Bold-6c" transform="translate(178.857422 0)"/>
    <use xlink:href="#DejaVuSans-Bold-69" transform="translate(213.134766 0)"/>
    <use xlink:href="#DejaVuSans-Bold-61" transform="translate(247.412109 0)"/>
    <use xlink:href="#DejaVuSans-Bold-6d" transform="translate(314.892578 0)"/>
    <use xlink:href="#DejaVuSans-Bold-73" transform="translate(419.091797 0)"/>
    <use xlink:href="#DejaVuSans-Bold-31" transform="translate(478.613281 0)"/>
    <use xlink:href="#DejaVuSans-Bold-39" transform="translate(548.193359 0)"/>
    <use xlink:href="#DejaVuSans-Bold-38" transform="translate(617.773438 0)"/>
    <use xlink:href="#DejaVuSans-Bold-32" transform="translate(687.353516 0)"/>
    <use xlink:href="#DejaVuSans-Bold-20" transform="translate(756.933594 0)"/>
    <use xlink:href="#DejaVuSans-Bold-46" transform="translate(791.748047 0)"/>
    <use xlink:href="#DejaVuSans-Bold-69" transform="translate(860.058594 0)"/>
    <use xlink:href="#DejaVuSans-Bold-67" transform="translate(894.335938 0)"/>
    <use xlink:href="#DejaVuSans-Bold-32" transform="translate(965.917969 0)"/>
    <use xlink:href="#DejaVuSans-Bold-41" transform="translate(1035.498047 0)"/>
    <use xlink:href="#DejaVuSans-Bold-42" transform="translate(1112.890625 0)"/>
    <use xlink:href="#DejaVuSans-Bold-43" transform="translate(1189.111328 0)"/>
   </g>
  </g>
 </g>
 <defs>
  <clipPath id="p4c0d3f51b8">
   <rect x="84.407937" y="115.2" width="390.6" height="231"/>
  </clipPath>
  <clipPath id="pe91edb4c62">
   <rect x="84.407937" y="415.5" width="390.6" height="231"/>
  </clipPath>
  <clipPath id="pf91d95b385">
   <rect x="84.407937" y="715.8" width="390.6" height="231"/>
  </clipPath>
 </defs>
</svg>
